<?xml version="1.0" encoding="UTF-8"?>
<svg xmlns="http://www.w3.org/2000/svg" xmlns:xlink="http://www.w3.org/1999/xlink" width="720pt" height="432pt" viewBox="0 0 720 432" version="1.1">
<defs>
<clipPath id="clip1">
  <path d="M 138 28.347656 L 142 28.347656 L 142 354.957031 L 138 354.957031 Z M 138 28.347656 "/>
</clipPath>
</defs>
<g id="surface74">
<rect x="0" y="0" width="720" height="432" style="fill:rgb(100%,100%,100%);fill-opacity:1;stroke:none;"/>
<path style="fill:none;stroke-width:4.267913;stroke-linecap:butt;stroke-linejoin:round;stroke:rgb(74.901961%,22.352941%,51.764706%);stroke-opacity:1;stroke-miterlimit:10;" d="M 108.878906 340.109375 L 140.210938 340.109375 L 144.6875 338.722656 L 149.160156 337.085938 L 153.636719 335.3125 L 158.113281 333.410156 L 162.589844 331.394531 L 167.066406 329.269531 L 171.542969 327.042969 L 176.019531 324.71875 L 180.492188 322.320313 L 184.96875 319.84375 L 189.445313 317.277344 L 193.921875 314.671875 L 198.398438 311.988281 L 202.875 309.261719 L 207.351563 306.472656 L 211.824219 303.648438 L 216.300781 300.769531 L 220.777344 297.878906 L 225.253906 294.910156 L 229.730469 291.976563 L 234.207031 288.96875 L 238.683594 285.949219 L 243.15625 282.933594 L 247.632813 279.851563 L 252.109375 276.800781 L 256.585938 273.738281 L 261.0625 270.617188 L 265.539063 267.535156 L 270.015625 264.460938 L 274.488281 261.332031 L 278.964844 258.195313 L 283.441406 255.136719 L 287.917969 252.035156 L 292.394531 248.886719 L 296.871094 245.796875 L 301.347656 242.746094 L 305.820313 239.652344 L 310.296875 236.523438 L 314.773438 233.453125 L 319.25 230.441406 L 323.726563 227.398438 L 328.203125 224.320313 L 332.679688 221.222656 L 337.152344 218.28125 L 341.628906 215.3125 L 346.105469 212.3125 L 350.582031 209.285156 L 355.058594 206.273438 L 359.535156 203.402344 L 364.011719 200.503906 L 368.484375 197.585938 L 372.960938 194.640625 L 377.4375 191.675781 L 381.914063 188.871094 L 386.390625 186.078125 L 390.867188 183.261719 L 395.34375 180.425781 L 399.816406 177.574219 L 404.292969 174.710938 L 408.769531 172.03125 L 413.246094 169.339844 L 417.722656 166.632813 L 422.199219 163.914063 L 426.675781 161.175781 L 431.148438 158.421875 L 435.625 155.78125 L 440.101563 153.21875 L 444.578125 150.644531 L 449.054688 148.054688 L 453.53125 145.453125 L 458.007813 142.839844 L 462.480469 140.210938 L 466.957031 137.6875 L 471.433594 135.257813 L 475.910156 132.816406 L 480.386719 130.367188 L 484.863281 127.90625 L 489.339844 125.433594 L 493.8125 122.949219 L 498.289063 120.460938 L 502.765625 118.125 L 507.242188 115.832031 L 511.71875 113.535156 L 516.195313 111.222656 L 520.671875 108.90625 L 525.144531 106.582031 L 529.621094 104.246094 L 534.097656 101.90625 L 538.574219 99.613281 L 543.050781 97.472656 L 547.527344 95.324219 L 552.003906 93.167969 L 556.476563 91.007813 L 560.953125 88.839844 L 565.429688 86.664063 L 569.90625 84.480469 L 574.382813 82.292969 L 578.859375 80.109375 L 583.335938 78.097656 L 587.808594 76.101563 L 596.761719 72.09375 L 601.238281 70.082031 L 605.714844 68.066406 L 610.191406 66.042969 L 614.667969 64.015625 L 619.140625 61.984375 L 623.617188 59.953125 L 628.09375 58.046875 L 637.046875 54.359375 L 641.523438 52.507813 L 646 50.652344 L 650.472656 48.792969 L 654.949219 46.929688 L 659.425781 45.0625 L 663.902344 43.191406 "/>
<g clip-path="url(#clip1)" clip-rule="nonzero">
<path style="fill:none;stroke-width:3.200935;stroke-linecap:butt;stroke-linejoin:round;stroke:rgb(66.27451%,66.27451%,66.27451%);stroke-opacity:1;stroke-dasharray:12.80374,12.80374;stroke-miterlimit:10;" d="M 140.210938 354.957031 L 140.210938 28.347656 "/>
</g>
<path style="fill:none;stroke-width:1.115477;stroke-linecap:butt;stroke-linejoin:round;stroke:rgb(66.27451%,66.27451%,66.27451%);stroke-opacity:1;stroke-miterlimit:10;" d="M 81.125 354.957031 L 81.125 28.347656 "/>
<path style=" stroke:none;fill-rule:nonzero;fill:rgb(30.196078%,30.196078%,30.196078%);fill-opacity:1;" d="M 56.828125 285.570313 L 57.003906 285.574219 L 57.171875 285.585938 L 57.335938 285.605469 L 57.496094 285.628906 L 57.652344 285.660156 L 57.804688 285.699219 L 57.953125 285.742188 L 58.097656 285.796875 L 58.234375 285.855469 L 58.367188 285.921875 L 58.5 285.996094 L 58.625 286.074219 L 58.742188 286.15625 L 58.855469 286.246094 L 58.960938 286.339844 L 59.058594 286.4375 L 59.152344 286.542969 L 59.238281 286.652344 L 59.316406 286.765625 L 59.390625 286.886719 L 59.457031 287.011719 L 59.515625 287.136719 L 59.570313 287.265625 L 59.613281 287.398438 L 59.652344 287.53125 L 59.683594 287.671875 L 59.707031 287.8125 L 59.726563 287.957031 L 59.738281 288.109375 L 59.738281 288.261719 L 59.734375 288.4375 L 59.722656 288.617188 L 59.703125 288.792969 L 59.671875 288.96875 L 59.636719 289.140625 L 59.589844 289.316406 L 59.535156 289.488281 L 59.472656 289.65625 L 59.398438 289.828125 L 59.320313 289.996094 L 59.234375 290.164063 L 59.136719 290.339844 L 59.03125 290.515625 L 58.914063 290.695313 L 58.789063 290.878906 L 58.652344 291.066406 L 58.503906 291.253906 L 58.347656 291.449219 L 58.179688 291.644531 L 58.003906 291.84375 L 57.8125 292.046875 L 57.609375 292.261719 L 57.390625 292.488281 L 56.90625 292.972656 L 56.640625 293.226563 L 56.359375 293.496094 L 56.0625 293.773438 L 55.753906 294.0625 L 55.429688 294.363281 L 59.964844 294.363281 L 59.824219 295.371094 L 54.085938 295.371094 L 54.085938 294.421875 L 54.453125 294.066406 L 54.800781 293.730469 L 55.128906 293.40625 L 55.4375 293.101563 L 55.730469 292.808594 L 56 292.535156 L 56.25 292.277344 L 56.480469 292.03125 L 56.691406 291.804688 L 56.882813 291.59375 L 57.0625 291.390625 L 57.230469 291.195313 L 57.386719 291.003906 L 57.53125 290.820313 L 57.664063 290.644531 L 57.785156 290.472656 L 57.894531 290.304688 L 57.996094 290.144531 L 58.082031 289.992188 L 58.15625 289.84375 L 58.222656 289.695313 L 58.285156 289.546875 L 58.335938 289.398438 L 58.382813 289.246094 L 58.421875 289.09375 L 58.453125 288.9375 L 58.476563 288.78125 L 58.492188 288.625 L 58.503906 288.464844 L 58.507813 288.300781 L 58.503906 288.144531 L 58.488281 287.992188 L 58.464844 287.847656 L 58.433594 287.707031 L 58.390625 287.578125 L 58.339844 287.453125 L 58.28125 287.335938 L 58.210938 287.226563 L 58.132813 287.125 L 58.046875 287.027344 L 57.949219 286.941406 L 57.847656 286.863281 L 57.738281 286.792969 L 57.621094 286.730469 L 57.496094 286.679688 L 57.367188 286.640625 L 57.226563 286.609375 L 57.082031 286.585938 L 56.929688 286.570313 L 56.773438 286.566406 L 56.636719 286.570313 L 56.507813 286.574219 L 56.378906 286.585938 L 56.257813 286.605469 L 56.140625 286.625 L 56.03125 286.652344 L 55.921875 286.683594 L 55.816406 286.71875 L 55.71875 286.757813 L 55.625 286.804688 L 55.535156 286.851563 L 55.445313 286.90625 L 55.351563 286.96875 L 55.261719 287.035156 L 55.167969 287.113281 L 55.078125 287.195313 L 54.984375 287.28125 L 54.890625 287.378906 L 54.796875 287.480469 L 54.699219 287.589844 L 53.886719 286.957031 L 54.003906 286.820313 L 54.121094 286.6875 L 54.242188 286.5625 L 54.367188 286.449219 L 54.492188 286.339844 L 54.621094 286.238281 L 54.753906 286.144531 L 54.886719 286.058594 L 55.023438 285.980469 L 55.160156 285.90625 L 55.308594 285.84375 L 55.457031 285.789063 L 55.613281 285.738281 L 55.769531 285.691406 L 55.933594 285.65625 L 56.105469 285.625 L 56.277344 285.601563 L 56.457031 285.585938 L 56.640625 285.574219 Z M 56.828125 285.570313 "/>
<path style=" stroke:none;fill-rule:nonzero;fill:rgb(30.196078%,30.196078%,30.196078%);fill-opacity:1;" d="M 64.414063 294.292969 L 64.417969 294.191406 L 64.429688 294.09375 L 64.449219 294 L 64.472656 293.90625 L 64.503906 293.816406 L 64.542969 293.734375 L 64.585938 293.652344 L 64.640625 293.574219 L 64.699219 293.496094 L 64.765625 293.425781 L 64.839844 293.355469 L 64.917969 293.296875 L 65 293.242188 L 65.082031 293.191406 L 65.167969 293.152344 L 65.257813 293.121094 L 65.351563 293.09375 L 65.445313 293.078125 L 65.546875 293.066406 L 65.648438 293.0625 L 65.753906 293.066406 L 65.855469 293.078125 L 65.949219 293.09375 L 66.042969 293.121094 L 66.132813 293.152344 L 66.222656 293.191406 L 66.304688 293.242188 L 66.382813 293.296875 L 66.457031 293.355469 L 66.53125 293.425781 L 66.597656 293.496094 L 66.65625 293.574219 L 66.707031 293.652344 L 66.753906 293.734375 L 66.792969 293.816406 L 66.824219 293.90625 L 66.847656 294 L 66.867188 294.09375 L 66.875 294.191406 L 66.878906 294.292969 L 66.875 294.398438 L 66.867188 294.5 L 66.847656 294.597656 L 66.824219 294.691406 L 66.792969 294.78125 L 66.753906 294.867188 L 66.707031 294.949219 L 66.65625 295.027344 L 66.597656 295.105469 L 66.53125 295.175781 L 66.457031 295.242188 L 66.382813 295.300781 L 66.304688 295.355469 L 66.222656 295.398438 L 66.132813 295.4375 L 66.042969 295.46875 L 65.949219 295.496094 L 65.855469 295.511719 L 65.753906 295.523438 L 65.648438 295.527344 L 65.546875 295.523438 L 65.445313 295.511719 L 65.351563 295.496094 L 65.257813 295.46875 L 65.167969 295.4375 L 65.082031 295.398438 L 65 295.355469 L 64.917969 295.300781 L 64.839844 295.242188 L 64.765625 295.175781 L 64.699219 295.101563 L 64.640625 295.023438 L 64.585938 294.945313 L 64.542969 294.859375 L 64.503906 294.773438 L 64.472656 294.683594 L 64.449219 294.589844 L 64.429688 294.496094 L 64.417969 294.394531 Z M 64.414063 294.292969 "/>
<path style=" stroke:none;fill-rule:nonzero;fill:rgb(30.196078%,30.196078%,30.196078%);fill-opacity:1;" d="M 73.628906 285.570313 L 73.800781 285.574219 L 73.972656 285.585938 L 74.136719 285.605469 L 74.296875 285.628906 L 74.453125 285.660156 L 74.605469 285.699219 L 74.753906 285.742188 L 74.894531 285.796875 L 75.035156 285.855469 L 75.167969 285.921875 L 75.300781 285.996094 L 75.425781 286.074219 L 75.542969 286.15625 L 75.652344 286.246094 L 75.757813 286.339844 L 75.859375 286.4375 L 75.949219 286.542969 L 76.039063 286.652344 L 76.117188 286.765625 L 76.191406 286.886719 L 76.257813 287.011719 L 76.316406 287.136719 L 76.367188 287.265625 L 76.414063 287.398438 L 76.453125 287.53125 L 76.484375 287.671875 L 76.507813 287.8125 L 76.527344 287.957031 L 76.535156 288.109375 L 76.539063 288.261719 L 76.535156 288.4375 L 76.523438 288.617188 L 76.503906 288.792969 L 76.472656 288.96875 L 76.433594 289.140625 L 76.390625 289.316406 L 76.335938 289.488281 L 76.269531 289.65625 L 76.199219 289.828125 L 76.121094 289.996094 L 76.035156 290.164063 L 75.9375 290.339844 L 75.832031 290.515625 L 75.714844 290.695313 L 75.589844 290.878906 L 75.453125 291.066406 L 75.304688 291.253906 L 75.148438 291.449219 L 74.980469 291.644531 L 74.804688 291.84375 L 74.613281 292.046875 L 74.410156 292.261719 L 74.191406 292.488281 L 73.953125 292.722656 L 73.703125 292.972656 L 73.441406 293.226563 L 73.160156 293.496094 L 72.863281 293.773438 L 72.554688 294.0625 L 72.226563 294.363281 L 76.765625 294.363281 L 76.625 295.371094 L 70.882813 295.371094 L 70.882813 294.421875 L 71.253906 294.066406 L 71.601563 293.730469 L 71.929688 293.40625 L 72.238281 293.101563 L 72.527344 292.808594 L 72.800781 292.535156 L 73.050781 292.277344 L 73.28125 292.03125 L 73.492188 291.804688 L 73.683594 291.59375 L 73.863281 291.390625 L 74.03125 291.195313 L 74.1875 291.003906 L 74.332031 290.820313 L 74.464844 290.644531 L 74.585938 290.472656 L 74.695313 290.304688 L 74.796875 290.144531 L 74.882813 289.992188 L 74.957031 289.84375 L 75.023438 289.695313 L 75.085938 289.546875 L 75.136719 289.398438 L 75.183594 289.246094 L 75.21875 289.09375 L 75.253906 288.9375 L 75.277344 288.78125 L 75.292969 288.625 L 75.304688 288.464844 L 75.308594 288.300781 L 75.304688 288.144531 L 75.289063 287.992188 L 75.265625 287.847656 L 75.234375 287.707031 L 75.191406 287.578125 L 75.140625 287.453125 L 75.082031 287.335938 L 75.011719 287.226563 L 74.933594 287.125 L 74.847656 287.027344 L 74.75 286.941406 L 74.648438 286.863281 L 74.539063 286.792969 L 74.421875 286.730469 L 74.296875 286.679688 L 74.164063 286.640625 L 74.027344 286.609375 L 73.882813 286.585938 L 73.730469 286.570313 L 73.570313 286.566406 L 73.304688 286.574219 L 73.179688 286.585938 L 73.058594 286.605469 L 72.941406 286.625 L 72.828125 286.652344 L 72.722656 286.683594 L 72.617188 286.71875 L 72.519531 286.757813 L 72.425781 286.804688 L 72.335938 286.851563 L 72.242188 286.90625 L 72.152344 286.96875 L 72.0625 287.035156 L 71.96875 287.113281 L 71.875 287.195313 L 71.78125 287.28125 L 71.6875 287.378906 L 71.59375 287.480469 L 71.5 287.589844 L 70.6875 286.957031 L 70.804688 286.820313 L 70.921875 286.6875 L 71.042969 286.5625 L 71.167969 286.449219 L 71.292969 286.339844 L 71.421875 286.238281 L 71.554688 286.144531 L 71.6875 286.058594 L 71.824219 285.980469 L 71.960938 285.90625 L 72.105469 285.84375 L 72.257813 285.789063 L 72.410156 285.738281 L 72.570313 285.691406 L 72.734375 285.65625 L 72.90625 285.625 L 73.078125 285.601563 L 73.257813 285.585938 L 73.441406 285.574219 Z M 73.628906 285.570313 "/>
<path style=" stroke:none;fill-rule:nonzero;fill:rgb(30.196078%,30.196078%,30.196078%);fill-opacity:1;" d="M 56.828125 187.683594 L 57.003906 187.6875 L 57.171875 187.695313 L 57.335938 187.714844 L 57.496094 187.738281 L 57.652344 187.769531 L 57.804688 187.808594 L 57.953125 187.855469 L 58.097656 187.90625 L 58.234375 187.964844 L 58.367188 188.03125 L 58.5 188.105469 L 58.625 188.183594 L 58.742188 188.265625 L 58.855469 188.355469 L 58.960938 188.449219 L 59.058594 188.546875 L 59.152344 188.652344 L 59.238281 188.761719 L 59.316406 188.878906 L 59.390625 189 L 59.457031 189.121094 L 59.515625 189.246094 L 59.570313 189.375 L 59.613281 189.507813 L 59.652344 189.640625 L 59.683594 189.78125 L 59.707031 189.921875 L 59.726563 190.070313 L 59.738281 190.21875 L 59.738281 190.371094 L 59.734375 190.550781 L 59.722656 190.726563 L 59.703125 190.902344 L 59.671875 191.078125 L 59.636719 191.253906 L 59.589844 191.425781 L 59.535156 191.597656 L 59.472656 191.769531 L 59.398438 191.9375 L 59.320313 192.105469 L 59.234375 192.277344 L 59.136719 192.449219 L 59.03125 192.625 L 58.914063 192.804688 L 58.789063 192.988281 L 58.652344 193.175781 L 58.503906 193.363281 L 58.347656 193.558594 L 58.179688 193.753906 L 58.003906 193.953125 L 57.8125 194.160156 L 57.609375 194.375 L 57.390625 194.597656 L 57.15625 194.835938 L 56.90625 195.082031 L 56.640625 195.339844 L 56.359375 195.605469 L 56.0625 195.886719 L 55.753906 196.175781 L 55.429688 196.472656 L 59.964844 196.472656 L 59.824219 197.484375 L 54.085938 197.484375 L 54.085938 196.53125 L 54.453125 196.175781 L 54.800781 195.839844 L 55.128906 195.515625 L 55.4375 195.210938 L 55.730469 194.921875 L 56 194.644531 L 56.25 194.386719 L 56.480469 194.144531 L 56.691406 193.914063 L 56.882813 193.703125 L 57.0625 193.5 L 57.230469 193.304688 L 57.386719 193.117188 L 57.53125 192.933594 L 57.664063 192.753906 L 57.785156 192.582031 L 57.894531 192.414063 L 57.996094 192.253906 L 58.082031 192.101563 L 58.15625 191.953125 L 58.222656 191.804688 L 58.285156 191.65625 L 58.335938 191.507813 L 58.382813 191.355469 L 58.421875 191.203125 L 58.453125 191.046875 L 58.476563 190.890625 L 58.492188 190.734375 L 58.503906 190.574219 L 58.507813 190.414063 L 58.503906 190.253906 L 58.488281 190.101563 L 58.464844 189.957031 L 58.433594 189.820313 L 58.390625 189.6875 L 58.339844 189.5625 L 58.28125 189.449219 L 58.210938 189.335938 L 58.132813 189.234375 L 58.046875 189.136719 L 57.949219 189.050781 L 57.847656 188.972656 L 57.738281 188.902344 L 57.621094 188.84375 L 57.496094 188.792969 L 57.367188 188.75 L 57.226563 188.71875 L 57.082031 188.695313 L 56.929688 188.679688 L 56.773438 188.675781 L 56.636719 188.679688 L 56.507813 188.6875 L 56.378906 188.699219 L 56.257813 188.714844 L 56.140625 188.734375 L 56.03125 188.761719 L 55.921875 188.792969 L 55.816406 188.828125 L 55.71875 188.871094 L 55.625 188.914063 L 55.535156 188.960938 L 55.445313 189.019531 L 55.351563 189.078125 L 55.261719 189.148438 L 55.167969 189.222656 L 55.078125 189.304688 L 54.984375 189.394531 L 54.890625 189.488281 L 54.796875 189.589844 L 54.699219 189.699219 L 53.886719 189.070313 L 54.003906 188.929688 L 54.121094 188.796875 L 54.242188 188.675781 L 54.367188 188.558594 L 54.492188 188.449219 L 54.621094 188.347656 L 54.753906 188.253906 L 54.886719 188.167969 L 55.023438 188.089844 L 55.160156 188.019531 L 55.308594 187.953125 L 55.457031 187.898438 L 55.613281 187.847656 L 55.769531 187.804688 L 55.933594 187.765625 L 56.277344 187.710938 L 56.457031 187.695313 L 56.640625 187.6875 Z M 56.828125 187.683594 "/>
<path style=" stroke:none;fill-rule:nonzero;fill:rgb(30.196078%,30.196078%,30.196078%);fill-opacity:1;" d="M 64.414063 196.40625 L 64.417969 196.300781 L 64.429688 196.203125 L 64.449219 196.109375 L 64.472656 196.015625 L 64.503906 195.929688 L 64.542969 195.84375 L 64.585938 195.761719 L 64.640625 195.683594 L 64.699219 195.609375 L 64.765625 195.535156 L 64.839844 195.46875 L 64.917969 195.40625 L 65 195.351563 L 65.082031 195.304688 L 65.167969 195.261719 L 65.257813 195.230469 L 65.351563 195.207031 L 65.445313 195.1875 L 65.546875 195.175781 L 65.648438 195.171875 L 65.753906 195.175781 L 65.855469 195.1875 L 65.949219 195.207031 L 66.042969 195.230469 L 66.132813 195.261719 L 66.222656 195.304688 L 66.304688 195.351563 L 66.382813 195.40625 L 66.457031 195.46875 L 66.53125 195.535156 L 66.597656 195.609375 L 66.65625 195.683594 L 66.707031 195.761719 L 66.753906 195.84375 L 66.792969 195.929688 L 66.824219 196.015625 L 66.847656 196.109375 L 66.867188 196.203125 L 66.875 196.300781 L 66.878906 196.40625 L 66.875 196.507813 L 66.867188 196.609375 L 66.847656 196.707031 L 66.824219 196.800781 L 66.792969 196.890625 L 66.753906 196.976563 L 66.707031 197.058594 L 66.65625 197.140625 L 66.597656 197.214844 L 66.53125 197.285156 L 66.457031 197.351563 L 66.382813 197.414063 L 66.304688 197.464844 L 66.222656 197.511719 L 66.132813 197.550781 L 66.042969 197.582031 L 65.949219 197.605469 L 65.855469 197.621094 L 65.753906 197.632813 L 65.648438 197.636719 L 65.546875 197.632813 L 65.445313 197.621094 L 65.351563 197.605469 L 65.257813 197.582031 L 65.167969 197.550781 L 65.082031 197.511719 L 65 197.464844 L 64.917969 197.414063 L 64.839844 197.351563 L 64.765625 197.285156 L 64.699219 197.210938 L 64.640625 197.136719 L 64.585938 197.054688 L 64.542969 196.972656 L 64.503906 196.882813 L 64.472656 196.792969 L 64.449219 196.703125 L 64.429688 196.605469 L 64.417969 196.507813 Z M 64.414063 196.40625 "/>
<path style=" stroke:none;fill-rule:nonzero;fill:rgb(30.196078%,30.196078%,30.196078%);fill-opacity:1;" d="M 77.253906 195.144531 L 76.007813 195.144531 L 76.007813 197.484375 L 74.875 197.484375 L 74.875 195.144531 L 70.871094 195.144531 L 70.871094 194.277344 L 73.699219 187.683594 L 74.679688 188.101563 L 72.117188 194.191406 L 74.886719 194.191406 L 74.984375 191.460938 L 76.007813 191.460938 L 76.007813 194.191406 L 77.253906 194.191406 Z M 77.253906 195.144531 "/>
<path style=" stroke:none;fill-rule:nonzero;fill:rgb(30.196078%,30.196078%,30.196078%);fill-opacity:1;" d="M 56.828125 89.792969 L 57.003906 89.796875 L 57.171875 89.808594 L 57.335938 89.824219 L 57.496094 89.847656 L 57.652344 89.878906 L 57.804688 89.917969 L 57.953125 89.964844 L 58.097656 90.015625 L 58.234375 90.078125 L 58.367188 90.144531 L 58.5 90.214844 L 58.625 90.292969 L 58.742188 90.378906 L 58.855469 90.464844 L 58.960938 90.558594 L 59.058594 90.660156 L 59.152344 90.761719 L 59.238281 90.875 L 59.316406 90.988281 L 59.390625 91.109375 L 59.457031 91.230469 L 59.515625 91.355469 L 59.570313 91.484375 L 59.613281 91.617188 L 59.652344 91.753906 L 59.683594 91.890625 L 59.707031 92.035156 L 59.726563 92.179688 L 59.738281 92.328125 L 59.738281 92.480469 L 59.734375 92.660156 L 59.722656 92.835938 L 59.703125 93.011719 L 59.671875 93.1875 L 59.636719 93.363281 L 59.589844 93.535156 L 59.535156 93.707031 L 59.472656 93.878906 L 59.398438 94.046875 L 59.320313 94.21875 L 59.234375 94.386719 L 59.136719 94.558594 L 59.03125 94.734375 L 58.914063 94.914063 L 58.789063 95.097656 L 58.652344 95.285156 L 58.503906 95.476563 L 58.347656 95.667969 L 58.179688 95.863281 L 58.003906 96.066406 L 57.8125 96.269531 L 57.609375 96.484375 L 57.390625 96.710938 L 57.15625 96.945313 L 56.90625 97.191406 L 56.640625 97.449219 L 56.359375 97.71875 L 56.0625 97.996094 L 55.753906 98.285156 L 55.429688 98.585938 L 59.964844 98.585938 L 59.824219 99.59375 L 54.085938 99.59375 L 54.085938 98.640625 L 54.453125 98.289063 L 54.800781 97.949219 L 55.128906 97.628906 L 55.4375 97.320313 L 55.730469 97.03125 L 56 96.757813 L 56.25 96.496094 L 56.480469 96.253906 L 56.691406 96.023438 L 56.882813 95.8125 L 57.0625 95.613281 L 57.230469 95.417969 L 57.386719 95.226563 L 57.53125 95.042969 L 57.664063 94.863281 L 57.785156 94.691406 L 57.894531 94.527344 L 57.996094 94.367188 L 58.082031 94.210938 L 58.15625 94.0625 L 58.222656 93.917969 L 58.285156 93.769531 L 58.335938 93.617188 L 58.382813 93.46875 L 58.421875 93.3125 L 58.453125 93.160156 L 58.476563 93.003906 L 58.492188 92.84375 L 58.503906 92.683594 L 58.507813 92.523438 L 58.503906 92.363281 L 58.488281 92.210938 L 58.464844 92.066406 L 58.433594 91.929688 L 58.390625 91.796875 L 58.339844 91.675781 L 58.28125 91.558594 L 58.210938 91.449219 L 58.132813 91.34375 L 58.046875 91.25 L 57.949219 91.160156 L 57.847656 91.082031 L 57.738281 91.011719 L 57.621094 90.953125 L 57.496094 90.902344 L 57.367188 90.859375 L 57.226563 90.828125 L 57.082031 90.804688 L 56.929688 90.792969 L 56.773438 90.785156 L 56.636719 90.789063 L 56.507813 90.796875 L 56.378906 90.808594 L 56.257813 90.824219 L 56.140625 90.847656 L 56.03125 90.871094 L 55.921875 90.902344 L 55.816406 90.9375 L 55.71875 90.980469 L 55.625 91.023438 L 55.535156 91.074219 L 55.445313 91.128906 L 55.351563 91.191406 L 55.261719 91.257813 L 55.167969 91.332031 L 55.078125 91.414063 L 54.984375 91.503906 L 54.890625 91.597656 L 54.796875 91.699219 L 54.699219 91.808594 L 53.886719 91.179688 L 54.003906 91.039063 L 54.121094 90.910156 L 54.242188 90.785156 L 54.367188 90.667969 L 54.492188 90.558594 L 54.621094 90.457031 L 54.753906 90.363281 L 54.886719 90.277344 L 55.023438 90.199219 L 55.160156 90.128906 L 55.308594 90.066406 L 55.457031 90.007813 L 55.613281 89.957031 L 55.769531 89.914063 L 55.933594 89.878906 L 56.105469 89.847656 L 56.277344 89.824219 L 56.457031 89.804688 L 56.640625 89.796875 Z M 56.828125 89.792969 "/>
<path style=" stroke:none;fill-rule:nonzero;fill:rgb(30.196078%,30.196078%,30.196078%);fill-opacity:1;" d="M 64.414063 98.515625 L 64.417969 98.414063 L 64.429688 98.316406 L 64.449219 98.21875 L 64.472656 98.128906 L 64.503906 98.039063 L 64.542969 97.953125 L 64.585938 97.871094 L 64.640625 97.792969 L 64.699219 97.71875 L 64.765625 97.648438 L 64.839844 97.578125 L 64.917969 97.515625 L 65 97.460938 L 65.082031 97.414063 L 65.167969 97.375 L 65.257813 97.339844 L 65.351563 97.316406 L 65.445313 97.296875 L 65.546875 97.285156 L 65.648438 97.28125 L 65.753906 97.285156 L 65.855469 97.296875 L 65.949219 97.316406 L 66.042969 97.339844 L 66.132813 97.375 L 66.222656 97.414063 L 66.304688 97.460938 L 66.382813 97.515625 L 66.457031 97.578125 L 66.53125 97.648438 L 66.597656 97.71875 L 66.65625 97.792969 L 66.707031 97.871094 L 66.753906 97.953125 L 66.792969 98.039063 L 66.824219 98.128906 L 66.847656 98.21875 L 66.867188 98.316406 L 66.875 98.414063 L 66.878906 98.515625 L 66.875 98.621094 L 66.867188 98.71875 L 66.847656 98.816406 L 66.824219 98.910156 L 66.792969 99 L 66.753906 99.089844 L 66.707031 99.171875 L 66.65625 99.25 L 66.597656 99.324219 L 66.53125 99.398438 L 66.457031 99.464844 L 66.382813 99.523438 L 66.304688 99.574219 L 66.222656 99.621094 L 66.132813 99.660156 L 66.042969 99.691406 L 65.949219 99.714844 L 65.855469 99.734375 L 65.753906 99.742188 L 65.648438 99.746094 L 65.546875 99.742188 L 65.445313 99.734375 L 65.351563 99.714844 L 65.257813 99.691406 L 65.167969 99.660156 L 65.082031 99.621094 L 65 99.574219 L 64.917969 99.523438 L 64.839844 99.464844 L 64.765625 99.398438 L 64.699219 99.324219 L 64.640625 99.246094 L 64.585938 99.164063 L 64.542969 99.082031 L 64.503906 98.996094 L 64.472656 98.90625 L 64.449219 98.8125 L 64.429688 98.714844 L 64.417969 98.617188 Z M 64.414063 98.515625 "/>
<path style=" stroke:none;fill-rule:nonzero;fill:rgb(30.196078%,30.196078%,30.196078%);fill-opacity:1;" d="M 74.480469 93.320313 L 74.632813 93.324219 L 74.777344 93.335938 L 74.921875 93.351563 L 75.0625 93.375 L 75.203125 93.40625 L 75.339844 93.441406 L 75.472656 93.484375 L 75.601563 93.535156 L 75.730469 93.59375 L 75.855469 93.65625 L 75.976563 93.726563 L 76.09375 93.804688 L 76.207031 93.890625 L 76.316406 93.980469 L 76.417969 94.082031 L 76.515625 94.1875 L 76.605469 94.300781 L 76.691406 94.417969 L 76.773438 94.546875 L 76.847656 94.679688 L 76.917969 94.816406 L 76.980469 94.960938 L 77.035156 95.109375 L 77.082031 95.269531 L 77.121094 95.429688 L 77.152344 95.601563 L 77.179688 95.777344 L 77.199219 95.960938 L 77.207031 96.148438 L 77.210938 96.34375 L 77.207031 96.550781 L 77.195313 96.75 L 77.175781 96.945313 L 77.148438 97.132813 L 77.109375 97.316406 L 77.066406 97.496094 L 77.011719 97.671875 L 76.953125 97.839844 L 76.882813 98.003906 L 76.804688 98.164063 L 76.722656 98.316406 L 76.632813 98.457031 L 76.539063 98.59375 L 76.4375 98.722656 L 76.328125 98.84375 L 76.21875 98.957031 L 76.101563 99.066406 L 75.976563 99.164063 L 75.847656 99.257813 L 75.714844 99.339844 L 75.574219 99.417969 L 75.433594 99.488281 L 75.289063 99.546875 L 75.136719 99.601563 L 74.984375 99.644531 L 74.832031 99.683594 L 74.671875 99.710938 L 74.507813 99.730469 L 74.34375 99.742188 L 74.175781 99.746094 L 73.847656 99.734375 L 73.539063 99.699219 L 73.246094 99.636719 L 72.976563 99.550781 L 72.722656 99.441406 L 72.484375 99.308594 L 72.269531 99.148438 L 72.070313 98.96875 L 71.886719 98.761719 L 71.722656 98.527344 L 71.582031 98.273438 L 71.453125 98 L 71.339844 97.703125 L 71.238281 97.386719 L 71.15625 97.046875 L 71.089844 96.691406 L 71.035156 96.308594 L 71 95.910156 L 70.976563 95.484375 L 70.96875 95.042969 L 70.972656 94.726563 L 70.984375 94.421875 L 71.003906 94.125 L 71.035156 93.832031 L 71.074219 93.550781 L 71.121094 93.277344 L 71.171875 93.015625 L 71.238281 92.757813 L 71.308594 92.511719 L 71.386719 92.269531 L 71.476563 92.039063 L 71.574219 91.816406 L 71.679688 91.605469 L 71.792969 91.40625 L 71.914063 91.21875 L 72.039063 91.039063 L 72.175781 90.871094 L 72.316406 90.714844 L 72.464844 90.570313 L 72.621094 90.4375 L 72.785156 90.316406 L 72.957031 90.207031 L 73.136719 90.109375 L 73.320313 90.023438 L 73.507813 89.953125 L 73.707031 89.894531 L 73.90625 89.851563 L 74.117188 89.820313 L 74.332031 89.800781 L 74.550781 89.792969 L 74.761719 89.796875 L 74.964844 89.816406 L 75.164063 89.84375 L 75.363281 89.886719 L 75.554688 89.9375 L 75.746094 90 L 75.933594 90.074219 L 76.117188 90.160156 L 76.292969 90.257813 L 76.46875 90.367188 L 76.007813 91.152344 L 75.871094 91.074219 L 75.730469 91.003906 L 75.585938 90.945313 L 75.445313 90.890625 L 75.296875 90.847656 L 75.148438 90.808594 L 75 90.78125 L 74.847656 90.761719 L 74.695313 90.75 L 74.539063 90.746094 L 74.320313 90.753906 L 74.113281 90.785156 L 73.917969 90.839844 L 73.730469 90.910156 L 73.550781 91.003906 L 73.382813 91.117188 L 73.222656 91.253906 L 73.074219 91.40625 L 72.933594 91.585938 L 72.800781 91.78125 L 72.683594 91.996094 L 72.578125 92.226563 L 72.484375 92.472656 L 72.402344 92.730469 L 72.332031 93.007813 L 72.273438 93.296875 L 72.226563 93.601563 L 72.191406 93.921875 L 72.167969 94.257813 L 72.15625 94.609375 L 72.25 94.476563 L 72.34375 94.355469 L 72.4375 94.238281 L 72.535156 94.128906 L 72.636719 94.027344 L 72.742188 93.933594 L 72.847656 93.847656 L 72.957031 93.765625 L 73.066406 93.695313 L 73.179688 93.628906 L 73.296875 93.570313 L 73.414063 93.519531 L 73.539063 93.472656 L 73.664063 93.433594 L 73.792969 93.398438 L 73.925781 93.371094 L 74.058594 93.347656 L 74.195313 93.332031 L 74.339844 93.324219 Z M 74.175781 98.796875 L 74.347656 98.789063 L 74.515625 98.769531 L 74.671875 98.738281 L 74.820313 98.695313 L 74.960938 98.636719 L 75.09375 98.566406 L 75.214844 98.488281 L 75.328125 98.390625 L 75.433594 98.285156 L 75.53125 98.164063 L 75.621094 98.03125 L 75.703125 97.886719 L 75.773438 97.734375 L 75.835938 97.570313 L 75.890625 97.398438 L 75.933594 97.214844 L 75.964844 97.023438 L 75.988281 96.820313 L 76.003906 96.609375 L 76.007813 96.386719 L 75.992188 95.984375 L 75.941406 95.625 L 75.855469 95.308594 L 75.734375 95.035156 L 75.582031 94.800781 L 75.394531 94.609375 L 75.171875 94.464844 L 74.914063 94.359375 L 74.625 94.292969 L 74.300781 94.273438 L 74.167969 94.277344 L 74.035156 94.289063 L 73.90625 94.308594 L 73.78125 94.332031 L 73.660156 94.367188 L 73.539063 94.410156 L 73.421875 94.457031 L 73.304688 94.515625 L 73.191406 94.578125 L 73.082031 94.652344 L 72.976563 94.726563 L 72.875 94.808594 L 72.777344 94.894531 L 72.679688 94.984375 L 72.589844 95.082031 L 72.5 95.183594 L 72.414063 95.289063 L 72.328125 95.402344 L 72.171875 95.644531 L 72.183594 95.964844 L 72.199219 96.265625 L 72.230469 96.546875 L 72.265625 96.8125 L 72.3125 97.0625 L 72.367188 97.292969 L 72.429688 97.507813 L 72.503906 97.703125 L 72.585938 97.878906 L 72.675781 98.039063 L 72.777344 98.183594 L 72.886719 98.3125 L 73.011719 98.425781 L 73.144531 98.523438 L 73.289063 98.605469 L 73.445313 98.675781 L 73.609375 98.726563 L 73.785156 98.765625 L 73.976563 98.789063 Z M 74.175781 98.796875 "/>
<path style="fill:none;stroke-width:1.115477;stroke-linecap:butt;stroke-linejoin:round;stroke:rgb(66.27451%,66.27451%,66.27451%);stroke-opacity:1;stroke-miterlimit:10;" d="M 81.125 354.957031 L 691.652344 354.957031 "/>
<path style=" stroke:none;fill-rule:nonzero;fill:rgb(30.196078%,30.196078%,30.196078%);fill-opacity:1;" d="M 108.878906 357.667969 L 109.179688 357.679688 L 109.464844 357.71875 L 109.734375 357.78125 L 109.992188 357.871094 L 110.230469 357.988281 L 110.457031 358.128906 L 110.671875 358.296875 L 110.867188 358.492188 L 111.046875 358.710938 L 111.214844 358.953125 L 111.371094 359.21875 L 111.507813 359.507813 L 111.628906 359.820313 L 111.734375 360.15625 L 111.824219 360.511719 L 111.898438 360.890625 L 111.953125 361.292969 L 111.996094 361.71875 L 112.019531 362.164063 L 112.027344 362.636719 L 112.019531 363.109375 L 111.996094 363.558594 L 111.953125 363.988281 L 111.898438 364.390625 L 111.824219 364.773438 L 111.734375 365.132813 L 111.628906 365.472656 L 111.507813 365.785156 L 111.371094 366.078125 L 111.214844 366.347656 L 111.046875 366.589844 L 110.867188 366.804688 L 110.671875 366.996094 L 110.457031 367.160156 L 110.230469 367.300781 L 109.992188 367.417969 L 109.734375 367.503906 L 109.464844 367.570313 L 109.179688 367.605469 L 108.878906 367.621094 L 108.578125 367.605469 L 108.289063 367.570313 L 108.019531 367.503906 L 107.761719 367.417969 L 107.519531 367.300781 L 107.292969 367.160156 L 107.078125 366.996094 L 106.878906 366.804688 L 106.695313 366.589844 L 106.527344 366.347656 L 106.375 366.078125 L 106.238281 365.785156 L 106.117188 365.472656 L 106.015625 365.132813 L 105.925781 364.773438 L 105.855469 364.390625 L 105.800781 363.988281 L 105.757813 363.558594 L 105.734375 363.109375 L 105.726563 362.636719 L 105.734375 362.164063 L 105.757813 361.71875 L 105.800781 361.292969 L 105.855469 360.890625 L 105.925781 360.511719 L 106.015625 360.15625 L 106.117188 359.820313 L 106.238281 359.507813 L 106.375 359.21875 L 106.527344 358.953125 L 106.695313 358.710938 L 106.878906 358.492188 L 107.078125 358.296875 L 107.292969 358.128906 L 107.519531 357.988281 L 107.761719 357.871094 L 108.019531 357.78125 L 108.289063 357.71875 L 108.578125 357.679688 Z M 108.878906 358.617188 L 108.511719 358.660156 L 108.1875 358.777344 L 107.898438 358.980469 L 107.648438 359.261719 L 107.4375 359.621094 L 107.265625 360.066406 L 107.132813 360.585938 L 107.035156 361.191406 L 106.980469 361.871094 L 106.960938 362.636719 L 106.980469 363.402344 L 107.035156 364.085938 L 107.132813 364.691406 L 107.265625 365.214844 L 107.4375 365.660156 L 107.648438 366.023438 L 107.898438 366.304688 L 108.1875 366.507813 L 108.511719 366.628906 L 108.878906 366.667969 L 109.242188 366.628906 L 109.566406 366.507813 L 109.855469 366.304688 L 110.105469 366.023438 L 110.316406 365.660156 L 110.488281 365.214844 L 110.621094 364.691406 L 110.71875 364.085938 L 110.777344 363.402344 L 110.796875 362.636719 L 110.777344 361.871094 L 110.71875 361.191406 L 110.621094 360.585938 L 110.488281 360.066406 L 110.316406 359.621094 L 110.105469 359.261719 L 109.855469 358.980469 L 109.566406 358.777344 L 109.242188 358.660156 Z M 108.878906 361.726563 L 108.953125 361.730469 L 109.027344 361.738281 L 109.101563 361.75 L 109.171875 361.769531 L 109.238281 361.792969 L 109.300781 361.820313 L 109.363281 361.855469 L 109.425781 361.894531 L 109.480469 361.941406 L 109.535156 361.992188 L 109.585938 362.046875 L 109.632813 362.101563 L 109.671875 362.160156 L 109.707031 362.222656 L 109.734375 362.285156 L 109.757813 362.351563 L 109.777344 362.417969 L 109.789063 362.488281 L 109.800781 362.5625 L 109.800781 362.714844 L 109.789063 362.789063 L 109.777344 362.859375 L 109.757813 362.929688 L 109.734375 362.996094 L 109.707031 363.0625 L 109.671875 363.125 L 109.632813 363.183594 L 109.585938 363.238281 L 109.535156 363.292969 L 109.480469 363.34375 L 109.425781 363.390625 L 109.363281 363.429688 L 109.300781 363.464844 L 109.238281 363.492188 L 109.171875 363.515625 L 109.101563 363.535156 L 109.027344 363.550781 L 108.953125 363.558594 L 108.800781 363.558594 L 108.726563 363.550781 L 108.652344 363.535156 L 108.585938 363.515625 L 108.515625 363.492188 L 108.453125 363.464844 L 108.390625 363.429688 L 108.332031 363.390625 L 108.273438 363.34375 L 108.21875 363.292969 L 108.171875 363.238281 L 108.128906 363.183594 L 108.089844 363.125 L 108.058594 363.0625 L 108.03125 362.996094 L 108.007813 362.929688 L 107.988281 362.859375 L 107.976563 362.789063 L 107.96875 362.714844 L 107.96875 362.5625 L 107.976563 362.488281 L 107.988281 362.417969 L 108.007813 362.351563 L 108.03125 362.285156 L 108.058594 362.222656 L 108.089844 362.160156 L 108.128906 362.101563 L 108.171875 362.046875 L 108.21875 361.992188 L 108.273438 361.941406 L 108.332031 361.894531 L 108.390625 361.855469 L 108.453125 361.820313 L 108.515625 361.792969 L 108.585938 361.769531 L 108.652344 361.75 L 108.726563 361.738281 L 108.800781 361.730469 Z M 108.878906 361.726563 "/>
<path style=" stroke:none;fill-rule:nonzero;fill:rgb(30.196078%,30.196078%,30.196078%);fill-opacity:1;" d="M 223.59375 366.515625 L 223.59375 367.464844 L 218.035156 367.464844 L 218.035156 366.515625 L 220.398438 366.515625 L 220.398438 359.109375 L 218.203125 360.4375 L 217.683594 359.613281 L 220.554688 357.820313 L 221.589844 357.820313 L 221.589844 366.515625 Z M 223.59375 366.515625 "/>
<path style=" stroke:none;fill-rule:nonzero;fill:rgb(30.196078%,30.196078%,30.196078%);fill-opacity:1;" d="M 331.796875 357.667969 L 331.96875 357.667969 L 332.140625 357.679688 L 332.304688 357.699219 L 332.464844 357.722656 L 332.621094 357.753906 L 332.773438 357.792969 L 332.921875 357.835938 L 333.0625 357.890625 L 333.203125 357.949219 L 333.335938 358.015625 L 333.46875 358.089844 L 333.59375 358.167969 L 333.710938 358.25 L 333.824219 358.339844 L 333.925781 358.433594 L 334.027344 358.53125 L 334.121094 358.636719 L 334.207031 358.746094 L 334.285156 358.863281 L 334.359375 358.980469 L 334.425781 359.105469 L 334.484375 359.230469 L 334.535156 359.359375 L 334.582031 359.492188 L 334.621094 359.625 L 334.652344 359.765625 L 334.675781 359.90625 L 334.695313 360.054688 L 334.703125 360.203125 L 334.707031 360.355469 L 334.703125 360.53125 L 334.691406 360.710938 L 334.671875 360.886719 L 334.640625 361.0625 L 334.601563 361.234375 L 334.558594 361.410156 L 334.503906 361.582031 L 334.4375 361.75 L 334.367188 361.921875 L 334.289063 362.089844 L 334.203125 362.257813 L 334.105469 362.433594 L 334 362.609375 L 333.882813 362.789063 L 333.757813 362.972656 L 333.621094 363.160156 L 333.472656 363.347656 L 333.316406 363.542969 L 333.148438 363.738281 L 332.972656 363.9375 L 332.78125 364.140625 L 332.578125 364.355469 L 332.359375 364.582031 L 332.125 364.820313 L 331.875 365.066406 L 331.609375 365.324219 L 331.328125 365.589844 L 331.03125 365.867188 L 330.722656 366.15625 L 330.394531 366.457031 L 334.933594 366.457031 L 334.792969 367.464844 L 329.050781 367.464844 L 329.050781 366.515625 L 329.421875 366.160156 L 329.769531 365.824219 L 330.097656 365.5 L 330.40625 365.195313 L 330.695313 364.902344 L 330.96875 364.628906 L 331.21875 364.371094 L 331.449219 364.125 L 331.660156 363.898438 L 331.851563 363.6875 L 332.03125 363.484375 L 332.199219 363.289063 L 332.355469 363.097656 L 332.5 362.914063 L 332.632813 362.738281 L 332.753906 362.566406 L 332.863281 362.398438 L 332.964844 362.238281 L 333.050781 362.085938 L 333.125 361.9375 L 333.191406 361.789063 L 333.253906 361.640625 L 333.304688 361.492188 L 333.351563 361.339844 L 333.390625 361.1875 L 333.421875 361.03125 L 333.445313 360.875 L 333.460938 360.71875 L 333.472656 360.558594 L 333.476563 360.394531 L 333.472656 360.238281 L 333.457031 360.085938 L 333.433594 359.941406 L 333.402344 359.800781 L 333.359375 359.671875 L 333.308594 359.546875 L 333.25 359.429688 L 333.179688 359.320313 L 333.101563 359.21875 L 333.015625 359.121094 L 332.917969 359.035156 L 332.816406 358.957031 L 332.707031 358.886719 L 332.589844 358.828125 L 332.464844 358.777344 L 332.332031 358.734375 L 332.195313 358.703125 L 332.050781 358.679688 L 331.898438 358.664063 L 331.738281 358.660156 L 331.605469 358.664063 L 331.476563 358.667969 L 331.347656 358.679688 L 331.226563 358.699219 L 331.109375 358.71875 L 330.996094 358.746094 L 330.890625 358.777344 L 330.785156 358.8125 L 330.6875 358.851563 L 330.59375 358.898438 L 330.503906 358.945313 L 330.410156 359 L 330.320313 359.0625 L 330.230469 359.132813 L 330.136719 359.207031 L 330.042969 359.289063 L 329.953125 359.375 L 329.859375 359.472656 L 329.761719 359.574219 L 329.667969 359.683594 L 328.855469 359.050781 L 328.972656 358.914063 L 329.089844 358.78125 L 329.210938 358.65625 L 329.335938 358.542969 L 329.460938 358.433594 L 329.589844 358.332031 L 329.722656 358.238281 L 329.855469 358.152344 L 329.992188 358.074219 L 330.128906 358.003906 L 330.277344 357.9375 L 330.425781 357.882813 L 330.578125 357.832031 L 330.738281 357.785156 L 330.902344 357.75 L 331.074219 357.71875 L 331.246094 357.695313 L 331.425781 357.679688 L 331.609375 357.667969 Z M 331.796875 357.667969 "/>
<path style=" stroke:none;fill-rule:nonzero;fill:rgb(30.196078%,30.196078%,30.196078%);fill-opacity:1;" d="M 443.472656 357.667969 L 443.648438 357.667969 L 443.816406 357.679688 L 443.984375 357.695313 L 444.144531 357.71875 L 444.300781 357.75 L 444.457031 357.785156 L 444.605469 357.832031 L 444.75 357.882813 L 444.890625 357.9375 L 445.027344 358.003906 L 445.15625 358.070313 L 445.28125 358.140625 L 445.402344 358.214844 L 445.515625 358.296875 L 445.621094 358.382813 L 445.722656 358.472656 L 445.816406 358.570313 L 445.90625 358.667969 L 445.988281 358.773438 L 446.0625 358.882813 L 446.132813 358.996094 L 446.195313 359.105469 L 446.25 359.222656 L 446.296875 359.339844 L 446.335938 359.457031 L 446.367188 359.578125 L 446.394531 359.703125 L 446.410156 359.828125 L 446.421875 359.957031 L 446.425781 360.089844 L 446.421875 360.253906 L 446.40625 360.414063 L 446.378906 360.574219 L 446.339844 360.726563 L 446.289063 360.875 L 446.230469 361.019531 L 446.160156 361.160156 L 446.078125 361.296875 L 445.984375 361.429688 L 445.878906 361.558594 L 445.769531 361.675781 L 445.652344 361.785156 L 445.53125 361.886719 L 445.40625 361.976563 L 445.273438 362.058594 L 445.140625 362.132813 L 445 362.195313 L 444.855469 362.246094 L 444.703125 362.292969 L 444.550781 362.328125 L 444.730469 362.347656 L 444.902344 362.378906 L 445.070313 362.417969 L 445.234375 362.472656 L 445.390625 362.535156 L 445.542969 362.609375 L 445.6875 362.695313 L 445.828125 362.789063 L 445.960938 362.894531 L 446.089844 363.015625 L 446.214844 363.140625 L 446.324219 363.277344 L 446.417969 363.425781 L 446.503906 363.578125 L 446.574219 363.742188 L 446.632813 363.914063 L 446.675781 364.097656 L 446.707031 364.285156 L 446.726563 364.484375 L 446.734375 364.695313 L 446.730469 364.859375 L 446.71875 365.019531 L 446.695313 365.175781 L 446.667969 365.332031 L 446.628906 365.480469 L 446.582031 365.628906 L 446.527344 365.773438 L 446.464844 365.917969 L 446.394531 366.054688 L 446.316406 366.191406 L 446.226563 366.324219 L 446.132813 366.449219 L 446.03125 366.570313 L 445.921875 366.683594 L 445.808594 366.789063 L 445.683594 366.894531 L 445.554688 366.988281 L 445.417969 367.078125 L 445.273438 367.164063 L 445.125 367.242188 L 444.972656 367.3125 L 444.8125 367.378906 L 444.652344 367.433594 L 444.484375 367.484375 L 444.3125 367.527344 L 444.136719 367.558594 L 443.957031 367.585938 L 443.773438 367.605469 L 443.582031 367.617188 L 443.386719 367.621094 L 443.21875 367.617188 L 443.050781 367.605469 L 442.882813 367.589844 L 442.714844 367.570313 L 442.546875 367.539063 L 442.382813 367.503906 L 442.21875 367.460938 L 442.058594 367.414063 L 441.898438 367.359375 L 441.738281 367.296875 L 441.582031 367.230469 L 441.433594 367.15625 L 441.289063 367.078125 L 441.152344 366.992188 L 441.019531 366.898438 L 440.890625 366.800781 L 440.769531 366.695313 L 440.652344 366.585938 L 440.539063 366.46875 L 440.433594 366.347656 L 441.21875 365.703125 L 441.296875 365.792969 L 441.382813 365.878906 L 441.46875 365.960938 L 441.558594 366.039063 L 441.652344 366.113281 L 441.75 366.179688 L 441.851563 366.246094 L 441.953125 366.308594 L 442.058594 366.363281 L 442.171875 366.417969 L 442.285156 366.460938 L 442.519531 366.539063 L 442.636719 366.570313 L 442.753906 366.59375 L 442.875 366.617188 L 442.996094 366.632813 L 443.117188 366.644531 L 443.238281 366.652344 L 443.359375 366.652344 L 443.558594 366.648438 L 443.746094 366.632813 L 443.925781 366.609375 L 444.09375 366.570313 L 444.257813 366.523438 L 444.410156 366.46875 L 444.550781 366.398438 L 444.6875 366.324219 L 444.8125 366.234375 L 444.929688 366.136719 L 445.039063 366.027344 L 445.136719 365.90625 L 445.222656 365.78125 L 445.296875 365.648438 L 445.359375 365.507813 L 445.410156 365.363281 L 445.449219 365.207031 L 445.480469 365.042969 L 445.496094 364.871094 L 445.503906 364.695313 L 445.484375 364.34375 L 445.421875 364.035156 L 445.324219 363.757813 L 445.183594 363.519531 L 445.003906 363.320313 L 444.78125 363.152344 L 444.523438 363.023438 L 444.222656 362.933594 L 443.882813 362.878906 L 443.5 362.859375 L 442.703125 362.859375 L 442.84375 361.921875 L 443.417969 361.921875 L 443.566406 361.917969 L 443.710938 361.90625 L 443.851563 361.882813 L 443.984375 361.855469 L 444.117188 361.816406 L 444.242188 361.769531 L 444.363281 361.714844 L 444.484375 361.652344 L 444.597656 361.582031 L 444.703125 361.503906 L 444.804688 361.410156 L 444.894531 361.3125 L 444.976563 361.207031 L 445.046875 361.09375 L 445.105469 360.96875 L 445.152344 360.839844 L 445.1875 360.703125 L 445.214844 360.558594 L 445.230469 360.402344 L 445.238281 360.242188 L 445.230469 360.089844 L 445.214844 359.949219 L 445.191406 359.8125 L 445.152344 359.683594 L 445.105469 359.558594 L 445.050781 359.445313 L 444.984375 359.335938 L 444.90625 359.234375 L 444.816406 359.140625 L 444.71875 359.050781 L 444.613281 358.96875 L 444.503906 358.894531 L 444.390625 358.832031 L 444.269531 358.773438 L 444.140625 358.726563 L 444.007813 358.6875 L 443.867188 358.65625 L 443.722656 358.636719 L 443.574219 358.621094 L 443.417969 358.617188 L 443.296875 358.621094 L 443.179688 358.625 L 443.066406 358.636719 L 442.957031 358.652344 L 442.847656 358.671875 L 442.738281 358.695313 L 442.636719 358.722656 L 442.535156 358.753906 L 442.433594 358.789063 L 442.339844 358.828125 L 442.246094 358.871094 L 442.152344 358.921875 L 442.058594 358.976563 L 441.960938 359.035156 L 441.867188 359.101563 L 441.769531 359.171875 L 441.671875 359.246094 L 441.574219 359.324219 L 441.472656 359.410156 L 441.371094 359.5 L 440.730469 358.785156 L 440.96875 358.574219 L 441.214844 358.382813 L 441.46875 358.214844 L 441.730469 358.070313 L 442.003906 357.945313 L 442.28125 357.84375 L 442.566406 357.765625 L 442.859375 357.710938 L 443.164063 357.675781 Z M 443.472656 357.667969 "/>
<path style=" stroke:none;fill-rule:nonzero;fill:rgb(30.196078%,30.196078%,30.196078%);fill-opacity:1;" d="M 558.773438 365.128906 L 557.527344 365.128906 L 557.527344 367.464844 L 556.394531 367.464844 L 556.394531 365.128906 L 552.390625 365.128906 L 552.390625 364.261719 L 555.21875 357.667969 L 556.199219 358.085938 L 553.636719 364.175781 L 556.410156 364.175781 L 556.507813 361.445313 L 557.527344 361.445313 L 557.527344 364.175781 L 558.773438 364.175781 Z M 558.773438 365.128906 "/>
<path style=" stroke:none;fill-rule:nonzero;fill:rgb(30.196078%,30.196078%,30.196078%);fill-opacity:1;" d="M 669.710938 358.773438 L 665.902344 358.773438 L 665.902344 361.808594 L 665.980469 361.765625 L 666.144531 361.679688 L 666.222656 361.644531 L 666.304688 361.609375 L 666.382813 361.578125 L 666.460938 361.550781 L 666.542969 361.527344 L 666.699219 361.488281 L 666.78125 361.46875 L 666.945313 361.4375 L 667.117188 361.414063 L 667.289063 361.398438 L 667.375 361.394531 L 667.464844 361.390625 L 667.554688 361.390625 L 667.789063 361.398438 L 668.015625 361.421875 L 668.230469 361.460938 L 668.4375 361.519531 L 668.636719 361.589844 L 668.820313 361.675781 L 669 361.78125 L 669.167969 361.902344 L 669.324219 362.035156 L 669.472656 362.1875 L 669.609375 362.355469 L 669.734375 362.53125 L 669.84375 362.722656 L 669.9375 362.925781 L 670.015625 363.144531 L 670.082031 363.371094 L 670.132813 363.613281 L 670.171875 363.867188 L 670.191406 364.132813 L 670.199219 364.414063 L 670.195313 364.601563 L 670.183594 364.785156 L 670.164063 364.964844 L 670.132813 365.140625 L 670.097656 365.308594 L 670.054688 365.476563 L 670 365.636719 L 669.941406 365.792969 L 669.871094 365.945313 L 669.792969 366.09375 L 669.710938 366.238281 L 669.621094 366.371094 L 669.527344 366.5 L 669.421875 366.625 L 669.3125 366.742188 L 669.195313 366.851563 L 669.074219 366.957031 L 668.941406 367.054688 L 668.804688 367.144531 L 668.660156 367.226563 L 668.507813 367.300781 L 668.351563 367.371094 L 668.191406 367.429688 L 668.027344 367.480469 L 667.859375 367.523438 L 667.683594 367.558594 L 667.503906 367.585938 L 667.320313 367.605469 L 667.132813 367.617188 L 666.9375 367.621094 L 666.621094 367.609375 L 666.308594 367.574219 L 666.007813 367.515625 L 665.714844 367.4375 L 665.433594 367.332031 L 665.15625 367.207031 L 664.890625 367.058594 L 664.628906 366.886719 L 664.378906 366.691406 L 664.136719 366.472656 L 664.867188 365.757813 L 665.042969 365.929688 L 665.230469 366.082031 L 665.421875 366.214844 L 665.621094 366.332031 L 665.824219 366.429688 L 666.035156 366.511719 L 666.25 366.574219 L 666.472656 366.617188 L 666.703125 366.644531 L 666.9375 366.652344 L 667.125 366.648438 L 667.304688 366.628906 L 667.476563 366.601563 L 667.640625 366.558594 L 667.792969 366.507813 L 667.941406 366.441406 L 668.078125 366.367188 L 668.207031 366.277344 L 668.324219 366.179688 L 668.433594 366.066406 L 668.535156 365.941406 L 668.625 365.808594 L 668.707031 365.667969 L 668.777344 365.511719 L 668.835938 365.347656 L 668.882813 365.175781 L 668.917969 364.988281 L 668.945313 364.792969 L 668.960938 364.589844 L 668.96875 364.371094 L 668.960938 364.160156 L 668.949219 363.960938 L 668.925781 363.773438 L 668.890625 363.597656 L 668.847656 363.433594 L 668.796875 363.285156 L 668.734375 363.144531 L 668.664063 363.019531 L 668.582031 362.90625 L 668.492188 362.804688 L 668.394531 362.710938 L 668.289063 362.628906 L 668.175781 362.554688 L 668.058594 362.492188 L 667.933594 362.4375 L 667.804688 362.390625 L 667.667969 362.359375 L 667.523438 362.332031 L 667.375 362.320313 L 667.21875 362.3125 L 667.140625 362.316406 L 667.070313 362.316406 L 666.996094 362.320313 L 666.925781 362.324219 L 666.855469 362.332031 L 666.722656 362.347656 L 666.65625 362.359375 L 666.53125 362.382813 L 666.46875 362.398438 L 666.328125 362.4375 L 666.253906 362.457031 L 666.175781 362.480469 L 666.003906 362.535156 L 665.914063 362.566406 L 665.71875 362.636719 L 664.765625 362.636719 L 664.765625 357.820313 L 669.878906 357.820313 Z M 669.710938 358.773438 "/>
<path style=" stroke:none;fill-rule:nonzero;fill:rgb(0%,0%,0%);fill-opacity:1;" d="M 685.011719 372.183594 L 685.25 372.234375 L 685.484375 372.292969 L 685.703125 372.355469 L 685.914063 372.421875 L 686.117188 372.492188 L 686.3125 372.570313 L 686.496094 372.648438 L 686.671875 372.734375 L 686.835938 372.824219 L 686.992188 372.921875 L 687.140625 373.019531 L 687.28125 373.128906 L 687.417969 373.246094 L 687.550781 373.371094 L 687.675781 373.503906 L 687.796875 373.644531 L 687.910156 373.792969 L 688.015625 373.953125 L 688.117188 374.117188 L 688.214844 374.289063 L 688.308594 374.46875 L 688.394531 374.664063 L 688.480469 374.871094 L 688.5625 375.089844 L 688.636719 375.320313 L 688.710938 375.5625 L 688.78125 375.8125 L 688.847656 376.078125 L 688.914063 376.355469 L 688.972656 376.644531 L 689.078125 377.171875 L 689.183594 377.675781 L 689.289063 378.160156 L 689.390625 378.621094 L 689.488281 379.0625 L 689.585938 379.480469 L 689.683594 379.878906 L 689.777344 380.257813 L 689.871094 380.613281 L 689.960938 380.949219 L 690.050781 381.261719 L 690.140625 381.5625 L 690.230469 381.847656 L 690.320313 382.125 L 690.40625 382.382813 L 690.496094 382.632813 L 690.582031 382.863281 L 690.671875 383.085938 L 690.757813 383.292969 L 690.84375 383.484375 L 691.023438 383.859375 L 691.117188 384.042969 L 691.21875 384.230469 L 691.320313 384.414063 L 691.425781 384.597656 L 691.535156 384.777344 L 691.648438 384.960938 L 691.765625 385.140625 L 691.886719 385.324219 L 690.375 385.898438 L 690.253906 385.699219 L 690.136719 385.503906 L 690.023438 385.308594 L 689.914063 385.113281 L 689.808594 384.917969 L 689.707031 384.722656 L 689.605469 384.53125 L 689.511719 384.335938 L 689.417969 384.144531 L 689.332031 383.953125 L 689.25 383.757813 L 689.167969 383.550781 L 689.085938 383.328125 L 689.003906 383.097656 L 688.921875 382.855469 L 688.839844 382.601563 L 688.761719 382.335938 L 688.679688 382.058594 L 688.601563 381.769531 L 688.523438 381.46875 L 688.441406 381.152344 L 688.363281 380.816406 L 688.285156 380.460938 L 688.203125 380.089844 L 688.125 379.699219 L 688.046875 379.289063 L 687.96875 378.863281 L 687.886719 378.417969 L 687.808594 377.953125 L 687.730469 377.472656 L 685.550781 385.898438 L 684.003906 385.519531 L 686.738281 376.214844 L 687.371094 376.214844 L 687.308594 375.957031 L 687.246094 375.710938 L 687.175781 375.480469 L 687.097656 375.265625 L 687.019531 375.0625 L 686.933594 374.875 L 686.84375 374.703125 L 686.746094 374.542969 L 686.648438 374.398438 L 686.542969 374.269531 L 686.425781 374.148438 L 686.300781 374.035156 L 686.15625 373.925781 L 686.003906 373.828125 L 685.835938 373.734375 L 685.652344 373.652344 L 685.460938 373.574219 L 685.25 373.503906 L 685.03125 373.441406 L 684.796875 373.386719 Z M 685.011719 372.183594 "/>
<path style=" stroke:none;fill-rule:nonzero;fill:rgb(0%,0%,0%);fill-opacity:1;" d="M 46.398438 60.710938 L 41.125 63.375 L 41.125 65.121094 L 46.398438 65.121094 L 46.398438 66.792969 L 34.015625 66.792969 L 34.015625 63.894531 L 34.050781 63.054688 L 34.15625 62.300781 L 34.328125 61.636719 L 34.574219 61.0625 L 34.890625 60.574219 L 35.273438 60.175781 L 35.726563 59.867188 L 36.25 59.644531 L 36.84375 59.511719 L 37.507813 59.46875 L 37.75 59.472656 L 37.980469 59.492188 L 38.207031 59.523438 L 38.425781 59.5625 L 38.636719 59.617188 L 38.839844 59.683594 L 39.035156 59.757813 L 39.222656 59.847656 L 39.40625 59.949219 L 39.578125 60.0625 L 39.742188 60.1875 L 39.898438 60.324219 L 40.042969 60.46875 L 40.183594 60.625 L 40.3125 60.796875 L 40.429688 60.976563 L 40.542969 61.167969 L 40.644531 61.371094 L 40.734375 61.582031 L 40.820313 61.808594 L 46.398438 58.855469 Z M 39.847656 63.769531 L 39.84375 63.519531 L 39.824219 63.277344 L 39.796875 63.054688 L 39.757813 62.839844 L 39.707031 62.640625 L 39.648438 62.453125 L 39.574219 62.28125 L 39.492188 62.125 L 39.394531 61.976563 L 39.289063 61.84375 L 39.167969 61.726563 L 39.035156 61.617188 L 38.886719 61.523438 L 38.726563 61.441406 L 38.554688 61.371094 L 38.371094 61.316406 L 38.175781 61.269531 L 37.964844 61.238281 L 37.742188 61.222656 L 37.507813 61.214844 L 37.285156 61.222656 L 37.078125 61.242188 L 36.878906 61.273438 L 36.695313 61.316406 L 36.523438 61.375 L 36.359375 61.449219 L 36.210938 61.53125 L 36.074219 61.628906 L 35.949219 61.738281 L 35.832031 61.863281 L 35.730469 61.996094 L 35.640625 62.148438 L 35.558594 62.3125 L 35.488281 62.496094 L 35.429688 62.695313 L 35.378906 62.910156 L 35.34375 63.140625 L 35.316406 63.390625 L 35.300781 63.652344 L 35.292969 63.933594 L 35.292969 65.121094 L 39.847656 65.121094 Z M 39.847656 63.769531 "/>
<path style=" stroke:none;fill-rule:nonzero;fill:rgb(0%,0%,0%);fill-opacity:1;" d="M 46.398438 46.707031 L 46.398438 48.308594 L 40.800781 48.6875 L 40.074219 48.734375 L 39.390625 48.777344 L 38.753906 48.816406 L 38.167969 48.851563 L 37.625 48.878906 L 37.128906 48.90625 L 36.679688 48.925781 L 36.28125 48.941406 L 35.925781 48.949219 L 35.617188 48.957031 L 44.996094 51.332031 L 44.996094 52.898438 L 35.617188 55.382813 L 36.328125 55.382813 L 36.746094 55.394531 L 37.203125 55.40625 L 37.707031 55.421875 L 38.25 55.445313 L 38.832031 55.472656 L 39.460938 55.503906 L 40.128906 55.539063 L 40.835938 55.582031 L 46.398438 55.941406 L 46.398438 57.523438 L 34.015625 56.570313 L 34.015625 54.390625 L 43.179688 52.089844 L 34.015625 49.875 L 34.015625 47.660156 Z M 46.398438 46.707031 "/>
<path style=" stroke:none;fill-rule:nonzero;fill:rgb(0%,0%,0%);fill-opacity:1;" d="M 33.78125 41.253906 L 33.785156 41.035156 L 33.796875 40.824219 L 33.8125 40.621094 L 33.839844 40.421875 L 33.871094 40.226563 L 33.910156 40.039063 L 33.957031 39.855469 L 34.011719 39.679688 L 34.074219 39.507813 L 34.140625 39.34375 L 34.21875 39.179688 L 34.300781 39.015625 L 34.390625 38.855469 L 34.488281 38.699219 L 34.589844 38.542969 L 34.703125 38.390625 L 34.820313 38.238281 L 34.949219 38.089844 L 35.082031 37.941406 L 35.222656 37.796875 L 36.175781 38.640625 L 36.070313 38.765625 L 35.972656 38.886719 L 35.878906 39.007813 L 35.789063 39.132813 L 35.707031 39.253906 L 35.632813 39.375 L 35.5625 39.5 L 35.496094 39.621094 L 35.4375 39.742188 L 35.382813 39.867188 L 35.332031 39.988281 L 35.285156 40.109375 L 35.246094 40.234375 L 35.210938 40.359375 L 35.179688 40.488281 L 35.15625 40.617188 L 35.136719 40.75 L 35.125 40.886719 L 35.117188 41.023438 L 35.113281 41.164063 L 35.117188 41.339844 L 35.132813 41.507813 L 35.160156 41.671875 L 35.195313 41.828125 L 35.238281 41.976563 L 35.296875 42.121094 L 35.359375 42.253906 L 35.4375 42.382813 L 35.523438 42.503906 L 35.617188 42.621094 L 35.71875 42.722656 L 35.824219 42.816406 L 35.9375 42.894531 L 36.058594 42.964844 L 36.183594 43.027344 L 36.316406 43.074219 L 36.457031 43.113281 L 36.601563 43.140625 L 36.753906 43.15625 L 36.914063 43.160156 L 37.019531 43.160156 L 37.125 43.152344 L 37.226563 43.140625 L 37.324219 43.125 L 37.417969 43.105469 L 37.511719 43.082031 L 37.597656 43.054688 L 37.6875 43.023438 L 37.851563 42.945313 L 37.925781 42.898438 L 38 42.847656 L 38.070313 42.789063 L 38.144531 42.722656 L 38.214844 42.652344 L 38.285156 42.574219 L 38.351563 42.492188 L 38.421875 42.402344 L 38.488281 42.308594 L 38.550781 42.207031 L 38.613281 42.097656 L 38.675781 41.980469 L 38.738281 41.855469 L 38.800781 41.71875 L 38.863281 41.578125 L 38.925781 41.425781 L 38.988281 41.265625 L 39.054688 41.09375 L 39.117188 40.917969 L 39.183594 40.730469 L 39.261719 40.515625 L 39.34375 40.308594 L 39.425781 40.105469 L 39.507813 39.914063 L 39.589844 39.730469 L 39.675781 39.554688 L 39.761719 39.386719 L 39.851563 39.226563 L 39.9375 39.074219 L 40.027344 38.929688 L 40.121094 38.792969 L 40.21875 38.664063 L 40.320313 38.539063 L 40.429688 38.421875 L 40.539063 38.308594 L 40.660156 38.203125 L 40.78125 38.105469 L 40.910156 38.015625 L 41.042969 37.929688 L 41.179688 37.851563 L 41.324219 37.777344 L 41.476563 37.714844 L 41.632813 37.65625 L 41.800781 37.609375 L 41.972656 37.566406 L 42.152344 37.53125 L 42.339844 37.507813 L 42.535156 37.488281 L 42.734375 37.476563 L 42.945313 37.472656 L 43.152344 37.476563 L 43.359375 37.492188 L 43.5625 37.515625 L 43.757813 37.550781 L 43.953125 37.59375 L 44.140625 37.648438 L 44.324219 37.710938 L 44.503906 37.785156 L 44.679688 37.867188 L 44.851563 37.957031 L 45.015625 38.058594 L 45.167969 38.171875 L 45.316406 38.289063 L 45.460938 38.417969 L 45.59375 38.550781 L 45.722656 38.695313 L 45.84375 38.851563 L 45.957031 39.011719 L 46.066406 39.183594 L 46.164063 39.363281 L 46.253906 39.546875 L 46.335938 39.734375 L 46.40625 39.929688 L 46.464844 40.132813 L 46.515625 40.34375 L 46.558594 40.558594 L 46.589844 40.78125 L 46.613281 41.011719 L 46.628906 41.246094 L 46.632813 41.488281 L 46.617188 41.929688 L 46.570313 42.359375 L 46.488281 42.777344 L 46.375 43.179688 L 46.230469 43.570313 L 46.050781 43.945313 L 45.839844 44.308594 L 45.597656 44.660156 L 45.320313 44.996094 L 45.015625 45.320313 L 44.058594 44.4375 L 44.175781 44.304688 L 44.285156 44.171875 L 44.390625 44.039063 L 44.492188 43.902344 L 44.585938 43.769531 L 44.675781 43.632813 L 44.757813 43.496094 L 44.835938 43.363281 L 44.910156 43.226563 L 44.976563 43.089844 L 45.035156 42.945313 L 45.089844 42.800781 L 45.132813 42.652344 L 45.171875 42.503906 L 45.207031 42.351563 L 45.234375 42.195313 L 45.257813 42.035156 L 45.273438 41.875 L 45.28125 41.707031 L 45.285156 41.539063 L 45.277344 41.332031 L 45.261719 41.132813 L 45.230469 40.941406 L 45.1875 40.761719 L 45.136719 40.585938 L 45.070313 40.421875 L 44.992188 40.265625 L 44.902344 40.117188 L 44.800781 39.980469 L 44.691406 39.847656 L 44.5625 39.726563 L 44.425781 39.613281 L 44.28125 39.519531 L 44.128906 39.433594 L 43.964844 39.363281 L 43.792969 39.304688 L 43.613281 39.257813 L 43.421875 39.226563 L 43.222656 39.207031 L 43.015625 39.199219 L 42.835938 39.207031 L 42.664063 39.222656 L 42.5 39.246094 L 42.34375 39.285156 L 42.191406 39.332031 L 42.050781 39.386719 L 41.914063 39.457031 L 41.789063 39.535156 L 41.667969 39.625 L 41.558594 39.722656 L 41.449219 39.832031 L 41.34375 39.957031 L 41.238281 40.101563 L 41.136719 40.265625 L 41.035156 40.441406 L 40.9375 40.636719 L 40.835938 40.851563 L 40.738281 41.082031 L 40.644531 41.328125 L 40.550781 41.59375 L 40.425781 41.933594 L 40.296875 42.253906 L 40.164063 42.554688 L 40.027344 42.835938 L 39.886719 43.097656 L 39.742188 43.339844 L 39.597656 43.5625 L 39.445313 43.765625 L 39.289063 43.949219 L 39.128906 44.113281 L 38.960938 44.257813 L 38.785156 44.386719 L 38.597656 44.5 L 38.402344 44.597656 L 38.195313 44.679688 L 37.980469 44.75 L 37.753906 44.800781 L 37.519531 44.839844 L 37.277344 44.863281 L 37.023438 44.871094 L 36.839844 44.867188 L 36.660156 44.851563 L 36.488281 44.828125 L 36.316406 44.796875 L 36.148438 44.757813 L 35.984375 44.707031 L 35.824219 44.648438 L 35.667969 44.582031 L 35.515625 44.507813 L 35.367188 44.421875 L 35.21875 44.324219 L 35.078125 44.21875 L 34.941406 44.105469 L 34.816406 43.988281 L 34.695313 43.863281 L 34.582031 43.730469 L 34.476563 43.589844 L 34.375 43.441406 L 34.28125 43.285156 L 34.195313 43.125 L 34.117188 42.957031 L 34.046875 42.785156 L 33.984375 42.609375 L 33.929688 42.425781 L 33.886719 42.242188 L 33.847656 42.054688 L 33.820313 41.859375 L 33.796875 41.660156 L 33.785156 41.460938 Z M 33.78125 41.253906 "/>
<path style=" stroke:none;fill-rule:nonzero;fill:rgb(0%,0%,0%);fill-opacity:1;" d="M 34.015625 29.101563 L 35.3125 29.300781 L 35.3125 33.585938 L 39.398438 33.585938 L 39.398438 29.859375 L 40.695313 29.859375 L 40.695313 33.585938 L 45.085938 33.585938 L 45.085938 29.046875 L 46.398438 29.046875 L 46.398438 35.257813 L 34.015625 35.257813 Z M 34.015625 29.101563 "/>
<path style="fill-rule:nonzero;fill:rgb(100%,100%,100%);fill-opacity:1;stroke-width:1.115477;stroke-linecap:round;stroke-linejoin:round;stroke:rgb(66.27451%,66.27451%,66.27451%);stroke-opacity:1;stroke-miterlimit:10;" d="M 586.316406 348.167969 L 674.886719 348.167969 L 674.886719 296.421875 L 586.316406 296.421875 Z M 586.316406 348.167969 "/>
<path style="fill:none;stroke-width:4.267913;stroke-linecap:butt;stroke-linejoin:round;stroke:rgb(74.901961%,22.352941%,51.764706%);stroke-opacity:1;stroke-miterlimit:10;" d="M 593.773438 316.519531 L 607.597656 316.519531 "/>
<path style="fill:none;stroke-width:3.200935;stroke-linecap:butt;stroke-linejoin:round;stroke:rgb(74.901961%,22.352941%,51.764706%);stroke-opacity:1;stroke-dasharray:12.80374,12.80374;stroke-miterlimit:10;" d="M 600.683594 325.160156 L 600.683594 307.878906 "/>
<path style="fill:none;stroke-width:4.267913;stroke-linecap:butt;stroke-linejoin:round;stroke:rgb(66.27451%,66.27451%,66.27451%);stroke-opacity:1;stroke-miterlimit:10;" d="M 593.773438 333.800781 L 607.597656 333.800781 "/>
<path style="fill:none;stroke-width:3.200935;stroke-linecap:butt;stroke-linejoin:round;stroke:rgb(66.27451%,66.27451%,66.27451%);stroke-opacity:1;stroke-dasharray:12.80374,12.80374;stroke-miterlimit:10;" d="M 600.683594 342.4375 L 600.683594 325.160156 "/>
<path style=" stroke:none;fill-rule:nonzero;fill:rgb(0%,0%,0%);fill-opacity:1;" d="M 619.746094 311.164063 L 619.90625 311.167969 L 620.0625 311.175781 L 620.214844 311.1875 L 620.363281 311.203125 L 620.503906 311.226563 L 620.644531 311.257813 L 620.777344 311.289063 L 620.910156 311.328125 L 621.035156 311.371094 L 621.15625 311.417969 L 621.277344 311.46875 L 621.398438 311.527344 L 621.515625 311.589844 L 621.636719 311.65625 L 621.753906 311.730469 L 621.871094 311.808594 L 621.988281 311.894531 L 622.109375 311.984375 L 622.226563 312.082031 L 622.34375 312.183594 L 621.621094 313.023438 L 621.535156 312.949219 L 621.363281 312.816406 L 621.273438 312.753906 L 621.101563 312.644531 L 621.011719 312.59375 L 620.839844 312.507813 L 620.753906 312.46875 L 620.667969 312.433594 L 620.582031 312.40625 L 620.492188 312.378906 L 620.402344 312.355469 L 620.214844 312.316406 L 620.121094 312.304688 L 620.023438 312.296875 L 619.921875 312.289063 L 619.824219 312.289063 L 619.59375 312.300781 L 619.375 312.328125 L 619.164063 312.378906 L 618.964844 312.449219 L 618.773438 312.539063 L 618.589844 312.652344 L 618.417969 312.78125 L 618.257813 312.933594 L 618.105469 313.101563 L 617.960938 313.292969 L 617.832031 313.503906 L 617.714844 313.738281 L 617.609375 314 L 617.519531 314.28125 L 617.445313 314.589844 L 617.382813 314.925781 L 617.335938 315.28125 L 617.300781 315.664063 L 617.28125 316.074219 L 617.273438 316.503906 L 617.28125 316.925781 L 617.300781 317.324219 L 617.335938 317.699219 L 617.382813 318.050781 L 617.445313 318.382813 L 617.519531 318.691406 L 617.609375 318.976563 L 617.714844 319.238281 L 617.832031 319.480469 L 617.960938 319.699219 L 618.105469 319.894531 L 618.257813 320.066406 L 618.417969 320.21875 L 618.589844 320.351563 L 618.773438 320.464844 L 618.964844 320.554688 L 619.164063 320.628906 L 619.375 320.679688 L 619.59375 320.707031 L 619.824219 320.71875 L 619.9375 320.71875 L 620.050781 320.710938 L 620.160156 320.699219 L 620.265625 320.683594 L 620.367188 320.667969 L 620.464844 320.644531 L 620.5625 320.617188 L 620.652344 320.585938 L 620.742188 320.550781 L 620.914063 320.464844 L 621 320.417969 L 621.085938 320.367188 L 621.265625 320.25 L 621.359375 320.1875 L 621.453125 320.121094 L 621.546875 320.046875 L 621.644531 319.972656 L 621.742188 319.894531 L 622.449219 320.71875 L 622.21875 320.9375 L 621.980469 321.136719 L 621.730469 321.308594 L 621.476563 321.457031 L 621.210938 321.585938 L 620.9375 321.6875 L 620.652344 321.769531 L 620.359375 321.828125 L 620.058594 321.863281 L 619.746094 321.875 L 619.519531 321.867188 L 619.296875 321.851563 L 619.078125 321.820313 L 618.863281 321.777344 L 618.65625 321.722656 L 618.453125 321.65625 L 618.253906 321.582031 L 618.0625 321.488281 L 617.875 321.386719 L 617.691406 321.273438 L 617.519531 321.148438 L 617.355469 321.011719 L 617.195313 320.859375 L 617.042969 320.699219 L 616.902344 320.523438 L 616.765625 320.339844 L 616.636719 320.140625 L 616.515625 319.929688 L 616.402344 319.707031 L 616.296875 319.472656 L 616.203125 319.226563 L 616.121094 318.964844 L 616.046875 318.695313 L 615.980469 318.414063 L 615.925781 318.125 L 615.882813 317.820313 L 615.847656 317.507813 L 615.824219 317.183594 L 615.808594 316.851563 L 615.800781 316.503906 L 615.808594 316.160156 L 615.824219 315.828125 L 615.847656 315.507813 L 615.882813 315.199219 L 615.929688 314.898438 L 615.984375 314.609375 L 616.050781 314.332031 L 616.128906 314.066406 L 616.214844 313.808594 L 616.3125 313.5625 L 616.421875 313.332031 L 616.535156 313.109375 L 616.660156 312.898438 L 616.789063 312.699219 L 616.925781 312.515625 L 617.070313 312.339844 L 617.222656 312.179688 L 617.382813 312.027344 L 617.550781 311.890625 L 617.722656 311.765625 L 617.90625 311.648438 L 618.089844 311.546875 L 618.28125 311.457031 L 618.480469 311.378906 L 618.679688 311.3125 L 618.882813 311.261719 L 619.09375 311.21875 L 619.304688 311.1875 L 619.523438 311.171875 Z M 619.746094 311.164063 "/>
<path style=" stroke:none;fill-rule:nonzero;fill:rgb(0%,0%,0%);fill-opacity:1;" d="M 630.1875 311.359375 L 627.335938 321.679688 L 625.671875 321.679688 L 622.777344 311.359375 L 624.21875 311.359375 L 626.527344 320.328125 L 628.808594 311.359375 Z M 630.1875 311.359375 "/>
<path style=" stroke:none;fill-rule:nonzero;fill:rgb(0%,0%,0%);fill-opacity:1;" d="M 631.132813 317.539063 L 631.132813 316.429688 L 635.015625 316.429688 L 635.015625 317.539063 Z M 631.132813 317.539063 "/>
<path style=" stroke:none;fill-rule:nonzero;fill:rgb(0%,0%,0%);fill-opacity:1;" d="M 642.1875 321.679688 L 639.96875 317.285156 L 638.511719 317.285156 L 638.511719 321.679688 L 637.117188 321.679688 L 637.117188 311.359375 L 639.53125 311.359375 L 640.234375 311.386719 L 640.859375 311.476563 L 641.414063 311.621094 L 641.894531 311.824219 L 642.300781 312.085938 L 642.632813 312.40625 L 642.890625 312.785156 L 643.074219 313.222656 L 643.1875 313.714844 L 643.222656 314.269531 L 643.21875 314.46875 L 643.203125 314.664063 L 643.179688 314.851563 L 643.144531 315.035156 L 643.097656 315.210938 L 643.042969 315.378906 L 642.980469 315.542969 L 642.90625 315.699219 L 642.820313 315.851563 L 642.726563 315.992188 L 642.625 316.132813 L 642.511719 316.261719 L 642.390625 316.382813 L 642.257813 316.5 L 642.117188 316.605469 L 641.964844 316.707031 L 641.808594 316.796875 L 641.636719 316.882813 L 641.460938 316.960938 L 641.273438 317.027344 L 643.734375 321.679688 Z M 639.636719 316.21875 L 639.847656 316.214844 L 640.046875 316.199219 L 640.234375 316.175781 L 640.414063 316.144531 L 640.578125 316.101563 L 640.734375 316.050781 L 640.878906 315.992188 L 641.011719 315.921875 L 641.132813 315.84375 L 641.242188 315.753906 L 641.34375 315.652344 L 641.429688 315.542969 L 641.511719 315.417969 L 641.578125 315.285156 L 641.636719 315.144531 L 641.683594 314.988281 L 641.71875 314.824219 L 641.746094 314.648438 L 641.761719 314.464844 L 641.765625 314.269531 L 641.761719 314.085938 L 641.746094 313.910156 L 641.71875 313.746094 L 641.679688 313.59375 L 641.632813 313.449219 L 641.574219 313.3125 L 641.503906 313.1875 L 641.421875 313.074219 L 641.332031 312.96875 L 641.226563 312.875 L 641.117188 312.789063 L 640.992188 312.710938 L 640.851563 312.644531 L 640.699219 312.585938 L 640.535156 312.535156 L 640.355469 312.496094 L 640.160156 312.464844 L 639.957031 312.441406 L 639.734375 312.429688 L 639.503906 312.425781 L 638.511719 312.425781 L 638.511719 316.21875 Z M 639.636719 316.21875 "/>
<path style=" stroke:none;fill-rule:nonzero;fill:rgb(0%,0%,0%);fill-opacity:1;" d="M 653.859375 321.679688 L 652.523438 321.679688 L 652.207031 317.015625 L 652.167969 316.40625 L 652.132813 315.839844 L 652.097656 315.308594 L 652.070313 314.816406 L 652.046875 314.367188 L 652.027344 313.953125 L 652.007813 313.582031 L 651.996094 313.246094 L 651.988281 312.949219 L 651.984375 312.695313 L 650.003906 320.507813 L 648.699219 320.507813 L 646.628906 312.695313 L 646.628906 312.972656 L 646.625 313.285156 L 646.617188 313.632813 L 646.609375 314.015625 L 646.59375 314.433594 L 646.574219 314.886719 L 646.554688 315.375 L 646.527344 315.894531 L 646.496094 316.453125 L 646.460938 317.042969 L 646.164063 321.679688 L 644.84375 321.679688 L 645.636719 311.359375 L 647.453125 311.359375 L 649.371094 318.992188 L 651.21875 311.359375 L 653.0625 311.359375 Z M 653.859375 321.679688 "/>
<path style=" stroke:none;fill-rule:nonzero;fill:rgb(0%,0%,0%);fill-opacity:1;" d="M 658.402344 311.164063 L 658.582031 311.167969 L 658.757813 311.175781 L 658.929688 311.191406 L 659.097656 311.210938 L 659.257813 311.238281 L 659.414063 311.273438 L 659.566406 311.3125 L 659.714844 311.355469 L 659.855469 311.40625 L 659.992188 311.464844 L 660.128906 311.527344 L 660.265625 311.597656 L 660.398438 311.671875 L 660.53125 311.753906 L 660.660156 311.839844 L 660.789063 311.933594 L 660.914063 312.03125 L 661.039063 312.136719 L 661.160156 312.246094 L 661.28125 312.363281 L 660.578125 313.160156 L 660.476563 313.070313 L 660.375 312.988281 L 660.273438 312.910156 L 660.167969 312.835938 L 660.066406 312.769531 L 659.964844 312.707031 L 659.863281 312.648438 L 659.761719 312.59375 L 659.660156 312.542969 L 659.457031 312.457031 L 659.355469 312.417969 L 659.253906 312.382813 L 659.148438 312.355469 L 658.929688 312.308594 L 658.820313 312.292969 L 658.707031 312.28125 L 658.59375 312.277344 L 658.476563 312.273438 L 658.332031 312.277344 L 658.1875 312.289063 L 658.054688 312.3125 L 657.921875 312.339844 L 657.796875 312.378906 L 657.679688 312.425781 L 657.566406 312.480469 L 657.460938 312.542969 L 657.359375 312.613281 L 657.261719 312.695313 L 657.175781 312.777344 L 657.101563 312.867188 L 657.03125 312.960938 L 656.972656 313.0625 L 656.925781 313.167969 L 656.882813 313.277344 L 656.851563 313.394531 L 656.832031 313.515625 L 656.816406 313.640625 L 656.8125 313.773438 L 656.8125 313.863281 L 656.828125 314.035156 L 656.839844 314.113281 L 656.859375 314.195313 L 656.878906 314.269531 L 656.902344 314.34375 L 656.929688 314.417969 L 656.957031 314.488281 L 656.992188 314.554688 L 657.03125 314.617188 L 657.074219 314.679688 L 657.125 314.738281 L 657.175781 314.800781 L 657.234375 314.859375 L 657.300781 314.914063 L 657.371094 314.972656 L 657.445313 315.03125 L 657.523438 315.085938 L 657.609375 315.140625 L 657.699219 315.191406 L 657.796875 315.242188 L 657.902344 315.292969 L 658.011719 315.34375 L 658.132813 315.398438 L 658.257813 315.449219 L 658.394531 315.503906 L 658.535156 315.558594 L 658.683594 315.609375 L 658.835938 315.664063 L 659.015625 315.730469 L 659.191406 315.796875 L 659.355469 315.867188 L 659.515625 315.933594 L 659.671875 316.003906 L 659.816406 316.078125 L 659.957031 316.148438 L 660.089844 316.222656 L 660.21875 316.292969 L 660.335938 316.367188 L 660.453125 316.445313 L 660.5625 316.527344 L 660.664063 316.613281 L 660.761719 316.703125 L 660.855469 316.796875 L 660.941406 316.894531 L 661.023438 316.996094 L 661.101563 317.105469 L 661.171875 317.214844 L 661.238281 317.328125 L 661.296875 317.449219 L 661.351563 317.574219 L 661.398438 317.707031 L 661.4375 317.84375 L 661.472656 317.988281 L 661.503906 318.140625 L 661.523438 318.296875 L 661.539063 318.457031 L 661.550781 318.625 L 661.550781 318.800781 L 661.546875 318.972656 L 661.535156 319.144531 L 661.515625 319.3125 L 661.488281 319.476563 L 661.453125 319.640625 L 661.40625 319.796875 L 661.355469 319.949219 L 661.292969 320.101563 L 661.222656 320.246094 L 661.148438 320.390625 L 661.0625 320.523438 L 660.972656 320.652344 L 660.871094 320.777344 L 660.765625 320.894531 L 660.652344 321.007813 L 660.53125 321.113281 L 660.402344 321.214844 L 660.269531 321.3125 L 660.128906 321.398438 L 659.976563 321.484375 L 659.824219 321.558594 L 659.667969 321.625 L 659.503906 321.683594 L 659.335938 321.734375 L 659.160156 321.777344 L 658.980469 321.8125 L 658.796875 321.839844 L 658.605469 321.859375 L 658.410156 321.871094 L 658.207031 321.875 L 657.839844 321.859375 L 657.480469 321.820313 L 657.132813 321.753906 L 656.796875 321.65625 L 656.472656 321.535156 L 656.15625 321.386719 L 655.855469 321.210938 L 655.5625 321.011719 L 655.28125 320.78125 L 655.011719 320.523438 L 655.746094 319.730469 L 655.859375 319.824219 L 655.96875 319.917969 L 656.082031 320.007813 L 656.195313 320.089844 L 656.304688 320.167969 L 656.417969 320.242188 L 656.53125 320.3125 L 656.644531 320.378906 L 656.757813 320.4375 L 656.871094 320.492188 L 656.992188 320.542969 L 657.113281 320.585938 L 657.234375 320.625 L 657.359375 320.65625 L 657.488281 320.683594 L 657.617188 320.707031 L 657.75 320.726563 L 657.886719 320.738281 L 658.023438 320.746094 L 658.164063 320.75 L 658.335938 320.746094 L 658.503906 320.730469 L 658.660156 320.703125 L 658.8125 320.671875 L 658.957031 320.625 L 659.09375 320.570313 L 659.226563 320.507813 L 659.347656 320.433594 L 659.464844 320.347656 L 659.574219 320.253906 L 659.675781 320.148438 L 659.765625 320.035156 L 659.847656 319.914063 L 659.917969 319.785156 L 659.976563 319.648438 L 660.027344 319.507813 L 660.0625 319.355469 L 660.089844 319.199219 L 660.105469 319.03125 L 660.113281 318.859375 L 660.109375 318.710938 L 660.09375 318.566406 L 660.074219 318.429688 L 660.042969 318.296875 L 660.003906 318.171875 L 659.957031 318.054688 L 659.898438 317.941406 L 659.835938 317.835938 L 659.761719 317.738281 L 659.675781 317.644531 L 659.585938 317.554688 L 659.480469 317.464844 L 659.359375 317.378906 L 659.226563 317.292969 L 659.078125 317.210938 L 658.914063 317.125 L 658.738281 317.042969 L 658.542969 316.960938 L 658.339844 316.882813 L 658.117188 316.804688 L 657.835938 316.699219 L 657.566406 316.59375 L 657.316406 316.484375 L 657.082031 316.371094 L 656.863281 316.253906 L 656.664063 316.132813 L 656.476563 316.007813 L 656.308594 315.882813 L 656.15625 315.753906 L 656.015625 315.617188 L 655.898438 315.480469 L 655.789063 315.332031 L 655.695313 315.175781 L 655.613281 315.015625 L 655.546875 314.84375 L 655.488281 314.664063 L 655.445313 314.476563 L 655.414063 314.28125 L 655.394531 314.074219 L 655.386719 313.863281 L 655.390625 313.710938 L 655.402344 313.5625 L 655.421875 313.417969 L 655.449219 313.277344 L 655.480469 313.136719 L 655.523438 313 L 655.570313 312.867188 L 655.628906 312.734375 L 655.691406 312.609375 L 655.761719 312.484375 L 655.84375 312.359375 L 655.929688 312.242188 L 656.023438 312.132813 L 656.121094 312.027344 L 656.226563 311.925781 L 656.339844 311.832031 L 656.457031 311.742188 L 656.578125 311.660156 L 656.707031 311.582031 L 656.84375 311.507813 L 656.980469 311.445313 L 657.125 311.386719 L 657.273438 311.332031 L 657.421875 311.289063 L 657.578125 311.25 L 657.734375 311.21875 L 657.898438 311.195313 L 658.0625 311.179688 L 658.230469 311.167969 Z M 658.402344 311.164063 "/>
<path style=" stroke:none;fill-rule:nonzero;fill:rgb(0%,0%,0%);fill-opacity:1;" d="M 668.527344 311.359375 L 668.363281 312.4375 L 664.792969 312.4375 L 664.792969 315.84375 L 667.898438 315.84375 L 667.898438 316.925781 L 664.792969 316.925781 L 664.792969 320.585938 L 668.574219 320.585938 L 668.574219 321.679688 L 663.398438 321.679688 L 663.398438 311.359375 Z M 668.527344 311.359375 "/>
<path style=" stroke:none;fill-rule:nonzero;fill:rgb(0%,0%,0%);fill-opacity:1;" d="M 624.890625 338.960938 L 623.558594 338.960938 L 623.242188 334.292969 L 623.203125 333.6875 L 623.167969 333.117188 L 623.132813 332.589844 L 623.105469 332.097656 L 623.082031 331.648438 L 623.0625 331.234375 L 623.042969 330.859375 L 623.03125 330.527344 L 623.023438 330.230469 L 623.015625 329.972656 L 621.039063 337.789063 L 619.734375 337.789063 L 617.664063 329.972656 L 617.664063 330.253906 L 617.660156 330.566406 L 617.652344 330.914063 L 617.644531 331.296875 L 617.628906 331.714844 L 617.609375 332.167969 L 617.589844 332.652344 L 617.5625 333.175781 L 617.53125 333.734375 L 617.496094 334.324219 L 617.199219 338.960938 L 615.878906 338.960938 L 616.671875 328.640625 L 618.488281 328.640625 L 620.40625 336.273438 L 622.253906 328.640625 L 624.097656 328.640625 Z M 624.890625 338.960938 "/>
<path style=" stroke:none;fill-rule:nonzero;fill:rgb(0%,0%,0%);fill-opacity:1;" d="M 628.28125 331.070313 L 628.28125 338.960938 L 626.933594 338.960938 L 626.933594 331.070313 Z M 627.609375 327.347656 L 627.683594 327.351563 L 627.757813 327.359375 L 627.828125 327.371094 L 627.894531 327.390625 L 627.960938 327.414063 L 628.023438 327.441406 L 628.078125 327.472656 L 628.136719 327.511719 L 628.1875 327.554688 L 628.238281 327.605469 L 628.285156 327.65625 L 628.328125 327.710938 L 628.367188 327.769531 L 628.402344 327.828125 L 628.429688 327.890625 L 628.453125 327.953125 L 628.46875 328.019531 L 628.480469 328.089844 L 628.488281 328.160156 L 628.492188 328.234375 L 628.488281 328.308594 L 628.484375 328.378906 L 628.472656 328.449219 L 628.453125 328.515625 L 628.433594 328.578125 L 628.40625 328.640625 L 628.375 328.699219 L 628.339844 328.757813 L 628.296875 328.8125 L 628.253906 328.863281 L 628.203125 328.910156 L 628.09375 328.988281 L 628.035156 329.019531 L 627.972656 329.042969 L 627.90625 329.066406 L 627.835938 329.082031 L 627.761719 329.09375 L 627.6875 329.101563 L 627.609375 329.105469 L 627.53125 329.101563 L 627.457031 329.09375 L 627.386719 329.082031 L 627.316406 329.066406 L 627.25 329.042969 L 627.1875 329.019531 L 627.128906 328.988281 L 627.070313 328.949219 L 627.015625 328.910156 L 626.960938 328.863281 L 626.917969 328.8125 L 626.875 328.757813 L 626.839844 328.699219 L 626.808594 328.640625 L 626.78125 328.578125 L 626.761719 328.515625 L 626.746094 328.449219 L 626.730469 328.378906 L 626.726563 328.308594 L 626.722656 328.234375 L 626.726563 328.160156 L 626.730469 328.089844 L 626.746094 328.019531 L 626.761719 327.953125 L 626.78125 327.890625 L 626.808594 327.828125 L 626.839844 327.769531 L 626.875 327.710938 L 626.917969 327.65625 L 626.960938 327.605469 L 627.015625 327.554688 L 627.070313 327.511719 L 627.128906 327.472656 L 627.1875 327.441406 L 627.25 327.414063 L 627.316406 327.390625 L 627.386719 327.371094 L 627.457031 327.359375 L 627.53125 327.351563 Z M 627.609375 327.347656 "/>
<path style=" stroke:none;fill-rule:nonzero;fill:rgb(0%,0%,0%);fill-opacity:1;" d="M 634.238281 330.875 L 634.421875 330.878906 L 634.597656 330.898438 L 634.765625 330.929688 L 634.925781 330.976563 L 635.078125 331.03125 L 635.21875 331.101563 L 635.355469 331.183594 L 635.480469 331.277344 L 635.597656 331.382813 L 635.707031 331.503906 L 635.808594 331.632813 L 635.902344 331.769531 L 635.984375 331.917969 L 636.054688 332.074219 L 636.113281 332.238281 L 636.160156 332.414063 L 636.199219 332.601563 L 636.226563 332.796875 L 636.242188 333 L 636.246094 333.214844 L 636.246094 338.960938 L 634.898438 338.960938 L 634.898438 333.378906 L 634.894531 333.230469 L 634.886719 333.089844 L 634.875 332.960938 L 634.855469 332.835938 L 634.832031 332.722656 L 634.804688 332.617188 L 634.773438 332.519531 L 634.734375 332.433594 L 634.691406 332.355469 L 634.640625 332.285156 L 634.589844 332.21875 L 634.53125 332.160156 L 634.464844 332.109375 L 634.394531 332.0625 L 634.320313 332.023438 L 634.238281 331.996094 L 634.152344 331.96875 L 634.0625 331.953125 L 633.964844 331.941406 L 633.863281 331.9375 L 633.667969 331.953125 L 633.472656 331.996094 L 633.285156 332.066406 L 633.097656 332.164063 L 632.917969 332.292969 L 632.738281 332.445313 L 632.566406 332.628906 L 632.394531 332.839844 L 632.226563 333.082031 L 632.0625 333.347656 L 632.0625 338.960938 L 630.710938 338.960938 L 630.710938 331.070313 L 631.882813 331.070313 L 631.988281 332.238281 L 632.175781 331.980469 L 632.371094 331.746094 L 632.574219 331.542969 L 632.785156 331.367188 L 633.007813 331.214844 L 633.238281 331.09375 L 633.472656 330.996094 L 633.71875 330.929688 L 633.976563 330.886719 Z M 634.238281 330.875 "/>
<path style=" stroke:none;fill-rule:nonzero;fill:rgb(0%,0%,0%);fill-opacity:1;" d="M 642.066406 327.710938 L 642.269531 327.753906 L 642.460938 327.800781 L 642.644531 327.851563 L 642.820313 327.910156 L 642.988281 327.96875 L 643.152344 328.03125 L 643.304688 328.097656 L 643.449219 328.171875 L 643.585938 328.246094 L 643.71875 328.324219 L 643.839844 328.410156 L 643.960938 328.5 L 644.074219 328.597656 L 644.183594 328.699219 L 644.289063 328.8125 L 644.386719 328.929688 L 644.480469 329.054688 L 644.570313 329.183594 L 644.65625 329.320313 L 644.738281 329.464844 L 644.8125 329.617188 L 644.886719 329.777344 L 644.957031 329.949219 L 645.027344 330.132813 L 645.089844 330.324219 L 645.152344 330.523438 L 645.210938 330.734375 L 645.265625 330.957031 L 645.316406 331.1875 L 645.367188 331.429688 L 645.457031 331.867188 L 645.542969 332.289063 L 645.628906 332.691406 L 645.714844 333.074219 L 645.796875 333.441406 L 645.878906 333.792969 L 645.960938 334.125 L 646.039063 334.4375 L 646.117188 334.734375 L 646.191406 335.015625 L 646.265625 335.277344 L 646.34375 335.527344 L 646.417969 335.765625 L 646.488281 335.992188 L 646.5625 336.210938 L 646.636719 336.417969 L 646.710938 336.609375 L 646.78125 336.796875 L 646.855469 336.96875 L 646.925781 337.128906 L 647 337.285156 L 647.078125 337.441406 L 647.15625 337.59375 L 647.238281 337.75 L 647.324219 337.902344 L 647.503906 338.207031 L 647.597656 338.359375 L 647.695313 338.507813 L 647.796875 338.660156 L 646.539063 339.140625 L 646.4375 338.972656 L 646.339844 338.808594 L 646.246094 338.648438 L 646.152344 338.484375 L 646.066406 338.320313 L 645.980469 338.160156 L 645.816406 337.839844 L 645.667969 337.519531 L 645.597656 337.355469 L 645.53125 337.183594 L 645.460938 337 L 645.394531 336.804688 L 645.328125 336.605469 L 645.257813 336.390625 L 645.191406 336.171875 L 645.125 335.941406 L 645.058594 335.699219 L 644.992188 335.449219 L 644.925781 335.183594 L 644.859375 334.902344 L 644.792969 334.609375 L 644.730469 334.296875 L 644.664063 333.972656 L 644.597656 333.632813 L 644.53125 333.277344 L 644.464844 332.90625 L 644.398438 332.519531 L 644.332031 332.117188 L 642.515625 339.140625 L 641.226563 338.824219 L 643.507813 331.070313 L 644.03125 331.070313 L 643.984375 330.851563 L 643.929688 330.648438 L 643.871094 330.457031 L 643.808594 330.277344 L 643.738281 330.109375 L 643.667969 329.953125 L 643.59375 329.808594 L 643.515625 329.675781 L 643.429688 329.558594 L 643.34375 329.449219 L 643.246094 329.347656 L 643.140625 329.25 L 643.023438 329.164063 L 642.894531 329.078125 L 642.753906 329.003906 L 642.601563 328.933594 L 642.441406 328.867188 L 642.265625 328.8125 L 642.082031 328.757813 L 641.886719 328.714844 Z M 642.066406 327.710938 "/>
</g>
</svg>
