<?xml version="1.0" encoding="UTF-8"?>
<svg xmlns="http://www.w3.org/2000/svg" xmlns:xlink="http://www.w3.org/1999/xlink" width="540pt" height="360pt" viewBox="0 0 540 360" version="1.1">
<g id="surface150">
<rect x="0" y="0" width="540" height="360" style="fill:rgb(100%,100%,100%);fill-opacity:1;stroke:none;"/>
<path style="fill-rule:nonzero;fill:rgb(56.470588%,5.098039%,64.313725%);fill-opacity:1;stroke-width:3.200935;stroke-linecap:round;stroke-linejoin:round;stroke:rgb(100%,100%,100%);stroke-opacity:1;stroke-miterlimit:10;" d="M 234.738281 171.480469 L 238.644531 172.042969 L 242.554688 172.605469 L 246.460938 173.167969 L 250.371094 173.730469 L 254.277344 174.289063 L 262.097656 175.414063 L 266.003906 175.976563 L 269.914063 176.539063 L 273.820313 177.101563 L 277.730469 177.664063 L 281.636719 178.222656 L 285.546875 178.785156 L 289.453125 179.347656 L 293.363281 179.910156 L 297.269531 180.472656 L 301.179688 181.035156 L 305.085938 181.597656 L 308.996094 182.15625 L 312.90625 182.71875 L 316.8125 183.28125 L 320.722656 183.84375 L 324.628906 184.40625 L 328.539063 184.96875 L 332.445313 185.53125 L 336.355469 186.089844 L 340.261719 186.652344 L 344.171875 187.214844 L 348.078125 187.777344 L 348.617188 183.449219 L 348.992188 179.105469 L 349.199219 174.75 L 349.238281 170.390625 L 349.117188 166.03125 L 345.171875 166.21875 L 341.226563 166.410156 L 337.28125 166.597656 L 333.339844 166.785156 L 325.449219 167.160156 L 321.507813 167.347656 L 313.617188 167.722656 L 309.675781 167.910156 L 305.730469 168.097656 L 301.785156 168.289063 L 297.84375 168.476563 L 289.953125 168.851563 L 286.011719 169.039063 L 278.121094 169.414063 L 274.179688 169.601563 L 266.289063 169.976563 L 262.347656 170.167969 L 250.511719 170.730469 L 246.570313 170.917969 L 238.679688 171.292969 Z M 234.738281 171.480469 "/>
<path style="fill-rule:nonzero;fill:rgb(33.72549%,0.392157%,64.313725%);fill-opacity:1;stroke-width:3.200935;stroke-linecap:round;stroke-linejoin:round;stroke:rgb(100%,100%,100%);stroke-opacity:1;stroke-miterlimit:10;" d="M 234.738281 171.480469 L 234.738281 56.972656 L 230.863281 57.039063 L 226.992188 57.234375 L 223.128906 57.5625 L 219.28125 58.019531 L 215.449219 58.609375 L 211.640625 59.328125 L 207.859375 60.171875 L 204.105469 61.144531 L 200.390625 62.246094 L 196.714844 63.472656 L 193.078125 64.820313 L 189.496094 66.289063 L 185.960938 67.882813 L 182.480469 69.59375 L 179.0625 71.417969 L 175.710938 73.359375 L 172.421875 75.414063 L 169.207031 77.578125 L 166.066406 79.847656 L 163.003906 82.226563 L 160.027344 84.703125 L 157.132813 87.28125 L 154.328125 89.957031 L 151.613281 92.726563 L 148.996094 95.582031 L 146.476563 98.527344 L 144.058594 101.558594 L 141.742188 104.667969 L 139.535156 107.851563 L 137.4375 111.109375 L 135.449219 114.4375 L 133.574219 117.828125 L 131.816406 121.285156 L 130.179688 124.796875 L 128.660156 128.363281 L 127.261719 131.976563 L 125.984375 135.636719 L 124.832031 139.335938 L 123.808594 143.074219 L 122.910156 146.84375 L 122.140625 150.644531 L 121.5 154.464844 L 120.988281 158.308594 L 120.609375 162.164063 L 120.359375 166.03125 L 120.238281 169.90625 L 120.253906 173.78125 L 120.394531 177.65625 L 120.671875 181.523438 L 121.074219 185.375 L 121.609375 189.214844 L 122.277344 193.03125 L 123.070313 196.828125 L 123.992188 200.589844 L 125.039063 204.324219 L 126.214844 208.015625 L 127.511719 211.667969 L 128.933594 215.273438 L 130.476563 218.828125 L 132.140625 222.332031 L 133.917969 225.773438 L 135.8125 229.152344 L 137.820313 232.46875 L 139.941406 235.714844 L 142.167969 238.886719 L 144.503906 241.980469 L 146.941406 244.992188 L 149.480469 247.921875 L 152.113281 250.761719 L 154.84375 253.515625 L 157.667969 256.171875 L 160.578125 258.730469 L 163.574219 261.191406 L 166.648438 263.546875 L 169.804688 265.796875 L 173.035156 267.941406 L 176.332031 269.976563 L 179.699219 271.894531 L 183.128906 273.699219 L 186.617188 275.386719 L 190.164063 276.957031 L 193.757813 278.40625 L 197.398438 279.730469 L 201.085938 280.933594 L 204.808594 282.007813 L 208.566406 282.957031 L 212.351563 283.78125 L 216.167969 284.472656 L 220 285.035156 L 223.851563 285.46875 L 227.714844 285.773438 L 231.589844 285.945313 L 235.464844 285.988281 L 239.339844 285.898438 L 243.207031 285.675781 L 247.066406 285.324219 L 250.914063 284.839844 L 254.742188 284.226563 L 258.542969 283.488281 L 262.320313 282.617188 L 266.066406 281.621094 L 269.777344 280.496094 L 273.445313 279.25 L 277.070313 277.875 L 280.648438 276.382813 L 284.171875 274.769531 L 287.636719 273.035156 L 291.042969 271.1875 L 294.386719 269.226563 L 297.660156 267.152344 L 300.863281 264.96875 L 303.988281 262.675781 L 307.035156 260.28125 L 310 257.78125 L 312.875 255.1875 L 315.664063 252.492188 L 318.359375 249.707031 L 320.957031 246.832031 L 323.460938 243.871094 L 325.859375 240.828125 L 328.152344 237.703125 L 330.339844 234.503906 L 332.417969 231.234375 L 334.386719 227.894531 L 336.238281 224.488281 L 337.972656 221.023438 L 339.589844 217.5 L 341.085938 213.925781 L 342.464844 210.304688 L 343.714844 206.636719 L 344.84375 202.925781 L 345.84375 199.183594 L 346.71875 195.40625 L 347.464844 191.605469 L 348.078125 187.777344 L 344.171875 187.214844 L 340.261719 186.652344 L 336.355469 186.089844 L 332.445313 185.53125 L 328.539063 184.96875 L 324.628906 184.40625 L 320.722656 183.84375 L 316.8125 183.28125 L 312.90625 182.71875 L 308.996094 182.15625 L 305.085938 181.597656 L 301.179688 181.035156 L 297.269531 180.472656 L 293.363281 179.910156 L 289.453125 179.347656 L 285.546875 178.785156 L 281.636719 178.222656 L 277.730469 177.664063 L 273.820313 177.101563 L 269.914063 176.539063 L 266.003906 175.976563 L 262.097656 175.414063 L 254.277344 174.289063 L 250.371094 173.730469 L 246.460938 173.167969 L 242.554688 172.605469 L 238.644531 172.042969 Z M 234.738281 171.480469 "/>
<path style="fill-rule:nonzero;fill:rgb(98.823529%,80.784314%,14.509804%);fill-opacity:1;stroke-width:3.200935;stroke-linecap:round;stroke-linejoin:round;stroke:rgb(100%,100%,100%);stroke-opacity:1;stroke-miterlimit:10;" d="M 234.738281 171.480469 L 236.203125 167.816406 L 237.671875 164.148438 L 239.140625 160.484375 L 240.605469 156.820313 L 242.074219 153.152344 L 243.542969 149.488281 L 245.011719 145.820313 L 246.476563 142.15625 L 247.945313 138.488281 L 249.414063 134.824219 L 250.878906 131.160156 L 252.347656 127.492188 L 253.816406 123.828125 L 255.28125 120.160156 L 256.75 116.496094 L 258.21875 112.828125 L 259.683594 109.164063 L 261.152344 105.5 L 262.621094 101.832031 L 264.085938 98.167969 L 265.554688 94.5 L 268.492188 87.171875 L 269.957031 83.503906 L 271.425781 79.839844 L 272.894531 76.171875 L 274.359375 72.507813 L 275.828125 68.839844 L 277.296875 65.175781 L 273.589844 63.765625 L 269.839844 62.484375 L 266.046875 61.335938 L 262.214844 60.320313 L 258.351563 59.433594 L 254.457031 58.683594 L 250.542969 58.070313 L 246.609375 57.589844 L 242.660156 57.246094 L 238.699219 57.042969 L 234.738281 56.972656 Z M 234.738281 171.480469 "/>
<path style="fill-rule:nonzero;fill:rgb(88.235294%,39.215686%,38.431373%);fill-opacity:1;stroke-width:3.200935;stroke-linecap:round;stroke-linejoin:round;stroke:rgb(100%,100%,100%);stroke-opacity:1;stroke-miterlimit:10;" d="M 234.738281 171.480469 L 238.679688 171.292969 L 246.570313 170.917969 L 250.511719 170.730469 L 262.347656 170.167969 L 266.289063 169.976563 L 274.179688 169.601563 L 278.121094 169.414063 L 286.011719 169.039063 L 289.953125 168.851563 L 297.84375 168.476563 L 301.785156 168.289063 L 305.730469 168.097656 L 309.675781 167.910156 L 313.617188 167.722656 L 321.507813 167.347656 L 325.449219 167.160156 L 333.339844 166.785156 L 337.28125 166.597656 L 341.226563 166.410156 L 345.171875 166.21875 L 349.117188 166.03125 L 348.859375 162.078125 L 348.464844 158.132813 L 347.933594 154.203125 L 347.269531 150.296875 L 346.46875 146.414063 L 345.535156 142.5625 L 344.464844 138.746094 L 343.265625 134.96875 L 341.9375 131.234375 L 340.480469 127.546875 L 338.898438 123.914063 L 337.1875 120.335938 L 335.355469 116.820313 L 333.40625 113.371094 L 331.335938 109.992188 L 329.148438 106.683594 L 326.847656 103.457031 L 324.4375 100.308594 L 321.921875 97.246094 L 319.300781 94.273438 L 316.578125 91.394531 L 313.757813 88.609375 L 310.839844 85.921875 L 307.835938 83.339844 L 304.738281 80.863281 L 301.5625 78.496094 L 298.304688 76.238281 L 294.96875 74.09375 L 291.5625 72.066406 L 288.085938 70.160156 L 284.546875 68.375 L 280.949219 66.710938 L 277.296875 65.175781 L 275.828125 68.839844 L 274.359375 72.507813 L 272.894531 76.171875 L 271.425781 79.839844 L 269.957031 83.503906 L 268.492188 87.171875 L 265.554688 94.5 L 264.085938 98.167969 L 262.621094 101.832031 L 261.152344 105.5 L 259.683594 109.164063 L 258.21875 112.828125 L 256.75 116.496094 L 255.28125 120.160156 L 253.816406 123.828125 L 252.347656 127.492188 L 250.878906 131.160156 L 249.414063 134.824219 L 247.945313 138.488281 L 246.476563 142.15625 L 245.011719 145.820313 L 243.542969 149.488281 L 242.074219 153.152344 L 240.605469 156.820313 L 239.140625 160.484375 L 237.671875 164.148438 L 236.203125 167.816406 Z M 234.738281 171.480469 "/>
<path style="fill-rule:nonzero;fill:rgb(100%,100%,100%);fill-opacity:1;stroke-width:1.115477;stroke-linecap:round;stroke-linejoin:round;stroke:rgb(100%,100%,100%);stroke-opacity:1;stroke-miterlimit:10;" d="M 389.328125 222.25 L 456.929688 222.25 L 456.929688 120.714844 L 389.328125 120.714844 Z M 389.328125 222.25 "/>
<path style=" stroke:none;fill-rule:evenodd;fill:rgb(0%,0%,0%);fill-opacity:1;" d="M 401.597656 130.457031 L 399.242188 138.34375 L 397.621094 138.34375 L 395.191406 130.457031 L 396.601563 130.457031 L 398.433594 137.207031 L 400.246094 130.457031 Z M 401.597656 130.457031 "/>
<path style=" stroke:none;fill-rule:evenodd;fill:rgb(0%,0%,0%);fill-opacity:1;" d="M 407.867188 136.546875 L 407.867188 136.640625 L 407.871094 136.726563 L 407.878906 136.8125 L 407.890625 136.890625 L 407.902344 136.964844 L 407.917969 137.035156 L 407.933594 137.101563 L 407.953125 137.160156 L 407.976563 137.214844 L 408.003906 137.265625 L 408.03125 137.308594 L 408.0625 137.351563 L 408.132813 137.429688 L 408.175781 137.464844 L 408.21875 137.496094 L 408.265625 137.527344 L 408.316406 137.558594 L 408.367188 137.585938 L 408.421875 137.609375 L 408.136719 138.523438 L 408.023438 138.503906 L 407.914063 138.480469 L 407.808594 138.453125 L 407.710938 138.425781 L 407.617188 138.390625 L 407.527344 138.351563 L 407.445313 138.3125 L 407.363281 138.265625 L 407.292969 138.21875 L 407.222656 138.164063 L 407.160156 138.109375 L 407.097656 138.046875 L 407.042969 137.976563 L 406.988281 137.902344 L 406.941406 137.824219 L 406.898438 137.738281 L 406.855469 137.648438 L 406.820313 137.550781 L 406.785156 137.449219 L 406.757813 137.339844 L 406.597656 137.566406 L 406.425781 137.773438 L 406.242188 137.953125 L 406.046875 138.109375 L 405.839844 138.242188 L 405.617188 138.347656 L 405.386719 138.433594 L 405.140625 138.492188 L 404.882813 138.527344 L 404.613281 138.539063 L 404.40625 138.535156 L 404.210938 138.515625 L 404.023438 138.480469 L 403.84375 138.4375 L 403.671875 138.378906 L 403.507813 138.308594 L 403.355469 138.222656 L 403.210938 138.128906 L 403.074219 138.019531 L 402.949219 137.894531 L 402.832031 137.757813 L 402.726563 137.613281 L 402.632813 137.460938 L 402.554688 137.296875 L 402.488281 137.125 L 402.429688 136.945313 L 402.386719 136.757813 L 402.355469 136.5625 L 402.339844 136.355469 L 402.332031 136.140625 L 402.339844 135.894531 L 402.367188 135.660156 L 402.40625 135.4375 L 402.464844 135.226563 L 402.539063 135.03125 L 402.628906 134.84375 L 402.738281 134.671875 L 402.859375 134.507813 L 403 134.359375 L 403.15625 134.21875 L 403.328125 134.09375 L 403.515625 133.984375 L 403.714844 133.882813 L 403.929688 133.796875 L 404.160156 133.726563 L 404.402344 133.664063 L 404.65625 133.621094 L 404.929688 133.585938 L 405.214844 133.566406 L 405.511719 133.558594 L 406.53125 133.558594 L 406.53125 132.886719 L 406.527344 132.726563 L 406.519531 132.574219 L 406.5 132.433594 L 406.476563 132.300781 L 406.445313 132.175781 L 406.410156 132.0625 L 406.363281 131.957031 L 406.3125 131.863281 L 406.253906 131.777344 L 406.1875 131.699219 L 406.117188 131.628906 L 406.039063 131.566406 L 405.949219 131.507813 L 405.855469 131.460938 L 405.75 131.417969 L 405.636719 131.386719 L 405.511719 131.359375 L 405.382813 131.339844 L 405.242188 131.328125 L 405.09375 131.324219 L 404.925781 131.328125 L 404.75 131.34375 L 404.574219 131.363281 L 404.390625 131.390625 L 404.199219 131.429688 L 404.003906 131.476563 L 403.804688 131.53125 L 403.601563 131.59375 L 403.390625 131.664063 L 403.171875 131.746094 L 402.84375 130.800781 L 403.105469 130.699219 L 403.363281 130.605469 L 403.617188 130.523438 L 403.871094 130.453125 L 404.117188 130.394531 L 404.363281 130.347656 L 404.601563 130.308594 L 404.839844 130.28125 L 405.074219 130.265625 L 405.300781 130.261719 L 405.789063 130.285156 L 406.226563 130.363281 L 406.609375 130.492188 L 406.945313 130.671875 L 407.226563 130.902344 L 407.457031 131.183594 L 407.636719 131.515625 L 407.765625 131.902344 L 407.84375 132.339844 L 407.867188 132.824219 Z M 404.925781 137.519531 L 405.132813 137.507813 L 405.328125 137.472656 L 405.511719 137.410156 L 405.6875 137.324219 L 405.855469 137.210938 L 406.007813 137.078125 L 406.15625 136.917969 L 406.289063 136.734375 L 406.417969 136.523438 L 406.53125 136.289063 L 406.53125 134.429688 L 405.664063 134.429688 L 405.292969 134.445313 L 404.960938 134.496094 L 404.667969 134.578125 L 404.414063 134.691406 L 404.199219 134.839844 L 404.023438 135.019531 L 403.886719 135.230469 L 403.789063 135.476563 L 403.730469 135.753906 L 403.710938 136.066406 L 403.714844 136.203125 L 403.726563 136.335938 L 403.742188 136.457031 L 403.761719 136.578125 L 403.792969 136.6875 L 403.824219 136.792969 L 403.867188 136.890625 L 403.914063 136.980469 L 403.96875 137.066406 L 404.027344 137.144531 L 404.09375 137.214844 L 404.164063 137.28125 L 404.242188 137.335938 L 404.324219 137.386719 L 404.410156 137.425781 L 404.503906 137.460938 L 404.601563 137.488281 L 404.703125 137.503906 L 404.8125 137.515625 Z M 404.925781 137.519531 "/>
<path style=" stroke:none;fill-rule:evenodd;fill:rgb(0%,0%,0%);fill-opacity:1;" d="M 413.539063 130.273438 L 413.613281 130.277344 L 413.6875 130.277344 L 413.761719 130.285156 L 413.832031 130.289063 L 413.902344 130.296875 L 413.96875 130.308594 L 414.09375 130.332031 L 414.15625 130.347656 L 414.210938 130.367188 L 413.988281 131.671875 L 413.929688 131.652344 L 413.871094 131.636719 L 413.753906 131.613281 L 413.691406 131.601563 L 413.628906 131.59375 L 413.566406 131.589844 L 413.503906 131.582031 L 413.371094 131.582031 L 413.242188 131.585938 L 413.117188 131.601563 L 413 131.628906 L 412.882813 131.664063 L 412.773438 131.710938 L 412.667969 131.769531 L 412.566406 131.835938 L 412.46875 131.917969 L 412.378906 132.003906 L 412.292969 132.105469 L 412.214844 132.214844 L 412.136719 132.335938 L 412.0625 132.46875 L 411.996094 132.613281 L 411.929688 132.769531 L 411.867188 132.933594 L 411.804688 133.113281 L 411.75 133.300781 L 411.695313 133.5 L 411.648438 133.710938 L 411.648438 138.34375 L 410.296875 138.34375 L 410.296875 130.457031 L 411.46875 130.457031 L 411.574219 132.015625 L 411.699219 131.683594 L 411.839844 131.390625 L 411.996094 131.128906 L 412.167969 130.902344 L 412.355469 130.710938 L 412.5625 130.554688 L 412.78125 130.433594 L 413.015625 130.34375 L 413.269531 130.292969 Z M 413.539063 130.273438 "/>
<path style=" stroke:none;fill-rule:evenodd;fill:rgb(0%,0%,0%);fill-opacity:1;" d="M 416.882813 130.457031 L 416.882813 138.34375 L 415.53125 138.34375 L 415.53125 130.457031 Z M 416.207031 126.734375 L 416.285156 126.738281 L 416.359375 126.746094 L 416.429688 126.757813 L 416.496094 126.777344 L 416.558594 126.800781 L 416.621094 126.828125 L 416.679688 126.859375 L 416.734375 126.898438 L 416.789063 126.941406 L 416.835938 126.992188 L 416.886719 127.042969 L 416.929688 127.097656 L 416.96875 127.152344 L 417 127.214844 L 417.027344 127.273438 L 417.050781 127.339844 L 417.070313 127.40625 L 417.082031 127.476563 L 417.089844 127.546875 L 417.09375 127.621094 L 417.089844 127.695313 L 417.082031 127.765625 L 417.070313 127.835938 L 417.054688 127.902344 L 417.007813 128.027344 L 416.976563 128.085938 L 416.9375 128.144531 L 416.898438 128.199219 L 416.851563 128.25 L 416.804688 128.296875 L 416.75 128.335938 L 416.695313 128.371094 L 416.632813 128.402344 L 416.570313 128.429688 L 416.503906 128.453125 L 416.4375 128.46875 L 416.363281 128.480469 L 416.285156 128.488281 L 416.207031 128.492188 L 416.132813 128.488281 L 416.058594 128.480469 L 415.984375 128.46875 L 415.917969 128.453125 L 415.851563 128.429688 L 415.789063 128.402344 L 415.726563 128.371094 L 415.671875 128.335938 L 415.613281 128.296875 L 415.5625 128.25 L 415.515625 128.199219 L 415.476563 128.144531 L 415.441406 128.085938 L 415.410156 128.027344 L 415.382813 127.964844 L 415.359375 127.902344 L 415.34375 127.835938 L 415.332031 127.765625 L 415.324219 127.695313 L 415.324219 127.546875 L 415.332031 127.476563 L 415.34375 127.40625 L 415.359375 127.339844 L 415.382813 127.273438 L 415.410156 127.214844 L 415.441406 127.152344 L 415.476563 127.097656 L 415.515625 127.042969 L 415.5625 126.992188 L 415.613281 126.941406 L 415.671875 126.898438 L 415.726563 126.859375 L 415.789063 126.828125 L 415.851563 126.800781 L 415.917969 126.777344 L 415.984375 126.757813 L 416.058594 126.746094 L 416.132813 126.738281 Z M 416.207031 126.734375 "/>
<path style=" stroke:none;fill-rule:evenodd;fill:rgb(0%,0%,0%);fill-opacity:1;" d="M 424.234375 136.546875 L 424.234375 136.640625 L 424.238281 136.726563 L 424.246094 136.8125 L 424.253906 136.890625 L 424.265625 136.964844 L 424.28125 137.035156 L 424.296875 137.101563 L 424.320313 137.160156 L 424.34375 137.214844 L 424.367188 137.265625 L 424.394531 137.308594 L 424.425781 137.351563 L 424.460938 137.390625 L 424.5 137.429688 L 424.539063 137.464844 L 424.582031 137.496094 L 424.628906 137.527344 L 424.679688 137.558594 L 424.730469 137.585938 L 424.789063 137.609375 L 424.503906 138.523438 L 424.386719 138.503906 L 424.277344 138.480469 L 424.074219 138.425781 L 423.980469 138.390625 L 423.890625 138.351563 L 423.808594 138.3125 L 423.730469 138.265625 L 423.65625 138.21875 L 423.585938 138.164063 L 423.523438 138.109375 L 423.464844 138.046875 L 423.40625 137.976563 L 423.355469 137.902344 L 423.304688 137.824219 L 423.261719 137.738281 L 423.222656 137.648438 L 423.183594 137.550781 L 423.152344 137.449219 L 423.121094 137.339844 L 422.964844 137.566406 L 422.792969 137.773438 L 422.609375 137.953125 L 422.414063 138.109375 L 422.203125 138.242188 L 421.984375 138.347656 L 421.75 138.433594 L 421.503906 138.492188 L 421.246094 138.527344 L 420.976563 138.539063 L 420.773438 138.535156 L 420.574219 138.515625 L 420.386719 138.480469 L 420.207031 138.4375 L 420.035156 138.378906 L 419.875 138.308594 L 419.722656 138.222656 L 419.574219 138.128906 L 419.441406 138.019531 L 419.3125 137.894531 L 419.195313 137.757813 L 419.089844 137.613281 L 419 137.460938 L 418.917969 137.296875 L 418.851563 137.125 L 418.796875 136.945313 L 418.753906 136.757813 L 418.722656 136.5625 L 418.703125 136.355469 L 418.699219 136.140625 L 418.707031 135.894531 L 418.730469 135.660156 L 418.773438 135.4375 L 418.828125 135.226563 L 418.902344 135.03125 L 418.996094 134.84375 L 419.101563 134.671875 L 419.226563 134.507813 L 419.367188 134.359375 L 419.523438 134.21875 L 419.695313 134.09375 L 419.878906 133.984375 L 420.082031 133.882813 L 420.296875 133.796875 L 420.523438 133.726563 L 420.765625 133.664063 L 421.023438 133.621094 L 421.292969 133.585938 L 421.578125 133.566406 L 421.878906 133.558594 L 422.898438 133.558594 L 422.898438 132.886719 L 422.894531 132.726563 L 422.882813 132.574219 L 422.867188 132.433594 L 422.84375 132.300781 L 422.8125 132.175781 L 422.773438 132.0625 L 422.730469 131.957031 L 422.675781 131.863281 L 422.617188 131.777344 L 422.550781 131.699219 L 422.480469 131.628906 L 422.402344 131.566406 L 422.316406 131.507813 L 422.21875 131.460938 L 422.113281 131.417969 L 422 131.386719 L 421.878906 131.359375 L 421.746094 131.339844 L 421.605469 131.328125 L 421.457031 131.324219 L 421.289063 131.328125 L 421.117188 131.34375 L 420.9375 131.363281 L 420.753906 131.390625 L 420.566406 131.429688 L 420.371094 131.476563 L 420.171875 131.53125 L 419.964844 131.59375 L 419.753906 131.664063 L 419.539063 131.746094 L 419.207031 130.800781 L 419.46875 130.699219 L 419.726563 130.605469 L 419.984375 130.523438 L 420.234375 130.453125 L 420.484375 130.394531 L 420.726563 130.347656 L 420.96875 130.308594 L 421.203125 130.28125 L 421.4375 130.265625 L 421.667969 130.261719 L 422.15625 130.285156 L 422.589844 130.363281 L 422.976563 130.492188 L 423.308594 130.671875 L 423.589844 130.902344 L 423.820313 131.183594 L 424 131.515625 L 424.128906 131.902344 L 424.207031 132.339844 L 424.234375 132.824219 Z M 421.292969 137.519531 L 421.496094 137.507813 L 421.691406 137.472656 L 421.878906 137.410156 L 422.054688 137.324219 L 422.21875 137.210938 L 422.375 137.078125 L 422.519531 136.917969 L 422.65625 136.734375 L 422.78125 136.523438 L 422.898438 136.289063 L 422.898438 134.429688 L 422.027344 134.429688 L 421.65625 134.445313 L 421.324219 134.496094 L 421.03125 134.578125 L 420.78125 134.691406 L 420.566406 134.839844 L 420.390625 135.019531 L 420.253906 135.230469 L 420.15625 135.476563 L 420.097656 135.753906 L 420.078125 136.066406 L 420.082031 136.203125 L 420.089844 136.335938 L 420.105469 136.457031 L 420.128906 136.578125 L 420.15625 136.6875 L 420.191406 136.792969 L 420.230469 136.890625 L 420.277344 136.980469 L 420.332031 137.066406 L 420.394531 137.144531 L 420.457031 137.214844 L 420.53125 137.28125 L 420.605469 137.335938 L 420.6875 137.386719 L 420.773438 137.425781 L 420.867188 137.460938 L 420.964844 137.488281 L 421.070313 137.503906 L 421.179688 137.515625 Z M 421.292969 137.519531 "/>
<path style=" stroke:none;fill-rule:evenodd;fill:rgb(0%,0%,0%);fill-opacity:1;" d="M 430.050781 130.261719 L 430.296875 130.269531 L 430.527344 130.304688 L 430.75 130.355469 L 430.957031 130.429688 L 431.15625 130.527344 L 431.339844 130.644531 L 431.515625 130.78125 L 431.679688 130.941406 L 431.832031 131.121094 L 431.972656 131.324219 L 432.105469 131.542969 L 432.222656 131.785156 L 432.324219 132.042969 L 432.414063 132.320313 L 432.488281 132.617188 L 432.550781 132.929688 L 432.601563 133.265625 L 432.636719 133.621094 L 432.65625 133.992188 L 432.664063 134.386719 L 432.65625 134.761719 L 432.632813 135.121094 L 432.59375 135.464844 L 432.542969 135.792969 L 432.476563 136.105469 L 432.394531 136.402344 L 432.296875 136.683594 L 432.183594 136.949219 L 432.054688 137.199219 L 431.914063 137.429688 L 431.761719 137.640625 L 431.597656 137.828125 L 431.421875 137.996094 L 431.238281 138.140625 L 431.042969 138.261719 L 430.835938 138.363281 L 430.617188 138.441406 L 430.390625 138.496094 L 430.152344 138.527344 L 429.902344 138.539063 L 429.785156 138.539063 L 429.667969 138.53125 L 429.550781 138.515625 L 429.4375 138.496094 L 429.328125 138.472656 L 429.21875 138.441406 L 429.113281 138.40625 L 429.011719 138.367188 L 428.90625 138.320313 L 428.808594 138.269531 L 428.710938 138.210938 L 428.613281 138.148438 L 428.433594 138.007813 L 428.347656 137.929688 L 428.261719 137.847656 L 428.179688 137.761719 L 428.101563 137.671875 L 427.953125 137.476563 L 427.863281 138.34375 L 426.664063 138.34375 L 426.664063 127.273438 L 428.011719 127.125 L 428.011719 131.414063 L 428.089844 131.308594 L 428.167969 131.207031 L 428.25 131.113281 L 428.421875 130.933594 L 428.511719 130.855469 L 428.605469 130.777344 L 428.699219 130.703125 L 428.796875 130.636719 L 428.898438 130.574219 L 429.003906 130.515625 L 429.113281 130.460938 L 429.222656 130.414063 L 429.335938 130.375 L 429.449219 130.339844 L 429.566406 130.3125 L 429.683594 130.289063 L 429.804688 130.273438 L 429.925781 130.261719 Z M 429.585938 137.476563 L 429.902344 137.445313 L 430.1875 137.351563 L 430.4375 137.195313 L 430.652344 136.980469 L 430.835938 136.703125 L 430.984375 136.363281 L 431.101563 135.960938 L 431.1875 135.496094 L 431.234375 134.972656 L 431.253906 134.386719 L 431.25 134.0625 L 431.238281 133.757813 L 431.214844 133.472656 L 431.1875 133.210938 L 431.152344 132.964844 L 431.105469 132.738281 L 431.054688 132.53125 L 430.992188 132.34375 L 430.925781 132.179688 L 430.847656 132.03125 L 430.761719 131.894531 L 430.671875 131.777344 L 430.574219 131.671875 L 430.46875 131.578125 L 430.355469 131.5 L 430.238281 131.4375 L 430.113281 131.390625 L 429.980469 131.351563 L 429.839844 131.332031 L 429.691406 131.324219 L 429.589844 131.328125 L 429.488281 131.335938 L 429.386719 131.355469 L 429.292969 131.375 L 429.199219 131.402344 L 429.105469 131.4375 L 429.015625 131.480469 L 428.929688 131.527344 L 428.84375 131.582031 L 428.761719 131.640625 L 428.683594 131.707031 L 428.609375 131.777344 L 428.53125 131.851563 L 428.457031 131.933594 L 428.378906 132.019531 L 428.304688 132.109375 L 428.230469 132.207031 L 428.15625 132.308594 L 428.085938 132.414063 L 428.011719 132.523438 L 428.011719 136.441406 L 428.070313 136.53125 L 428.195313 136.703125 L 428.261719 136.785156 L 428.328125 136.859375 L 428.398438 136.933594 L 428.46875 137.003906 L 428.546875 137.070313 L 428.621094 137.132813 L 428.703125 137.191406 L 428.785156 137.246094 L 428.867188 137.292969 L 428.953125 137.335938 L 429.039063 137.371094 L 429.125 137.402344 L 429.214844 137.429688 L 429.304688 137.449219 L 429.398438 137.464844 L 429.492188 137.472656 Z M 429.585938 137.476563 "/>
<path style=" stroke:none;fill-rule:evenodd;fill:rgb(0%,0%,0%);fill-opacity:1;" d="M 436.128906 138.539063 L 435.988281 138.535156 L 435.851563 138.523438 L 435.722656 138.5 L 435.597656 138.46875 L 435.484375 138.429688 L 435.371094 138.382813 L 435.265625 138.328125 L 435.167969 138.261719 L 435.074219 138.1875 L 434.988281 138.105469 L 434.90625 138.015625 L 434.835938 137.917969 L 434.773438 137.8125 L 434.71875 137.703125 L 434.671875 137.585938 L 434.636719 137.460938 L 434.605469 137.328125 L 434.585938 137.1875 L 434.570313 137.042969 L 434.566406 136.890625 L 434.566406 127.261719 L 435.917969 127.109375 L 435.917969 136.84375 L 435.921875 136.957031 L 435.9375 137.054688 L 435.960938 137.144531 L 435.996094 137.21875 L 436.039063 137.285156 L 436.089844 137.335938 L 436.152344 137.378906 L 436.226563 137.40625 L 436.304688 137.425781 L 436.398438 137.429688 L 436.4375 137.429688 L 436.476563 137.425781 L 436.519531 137.421875 L 436.648438 137.398438 L 436.691406 137.386719 L 436.832031 137.339844 L 437.132813 138.285156 L 436.9375 138.378906 L 436.742188 138.449219 L 436.640625 138.476563 L 436.539063 138.5 L 436.335938 138.53125 L 436.230469 138.539063 Z M 436.128906 138.539063 "/>
<path style=" stroke:none;fill-rule:evenodd;fill:rgb(0%,0%,0%);fill-opacity:1;" d="M 444.136719 134.160156 L 444.136719 134.355469 L 444.132813 134.425781 L 444.128906 134.492188 L 444.125 134.566406 L 444.121094 134.636719 L 444.117188 134.710938 L 444.109375 134.867188 L 439.519531 134.867188 L 439.535156 135.132813 L 439.558594 135.386719 L 439.59375 135.625 L 439.636719 135.847656 L 439.6875 136.054688 L 439.746094 136.246094 L 439.816406 136.421875 L 439.890625 136.582031 L 439.976563 136.730469 L 440.074219 136.859375 L 440.175781 136.972656 L 440.285156 137.078125 L 440.402344 137.167969 L 440.527344 137.246094 L 440.65625 137.308594 L 440.796875 137.363281 L 440.941406 137.40625 L 441.09375 137.4375 L 441.253906 137.453125 L 441.421875 137.460938 L 441.53125 137.457031 L 441.632813 137.453125 L 441.734375 137.445313 L 441.835938 137.433594 L 441.933594 137.417969 L 442.027344 137.402344 L 442.121094 137.378906 L 442.210938 137.355469 L 442.296875 137.328125 L 442.382813 137.296875 L 442.46875 137.261719 L 442.558594 137.222656 L 442.644531 137.175781 L 442.734375 137.128906 L 442.824219 137.078125 L 442.914063 137.023438 L 443.007813 136.960938 L 443.097656 136.898438 L 443.191406 136.828125 L 443.28125 136.753906 L 443.882813 137.550781 L 443.65625 137.738281 L 443.425781 137.90625 L 443.191406 138.054688 L 442.945313 138.183594 L 442.699219 138.292969 L 442.441406 138.382813 L 442.179688 138.449219 L 441.914063 138.5 L 441.640625 138.53125 L 441.363281 138.539063 L 441.058594 138.53125 L 440.773438 138.496094 L 440.496094 138.445313 L 440.238281 138.371094 L 439.988281 138.273438 L 439.757813 138.15625 L 439.539063 138.019531 L 439.332031 137.859375 L 439.140625 137.675781 L 438.960938 137.476563 L 438.804688 137.25 L 438.660156 137.007813 L 438.535156 136.75 L 438.425781 136.472656 L 438.332031 136.179688 L 438.257813 135.871094 L 438.199219 135.542969 L 438.15625 135.199219 L 438.132813 134.839844 L 438.121094 134.460938 L 438.128906 134.082031 L 438.15625 133.71875 L 438.195313 133.371094 L 438.253906 133.042969 L 438.324219 132.726563 L 438.414063 132.429688 L 438.519531 132.148438 L 438.640625 131.882813 L 438.777344 131.632813 L 438.933594 131.398438 L 439.101563 131.183594 L 439.28125 130.988281 L 439.476563 130.820313 L 439.679688 130.671875 L 439.898438 130.546875 L 440.132813 130.441406 L 440.375 130.363281 L 440.632813 130.304688 L 440.902344 130.273438 L 441.183594 130.261719 L 441.460938 130.269531 L 441.726563 130.300781 L 441.976563 130.351563 L 442.21875 130.421875 L 442.441406 130.515625 L 442.65625 130.628906 L 442.855469 130.761719 L 443.039063 130.914063 L 443.214844 131.085938 L 443.371094 131.28125 L 443.519531 131.488281 L 443.648438 131.71875 L 443.761719 131.960938 L 443.863281 132.222656 L 443.945313 132.503906 L 444.015625 132.800781 L 444.070313 133.113281 L 444.105469 133.445313 L 444.128906 133.792969 Z M 442.832031 133.753906 L 442.816406 133.285156 L 442.765625 132.863281 L 442.683594 132.492188 L 442.570313 132.171875 L 442.425781 131.898438 L 442.242188 131.675781 L 442.03125 131.503906 L 441.785156 131.378906 L 441.507813 131.304688 L 441.199219 131.28125 L 441.050781 131.285156 L 440.910156 131.304688 L 440.777344 131.335938 L 440.648438 131.382813 L 440.527344 131.4375 L 440.410156 131.507813 L 440.300781 131.589844 L 440.199219 131.683594 L 440.101563 131.789063 L 440.011719 131.910156 L 439.929688 132.042969 L 439.855469 132.1875 L 439.785156 132.347656 L 439.722656 132.527344 L 439.671875 132.71875 L 439.625 132.929688 L 439.585938 133.152344 L 439.554688 133.394531 L 439.535156 133.648438 L 439.519531 133.921875 L 442.832031 133.921875 Z M 442.832031 133.753906 "/>
<path style=" stroke:none;fill-rule:evenodd;fill:rgb(0%,0%,0%);fill-opacity:1;" d="M 448.050781 130.261719 L 448.324219 130.269531 L 448.585938 130.296875 L 448.84375 130.339844 L 449.097656 130.402344 L 449.34375 130.484375 L 449.582031 130.585938 L 449.816406 130.703125 L 450.042969 130.835938 L 450.265625 130.988281 L 450.484375 131.160156 L 449.914063 131.957031 L 449.816406 131.890625 L 449.722656 131.828125 L 449.628906 131.773438 L 449.539063 131.71875 L 449.359375 131.617188 L 449.269531 131.574219 L 449.183594 131.53125 L 449.011719 131.460938 L 448.929688 131.429688 L 448.757813 131.375 L 448.667969 131.355469 L 448.582031 131.335938 L 448.492188 131.320313 L 448.402344 131.308594 L 448.3125 131.300781 L 448.21875 131.296875 L 448.007813 131.296875 L 447.890625 131.308594 L 447.78125 131.324219 L 447.675781 131.34375 L 447.578125 131.371094 L 447.480469 131.402344 L 447.390625 131.441406 L 447.308594 131.488281 L 447.226563 131.539063 L 447.152344 131.59375 L 447.085938 131.65625 L 447.027344 131.71875 L 446.976563 131.785156 L 446.933594 131.859375 L 446.894531 131.9375 L 446.863281 132.019531 L 446.839844 132.105469 L 446.820313 132.195313 L 446.8125 132.289063 L 446.808594 132.390625 L 446.8125 132.488281 L 446.820313 132.578125 L 446.835938 132.667969 L 446.859375 132.753906 L 446.890625 132.832031 L 446.925781 132.910156 L 446.96875 132.980469 L 447.019531 133.046875 L 447.074219 133.109375 L 447.136719 133.171875 L 447.210938 133.226563 L 447.300781 133.285156 L 447.398438 133.34375 L 447.507813 133.402344 L 447.632813 133.460938 L 447.769531 133.519531 L 447.914063 133.578125 L 448.074219 133.636719 L 448.246094 133.695313 L 448.425781 133.753906 L 448.65625 133.832031 L 448.875 133.910156 L 449.082031 133.996094 L 449.273438 134.082031 L 449.453125 134.171875 L 449.617188 134.265625 L 449.769531 134.359375 L 449.910156 134.460938 L 450.039063 134.5625 L 450.152344 134.671875 L 450.253906 134.78125 L 450.347656 134.902344 L 450.429688 135.03125 L 450.5 135.167969 L 450.558594 135.3125 L 450.605469 135.464844 L 450.644531 135.625 L 450.671875 135.792969 L 450.6875 135.96875 L 450.691406 136.15625 L 450.683594 136.371094 L 450.660156 136.582031 L 450.621094 136.78125 L 450.5625 136.96875 L 450.488281 137.148438 L 450.402344 137.320313 L 450.296875 137.480469 L 450.175781 137.632813 L 450.035156 137.777344 L 449.882813 137.910156 L 449.714844 138.03125 L 449.542969 138.136719 L 449.359375 138.230469 L 449.167969 138.3125 L 448.972656 138.382813 L 448.765625 138.441406 L 448.550781 138.484375 L 448.328125 138.515625 L 448.097656 138.535156 L 447.859375 138.539063 L 447.542969 138.53125 L 447.234375 138.496094 L 446.9375 138.445313 L 446.652344 138.371094 L 446.375 138.273438 L 446.109375 138.15625 L 445.851563 138.019531 L 445.605469 137.859375 L 445.371094 137.675781 L 445.144531 137.476563 L 445.832031 136.726563 L 446.023438 136.871094 L 446.214844 137 L 446.410156 137.117188 L 446.605469 137.214844 L 446.804688 137.300781 L 447.003906 137.367188 L 447.207031 137.421875 L 447.410156 137.460938 L 447.617188 137.484375 L 447.828125 137.492188 L 447.957031 137.488281 L 448.082031 137.476563 L 448.199219 137.460938 L 448.316406 137.4375 L 448.425781 137.40625 L 448.527344 137.371094 L 448.625 137.328125 L 448.71875 137.277344 L 448.808594 137.222656 L 448.894531 137.160156 L 448.96875 137.089844 L 449.039063 137.019531 L 449.097656 136.9375 L 449.152344 136.855469 L 449.195313 136.765625 L 449.234375 136.671875 L 449.261719 136.574219 L 449.28125 136.46875 L 449.292969 136.359375 L 449.296875 136.246094 L 449.296875 136.164063 L 449.292969 136.082031 L 449.285156 136.007813 L 449.261719 135.867188 L 449.242188 135.800781 L 449.222656 135.738281 L 449.203125 135.679688 L 449.175781 135.621094 L 449.148438 135.570313 L 449.085938 135.46875 L 449.046875 135.421875 L 449 135.375 L 448.953125 135.332031 L 448.898438 135.285156 L 448.839844 135.242188 L 448.777344 135.199219 L 448.710938 135.160156 L 448.636719 135.121094 L 448.5625 135.078125 L 448.480469 135.035156 L 448.390625 134.992188 L 448.292969 134.949219 L 448.191406 134.90625 L 448.082031 134.863281 L 447.964844 134.820313 L 447.839844 134.773438 L 447.710938 134.730469 L 447.574219 134.683594 L 447.355469 134.609375 L 447.148438 134.527344 L 446.953125 134.445313 L 446.773438 134.359375 L 446.605469 134.273438 L 446.449219 134.179688 L 446.304688 134.085938 L 446.175781 133.988281 L 446.058594 133.890625 L 445.953125 133.785156 L 445.859375 133.675781 L 445.773438 133.5625 L 445.699219 133.445313 L 445.636719 133.320313 L 445.582031 133.1875 L 445.535156 133.050781 L 445.503906 132.910156 L 445.476563 132.761719 L 445.460938 132.609375 L 445.457031 132.449219 L 445.460938 132.324219 L 445.472656 132.203125 L 445.488281 132.085938 L 445.511719 131.96875 L 445.539063 131.855469 L 445.578125 131.742188 L 445.621094 131.632813 L 445.667969 131.527344 L 445.726563 131.425781 L 445.789063 131.324219 L 445.855469 131.226563 L 445.929688 131.136719 L 446.007813 131.046875 L 446.09375 130.960938 L 446.179688 130.882813 L 446.375 130.734375 L 446.480469 130.667969 L 446.589844 130.605469 L 446.703125 130.546875 L 446.820313 130.492188 L 446.945313 130.441406 L 447.070313 130.398438 L 447.199219 130.363281 L 447.332031 130.332031 L 447.46875 130.304688 L 447.609375 130.285156 L 447.753906 130.273438 L 447.902344 130.261719 Z M 448.050781 130.261719 "/>
<path style="fill-rule:evenodd;fill:rgb(33.72549%,0.392157%,64.313725%);fill-opacity:1;stroke-width:3.200935;stroke-linecap:square;stroke-linejoin:miter;stroke:rgb(100%,100%,100%);stroke-opacity:1;stroke-miterlimit:10;" d="M 397.183594 162.554688 L 410.210938 162.554688 L 410.210938 149.527344 L 397.183594 149.527344 Z M 397.183594 162.554688 "/>
<path style="fill-rule:evenodd;fill:rgb(56.470588%,5.098039%,64.313725%);fill-opacity:1;stroke-width:3.200935;stroke-linecap:square;stroke-linejoin:miter;stroke:rgb(100%,100%,100%);stroke-opacity:1;stroke-miterlimit:10;" d="M 397.183594 179.832031 L 410.210938 179.832031 L 410.210938 166.804688 L 397.183594 166.804688 Z M 397.183594 179.832031 "/>
<path style="fill-rule:evenodd;fill:rgb(88.235294%,39.215686%,38.431373%);fill-opacity:1;stroke-width:3.200935;stroke-linecap:square;stroke-linejoin:miter;stroke:rgb(100%,100%,100%);stroke-opacity:1;stroke-miterlimit:10;" d="M 397.183594 197.113281 L 410.210938 197.113281 L 410.210938 184.085938 L 397.183594 184.085938 Z M 397.183594 197.113281 "/>
<path style="fill-rule:evenodd;fill:rgb(98.823529%,80.784314%,14.509804%);fill-opacity:1;stroke-width:3.200935;stroke-linecap:square;stroke-linejoin:miter;stroke:rgb(100%,100%,100%);stroke-opacity:1;stroke-miterlimit:10;" d="M 397.183594 214.394531 L 410.210938 214.394531 L 410.210938 201.367188 L 397.183594 201.367188 Z M 397.183594 214.394531 "/>
<path style=" stroke:none;fill-rule:evenodd;fill:rgb(0%,0%,0%);fill-opacity:1;" d="M 423.601563 153.699219 L 423.75 153.703125 L 423.890625 153.71875 L 424.023438 153.746094 L 424.152344 153.78125 L 424.273438 153.824219 L 424.386719 153.882813 L 424.496094 153.945313 L 424.597656 154.023438 L 424.691406 154.109375 L 424.777344 154.203125 L 424.859375 154.308594 L 424.933594 154.417969 L 424.996094 154.539063 L 425.054688 154.664063 L 425.101563 154.796875 L 425.140625 154.9375 L 425.171875 155.085938 L 425.191406 155.242188 L 425.207031 155.402344 L 425.210938 155.570313 L 425.210938 160.167969 L 424.128906 160.167969 L 424.128906 155.585938 L 424.121094 155.472656 L 424.109375 155.367188 L 424.09375 155.269531 L 424.074219 155.179688 L 424.050781 155.09375 L 424.023438 155.015625 L 423.992188 154.949219 L 423.953125 154.882813 L 423.914063 154.828125 L 423.871094 154.773438 L 423.824219 154.726563 L 423.773438 154.6875 L 423.71875 154.652344 L 423.660156 154.621094 L 423.59375 154.597656 L 423.527344 154.578125 L 423.457031 154.5625 L 423.382813 154.554688 L 423.300781 154.550781 L 423.144531 154.5625 L 422.992188 154.597656 L 422.839844 154.652344 L 422.691406 154.730469 L 422.546875 154.832031 L 422.402344 154.957031 L 422.261719 155.105469 L 422.125 155.273438 L 421.992188 155.464844 L 421.863281 155.679688 L 421.863281 160.167969 L 420.78125 160.167969 L 420.78125 151.3125 L 421.863281 151.191406 L 421.863281 154.753906 L 422.003906 154.558594 L 422.078125 154.46875 L 422.152344 154.382813 L 422.226563 154.304688 L 422.304688 154.226563 L 422.382813 154.15625 L 422.464844 154.089844 L 422.546875 154.03125 L 422.628906 153.976563 L 422.714844 153.921875 L 422.804688 153.875 L 422.894531 153.835938 L 422.988281 153.800781 L 423.082031 153.769531 L 423.179688 153.742188 L 423.28125 153.722656 L 423.386719 153.710938 L 423.492188 153.703125 Z M 423.601563 153.699219 "/>
<path style=" stroke:none;fill-rule:evenodd;fill:rgb(0%,0%,0%);fill-opacity:1;" d="M 429.335938 153.953125 L 429.335938 155.75 L 430.96875 155.75 L 430.96875 156.640625 L 429.335938 156.640625 L 429.335938 158.429688 L 428.414063 158.429688 L 428.414063 156.640625 L 426.78125 156.640625 L 426.78125 155.75 L 428.414063 155.75 L 428.414063 153.953125 Z M 429.335938 153.953125 "/>
<path style=" stroke:none;fill-rule:evenodd;fill:rgb(0%,0%,0%);fill-opacity:1;" d="M 439.25 153.855469 L 437.953125 160.167969 L 436.585938 160.167969 L 435.554688 154.839844 L 434.535156 160.167969 L 433.164063 160.167969 L 431.84375 153.855469 L 432.914063 153.855469 L 433.898438 159.351563 L 435 153.855469 L 436.164063 153.855469 L 437.234375 159.363281 L 438.230469 153.855469 Z M 439.25 153.855469 "/>
<path style=" stroke:none;fill-rule:evenodd;fill:rgb(0%,0%,0%);fill-opacity:1;" d="M 442.679688 153.953125 L 442.679688 155.75 L 444.3125 155.75 L 444.3125 156.640625 L 442.679688 156.640625 L 442.679688 158.429688 L 441.757813 158.429688 L 441.757813 156.640625 L 440.125 156.640625 L 440.125 155.75 L 441.757813 155.75 L 441.757813 153.953125 Z M 442.679688 153.953125 "/>
<path style=" stroke:none;fill-rule:evenodd;fill:rgb(0%,0%,0%);fill-opacity:1;" d="M 450.566406 154.082031 L 450.457031 154.121094 L 450.335938 154.15625 L 450.207031 154.1875 L 450.0625 154.214844 L 449.910156 154.238281 L 449.742188 154.253906 L 449.566406 154.269531 L 449.378906 154.28125 L 449.179688 154.285156 L 448.96875 154.289063 L 449.160156 154.394531 L 449.332031 154.515625 L 449.484375 154.648438 L 449.613281 154.792969 L 449.726563 154.953125 L 449.816406 155.125 L 449.886719 155.3125 L 449.9375 155.507813 L 449.96875 155.71875 L 449.976563 155.945313 L 449.972656 156.128906 L 449.953125 156.308594 L 449.921875 156.480469 L 449.882813 156.644531 L 449.828125 156.800781 L 449.761719 156.953125 L 449.683594 157.09375 L 449.59375 157.230469 L 449.492188 157.359375 L 449.378906 157.480469 L 449.253906 157.589844 L 449.125 157.6875 L 448.984375 157.773438 L 448.839844 157.847656 L 448.679688 157.910156 L 448.515625 157.964844 L 448.34375 158.003906 L 448.160156 158.03125 L 447.96875 158.050781 L 447.769531 158.054688 L 447.695313 158.054688 L 447.617188 158.050781 L 447.546875 158.046875 L 447.472656 158.035156 L 447.402344 158.027344 L 447.335938 158.011719 L 447.265625 157.996094 L 447.203125 157.980469 L 447.136719 157.957031 L 447.074219 157.9375 L 447.007813 157.984375 L 446.953125 158.035156 L 446.902344 158.089844 L 446.859375 158.148438 L 446.820313 158.207031 L 446.792969 158.269531 L 446.769531 158.335938 L 446.75 158.402344 L 446.742188 158.476563 L 446.738281 158.546875 L 446.746094 158.65625 L 446.769531 158.75 L 446.808594 158.835938 L 446.863281 158.910156 L 446.9375 158.972656 L 447.023438 159.023438 L 447.125 159.0625 L 447.246094 159.089844 L 447.378906 159.105469 L 447.53125 159.113281 L 448.359375 159.113281 L 448.539063 159.117188 L 448.714844 159.132813 L 448.882813 159.15625 L 449.046875 159.1875 L 449.199219 159.230469 L 449.34375 159.285156 L 449.480469 159.347656 L 449.609375 159.417969 L 449.730469 159.5 L 449.84375 159.589844 L 449.949219 159.6875 L 450.042969 159.789063 L 450.128906 159.894531 L 450.199219 160.007813 L 450.257813 160.125 L 450.308594 160.25 L 450.347656 160.375 L 450.375 160.507813 L 450.390625 160.648438 L 450.398438 160.792969 L 450.390625 160.964844 L 450.371094 161.132813 L 450.335938 161.289063 L 450.289063 161.441406 L 450.226563 161.582031 L 450.152344 161.71875 L 450.0625 161.847656 L 449.960938 161.964844 L 449.84375 162.078125 L 449.714844 162.183594 L 449.570313 162.28125 L 449.414063 162.371094 L 449.246094 162.445313 L 449.066406 162.515625 L 448.871094 162.570313 L 448.664063 162.617188 L 448.445313 162.652344 L 448.210938 162.679688 L 447.96875 162.695313 L 447.710938 162.699219 L 447.445313 162.695313 L 447.195313 162.679688 L 446.960938 162.65625 L 446.742188 162.625 L 446.539063 162.582031 L 446.351563 162.53125 L 446.183594 162.46875 L 446.027344 162.398438 L 445.890625 162.320313 L 445.765625 162.230469 L 445.660156 162.132813 L 445.5625 162.023438 L 445.476563 161.90625 L 445.40625 161.777344 L 445.34375 161.640625 L 445.292969 161.492188 L 445.253906 161.335938 L 445.222656 161.167969 L 445.207031 160.992188 L 445.203125 160.804688 L 446.171875 160.804688 L 446.175781 160.882813 L 446.179688 160.957031 L 446.183594 161.027344 L 446.195313 161.09375 L 446.207031 161.15625 L 446.222656 161.21875 L 446.238281 161.277344 L 446.257813 161.328125 L 446.304688 161.429688 L 446.335938 161.472656 L 446.371094 161.519531 L 446.40625 161.558594 L 446.449219 161.597656 L 446.542969 161.667969 L 446.59375 161.699219 L 446.710938 161.753906 L 446.773438 161.777344 L 446.84375 161.796875 L 446.917969 161.820313 L 447 161.835938 L 447.085938 161.851563 L 447.179688 161.867188 L 447.277344 161.875 L 447.378906 161.886719 L 447.488281 161.890625 L 447.601563 161.894531 L 447.886719 161.894531 L 448.042969 161.886719 L 448.191406 161.871094 L 448.328125 161.851563 L 448.453125 161.828125 L 448.570313 161.800781 L 448.679688 161.765625 L 448.777344 161.726563 L 448.867188 161.683594 L 448.945313 161.632813 L 449.015625 161.578125 L 449.078125 161.515625 L 449.136719 161.453125 L 449.183594 161.382813 L 449.222656 161.3125 L 449.257813 161.234375 L 449.285156 161.152344 L 449.300781 161.0625 L 449.3125 160.972656 L 449.316406 160.875 L 449.3125 160.785156 L 449.304688 160.703125 L 449.289063 160.621094 L 449.269531 160.546875 L 449.238281 160.472656 L 449.207031 160.40625 L 449.164063 160.34375 L 449.117188 160.285156 L 449.066406 160.230469 L 449.003906 160.179688 L 448.941406 160.132813 L 448.875 160.09375 L 448.800781 160.058594 L 448.722656 160.027344 L 448.640625 160 L 448.550781 159.976563 L 448.457031 159.960938 L 448.355469 159.949219 L 448.25 159.941406 L 447.433594 159.941406 L 447.273438 159.9375 L 447.121094 159.925781 L 446.972656 159.910156 L 446.839844 159.890625 L 446.710938 159.863281 L 446.589844 159.828125 L 446.480469 159.785156 L 446.378906 159.738281 L 446.285156 159.6875 L 446.199219 159.628906 L 446.121094 159.5625 L 446.050781 159.488281 L 445.988281 159.414063 L 445.9375 159.335938 L 445.890625 159.253906 L 445.855469 159.164063 L 445.828125 159.074219 L 445.804688 158.980469 L 445.792969 158.878906 L 445.789063 158.777344 L 445.796875 158.65625 L 445.816406 158.535156 L 445.847656 158.421875 L 445.894531 158.308594 L 445.953125 158.195313 L 446.027344 158.089844 L 446.113281 157.984375 L 446.210938 157.882813 L 446.324219 157.78125 L 446.449219 157.683594 L 446.351563 157.625 L 446.257813 157.5625 L 446.167969 157.496094 L 446.085938 157.429688 L 446.007813 157.359375 L 445.933594 157.285156 L 445.867188 157.210938 L 445.804688 157.128906 L 445.746094 157.046875 L 445.695313 156.964844 L 445.648438 156.875 L 445.605469 156.777344 L 445.570313 156.679688 L 445.539063 156.578125 L 445.511719 156.476563 L 445.492188 156.367188 L 445.476563 156.253906 L 445.464844 156.136719 L 445.457031 156.019531 L 445.453125 155.894531 L 445.460938 155.703125 L 445.480469 155.515625 L 445.507813 155.339844 L 445.554688 155.171875 L 445.609375 155.007813 L 445.679688 154.851563 L 445.757813 154.707031 L 445.851563 154.566406 L 445.960938 154.4375 L 446.078125 154.3125 L 446.207031 154.199219 L 446.34375 154.097656 L 446.488281 154.003906 L 446.640625 153.929688 L 446.800781 153.863281 L 446.96875 153.808594 L 447.144531 153.765625 L 447.328125 153.734375 L 447.523438 153.71875 L 447.722656 153.710938 L 447.90625 153.710938 L 448.082031 153.707031 L 448.25 153.699219 L 448.410156 153.691406 L 448.5625 153.679688 L 448.703125 153.664063 L 448.835938 153.648438 L 448.960938 153.628906 L 449.078125 153.605469 L 449.1875 153.578125 L 449.292969 153.550781 L 449.503906 153.488281 L 449.613281 153.449219 L 449.71875 153.410156 L 449.828125 153.371094 L 450.046875 153.277344 L 450.15625 153.226563 L 450.265625 153.171875 Z M 447.734375 154.46875 L 447.617188 154.472656 L 447.507813 154.484375 L 447.40625 154.5 L 447.308594 154.527344 L 447.214844 154.5625 L 447.128906 154.601563 L 447.046875 154.648438 L 446.96875 154.707031 L 446.898438 154.769531 L 446.832031 154.839844 L 446.777344 154.914063 L 446.726563 154.996094 L 446.679688 155.085938 L 446.640625 155.179688 L 446.609375 155.285156 L 446.582031 155.394531 L 446.5625 155.507813 L 446.546875 155.628906 L 446.535156 155.761719 L 446.535156 156.027344 L 446.546875 156.152344 L 446.5625 156.273438 L 446.582031 156.386719 L 446.613281 156.496094 L 446.644531 156.597656 L 446.6875 156.695313 L 446.734375 156.785156 L 446.785156 156.871094 L 446.84375 156.953125 L 446.914063 157.023438 L 446.984375 157.085938 L 447.0625 157.140625 L 447.144531 157.191406 L 447.230469 157.230469 L 447.320313 157.265625 L 447.417969 157.289063 L 447.515625 157.308594 L 447.625 157.320313 L 447.734375 157.324219 L 447.960938 157.308594 L 448.160156 157.265625 L 448.339844 157.195313 L 448.492188 157.09375 L 448.625 156.964844 L 448.730469 156.804688 L 448.816406 156.617188 L 448.875 156.402344 L 448.910156 156.15625 L 448.921875 155.882813 L 448.917969 155.746094 L 448.910156 155.617188 L 448.894531 155.496094 L 448.875 155.378906 L 448.847656 155.273438 L 448.8125 155.167969 L 448.773438 155.074219 L 448.730469 154.984375 L 448.679688 154.902344 L 448.621094 154.828125 L 448.558594 154.757813 L 448.488281 154.699219 L 448.414063 154.644531 L 448.335938 154.597656 L 448.25 154.558594 L 448.15625 154.523438 L 448.058594 154.5 L 447.957031 154.480469 L 447.847656 154.472656 Z M 447.734375 154.46875 "/>
<path style=" stroke:none;fill-rule:evenodd;fill:rgb(0%,0%,0%);fill-opacity:1;" d="M 423.601563 170.980469 L 423.75 170.984375 L 423.890625 171 L 424.023438 171.023438 L 424.152344 171.058594 L 424.273438 171.105469 L 424.386719 171.160156 L 424.496094 171.226563 L 424.597656 171.300781 L 424.691406 171.386719 L 424.777344 171.484375 L 424.859375 171.589844 L 424.933594 171.699219 L 424.996094 171.820313 L 425.054688 171.945313 L 425.101563 172.078125 L 425.140625 172.21875 L 425.171875 172.367188 L 425.191406 172.519531 L 425.207031 172.683594 L 425.210938 172.851563 L 425.210938 177.449219 L 424.128906 177.449219 L 424.128906 172.863281 L 424.121094 172.753906 L 424.109375 172.648438 L 424.09375 172.550781 L 424.074219 172.457031 L 424.050781 172.375 L 424.023438 172.296875 L 423.992188 172.226563 L 423.953125 172.164063 L 423.914063 172.109375 L 423.871094 172.054688 L 423.824219 172.007813 L 423.773438 171.96875 L 423.71875 171.929688 L 423.660156 171.902344 L 423.59375 171.875 L 423.527344 171.855469 L 423.457031 171.84375 L 423.382813 171.835938 L 423.300781 171.832031 L 423.144531 171.84375 L 422.992188 171.875 L 422.839844 171.933594 L 422.691406 172.011719 L 422.546875 172.113281 L 422.402344 172.238281 L 422.261719 172.382813 L 422.125 172.554688 L 421.992188 172.746094 L 421.863281 172.960938 L 421.863281 177.449219 L 420.78125 177.449219 L 420.78125 168.589844 L 421.863281 168.472656 L 421.863281 172.035156 L 421.933594 171.933594 L 422.003906 171.839844 L 422.078125 171.75 L 422.152344 171.664063 L 422.226563 171.582031 L 422.304688 171.507813 L 422.382813 171.4375 L 422.464844 171.371094 L 422.628906 171.253906 L 422.714844 171.203125 L 422.804688 171.15625 L 422.894531 171.113281 L 422.988281 171.078125 L 423.082031 171.046875 L 423.179688 171.023438 L 423.28125 171.003906 L 423.386719 170.992188 L 423.492188 170.984375 Z M 423.601563 170.980469 "/>
<path style=" stroke:none;fill-rule:evenodd;fill:rgb(0%,0%,0%);fill-opacity:1;" d="M 429.335938 171.230469 L 429.335938 173.03125 L 430.96875 173.03125 L 430.96875 173.917969 L 429.335938 173.917969 L 429.335938 175.707031 L 428.414063 175.707031 L 428.414063 173.917969 L 426.78125 173.917969 L 426.78125 173.03125 L 428.414063 173.03125 L 428.414063 171.230469 Z M 429.335938 171.230469 "/>
<path style=" stroke:none;fill-rule:evenodd;fill:rgb(0%,0%,0%);fill-opacity:1;" d="M 439.25 171.136719 L 437.953125 177.449219 L 436.585938 177.449219 L 435.554688 172.121094 L 434.535156 177.449219 L 433.164063 177.449219 L 431.84375 171.136719 L 432.914063 171.136719 L 433.898438 176.632813 L 435 171.136719 L 436.164063 171.136719 L 437.234375 176.644531 L 438.230469 171.136719 Z M 439.25 171.136719 "/>
<path style=" stroke:none;fill-rule:evenodd;fill:rgb(0%,0%,0%);fill-opacity:1;" d="M 427.441406 188.414063 L 426.144531 194.726563 L 424.777344 194.726563 L 423.746094 189.398438 L 422.726563 194.726563 L 421.359375 194.726563 L 420.039063 188.414063 L 421.105469 188.414063 L 422.089844 193.910156 L 423.195313 188.414063 L 424.359375 188.414063 L 425.425781 193.921875 L 426.421875 188.414063 Z M 427.441406 188.414063 "/>
<path style=" stroke:none;fill-rule:evenodd;fill:rgb(0%,0%,0%);fill-opacity:1;" d="M 430.875 188.511719 L 430.875 190.3125 L 432.503906 190.3125 L 432.503906 191.199219 L 430.875 191.199219 L 430.875 192.988281 L 429.949219 192.988281 L 429.949219 191.199219 L 428.316406 191.199219 L 428.316406 190.3125 L 429.949219 190.3125 L 429.949219 188.511719 Z M 430.875 188.511719 "/>
<path style=" stroke:none;fill-rule:evenodd;fill:rgb(0%,0%,0%);fill-opacity:1;" d="M 438.757813 188.644531 L 438.648438 188.683594 L 438.527344 188.71875 L 438.398438 188.746094 L 438.253906 188.773438 L 438.101563 188.796875 L 437.933594 188.816406 L 437.757813 188.828125 L 437.570313 188.839844 L 437.371094 188.847656 L 437.160156 188.847656 L 437.351563 188.953125 L 437.523438 189.074219 L 437.675781 189.207031 L 437.808594 189.355469 L 437.917969 189.515625 L 438.007813 189.6875 L 438.078125 189.871094 L 438.128906 190.070313 L 438.160156 190.28125 L 438.167969 190.503906 L 438.164063 190.691406 L 438.144531 190.867188 L 438.117188 191.039063 L 438.074219 191.203125 L 438.019531 191.363281 L 437.953125 191.511719 L 437.875 191.65625 L 437.785156 191.789063 L 437.683594 191.917969 L 437.570313 192.039063 L 437.449219 192.148438 L 437.316406 192.246094 L 437.179688 192.332031 L 437.03125 192.410156 L 436.875 192.472656 L 436.707031 192.523438 L 436.535156 192.5625 L 436.351563 192.59375 L 436.160156 192.609375 L 435.960938 192.617188 L 435.738281 192.605469 L 435.664063 192.597656 L 435.59375 192.585938 L 435.527344 192.574219 L 435.460938 192.558594 L 435.328125 192.519531 L 435.265625 192.496094 L 435.203125 192.546875 L 435.144531 192.597656 L 435.09375 192.652344 L 435.050781 192.707031 L 435.011719 192.769531 L 434.984375 192.832031 L 434.960938 192.894531 L 434.941406 192.964844 L 434.933594 193.035156 L 434.929688 193.109375 L 434.9375 193.214844 L 434.960938 193.3125 L 435 193.394531 L 435.054688 193.46875 L 435.128906 193.53125 L 435.214844 193.582031 L 435.316406 193.621094 L 435.4375 193.648438 L 435.570313 193.667969 L 435.722656 193.671875 L 436.550781 193.671875 L 436.734375 193.675781 L 436.910156 193.691406 L 437.078125 193.714844 L 437.238281 193.75 L 437.390625 193.792969 L 437.535156 193.84375 L 437.671875 193.90625 L 437.800781 193.980469 L 437.921875 194.058594 L 438.039063 194.152344 L 438.140625 194.246094 L 438.234375 194.347656 L 438.320313 194.457031 L 438.390625 194.570313 L 438.453125 194.6875 L 438.5 194.808594 L 438.539063 194.9375 L 438.566406 195.070313 L 438.585938 195.207031 L 438.589844 195.351563 L 438.582031 195.527344 L 438.5625 195.691406 L 438.527344 195.851563 L 438.480469 196 L 438.417969 196.144531 L 438.34375 196.277344 L 438.253906 196.40625 L 438.152344 196.527344 L 438.035156 196.640625 L 437.90625 196.742188 L 437.761719 196.839844 L 437.605469 196.929688 L 437.4375 197.007813 L 437.257813 197.074219 L 437.0625 197.128906 L 436.855469 197.175781 L 436.636719 197.214844 L 436.402344 197.238281 L 436.160156 197.253906 L 435.902344 197.257813 L 435.636719 197.253906 L 435.386719 197.242188 L 435.152344 197.21875 L 434.933594 197.183594 L 434.730469 197.144531 L 434.546875 197.089844 L 434.375 197.03125 L 434.21875 196.960938 L 434.082031 196.878906 L 433.957031 196.792969 L 433.851563 196.691406 L 433.753906 196.585938 L 433.671875 196.464844 L 433.597656 196.339844 L 433.535156 196.199219 L 433.484375 196.054688 L 433.445313 195.894531 L 433.417969 195.726563 L 433.398438 195.550781 L 433.394531 195.363281 L 434.367188 195.363281 L 434.367188 195.441406 L 434.371094 195.515625 L 434.378906 195.585938 L 434.386719 195.652344 L 434.398438 195.71875 L 434.429688 195.835938 L 434.449219 195.890625 L 434.472656 195.941406 L 434.496094 195.988281 L 434.527344 196.035156 L 434.5625 196.078125 L 434.601563 196.121094 L 434.640625 196.160156 L 434.6875 196.195313 L 434.734375 196.226563 L 434.84375 196.289063 L 434.902344 196.3125 L 434.964844 196.335938 L 435.035156 196.359375 L 435.109375 196.378906 L 435.191406 196.398438 L 435.277344 196.414063 L 435.371094 196.425781 L 435.46875 196.4375 L 435.570313 196.445313 L 435.679688 196.449219 L 435.792969 196.453125 L 435.914063 196.457031 L 436.078125 196.453125 L 436.234375 196.445313 L 436.382813 196.433594 L 436.519531 196.414063 L 436.644531 196.390625 L 436.761719 196.359375 L 436.871094 196.328125 L 436.96875 196.285156 L 437.058594 196.242188 L 437.136719 196.191406 L 437.207031 196.136719 L 437.273438 196.078125 L 437.328125 196.011719 L 437.375 195.945313 L 437.417969 195.871094 L 437.449219 195.792969 L 437.476563 195.710938 L 437.496094 195.625 L 437.503906 195.53125 L 437.507813 195.4375 L 437.507813 195.347656 L 437.496094 195.261719 L 437.480469 195.179688 L 437.460938 195.105469 L 437.398438 194.964844 L 437.355469 194.902344 L 437.308594 194.84375 L 437.257813 194.789063 L 437.199219 194.738281 L 437.136719 194.695313 L 437.066406 194.652344 L 436.992188 194.617188 L 436.914063 194.585938 L 436.832031 194.558594 L 436.742188 194.539063 L 436.648438 194.519531 L 436.546875 194.507813 L 436.445313 194.503906 L 436.332031 194.5 L 435.625 194.5 L 435.464844 194.496094 L 435.3125 194.488281 L 435.167969 194.472656 L 435.03125 194.449219 L 434.902344 194.421875 L 434.78125 194.386719 L 434.671875 194.347656 L 434.570313 194.300781 L 434.476563 194.246094 L 434.390625 194.1875 L 434.3125 194.121094 L 434.242188 194.050781 L 434.179688 193.976563 L 434.128906 193.894531 L 434.082031 193.8125 L 434.046875 193.726563 L 434.019531 193.632813 L 433.996094 193.539063 L 433.984375 193.4375 L 433.980469 193.335938 L 433.988281 193.214844 L 434.007813 193.097656 L 434.039063 192.980469 L 434.085938 192.867188 L 434.148438 192.757813 L 434.21875 192.648438 L 434.304688 192.542969 L 434.402344 192.441406 L 434.515625 192.339844 L 434.640625 192.242188 L 434.542969 192.183594 L 434.449219 192.121094 L 434.363281 192.058594 L 434.277344 191.992188 L 434.199219 191.917969 L 434.128906 191.847656 L 434.058594 191.769531 L 433.996094 191.691406 L 433.9375 191.609375 L 433.886719 191.523438 L 433.839844 191.433594 L 433.800781 191.339844 L 433.761719 191.242188 L 433.730469 191.140625 L 433.707031 191.035156 L 433.683594 190.925781 L 433.667969 190.8125 L 433.65625 190.699219 L 433.648438 190.578125 L 433.644531 190.457031 L 433.652344 190.261719 L 433.671875 190.078125 L 433.703125 189.898438 L 433.746094 189.730469 L 433.800781 189.566406 L 433.871094 189.414063 L 433.953125 189.265625 L 434.046875 189.128906 L 434.152344 188.996094 L 434.269531 188.871094 L 434.398438 188.757813 L 434.535156 188.65625 L 434.679688 188.566406 L 434.832031 188.488281 L 434.992188 188.421875 L 435.160156 188.367188 L 435.335938 188.324219 L 435.519531 188.296875 L 435.714844 188.277344 L 435.914063 188.273438 L 436.097656 188.269531 L 436.277344 188.265625 L 436.445313 188.261719 L 436.601563 188.25 L 436.753906 188.238281 L 436.894531 188.222656 L 437.027344 188.207031 L 437.152344 188.1875 L 437.269531 188.164063 L 437.378906 188.140625 L 437.484375 188.113281 L 437.589844 188.082031 L 437.695313 188.046875 L 437.804688 188.011719 L 437.910156 187.972656 L 438.019531 187.929688 L 438.238281 187.835938 L 438.347656 187.785156 L 438.457031 187.730469 Z M 435.925781 189.027344 L 435.8125 189.03125 L 435.703125 189.042969 L 435.597656 189.0625 L 435.5 189.085938 L 435.40625 189.121094 L 435.320313 189.160156 L 435.238281 189.210938 L 435.160156 189.265625 L 435.089844 189.328125 L 435.027344 189.398438 L 434.96875 189.476563 L 434.917969 189.558594 L 434.871094 189.644531 L 434.832031 189.742188 L 434.800781 189.84375 L 434.773438 189.953125 L 434.753906 190.070313 L 434.738281 190.191406 L 434.730469 190.320313 L 434.726563 190.457031 L 434.730469 190.585938 L 434.738281 190.714844 L 434.753906 190.832031 L 434.777344 190.949219 L 434.804688 191.054688 L 434.839844 191.160156 L 434.878906 191.253906 L 434.925781 191.347656 L 434.976563 191.433594 L 435.039063 191.511719 L 435.105469 191.582031 L 435.175781 191.644531 L 435.253906 191.703125 L 435.335938 191.75 L 435.421875 191.789063 L 435.511719 191.824219 L 435.609375 191.851563 L 435.710938 191.867188 L 435.816406 191.878906 L 435.925781 191.882813 L 436.152344 191.871094 L 436.351563 191.824219 L 436.53125 191.753906 L 436.6875 191.652344 L 436.816406 191.523438 L 436.921875 191.367188 L 437.007813 191.179688 L 437.066406 190.960938 L 437.101563 190.71875 L 437.113281 190.445313 L 437.109375 190.308594 L 437.101563 190.179688 L 437.085938 190.054688 L 437.066406 189.941406 L 437.039063 189.832031 L 437.003906 189.730469 L 436.964844 189.632813 L 436.921875 189.546875 L 436.871094 189.464844 L 436.8125 189.386719 L 436.75 189.320313 L 436.683594 189.257813 L 436.609375 189.203125 L 436.527344 189.15625 L 436.441406 189.117188 L 436.351563 189.085938 L 436.253906 189.058594 L 436.148438 189.042969 L 436.039063 189.03125 Z M 435.925781 189.027344 "/>
<path style=" stroke:none;fill-rule:evenodd;fill:rgb(0%,0%,0%);fill-opacity:1;" d="M 422.976563 205.539063 L 423.214844 205.546875 L 423.441406 205.574219 L 423.65625 205.617188 L 423.859375 205.675781 L 424.054688 205.753906 L 424.238281 205.847656 L 424.410156 205.957031 L 424.570313 206.085938 L 424.722656 206.230469 L 424.863281 206.390625 L 424.988281 206.570313 L 425.101563 206.761719 L 425.203125 206.96875 L 425.292969 207.191406 L 425.367188 207.429688 L 425.425781 207.683594 L 425.472656 207.949219 L 425.507813 208.230469 L 425.527344 208.527344 L 425.535156 208.839844 L 425.527344 209.140625 L 425.507813 209.429688 L 425.472656 209.703125 L 425.425781 209.964844 L 425.363281 210.214844 L 425.289063 210.453125 L 425.199219 210.679688 L 425.097656 210.890625 L 424.980469 211.089844 L 424.847656 211.277344 L 424.707031 211.445313 L 424.554688 211.59375 L 424.394531 211.730469 L 424.21875 211.84375 L 424.035156 211.941406 L 423.84375 212.023438 L 423.640625 212.082031 L 423.425781 212.128906 L 423.199219 212.15625 L 422.964844 212.164063 L 422.726563 212.15625 L 422.5 212.128906 L 422.285156 212.085938 L 422.082031 212.023438 L 421.886719 211.945313 L 421.703125 211.847656 L 421.527344 211.734375 L 421.363281 211.601563 L 421.210938 211.453125 L 421.070313 211.289063 L 420.941406 211.105469 L 420.828125 210.910156 L 420.726563 210.699219 L 420.640625 210.476563 L 420.566406 210.242188 L 420.503906 209.992188 L 420.457031 209.726563 L 420.425781 209.449219 L 420.402344 209.15625 L 420.398438 208.851563 L 420.40625 208.542969 L 420.425781 208.25 L 420.460938 207.972656 L 420.507813 207.707031 L 420.570313 207.457031 L 420.644531 207.21875 L 420.734375 206.996094 L 420.835938 206.789063 L 420.953125 206.59375 L 421.082031 206.414063 L 421.222656 206.25 L 421.375 206.101563 L 421.539063 205.96875 L 421.714844 205.855469 L 421.898438 205.757813 L 422.09375 205.679688 L 422.296875 205.617188 L 422.515625 205.574219 L 422.742188 205.546875 Z M 422.976563 206.402344 L 422.839844 206.410156 L 422.707031 206.429688 L 422.582031 206.457031 L 422.464844 206.5 L 422.355469 206.554688 L 422.25 206.621094 L 422.152344 206.699219 L 422.058594 206.789063 L 421.976563 206.890625 L 421.898438 207.003906 L 421.828125 207.128906 L 421.761719 207.265625 L 421.707031 207.417969 L 421.660156 207.582031 L 421.617188 207.757813 L 421.585938 207.953125 L 421.558594 208.15625 L 421.539063 208.375 L 421.527344 208.605469 L 421.527344 208.851563 L 421.539063 209.320313 L 421.582031 209.738281 L 421.65625 210.105469 L 421.757813 210.425781 L 421.886719 210.695313 L 422.042969 210.917969 L 422.230469 211.089844 L 422.445313 211.214844 L 422.691406 211.289063 L 422.964844 211.3125 L 423.238281 211.285156 L 423.484375 211.210938 L 423.699219 211.089844 L 423.886719 210.917969 L 424.046875 210.695313 L 424.175781 210.421875 L 424.277344 210.101563 L 424.347656 209.730469 L 424.390625 209.308594 L 424.40625 208.839844 L 424.402344 208.59375 L 424.390625 208.363281 L 424.375 208.144531 L 424.347656 207.9375 L 424.316406 207.746094 L 424.277344 207.570313 L 424.230469 207.40625 L 424.175781 207.253906 L 424.113281 207.117188 L 424.046875 206.992188 L 423.96875 206.878906 L 423.886719 206.78125 L 423.796875 206.691406 L 423.703125 206.617188 L 423.597656 206.550781 L 423.488281 206.496094 L 423.371094 206.457031 L 423.246094 206.425781 L 423.117188 206.410156 Z M 422.976563 206.402344 "/>
<path style=" stroke:none;fill-rule:evenodd;fill:rgb(0%,0%,0%);fill-opacity:1;" d="M 430.082031 211.730469 L 429.960938 211.8125 L 429.835938 211.886719 L 429.710938 211.953125 L 429.582031 212.007813 L 429.449219 212.054688 L 429.3125 212.09375 L 429.175781 212.125 L 429.035156 212.144531 L 428.894531 212.160156 L 428.75 212.164063 L 428.597656 212.160156 L 428.457031 212.144531 L 428.320313 212.125 L 428.191406 212.09375 L 428.070313 212.054688 L 427.953125 212.003906 L 427.84375 211.945313 L 427.742188 211.878906 L 427.648438 211.804688 L 427.5625 211.71875 L 427.484375 211.628906 L 427.414063 211.527344 L 427.351563 211.421875 L 427.300781 211.308594 L 427.253906 211.1875 L 427.21875 211.058594 L 427.191406 210.921875 L 427.167969 210.777344 L 427.15625 210.628906 L 427.152344 210.472656 L 427.152344 206.511719 L 426.253906 206.511719 L 426.253906 205.695313 L 427.152344 205.695313 L 427.152344 204.242188 L 428.234375 204.113281 L 428.234375 205.695313 L 429.625 205.695313 L 429.503906 206.511719 L 428.234375 206.511719 L 428.234375 210.460938 L 428.242188 210.613281 L 428.261719 210.753906 L 428.296875 210.875 L 428.34375 210.980469 L 428.40625 211.070313 L 428.480469 211.144531 L 428.570313 211.203125 L 428.671875 211.242188 L 428.789063 211.269531 L 428.917969 211.277344 L 428.957031 211.273438 L 428.996094 211.273438 L 429.113281 211.261719 L 429.183594 211.246094 L 429.222656 211.238281 L 429.253906 211.226563 L 429.324219 211.203125 L 429.363281 211.1875 L 429.402344 211.175781 L 429.4375 211.15625 L 429.480469 211.140625 L 429.558594 211.101563 L 429.601563 211.082031 L 429.6875 211.035156 Z M 430.082031 211.730469 "/>
<path style=" stroke:none;fill-rule:evenodd;fill:rgb(0%,0%,0%);fill-opacity:1;" d="M 433.835938 205.539063 L 433.984375 205.542969 L 434.125 205.558594 L 434.261719 205.585938 L 434.386719 205.621094 L 434.507813 205.664063 L 434.625 205.722656 L 434.730469 205.785156 L 434.832031 205.863281 L 434.925781 205.949219 L 435.011719 206.042969 L 435.09375 206.148438 L 435.167969 206.257813 L 435.234375 206.378906 L 435.289063 206.503906 L 435.335938 206.636719 L 435.375 206.777344 L 435.40625 206.925781 L 435.429688 207.082031 L 435.441406 207.242188 L 435.445313 207.410156 L 435.445313 212.007813 L 434.367188 212.007813 L 434.367188 207.542969 L 434.363281 207.425781 L 434.355469 207.3125 L 434.347656 207.207031 L 434.332031 207.109375 L 434.3125 207.019531 L 434.289063 206.933594 L 434.257813 206.859375 L 434.226563 206.789063 L 434.191406 206.722656 L 434.148438 206.667969 L 434.105469 206.617188 L 434.058594 206.570313 L 434.007813 206.527344 L 433.953125 206.492188 L 433.894531 206.460938 L 433.832031 206.4375 L 433.765625 206.417969 L 433.691406 206.402344 L 433.617188 206.394531 L 433.539063 206.390625 L 433.378906 206.402344 L 433.226563 206.4375 L 433.074219 206.492188 L 432.925781 206.570313 L 432.78125 206.671875 L 432.640625 206.796875 L 432.5 206.945313 L 432.363281 207.113281 L 432.230469 207.304688 L 432.097656 207.519531 L 432.097656 212.007813 L 431.015625 212.007813 L 431.015625 203.152344 L 432.097656 203.03125 L 432.097656 206.597656 L 432.167969 206.496094 L 432.238281 206.398438 L 432.3125 206.308594 L 432.386719 206.222656 L 432.542969 206.066406 L 432.621094 205.996094 L 432.699219 205.929688 L 432.78125 205.871094 L 432.867188 205.816406 L 432.949219 205.761719 L 433.039063 205.714844 L 433.128906 205.675781 L 433.222656 205.640625 L 433.320313 205.609375 L 433.417969 205.582031 L 433.621094 205.550781 L 433.726563 205.542969 Z M 433.835938 205.539063 "/>
<path style=" stroke:none;fill-rule:evenodd;fill:rgb(0%,0%,0%);fill-opacity:1;" d="M 441.769531 208.660156 L 441.769531 208.761719 L 441.765625 208.816406 L 441.765625 208.871094 L 441.761719 208.925781 L 441.761719 208.984375 L 441.75 209.160156 L 441.746094 209.222656 L 438.074219 209.222656 L 438.085938 209.4375 L 438.105469 209.640625 L 438.132813 209.832031 L 438.167969 210.007813 L 438.207031 210.175781 L 438.257813 210.328125 L 438.3125 210.46875 L 438.375 210.597656 L 438.441406 210.714844 L 438.515625 210.820313 L 438.601563 210.910156 L 438.6875 210.992188 L 438.78125 211.066406 L 438.878906 211.125 L 438.984375 211.179688 L 439.097656 211.222656 L 439.214844 211.257813 L 439.335938 211.28125 L 439.464844 211.296875 L 439.597656 211.300781 L 439.683594 211.296875 L 439.847656 211.289063 L 439.929688 211.277344 L 440.003906 211.265625 L 440.082031 211.253906 L 440.15625 211.234375 L 440.226563 211.214844 L 440.367188 211.167969 L 440.433594 211.140625 L 440.503906 211.109375 L 440.578125 211.074219 L 440.648438 211.035156 L 440.71875 210.992188 L 440.792969 210.949219 L 440.863281 210.902344 L 441.011719 210.792969 L 441.085938 210.734375 L 441.566406 211.371094 L 441.386719 211.523438 L 441.199219 211.65625 L 441.011719 211.777344 L 440.816406 211.878906 L 440.617188 211.964844 L 440.414063 212.035156 L 440.203125 212.09375 L 439.992188 212.132813 L 439.773438 212.15625 L 439.550781 212.164063 L 439.308594 212.15625 L 439.078125 212.128906 L 438.859375 212.085938 L 438.648438 212.027344 L 438.453125 211.949219 L 438.265625 211.855469 L 438.089844 211.746094 L 437.925781 211.617188 L 437.773438 211.472656 L 437.628906 211.3125 L 437.5 211.132813 L 437.386719 210.9375 L 437.285156 210.730469 L 437.199219 210.511719 L 437.125 210.277344 L 437.066406 210.027344 L 437.019531 209.765625 L 436.984375 209.492188 L 436.964844 209.203125 L 436.957031 208.898438 L 436.964844 208.597656 L 436.984375 208.304688 L 437.015625 208.027344 L 437.0625 207.765625 L 437.121094 207.515625 L 437.191406 207.277344 L 437.273438 207.050781 L 437.371094 206.835938 L 437.484375 206.636719 L 437.605469 206.453125 L 437.738281 206.277344 L 437.886719 206.125 L 438.039063 205.988281 L 438.203125 205.867188 L 438.378906 205.769531 L 438.566406 205.6875 L 438.757813 205.621094 L 438.964844 205.578125 L 439.179688 205.550781 L 439.40625 205.539063 L 439.628906 205.546875 L 439.839844 205.574219 L 440.042969 205.613281 L 440.234375 205.671875 L 440.414063 205.742188 L 440.582031 205.832031 L 440.742188 205.941406 L 440.890625 206.0625 L 441.03125 206.199219 L 441.15625 206.355469 L 441.273438 206.523438 L 441.378906 206.707031 L 441.46875 206.902344 L 441.550781 207.109375 L 441.617188 207.332031 L 441.671875 207.570313 L 441.714844 207.824219 L 441.746094 208.085938 L 441.761719 208.367188 Z M 440.726563 208.335938 L 440.710938 207.960938 L 440.671875 207.621094 L 440.609375 207.324219 L 440.515625 207.070313 L 440.398438 206.851563 L 440.253906 206.671875 L 440.085938 206.535156 L 439.886719 206.433594 L 439.667969 206.375 L 439.417969 206.355469 L 439.300781 206.359375 L 439.1875 206.375 L 439.082031 206.402344 L 438.976563 206.4375 L 438.878906 206.480469 L 438.789063 206.539063 L 438.699219 206.601563 L 438.617188 206.679688 L 438.542969 206.765625 L 438.46875 206.859375 L 438.402344 206.964844 L 438.34375 207.082031 L 438.289063 207.210938 L 438.238281 207.351563 L 438.195313 207.507813 L 438.160156 207.675781 L 438.128906 207.855469 L 438.105469 208.046875 L 438.085938 208.25 L 438.074219 208.46875 L 440.726563 208.46875 Z M 440.726563 208.335938 "/>
<path style=" stroke:none;fill-rule:evenodd;fill:rgb(0%,0%,0%);fill-opacity:1;" d="M 445.863281 205.550781 L 445.921875 205.550781 L 445.984375 205.554688 L 446.042969 205.558594 L 446.097656 205.5625 L 446.207031 205.578125 L 446.257813 205.585938 L 446.308594 205.597656 L 446.355469 205.609375 L 446.402344 205.625 L 446.222656 206.667969 L 446.175781 206.652344 L 446.128906 206.640625 L 446.082031 206.632813 L 446.035156 206.621094 L 445.933594 206.605469 L 445.832031 206.597656 L 445.730469 206.597656 L 445.625 206.601563 L 445.527344 206.613281 L 445.429688 206.632813 L 445.339844 206.664063 L 445.25 206.699219 L 445.164063 206.746094 L 445.085938 206.800781 L 445.007813 206.863281 L 444.933594 206.9375 L 444.867188 207.015625 L 444.800781 207.105469 L 444.742188 207.203125 L 444.683594 207.308594 L 444.628906 207.421875 L 444.574219 207.546875 L 444.523438 207.679688 L 444.476563 207.820313 L 444.433594 207.972656 L 444.390625 208.132813 L 444.347656 208.300781 L 444.347656 212.007813 L 443.269531 212.007813 L 443.269531 205.695313 L 444.207031 205.695313 L 444.289063 206.945313 L 444.390625 206.679688 L 444.503906 206.441406 L 444.628906 206.234375 L 444.765625 206.054688 L 444.917969 205.898438 L 445.082031 205.773438 L 445.257813 205.675781 L 445.445313 205.609375 L 445.648438 205.566406 Z M 445.863281 205.550781 "/>
</g>
</svg>
