<?xml version="1.0" encoding="UTF-8"?>
<svg xmlns="http://www.w3.org/2000/svg" xmlns:xlink="http://www.w3.org/1999/xlink" width="612pt" height="324pt" viewBox="0 0 612 324" version="1.1">
<defs>
<clipPath id="clip1">
  <path d="M 124 28.347656 L 128 28.347656 L 128 246.957031 L 124 246.957031 Z M 124 28.347656 "/>
</clipPath>
<clipPath id="clip2">
  <path d="M 146 28.347656 L 150 28.347656 L 150 246.957031 L 146 246.957031 Z M 146 28.347656 "/>
</clipPath>
<clipPath id="clip3">
  <path d="M 168 28.347656 L 172 28.347656 L 172 246.957031 L 168 246.957031 Z M 168 28.347656 "/>
</clipPath>
<clipPath id="clip4">
  <path d="M 190 28.347656 L 195 28.347656 L 195 246.957031 L 190 246.957031 Z M 190 28.347656 "/>
</clipPath>
<clipPath id="clip5">
  <path d="M 213 28.347656 L 217 28.347656 L 217 246.957031 L 213 246.957031 Z M 213 28.347656 "/>
</clipPath>
<clipPath id="clip6">
  <path d="M 235 28.347656 L 239 28.347656 L 239 246.957031 L 235 246.957031 Z M 235 28.347656 "/>
</clipPath>
</defs>
<g id="surface94">
<rect x="0" y="0" width="612" height="324" style="fill:rgb(100%,100%,100%);fill-opacity:1;stroke:none;"/>
<g clip-path="url(#clip1)" clip-rule="nonzero">
<path style="fill:none;stroke-width:3.200935;stroke-linecap:butt;stroke-linejoin:round;stroke:rgb(66.27451%,66.27451%,66.27451%);stroke-opacity:1;stroke-dasharray:12.80374,12.80374;stroke-miterlimit:10;" d="M 126.113281 246.957031 L 126.113281 28.347656 "/>
</g>
<g clip-path="url(#clip2)" clip-rule="nonzero">
<path style="fill:none;stroke-width:3.200935;stroke-linecap:butt;stroke-linejoin:round;stroke:rgb(66.27451%,66.27451%,66.27451%);stroke-opacity:1;stroke-dasharray:12.80374,12.80374;stroke-miterlimit:10;" d="M 148.242188 246.957031 L 148.242188 28.347656 "/>
</g>
<g clip-path="url(#clip3)" clip-rule="nonzero">
<path style="fill:none;stroke-width:3.200935;stroke-linecap:butt;stroke-linejoin:round;stroke:rgb(66.27451%,66.27451%,66.27451%);stroke-opacity:1;stroke-dasharray:12.80374,12.80374;stroke-miterlimit:10;" d="M 170.367188 246.957031 L 170.367188 28.347656 "/>
</g>
<g clip-path="url(#clip4)" clip-rule="nonzero">
<path style="fill:none;stroke-width:3.200935;stroke-linecap:butt;stroke-linejoin:round;stroke:rgb(66.27451%,66.27451%,66.27451%);stroke-opacity:1;stroke-dasharray:12.80374,12.80374;stroke-miterlimit:10;" d="M 192.496094 246.957031 L 192.496094 28.347656 "/>
</g>
<g clip-path="url(#clip5)" clip-rule="nonzero">
<path style="fill:none;stroke-width:3.200935;stroke-linecap:butt;stroke-linejoin:round;stroke:rgb(66.27451%,66.27451%,66.27451%);stroke-opacity:1;stroke-dasharray:12.80374,12.80374;stroke-miterlimit:10;" d="M 214.621094 246.957031 L 214.621094 28.347656 "/>
</g>
<g clip-path="url(#clip6)" clip-rule="nonzero">
<path style="fill:none;stroke-width:3.200935;stroke-linecap:butt;stroke-linejoin:round;stroke:rgb(66.27451%,66.27451%,66.27451%);stroke-opacity:1;stroke-dasharray:12.80374,12.80374;stroke-miterlimit:10;" d="M 236.75 246.957031 L 236.75 28.347656 "/>
</g>
<path style="fill-rule:nonzero;fill:rgb(5.098039%,3.137255%,52.941176%);fill-opacity:0.6;stroke-width:0.708661;stroke-linecap:round;stroke-linejoin:round;stroke:rgb(5.098039%,3.137255%,52.941176%);stroke-opacity:1;stroke-miterlimit:10;" d="M 112.105469 201.789063 L 116.558594 197.332031 L 112.105469 192.875 L 107.648438 197.332031 Z M 112.105469 201.789063 "/>
<path style="fill-rule:nonzero;fill:rgb(5.098039%,3.137255%,52.941176%);fill-opacity:0.6;stroke-width:0.708661;stroke-linecap:round;stroke-linejoin:round;stroke:rgb(5.098039%,3.137255%,52.941176%);stroke-opacity:1;stroke-miterlimit:10;" d="M 113.988281 241.476563 L 118.445313 237.019531 L 113.988281 232.5625 L 109.535156 237.019531 Z M 113.988281 241.476563 "/>
<path style="fill-rule:nonzero;fill:rgb(5.098039%,3.137255%,52.941176%);fill-opacity:0.6;stroke-width:0.708661;stroke-linecap:round;stroke-linejoin:round;stroke:rgb(5.098039%,3.137255%,52.941176%);stroke-opacity:1;stroke-miterlimit:10;" d="M 90.058594 227.964844 L 94.515625 223.507813 L 90.058594 219.050781 L 85.601563 223.507813 Z M 90.058594 227.964844 "/>
<path style="fill-rule:nonzero;fill:rgb(33.72549%,0.392157%,64.313725%);fill-opacity:0.6;stroke-width:0.708661;stroke-linecap:round;stroke-linejoin:round;stroke:rgb(33.72549%,0.392157%,64.313725%);stroke-opacity:1;stroke-miterlimit:10;" d="M 127.777344 167.269531 L 132.234375 162.8125 L 127.777344 158.355469 L 123.320313 162.8125 Z M 127.777344 167.269531 "/>
<path style="fill-rule:nonzero;fill:rgb(33.72549%,0.392157%,64.313725%);fill-opacity:0.6;stroke-width:0.708661;stroke-linecap:round;stroke-linejoin:round;stroke:rgb(33.72549%,0.392157%,64.313725%);stroke-opacity:1;stroke-miterlimit:10;" d="M 132.441406 212.730469 L 136.898438 208.273438 L 132.441406 203.820313 L 127.988281 208.273438 Z M 132.441406 212.730469 "/>
<path style="fill-rule:nonzero;fill:rgb(33.72549%,0.392157%,64.313725%);fill-opacity:0.6;stroke-width:0.708661;stroke-linecap:round;stroke-linejoin:round;stroke:rgb(33.72549%,0.392157%,64.313725%);stroke-opacity:1;stroke-miterlimit:10;" d="M 133.160156 155.039063 L 137.613281 150.585938 L 133.160156 146.128906 L 128.703125 150.585938 Z M 133.160156 155.039063 "/>
<path style="fill-rule:nonzero;fill:rgb(33.72549%,0.392157%,64.313725%);fill-opacity:0.6;stroke-width:0.708661;stroke-linecap:round;stroke-linejoin:round;stroke:rgb(33.72549%,0.392157%,64.313725%);stroke-opacity:1;stroke-miterlimit:10;" d="M 141.136719 162.957031 L 145.59375 158.5 L 141.136719 154.046875 L 136.679688 158.5 Z M 141.136719 162.957031 "/>
<path style="fill-rule:nonzero;fill:rgb(33.72549%,0.392157%,64.313725%);fill-opacity:0.6;stroke-width:0.708661;stroke-linecap:round;stroke-linejoin:round;stroke:rgb(33.72549%,0.392157%,64.313725%);stroke-opacity:1;stroke-miterlimit:10;" d="M 139.0625 220.324219 L 143.515625 215.867188 L 139.0625 211.414063 L 134.605469 215.867188 Z M 139.0625 220.324219 "/>
<path style="fill-rule:nonzero;fill:rgb(33.72549%,0.392157%,64.313725%);fill-opacity:0.6;stroke-width:0.708661;stroke-linecap:round;stroke-linejoin:round;stroke:rgb(33.72549%,0.392157%,64.313725%);stroke-opacity:1;stroke-miterlimit:10;" d="M 135.621094 147.050781 L 140.078125 142.59375 L 135.621094 138.136719 L 131.164063 142.59375 Z M 135.621094 147.050781 "/>
<path style="fill-rule:nonzero;fill:rgb(33.72549%,0.392157%,64.313725%);fill-opacity:0.6;stroke-width:0.708661;stroke-linecap:round;stroke-linejoin:round;stroke:rgb(33.72549%,0.392157%,64.313725%);stroke-opacity:1;stroke-miterlimit:10;" d="M 139.066406 226.378906 L 143.523438 221.921875 L 139.066406 217.464844 L 134.609375 221.921875 Z M 139.066406 226.378906 "/>
<path style="fill-rule:nonzero;fill:rgb(33.72549%,0.392157%,64.313725%);fill-opacity:0.6;stroke-width:0.708661;stroke-linecap:round;stroke-linejoin:round;stroke:rgb(33.72549%,0.392157%,64.313725%);stroke-opacity:1;stroke-miterlimit:10;" d="M 136.664063 192.117188 L 141.121094 187.660156 L 136.664063 183.207031 L 132.207031 187.660156 Z M 136.664063 192.117188 "/>
<path style="fill-rule:nonzero;fill:rgb(56.470588%,5.098039%,64.313725%);fill-opacity:0.6;stroke-width:0.708661;stroke-linecap:round;stroke-linejoin:round;stroke:rgb(56.470588%,5.098039%,64.313725%);stroke-opacity:1;stroke-miterlimit:10;" d="M 161.5625 130.28125 L 166.019531 125.828125 L 161.5625 121.371094 L 157.109375 125.828125 Z M 161.5625 130.28125 "/>
<path style="fill-rule:nonzero;fill:rgb(56.470588%,5.098039%,64.313725%);fill-opacity:0.6;stroke-width:0.708661;stroke-linecap:round;stroke-linejoin:round;stroke:rgb(56.470588%,5.098039%,64.313725%);stroke-opacity:1;stroke-miterlimit:10;" d="M 158.714844 172.046875 L 163.167969 167.59375 L 158.714844 163.136719 L 154.257813 167.59375 Z M 158.714844 172.046875 "/>
<path style="fill-rule:nonzero;fill:rgb(56.470588%,5.098039%,64.313725%);fill-opacity:0.6;stroke-width:0.708661;stroke-linecap:round;stroke-linejoin:round;stroke:rgb(56.470588%,5.098039%,64.313725%);stroke-opacity:1;stroke-miterlimit:10;" d="M 151.640625 148.859375 L 156.097656 144.402344 L 151.640625 139.945313 L 147.183594 144.402344 Z M 151.640625 148.859375 "/>
<path style="fill-rule:nonzero;fill:rgb(56.470588%,5.098039%,64.313725%);fill-opacity:0.6;stroke-width:0.708661;stroke-linecap:round;stroke-linejoin:round;stroke:rgb(56.470588%,5.098039%,64.313725%);stroke-opacity:1;stroke-miterlimit:10;" d="M 161.898438 172.621094 L 166.355469 168.164063 L 161.898438 163.710938 L 157.445313 168.164063 Z M 161.898438 172.621094 "/>
<path style="fill-rule:nonzero;fill:rgb(56.470588%,5.098039%,64.313725%);fill-opacity:0.6;stroke-width:0.708661;stroke-linecap:round;stroke-linejoin:round;stroke:rgb(56.470588%,5.098039%,64.313725%);stroke-opacity:1;stroke-miterlimit:10;" d="M 167.492188 192.816406 L 171.949219 188.359375 L 167.492188 183.90625 L 163.035156 188.359375 Z M 167.492188 192.816406 "/>
<path style="fill-rule:nonzero;fill:rgb(56.470588%,5.098039%,64.313725%);fill-opacity:0.6;stroke-width:0.708661;stroke-linecap:round;stroke-linejoin:round;stroke:rgb(56.470588%,5.098039%,64.313725%);stroke-opacity:1;stroke-miterlimit:10;" d="M 162.652344 158.597656 L 167.109375 154.140625 L 162.652344 149.683594 L 158.199219 154.140625 Z M 162.652344 158.597656 "/>
<path style="fill-rule:nonzero;fill:rgb(56.470588%,5.098039%,64.313725%);fill-opacity:0.6;stroke-width:0.708661;stroke-linecap:round;stroke-linejoin:round;stroke:rgb(56.470588%,5.098039%,64.313725%);stroke-opacity:1;stroke-miterlimit:10;" d="M 161.429688 205.273438 L 165.886719 200.816406 L 161.429688 196.359375 L 156.972656 200.816406 Z M 161.429688 205.273438 "/>
<path style="fill-rule:nonzero;fill:rgb(56.470588%,5.098039%,64.313725%);fill-opacity:0.6;stroke-width:0.708661;stroke-linecap:round;stroke-linejoin:round;stroke:rgb(56.470588%,5.098039%,64.313725%);stroke-opacity:1;stroke-miterlimit:10;" d="M 167.269531 144.597656 L 171.726563 140.140625 L 167.269531 135.683594 L 162.816406 140.140625 Z M 167.269531 144.597656 "/>
<path style="fill-rule:nonzero;fill:rgb(56.470588%,5.098039%,64.313725%);fill-opacity:0.6;stroke-width:0.708661;stroke-linecap:round;stroke-linejoin:round;stroke:rgb(56.470588%,5.098039%,64.313725%);stroke-opacity:1;stroke-miterlimit:10;" d="M 160.207031 204.667969 L 164.660156 200.210938 L 160.207031 195.753906 L 155.75 200.210938 Z M 160.207031 204.667969 "/>
<path style="fill-rule:nonzero;fill:rgb(56.470588%,5.098039%,64.313725%);fill-opacity:0.6;stroke-width:0.708661;stroke-linecap:round;stroke-linejoin:round;stroke:rgb(56.470588%,5.098039%,64.313725%);stroke-opacity:1;stroke-miterlimit:10;" d="M 156.945313 154.589844 L 161.402344 150.136719 L 156.945313 145.679688 L 152.488281 150.136719 Z M 156.945313 154.589844 "/>
<path style="fill-rule:nonzero;fill:rgb(56.470588%,5.098039%,64.313725%);fill-opacity:0.6;stroke-width:0.708661;stroke-linecap:round;stroke-linejoin:round;stroke:rgb(56.470588%,5.098039%,64.313725%);stroke-opacity:1;stroke-miterlimit:10;" d="M 169.457031 176.355469 L 173.910156 171.898438 L 169.457031 167.441406 L 165 171.898438 Z M 169.457031 176.355469 "/>
<path style="fill-rule:nonzero;fill:rgb(56.470588%,5.098039%,64.313725%);fill-opacity:0.6;stroke-width:0.708661;stroke-linecap:round;stroke-linejoin:round;stroke:rgb(56.470588%,5.098039%,64.313725%);stroke-opacity:1;stroke-miterlimit:10;" d="M 149.101563 205.882813 L 153.558594 201.425781 L 149.101563 196.96875 L 144.644531 201.425781 Z M 149.101563 205.882813 "/>
<path style="fill-rule:nonzero;fill:rgb(56.470588%,5.098039%,64.313725%);fill-opacity:0.6;stroke-width:0.708661;stroke-linecap:round;stroke-linejoin:round;stroke:rgb(56.470588%,5.098039%,64.313725%);stroke-opacity:1;stroke-miterlimit:10;" d="M 155.363281 138.828125 L 159.820313 134.371094 L 155.363281 129.917969 L 150.90625 134.371094 Z M 155.363281 138.828125 "/>
<path style="fill-rule:nonzero;fill:rgb(56.470588%,5.098039%,64.313725%);fill-opacity:0.6;stroke-width:0.708661;stroke-linecap:round;stroke-linejoin:round;stroke:rgb(56.470588%,5.098039%,64.313725%);stroke-opacity:1;stroke-miterlimit:10;" d="M 162.71875 195.304688 L 167.175781 190.847656 L 162.71875 186.390625 L 158.265625 190.847656 Z M 162.71875 195.304688 "/>
<path style="fill-rule:nonzero;fill:rgb(74.901961%,22.352941%,51.764706%);fill-opacity:0.6;stroke-width:0.708661;stroke-linecap:round;stroke-linejoin:round;stroke:rgb(74.901961%,22.352941%,51.764706%);stroke-opacity:1;stroke-miterlimit:10;" d="M 189.847656 150.375 L 194.300781 145.917969 L 189.847656 141.460938 L 185.390625 145.917969 Z M 189.847656 150.375 "/>
<path style="fill-rule:nonzero;fill:rgb(74.901961%,22.352941%,51.764706%);fill-opacity:0.6;stroke-width:0.708661;stroke-linecap:round;stroke-linejoin:round;stroke:rgb(74.901961%,22.352941%,51.764706%);stroke-opacity:1;stroke-miterlimit:10;" d="M 186.175781 148.5625 L 190.632813 144.105469 L 186.175781 139.648438 L 181.722656 144.105469 Z M 186.175781 148.5625 "/>
<path style="fill-rule:nonzero;fill:rgb(74.901961%,22.352941%,51.764706%);fill-opacity:0.6;stroke-width:0.708661;stroke-linecap:round;stroke-linejoin:round;stroke:rgb(74.901961%,22.352941%,51.764706%);stroke-opacity:1;stroke-miterlimit:10;" d="M 191.4375 121.835938 L 195.894531 117.382813 L 191.4375 112.925781 L 186.980469 117.382813 Z M 191.4375 121.835938 "/>
<path style="fill-rule:nonzero;fill:rgb(74.901961%,22.352941%,51.764706%);fill-opacity:0.6;stroke-width:0.708661;stroke-linecap:round;stroke-linejoin:round;stroke:rgb(74.901961%,22.352941%,51.764706%);stroke-opacity:1;stroke-miterlimit:10;" d="M 188.402344 122.542969 L 192.859375 118.085938 L 188.402344 113.632813 L 183.949219 118.085938 Z M 188.402344 122.542969 "/>
<path style="fill-rule:nonzero;fill:rgb(74.901961%,22.352941%,51.764706%);fill-opacity:0.6;stroke-width:0.708661;stroke-linecap:round;stroke-linejoin:round;stroke:rgb(74.901961%,22.352941%,51.764706%);stroke-opacity:1;stroke-miterlimit:10;" d="M 175.578125 149.613281 L 180.035156 145.15625 L 175.578125 140.699219 L 171.125 145.15625 Z M 175.578125 149.613281 "/>
<path style="fill-rule:nonzero;fill:rgb(74.901961%,22.352941%,51.764706%);fill-opacity:0.6;stroke-width:0.708661;stroke-linecap:round;stroke-linejoin:round;stroke:rgb(74.901961%,22.352941%,51.764706%);stroke-opacity:1;stroke-miterlimit:10;" d="M 182.496094 127.867188 L 186.953125 123.410156 L 182.496094 118.953125 L 178.039063 123.410156 Z M 182.496094 127.867188 "/>
<path style="fill-rule:nonzero;fill:rgb(74.901961%,22.352941%,51.764706%);fill-opacity:0.6;stroke-width:0.708661;stroke-linecap:round;stroke-linejoin:round;stroke:rgb(74.901961%,22.352941%,51.764706%);stroke-opacity:1;stroke-miterlimit:10;" d="M 180.964844 142.703125 L 185.421875 138.246094 L 180.964844 133.792969 L 176.511719 138.246094 Z M 180.964844 142.703125 "/>
<path style="fill-rule:nonzero;fill:rgb(74.901961%,22.352941%,51.764706%);fill-opacity:0.6;stroke-width:0.708661;stroke-linecap:round;stroke-linejoin:round;stroke:rgb(74.901961%,22.352941%,51.764706%);stroke-opacity:1;stroke-miterlimit:10;" d="M 179.796875 138.078125 L 184.25 133.621094 L 179.796875 129.164063 L 175.339844 133.621094 Z M 179.796875 138.078125 "/>
<path style="fill-rule:nonzero;fill:rgb(74.901961%,22.352941%,51.764706%);fill-opacity:0.6;stroke-width:0.708661;stroke-linecap:round;stroke-linejoin:round;stroke:rgb(74.901961%,22.352941%,51.764706%);stroke-opacity:1;stroke-miterlimit:10;" d="M 177.878906 161.425781 L 182.335938 156.96875 L 177.878906 152.511719 L 173.421875 156.96875 Z M 177.878906 161.425781 "/>
<path style="fill-rule:nonzero;fill:rgb(74.901961%,22.352941%,51.764706%);fill-opacity:0.6;stroke-width:0.708661;stroke-linecap:round;stroke-linejoin:round;stroke:rgb(74.901961%,22.352941%,51.764706%);stroke-opacity:1;stroke-miterlimit:10;" d="M 190.453125 137.699219 L 194.910156 133.242188 L 190.453125 128.789063 L 185.996094 133.242188 Z M 190.453125 137.699219 "/>
<path style="fill-rule:nonzero;fill:rgb(74.901961%,22.352941%,51.764706%);fill-opacity:0.6;stroke-width:0.708661;stroke-linecap:round;stroke-linejoin:round;stroke:rgb(74.901961%,22.352941%,51.764706%);stroke-opacity:1;stroke-miterlimit:10;" d="M 182.546875 134.863281 L 187.003906 130.410156 L 182.546875 125.953125 L 178.089844 130.410156 Z M 182.546875 134.863281 "/>
<path style="fill-rule:nonzero;fill:rgb(74.901961%,22.352941%,51.764706%);fill-opacity:0.6;stroke-width:0.708661;stroke-linecap:round;stroke-linejoin:round;stroke:rgb(74.901961%,22.352941%,51.764706%);stroke-opacity:1;stroke-miterlimit:10;" d="M 184.148438 121.816406 L 188.605469 117.363281 L 184.148438 112.90625 L 179.695313 117.363281 Z M 184.148438 121.816406 "/>
<path style="fill-rule:nonzero;fill:rgb(74.901961%,22.352941%,51.764706%);fill-opacity:0.6;stroke-width:0.708661;stroke-linecap:round;stroke-linejoin:round;stroke:rgb(74.901961%,22.352941%,51.764706%);stroke-opacity:1;stroke-miterlimit:10;" d="M 175.195313 116.023438 L 179.648438 111.566406 L 175.195313 107.113281 L 170.738281 111.566406 Z M 175.195313 116.023438 "/>
<path style="fill-rule:nonzero;fill:rgb(74.901961%,22.352941%,51.764706%);fill-opacity:0.6;stroke-width:0.708661;stroke-linecap:round;stroke-linejoin:round;stroke:rgb(74.901961%,22.352941%,51.764706%);stroke-opacity:1;stroke-miterlimit:10;" d="M 175.152344 142.980469 L 179.609375 138.523438 L 175.152344 134.070313 L 170.699219 138.523438 Z M 175.152344 142.980469 "/>
<path style="fill-rule:nonzero;fill:rgb(74.901961%,22.352941%,51.764706%);fill-opacity:0.6;stroke-width:0.708661;stroke-linecap:round;stroke-linejoin:round;stroke:rgb(74.901961%,22.352941%,51.764706%);stroke-opacity:1;stroke-miterlimit:10;" d="M 179.292969 126.871094 L 183.75 122.414063 L 179.292969 117.957031 L 174.839844 122.414063 Z M 179.292969 126.871094 "/>
<path style="fill-rule:nonzero;fill:rgb(74.901961%,22.352941%,51.764706%);fill-opacity:0.6;stroke-width:0.708661;stroke-linecap:round;stroke-linejoin:round;stroke:rgb(74.901961%,22.352941%,51.764706%);stroke-opacity:1;stroke-miterlimit:10;" d="M 172.023438 189.988281 L 176.480469 185.53125 L 172.023438 181.074219 L 167.566406 185.53125 Z M 172.023438 189.988281 "/>
<path style="fill-rule:nonzero;fill:rgb(74.901961%,22.352941%,51.764706%);fill-opacity:0.6;stroke-width:0.708661;stroke-linecap:round;stroke-linejoin:round;stroke:rgb(74.901961%,22.352941%,51.764706%);stroke-opacity:1;stroke-miterlimit:10;" d="M 174.65625 135.488281 L 179.113281 131.03125 L 174.65625 126.574219 L 170.203125 131.03125 Z M 174.65625 135.488281 "/>
<path style="fill-rule:nonzero;fill:rgb(74.901961%,22.352941%,51.764706%);fill-opacity:0.6;stroke-width:0.708661;stroke-linecap:round;stroke-linejoin:round;stroke:rgb(74.901961%,22.352941%,51.764706%);stroke-opacity:1;stroke-miterlimit:10;" d="M 189.089844 184.699219 L 193.546875 180.242188 L 189.089844 175.785156 L 184.632813 180.242188 Z M 189.089844 184.699219 "/>
<path style="fill-rule:nonzero;fill:rgb(74.901961%,22.352941%,51.764706%);fill-opacity:0.6;stroke-width:0.708661;stroke-linecap:round;stroke-linejoin:round;stroke:rgb(74.901961%,22.352941%,51.764706%);stroke-opacity:1;stroke-miterlimit:10;" d="M 172.890625 163.371094 L 177.347656 158.914063 L 172.890625 154.457031 L 168.433594 158.914063 Z M 172.890625 163.371094 "/>
<path style="fill-rule:nonzero;fill:rgb(74.901961%,22.352941%,51.764706%);fill-opacity:0.6;stroke-width:0.708661;stroke-linecap:round;stroke-linejoin:round;stroke:rgb(74.901961%,22.352941%,51.764706%);stroke-opacity:1;stroke-miterlimit:10;" d="M 190.3125 147.378906 L 194.769531 142.925781 L 190.3125 138.46875 L 185.859375 142.925781 Z M 190.3125 147.378906 "/>
<path style="fill-rule:nonzero;fill:rgb(74.901961%,22.352941%,51.764706%);fill-opacity:0.6;stroke-width:0.708661;stroke-linecap:round;stroke-linejoin:round;stroke:rgb(74.901961%,22.352941%,51.764706%);stroke-opacity:1;stroke-miterlimit:10;" d="M 175.023438 129.644531 L 179.476563 125.191406 L 175.023438 120.734375 L 170.566406 125.191406 Z M 175.023438 129.644531 "/>
<path style="fill-rule:nonzero;fill:rgb(74.901961%,22.352941%,51.764706%);fill-opacity:0.6;stroke-width:0.708661;stroke-linecap:round;stroke-linejoin:round;stroke:rgb(74.901961%,22.352941%,51.764706%);stroke-opacity:1;stroke-miterlimit:10;" d="M 175.160156 169.910156 L 179.617188 165.453125 L 175.160156 160.996094 L 170.703125 165.453125 Z M 175.160156 169.910156 "/>
<path style="fill-rule:nonzero;fill:rgb(74.901961%,22.352941%,51.764706%);fill-opacity:0.6;stroke-width:0.708661;stroke-linecap:round;stroke-linejoin:round;stroke:rgb(74.901961%,22.352941%,51.764706%);stroke-opacity:1;stroke-miterlimit:10;" d="M 181.820313 159.5 L 186.273438 155.042969 L 181.820313 150.585938 L 177.363281 155.042969 Z M 181.820313 159.5 "/>
<path style="fill-rule:nonzero;fill:rgb(74.901961%,22.352941%,51.764706%);fill-opacity:0.6;stroke-width:0.708661;stroke-linecap:round;stroke-linejoin:round;stroke:rgb(74.901961%,22.352941%,51.764706%);stroke-opacity:1;stroke-miterlimit:10;" d="M 189.542969 114.695313 L 194 110.238281 L 189.542969 105.785156 L 185.089844 110.238281 Z M 189.542969 114.695313 "/>
<path style="fill-rule:nonzero;fill:rgb(74.901961%,22.352941%,51.764706%);fill-opacity:0.6;stroke-width:0.708661;stroke-linecap:round;stroke-linejoin:round;stroke:rgb(74.901961%,22.352941%,51.764706%);stroke-opacity:1;stroke-miterlimit:10;" d="M 175.777344 139.957031 L 180.230469 135.5 L 175.777344 131.042969 L 171.320313 135.5 Z M 175.777344 139.957031 "/>
<path style="fill-rule:nonzero;fill:rgb(88.235294%,39.215686%,38.431373%);fill-opacity:0.6;stroke-width:0.708661;stroke-linecap:round;stroke-linejoin:round;stroke:rgb(88.235294%,39.215686%,38.431373%);stroke-opacity:1;stroke-miterlimit:10;" d="M 193.15625 169.394531 L 197.613281 164.9375 L 193.15625 160.480469 L 188.699219 164.9375 Z M 193.15625 169.394531 "/>
<path style="fill-rule:nonzero;fill:rgb(88.235294%,39.215686%,38.431373%);fill-opacity:0.6;stroke-width:0.708661;stroke-linecap:round;stroke-linejoin:round;stroke:rgb(88.235294%,39.215686%,38.431373%);stroke-opacity:1;stroke-miterlimit:10;" d="M 196.527344 141.558594 L 200.984375 137.101563 L 196.527344 132.644531 L 192.070313 137.101563 Z M 196.527344 141.558594 "/>
<path style="fill-rule:nonzero;fill:rgb(88.235294%,39.215686%,38.431373%);fill-opacity:0.6;stroke-width:0.708661;stroke-linecap:round;stroke-linejoin:round;stroke:rgb(88.235294%,39.215686%,38.431373%);stroke-opacity:1;stroke-miterlimit:10;" d="M 211.800781 86.550781 L 216.257813 82.097656 L 211.800781 77.640625 L 207.347656 82.097656 Z M 211.800781 86.550781 "/>
<path style="fill-rule:nonzero;fill:rgb(88.235294%,39.215686%,38.431373%);fill-opacity:0.6;stroke-width:0.708661;stroke-linecap:round;stroke-linejoin:round;stroke:rgb(88.235294%,39.215686%,38.431373%);stroke-opacity:1;stroke-miterlimit:10;" d="M 193.636719 128.003906 L 198.09375 123.546875 L 193.636719 119.09375 L 189.179688 123.546875 Z M 193.636719 128.003906 "/>
<path style="fill-rule:nonzero;fill:rgb(88.235294%,39.215686%,38.431373%);fill-opacity:0.6;stroke-width:0.708661;stroke-linecap:round;stroke-linejoin:round;stroke:rgb(88.235294%,39.215686%,38.431373%);stroke-opacity:1;stroke-miterlimit:10;" d="M 214.28125 169.382813 L 218.738281 164.925781 L 214.28125 160.472656 L 209.828125 164.925781 Z M 214.28125 169.382813 "/>
<path style="fill-rule:nonzero;fill:rgb(88.235294%,39.215686%,38.431373%);fill-opacity:0.6;stroke-width:0.708661;stroke-linecap:round;stroke-linejoin:round;stroke:rgb(88.235294%,39.215686%,38.431373%);stroke-opacity:1;stroke-miterlimit:10;" d="M 201.8125 122.644531 L 206.269531 118.1875 L 201.8125 113.730469 L 197.355469 118.1875 Z M 201.8125 122.644531 "/>
<path style="fill-rule:nonzero;fill:rgb(88.235294%,39.215686%,38.431373%);fill-opacity:0.6;stroke-width:0.708661;stroke-linecap:round;stroke-linejoin:round;stroke:rgb(88.235294%,39.215686%,38.431373%);stroke-opacity:1;stroke-miterlimit:10;" d="M 208.285156 140.664063 L 212.742188 136.207031 L 208.285156 131.753906 L 203.828125 136.207031 Z M 208.285156 140.664063 "/>
<path style="fill-rule:nonzero;fill:rgb(88.235294%,39.215686%,38.431373%);fill-opacity:0.6;stroke-width:0.708661;stroke-linecap:round;stroke-linejoin:round;stroke:rgb(88.235294%,39.215686%,38.431373%);stroke-opacity:1;stroke-miterlimit:10;" d="M 195.371094 123.289063 L 199.828125 118.835938 L 195.371094 114.378906 L 190.917969 118.835938 Z M 195.371094 123.289063 "/>
<path style="fill-rule:nonzero;fill:rgb(88.235294%,39.215686%,38.431373%);fill-opacity:0.6;stroke-width:0.708661;stroke-linecap:round;stroke-linejoin:round;stroke:rgb(88.235294%,39.215686%,38.431373%);stroke-opacity:1;stroke-miterlimit:10;" d="M 192.957031 101.417969 L 197.410156 96.964844 L 192.957031 92.507813 L 188.5 96.964844 Z M 192.957031 101.417969 "/>
<path style="fill-rule:nonzero;fill:rgb(88.235294%,39.215686%,38.431373%);fill-opacity:0.6;stroke-width:0.708661;stroke-linecap:round;stroke-linejoin:round;stroke:rgb(88.235294%,39.215686%,38.431373%);stroke-opacity:1;stroke-miterlimit:10;" d="M 200.59375 115.964844 L 205.050781 111.507813 L 200.59375 107.054688 L 196.136719 111.507813 Z M 200.59375 115.964844 "/>
<path style="fill-rule:nonzero;fill:rgb(88.235294%,39.215686%,38.431373%);fill-opacity:0.6;stroke-width:0.708661;stroke-linecap:round;stroke-linejoin:round;stroke:rgb(88.235294%,39.215686%,38.431373%);stroke-opacity:1;stroke-miterlimit:10;" d="M 208.082031 108.730469 L 212.539063 104.277344 L 208.082031 99.820313 L 203.625 104.277344 Z M 208.082031 108.730469 "/>
<path style="fill-rule:nonzero;fill:rgb(88.235294%,39.215686%,38.431373%);fill-opacity:0.6;stroke-width:0.708661;stroke-linecap:round;stroke-linejoin:round;stroke:rgb(88.235294%,39.215686%,38.431373%);stroke-opacity:1;stroke-miterlimit:10;" d="M 193.390625 130.527344 L 197.847656 126.070313 L 193.390625 121.613281 L 188.933594 126.070313 Z M 193.390625 130.527344 "/>
<path style="fill-rule:nonzero;fill:rgb(88.235294%,39.215686%,38.431373%);fill-opacity:0.6;stroke-width:0.708661;stroke-linecap:round;stroke-linejoin:round;stroke:rgb(88.235294%,39.215686%,38.431373%);stroke-opacity:1;stroke-miterlimit:10;" d="M 211.144531 159.25 L 215.601563 154.792969 L 211.144531 150.335938 L 206.6875 154.792969 Z M 211.144531 159.25 "/>
<path style="fill-rule:nonzero;fill:rgb(88.235294%,39.215686%,38.431373%);fill-opacity:0.6;stroke-width:0.708661;stroke-linecap:round;stroke-linejoin:round;stroke:rgb(88.235294%,39.215686%,38.431373%);stroke-opacity:1;stroke-miterlimit:10;" d="M 211.4375 136.761719 L 215.894531 132.304688 L 211.4375 127.847656 L 206.980469 132.304688 Z M 211.4375 136.761719 "/>
<path style="fill-rule:nonzero;fill:rgb(88.235294%,39.215686%,38.431373%);fill-opacity:0.6;stroke-width:0.708661;stroke-linecap:round;stroke-linejoin:round;stroke:rgb(88.235294%,39.215686%,38.431373%);stroke-opacity:1;stroke-miterlimit:10;" d="M 211.703125 130.925781 L 216.160156 126.46875 L 211.703125 122.015625 L 207.25 126.46875 Z M 211.703125 130.925781 "/>
<path style="fill-rule:nonzero;fill:rgb(88.235294%,39.215686%,38.431373%);fill-opacity:0.6;stroke-width:0.708661;stroke-linecap:round;stroke-linejoin:round;stroke:rgb(88.235294%,39.215686%,38.431373%);stroke-opacity:1;stroke-miterlimit:10;" d="M 213.667969 84.621094 L 218.125 80.164063 L 213.667969 75.710938 L 209.210938 80.164063 Z M 213.667969 84.621094 "/>
<path style="fill-rule:nonzero;fill:rgb(88.235294%,39.215686%,38.431373%);fill-opacity:0.6;stroke-width:0.708661;stroke-linecap:round;stroke-linejoin:round;stroke:rgb(88.235294%,39.215686%,38.431373%);stroke-opacity:1;stroke-miterlimit:10;" d="M 212.179688 143.382813 L 216.636719 138.929688 L 212.179688 134.472656 L 207.722656 138.929688 Z M 212.179688 143.382813 "/>
<path style="fill-rule:nonzero;fill:rgb(88.235294%,39.215686%,38.431373%);fill-opacity:0.6;stroke-width:0.708661;stroke-linecap:round;stroke-linejoin:round;stroke:rgb(88.235294%,39.215686%,38.431373%);stroke-opacity:1;stroke-miterlimit:10;" d="M 206.957031 195.605469 L 211.414063 191.148438 L 206.957031 186.691406 L 202.5 191.148438 Z M 206.957031 195.605469 "/>
<path style="fill-rule:nonzero;fill:rgb(88.235294%,39.215686%,38.431373%);fill-opacity:0.6;stroke-width:0.708661;stroke-linecap:round;stroke-linejoin:round;stroke:rgb(88.235294%,39.215686%,38.431373%);stroke-opacity:1;stroke-miterlimit:10;" d="M 196.152344 83.425781 L 200.605469 78.972656 L 196.152344 74.515625 L 191.695313 78.972656 Z M 196.152344 83.425781 "/>
<path style="fill-rule:nonzero;fill:rgb(88.235294%,39.215686%,38.431373%);fill-opacity:0.6;stroke-width:0.708661;stroke-linecap:round;stroke-linejoin:round;stroke:rgb(88.235294%,39.215686%,38.431373%);stroke-opacity:1;stroke-miterlimit:10;" d="M 201.605469 108.015625 L 206.0625 103.5625 L 201.605469 99.105469 L 197.148438 103.5625 Z M 201.605469 108.015625 "/>
<path style="fill-rule:nonzero;fill:rgb(97.254902%,58.039216%,25.490196%);fill-opacity:0.6;stroke-width:0.708661;stroke-linecap:round;stroke-linejoin:round;stroke:rgb(97.254902%,58.039216%,25.490196%);stroke-opacity:1;stroke-miterlimit:10;" d="M 233.164063 79.261719 L 237.621094 74.808594 L 233.164063 70.351563 L 228.710938 74.808594 Z M 233.164063 79.261719 "/>
<path style="fill-rule:nonzero;fill:rgb(97.254902%,58.039216%,25.490196%);fill-opacity:0.6;stroke-width:0.708661;stroke-linecap:round;stroke-linejoin:round;stroke:rgb(97.254902%,58.039216%,25.490196%);stroke-opacity:1;stroke-miterlimit:10;" d="M 216.316406 129.515625 L 220.773438 125.058594 L 216.316406 120.601563 L 211.859375 125.058594 Z M 216.316406 129.515625 "/>
<path style="fill-rule:nonzero;fill:rgb(97.254902%,58.039216%,25.490196%);fill-opacity:0.6;stroke-width:0.708661;stroke-linecap:round;stroke-linejoin:round;stroke:rgb(97.254902%,58.039216%,25.490196%);stroke-opacity:1;stroke-miterlimit:10;" d="M 222.492188 80.425781 L 226.949219 75.96875 L 222.492188 71.515625 L 218.035156 75.96875 Z M 222.492188 80.425781 "/>
<path style="fill-rule:nonzero;fill:rgb(97.254902%,58.039216%,25.490196%);fill-opacity:0.6;stroke-width:0.708661;stroke-linecap:round;stroke-linejoin:round;stroke:rgb(97.254902%,58.039216%,25.490196%);stroke-opacity:1;stroke-miterlimit:10;" d="M 226.300781 136.742188 L 230.757813 132.285156 L 226.300781 127.832031 L 221.84375 132.285156 Z M 226.300781 136.742188 "/>
<path style="fill-rule:nonzero;fill:rgb(97.254902%,58.039216%,25.490196%);fill-opacity:0.6;stroke-width:0.708661;stroke-linecap:round;stroke-linejoin:round;stroke:rgb(97.254902%,58.039216%,25.490196%);stroke-opacity:1;stroke-miterlimit:10;" d="M 221.363281 135.492188 L 225.820313 131.039063 L 221.363281 126.582031 L 216.90625 131.039063 Z M 221.363281 135.492188 "/>
<path style="fill-rule:nonzero;fill:rgb(97.254902%,58.039216%,25.490196%);fill-opacity:0.6;stroke-width:0.708661;stroke-linecap:round;stroke-linejoin:round;stroke:rgb(97.254902%,58.039216%,25.490196%);stroke-opacity:1;stroke-miterlimit:10;" d="M 216.472656 145.351563 L 220.929688 140.894531 L 216.472656 136.441406 L 212.019531 140.894531 Z M 216.472656 145.351563 "/>
<path style="fill-rule:nonzero;fill:rgb(97.254902%,58.039216%,25.490196%);fill-opacity:0.6;stroke-width:0.708661;stroke-linecap:round;stroke-linejoin:round;stroke:rgb(97.254902%,58.039216%,25.490196%);stroke-opacity:1;stroke-miterlimit:10;" d="M 218.375 138.867188 L 222.832031 134.410156 L 218.375 129.957031 L 213.921875 134.410156 Z M 218.375 138.867188 "/>
<path style="fill-rule:nonzero;fill:rgb(97.254902%,58.039216%,25.490196%);fill-opacity:0.6;stroke-width:0.708661;stroke-linecap:round;stroke-linejoin:round;stroke:rgb(97.254902%,58.039216%,25.490196%);stroke-opacity:1;stroke-miterlimit:10;" d="M 216.125 107.289063 L 220.582031 102.832031 L 216.125 98.378906 L 211.667969 102.832031 Z M 216.125 107.289063 "/>
<path style="fill-rule:nonzero;fill:rgb(97.254902%,58.039216%,25.490196%);fill-opacity:0.6;stroke-width:0.708661;stroke-linecap:round;stroke-linejoin:round;stroke:rgb(97.254902%,58.039216%,25.490196%);stroke-opacity:1;stroke-miterlimit:10;" d="M 229.523438 121.101563 L 233.980469 116.644531 L 229.523438 112.191406 L 225.066406 116.644531 Z M 229.523438 121.101563 "/>
<path style="fill-rule:nonzero;fill:rgb(97.254902%,58.039216%,25.490196%);fill-opacity:0.6;stroke-width:0.708661;stroke-linecap:round;stroke-linejoin:round;stroke:rgb(97.254902%,58.039216%,25.490196%);stroke-opacity:1;stroke-miterlimit:10;" d="M 230.902344 105.464844 L 235.359375 101.007813 L 230.902344 96.554688 L 226.449219 101.007813 Z M 230.902344 105.464844 "/>
<path style="fill-rule:nonzero;fill:rgb(97.254902%,58.039216%,25.490196%);fill-opacity:0.6;stroke-width:0.708661;stroke-linecap:round;stroke-linejoin:round;stroke:rgb(97.254902%,58.039216%,25.490196%);stroke-opacity:1;stroke-miterlimit:10;" d="M 219.609375 98.457031 L 224.066406 94 L 219.609375 89.546875 L 215.15625 94 Z M 219.609375 98.457031 "/>
<path style="fill-rule:nonzero;fill:rgb(97.254902%,58.039216%,25.490196%);fill-opacity:0.6;stroke-width:0.708661;stroke-linecap:round;stroke-linejoin:round;stroke:rgb(97.254902%,58.039216%,25.490196%);stroke-opacity:1;stroke-miterlimit:10;" d="M 219.113281 100.382813 L 223.570313 95.925781 L 219.113281 91.472656 L 214.660156 95.925781 Z M 219.113281 100.382813 "/>
<path style="fill-rule:nonzero;fill:rgb(97.254902%,58.039216%,25.490196%);fill-opacity:0.6;stroke-width:0.708661;stroke-linecap:round;stroke-linejoin:round;stroke:rgb(97.254902%,58.039216%,25.490196%);stroke-opacity:1;stroke-miterlimit:10;" d="M 222.828125 98.476563 L 227.28125 94.023438 L 222.828125 89.566406 L 218.371094 94.023438 Z M 222.828125 98.476563 "/>
<path style="fill-rule:nonzero;fill:rgb(97.254902%,58.039216%,25.490196%);fill-opacity:0.6;stroke-width:0.708661;stroke-linecap:round;stroke-linejoin:round;stroke:rgb(97.254902%,58.039216%,25.490196%);stroke-opacity:1;stroke-miterlimit:10;" d="M 225.710938 91.378906 L 230.167969 86.921875 L 225.710938 82.46875 L 221.253906 86.921875 Z M 225.710938 91.378906 "/>
<path style="fill-rule:nonzero;fill:rgb(97.254902%,58.039216%,25.490196%);fill-opacity:0.6;stroke-width:0.708661;stroke-linecap:round;stroke-linejoin:round;stroke:rgb(97.254902%,58.039216%,25.490196%);stroke-opacity:1;stroke-miterlimit:10;" d="M 215.664063 126.507813 L 220.121094 122.050781 L 215.664063 117.59375 L 211.207031 122.050781 Z M 215.664063 126.507813 "/>
<path style="fill-rule:nonzero;fill:rgb(97.254902%,58.039216%,25.490196%);fill-opacity:0.6;stroke-width:0.708661;stroke-linecap:round;stroke-linejoin:round;stroke:rgb(97.254902%,58.039216%,25.490196%);stroke-opacity:1;stroke-miterlimit:10;" d="M 235.894531 116.003906 L 240.347656 111.550781 L 235.894531 107.09375 L 231.4375 111.550781 Z M 235.894531 116.003906 "/>
<path style="fill-rule:nonzero;fill:rgb(97.254902%,58.039216%,25.490196%);fill-opacity:0.6;stroke-width:0.708661;stroke-linecap:round;stroke-linejoin:round;stroke:rgb(97.254902%,58.039216%,25.490196%);stroke-opacity:1;stroke-miterlimit:10;" d="M 217.785156 152.386719 L 222.242188 147.929688 L 217.785156 143.472656 L 213.328125 147.929688 Z M 217.785156 152.386719 "/>
<path style="fill-rule:nonzero;fill:rgb(97.254902%,58.039216%,25.490196%);fill-opacity:0.6;stroke-width:0.708661;stroke-linecap:round;stroke-linejoin:round;stroke:rgb(97.254902%,58.039216%,25.490196%);stroke-opacity:1;stroke-miterlimit:10;" d="M 219.289063 131.433594 L 223.746094 126.976563 L 219.289063 122.523438 L 214.835938 126.976563 Z M 219.289063 131.433594 "/>
<path style="fill-rule:nonzero;fill:rgb(97.254902%,58.039216%,25.490196%);fill-opacity:0.6;stroke-width:0.708661;stroke-linecap:round;stroke-linejoin:round;stroke:rgb(97.254902%,58.039216%,25.490196%);stroke-opacity:1;stroke-miterlimit:10;" d="M 236.675781 80.660156 L 241.132813 76.203125 L 236.675781 71.75 L 232.222656 76.203125 Z M 236.675781 80.660156 "/>
<path style="fill-rule:nonzero;fill:rgb(97.254902%,58.039216%,25.490196%);fill-opacity:0.6;stroke-width:0.708661;stroke-linecap:round;stroke-linejoin:round;stroke:rgb(97.254902%,58.039216%,25.490196%);stroke-opacity:1;stroke-miterlimit:10;" d="M 221.21875 152.0625 L 225.675781 147.605469 L 221.21875 143.152344 L 216.761719 147.605469 Z M 221.21875 152.0625 "/>
<path style="fill-rule:nonzero;fill:rgb(98.823529%,80.784314%,14.509804%);fill-opacity:0.6;stroke-width:0.708661;stroke-linecap:round;stroke-linejoin:round;stroke:rgb(98.823529%,80.784314%,14.509804%);stroke-opacity:1;stroke-miterlimit:10;" d="M 241.710938 75.421875 L 246.164063 70.964844 L 241.710938 66.511719 L 237.253906 70.964844 Z M 241.710938 75.421875 "/>
<path style="fill-rule:nonzero;fill:rgb(98.823529%,80.784314%,14.509804%);fill-opacity:0.6;stroke-width:0.708661;stroke-linecap:round;stroke-linejoin:round;stroke:rgb(98.823529%,80.784314%,14.509804%);stroke-opacity:1;stroke-miterlimit:10;" d="M 268.71875 51.023438 L 273.175781 46.570313 L 268.71875 42.113281 L 264.265625 46.570313 Z M 268.71875 51.023438 "/>
<path style="fill-rule:nonzero;fill:rgb(98.823529%,80.784314%,14.509804%);fill-opacity:0.6;stroke-width:0.708661;stroke-linecap:round;stroke-linejoin:round;stroke:rgb(98.823529%,80.784314%,14.509804%);stroke-opacity:1;stroke-miterlimit:10;" d="M 260.394531 42.738281 L 264.851563 38.285156 L 260.394531 33.828125 L 255.9375 38.285156 Z M 260.394531 42.738281 "/>
<path style="fill-rule:nonzero;fill:rgb(98.823529%,80.784314%,14.509804%);fill-opacity:0.6;stroke-width:0.708661;stroke-linecap:round;stroke-linejoin:round;stroke:rgb(98.823529%,80.784314%,14.509804%);stroke-opacity:1;stroke-miterlimit:10;" d="M 243.269531 110.394531 L 247.722656 105.9375 L 243.269531 101.484375 L 238.8125 105.9375 Z M 243.269531 110.394531 "/>
<path style="fill-rule:nonzero;fill:rgb(98.823529%,80.784314%,14.509804%);fill-opacity:0.6;stroke-width:0.708661;stroke-linecap:round;stroke-linejoin:round;stroke:rgb(98.823529%,80.784314%,14.509804%);stroke-opacity:1;stroke-miterlimit:10;" d="M 254.941406 45.34375 L 259.394531 40.886719 L 254.941406 36.429688 L 250.484375 40.886719 Z M 254.941406 45.34375 "/>
<path style="fill-rule:nonzero;fill:rgb(98.823529%,80.784314%,14.509804%);fill-opacity:0.6;stroke-width:0.708661;stroke-linecap:round;stroke-linejoin:round;stroke:rgb(98.823529%,80.784314%,14.509804%);stroke-opacity:1;stroke-miterlimit:10;" d="M 252.941406 83.695313 L 257.398438 79.238281 L 252.941406 74.78125 L 248.484375 79.238281 Z M 252.941406 83.695313 "/>
<path style="fill-rule:nonzero;fill:rgb(98.823529%,80.784314%,14.509804%);fill-opacity:0.6;stroke-width:0.708661;stroke-linecap:round;stroke-linejoin:round;stroke:rgb(98.823529%,80.784314%,14.509804%);stroke-opacity:1;stroke-miterlimit:10;" d="M 253.980469 80.941406 L 258.433594 76.484375 L 253.980469 72.03125 L 249.523438 76.484375 Z M 253.980469 80.941406 "/>
<path style="fill-rule:nonzero;fill:rgb(98.823529%,80.784314%,14.509804%);fill-opacity:0.6;stroke-width:0.708661;stroke-linecap:round;stroke-linejoin:round;stroke:rgb(98.823529%,80.784314%,14.509804%);stroke-opacity:1;stroke-miterlimit:10;" d="M 237.699219 66.828125 L 242.15625 62.371094 L 237.699219 57.914063 L 233.242188 62.371094 Z M 237.699219 66.828125 "/>
<path style="fill-rule:nonzero;fill:rgb(98.823529%,80.784314%,14.509804%);fill-opacity:0.6;stroke-width:0.708661;stroke-linecap:round;stroke-linejoin:round;stroke:rgb(98.823529%,80.784314%,14.509804%);stroke-opacity:1;stroke-miterlimit:10;" d="M 244.480469 151.871094 L 248.933594 147.417969 L 244.480469 142.960938 L 240.023438 147.417969 Z M 244.480469 151.871094 "/>
<path style="fill-rule:nonzero;fill:rgb(98.823529%,80.784314%,14.509804%);fill-opacity:0.6;stroke-width:0.708661;stroke-linecap:round;stroke-linejoin:round;stroke:rgb(98.823529%,80.784314%,14.509804%);stroke-opacity:1;stroke-miterlimit:10;" d="M 268.632813 73.792969 L 273.089844 69.335938 L 268.632813 64.878906 L 264.179688 69.335938 Z M 268.632813 73.792969 "/>
<path style="fill:none;stroke-width:1.115477;stroke-linecap:butt;stroke-linejoin:round;stroke:rgb(66.27451%,66.27451%,66.27451%);stroke-opacity:1;stroke-miterlimit:10;" d="M 81.125 246.957031 L 81.125 28.347656 "/>
<path style=" stroke:none;fill-rule:evenodd;fill:rgb(30.196078%,30.196078%,30.196078%);fill-opacity:1;" d="M 56.828125 183.695313 L 57.003906 183.699219 L 57.171875 183.710938 L 57.335938 183.726563 L 57.496094 183.753906 L 57.652344 183.785156 L 57.804688 183.820313 L 57.953125 183.867188 L 58.097656 183.921875 L 58.234375 183.980469 L 58.367188 184.046875 L 58.5 184.117188 L 58.625 184.195313 L 58.742188 184.28125 L 58.855469 184.367188 L 58.960938 184.460938 L 59.058594 184.5625 L 59.152344 184.667969 L 59.238281 184.777344 L 59.316406 184.890625 L 59.390625 185.011719 L 59.457031 185.132813 L 59.515625 185.257813 L 59.570313 185.386719 L 59.613281 185.519531 L 59.652344 185.65625 L 59.683594 185.792969 L 59.707031 185.9375 L 59.726563 186.082031 L 59.738281 186.230469 L 59.738281 186.382813 L 59.734375 186.5625 L 59.722656 186.738281 L 59.703125 186.917969 L 59.671875 187.09375 L 59.636719 187.265625 L 59.589844 187.4375 L 59.535156 187.609375 L 59.472656 187.78125 L 59.398438 187.953125 L 59.320313 188.121094 L 59.234375 188.289063 L 59.136719 188.460938 L 59.03125 188.640625 L 58.914063 188.820313 L 58.789063 189.003906 L 58.652344 189.1875 L 58.503906 189.378906 L 58.347656 189.570313 L 58.179688 189.769531 L 58.003906 189.96875 L 57.8125 190.171875 L 57.609375 190.386719 L 57.390625 190.613281 L 57.15625 190.847656 L 56.90625 191.09375 L 56.640625 191.351563 L 56.359375 191.621094 L 56.0625 191.898438 L 55.753906 192.1875 L 55.429688 192.488281 L 59.964844 192.488281 L 59.824219 193.496094 L 54.085938 193.496094 L 54.085938 192.542969 L 54.453125 192.191406 L 54.800781 191.851563 L 55.128906 191.53125 L 55.4375 191.226563 L 55.730469 190.933594 L 56 190.660156 L 56.25 190.398438 L 56.480469 190.15625 L 56.691406 189.929688 L 56.882813 189.714844 L 57.0625 189.515625 L 57.230469 189.320313 L 57.386719 189.128906 L 57.53125 188.945313 L 57.664063 188.765625 L 57.785156 188.59375 L 57.894531 188.429688 L 57.996094 188.269531 L 58.082031 188.113281 L 58.15625 187.964844 L 58.222656 187.820313 L 58.285156 187.671875 L 58.335938 187.523438 L 58.382813 187.371094 L 58.421875 187.21875 L 58.453125 187.0625 L 58.476563 186.90625 L 58.492188 186.746094 L 58.503906 186.585938 L 58.507813 186.425781 L 58.503906 186.265625 L 58.488281 186.113281 L 58.464844 185.96875 L 58.433594 185.832031 L 58.390625 185.703125 L 58.339844 185.578125 L 58.28125 185.460938 L 58.210938 185.351563 L 58.132813 185.246094 L 58.046875 185.152344 L 57.949219 185.0625 L 57.847656 184.984375 L 57.738281 184.917969 L 57.621094 184.855469 L 57.496094 184.804688 L 57.367188 184.765625 L 57.226563 184.730469 L 57.082031 184.707031 L 56.929688 184.695313 L 56.773438 184.691406 L 56.636719 184.691406 L 56.507813 184.699219 L 56.378906 184.710938 L 56.257813 184.726563 L 56.140625 184.75 L 55.921875 184.804688 L 55.816406 184.84375 L 55.71875 184.882813 L 55.625 184.929688 L 55.535156 184.976563 L 55.445313 185.03125 L 55.351563 185.09375 L 55.261719 185.160156 L 55.167969 185.234375 L 55.078125 185.316406 L 54.984375 185.40625 L 54.890625 185.5 L 54.796875 185.601563 L 54.699219 185.710938 L 53.886719 185.082031 L 54.003906 184.941406 L 54.121094 184.8125 L 54.242188 184.6875 L 54.367188 184.570313 L 54.492188 184.460938 L 54.621094 184.359375 L 54.886719 184.179688 L 55.023438 184.101563 L 55.160156 184.03125 L 55.308594 183.96875 L 55.457031 183.910156 L 55.613281 183.859375 L 55.769531 183.816406 L 55.933594 183.78125 L 56.105469 183.75 L 56.277344 183.726563 L 56.457031 183.710938 L 56.640625 183.699219 Z M 56.828125 183.695313 "/>
<path style=" stroke:none;fill-rule:evenodd;fill:rgb(30.196078%,30.196078%,30.196078%);fill-opacity:1;" d="M 64.414063 192.417969 L 64.417969 192.316406 L 64.429688 192.21875 L 64.449219 192.121094 L 64.472656 192.03125 L 64.503906 191.941406 L 64.542969 191.855469 L 64.585938 191.773438 L 64.640625 191.695313 L 64.699219 191.621094 L 64.765625 191.550781 L 64.839844 191.480469 L 64.917969 191.417969 L 65 191.363281 L 65.082031 191.316406 L 65.167969 191.277344 L 65.257813 191.246094 L 65.351563 191.21875 L 65.445313 191.199219 L 65.546875 191.191406 L 65.648438 191.1875 L 65.753906 191.191406 L 65.855469 191.199219 L 65.949219 191.21875 L 66.042969 191.246094 L 66.132813 191.277344 L 66.222656 191.316406 L 66.304688 191.363281 L 66.382813 191.417969 L 66.457031 191.480469 L 66.53125 191.550781 L 66.597656 191.621094 L 66.65625 191.695313 L 66.707031 191.773438 L 66.753906 191.855469 L 66.792969 191.941406 L 66.824219 192.03125 L 66.847656 192.121094 L 66.867188 192.21875 L 66.875 192.316406 L 66.878906 192.417969 L 66.875 192.523438 L 66.867188 192.625 L 66.847656 192.722656 L 66.824219 192.816406 L 66.792969 192.90625 L 66.753906 192.992188 L 66.707031 193.074219 L 66.65625 193.152344 L 66.597656 193.226563 L 66.53125 193.300781 L 66.457031 193.367188 L 66.382813 193.425781 L 66.304688 193.476563 L 66.222656 193.523438 L 66.132813 193.5625 L 66.042969 193.59375 L 65.949219 193.617188 L 65.855469 193.636719 L 65.753906 193.648438 L 65.546875 193.648438 L 65.445313 193.636719 L 65.351563 193.617188 L 65.257813 193.59375 L 65.167969 193.5625 L 65.082031 193.523438 L 65 193.476563 L 64.917969 193.425781 L 64.839844 193.367188 L 64.765625 193.300781 L 64.699219 193.226563 L 64.640625 193.148438 L 64.585938 193.066406 L 64.542969 192.984375 L 64.503906 192.898438 L 64.472656 192.808594 L 64.449219 192.714844 L 64.429688 192.617188 L 64.417969 192.519531 Z M 64.414063 192.417969 "/>
<path style=" stroke:none;fill-rule:evenodd;fill:rgb(30.196078%,30.196078%,30.196078%);fill-opacity:1;" d="M 76.511719 184.800781 L 72.703125 184.800781 L 72.703125 187.839844 L 72.785156 187.792969 L 72.867188 187.75 L 72.945313 187.710938 L 73.027344 187.675781 L 73.105469 187.640625 L 73.1875 187.609375 L 73.265625 187.582031 L 73.421875 187.535156 L 73.503906 187.519531 L 73.582031 187.5 L 73.667969 187.484375 L 73.75 187.46875 L 73.832031 187.457031 L 73.917969 187.445313 L 74.089844 187.429688 L 74.179688 187.425781 L 74.265625 187.421875 L 74.355469 187.421875 L 74.59375 187.429688 L 74.816406 187.453125 L 75.035156 187.492188 L 75.242188 187.546875 L 75.4375 187.621094 L 75.625 187.707031 L 75.800781 187.8125 L 75.96875 187.929688 L 76.125 188.066406 L 76.273438 188.21875 L 76.414063 188.382813 L 76.535156 188.5625 L 76.644531 188.753906 L 76.738281 188.957031 L 76.820313 189.171875 L 76.886719 189.402344 L 76.9375 189.644531 L 76.972656 189.898438 L 76.996094 190.164063 L 77.003906 190.445313 L 76.996094 190.632813 L 76.984375 190.816406 L 76.964844 190.996094 L 76.9375 191.167969 L 76.902344 191.339844 L 76.855469 191.503906 L 76.804688 191.667969 L 76.742188 191.824219 L 76.671875 191.976563 L 76.597656 192.125 L 76.515625 192.265625 L 76.425781 192.402344 L 76.328125 192.53125 L 76.226563 192.65625 L 76.117188 192.773438 L 76 192.882813 L 75.875 192.984375 L 75.746094 193.082031 L 75.605469 193.171875 L 75.460938 193.257813 L 75.3125 193.332031 L 75.15625 193.398438 L 74.996094 193.457031 L 74.832031 193.507813 L 74.660156 193.550781 L 74.484375 193.585938 L 74.304688 193.613281 L 74.121094 193.632813 L 73.933594 193.644531 L 73.738281 193.648438 L 73.421875 193.636719 L 73.113281 193.605469 L 72.8125 193.546875 L 72.519531 193.464844 L 72.234375 193.363281 L 71.960938 193.238281 L 71.691406 193.085938 L 71.433594 192.914063 L 71.183594 192.71875 L 70.941406 192.503906 L 71.667969 191.789063 L 71.847656 191.957031 L 72.03125 192.109375 L 72.226563 192.246094 L 72.421875 192.363281 L 72.628906 192.460938 L 72.835938 192.539063 L 73.054688 192.601563 L 73.277344 192.648438 L 73.503906 192.675781 L 73.738281 192.683594 L 73.929688 192.679688 L 74.109375 192.660156 L 74.28125 192.632813 L 74.445313 192.589844 L 74.597656 192.535156 L 74.742188 192.472656 L 74.878906 192.394531 L 75.007813 192.308594 L 75.128906 192.207031 L 75.238281 192.097656 L 75.339844 191.972656 L 75.429688 191.839844 L 75.507813 191.695313 L 75.578125 191.542969 L 75.636719 191.378906 L 75.683594 191.203125 L 75.722656 191.019531 L 75.75 190.824219 L 75.765625 190.617188 L 75.769531 190.402344 L 75.765625 190.191406 L 75.75 189.988281 L 75.726563 189.800781 L 75.695313 189.628906 L 75.652344 189.464844 L 75.597656 189.3125 L 75.535156 189.175781 L 75.464844 189.050781 L 75.382813 188.933594 L 75.292969 188.835938 L 75.195313 188.742188 L 75.089844 188.65625 L 74.980469 188.585938 L 74.863281 188.519531 L 74.738281 188.464844 L 74.605469 188.421875 L 74.46875 188.386719 L 74.328125 188.363281 L 74.175781 188.347656 L 74.019531 188.34375 L 73.945313 188.34375 L 73.871094 188.347656 L 73.730469 188.355469 L 73.589844 188.371094 L 73.523438 188.378906 L 73.460938 188.390625 L 73.394531 188.402344 L 73.335938 188.414063 L 73.203125 188.445313 L 73.132813 188.464844 L 72.976563 188.511719 L 72.894531 188.539063 L 72.808594 188.566406 L 72.621094 188.628906 L 72.523438 188.664063 L 71.570313 188.664063 L 71.570313 183.851563 L 76.679688 183.851563 Z M 76.511719 184.800781 "/>
<path style=" stroke:none;fill-rule:evenodd;fill:rgb(30.196078%,30.196078%,30.196078%);fill-opacity:1;" d="M 59.710938 125.191406 L 55.902344 125.191406 L 55.902344 128.230469 L 55.984375 128.183594 L 56.066406 128.140625 L 56.144531 128.101563 L 56.226563 128.0625 L 56.304688 128.03125 L 56.386719 128 L 56.542969 127.945313 L 56.625 127.925781 L 56.703125 127.90625 L 56.785156 127.886719 L 56.949219 127.855469 L 57.035156 127.84375 L 57.117188 127.832031 L 57.289063 127.816406 L 57.46875 127.808594 L 57.554688 127.808594 L 57.792969 127.816406 L 58.019531 127.839844 L 58.234375 127.878906 L 58.441406 127.9375 L 58.636719 128.007813 L 58.824219 128.097656 L 59 128.199219 L 59.167969 128.320313 L 59.328125 128.457031 L 59.472656 128.605469 L 59.613281 128.773438 L 59.734375 128.953125 L 59.84375 129.140625 L 59.941406 129.347656 L 60.019531 129.5625 L 60.085938 129.792969 L 60.136719 130.03125 L 60.171875 130.285156 L 60.195313 130.554688 L 60.203125 130.832031 L 60.199219 131.019531 L 60.1875 131.203125 L 60.164063 131.382813 L 60.136719 131.558594 L 60.101563 131.730469 L 60.054688 131.894531 L 60.003906 132.054688 L 59.941406 132.210938 L 59.875 132.363281 L 59.796875 132.511719 L 59.714844 132.65625 L 59.625 132.792969 L 59.53125 132.921875 L 59.425781 133.042969 L 59.316406 133.160156 L 59.199219 133.269531 L 59.074219 133.375 L 58.945313 133.472656 L 58.808594 133.5625 L 58.660156 133.648438 L 58.511719 133.722656 L 58.355469 133.789063 L 58.195313 133.847656 L 58.03125 133.898438 L 57.859375 133.941406 L 57.6875 133.976563 L 57.507813 134.003906 L 57.324219 134.023438 L 57.132813 134.035156 L 56.941406 134.039063 L 56.621094 134.027344 L 56.3125 133.992188 L 56.011719 133.933594 L 55.71875 133.855469 L 55.433594 133.75 L 55.160156 133.625 L 54.890625 133.476563 L 54.632813 133.304688 L 54.382813 133.109375 L 54.140625 132.890625 L 54.867188 132.175781 L 55.046875 132.347656 L 55.234375 132.5 L 55.425781 132.632813 L 55.621094 132.75 L 55.828125 132.847656 L 56.039063 132.929688 L 56.253906 132.992188 L 56.476563 133.035156 L 56.707031 133.0625 L 56.941406 133.074219 L 57.128906 133.066406 L 57.308594 133.050781 L 57.480469 133.019531 L 57.644531 132.980469 L 57.796875 132.925781 L 57.941406 132.859375 L 58.078125 132.785156 L 58.207031 132.695313 L 58.328125 132.597656 L 58.4375 132.484375 L 58.539063 132.363281 L 58.628906 132.230469 L 58.710938 132.085938 L 58.777344 131.929688 L 58.835938 131.765625 L 58.886719 131.59375 L 58.921875 131.40625 L 58.949219 131.210938 L 58.964844 131.007813 L 58.96875 130.789063 L 58.964844 130.578125 L 58.949219 130.378906 L 58.925781 130.191406 L 58.894531 130.015625 L 58.851563 129.851563 L 58.796875 129.703125 L 58.738281 129.5625 L 58.664063 129.4375 L 58.585938 129.324219 L 58.492188 129.222656 L 58.394531 129.128906 L 58.289063 129.046875 L 58.179688 128.972656 L 58.0625 128.910156 L 57.9375 128.855469 L 57.808594 128.8125 L 57.667969 128.777344 L 57.527344 128.753906 L 57.375 128.738281 L 57.21875 128.734375 L 57.070313 128.734375 L 56.929688 128.742188 L 56.859375 128.75 L 56.726563 128.765625 L 56.660156 128.777344 L 56.597656 128.789063 L 56.535156 128.804688 L 56.46875 128.816406 L 56.402344 128.835938 L 56.332031 128.855469 L 56.257813 128.875 L 56.175781 128.902344 L 56.09375 128.925781 L 56.007813 128.957031 L 55.820313 129.019531 L 55.722656 129.054688 L 54.769531 129.054688 L 54.769531 124.238281 L 59.878906 124.238281 Z M 59.710938 125.191406 "/>
<path style=" stroke:none;fill-rule:evenodd;fill:rgb(30.196078%,30.196078%,30.196078%);fill-opacity:1;" d="M 64.414063 132.808594 L 64.417969 132.703125 L 64.429688 132.605469 L 64.449219 132.511719 L 64.472656 132.417969 L 64.503906 132.332031 L 64.542969 132.246094 L 64.585938 132.164063 L 64.640625 132.085938 L 64.699219 132.011719 L 64.765625 131.9375 L 64.839844 131.871094 L 64.917969 131.808594 L 65 131.753906 L 65.082031 131.707031 L 65.167969 131.664063 L 65.257813 131.632813 L 65.351563 131.609375 L 65.445313 131.589844 L 65.546875 131.578125 L 65.648438 131.574219 L 65.753906 131.578125 L 65.855469 131.589844 L 65.949219 131.609375 L 66.042969 131.632813 L 66.132813 131.664063 L 66.222656 131.707031 L 66.304688 131.753906 L 66.382813 131.808594 L 66.457031 131.871094 L 66.53125 131.9375 L 66.597656 132.011719 L 66.65625 132.085938 L 66.707031 132.164063 L 66.753906 132.246094 L 66.792969 132.332031 L 66.824219 132.417969 L 66.847656 132.511719 L 66.867188 132.605469 L 66.875 132.703125 L 66.878906 132.808594 L 66.875 132.910156 L 66.867188 133.011719 L 66.847656 133.109375 L 66.824219 133.203125 L 66.792969 133.292969 L 66.753906 133.378906 L 66.707031 133.460938 L 66.65625 133.542969 L 66.597656 133.617188 L 66.53125 133.6875 L 66.457031 133.753906 L 66.382813 133.816406 L 66.304688 133.867188 L 66.222656 133.914063 L 66.132813 133.953125 L 66.042969 133.984375 L 65.949219 134.007813 L 65.855469 134.023438 L 65.753906 134.035156 L 65.648438 134.039063 L 65.546875 134.035156 L 65.445313 134.023438 L 65.351563 134.007813 L 65.257813 133.984375 L 65.167969 133.953125 L 65.082031 133.914063 L 65 133.867188 L 64.917969 133.816406 L 64.839844 133.753906 L 64.765625 133.6875 L 64.699219 133.613281 L 64.640625 133.535156 L 64.585938 133.457031 L 64.542969 133.371094 L 64.503906 133.285156 L 64.472656 133.195313 L 64.449219 133.105469 L 64.429688 133.007813 L 64.417969 132.910156 Z M 64.414063 132.808594 "/>
<path style=" stroke:none;fill-rule:evenodd;fill:rgb(30.196078%,30.196078%,30.196078%);fill-opacity:1;" d="M 74.0625 124.085938 L 74.363281 124.097656 L 74.648438 124.136719 L 74.917969 124.199219 L 75.175781 124.289063 L 75.417969 124.40625 L 75.644531 124.546875 L 75.855469 124.714844 L 76.050781 124.910156 L 76.234375 125.128906 L 76.398438 125.371094 L 76.554688 125.640625 L 76.691406 125.929688 L 76.8125 126.238281 L 76.917969 126.574219 L 77.007813 126.929688 L 77.082031 127.308594 L 77.140625 127.710938 L 77.179688 128.136719 L 77.203125 128.585938 L 77.210938 129.054688 L 77.203125 129.527344 L 77.179688 129.976563 L 77.140625 130.40625 L 77.082031 130.8125 L 77.007813 131.191406 L 76.917969 131.554688 L 76.8125 131.890625 L 76.691406 132.203125 L 76.554688 132.496094 L 76.398438 132.765625 L 76.234375 133.007813 L 76.050781 133.222656 L 75.855469 133.414063 L 75.644531 133.582031 L 75.417969 133.71875 L 75.175781 133.835938 L 74.917969 133.925781 L 74.648438 133.988281 L 74.363281 134.027344 L 74.0625 134.039063 L 73.761719 134.027344 L 73.476563 133.988281 L 73.203125 133.925781 L 72.945313 133.835938 L 72.703125 133.71875 L 72.476563 133.582031 L 72.261719 133.414063 L 72.0625 133.222656 L 71.878906 133.007813 L 71.710938 132.765625 L 71.558594 132.496094 L 71.421875 132.203125 L 71.304688 131.890625 L 71.199219 131.554688 L 71.113281 131.191406 L 71.039063 130.8125 L 70.984375 130.40625 L 70.945313 129.976563 L 70.921875 129.527344 L 70.910156 129.054688 L 70.921875 128.585938 L 70.945313 128.136719 L 70.984375 127.710938 L 71.039063 127.308594 L 71.113281 126.929688 L 71.199219 126.574219 L 71.304688 126.238281 L 71.421875 125.929688 L 71.558594 125.640625 L 71.710938 125.371094 L 71.878906 125.128906 L 72.0625 124.910156 L 72.261719 124.714844 L 72.476563 124.546875 L 72.703125 124.40625 L 72.945313 124.289063 L 73.203125 124.199219 L 73.476563 124.136719 L 73.761719 124.097656 Z M 74.0625 125.035156 L 73.699219 125.078125 L 73.371094 125.199219 L 73.082031 125.398438 L 72.835938 125.679688 L 72.625 126.042969 L 72.449219 126.484375 L 72.316406 127.003906 L 72.222656 127.609375 L 72.164063 128.292969 L 72.144531 129.054688 L 72.164063 129.820313 L 72.222656 130.507813 L 72.316406 131.109375 L 72.449219 131.636719 L 72.625 132.078125 L 72.835938 132.441406 L 73.082031 132.722656 L 73.371094 132.925781 L 73.699219 133.046875 L 74.0625 133.085938 L 74.425781 133.046875 L 74.753906 132.925781 L 75.039063 132.722656 L 75.289063 132.441406 L 75.5 132.078125 L 75.671875 131.636719 L 75.808594 131.109375 L 75.902344 130.507813 L 75.960938 129.820313 L 75.980469 129.054688 L 75.960938 128.292969 L 75.902344 127.609375 L 75.808594 127.003906 L 75.671875 126.484375 L 75.5 126.042969 L 75.289063 125.679688 L 75.039063 125.398438 L 74.753906 125.199219 L 74.425781 125.078125 Z M 74.0625 128.144531 L 74.140625 128.148438 L 74.214844 128.15625 L 74.285156 128.167969 L 74.355469 128.1875 L 74.421875 128.210938 L 74.488281 128.242188 L 74.550781 128.273438 L 74.609375 128.316406 L 74.664063 128.359375 L 74.71875 128.410156 L 74.769531 128.464844 L 74.816406 128.523438 L 74.855469 128.582031 L 74.890625 128.640625 L 74.917969 128.703125 L 74.945313 128.769531 L 74.960938 128.839844 L 74.976563 128.90625 L 74.984375 128.980469 L 74.984375 129.132813 L 74.976563 129.207031 L 74.945313 129.347656 L 74.890625 129.480469 L 74.855469 129.542969 L 74.816406 129.601563 L 74.769531 129.660156 L 74.71875 129.710938 L 74.664063 129.761719 L 74.609375 129.808594 L 74.550781 129.847656 L 74.488281 129.882813 L 74.421875 129.914063 L 74.355469 129.9375 L 74.214844 129.96875 L 74.140625 129.976563 L 74.0625 129.980469 L 73.984375 129.976563 L 73.910156 129.96875 L 73.769531 129.9375 L 73.703125 129.914063 L 73.636719 129.882813 L 73.574219 129.847656 L 73.515625 129.808594 L 73.457031 129.761719 L 73.402344 129.710938 L 73.355469 129.660156 L 73.3125 129.601563 L 73.277344 129.542969 L 73.242188 129.480469 L 73.214844 129.414063 L 73.191406 129.347656 L 73.160156 129.207031 L 73.15625 129.132813 L 73.152344 129.054688 L 73.160156 128.90625 L 73.175781 128.839844 L 73.191406 128.769531 L 73.214844 128.703125 L 73.242188 128.640625 L 73.3125 128.523438 L 73.355469 128.464844 L 73.402344 128.410156 L 73.457031 128.359375 L 73.574219 128.273438 L 73.636719 128.242188 L 73.703125 128.210938 L 73.769531 128.1875 L 73.839844 128.167969 L 73.910156 128.15625 L 73.984375 128.148438 Z M 74.0625 128.144531 "/>
<path style=" stroke:none;fill-rule:evenodd;fill:rgb(30.196078%,30.196078%,30.196078%);fill-opacity:1;" d="M 55.191406 74.078125 L 58.941406 65.609375 L 54.421875 65.609375 L 54.421875 64.628906 L 60.132813 64.628906 L 60.132813 65.539063 L 56.28125 74.398438 Z M 55.191406 74.078125 "/>
<path style=" stroke:none;fill-rule:evenodd;fill:rgb(30.196078%,30.196078%,30.196078%);fill-opacity:1;" d="M 64.414063 73.195313 L 64.417969 73.09375 L 64.429688 72.996094 L 64.449219 72.898438 L 64.472656 72.808594 L 64.503906 72.71875 L 64.542969 72.632813 L 64.585938 72.550781 L 64.640625 72.472656 L 64.699219 72.398438 L 64.765625 72.328125 L 64.839844 72.257813 L 64.917969 72.195313 L 65 72.140625 L 65.082031 72.09375 L 65.167969 72.054688 L 65.257813 72.023438 L 65.351563 71.996094 L 65.445313 71.976563 L 65.546875 71.96875 L 65.648438 71.964844 L 65.753906 71.96875 L 65.855469 71.976563 L 65.949219 71.996094 L 66.042969 72.023438 L 66.132813 72.054688 L 66.222656 72.09375 L 66.304688 72.140625 L 66.382813 72.195313 L 66.457031 72.257813 L 66.53125 72.328125 L 66.597656 72.398438 L 66.65625 72.472656 L 66.707031 72.550781 L 66.753906 72.632813 L 66.792969 72.71875 L 66.824219 72.808594 L 66.847656 72.898438 L 66.867188 72.996094 L 66.875 73.09375 L 66.878906 73.195313 L 66.875 73.300781 L 66.867188 73.402344 L 66.847656 73.5 L 66.824219 73.59375 L 66.792969 73.683594 L 66.753906 73.769531 L 66.707031 73.851563 L 66.65625 73.929688 L 66.597656 74.003906 L 66.53125 74.078125 L 66.457031 74.144531 L 66.382813 74.203125 L 66.304688 74.257813 L 66.222656 74.300781 L 66.132813 74.339844 L 66.042969 74.371094 L 65.949219 74.394531 L 65.855469 74.414063 L 65.753906 74.425781 L 65.546875 74.425781 L 65.445313 74.414063 L 65.351563 74.394531 L 65.257813 74.371094 L 65.167969 74.339844 L 65.082031 74.300781 L 65 74.257813 L 64.917969 74.203125 L 64.839844 74.144531 L 64.765625 74.078125 L 64.699219 74.003906 L 64.640625 73.925781 L 64.585938 73.84375 L 64.542969 73.761719 L 64.503906 73.675781 L 64.472656 73.585938 L 64.449219 73.492188 L 64.429688 73.398438 L 64.417969 73.296875 Z M 64.414063 73.195313 "/>
<path style=" stroke:none;fill-rule:evenodd;fill:rgb(30.196078%,30.196078%,30.196078%);fill-opacity:1;" d="M 76.511719 65.578125 L 72.703125 65.578125 L 72.703125 68.617188 L 72.785156 68.570313 L 72.867188 68.527344 L 72.945313 68.488281 L 73.027344 68.453125 L 73.105469 68.417969 L 73.1875 68.386719 L 73.265625 68.359375 L 73.421875 68.3125 L 73.503906 68.296875 L 73.582031 68.277344 L 73.667969 68.261719 L 73.75 68.246094 L 73.832031 68.234375 L 73.917969 68.222656 L 74.089844 68.207031 L 74.179688 68.203125 L 74.265625 68.199219 L 74.355469 68.199219 L 74.59375 68.207031 L 74.816406 68.230469 L 75.035156 68.269531 L 75.242188 68.324219 L 75.4375 68.398438 L 75.625 68.484375 L 75.800781 68.589844 L 75.96875 68.707031 L 76.125 68.84375 L 76.273438 68.996094 L 76.414063 69.160156 L 76.535156 69.339844 L 76.644531 69.53125 L 76.738281 69.734375 L 76.820313 69.949219 L 76.886719 70.179688 L 76.9375 70.421875 L 76.972656 70.675781 L 76.996094 70.941406 L 77.003906 71.222656 L 76.996094 71.410156 L 76.984375 71.59375 L 76.964844 71.773438 L 76.9375 71.949219 L 76.902344 72.117188 L 76.855469 72.285156 L 76.804688 72.445313 L 76.742188 72.601563 L 76.671875 72.753906 L 76.597656 72.902344 L 76.515625 73.042969 L 76.425781 73.179688 L 76.328125 73.308594 L 76.226563 73.433594 L 76.117188 73.550781 L 76 73.660156 L 75.875 73.761719 L 75.746094 73.859375 L 75.605469 73.953125 L 75.460938 74.035156 L 75.3125 74.109375 L 75.15625 74.175781 L 74.996094 74.234375 L 74.832031 74.285156 L 74.660156 74.328125 L 74.484375 74.363281 L 74.304688 74.390625 L 74.121094 74.410156 L 73.933594 74.421875 L 73.738281 74.425781 L 73.421875 74.417969 L 73.113281 74.382813 L 72.8125 74.324219 L 72.519531 74.242188 L 72.234375 74.140625 L 71.960938 74.015625 L 71.691406 73.863281 L 71.433594 73.691406 L 71.183594 73.496094 L 70.941406 73.28125 L 71.667969 72.566406 L 71.847656 72.734375 L 72.03125 72.886719 L 72.226563 73.023438 L 72.421875 73.140625 L 72.628906 73.238281 L 72.835938 73.316406 L 73.054688 73.382813 L 73.277344 73.425781 L 73.503906 73.453125 L 73.738281 73.460938 L 73.929688 73.457031 L 74.109375 73.4375 L 74.28125 73.410156 L 74.445313 73.367188 L 74.597656 73.316406 L 74.742188 73.25 L 74.878906 73.171875 L 75.007813 73.085938 L 75.128906 72.984375 L 75.238281 72.875 L 75.339844 72.75 L 75.429688 72.617188 L 75.507813 72.472656 L 75.578125 72.320313 L 75.636719 72.15625 L 75.683594 71.980469 L 75.722656 71.796875 L 75.75 71.601563 L 75.765625 71.394531 L 75.769531 71.179688 L 75.765625 70.96875 L 75.75 70.765625 L 75.726563 70.578125 L 75.695313 70.40625 L 75.652344 70.242188 L 75.597656 70.089844 L 75.535156 69.953125 L 75.464844 69.828125 L 75.382813 69.714844 L 75.292969 69.613281 L 75.195313 69.519531 L 75.089844 69.433594 L 74.980469 69.363281 L 74.863281 69.296875 L 74.738281 69.242188 L 74.605469 69.199219 L 74.46875 69.164063 L 74.328125 69.140625 L 74.175781 69.125 L 74.019531 69.121094 L 73.945313 69.121094 L 73.871094 69.125 L 73.730469 69.132813 L 73.589844 69.148438 L 73.523438 69.15625 L 73.460938 69.167969 L 73.394531 69.179688 L 73.335938 69.191406 L 73.203125 69.222656 L 73.132813 69.242188 L 72.976563 69.289063 L 72.894531 69.316406 L 72.808594 69.34375 L 72.714844 69.375 L 72.621094 69.410156 L 72.523438 69.445313 L 71.570313 69.445313 L 71.570313 64.628906 L 76.679688 64.628906 Z M 76.511719 65.578125 "/>
<path style="fill:none;stroke-width:1.115477;stroke-linecap:butt;stroke-linejoin:round;stroke:rgb(66.27451%,66.27451%,66.27451%);stroke-opacity:1;stroke-miterlimit:10;" d="M 81.125 246.957031 L 277.652344 246.957031 "/>
<path style=" stroke:none;fill-rule:evenodd;fill:rgb(30.196078%,30.196078%,30.196078%);fill-opacity:1;" d="M 103.988281 249.667969 L 104.289063 249.679688 L 104.574219 249.71875 L 104.84375 249.78125 L 105.101563 249.871094 L 105.339844 249.988281 L 105.566406 250.128906 L 105.78125 250.296875 L 105.976563 250.492188 L 106.15625 250.710938 L 106.324219 250.953125 L 106.480469 251.21875 L 106.617188 251.507813 L 106.738281 251.820313 L 106.84375 252.15625 L 106.933594 252.511719 L 107.007813 252.890625 L 107.0625 253.292969 L 107.105469 253.71875 L 107.128906 254.164063 L 107.136719 254.636719 L 107.128906 255.109375 L 107.105469 255.558594 L 107.0625 255.988281 L 107.007813 256.390625 L 106.933594 256.773438 L 106.84375 257.132813 L 106.738281 257.472656 L 106.617188 257.785156 L 106.480469 258.078125 L 106.324219 258.347656 L 106.15625 258.589844 L 105.976563 258.804688 L 105.78125 258.996094 L 105.566406 259.160156 L 105.339844 259.300781 L 105.101563 259.417969 L 104.84375 259.503906 L 104.574219 259.570313 L 104.289063 259.605469 L 103.988281 259.621094 L 103.6875 259.605469 L 103.398438 259.570313 L 103.128906 259.503906 L 102.871094 259.417969 L 102.628906 259.300781 L 102.402344 259.160156 L 102.1875 258.996094 L 101.988281 258.804688 L 101.804688 258.589844 L 101.636719 258.347656 L 101.484375 258.078125 L 101.347656 257.785156 L 101.226563 257.472656 L 101.125 257.132813 L 101.035156 256.773438 L 100.964844 256.390625 L 100.910156 255.988281 L 100.867188 255.558594 L 100.84375 255.109375 L 100.835938 254.636719 L 100.84375 254.164063 L 100.867188 253.71875 L 100.910156 253.292969 L 100.964844 252.890625 L 101.035156 252.511719 L 101.125 252.15625 L 101.226563 251.820313 L 101.347656 251.507813 L 101.484375 251.21875 L 101.636719 250.953125 L 101.804688 250.710938 L 101.988281 250.492188 L 102.1875 250.296875 L 102.402344 250.128906 L 102.628906 249.988281 L 102.871094 249.871094 L 103.128906 249.78125 L 103.398438 249.71875 L 103.6875 249.679688 Z M 103.988281 250.617188 L 103.621094 250.660156 L 103.296875 250.777344 L 103.007813 250.980469 L 102.757813 251.261719 L 102.546875 251.621094 L 102.375 252.066406 L 102.242188 252.585938 L 102.144531 253.191406 L 102.089844 253.871094 L 102.070313 254.636719 L 102.089844 255.402344 L 102.144531 256.085938 L 102.242188 256.691406 L 102.375 257.214844 L 102.546875 257.660156 L 102.757813 258.023438 L 103.007813 258.304688 L 103.296875 258.507813 L 103.621094 258.628906 L 103.988281 258.667969 L 104.351563 258.628906 L 104.675781 258.507813 L 104.964844 258.304688 L 105.214844 258.023438 L 105.425781 257.660156 L 105.597656 257.214844 L 105.734375 256.691406 L 105.828125 256.085938 L 105.886719 255.402344 L 105.90625 254.636719 L 105.886719 253.871094 L 105.828125 253.191406 L 105.734375 252.585938 L 105.597656 252.066406 L 105.425781 251.621094 L 105.214844 251.261719 L 104.964844 250.980469 L 104.675781 250.777344 L 104.351563 250.660156 Z M 103.988281 253.726563 L 104.0625 253.730469 L 104.140625 253.738281 L 104.210938 253.75 L 104.28125 253.769531 L 104.347656 253.792969 L 104.414063 253.820313 L 104.472656 253.855469 L 104.535156 253.894531 L 104.589844 253.941406 L 104.644531 253.992188 L 104.695313 254.046875 L 104.742188 254.101563 L 104.78125 254.160156 L 104.816406 254.222656 L 104.84375 254.285156 L 104.867188 254.351563 L 104.886719 254.417969 L 104.902344 254.488281 L 104.910156 254.5625 L 104.910156 254.714844 L 104.902344 254.789063 L 104.886719 254.859375 L 104.867188 254.929688 L 104.84375 254.996094 L 104.816406 255.0625 L 104.78125 255.125 L 104.742188 255.183594 L 104.695313 255.238281 L 104.644531 255.292969 L 104.589844 255.34375 L 104.535156 255.390625 L 104.472656 255.429688 L 104.414063 255.464844 L 104.347656 255.492188 L 104.28125 255.515625 L 104.210938 255.535156 L 104.140625 255.550781 L 104.0625 255.558594 L 103.910156 255.558594 L 103.835938 255.550781 L 103.761719 255.535156 L 103.695313 255.515625 L 103.625 255.492188 L 103.5625 255.464844 L 103.5 255.429688 L 103.441406 255.390625 L 103.382813 255.34375 L 103.328125 255.292969 L 103.28125 255.238281 L 103.238281 255.183594 L 103.199219 255.125 L 103.167969 255.0625 L 103.140625 254.996094 L 103.117188 254.929688 L 103.085938 254.789063 L 103.078125 254.714844 L 103.078125 254.5625 L 103.085938 254.488281 L 103.101563 254.417969 L 103.117188 254.351563 L 103.140625 254.285156 L 103.167969 254.222656 L 103.199219 254.160156 L 103.238281 254.101563 L 103.28125 254.046875 L 103.328125 253.992188 L 103.382813 253.941406 L 103.441406 253.894531 L 103.5 253.855469 L 103.5625 253.820313 L 103.625 253.792969 L 103.695313 253.769531 L 103.761719 253.75 L 103.835938 253.738281 L 103.910156 253.730469 Z M 103.988281 253.726563 "/>
<path style=" stroke:none;fill-rule:evenodd;fill:rgb(30.196078%,30.196078%,30.196078%);fill-opacity:1;" d="M 161.753906 250.773438 L 157.945313 250.773438 L 157.945313 253.808594 L 158.109375 253.722656 L 158.1875 253.679688 L 158.269531 253.644531 L 158.347656 253.609375 L 158.429688 253.578125 L 158.507813 253.550781 L 158.585938 253.527344 L 158.667969 253.507813 L 158.746094 253.488281 L 158.828125 253.46875 L 158.992188 253.4375 L 159.078125 253.425781 L 159.160156 253.414063 L 159.332031 253.398438 L 159.421875 253.394531 L 159.507813 253.390625 L 159.597656 253.390625 L 159.835938 253.398438 L 160.0625 253.421875 L 160.277344 253.460938 L 160.484375 253.519531 L 160.679688 253.589844 L 160.867188 253.675781 L 161.042969 253.78125 L 161.210938 253.902344 L 161.371094 254.035156 L 161.515625 254.1875 L 161.65625 254.355469 L 161.777344 254.53125 L 161.886719 254.722656 L 161.984375 254.925781 L 162.0625 255.144531 L 162.128906 255.371094 L 162.179688 255.613281 L 162.214844 255.867188 L 162.238281 256.132813 L 162.246094 256.414063 L 162.242188 256.601563 L 162.230469 256.785156 L 162.207031 256.964844 L 162.179688 257.140625 L 162.144531 257.308594 L 162.097656 257.476563 L 162.046875 257.636719 L 161.984375 257.792969 L 161.914063 257.945313 L 161.839844 258.09375 L 161.757813 258.238281 L 161.667969 258.371094 L 161.570313 258.5 L 161.46875 258.625 L 161.359375 258.742188 L 161.242188 258.851563 L 161.117188 258.957031 L 160.988281 259.054688 L 160.851563 259.144531 L 160.703125 259.226563 L 160.554688 259.300781 L 160.398438 259.371094 L 160.238281 259.429688 L 160.074219 259.480469 L 159.902344 259.523438 L 159.730469 259.558594 L 159.550781 259.585938 L 159.367188 259.605469 L 159.175781 259.617188 L 158.984375 259.621094 L 158.664063 259.609375 L 158.355469 259.574219 L 158.054688 259.515625 L 157.761719 259.4375 L 157.476563 259.332031 L 157.203125 259.207031 L 156.933594 259.058594 L 156.675781 258.886719 L 156.425781 258.691406 L 156.183594 258.472656 L 156.910156 257.757813 L 157.089844 257.929688 L 157.277344 258.082031 L 157.46875 258.214844 L 157.664063 258.332031 L 157.871094 258.429688 L 158.082031 258.511719 L 158.296875 258.574219 L 158.519531 258.617188 L 158.746094 258.644531 L 158.984375 258.652344 L 159.171875 258.648438 L 159.351563 258.628906 L 159.523438 258.601563 L 159.6875 258.558594 L 159.839844 258.507813 L 159.984375 258.441406 L 160.121094 258.367188 L 160.25 258.277344 L 160.371094 258.179688 L 160.480469 258.066406 L 160.582031 257.941406 L 160.671875 257.808594 L 160.753906 257.667969 L 160.820313 257.511719 L 160.878906 257.347656 L 160.929688 257.175781 L 160.964844 256.988281 L 160.992188 256.792969 L 161.007813 256.589844 L 161.011719 256.371094 L 161.007813 256.160156 L 160.992188 255.960938 L 160.96875 255.773438 L 160.9375 255.597656 L 160.894531 255.433594 L 160.839844 255.285156 L 160.78125 255.144531 L 160.707031 255.019531 L 160.628906 254.90625 L 160.535156 254.804688 L 160.4375 254.710938 L 160.332031 254.628906 L 160.222656 254.554688 L 160.105469 254.492188 L 159.980469 254.4375 L 159.851563 254.390625 L 159.710938 254.359375 L 159.570313 254.332031 L 159.417969 254.320313 L 159.261719 254.3125 L 159.1875 254.316406 L 159.113281 254.316406 L 158.972656 254.324219 L 158.902344 254.332031 L 158.769531 254.347656 L 158.703125 254.359375 L 158.578125 254.382813 L 158.511719 254.398438 L 158.445313 254.417969 L 158.375 254.4375 L 158.300781 254.457031 L 158.21875 254.480469 L 158.136719 254.507813 L 158.050781 254.535156 L 157.957031 254.566406 L 157.863281 254.601563 L 157.765625 254.636719 L 156.8125 254.636719 L 156.8125 249.820313 L 161.921875 249.820313 Z M 161.753906 250.773438 "/>
<path style=" stroke:none;fill-rule:evenodd;fill:rgb(30.196078%,30.196078%,30.196078%);fill-opacity:1;" d="M 213.460938 258.515625 L 213.460938 259.464844 L 207.902344 259.464844 L 207.902344 258.515625 L 210.269531 258.515625 L 210.269531 251.109375 L 208.070313 252.4375 L 207.550781 251.613281 L 210.421875 249.820313 L 211.457031 249.820313 L 211.457031 258.515625 Z M 213.460938 258.515625 "/>
<path style=" stroke:none;fill-rule:evenodd;fill:rgb(30.196078%,30.196078%,30.196078%);fill-opacity:1;" d="M 218.824219 249.667969 L 219.125 249.679688 L 219.410156 249.71875 L 219.679688 249.78125 L 219.9375 249.871094 L 220.175781 249.988281 L 220.402344 250.128906 L 220.613281 250.296875 L 220.8125 250.492188 L 220.992188 250.710938 L 221.160156 250.953125 L 221.316406 251.21875 L 221.453125 251.507813 L 221.574219 251.820313 L 221.679688 252.15625 L 221.769531 252.511719 L 221.84375 252.890625 L 221.898438 253.292969 L 221.941406 253.71875 L 221.964844 254.164063 L 221.972656 254.636719 L 221.964844 255.109375 L 221.941406 255.558594 L 221.898438 255.988281 L 221.84375 256.390625 L 221.769531 256.773438 L 221.679688 257.132813 L 221.574219 257.472656 L 221.453125 257.785156 L 221.316406 258.078125 L 221.160156 258.347656 L 220.992188 258.589844 L 220.8125 258.804688 L 220.613281 258.996094 L 220.402344 259.160156 L 220.175781 259.300781 L 219.9375 259.417969 L 219.679688 259.503906 L 219.410156 259.570313 L 219.125 259.605469 L 218.824219 259.621094 L 218.523438 259.605469 L 218.234375 259.570313 L 217.964844 259.503906 L 217.707031 259.417969 L 217.464844 259.300781 L 217.238281 259.160156 L 217.023438 258.996094 L 216.824219 258.804688 L 216.640625 258.589844 L 216.46875 258.347656 L 216.320313 258.078125 L 216.183594 257.785156 L 216.0625 257.472656 L 215.960938 257.132813 L 215.871094 256.773438 L 215.800781 256.390625 L 215.746094 255.988281 L 215.703125 255.558594 L 215.679688 255.109375 L 215.671875 254.636719 L 215.679688 254.164063 L 215.703125 253.71875 L 215.746094 253.292969 L 215.800781 252.890625 L 215.871094 252.511719 L 215.960938 252.15625 L 216.0625 251.820313 L 216.183594 251.507813 L 216.320313 251.21875 L 216.46875 250.953125 L 216.640625 250.710938 L 216.824219 250.492188 L 217.023438 250.296875 L 217.238281 250.128906 L 217.464844 249.988281 L 217.707031 249.871094 L 217.964844 249.78125 L 218.234375 249.71875 L 218.523438 249.679688 Z M 218.824219 250.617188 L 218.457031 250.660156 L 218.132813 250.777344 L 217.84375 250.980469 L 217.59375 251.261719 L 217.382813 251.621094 L 217.210938 252.066406 L 217.078125 252.585938 L 216.980469 253.191406 L 216.921875 253.871094 L 216.90625 254.636719 L 216.921875 255.402344 L 216.980469 256.085938 L 217.078125 256.691406 L 217.210938 257.214844 L 217.382813 257.660156 L 217.59375 258.023438 L 217.84375 258.304688 L 218.132813 258.507813 L 218.457031 258.628906 L 218.824219 258.667969 L 219.1875 258.628906 L 219.511719 258.507813 L 219.800781 258.304688 L 220.050781 258.023438 L 220.261719 257.660156 L 220.433594 257.214844 L 220.566406 256.691406 L 220.664063 256.085938 L 220.722656 255.402344 L 220.742188 254.636719 L 220.722656 253.871094 L 220.664063 253.191406 L 220.566406 252.585938 L 220.433594 252.066406 L 220.261719 251.621094 L 220.050781 251.261719 L 219.800781 250.980469 L 219.511719 250.777344 L 219.1875 250.660156 Z M 218.824219 253.726563 L 218.898438 253.730469 L 218.972656 253.738281 L 219.046875 253.75 L 219.117188 253.769531 L 219.183594 253.792969 L 219.246094 253.820313 L 219.308594 253.855469 L 219.371094 253.894531 L 219.425781 253.941406 L 219.480469 253.992188 L 219.53125 254.046875 L 219.578125 254.101563 L 219.617188 254.160156 L 219.652344 254.222656 L 219.679688 254.285156 L 219.703125 254.351563 L 219.722656 254.417969 L 219.734375 254.488281 L 219.742188 254.5625 L 219.746094 254.636719 L 219.742188 254.714844 L 219.734375 254.789063 L 219.722656 254.859375 L 219.703125 254.929688 L 219.679688 254.996094 L 219.652344 255.0625 L 219.617188 255.125 L 219.578125 255.183594 L 219.53125 255.238281 L 219.480469 255.292969 L 219.425781 255.34375 L 219.371094 255.390625 L 219.308594 255.429688 L 219.246094 255.464844 L 219.183594 255.492188 L 219.117188 255.515625 L 219.046875 255.535156 L 218.972656 255.550781 L 218.898438 255.558594 L 218.746094 255.558594 L 218.671875 255.550781 L 218.597656 255.535156 L 218.527344 255.515625 L 218.460938 255.492188 L 218.398438 255.464844 L 218.335938 255.429688 L 218.277344 255.390625 L 218.21875 255.34375 L 218.164063 255.292969 L 218.117188 255.238281 L 218.074219 255.183594 L 218.035156 255.125 L 218.003906 255.0625 L 217.976563 254.996094 L 217.953125 254.929688 L 217.933594 254.859375 L 217.921875 254.789063 L 217.914063 254.714844 L 217.914063 254.5625 L 217.921875 254.488281 L 217.933594 254.417969 L 217.953125 254.351563 L 217.976563 254.285156 L 218.003906 254.222656 L 218.035156 254.160156 L 218.074219 254.101563 L 218.117188 254.046875 L 218.164063 253.992188 L 218.21875 253.941406 L 218.277344 253.894531 L 218.335938 253.855469 L 218.398438 253.820313 L 218.460938 253.792969 L 218.527344 253.769531 L 218.597656 253.75 L 218.671875 253.738281 L 218.746094 253.730469 Z M 218.824219 253.726563 "/>
<path style=" stroke:none;fill-rule:evenodd;fill:rgb(30.196078%,30.196078%,30.196078%);fill-opacity:1;" d="M 268.777344 258.515625 L 268.777344 259.464844 L 263.21875 259.464844 L 263.21875 258.515625 L 265.585938 258.515625 L 265.585938 251.109375 L 263.386719 252.4375 L 262.871094 251.613281 L 265.742188 249.820313 L 266.777344 249.820313 L 266.777344 258.515625 Z M 268.777344 258.515625 "/>
<path style=" stroke:none;fill-rule:evenodd;fill:rgb(30.196078%,30.196078%,30.196078%);fill-opacity:1;" d="M 276.589844 250.773438 L 272.78125 250.773438 L 272.78125 253.808594 L 272.945313 253.722656 L 273.023438 253.679688 L 273.105469 253.644531 L 273.183594 253.609375 L 273.265625 253.578125 L 273.34375 253.550781 L 273.421875 253.527344 L 273.5 253.507813 L 273.582031 253.488281 L 273.660156 253.46875 L 273.746094 253.453125 L 273.828125 253.4375 L 273.910156 253.425781 L 273.996094 253.414063 L 274.167969 253.398438 L 274.257813 253.394531 L 274.34375 253.390625 L 274.433594 253.390625 L 274.671875 253.398438 L 274.894531 253.421875 L 275.113281 253.460938 L 275.320313 253.519531 L 275.515625 253.589844 L 275.703125 253.675781 L 275.878906 253.78125 L 276.046875 253.902344 L 276.203125 254.035156 L 276.351563 254.1875 L 276.492188 254.355469 L 276.613281 254.53125 L 276.722656 254.722656 L 276.816406 254.925781 L 276.898438 255.144531 L 276.964844 255.371094 L 277.015625 255.613281 L 277.050781 255.867188 L 277.074219 256.132813 L 277.082031 256.414063 L 277.078125 256.601563 L 277.0625 256.785156 L 277.042969 256.964844 L 277.015625 257.140625 L 276.980469 257.308594 L 276.933594 257.476563 L 276.882813 257.636719 L 276.820313 257.792969 L 276.75 257.945313 L 276.675781 258.09375 L 276.59375 258.238281 L 276.503906 258.371094 L 276.40625 258.5 L 276.304688 258.625 L 276.195313 258.742188 L 276.078125 258.851563 L 275.953125 258.957031 L 275.824219 259.054688 L 275.683594 259.144531 L 275.539063 259.226563 L 275.390625 259.300781 L 275.234375 259.371094 L 275.074219 259.429688 L 274.910156 259.480469 L 274.738281 259.523438 L 274.5625 259.558594 L 274.386719 259.585938 L 274.199219 259.605469 L 274.011719 259.617188 L 273.820313 259.621094 L 273.5 259.609375 L 273.191406 259.574219 L 272.890625 259.515625 L 272.597656 259.4375 L 272.3125 259.332031 L 272.039063 259.207031 L 271.769531 259.058594 L 271.511719 258.886719 L 271.261719 258.691406 L 271.019531 258.472656 L 271.746094 257.757813 L 271.925781 257.929688 L 272.113281 258.082031 L 272.304688 258.214844 L 272.5 258.332031 L 272.707031 258.429688 L 272.914063 258.511719 L 273.132813 258.574219 L 273.355469 258.617188 L 273.582031 258.644531 L 273.820313 258.652344 L 274.007813 258.648438 L 274.1875 258.628906 L 274.359375 258.601563 L 274.523438 258.558594 L 274.675781 258.507813 L 274.820313 258.441406 L 274.957031 258.367188 L 275.085938 258.277344 L 275.207031 258.179688 L 275.316406 258.066406 L 275.417969 257.941406 L 275.507813 257.808594 L 275.585938 257.667969 L 275.65625 257.511719 L 275.714844 257.347656 L 275.761719 257.175781 L 275.800781 256.988281 L 275.828125 256.792969 L 275.84375 256.589844 L 275.847656 256.371094 L 275.84375 256.160156 L 275.828125 255.960938 L 275.804688 255.773438 L 275.773438 255.597656 L 275.730469 255.433594 L 275.675781 255.285156 L 275.613281 255.144531 L 275.542969 255.019531 L 275.460938 254.90625 L 275.371094 254.804688 L 275.273438 254.710938 L 275.167969 254.628906 L 275.058594 254.554688 L 274.941406 254.492188 L 274.816406 254.4375 L 274.683594 254.390625 L 274.546875 254.359375 L 274.40625 254.332031 L 274.253906 254.320313 L 274.097656 254.3125 L 274.023438 254.316406 L 273.949219 254.316406 L 273.808594 254.324219 L 273.738281 254.332031 L 273.671875 254.339844 L 273.601563 254.347656 L 273.414063 254.382813 L 273.347656 254.398438 L 273.28125 254.417969 L 273.210938 254.4375 L 273.132813 254.457031 L 273.054688 254.480469 L 272.972656 254.507813 L 272.886719 254.535156 L 272.792969 254.566406 L 272.699219 254.601563 L 272.601563 254.636719 L 271.648438 254.636719 L 271.648438 249.820313 L 276.757813 249.820313 Z M 276.589844 250.773438 "/>
<path style=" stroke:none;fill-rule:evenodd;fill:rgb(0%,0%,0%);fill-opacity:1;" d="M 265.683594 267.980469 L 265.984375 267.992188 L 266.273438 268.03125 L 266.542969 268.09375 L 266.796875 268.183594 L 267.039063 268.300781 L 267.261719 268.441406 L 267.472656 268.605469 L 267.664063 268.796875 L 267.84375 269.015625 L 268.003906 269.257813 L 268.15625 269.523438 L 268.289063 269.8125 L 268.410156 270.125 L 268.511719 270.457031 L 268.597656 270.8125 L 268.671875 271.1875 L 268.726563 271.585938 L 268.765625 272.003906 L 268.789063 272.449219 L 268.796875 272.914063 L 268.789063 273.363281 L 268.761719 273.796875 L 268.71875 274.207031 L 268.65625 274.601563 L 268.578125 274.976563 L 268.480469 275.332031 L 268.367188 275.671875 L 268.234375 275.988281 L 268.082031 276.285156 L 267.914063 276.566406 L 267.734375 276.824219 L 267.542969 277.050781 L 267.332031 277.253906 L 267.113281 277.429688 L 266.875 277.578125 L 266.625 277.699219 L 266.363281 277.792969 L 266.082031 277.863281 L 265.792969 277.902344 L 265.484375 277.917969 L 265.210938 277.90625 L 264.945313 277.871094 L 264.691406 277.8125 L 264.449219 277.734375 L 264.214844 277.632813 L 263.996094 277.507813 L 263.785156 277.359375 L 263.585938 277.191406 L 263.394531 276.996094 L 263.21875 276.78125 L 263.21875 281.28125 L 261.597656 281.480469 L 261.597656 268.214844 L 263.019531 268.214844 L 263.109375 269.492188 L 263.308594 269.203125 L 263.523438 268.949219 L 263.75 268.722656 L 263.988281 268.523438 L 264.238281 268.359375 L 264.503906 268.222656 L 264.777344 268.117188 L 265.066406 268.039063 L 265.371094 267.996094 Z M 265.109375 276.621094 L 265.488281 276.582031 L 265.828125 276.472656 L 266.125 276.289063 L 266.386719 276.03125 L 266.605469 275.699219 L 266.785156 275.292969 L 266.925781 274.8125 L 267.027344 274.257813 L 267.085938 273.632813 L 267.105469 272.929688 L 267.101563 272.554688 L 267.085938 272.203125 L 267.0625 271.871094 L 267.03125 271.558594 L 266.988281 271.269531 L 266.9375 271 L 266.875 270.753906 L 266.804688 270.527344 L 266.726563 270.324219 L 266.636719 270.140625 L 266.542969 269.972656 L 266.4375 269.824219 L 266.324219 269.691406 L 266.199219 269.574219 L 266.066406 269.480469 L 265.921875 269.398438 L 265.769531 269.335938 L 265.605469 269.292969 L 265.433594 269.265625 L 265.25 269.257813 L 265.128906 269.261719 L 265.003906 269.273438 L 264.886719 269.292969 L 264.769531 269.320313 L 264.65625 269.351563 L 264.546875 269.394531 L 264.441406 269.445313 L 264.335938 269.5 L 264.234375 269.566406 L 264.136719 269.636719 L 264.039063 269.714844 L 263.941406 269.796875 L 263.847656 269.886719 L 263.753906 269.980469 L 263.664063 270.082031 L 263.570313 270.1875 L 263.480469 270.296875 L 263.390625 270.414063 L 263.304688 270.535156 L 263.21875 270.664063 L 263.21875 275.449219 L 263.371094 275.671875 L 263.53125 275.871094 L 263.699219 276.046875 L 263.875 276.199219 L 264.058594 276.328125 L 264.253906 276.433594 L 264.453125 276.515625 L 264.664063 276.574219 L 264.882813 276.609375 Z M 265.109375 276.621094 "/>
<path style=" stroke:none;fill-rule:evenodd;fill:rgb(0%,0%,0%);fill-opacity:1;" d="M 273.371094 265.441406 L 273.570313 265.445313 L 273.769531 265.460938 L 273.960938 265.480469 L 274.144531 265.511719 L 274.324219 265.550781 L 274.496094 265.597656 L 274.664063 265.652344 L 274.828125 265.71875 L 274.984375 265.792969 L 275.132813 265.875 L 275.28125 265.960938 L 275.421875 266.054688 L 275.554688 266.152344 L 275.679688 266.257813 L 275.800781 266.371094 L 275.910156 266.488281 L 276.015625 266.613281 L 276.113281 266.742188 L 276.203125 266.882813 L 276.285156 267.027344 L 276.359375 267.171875 L 276.429688 267.320313 L 276.488281 267.476563 L 276.539063 267.632813 L 276.582031 267.796875 L 276.617188 267.960938 L 276.644531 268.132813 L 276.664063 268.304688 L 276.675781 268.484375 L 276.679688 268.664063 L 276.675781 268.882813 L 276.664063 269.097656 L 276.644531 269.3125 L 276.613281 269.527344 L 276.574219 269.734375 L 276.527344 269.941406 L 276.46875 270.148438 L 276.40625 270.351563 L 276.332031 270.554688 L 276.25 270.753906 L 276.160156 270.949219 L 276.0625 271.152344 L 275.953125 271.355469 L 275.835938 271.566406 L 275.703125 271.78125 L 275.566406 272.003906 L 275.414063 272.226563 L 275.253906 272.457031 L 275.082031 272.691406 L 274.898438 272.929688 L 274.703125 273.179688 L 274.484375 273.453125 L 274.246094 273.746094 L 273.988281 274.054688 L 273.710938 274.386719 L 273.414063 274.742188 L 273.09375 275.113281 L 272.757813 275.503906 L 272.398438 275.917969 L 272.019531 276.351563 L 276.953125 276.351563 L 276.753906 277.683594 L 270.238281 277.683594 L 270.238281 276.421875 L 270.644531 275.953125 L 271.027344 275.503906 L 271.386719 275.082031 L 271.726563 274.679688 L 272.042969 274.304688 L 272.335938 273.949219 L 272.605469 273.617188 L 272.851563 273.3125 L 273.078125 273.027344 L 273.28125 272.769531 L 273.46875 272.523438 L 273.644531 272.285156 L 273.808594 272.054688 L 273.960938 271.832031 L 274.101563 271.617188 L 274.230469 271.40625 L 274.347656 271.207031 L 274.453125 271.011719 L 274.546875 270.824219 L 274.628906 270.644531 L 274.703125 270.464844 L 274.765625 270.28125 L 274.824219 270.097656 L 274.871094 269.910156 L 274.914063 269.722656 L 274.945313 269.53125 L 274.972656 269.339844 L 274.992188 269.148438 L 275.003906 268.953125 L 275.007813 268.753906 L 275.003906 268.566406 L 274.988281 268.390625 L 274.964844 268.222656 L 274.929688 268.058594 L 274.886719 267.910156 L 274.832031 267.765625 L 274.769531 267.628906 L 274.695313 267.503906 L 274.613281 267.386719 L 274.523438 267.277344 L 274.425781 267.179688 L 274.320313 267.089844 L 274.210938 267.011719 L 274.09375 266.945313 L 273.96875 266.886719 L 273.835938 266.839844 L 273.699219 266.804688 L 273.554688 266.777344 L 273.402344 266.761719 L 273.242188 266.757813 L 273.109375 266.757813 L 272.976563 266.769531 L 272.847656 266.785156 L 272.726563 266.804688 L 272.605469 266.832031 L 272.488281 266.867188 L 272.375 266.90625 L 272.265625 266.953125 L 272.15625 267.003906 L 272.054688 267.0625 L 271.953125 267.128906 L 271.851563 267.199219 L 271.75 267.277344 L 271.648438 267.363281 L 271.542969 267.457031 L 271.4375 267.558594 L 271.332031 267.667969 L 271.226563 267.78125 L 271.121094 267.90625 L 271.011719 268.035156 L 270.003906 267.261719 L 270.273438 266.914063 L 270.558594 266.605469 L 270.859375 266.332031 L 271.171875 266.097656 L 271.503906 265.898438 L 271.847656 265.734375 L 272.203125 265.605469 L 272.578125 265.515625 L 272.964844 265.460938 Z M 273.371094 265.441406 "/>
<path style=" stroke:none;fill-rule:evenodd;fill:rgb(0%,0%,0%);fill-opacity:1;" d="M 36.699219 39.398438 L 36.710938 39.097656 L 36.75 38.808594 L 36.8125 38.539063 L 36.902344 38.285156 L 37.015625 38.042969 L 37.15625 37.820313 L 37.324219 37.609375 L 37.515625 37.417969 L 37.734375 37.238281 L 37.976563 37.078125 L 38.242188 36.925781 L 38.53125 36.792969 L 38.839844 36.671875 L 39.171875 36.570313 L 39.527344 36.484375 L 39.90625 36.410156 L 40.304688 36.355469 L 40.722656 36.316406 L 41.164063 36.292969 L 41.628906 36.285156 L 42.082031 36.292969 L 42.511719 36.320313 L 42.925781 36.363281 L 43.320313 36.425781 L 43.695313 36.503906 L 44.050781 36.601563 L 44.386719 36.714844 L 44.707031 36.847656 L 45.003906 37 L 45.285156 37.167969 L 45.539063 37.347656 L 45.769531 37.539063 L 45.972656 37.746094 L 46.148438 37.96875 L 46.296875 38.207031 L 46.417969 38.457031 L 46.511719 38.71875 L 46.578125 39 L 46.621094 39.289063 L 46.632813 39.597656 L 46.621094 39.871094 L 46.589844 40.136719 L 46.53125 40.390625 L 46.453125 40.632813 L 46.351563 40.867188 L 46.226563 41.085938 L 46.078125 41.296875 L 45.90625 41.496094 L 45.714844 41.6875 L 45.5 41.863281 L 50 41.863281 L 50.199219 43.484375 L 36.933594 43.484375 L 36.933594 42.0625 L 38.210938 41.972656 L 37.921875 41.773438 L 37.664063 41.558594 L 37.4375 41.332031 L 37.242188 41.09375 L 37.074219 40.84375 L 36.941406 40.578125 L 36.832031 40.304688 L 36.757813 40.015625 L 36.710938 39.710938 Z M 45.335938 39.972656 L 45.300781 39.59375 L 45.191406 39.253906 L 45.003906 38.957031 L 44.746094 38.695313 L 44.414063 38.476563 L 44.007813 38.296875 L 43.53125 38.15625 L 42.976563 38.054688 L 42.347656 37.996094 L 41.648438 37.976563 L 41.273438 37.980469 L 40.917969 37.996094 L 40.585938 38.019531 L 40.277344 38.050781 L 39.988281 38.09375 L 39.71875 38.144531 L 39.472656 38.207031 L 39.246094 38.277344 L 39.042969 38.355469 L 38.859375 38.445313 L 38.691406 38.539063 L 38.539063 38.644531 L 38.40625 38.757813 L 38.292969 38.882813 L 38.195313 39.015625 L 38.117188 39.160156 L 38.054688 39.3125 L 38.011719 39.476563 L 37.984375 39.648438 L 37.976563 39.832031 L 37.980469 39.953125 L 37.992188 40.078125 L 38.011719 40.195313 L 38.035156 40.3125 L 38.070313 40.425781 L 38.113281 40.535156 L 38.160156 40.640625 L 38.21875 40.746094 L 38.28125 40.847656 L 38.355469 40.945313 L 38.433594 41.042969 L 38.515625 41.140625 L 38.605469 41.234375 L 38.699219 41.328125 L 38.800781 41.417969 L 38.90625 41.511719 L 39.015625 41.601563 L 39.132813 41.691406 L 39.253906 41.777344 L 39.378906 41.863281 L 44.167969 41.863281 L 44.390625 41.710938 L 44.589844 41.550781 L 44.765625 41.382813 L 44.917969 41.207031 L 45.046875 41.023438 L 45.152344 40.828125 L 45.234375 40.628906 L 45.289063 40.417969 L 45.324219 40.199219 Z M 45.335938 39.972656 "/>
<path style=" stroke:none;fill-rule:evenodd;fill:rgb(0%,0%,0%);fill-opacity:1;" d="M 34.359375 30.074219 L 46.398438 30.074219 L 46.398438 31.675781 L 36.050781 31.675781 L 37.742188 34.179688 L 36.660156 34.917969 L 34.359375 31.496094 Z M 34.359375 30.074219 "/>
</g>
</svg>
