<?xml version="1.0" encoding="UTF-8"?>
<svg xmlns="http://www.w3.org/2000/svg" xmlns:xlink="http://www.w3.org/1999/xlink" width="864pt" height="432pt" viewBox="0 0 864 432" version="1.1">
<defs>
<clipPath id="clip1">
  <path d="M 51.796875 304 L 744.449219 304 L 744.449219 305 L 51.796875 305 Z M 51.796875 304 "/>
</clipPath>
<clipPath id="clip2">
  <path d="M 51.796875 230 L 744.449219 230 L 744.449219 231 L 51.796875 231 Z M 51.796875 230 "/>
</clipPath>
<clipPath id="clip3">
  <path d="M 51.796875 156 L 744.449219 156 L 744.449219 157 L 51.796875 157 Z M 51.796875 156 "/>
</clipPath>
<clipPath id="clip4">
  <path d="M 51.796875 81 L 744.449219 81 L 744.449219 83 L 51.796875 83 Z M 51.796875 81 "/>
</clipPath>
<clipPath id="clip5">
  <path d="M 146 29.886719 L 147 29.886719 L 147 363.980469 L 146 363.980469 Z M 146 29.886719 "/>
</clipPath>
<clipPath id="clip6">
  <path d="M 272 29.886719 L 273 29.886719 L 273 363.980469 L 272 363.980469 Z M 272 29.886719 "/>
</clipPath>
<clipPath id="clip7">
  <path d="M 397 29.886719 L 399 29.886719 L 399 363.980469 L 397 363.980469 Z M 397 29.886719 "/>
</clipPath>
<clipPath id="clip8">
  <path d="M 523 29.886719 L 525 29.886719 L 525 363.980469 L 523 363.980469 Z M 523 29.886719 "/>
</clipPath>
<clipPath id="clip9">
  <path d="M 649 29.886719 L 651 29.886719 L 651 363.980469 L 649 363.980469 Z M 649 29.886719 "/>
</clipPath>
<clipPath id="clip10">
  <path d="M 51.796875 341 L 744.449219 341 L 744.449219 342 L 51.796875 342 Z M 51.796875 341 "/>
</clipPath>
<clipPath id="clip11">
  <path d="M 51.796875 267 L 744.449219 267 L 744.449219 268 L 51.796875 268 Z M 51.796875 267 "/>
</clipPath>
<clipPath id="clip12">
  <path d="M 51.796875 193 L 744.449219 193 L 744.449219 194 L 51.796875 194 Z M 51.796875 193 "/>
</clipPath>
<clipPath id="clip13">
  <path d="M 51.796875 118 L 744.449219 118 L 744.449219 120 L 51.796875 120 Z M 51.796875 118 "/>
</clipPath>
<clipPath id="clip14">
  <path d="M 51.796875 44 L 744.449219 44 L 744.449219 46 L 51.796875 46 Z M 51.796875 44 "/>
</clipPath>
<clipPath id="clip15">
  <path d="M 83 29.886719 L 84 29.886719 L 84 363.980469 L 83 363.980469 Z M 83 29.886719 "/>
</clipPath>
<clipPath id="clip16">
  <path d="M 209 29.886719 L 210 29.886719 L 210 363.980469 L 209 363.980469 Z M 209 29.886719 "/>
</clipPath>
<clipPath id="clip17">
  <path d="M 334 29.886719 L 336 29.886719 L 336 363.980469 L 334 363.980469 Z M 334 29.886719 "/>
</clipPath>
<clipPath id="clip18">
  <path d="M 460 29.886719 L 462 29.886719 L 462 363.980469 L 460 363.980469 Z M 460 29.886719 "/>
</clipPath>
<clipPath id="clip19">
  <path d="M 586 29.886719 L 588 29.886719 L 588 363.980469 L 586 363.980469 Z M 586 29.886719 "/>
</clipPath>
<clipPath id="clip20">
  <path d="M 712 29.886719 L 714 29.886719 L 714 363.980469 L 712 363.980469 Z M 712 29.886719 "/>
</clipPath>
<clipPath id="clip21">
  <path d="M 83 29.886719 L 336 29.886719 L 336 363.980469 L 83 363.980469 Z M 83 29.886719 "/>
</clipPath>
<clipPath id="clip22">
  <path d="M 208 29.886719 L 211 29.886719 L 211 363.980469 L 208 363.980469 Z M 208 29.886719 "/>
</clipPath>
</defs>
<g id="surface44">
<rect x="0" y="0" width="864" height="432" style="fill:rgb(100%,100%,100%);fill-opacity:1;stroke:none;"/>
<g clip-path="url(#clip1)" clip-rule="nonzero">
<path style="fill:none;stroke-width:0.320094;stroke-linecap:butt;stroke-linejoin:round;stroke:rgb(80%,80%,80%);stroke-opacity:1;stroke-miterlimit:10;" d="M 51.796875 304.351563 L 744.449219 304.351563 "/>
</g>
<g clip-path="url(#clip2)" clip-rule="nonzero">
<path style="fill:none;stroke-width:0.320094;stroke-linecap:butt;stroke-linejoin:round;stroke:rgb(80%,80%,80%);stroke-opacity:1;stroke-miterlimit:10;" d="M 51.796875 230.269531 L 744.449219 230.269531 "/>
</g>
<g clip-path="url(#clip3)" clip-rule="nonzero">
<path style="fill:none;stroke-width:0.320094;stroke-linecap:butt;stroke-linejoin:round;stroke:rgb(80%,80%,80%);stroke-opacity:1;stroke-miterlimit:10;" d="M 51.796875 156.191406 L 744.449219 156.191406 "/>
</g>
<g clip-path="url(#clip4)" clip-rule="nonzero">
<path style="fill:none;stroke-width:0.320094;stroke-linecap:butt;stroke-linejoin:round;stroke:rgb(80%,80%,80%);stroke-opacity:1;stroke-miterlimit:10;" d="M 51.796875 82.113281 L 744.449219 82.113281 "/>
</g>
<g clip-path="url(#clip5)" clip-rule="nonzero">
<path style="fill:none;stroke-width:0.320094;stroke-linecap:butt;stroke-linejoin:round;stroke:rgb(80%,80%,80%);stroke-opacity:1;stroke-miterlimit:10;" d="M 146.25 363.984375 L 146.25 29.886719 "/>
</g>
<g clip-path="url(#clip6)" clip-rule="nonzero">
<path style="fill:none;stroke-width:0.320094;stroke-linecap:butt;stroke-linejoin:round;stroke:rgb(80%,80%,80%);stroke-opacity:1;stroke-miterlimit:10;" d="M 272.1875 363.984375 L 272.1875 29.886719 "/>
</g>
<g clip-path="url(#clip7)" clip-rule="nonzero">
<path style="fill:none;stroke-width:0.320094;stroke-linecap:butt;stroke-linejoin:round;stroke:rgb(80%,80%,80%);stroke-opacity:1;stroke-miterlimit:10;" d="M 398.125 363.984375 L 398.125 29.886719 "/>
</g>
<g clip-path="url(#clip8)" clip-rule="nonzero">
<path style="fill:none;stroke-width:0.320094;stroke-linecap:butt;stroke-linejoin:round;stroke:rgb(80%,80%,80%);stroke-opacity:1;stroke-miterlimit:10;" d="M 524.058594 363.984375 L 524.058594 29.886719 "/>
</g>
<g clip-path="url(#clip9)" clip-rule="nonzero">
<path style="fill:none;stroke-width:0.320094;stroke-linecap:butt;stroke-linejoin:round;stroke:rgb(80%,80%,80%);stroke-opacity:1;stroke-miterlimit:10;" d="M 649.996094 363.984375 L 649.996094 29.886719 "/>
</g>
<g clip-path="url(#clip10)" clip-rule="nonzero">
<path style="fill:none;stroke-width:0.426791;stroke-linecap:butt;stroke-linejoin:round;stroke:rgb(80%,80%,80%);stroke-opacity:1;stroke-miterlimit:10;" d="M 51.796875 341.390625 L 744.449219 341.390625 "/>
</g>
<g clip-path="url(#clip11)" clip-rule="nonzero">
<path style="fill:none;stroke-width:0.426791;stroke-linecap:butt;stroke-linejoin:round;stroke:rgb(80%,80%,80%);stroke-opacity:1;stroke-miterlimit:10;" d="M 51.796875 267.3125 L 744.449219 267.3125 "/>
</g>
<g clip-path="url(#clip12)" clip-rule="nonzero">
<path style="fill:none;stroke-width:0.426791;stroke-linecap:butt;stroke-linejoin:round;stroke:rgb(80%,80%,80%);stroke-opacity:1;stroke-miterlimit:10;" d="M 51.796875 193.230469 L 744.449219 193.230469 "/>
</g>
<g clip-path="url(#clip13)" clip-rule="nonzero">
<path style="fill:none;stroke-width:0.426791;stroke-linecap:butt;stroke-linejoin:round;stroke:rgb(80%,80%,80%);stroke-opacity:1;stroke-miterlimit:10;" d="M 51.796875 119.152344 L 744.449219 119.152344 "/>
</g>
<g clip-path="url(#clip14)" clip-rule="nonzero">
<path style="fill:none;stroke-width:0.426791;stroke-linecap:butt;stroke-linejoin:round;stroke:rgb(80%,80%,80%);stroke-opacity:1;stroke-miterlimit:10;" d="M 51.796875 45.074219 L 744.449219 45.074219 "/>
</g>
<g clip-path="url(#clip15)" clip-rule="nonzero">
<path style="fill:none;stroke-width:0.426791;stroke-linecap:butt;stroke-linejoin:round;stroke:rgb(80%,80%,80%);stroke-opacity:1;stroke-miterlimit:10;" d="M 83.28125 363.984375 L 83.28125 29.886719 "/>
</g>
<g clip-path="url(#clip16)" clip-rule="nonzero">
<path style="fill:none;stroke-width:0.426791;stroke-linecap:butt;stroke-linejoin:round;stroke:rgb(80%,80%,80%);stroke-opacity:1;stroke-miterlimit:10;" d="M 209.21875 363.984375 L 209.21875 29.886719 "/>
</g>
<g clip-path="url(#clip17)" clip-rule="nonzero">
<path style="fill:none;stroke-width:0.426791;stroke-linecap:butt;stroke-linejoin:round;stroke:rgb(80%,80%,80%);stroke-opacity:1;stroke-miterlimit:10;" d="M 335.15625 363.984375 L 335.15625 29.886719 "/>
</g>
<g clip-path="url(#clip18)" clip-rule="nonzero">
<path style="fill:none;stroke-width:0.426791;stroke-linecap:butt;stroke-linejoin:round;stroke:rgb(80%,80%,80%);stroke-opacity:1;stroke-miterlimit:10;" d="M 461.09375 363.984375 L 461.09375 29.886719 "/>
</g>
<g clip-path="url(#clip19)" clip-rule="nonzero">
<path style="fill:none;stroke-width:0.426791;stroke-linecap:butt;stroke-linejoin:round;stroke:rgb(80%,80%,80%);stroke-opacity:1;stroke-miterlimit:10;" d="M 587.027344 363.984375 L 587.027344 29.886719 "/>
</g>
<g clip-path="url(#clip20)" clip-rule="nonzero">
<path style="fill:none;stroke-width:0.426791;stroke-linecap:butt;stroke-linejoin:round;stroke:rgb(80%,80%,80%);stroke-opacity:1;stroke-miterlimit:10;" d="M 712.964844 363.984375 L 712.964844 29.886719 "/>
</g>
<g clip-path="url(#clip21)" clip-rule="nonzero">
<path style=" stroke:none;fill-rule:nonzero;fill:rgb(66.27451%,66.27451%,66.27451%);fill-opacity:0.2;" d="M 83.28125 29.886719 L 335.15625 29.886719 L 335.15625 363.984375 L 83.28125 363.984375 Z M 83.28125 29.886719 "/>
</g>
<path style="fill:none;stroke-width:2.133957;stroke-linecap:butt;stroke-linejoin:round;stroke:rgb(0%,45.490196%,85.098039%);stroke-opacity:1;stroke-dasharray:4.267913,4.267913;stroke-miterlimit:10;" d="M 209.21875 215.457031 L 335.15625 178.417969 "/>
<g clip-path="url(#clip22)" clip-rule="nonzero">
<path style="fill:none;stroke-width:2.133957;stroke-linecap:butt;stroke-linejoin:round;stroke:rgb(20%,24.705882%,28.235294%);stroke-opacity:1;stroke-miterlimit:10;" d="M 209.21875 363.984375 L 209.21875 29.886719 "/>
</g>
<path style="fill:none;stroke-width:6.40187;stroke-linecap:butt;stroke-linejoin:round;stroke:rgb(56.470588%,5.098039%,64.313725%);stroke-opacity:1;stroke-miterlimit:10;" d="M 83.28125 348.796875 L 461.09375 237.679688 L 587.027344 200.640625 L 712.964844 163.601563 "/>
<path style="fill:none;stroke-width:6.40187;stroke-linecap:butt;stroke-linejoin:round;stroke:rgb(98.823529%,80.784314%,14.509804%);stroke-opacity:1;stroke-miterlimit:10;" d="M 83.28125 215.457031 L 335.15625 215.457031 L 461.09375 119.152344 L 587.027344 82.113281 L 712.964844 45.074219 "/>
<path style="fill:none;stroke-width:4.267913;stroke-linecap:butt;stroke-linejoin:round;stroke:rgb(100%,25.490196%,21.176471%);stroke-opacity:1;stroke-miterlimit:10;" d="M 335.15625 215.457031 L 335.15625 178.417969 "/>
<path style="fill:none;stroke-width:4.267913;stroke-linecap:butt;stroke-linejoin:round;stroke:rgb(100%,25.490196%,21.176471%);stroke-opacity:1;stroke-miterlimit:10;" d="M 335.15625 215.457031 L 335.15625 178.417969 "/>
<path style="fill:none;stroke-width:4.267913;stroke-linecap:butt;stroke-linejoin:round;stroke:rgb(100%,25.490196%,21.176471%);stroke-opacity:1;stroke-miterlimit:10;" d="M 335.15625 215.457031 L 335.15625 178.417969 "/>
<path style="fill:none;stroke-width:4.267913;stroke-linecap:butt;stroke-linejoin:round;stroke:rgb(100%,25.490196%,21.176471%);stroke-opacity:1;stroke-miterlimit:10;" d="M 335.15625 215.457031 L 335.15625 178.417969 "/>
<path style="fill:none;stroke-width:4.267913;stroke-linecap:butt;stroke-linejoin:round;stroke:rgb(100%,25.490196%,21.176471%);stroke-opacity:1;stroke-miterlimit:10;" d="M 335.15625 215.457031 L 335.15625 178.417969 "/>
<path style="fill:none;stroke-width:4.267913;stroke-linecap:butt;stroke-linejoin:round;stroke:rgb(100%,25.490196%,21.176471%);stroke-opacity:1;stroke-miterlimit:10;" d="M 335.15625 215.457031 L 335.15625 178.417969 "/>
<path style="fill:none;stroke-width:4.267913;stroke-linecap:butt;stroke-linejoin:round;stroke:rgb(100%,25.490196%,21.176471%);stroke-opacity:1;stroke-miterlimit:10;" d="M 335.15625 215.457031 L 335.15625 178.417969 "/>
<path style="fill:none;stroke-width:4.267913;stroke-linecap:butt;stroke-linejoin:round;stroke:rgb(100%,25.490196%,21.176471%);stroke-opacity:1;stroke-miterlimit:10;" d="M 335.15625 215.457031 L 335.15625 178.417969 "/>
<path style="fill:none;stroke-width:4.267913;stroke-linecap:butt;stroke-linejoin:round;stroke:rgb(100%,25.490196%,21.176471%);stroke-opacity:1;stroke-miterlimit:10;" d="M 335.15625 215.457031 L 335.15625 178.417969 "/>
<path style="fill:none;stroke-width:4.267913;stroke-linecap:butt;stroke-linejoin:round;stroke:rgb(100%,25.490196%,21.176471%);stroke-opacity:1;stroke-miterlimit:10;" d="M 335.15625 215.457031 L 335.15625 178.417969 "/>
<path style="fill:none;stroke-width:4.267913;stroke-linecap:butt;stroke-linejoin:round;stroke:rgb(100%,25.490196%,21.176471%);stroke-opacity:1;stroke-miterlimit:10;" d="M 335.15625 215.457031 L 335.15625 178.417969 "/>
<path style="fill:none;stroke-width:4.267913;stroke-linecap:butt;stroke-linejoin:round;stroke:rgb(100%,25.490196%,21.176471%);stroke-opacity:1;stroke-miterlimit:10;" d="M 335.15625 215.457031 L 335.15625 178.417969 "/>
<path style=" stroke:none;fill-rule:nonzero;fill:rgb(30.196078%,30.196078%,30.196078%);fill-opacity:1;" d="M 87.1875 378.027344 L 87.1875 379.25 L 80.042969 379.25 L 80.042969 378.027344 L 83.085938 378.027344 L 83.085938 368.503906 L 80.257813 370.214844 L 79.59375 369.152344 L 83.28125 366.847656 L 84.613281 366.847656 L 84.613281 378.027344 Z M 87.1875 378.027344 "/>
<path style=" stroke:none;fill-rule:nonzero;fill:rgb(30.196078%,30.196078%,30.196078%);fill-opacity:1;" d="M 208.660156 366.648438 L 208.886719 366.65625 L 209.101563 366.667969 L 209.316406 366.691406 L 209.523438 366.722656 L 209.722656 366.761719 L 209.917969 366.8125 L 210.109375 366.871094 L 210.292969 366.9375 L 210.46875 367.015625 L 210.640625 367.101563 L 210.808594 367.191406 L 210.96875 367.292969 L 211.121094 367.402344 L 211.265625 367.515625 L 211.402344 367.636719 L 211.527344 367.761719 L 211.648438 367.898438 L 211.757813 368.039063 L 211.859375 368.1875 L 211.957031 368.34375 L 212.039063 368.5 L 212.117188 368.660156 L 212.183594 368.824219 L 212.242188 368.996094 L 212.292969 369.167969 L 212.332031 369.347656 L 212.363281 369.53125 L 212.386719 369.71875 L 212.402344 369.910156 L 212.40625 370.105469 L 212.398438 370.335938 L 212.382813 370.5625 L 212.355469 370.789063 L 212.320313 371.015625 L 212.269531 371.238281 L 212.210938 371.460938 L 212.140625 371.683594 L 212.058594 371.902344 L 211.96875 372.121094 L 211.863281 372.335938 L 211.753906 372.554688 L 211.628906 372.777344 L 211.492188 373.003906 L 211.34375 373.238281 L 211.179688 373.472656 L 211.003906 373.710938 L 210.816406 373.957031 L 210.613281 374.203125 L 210.402344 374.457031 L 210.171875 374.714844 L 209.929688 374.976563 L 209.667969 375.253906 L 209.382813 375.542969 L 208.761719 376.164063 L 208.417969 376.492188 L 208.058594 376.839844 L 207.679688 377.195313 L 207.28125 377.566406 L 206.859375 377.953125 L 212.691406 377.953125 L 212.511719 379.25 L 205.132813 379.25 L 205.132813 378.027344 L 205.605469 377.570313 L 206.054688 377.136719 L 206.476563 376.722656 L 206.875 376.328125 L 207.25 375.957031 L 207.59375 375.601563 L 207.917969 375.269531 L 208.214844 374.957031 L 208.488281 374.664063 L 208.734375 374.390625 L 208.964844 374.128906 L 209.179688 373.878906 L 209.378906 373.636719 L 209.566406 373.398438 L 209.738281 373.171875 L 209.894531 372.949219 L 210.035156 372.734375 L 210.160156 372.53125 L 210.273438 372.332031 L 210.371094 372.140625 L 210.457031 371.953125 L 210.53125 371.761719 L 210.601563 371.570313 L 210.660156 371.375 L 210.707031 371.175781 L 210.75 370.976563 L 210.78125 370.777344 L 210.804688 370.574219 L 210.816406 370.367188 L 210.820313 370.160156 L 210.816406 369.957031 L 210.796875 369.761719 L 210.769531 369.574219 L 210.726563 369.398438 L 210.671875 369.226563 L 210.605469 369.070313 L 210.53125 368.917969 L 210.441406 368.777344 L 210.339844 368.644531 L 210.226563 368.523438 L 210.105469 368.410156 L 209.972656 368.308594 L 209.832031 368.21875 L 209.679688 368.140625 L 209.519531 368.078125 L 209.351563 368.023438 L 209.175781 367.980469 L 208.988281 367.953125 L 208.792969 367.933594 L 208.589844 367.929688 L 208.414063 367.929688 L 208.246094 367.941406 L 208.085938 367.957031 L 207.929688 367.976563 L 207.777344 368.003906 L 207.632813 368.039063 L 207.496094 368.078125 L 207.363281 368.125 L 207.234375 368.175781 L 207.113281 368.234375 L 206.996094 368.296875 L 206.882813 368.367188 L 206.765625 368.445313 L 206.648438 368.535156 L 206.527344 368.628906 L 206.410156 368.734375 L 206.289063 368.847656 L 206.167969 368.972656 L 206.046875 369.101563 L 205.925781 369.242188 L 204.882813 368.433594 L 205.03125 368.253906 L 205.183594 368.085938 L 205.339844 367.925781 L 205.496094 367.773438 L 205.660156 367.636719 L 205.824219 367.503906 L 205.992188 367.382813 L 206.164063 367.273438 L 206.339844 367.171875 L 206.519531 367.082031 L 206.707031 367 L 206.898438 366.925781 L 207.097656 366.863281 L 207.300781 366.804688 L 207.511719 366.757813 L 207.730469 366.71875 L 207.953125 366.6875 L 208.183594 366.667969 L 208.417969 366.652344 Z M 208.660156 366.648438 "/>
<path style=" stroke:none;fill-rule:nonzero;fill:rgb(30.196078%,30.196078%,30.196078%);fill-opacity:1;" d="M 334.597656 366.648438 L 334.820313 366.652344 L 335.039063 366.667969 L 335.253906 366.6875 L 335.460938 366.71875 L 335.664063 366.757813 L 335.859375 366.804688 L 336.054688 366.863281 L 336.238281 366.925781 L 336.421875 367 L 336.59375 367.082031 L 336.765625 367.167969 L 336.925781 367.257813 L 337.078125 367.359375 L 337.222656 367.460938 L 337.359375 367.574219 L 337.488281 367.6875 L 337.609375 367.8125 L 337.726563 367.941406 L 337.832031 368.074219 L 337.925781 368.214844 L 338.015625 368.359375 L 338.097656 368.503906 L 338.167969 368.648438 L 338.226563 368.800781 L 338.277344 368.953125 L 338.320313 369.109375 L 338.355469 369.269531 L 338.378906 369.429688 L 338.390625 369.597656 L 338.394531 369.765625 L 338.386719 369.976563 L 338.367188 370.183594 L 338.332031 370.386719 L 338.285156 370.585938 L 338.21875 370.777344 L 338.144531 370.960938 L 338.050781 371.144531 L 337.945313 371.320313 L 337.828125 371.488281 L 337.695313 371.652344 L 337.550781 371.804688 L 337.402344 371.945313 L 337.246094 372.074219 L 337.082031 372.191406 L 336.914063 372.296875 L 336.742188 372.390625 L 336.5625 372.472656 L 336.375 372.539063 L 336.183594 372.597656 L 335.984375 372.644531 L 336.214844 372.667969 L 336.4375 372.707031 L 336.652344 372.761719 L 336.863281 372.828125 L 337.0625 372.910156 L 337.257813 373.003906 L 337.445313 373.113281 L 337.625 373.238281 L 337.796875 373.375 L 337.964844 373.527344 L 338.121094 373.691406 L 338.261719 373.867188 L 338.386719 374.054688 L 338.492188 374.25 L 338.585938 374.460938 L 338.660156 374.683594 L 338.71875 374.917969 L 338.757813 375.160156 L 338.785156 375.417969 L 338.792969 375.6875 L 338.785156 375.894531 L 338.769531 376.101563 L 338.742188 376.304688 L 338.707031 376.503906 L 338.65625 376.699219 L 338.597656 376.890625 L 338.527344 377.074219 L 338.445313 377.257813 L 338.355469 377.4375 L 338.25 377.613281 L 338.140625 377.78125 L 338.019531 377.941406 L 337.886719 378.097656 L 337.746094 378.242188 L 337.597656 378.382813 L 337.441406 378.511719 L 337.273438 378.636719 L 337.101563 378.753906 L 336.914063 378.859375 L 336.722656 378.960938 L 336.523438 379.054688 L 336.320313 379.136719 L 336.113281 379.210938 L 335.898438 379.273438 L 335.675781 379.328125 L 335.453125 379.371094 L 335.21875 379.402344 L 334.980469 379.429688 L 334.738281 379.441406 L 334.488281 379.449219 L 334.269531 379.445313 L 334.054688 379.429688 L 333.835938 379.410156 L 333.621094 379.382813 L 333.410156 379.34375 L 333.199219 379.296875 L 332.988281 379.246094 L 332.777344 379.183594 L 332.570313 379.113281 L 332.367188 379.035156 L 332.167969 378.945313 L 331.976563 378.851563 L 331.792969 378.75 L 331.613281 378.640625 L 331.441406 378.519531 L 331.277344 378.394531 L 331.121094 378.261719 L 330.972656 378.117188 L 330.828125 377.96875 L 330.691406 377.808594 L 331.699219 376.980469 L 331.800781 377.097656 L 331.910156 377.207031 L 332.023438 377.3125 L 332.136719 377.414063 L 332.257813 377.507813 L 332.382813 377.597656 L 332.511719 377.679688 L 332.644531 377.757813 L 332.78125 377.832031 L 332.921875 377.898438 L 333.070313 377.957031 L 333.222656 378.011719 L 333.371094 378.054688 L 333.523438 378.09375 L 333.675781 378.128906 L 333.828125 378.15625 L 333.984375 378.179688 L 334.140625 378.195313 L 334.296875 378.203125 L 334.453125 378.207031 L 334.707031 378.199219 L 334.949219 378.179688 L 335.179688 378.144531 L 335.398438 378.097656 L 335.605469 378.039063 L 335.800781 377.964844 L 335.984375 377.878906 L 336.160156 377.78125 L 336.320313 377.667969 L 336.46875 377.539063 L 336.609375 377.398438 L 336.734375 377.246094 L 336.847656 377.085938 L 336.941406 376.914063 L 337.023438 376.734375 L 337.089844 376.542969 L 337.140625 376.34375 L 337.179688 376.132813 L 337.199219 375.914063 L 337.207031 375.6875 L 337.183594 375.238281 L 337.105469 374.835938 L 336.976563 374.484375 L 336.796875 374.175781 L 336.5625 373.917969 L 336.28125 373.707031 L 335.945313 373.539063 L 335.558594 373.421875 L 335.121094 373.351563 L 334.632813 373.328125 L 333.609375 373.328125 L 333.789063 372.121094 L 334.527344 372.121094 L 334.71875 372.117188 L 334.902344 372.101563 L 335.082031 372.074219 L 335.257813 372.035156 L 335.425781 371.988281 L 335.589844 371.925781 L 335.746094 371.855469 L 335.898438 371.777344 L 336.042969 371.683594 L 336.183594 371.582031 L 336.3125 371.464844 L 336.429688 371.339844 L 336.53125 371.203125 L 336.621094 371.054688 L 336.695313 370.898438 L 336.757813 370.730469 L 336.804688 370.554688 L 336.839844 370.367188 L 336.859375 370.167969 L 336.867188 369.960938 L 336.859375 369.769531 L 336.839844 369.582031 L 336.804688 369.410156 L 336.757813 369.242188 L 336.699219 369.085938 L 336.625 368.9375 L 336.539063 368.796875 L 336.4375 368.664063 L 336.328125 368.542969 L 336.199219 368.433594 L 336.066406 368.324219 L 335.925781 368.230469 L 335.777344 368.148438 L 335.621094 368.074219 L 335.457031 368.011719 L 335.285156 367.964844 L 335.105469 367.925781 L 334.921875 367.894531 L 334.726563 367.878906 L 334.527344 367.875 L 334.371094 367.875 L 334.222656 367.882813 L 334.074219 367.898438 L 333.933594 367.917969 L 333.792969 367.941406 L 333.65625 367.972656 L 333.519531 368.007813 L 333.390625 368.046875 L 333.265625 368.09375 L 333.140625 368.144531 L 333.019531 368.199219 L 332.898438 368.265625 L 332.777344 368.335938 L 332.65625 368.410156 L 332.53125 368.496094 L 332.40625 368.585938 L 332.28125 368.679688 L 332.15625 368.78125 L 332.027344 368.890625 L 331.898438 369.007813 L 331.070313 368.089844 L 331.378906 367.816406 L 331.695313 367.570313 L 332.023438 367.355469 L 332.359375 367.167969 L 332.707031 367.011719 L 333.066406 366.878906 L 333.433594 366.78125 L 333.8125 366.707031 L 334.199219 366.664063 Z M 334.597656 366.648438 "/>
<path style=" stroke:none;fill-rule:nonzero;fill:rgb(30.196078%,30.196078%,30.196078%);fill-opacity:1;" d="M 465.195313 376.242188 L 463.59375 376.242188 L 463.59375 379.25 L 462.136719 379.25 L 462.136719 376.242188 L 456.988281 376.242188 L 456.988281 375.128906 L 460.625 366.648438 L 461.882813 367.191406 L 458.589844 375.019531 L 462.152344 375.019531 L 462.28125 371.511719 L 463.59375 371.511719 L 463.59375 375.019531 L 465.195313 375.019531 Z M 465.195313 376.242188 "/>
<path style=" stroke:none;fill-rule:nonzero;fill:rgb(30.196078%,30.196078%,30.196078%);fill-opacity:1;" d="M 590.179688 368.070313 L 585.28125 368.070313 L 585.28125 371.976563 L 585.386719 371.917969 L 585.492188 371.863281 L 585.59375 371.8125 L 585.699219 371.765625 L 585.800781 371.722656 L 586.003906 371.644531 L 586.105469 371.613281 L 586.207031 371.585938 L 586.308594 371.5625 L 586.414063 371.539063 L 586.625 371.5 L 586.84375 371.46875 L 586.953125 371.457031 L 587.179688 371.441406 L 587.292969 371.4375 L 587.40625 371.4375 L 587.710938 371.449219 L 588 371.480469 L 588.277344 371.53125 L 588.542969 371.601563 L 588.796875 371.695313 L 589.039063 371.808594 L 589.265625 371.941406 L 589.480469 372.09375 L 589.683594 372.269531 L 589.871094 372.464844 L 590.050781 372.675781 L 590.210938 372.90625 L 590.351563 373.152344 L 590.472656 373.414063 L 590.574219 373.691406 L 590.660156 373.988281 L 590.722656 374.296875 L 590.769531 374.625 L 590.800781 374.964844 L 590.808594 375.324219 L 590.804688 375.566406 L 590.789063 375.804688 L 590.761719 376.035156 L 590.726563 376.257813 L 590.679688 376.476563 L 590.621094 376.691406 L 590.554688 376.898438 L 590.476563 377.101563 L 590.386719 377.296875 L 590.285156 377.484375 L 590.179688 377.667969 L 590.066406 377.84375 L 589.945313 378.011719 L 589.8125 378.167969 L 589.671875 378.316406 L 589.519531 378.460938 L 589.359375 378.59375 L 589.191406 378.71875 L 589.015625 378.835938 L 588.828125 378.945313 L 588.636719 379.039063 L 588.433594 379.125 L 588.230469 379.199219 L 588.015625 379.265625 L 587.796875 379.320313 L 587.574219 379.367188 L 587.34375 379.402344 L 587.105469 379.425781 L 586.863281 379.441406 L 586.613281 379.449219 L 586.207031 379.433594 L 585.808594 379.390625 L 585.421875 379.316406 L 585.046875 379.210938 L 584.679688 379.078125 L 584.324219 378.917969 L 583.980469 378.722656 L 583.648438 378.503906 L 583.328125 378.253906 L 583.015625 377.972656 L 583.949219 377.054688 L 584.179688 377.273438 L 584.421875 377.46875 L 584.667969 377.640625 L 584.921875 377.792969 L 585.183594 377.917969 L 585.453125 378.023438 L 585.734375 378.101563 L 586.019531 378.160156 L 586.3125 378.195313 L 586.613281 378.207031 L 586.859375 378.199219 L 587.089844 378.175781 L 587.308594 378.136719 L 587.519531 378.085938 L 587.71875 378.015625 L 587.90625 377.933594 L 588.082031 377.835938 L 588.246094 377.722656 L 588.398438 377.59375 L 588.539063 377.449219 L 588.671875 377.292969 L 588.785156 377.121094 L 588.890625 376.9375 L 588.980469 376.738281 L 589.054688 376.527344 L 589.117188 376.304688 L 589.164063 376.066406 L 589.199219 375.8125 L 589.21875 375.550781 L 589.226563 375.273438 L 589.21875 375 L 589.199219 374.742188 L 589.167969 374.5 L 589.125 374.273438 L 589.070313 374.066406 L 589.003906 373.871094 L 588.925781 373.695313 L 588.832031 373.53125 L 588.730469 373.386719 L 588.613281 373.253906 L 588.484375 373.136719 L 588.351563 373.027344 L 588.207031 372.933594 L 588.058594 372.851563 L 587.898438 372.785156 L 587.730469 372.726563 L 587.554688 372.683594 L 587.367188 372.652344 L 587.175781 372.632813 L 586.976563 372.625 L 586.878906 372.625 L 586.691406 372.632813 L 586.511719 372.648438 L 586.425781 372.660156 L 586.339844 372.667969 L 586.253906 372.683594 L 586.171875 372.699219 L 586.09375 372.714844 L 586.011719 372.734375 L 585.925781 372.757813 L 585.832031 372.78125 L 585.734375 372.8125 L 585.632813 372.84375 L 585.527344 372.875 L 585.414063 372.914063 L 585.296875 372.953125 L 585.175781 372.996094 L 585.046875 373.039063 L 583.824219 373.039063 L 583.824219 366.847656 L 590.394531 366.847656 Z M 590.179688 368.070313 "/>
<path style=" stroke:none;fill-rule:nonzero;fill:rgb(30.196078%,30.196078%,30.196078%);fill-opacity:1;" d="M 713.503906 371.1875 L 713.699219 371.191406 L 713.886719 371.203125 L 714.074219 371.226563 L 714.253906 371.253906 L 714.433594 371.292969 L 714.605469 371.339844 L 714.777344 371.398438 L 714.945313 371.460938 L 715.109375 371.535156 L 715.269531 371.617188 L 715.429688 371.707031 L 715.578125 371.808594 L 715.722656 371.917969 L 715.863281 372.035156 L 715.992188 372.164063 L 716.117188 372.296875 L 716.234375 372.441406 L 716.347656 372.597656 L 716.449219 372.761719 L 716.546875 372.933594 L 716.636719 373.109375 L 716.714844 373.292969 L 716.785156 373.488281 L 716.847656 373.6875 L 716.898438 373.898438 L 716.941406 374.117188 L 716.972656 374.34375 L 716.996094 374.578125 L 717.011719 374.824219 L 717.015625 375.074219 L 717.011719 375.335938 L 716.996094 375.59375 L 716.96875 375.84375 L 716.933594 376.085938 L 716.886719 376.324219 L 716.828125 376.554688 L 716.757813 376.78125 L 716.679688 376.996094 L 716.59375 377.207031 L 716.492188 377.414063 L 716.386719 377.605469 L 716.269531 377.792969 L 716.148438 377.964844 L 716.019531 378.132813 L 715.882813 378.285156 L 715.738281 378.433594 L 715.585938 378.570313 L 715.429688 378.699219 L 715.261719 378.816406 L 715.089844 378.925781 L 714.910156 379.023438 L 714.726563 379.113281 L 714.539063 379.191406 L 714.347656 379.261719 L 714.152344 379.316406 L 713.953125 379.363281 L 713.75 379.402344 L 713.539063 379.425781 L 713.328125 379.441406 L 713.109375 379.449219 L 712.6875 379.433594 L 712.292969 379.386719 L 711.917969 379.308594 L 711.570313 379.195313 L 711.242188 379.054688 L 710.9375 378.882813 L 710.660156 378.679688 L 710.402344 378.445313 L 710.167969 378.179688 L 709.960938 377.882813 L 709.773438 377.554688 L 709.609375 377.203125 L 709.464844 376.820313 L 709.335938 376.414063 L 709.230469 375.976563 L 709.144531 375.515625 L 709.074219 375.027344 L 709.027344 374.511719 L 708.996094 373.96875 L 708.988281 373.398438 L 708.992188 372.996094 L 709.007813 372.601563 L 709.035156 372.21875 L 709.074219 371.84375 L 709.121094 371.484375 L 709.183594 371.132813 L 709.25 370.792969 L 709.332031 370.460938 L 709.425781 370.144531 L 709.527344 369.835938 L 709.644531 369.535156 L 709.769531 369.25 L 709.902344 368.980469 L 710.046875 368.722656 L 710.203125 368.480469 L 710.367188 368.253906 L 710.539063 368.039063 L 710.71875 367.835938 L 710.910156 367.652344 L 711.113281 367.476563 L 711.324219 367.320313 L 711.542969 367.179688 L 711.773438 367.054688 L 712.011719 366.949219 L 712.253906 366.855469 L 712.507813 366.78125 L 712.765625 366.722656 L 713.035156 366.683594 L 713.3125 366.65625 L 713.59375 366.648438 L 713.863281 366.65625 L 714.125 366.679688 L 714.382813 366.714844 L 714.636719 366.769531 L 714.886719 366.835938 L 715.132813 366.914063 L 715.371094 367.011719 L 715.605469 367.121094 L 715.835938 367.246094 L 716.0625 367.386719 L 715.46875 368.394531 L 715.289063 368.296875 L 715.109375 368.207031 L 714.925781 368.128906 L 714.742188 368.0625 L 714.554688 368.003906 L 714.363281 367.957031 L 714.171875 367.921875 L 713.976563 367.894531 L 713.777344 367.878906 L 713.578125 367.875 L 713.300781 367.886719 L 713.03125 367.925781 L 712.777344 367.992188 L 712.539063 368.085938 L 712.308594 368.207031 L 712.089844 368.351563 L 711.886719 368.527344 L 711.695313 368.726563 L 711.511719 368.953125 L 711.34375 369.207031 L 711.195313 369.480469 L 711.058594 369.777344 L 710.9375 370.09375 L 710.832031 370.425781 L 710.742188 370.78125 L 710.667969 371.152344 L 710.605469 371.546875 L 710.5625 371.960938 L 710.53125 372.390625 L 710.515625 372.84375 L 710.632813 372.671875 L 710.753906 372.515625 L 710.878906 372.367188 L 711.003906 372.226563 L 711.132813 372.09375 L 711.265625 371.972656 L 711.402344 371.863281 L 711.542969 371.757813 L 711.683594 371.664063 L 711.832031 371.582031 L 711.980469 371.507813 L 712.132813 371.4375 L 712.292969 371.378906 L 712.453125 371.328125 L 712.617188 371.285156 L 712.789063 371.25 L 712.960938 371.222656 L 713.140625 371.203125 L 713.320313 371.191406 Z M 713.109375 378.222656 L 713.335938 378.214844 L 713.546875 378.191406 L 713.75 378.152344 L 713.941406 378.09375 L 714.121094 378.019531 L 714.289063 377.933594 L 714.449219 377.828125 L 714.59375 377.707031 L 714.730469 377.566406 L 714.855469 377.414063 L 714.972656 377.242188 L 715.074219 377.058594 L 715.167969 376.859375 L 715.246094 376.652344 L 715.3125 376.429688 L 715.371094 376.195313 L 715.414063 375.945313 L 715.441406 375.6875 L 715.460938 375.414063 L 715.46875 375.128906 L 715.445313 374.613281 L 715.378906 374.148438 L 715.269531 373.742188 L 715.117188 373.386719 L 714.917969 373.089844 L 714.675781 372.84375 L 714.390625 372.65625 L 714.0625 372.519531 L 713.6875 372.4375 L 713.269531 372.410156 L 713.101563 372.414063 L 712.933594 372.429688 L 712.765625 372.453125 L 712.605469 372.488281 L 712.449219 372.53125 L 712.292969 372.585938 L 712.140625 372.648438 L 711.992188 372.722656 L 711.847656 372.804688 L 711.707031 372.894531 L 711.570313 372.992188 L 711.441406 373.097656 L 711.3125 373.207031 L 711.191406 373.324219 L 711.070313 373.449219 L 710.957031 373.582031 L 710.84375 373.71875 L 710.738281 373.863281 L 710.632813 374.015625 L 710.535156 374.171875 L 710.546875 374.582031 L 710.574219 374.972656 L 710.609375 375.335938 L 710.65625 375.675781 L 710.714844 375.996094 L 710.785156 376.292969 L 710.867188 376.566406 L 710.960938 376.816406 L 711.066406 377.046875 L 711.183594 377.25 L 711.3125 377.4375 L 711.457031 377.601563 L 711.613281 377.746094 L 711.785156 377.875 L 711.972656 377.980469 L 712.171875 378.066406 L 712.382813 378.136719 L 712.613281 378.183594 L 712.855469 378.214844 Z M 713.109375 378.222656 "/>
<path style=" stroke:none;fill-rule:nonzero;fill:rgb(0%,0%,0%);fill-opacity:1;" d="M 709.132813 398.3125 L 707.53125 398.3125 L 707.152344 392.714844 L 707.105469 391.988281 L 707.0625 391.304688 L 707.023438 390.667969 L 706.988281 390.082031 L 706.960938 389.539063 L 706.933594 389.042969 L 706.914063 388.597656 L 706.898438 388.195313 L 706.890625 387.839844 L 706.882813 387.53125 L 704.507813 396.910156 L 702.941406 396.910156 L 700.457031 387.53125 L 700.457031 388.242188 L 700.445313 388.660156 L 700.433594 389.117188 L 700.417969 389.621094 L 700.394531 390.164063 L 700.367188 390.746094 L 700.335938 391.375 L 700.300781 392.042969 L 700.257813 392.753906 L 699.898438 398.3125 L 698.316406 398.3125 L 699.269531 385.929688 L 701.449219 385.929688 L 703.75 395.09375 L 705.964844 385.929688 L 708.179688 385.929688 Z M 709.132813 398.3125 "/>
<path style=" stroke:none;fill-rule:nonzero;fill:rgb(0%,0%,0%);fill-opacity:1;" d="M 714.875 388.613281 L 715.230469 388.625 L 715.570313 388.664063 L 715.894531 388.726563 L 716.199219 388.816406 L 716.492188 388.929688 L 716.765625 389.070313 L 717.023438 389.238281 L 717.265625 389.429688 L 717.492188 389.648438 L 717.703125 389.890625 L 717.894531 390.15625 L 718.0625 390.445313 L 718.214844 390.757813 L 718.347656 391.089844 L 718.457031 391.445313 L 718.546875 391.824219 L 718.617188 392.226563 L 718.667969 392.648438 L 718.699219 393.09375 L 718.710938 393.5625 L 718.699219 394.011719 L 718.667969 394.445313 L 718.617188 394.859375 L 718.546875 395.253906 L 718.453125 395.628906 L 718.339844 395.984375 L 718.207031 396.320313 L 718.054688 396.636719 L 717.878906 396.9375 L 717.683594 397.214844 L 717.46875 397.46875 L 717.242188 397.695313 L 717 397.894531 L 716.738281 398.070313 L 716.464844 398.214844 L 716.171875 398.335938 L 715.867188 398.429688 L 715.546875 398.496094 L 715.210938 398.535156 L 714.859375 398.546875 L 714.5 398.535156 L 714.160156 398.496094 L 713.839844 398.429688 L 713.53125 398.335938 L 713.238281 398.21875 L 712.960938 398.074219 L 712.699219 397.902344 L 712.457031 397.707031 L 712.226563 397.484375 L 712.011719 397.234375 L 711.820313 396.960938 L 711.652344 396.667969 L 711.5 396.351563 L 711.367188 396.019531 L 711.257813 395.664063 L 711.167969 395.289063 L 711.097656 394.890625 L 711.046875 394.476563 L 711.015625 394.039063 L 711.003906 393.582031 L 711.015625 393.117188 L 711.046875 392.679688 L 711.097656 392.261719 L 711.167969 391.863281 L 711.261719 391.488281 L 711.375 391.132813 L 711.507813 390.800781 L 711.664063 390.488281 L 711.835938 390.195313 L 712.03125 389.925781 L 712.246094 389.675781 L 712.472656 389.453125 L 712.71875 389.257813 L 712.980469 389.085938 L 713.253906 388.941406 L 713.546875 388.824219 L 713.855469 388.730469 L 714.179688 388.664063 L 714.519531 388.625 Z M 714.875 389.90625 L 714.667969 389.917969 L 714.472656 389.945313 L 714.285156 389.988281 L 714.105469 390.050781 L 713.941406 390.132813 L 713.78125 390.230469 L 713.636719 390.347656 L 713.5 390.484375 L 713.371094 390.636719 L 713.253906 390.808594 L 713.148438 390.996094 L 713.054688 391.203125 L 712.972656 391.429688 L 712.898438 391.675781 L 712.835938 391.941406 L 712.785156 392.230469 L 712.746094 392.535156 L 712.71875 392.863281 L 712.703125 393.210938 L 712.699219 393.582031 L 712.71875 394.28125 L 712.785156 394.910156 L 712.890625 395.460938 L 713.042969 395.941406 L 713.238281 396.347656 L 713.476563 396.679688 L 713.757813 396.9375 L 714.078125 397.121094 L 714.445313 397.234375 L 714.859375 397.269531 L 715.269531 397.234375 L 715.636719 397.121094 L 715.960938 396.9375 L 716.238281 396.675781 L 716.476563 396.34375 L 716.671875 395.933594 L 716.824219 395.453125 L 716.929688 394.898438 L 716.996094 394.265625 L 717.015625 393.5625 L 717.011719 393.195313 L 716.996094 392.847656 L 716.96875 392.519531 L 716.929688 392.210938 L 716.882813 391.925781 L 716.824219 391.65625 L 716.753906 391.410156 L 716.671875 391.183594 L 716.582031 390.976563 L 716.476563 390.789063 L 716.363281 390.621094 L 716.242188 390.472656 L 716.105469 390.339844 L 715.960938 390.226563 L 715.808594 390.128906 L 715.640625 390.050781 L 715.464844 389.988281 L 715.28125 389.945313 L 715.082031 389.917969 Z M 714.875 389.90625 "/>
<path style=" stroke:none;fill-rule:nonzero;fill:rgb(0%,0%,0%);fill-opacity:1;" d="M 725.28125 388.613281 L 725.5 388.621094 L 725.714844 388.640625 L 725.914063 388.679688 L 726.105469 388.734375 L 726.289063 388.800781 L 726.457031 388.882813 L 726.621094 388.984375 L 726.769531 389.097656 L 726.914063 389.222656 L 727.042969 389.367188 L 727.167969 389.519531 L 727.277344 389.6875 L 727.375 389.863281 L 727.457031 390.050781 L 727.53125 390.25 L 727.585938 390.460938 L 727.632813 390.683594 L 727.664063 390.917969 L 727.683594 391.164063 L 727.691406 391.421875 L 727.691406 398.3125 L 726.070313 398.3125 L 726.070313 391.441406 L 726.058594 391.273438 L 726.042969 391.113281 L 726.023438 390.96875 L 725.996094 390.832031 L 725.960938 390.703125 L 725.921875 390.589844 L 725.875 390.484375 L 725.824219 390.386719 L 725.765625 390.304688 L 725.699219 390.226563 L 725.628906 390.15625 L 725.550781 390.09375 L 725.46875 390.039063 L 725.378906 389.992188 L 725.28125 389.957031 L 725.179688 389.925781 L 725.070313 389.90625 L 724.953125 389.894531 L 724.828125 389.890625 L 724.59375 389.90625 L 724.363281 389.957031 L 724.136719 390.042969 L 723.914063 390.160156 L 723.695313 390.3125 L 723.480469 390.5 L 723.273438 390.71875 L 723.066406 390.972656 L 722.867188 391.261719 L 722.667969 391.582031 L 722.667969 398.3125 L 721.050781 398.3125 L 721.050781 388.847656 L 722.453125 388.847656 L 722.578125 390.25 L 722.804688 389.9375 L 723.039063 389.660156 L 723.285156 389.414063 L 723.539063 389.203125 L 723.804688 389.023438 L 724.078125 388.875 L 724.363281 388.757813 L 724.660156 388.675781 L 724.964844 388.628906 Z M 725.28125 388.613281 "/>
<path style=" stroke:none;fill-rule:nonzero;fill:rgb(0%,0%,0%);fill-opacity:1;" d="M 735.015625 397.898438 L 734.835938 398.023438 L 734.648438 398.132813 L 734.460938 398.230469 L 734.265625 398.316406 L 734.066406 398.386719 L 733.867188 398.445313 L 733.660156 398.488281 L 733.449219 398.523438 L 733.238281 398.542969 L 733.019531 398.546875 L 732.792969 398.542969 L 732.578125 398.519531 L 732.375 398.488281 L 732.179688 398.441406 L 731.996094 398.382813 L 731.824219 398.308594 L 731.664063 398.222656 L 731.511719 398.121094 L 731.367188 398.007813 L 731.238281 397.882813 L 731.121094 397.742188 L 731.015625 397.59375 L 730.925781 397.433594 L 730.847656 397.261719 L 730.777344 397.082031 L 730.722656 396.886719 L 730.679688 396.683594 L 730.648438 396.472656 L 730.632813 396.246094 L 730.625 396.011719 L 730.625 390.070313 L 729.277344 390.070313 L 729.277344 388.847656 L 730.625 388.847656 L 730.625 386.667969 L 732.246094 386.46875 L 732.246094 388.847656 L 734.332031 388.847656 L 734.152344 390.070313 L 732.246094 390.070313 L 732.246094 395.992188 L 732.253906 396.226563 L 732.285156 396.433594 L 732.335938 396.617188 L 732.410156 396.777344 L 732.503906 396.910156 L 732.613281 397.019531 L 732.75 397.105469 L 732.902344 397.167969 L 733.078125 397.203125 L 733.273438 397.214844 L 733.332031 397.214844 L 733.507813 397.203125 L 733.5625 397.195313 L 733.621094 397.183594 L 733.671875 397.171875 L 733.726563 397.160156 L 733.777344 397.144531 L 733.828125 397.125 L 733.882813 397.105469 L 733.941406 397.085938 L 733.996094 397.0625 L 734.054688 397.039063 L 734.171875 396.984375 L 734.234375 396.957031 L 734.296875 396.925781 L 734.421875 396.855469 Z M 735.015625 397.898438 "/>
<path style=" stroke:none;fill-rule:nonzero;fill:rgb(0%,0%,0%);fill-opacity:1;" d="M 740.652344 388.613281 L 740.875 388.621094 L 741.085938 388.640625 L 741.285156 388.679688 L 741.476563 388.734375 L 741.660156 388.800781 L 741.832031 388.882813 L 741.992188 388.984375 L 742.144531 389.097656 L 742.285156 389.222656 L 742.414063 389.367188 L 742.539063 389.523438 L 742.648438 389.691406 L 742.746094 389.871094 L 742.832031 390.058594 L 742.902344 390.257813 L 742.960938 390.46875 L 743.003906 390.691406 L 743.039063 390.921875 L 743.058594 391.167969 L 743.0625 391.421875 L 743.0625 398.3125 L 741.445313 398.3125 L 741.445313 391.617188 L 741.441406 391.441406 L 741.429688 391.273438 L 741.414063 391.113281 L 741.390625 390.96875 L 741.363281 390.832031 L 741.328125 390.703125 L 741.285156 390.589844 L 741.234375 390.484375 L 741.179688 390.386719 L 741.121094 390.304688 L 741.054688 390.226563 L 740.984375 390.15625 L 740.910156 390.09375 L 740.824219 390.039063 L 740.738281 389.992188 L 740.640625 389.957031 L 740.542969 389.925781 L 740.433594 389.90625 L 740.320313 389.894531 L 740.203125 389.890625 L 739.964844 389.90625 L 739.734375 389.957031 L 739.507813 390.042969 L 739.285156 390.160156 L 739.066406 390.3125 L 738.855469 390.5 L 738.644531 390.71875 L 738.4375 390.972656 L 738.238281 391.261719 L 738.042969 391.582031 L 738.042969 398.3125 L 736.421875 398.3125 L 736.421875 385.03125 L 738.042969 384.851563 L 738.042969 390.195313 L 738.148438 390.046875 L 738.253906 389.902344 L 738.363281 389.765625 L 738.476563 389.636719 L 738.589844 389.515625 L 738.707031 389.402344 L 738.824219 389.296875 L 738.945313 389.199219 L 739.070313 389.109375 L 739.195313 389.027344 L 739.320313 388.949219 L 739.453125 388.878906 L 739.589844 388.816406 L 739.730469 388.761719 L 739.871094 388.714844 L 740.019531 388.679688 L 740.171875 388.648438 L 740.328125 388.628906 L 740.488281 388.617188 Z M 740.652344 388.613281 "/>
<path style=" stroke:none;fill-rule:nonzero;fill:rgb(0%,0%,0%);fill-opacity:1;" d="M 29.886719 80.792969 L 42.273438 80.792969 L 42.273438 82.464844 L 29.886719 82.464844 Z M 29.886719 80.792969 "/>
<path style=" stroke:none;fill-rule:nonzero;fill:rgb(0%,0%,0%);fill-opacity:1;" d="M 32.570313 73.59375 L 32.578125 73.371094 L 32.601563 73.160156 L 32.636719 72.957031 L 32.691406 72.765625 L 32.757813 72.582031 L 32.84375 72.414063 L 32.941406 72.25 L 33.054688 72.101563 L 33.183594 71.957031 L 33.324219 71.828125 L 33.480469 71.703125 L 33.644531 71.59375 L 33.820313 71.496094 L 34.007813 71.414063 L 34.207031 71.34375 L 34.417969 71.285156 L 34.640625 71.238281 L 34.875 71.207031 L 35.121094 71.1875 L 35.378906 71.179688 L 42.273438 71.179688 L 42.273438 72.800781 L 35.574219 72.800781 L 35.398438 72.804688 L 35.230469 72.8125 L 35.070313 72.828125 L 34.925781 72.847656 L 34.789063 72.875 L 34.664063 72.910156 L 34.546875 72.949219 L 34.441406 72.996094 L 34.347656 73.046875 L 34.261719 73.105469 L 34.183594 73.171875 L 34.113281 73.242188 L 34.050781 73.320313 L 33.996094 73.402344 L 33.953125 73.492188 L 33.914063 73.589844 L 33.886719 73.691406 L 33.863281 73.804688 L 33.851563 73.917969 L 33.847656 74.042969 L 33.863281 74.277344 L 33.914063 74.507813 L 34 74.734375 L 34.117188 74.957031 L 34.269531 75.175781 L 34.457031 75.390625 L 34.675781 75.597656 L 34.929688 75.804688 L 35.21875 76.003906 L 35.539063 76.203125 L 42.273438 76.203125 L 42.273438 77.820313 L 32.804688 77.820313 L 32.804688 76.417969 L 34.207031 76.292969 L 33.898438 76.066406 L 33.617188 75.832031 L 33.371094 75.585938 L 33.160156 75.332031 L 32.980469 75.066406 L 32.832031 74.792969 L 32.71875 74.507813 L 32.636719 74.210938 L 32.585938 73.90625 Z M 32.570313 73.59375 "/>
<path style=" stroke:none;fill-rule:nonzero;fill:rgb(0%,0%,0%);fill-opacity:1;" d="M 32.570313 65.042969 L 32.574219 64.890625 L 32.578125 64.746094 L 32.609375 64.457031 L 32.632813 64.316406 L 32.660156 64.179688 L 32.730469 63.914063 L 32.773438 63.78125 L 32.820313 63.65625 L 32.875 63.53125 L 32.933594 63.40625 L 32.996094 63.28125 L 33.066406 63.160156 L 33.140625 63.039063 L 33.222656 62.917969 L 33.308594 62.800781 L 33.398438 62.683594 L 33.496094 62.566406 L 33.597656 62.449219 L 34.566406 63.167969 L 34.5 63.257813 L 34.4375 63.34375 L 34.378906 63.429688 L 34.269531 63.601563 L 34.175781 63.773438 L 34.136719 63.859375 L 34.097656 63.949219 L 34.0625 64.035156 L 34.03125 64.121094 L 34 64.210938 L 33.972656 64.300781 L 33.949219 64.390625 L 33.929688 64.484375 L 33.914063 64.578125 L 33.898438 64.675781 L 33.890625 64.769531 L 33.886719 64.871094 L 33.882813 64.96875 L 33.894531 65.175781 L 33.917969 65.375 L 33.964844 65.566406 L 34.027344 65.746094 L 34.109375 65.914063 L 34.207031 66.074219 L 34.324219 66.226563 L 34.460938 66.371094 L 34.613281 66.503906 L 34.785156 66.625 L 34.972656 66.734375 L 35.183594 66.832031 L 35.414063 66.917969 L 35.664063 66.996094 L 35.9375 67.058594 L 36.226563 67.109375 L 36.539063 67.148438 L 36.867188 67.179688 L 37.21875 67.195313 L 37.59375 67.203125 L 38.269531 67.179688 L 38.875 67.113281 L 39.410156 67 L 39.871094 66.84375 L 40.265625 66.644531 L 40.585938 66.398438 L 40.835938 66.109375 L 41.011719 65.773438 L 41.121094 65.394531 L 41.15625 64.96875 L 41.15625 64.871094 L 41.140625 64.675781 L 41.117188 64.488281 L 41.078125 64.308594 L 41.023438 64.136719 L 40.992188 64.050781 L 40.957031 63.96875 L 40.871094 63.796875 L 40.824219 63.710938 L 40.773438 63.625 L 40.664063 63.445313 L 40.601563 63.355469 L 40.539063 63.261719 L 40.472656 63.167969 L 41.460938 62.414063 L 41.660156 62.648438 L 41.835938 62.886719 L 41.996094 63.132813 L 42.128906 63.382813 L 42.246094 63.640625 L 42.339844 63.90625 L 42.410156 64.175781 L 42.464844 64.453125 L 42.496094 64.734375 L 42.507813 65.023438 L 42.492188 65.378906 L 42.457031 65.71875 L 42.390625 66.046875 L 42.304688 66.355469 L 42.191406 66.648438 L 42.050781 66.925781 L 41.886719 67.191406 L 41.699219 67.4375 L 41.484375 67.667969 L 41.246094 67.886719 L 40.984375 68.082031 L 40.699219 68.253906 L 40.390625 68.410156 L 40.058594 68.542969 L 39.707031 68.65625 L 39.332031 68.746094 L 38.933594 68.820313 L 38.515625 68.871094 L 38.074219 68.902344 L 37.609375 68.910156 L 37.304688 68.90625 L 37.007813 68.894531 L 36.71875 68.871094 L 36.4375 68.835938 L 36.164063 68.792969 L 35.902344 68.742188 L 35.644531 68.683594 L 35.398438 68.613281 L 35.160156 68.53125 L 34.929688 68.445313 L 34.707031 68.34375 L 34.496094 68.234375 L 34.292969 68.117188 L 34.105469 67.996094 L 33.925781 67.863281 L 33.753906 67.726563 L 33.597656 67.578125 L 33.449219 67.425781 L 33.308594 67.261719 L 33.183594 67.09375 L 33.066406 66.914063 L 32.960938 66.730469 L 32.871094 66.539063 L 32.789063 66.34375 L 32.722656 66.140625 L 32.667969 65.933594 L 32.625 65.71875 L 32.59375 65.5 L 32.574219 65.273438 Z M 32.570313 65.042969 "/>
<path style=" stroke:none;fill-rule:nonzero;fill:rgb(0%,0%,0%);fill-opacity:1;" d="M 32.570313 57.339844 L 32.582031 56.980469 L 32.621094 56.644531 L 32.683594 56.320313 L 32.773438 56.011719 L 32.890625 55.722656 L 33.03125 55.449219 L 33.195313 55.191406 L 33.386719 54.949219 L 33.605469 54.722656 L 33.847656 54.511719 L 34.113281 54.320313 L 34.402344 54.148438 L 34.714844 53.996094 L 35.050781 53.867188 L 35.40625 53.757813 L 35.785156 53.664063 L 36.183594 53.59375 L 36.605469 53.542969 L 37.050781 53.515625 L 37.519531 53.503906 L 37.972656 53.515625 L 38.402344 53.546875 L 38.816406 53.597656 L 39.210938 53.667969 L 39.585938 53.761719 L 39.941406 53.875 L 40.277344 54.007813 L 40.597656 54.160156 L 40.894531 54.335938 L 41.175781 54.53125 L 41.425781 54.742188 L 41.652344 54.972656 L 41.851563 55.214844 L 42.027344 55.472656 L 42.171875 55.75 L 42.292969 56.039063 L 42.386719 56.34375 L 42.453125 56.667969 L 42.492188 57.003906 L 42.507813 57.355469 L 42.492188 57.710938 L 42.453125 58.050781 L 42.386719 58.375 L 42.296875 58.683594 L 42.175781 58.976563 L 42.03125 59.253906 L 41.863281 59.511719 L 41.664063 59.757813 L 41.441406 59.988281 L 41.191406 60.199219 L 40.917969 60.390625 L 40.625 60.5625 L 40.3125 60.714844 L 39.976563 60.84375 L 39.621094 60.957031 L 39.246094 61.046875 L 38.847656 61.117188 L 38.433594 61.167969 L 37.996094 61.199219 L 37.539063 61.207031 L 37.078125 61.199219 L 36.636719 61.167969 L 36.21875 61.117188 L 35.820313 61.042969 L 35.445313 60.953125 L 35.089844 60.839844 L 34.757813 60.707031 L 34.445313 60.550781 L 34.152344 60.375 L 33.882813 60.183594 L 33.632813 59.96875 L 33.410156 59.738281 L 33.214844 59.496094 L 33.042969 59.234375 L 32.898438 58.957031 L 32.78125 58.664063 L 32.6875 58.359375 L 32.621094 58.035156 L 32.582031 57.695313 Z M 33.867188 57.339844 L 33.875 57.546875 L 33.902344 57.742188 L 33.945313 57.929688 L 34.011719 58.105469 L 34.089844 58.273438 L 34.191406 58.429688 L 34.308594 58.578125 L 34.441406 58.714844 L 34.59375 58.839844 L 34.765625 58.957031 L 34.953125 59.0625 L 35.160156 59.160156 L 35.386719 59.242188 L 35.632813 59.316406 L 35.898438 59.375 L 36.1875 59.425781 L 36.496094 59.464844 L 36.820313 59.492188 L 37.171875 59.511719 L 37.539063 59.515625 L 38.238281 59.496094 L 38.867188 59.429688 L 39.417969 59.320313 L 39.898438 59.171875 L 40.304688 58.976563 L 40.636719 58.738281 L 40.894531 58.457031 L 41.082031 58.132813 L 41.191406 57.765625 L 41.226563 57.355469 L 41.191406 56.945313 L 41.078125 56.578125 L 40.894531 56.253906 L 40.632813 55.972656 L 40.300781 55.734375 L 39.894531 55.542969 L 39.410156 55.390625 L 38.855469 55.28125 L 38.222656 55.21875 L 37.519531 55.195313 L 37.152344 55.203125 L 36.804688 55.21875 L 36.476563 55.246094 L 36.167969 55.28125 L 35.882813 55.332031 L 35.613281 55.390625 L 35.367188 55.460938 L 35.140625 55.542969 L 34.933594 55.632813 L 34.746094 55.734375 L 34.582031 55.847656 L 34.429688 55.972656 L 34.296875 56.105469 L 34.183594 56.25 L 34.085938 56.40625 L 34.007813 56.570313 L 33.945313 56.746094 L 33.902344 56.933594 L 33.875 57.128906 Z M 33.867188 57.339844 "/>
<path style=" stroke:none;fill-rule:nonzero;fill:rgb(0%,0%,0%);fill-opacity:1;" d="M 32.570313 42.414063 L 32.578125 42.214844 L 32.601563 42.023438 L 32.640625 41.835938 L 32.695313 41.660156 L 32.761719 41.492188 L 32.847656 41.332031 L 32.949219 41.183594 L 33.066406 41.039063 L 33.195313 40.90625 L 33.34375 40.777344 L 33.5 40.660156 L 33.667969 40.558594 L 33.84375 40.464844 L 34.03125 40.386719 L 34.230469 40.320313 L 34.4375 40.265625 L 34.65625 40.222656 L 34.886719 40.191406 L 35.128906 40.171875 L 35.378906 40.164063 L 42.273438 40.164063 L 42.273438 41.769531 L 35.558594 41.769531 L 35.230469 41.777344 L 34.9375 41.8125 L 34.675781 41.867188 L 34.453125 41.945313 L 34.261719 42.046875 L 34.105469 42.167969 L 33.984375 42.316406 L 33.898438 42.480469 L 33.847656 42.671875 L 33.828125 42.882813 L 33.847656 43.097656 L 33.894531 43.308594 L 33.980469 43.515625 L 34.09375 43.71875 L 34.242188 43.917969 L 34.425781 44.113281 L 34.640625 44.308594 L 34.890625 44.496094 L 35.171875 44.683594 L 35.484375 44.863281 L 42.273438 44.863281 L 42.273438 46.464844 L 35.558594 46.464844 L 35.230469 46.476563 L 34.9375 46.511719 L 34.675781 46.566406 L 34.453125 46.644531 L 34.261719 46.746094 L 34.105469 46.867188 L 33.984375 47.011719 L 33.898438 47.179688 L 33.847656 47.371094 L 33.828125 47.582031 L 33.847656 47.800781 L 33.894531 48.011719 L 33.980469 48.222656 L 34.09375 48.425781 L 34.242188 48.625 L 34.425781 48.820313 L 34.640625 49.011719 L 34.890625 49.199219 L 35.171875 49.382813 L 35.484375 49.5625 L 42.273438 49.5625 L 42.273438 51.164063 L 32.804688 51.164063 L 32.804688 49.761719 L 34.191406 49.632813 L 33.882813 49.421875 L 33.605469 49.199219 L 33.363281 48.96875 L 33.152344 48.730469 L 32.976563 48.480469 L 32.828125 48.226563 L 32.714844 47.960938 L 32.632813 47.6875 L 32.585938 47.40625 L 32.570313 47.113281 L 32.574219 46.960938 L 32.589844 46.8125 L 32.609375 46.671875 L 32.640625 46.53125 L 32.683594 46.398438 L 32.730469 46.269531 L 32.789063 46.144531 L 32.859375 46.023438 L 32.933594 45.910156 L 33.019531 45.800781 L 33.113281 45.695313 L 33.214844 45.597656 L 33.324219 45.503906 L 33.441406 45.417969 L 33.5625 45.335938 L 33.695313 45.261719 L 33.835938 45.195313 L 33.980469 45.132813 L 34.136719 45.074219 L 34.296875 45.027344 L 33.96875 44.800781 L 33.675781 44.570313 L 33.417969 44.328125 L 33.191406 44.082031 L 33 43.824219 L 32.847656 43.558594 L 32.726563 43.285156 L 32.640625 43.003906 L 32.585938 42.714844 Z M 32.570313 42.414063 "/>
<path style=" stroke:none;fill-rule:nonzero;fill:rgb(0%,0%,0%);fill-opacity:1;" d="M 37.25 30.679688 L 37.40625 30.679688 L 37.484375 30.683594 L 37.566406 30.6875 L 37.652344 30.6875 L 37.734375 30.691406 L 37.824219 30.699219 L 37.914063 30.703125 L 38.003906 30.710938 L 38.097656 30.714844 L 38.097656 36.222656 L 38.417969 36.203125 L 38.722656 36.175781 L 39.007813 36.132813 L 39.273438 36.082031 L 39.523438 36.019531 L 39.753906 35.949219 L 39.964844 35.867188 L 40.15625 35.773438 L 40.332031 35.671875 L 40.488281 35.558594 L 40.625 35.433594 L 40.75 35.304688 L 40.855469 35.164063 L 40.949219 35.011719 L 41.03125 34.855469 L 41.09375 34.691406 L 41.144531 34.515625 L 41.179688 34.332031 L 41.203125 34.140625 L 41.210938 33.9375 L 41.207031 33.808594 L 41.203125 33.683594 L 41.179688 33.441406 L 41.160156 33.324219 L 41.136719 33.210938 L 41.113281 33.101563 L 41.082031 32.992188 L 41.050781 32.886719 L 41.011719 32.785156 L 40.96875 32.679688 L 40.921875 32.574219 L 40.871094 32.46875 L 40.8125 32.363281 L 40.75 32.253906 L 40.683594 32.148438 L 40.609375 32.039063 L 40.535156 31.925781 L 40.453125 31.816406 L 40.363281 31.707031 L 41.316406 30.984375 L 41.542969 31.257813 L 41.746094 31.53125 L 41.921875 31.816406 L 42.078125 32.109375 L 42.207031 32.40625 L 42.316406 32.714844 L 42.398438 33.027344 L 42.457031 33.347656 L 42.492188 33.675781 L 42.507813 34.011719 L 42.492188 34.371094 L 42.453125 34.71875 L 42.390625 35.046875 L 42.300781 35.359375 L 42.1875 35.65625 L 42.046875 35.9375 L 41.878906 36.199219 L 41.6875 36.445313 L 41.472656 36.675781 L 41.226563 36.890625 L 40.957031 37.082031 L 40.667969 37.253906 L 40.359375 37.402344 L 40.027344 37.535156 L 39.675781 37.644531 L 39.304688 37.738281 L 38.910156 37.808594 L 38.496094 37.859375 L 38.0625 37.886719 L 37.609375 37.898438 L 37.15625 37.886719 L 36.71875 37.859375 L 36.304688 37.808594 L 35.90625 37.742188 L 35.53125 37.65625 L 35.171875 37.546875 L 34.835938 37.421875 L 34.515625 37.277344 L 34.21875 37.109375 L 33.9375 36.925781 L 33.679688 36.722656 L 33.445313 36.507813 L 33.242188 36.273438 L 33.0625 36.027344 L 32.910156 35.765625 L 32.789063 35.488281 L 32.691406 35.195313 L 32.625 34.886719 L 32.582031 34.5625 L 32.570313 34.226563 L 32.582031 33.890625 L 32.617188 33.574219 L 32.679688 33.269531 L 32.765625 32.984375 L 32.875 32.714844 L 33.011719 32.460938 L 33.167969 32.21875 L 33.351563 31.996094 L 33.5625 31.789063 L 33.792969 31.597656 L 34.046875 31.421875 L 34.316406 31.265625 L 34.613281 31.128906 L 34.925781 31.011719 L 35.261719 30.910156 L 35.617188 30.828125 L 35.992188 30.761719 L 36.390625 30.714844 L 36.808594 30.6875 Z M 36.765625 32.246094 L 36.199219 32.265625 L 35.695313 32.324219 L 35.25 32.421875 L 34.863281 32.558594 L 34.535156 32.738281 L 34.269531 32.953125 L 34.0625 33.207031 L 33.914063 33.5 L 33.824219 33.835938 L 33.792969 34.207031 L 33.800781 34.382813 L 33.824219 34.554688 L 33.863281 34.714844 L 33.914063 34.867188 L 33.984375 35.011719 L 34.066406 35.152344 L 34.164063 35.28125 L 34.277344 35.40625 L 34.40625 35.523438 L 34.550781 35.628906 L 34.707031 35.730469 L 34.882813 35.820313 L 35.078125 35.902344 L 35.289063 35.976563 L 35.523438 36.039063 L 35.773438 36.09375 L 36.042969 36.140625 L 36.328125 36.175781 L 36.636719 36.203125 L 36.960938 36.222656 L 36.960938 32.246094 Z M 36.765625 32.246094 "/>
<path style="fill-rule:nonzero;fill:rgb(100%,100%,100%);fill-opacity:1;stroke-width:1.115477;stroke-linecap:round;stroke-linejoin:round;stroke:rgb(100%,100%,100%);stroke-opacity:1;stroke-miterlimit:10;" d="M 755.90625 222.808594 L 834.113281 222.808594 L 834.113281 171.0625 L 755.90625 171.0625 Z M 755.90625 222.808594 "/>
<path style="fill-rule:nonzero;fill:rgb(66.27451%,66.27451%,66.27451%);fill-opacity:0.2;stroke-width:1.066978;stroke-linecap:square;stroke-linejoin:miter;stroke:rgb(56.470588%,5.098039%,64.313725%);stroke-opacity:1;stroke-miterlimit:10;" d="M 762.34375 199.089844 L 778.207031 199.089844 L 778.207031 183.226563 L 762.34375 183.226563 Z M 762.34375 199.089844 "/>
<path style="fill:none;stroke-width:6.40187;stroke-linecap:butt;stroke-linejoin:round;stroke:rgb(56.470588%,5.098039%,64.313725%);stroke-opacity:1;stroke-miterlimit:10;" d="M 763.363281 191.160156 L 777.1875 191.160156 "/>
<path style="fill-rule:nonzero;fill:rgb(66.27451%,66.27451%,66.27451%);fill-opacity:0.2;stroke-width:1.066978;stroke-linecap:square;stroke-linejoin:miter;stroke:rgb(98.823529%,80.784314%,14.509804%);stroke-opacity:1;stroke-miterlimit:10;" d="M 762.34375 216.371094 L 778.207031 216.371094 L 778.207031 200.507813 L 762.34375 200.507813 Z M 762.34375 216.371094 "/>
<path style="fill:none;stroke-width:6.40187;stroke-linecap:butt;stroke-linejoin:round;stroke:rgb(98.823529%,80.784314%,14.509804%);stroke-opacity:1;stroke-miterlimit:10;" d="M 763.363281 208.441406 L 777.1875 208.441406 "/>
<path style=" stroke:none;fill-rule:nonzero;fill:rgb(0%,0%,0%);fill-opacity:1;" d="M 788.363281 185.804688 L 788.542969 185.808594 L 788.71875 185.816406 L 788.890625 185.832031 L 789.058594 185.851563 L 789.21875 185.878906 L 789.375 185.914063 L 789.527344 185.953125 L 789.675781 185.996094 L 789.816406 186.046875 L 789.953125 186.105469 L 790.089844 186.167969 L 790.226563 186.238281 L 790.359375 186.3125 L 790.492188 186.394531 L 790.621094 186.480469 L 790.75 186.574219 L 790.875 186.671875 L 791 186.777344 L 791.121094 186.886719 L 791.242188 187.003906 L 790.539063 187.800781 L 790.4375 187.710938 L 790.335938 187.628906 L 790.234375 187.550781 L 790.128906 187.476563 L 790.027344 187.410156 L 789.925781 187.347656 L 789.824219 187.289063 L 789.722656 187.234375 L 789.621094 187.183594 L 789.417969 187.097656 L 789.316406 187.058594 L 789.214844 187.023438 L 789.109375 186.996094 L 788.890625 186.949219 L 788.78125 186.933594 L 788.554688 186.917969 L 788.4375 186.914063 L 788.292969 186.917969 L 788.148438 186.933594 L 788.015625 186.953125 L 787.882813 186.980469 L 787.761719 187.019531 L 787.640625 187.066406 L 787.527344 187.121094 L 787.421875 187.183594 L 787.320313 187.253906 L 787.222656 187.335938 L 787.136719 187.417969 L 787.0625 187.507813 L 786.992188 187.601563 L 786.9375 187.703125 L 786.886719 187.808594 L 786.84375 187.917969 L 786.8125 188.035156 L 786.792969 188.15625 L 786.777344 188.28125 L 786.773438 188.414063 L 786.773438 188.503906 L 786.789063 188.675781 L 786.800781 188.753906 L 786.820313 188.835938 L 786.839844 188.910156 L 786.863281 188.984375 L 786.890625 189.058594 L 786.917969 189.128906 L 786.953125 189.195313 L 786.992188 189.257813 L 787.035156 189.320313 L 787.085938 189.378906 L 787.136719 189.441406 L 787.261719 189.558594 L 787.332031 189.613281 L 787.40625 189.671875 L 787.484375 189.726563 L 787.570313 189.78125 L 787.660156 189.832031 L 787.757813 189.882813 L 787.863281 189.933594 L 787.972656 189.988281 L 788.09375 190.039063 L 788.21875 190.089844 L 788.355469 190.144531 L 788.496094 190.199219 L 788.644531 190.25 L 788.796875 190.304688 L 788.976563 190.371094 L 789.152344 190.4375 L 789.316406 190.507813 L 789.476563 190.578125 L 789.632813 190.644531 L 789.777344 190.71875 L 789.917969 190.789063 L 790.050781 190.863281 L 790.179688 190.933594 L 790.296875 191.011719 L 790.414063 191.085938 L 790.523438 191.167969 L 790.625 191.253906 L 790.722656 191.34375 L 790.816406 191.4375 L 790.902344 191.535156 L 790.984375 191.636719 L 791.0625 191.746094 L 791.132813 191.855469 L 791.199219 191.96875 L 791.257813 192.089844 L 791.3125 192.214844 L 791.359375 192.347656 L 791.398438 192.484375 L 791.433594 192.628906 L 791.464844 192.78125 L 791.484375 192.9375 L 791.5 193.097656 L 791.511719 193.265625 L 791.511719 193.441406 L 791.507813 193.613281 L 791.496094 193.785156 L 791.476563 193.953125 L 791.449219 194.121094 L 791.414063 194.28125 L 791.367188 194.4375 L 791.316406 194.589844 L 791.253906 194.742188 L 791.183594 194.886719 L 791.109375 195.03125 L 791.023438 195.164063 L 790.933594 195.292969 L 790.832031 195.417969 L 790.726563 195.535156 L 790.613281 195.648438 L 790.492188 195.753906 L 790.363281 195.855469 L 790.230469 195.953125 L 790.089844 196.042969 L 789.9375 196.125 L 789.785156 196.199219 L 789.628906 196.265625 L 789.464844 196.324219 L 789.296875 196.375 L 789.121094 196.417969 L 788.941406 196.453125 L 788.757813 196.480469 L 788.566406 196.5 L 788.371094 196.511719 L 788.167969 196.515625 L 787.800781 196.5 L 787.441406 196.460938 L 787.09375 196.394531 L 786.757813 196.300781 L 786.433594 196.175781 L 786.117188 196.027344 L 785.816406 195.851563 L 785.523438 195.652344 L 785.242188 195.421875 L 784.972656 195.164063 L 785.707031 194.371094 L 785.820313 194.464844 L 785.929688 194.558594 L 786.042969 194.648438 L 786.15625 194.730469 L 786.265625 194.808594 L 786.378906 194.882813 L 786.492188 194.953125 L 786.605469 195.019531 L 786.832031 195.136719 L 786.953125 195.183594 L 787.074219 195.226563 L 787.195313 195.265625 L 787.320313 195.296875 L 787.449219 195.328125 L 787.578125 195.347656 L 787.710938 195.367188 L 787.847656 195.378906 L 787.984375 195.386719 L 788.125 195.390625 L 788.296875 195.386719 L 788.464844 195.371094 L 788.621094 195.34375 L 788.773438 195.3125 L 788.917969 195.265625 L 789.054688 195.210938 L 789.1875 195.148438 L 789.308594 195.074219 L 789.425781 194.988281 L 789.535156 194.894531 L 789.636719 194.789063 L 789.726563 194.675781 L 789.808594 194.554688 L 789.878906 194.425781 L 789.9375 194.292969 L 789.988281 194.148438 L 790.023438 193.996094 L 790.050781 193.839844 L 790.066406 193.671875 L 790.074219 193.5 L 790.070313 193.351563 L 790.054688 193.207031 L 790.035156 193.070313 L 790.003906 192.9375 L 789.964844 192.8125 L 789.917969 192.695313 L 789.859375 192.582031 L 789.796875 192.476563 L 789.722656 192.378906 L 789.636719 192.285156 L 789.546875 192.195313 L 789.441406 192.105469 L 789.320313 192.019531 L 789.1875 191.933594 L 789.039063 191.851563 L 788.875 191.765625 L 788.699219 191.683594 L 788.503906 191.601563 L 788.300781 191.523438 L 788.078125 191.445313 L 787.796875 191.339844 L 787.527344 191.234375 L 787.277344 191.125 L 787.042969 191.011719 L 786.824219 190.894531 L 786.625 190.773438 L 786.4375 190.648438 L 786.269531 190.523438 L 786.117188 190.394531 L 785.980469 190.261719 L 785.859375 190.121094 L 785.75 189.972656 L 785.65625 189.820313 L 785.574219 189.65625 L 785.507813 189.484375 L 785.449219 189.304688 L 785.40625 189.117188 L 785.375 188.921875 L 785.355469 188.71875 L 785.347656 188.503906 L 785.351563 188.351563 L 785.363281 188.203125 L 785.382813 188.058594 L 785.410156 187.917969 L 785.441406 187.777344 L 785.484375 187.640625 L 785.53125 187.507813 L 785.589844 187.378906 L 785.652344 187.25 L 785.722656 187.125 L 785.804688 187 L 785.890625 186.882813 L 785.984375 186.773438 L 786.082031 186.667969 L 786.1875 186.566406 L 786.300781 186.472656 L 786.417969 186.382813 L 786.539063 186.300781 L 786.667969 186.222656 L 786.804688 186.148438 L 786.945313 186.085938 L 787.085938 186.027344 L 787.234375 185.972656 L 787.382813 185.929688 L 787.539063 185.890625 L 787.695313 185.859375 L 787.859375 185.835938 L 788.023438 185.820313 L 788.191406 185.808594 Z M 788.363281 185.804688 "/>
<path style=" stroke:none;fill-rule:nonzero;fill:rgb(0%,0%,0%);fill-opacity:1;" d="M 797.035156 195.976563 L 796.882813 196.078125 L 796.726563 196.167969 L 796.570313 196.25 L 796.40625 196.320313 L 796.242188 196.378906 L 796.074219 196.429688 L 795.902344 196.464844 L 795.726563 196.492188 L 795.550781 196.507813 L 795.367188 196.515625 L 795.179688 196.507813 L 795.003906 196.492188 L 794.832031 196.464844 L 794.671875 196.425781 L 794.515625 196.375 L 794.375 196.316406 L 794.238281 196.242188 L 794.109375 196.160156 L 793.992188 196.066406 L 793.882813 195.960938 L 793.785156 195.84375 L 793.699219 195.71875 L 793.625 195.585938 L 793.558594 195.445313 L 793.5 195.292969 L 793.457031 195.132813 L 793.417969 194.960938 L 793.394531 194.785156 L 793.378906 194.597656 L 793.375 194.398438 L 793.375 189.449219 L 792.25 189.449219 L 792.25 188.429688 L 793.375 188.429688 L 793.375 186.613281 L 794.722656 186.449219 L 794.722656 188.429688 L 796.464844 188.429688 L 796.3125 189.449219 L 794.722656 189.449219 L 794.722656 194.386719 L 794.730469 194.578125 L 794.757813 194.753906 L 794.800781 194.90625 L 794.859375 195.039063 L 794.9375 195.148438 L 795.03125 195.242188 L 795.140625 195.3125 L 795.269531 195.363281 L 795.417969 195.394531 L 795.578125 195.40625 L 795.628906 195.402344 L 795.679688 195.402344 L 795.773438 195.394531 L 795.824219 195.386719 L 795.867188 195.378906 L 795.914063 195.367188 L 796 195.34375 L 796.042969 195.328125 L 796.136719 195.296875 L 796.230469 195.257813 L 796.28125 195.234375 L 796.328125 195.214844 L 796.378906 195.1875 L 796.433594 195.160156 L 796.484375 195.132813 L 796.539063 195.105469 Z M 797.035156 195.976563 "/>
<path style=" stroke:none;fill-rule:nonzero;fill:rgb(0%,0%,0%);fill-opacity:1;" d="M 803.125 194.519531 L 803.125 194.613281 L 803.128906 194.703125 L 803.144531 194.867188 L 803.15625 194.941406 L 803.171875 195.007813 L 803.191406 195.074219 L 803.210938 195.132813 L 803.234375 195.191406 L 803.257813 195.238281 L 803.285156 195.285156 L 803.320313 195.324219 L 803.351563 195.367188 L 803.429688 195.4375 L 803.472656 195.472656 L 803.519531 195.503906 L 803.570313 195.53125 L 803.679688 195.585938 L 803.394531 196.5 L 803.277344 196.480469 L 803.167969 196.457031 L 803.066406 196.429688 L 802.964844 196.398438 L 802.871094 196.363281 L 802.785156 196.328125 L 802.699219 196.285156 L 802.621094 196.242188 L 802.546875 196.191406 L 802.480469 196.140625 L 802.414063 196.082031 L 802.355469 196.019531 L 802.296875 195.953125 L 802.246094 195.878906 L 802.152344 195.714844 L 802.074219 195.527344 L 802.011719 195.316406 L 801.855469 195.542969 L 801.683594 195.746094 L 801.5 195.925781 L 801.304688 196.082031 L 801.09375 196.214844 L 800.875 196.324219 L 800.640625 196.40625 L 800.394531 196.46875 L 800.136719 196.503906 L 799.867188 196.515625 L 799.664063 196.507813 L 799.464844 196.488281 L 799.277344 196.457031 L 799.097656 196.410156 L 798.925781 196.355469 L 798.765625 196.28125 L 798.613281 196.199219 L 798.46875 196.101563 L 798.332031 195.992188 L 798.203125 195.871094 L 798.085938 195.734375 L 797.980469 195.589844 L 797.890625 195.433594 L 797.808594 195.273438 L 797.742188 195.101563 L 797.6875 194.921875 L 797.644531 194.734375 L 797.613281 194.535156 L 797.59375 194.328125 L 797.589844 194.113281 L 797.597656 193.867188 L 797.621094 193.636719 L 797.664063 193.414063 L 797.71875 193.203125 L 797.792969 193.003906 L 797.886719 192.820313 L 797.992188 192.644531 L 798.117188 192.484375 L 798.257813 192.332031 L 798.414063 192.195313 L 798.585938 192.070313 L 798.773438 191.957031 L 798.972656 191.859375 L 799.1875 191.773438 L 799.414063 191.699219 L 799.65625 191.640625 L 799.914063 191.59375 L 800.183594 191.5625 L 800.46875 191.542969 L 800.769531 191.535156 L 801.789063 191.535156 L 801.789063 190.859375 L 801.785156 190.699219 L 801.773438 190.546875 L 801.757813 190.40625 L 801.734375 190.273438 L 801.703125 190.152344 L 801.664063 190.039063 L 801.621094 189.933594 L 801.566406 189.835938 L 801.507813 189.75 L 801.445313 189.675781 L 801.375 189.605469 L 801.292969 189.539063 L 801.207031 189.484375 L 801.109375 189.433594 L 801.003906 189.394531 L 800.890625 189.359375 L 800.769531 189.332031 L 800.636719 189.316406 L 800.496094 189.304688 L 800.347656 189.300781 L 800.179688 189.304688 L 800.007813 189.316406 L 799.828125 189.335938 L 799.644531 189.367188 L 799.457031 189.40625 L 799.261719 189.453125 L 799.0625 189.503906 L 798.855469 189.570313 L 798.644531 189.640625 L 798.429688 189.71875 L 798.097656 188.773438 L 798.359375 188.671875 L 798.621094 188.582031 L 798.875 188.5 L 799.125 188.429688 L 799.375 188.371094 L 799.617188 188.320313 L 799.859375 188.285156 L 800.09375 188.257813 L 800.328125 188.242188 L 800.558594 188.234375 L 801.046875 188.261719 L 801.480469 188.335938 L 801.867188 188.464844 L 802.199219 188.644531 L 802.480469 188.875 L 802.714844 189.160156 L 802.894531 189.492188 L 803.019531 189.875 L 803.097656 190.3125 L 803.125 190.800781 Z M 800.183594 195.496094 L 800.386719 195.484375 L 800.582031 195.445313 L 800.769531 195.382813 L 800.945313 195.296875 L 801.109375 195.1875 L 801.265625 195.050781 L 801.410156 194.890625 L 801.546875 194.707031 L 801.671875 194.5 L 801.789063 194.265625 L 801.789063 192.40625 L 800.917969 192.40625 L 800.546875 192.421875 L 800.214844 192.46875 L 799.925781 192.550781 L 799.671875 192.667969 L 799.457031 192.8125 L 799.28125 192.992188 L 799.144531 193.207031 L 799.046875 193.453125 L 798.988281 193.730469 L 798.96875 194.039063 L 798.972656 194.175781 L 798.980469 194.308594 L 798.996094 194.433594 L 799.019531 194.550781 L 799.046875 194.664063 L 799.082031 194.765625 L 799.121094 194.867188 L 799.171875 194.957031 L 799.222656 195.042969 L 799.285156 195.121094 L 799.347656 195.191406 L 799.421875 195.253906 L 799.496094 195.3125 L 799.578125 195.359375 L 799.667969 195.402344 L 799.757813 195.433594 L 799.855469 195.460938 L 799.960938 195.480469 L 800.070313 195.492188 Z M 800.183594 195.496094 "/>
<path style=" stroke:none;fill-rule:nonzero;fill:rgb(0%,0%,0%);fill-opacity:1;" d="M 809.289063 195.976563 L 809.136719 196.078125 L 808.980469 196.167969 L 808.824219 196.25 L 808.664063 196.320313 L 808.496094 196.378906 L 808.328125 196.429688 L 808.15625 196.464844 L 807.984375 196.492188 L 807.804688 196.507813 L 807.625 196.515625 L 807.4375 196.507813 L 807.257813 196.492188 L 807.085938 196.464844 L 806.925781 196.425781 L 806.773438 196.375 L 806.628906 196.316406 L 806.492188 196.242188 L 806.367188 196.160156 L 806.246094 196.066406 L 806.136719 195.960938 L 806.042969 195.84375 L 805.953125 195.71875 L 805.878906 195.585938 L 805.8125 195.445313 L 805.757813 195.292969 L 805.710938 195.132813 L 805.675781 194.960938 L 805.648438 194.785156 L 805.632813 194.597656 L 805.628906 194.398438 L 805.628906 189.449219 L 804.503906 189.449219 L 804.503906 188.429688 L 805.628906 188.429688 L 805.628906 186.613281 L 806.980469 186.449219 L 806.980469 188.429688 L 808.71875 188.429688 L 808.570313 189.449219 L 806.980469 189.449219 L 806.980469 194.386719 L 806.988281 194.578125 L 807.011719 194.753906 L 807.054688 194.90625 L 807.117188 195.039063 L 807.191406 195.148438 L 807.285156 195.242188 L 807.398438 195.3125 L 807.527344 195.363281 L 807.671875 195.394531 L 807.832031 195.40625 L 807.882813 195.402344 L 807.933594 195.402344 L 807.984375 195.398438 L 808.03125 195.394531 L 808.125 195.378906 L 808.210938 195.355469 L 808.257813 195.34375 L 808.296875 195.328125 L 808.390625 195.296875 L 808.484375 195.257813 L 808.535156 195.234375 L 808.585938 195.214844 L 808.738281 195.132813 L 808.792969 195.105469 Z M 809.289063 195.976563 "/>
<path style=" stroke:none;fill-rule:nonzero;fill:rgb(0%,0%,0%);fill-opacity:1;" d="M 815.992188 192.136719 L 815.992188 192.332031 L 815.988281 192.398438 L 815.984375 192.46875 L 815.984375 192.539063 L 815.980469 192.613281 L 815.972656 192.6875 L 815.96875 192.761719 L 815.964844 192.839844 L 811.375 192.839844 L 811.390625 193.109375 L 811.414063 193.363281 L 811.449219 193.597656 L 811.492188 193.820313 L 811.542969 194.027344 L 811.601563 194.21875 L 811.671875 194.398438 L 811.746094 194.558594 L 811.832031 194.703125 L 811.929688 194.835938 L 812.03125 194.949219 L 812.140625 195.050781 L 812.257813 195.140625 L 812.382813 195.21875 L 812.511719 195.285156 L 812.652344 195.339844 L 812.796875 195.382813 L 812.949219 195.410156 L 813.109375 195.429688 L 813.277344 195.433594 L 813.386719 195.433594 L 813.488281 195.429688 L 813.589844 195.421875 L 813.691406 195.410156 L 813.789063 195.394531 L 813.976563 195.355469 L 814.066406 195.328125 L 814.152344 195.300781 L 814.238281 195.269531 L 814.324219 195.234375 L 814.414063 195.195313 L 814.503906 195.152344 L 814.589844 195.105469 L 814.769531 194.996094 L 814.863281 194.9375 L 814.953125 194.871094 L 815.046875 194.804688 L 815.136719 194.730469 L 815.738281 195.523438 L 815.511719 195.714844 L 815.28125 195.882813 L 815.046875 196.03125 L 814.800781 196.160156 L 814.554688 196.265625 L 814.296875 196.355469 L 814.039063 196.425781 L 813.769531 196.476563 L 813.496094 196.503906 L 813.21875 196.515625 L 812.917969 196.503906 L 812.628906 196.472656 L 812.355469 196.417969 L 812.09375 196.34375 L 811.847656 196.25 L 811.613281 196.132813 L 811.394531 195.992188 L 811.1875 195.832031 L 810.996094 195.652344 L 810.820313 195.449219 L 810.660156 195.226563 L 810.515625 194.984375 L 810.390625 194.726563 L 810.28125 194.449219 L 810.1875 194.15625 L 810.113281 193.847656 L 810.054688 193.519531 L 810.011719 193.175781 L 809.988281 192.8125 L 809.980469 192.433594 L 809.988281 192.054688 L 810.011719 191.695313 L 810.050781 191.347656 L 810.109375 191.015625 L 810.179688 190.703125 L 810.269531 190.40625 L 810.375 190.121094 L 810.496094 189.855469 L 810.632813 189.609375 L 810.789063 189.375 L 810.957031 189.160156 L 811.136719 188.964844 L 811.332031 188.792969 L 811.539063 188.644531 L 811.757813 188.519531 L 811.988281 188.417969 L 812.230469 188.335938 L 812.488281 188.28125 L 812.757813 188.246094 L 813.039063 188.234375 L 813.316406 188.246094 L 813.582031 188.277344 L 813.835938 188.328125 L 814.074219 188.398438 L 814.296875 188.488281 L 814.511719 188.601563 L 814.710938 188.734375 L 814.894531 188.886719 L 815.070313 189.0625 L 815.230469 189.253906 L 815.375 189.464844 L 815.503906 189.691406 L 815.617188 189.9375 L 815.71875 190.199219 L 815.800781 190.476563 L 815.871094 190.773438 L 815.925781 191.089844 L 815.964844 191.417969 L 815.984375 191.769531 Z M 814.6875 191.730469 L 814.671875 191.257813 L 814.625 190.839844 L 814.542969 190.46875 L 814.425781 190.144531 L 814.28125 189.875 L 814.101563 189.652344 L 813.886719 189.476563 L 813.640625 189.355469 L 813.363281 189.28125 L 813.054688 189.253906 L 812.90625 189.261719 L 812.765625 189.28125 L 812.632813 189.3125 L 812.503906 189.355469 L 812.382813 189.414063 L 812.265625 189.480469 L 812.15625 189.5625 L 812.054688 189.65625 L 811.957031 189.765625 L 811.867188 189.886719 L 811.785156 190.015625 L 811.710938 190.164063 L 811.640625 190.324219 L 811.582031 190.5 L 811.527344 190.695313 L 811.480469 190.902344 L 811.441406 191.128906 L 811.414063 191.367188 L 811.390625 191.625 L 811.375 191.894531 L 814.6875 191.894531 Z M 814.6875 191.730469 "/>
<path style=" stroke:none;fill-rule:nonzero;fill:rgb(0%,0%,0%);fill-opacity:1;" d="M 826.523438 196.320313 L 825.832031 193.695313 L 822.367188 193.695313 L 821.679688 196.320313 L 820.285156 196.320313 L 823.269531 186 L 824.980469 186 L 827.964844 196.320313 Z M 822.652344 192.601563 L 825.546875 192.601563 L 824.109375 187.109375 Z M 822.652344 192.601563 "/>
<path style=" stroke:none;fill-rule:nonzero;fill:rgb(0%,0%,0%);fill-opacity:1;" d="M 788.363281 203.085938 L 788.542969 203.089844 L 788.71875 203.097656 L 788.890625 203.113281 L 789.058594 203.132813 L 789.21875 203.160156 L 789.375 203.191406 L 789.527344 203.230469 L 789.675781 203.277344 L 789.816406 203.328125 L 789.953125 203.386719 L 790.089844 203.449219 L 790.226563 203.515625 L 790.492188 203.671875 L 790.75 203.851563 L 790.875 203.953125 L 791 204.058594 L 791.121094 204.167969 L 791.242188 204.285156 L 790.539063 205.078125 L 790.4375 204.992188 L 790.335938 204.910156 L 790.234375 204.832031 L 790.128906 204.757813 L 789.925781 204.625 L 789.824219 204.566406 L 789.722656 204.511719 L 789.621094 204.464844 L 789.417969 204.378906 L 789.316406 204.339844 L 789.214844 204.304688 L 789.109375 204.277344 L 789 204.25 L 788.890625 204.230469 L 788.78125 204.214844 L 788.667969 204.203125 L 788.554688 204.195313 L 788.4375 204.195313 L 788.292969 204.199219 L 788.148438 204.210938 L 788.015625 204.234375 L 787.882813 204.261719 L 787.761719 204.300781 L 787.640625 204.347656 L 787.527344 204.402344 L 787.421875 204.464844 L 787.320313 204.535156 L 787.222656 204.613281 L 787.136719 204.699219 L 787.0625 204.789063 L 786.992188 204.882813 L 786.9375 204.980469 L 786.886719 205.085938 L 786.84375 205.199219 L 786.8125 205.3125 L 786.792969 205.4375 L 786.777344 205.5625 L 786.773438 205.695313 L 786.773438 205.785156 L 786.78125 205.871094 L 786.789063 205.953125 L 786.800781 206.035156 L 786.839844 206.191406 L 786.863281 206.265625 L 786.890625 206.339844 L 786.917969 206.40625 L 786.953125 206.476563 L 786.992188 206.539063 L 787.035156 206.597656 L 787.085938 206.660156 L 787.136719 206.71875 L 787.261719 206.835938 L 787.332031 206.894531 L 787.40625 206.949219 L 787.484375 207.003906 L 787.570313 207.058594 L 787.660156 207.109375 L 787.757813 207.164063 L 787.863281 207.214844 L 787.972656 207.265625 L 788.09375 207.320313 L 788.21875 207.371094 L 788.355469 207.425781 L 788.496094 207.476563 L 788.644531 207.53125 L 788.796875 207.585938 L 788.976563 207.652344 L 789.152344 207.71875 L 789.316406 207.785156 L 789.476563 207.855469 L 789.632813 207.925781 L 789.777344 207.996094 L 789.917969 208.070313 L 790.050781 208.140625 L 790.179688 208.214844 L 790.296875 208.289063 L 790.414063 208.367188 L 790.523438 208.449219 L 790.625 208.535156 L 790.722656 208.625 L 790.816406 208.71875 L 790.902344 208.816406 L 790.984375 208.917969 L 791.0625 209.023438 L 791.132813 209.136719 L 791.199219 209.25 L 791.257813 209.371094 L 791.3125 209.496094 L 791.359375 209.628906 L 791.398438 209.765625 L 791.433594 209.910156 L 791.464844 210.058594 L 791.484375 210.214844 L 791.5 210.378906 L 791.511719 210.546875 L 791.511719 210.71875 L 791.507813 210.894531 L 791.496094 211.066406 L 791.476563 211.234375 L 791.449219 211.398438 L 791.414063 211.558594 L 791.367188 211.71875 L 791.316406 211.871094 L 791.253906 212.019531 L 791.183594 212.167969 L 791.109375 212.308594 L 791.023438 212.445313 L 790.933594 212.574219 L 790.832031 212.699219 L 790.726563 212.816406 L 790.613281 212.929688 L 790.492188 213.035156 L 790.363281 213.136719 L 790.230469 213.230469 L 790.089844 213.320313 L 789.9375 213.40625 L 789.785156 213.480469 L 789.628906 213.546875 L 789.464844 213.605469 L 789.296875 213.65625 L 789.121094 213.699219 L 788.941406 213.734375 L 788.757813 213.761719 L 788.566406 213.78125 L 788.371094 213.792969 L 788.167969 213.796875 L 787.800781 213.78125 L 787.441406 213.742188 L 787.09375 213.671875 L 786.757813 213.578125 L 786.433594 213.457031 L 786.117188 213.308594 L 785.816406 213.132813 L 785.523438 212.929688 L 785.242188 212.703125 L 784.972656 212.445313 L 785.707031 211.648438 L 785.820313 211.746094 L 785.929688 211.839844 L 786.15625 212.011719 L 786.265625 212.089844 L 786.378906 212.164063 L 786.492188 212.234375 L 786.71875 212.359375 L 786.832031 212.414063 L 786.953125 212.464844 L 787.074219 212.507813 L 787.195313 212.546875 L 787.320313 212.578125 L 787.449219 212.605469 L 787.578125 212.628906 L 787.710938 212.648438 L 787.847656 212.660156 L 787.984375 212.667969 L 788.125 212.671875 L 788.296875 212.664063 L 788.464844 212.648438 L 788.621094 212.625 L 788.773438 212.589844 L 788.917969 212.546875 L 789.054688 212.492188 L 789.1875 212.425781 L 789.308594 212.351563 L 789.425781 212.269531 L 789.535156 212.175781 L 789.636719 212.070313 L 789.726563 211.957031 L 789.808594 211.835938 L 789.878906 211.707031 L 789.9375 211.570313 L 789.988281 211.429688 L 790.023438 211.277344 L 790.050781 211.117188 L 790.066406 210.953125 L 790.074219 210.78125 L 790.070313 210.628906 L 790.054688 210.488281 L 790.035156 210.347656 L 790.003906 210.21875 L 789.964844 210.09375 L 789.917969 209.976563 L 789.859375 209.863281 L 789.796875 209.757813 L 789.722656 209.65625 L 789.636719 209.566406 L 789.546875 209.476563 L 789.441406 209.386719 L 789.320313 209.300781 L 789.1875 209.214844 L 789.039063 209.128906 L 788.875 209.046875 L 788.699219 208.964844 L 788.503906 208.882813 L 788.300781 208.804688 L 788.078125 208.726563 L 787.796875 208.621094 L 787.527344 208.515625 L 787.277344 208.402344 L 787.042969 208.289063 L 786.824219 208.171875 L 786.625 208.054688 L 786.4375 207.929688 L 786.269531 207.804688 L 786.117188 207.671875 L 785.980469 207.539063 L 785.859375 207.402344 L 785.75 207.253906 L 785.65625 207.097656 L 785.574219 206.933594 L 785.507813 206.765625 L 785.449219 206.585938 L 785.40625 206.398438 L 785.375 206.199219 L 785.355469 205.996094 L 785.347656 205.785156 L 785.351563 205.632813 L 785.363281 205.484375 L 785.382813 205.339844 L 785.410156 205.195313 L 785.441406 205.058594 L 785.484375 204.921875 L 785.53125 204.789063 L 785.589844 204.65625 L 785.652344 204.53125 L 785.722656 204.40625 L 785.804688 204.28125 L 785.890625 204.164063 L 785.984375 204.050781 L 786.082031 203.945313 L 786.1875 203.847656 L 786.300781 203.75 L 786.417969 203.664063 L 786.539063 203.578125 L 786.667969 203.5 L 786.804688 203.429688 L 786.945313 203.363281 L 787.085938 203.304688 L 787.234375 203.253906 L 787.382813 203.210938 L 787.539063 203.171875 L 787.695313 203.140625 L 787.859375 203.117188 L 788.023438 203.097656 L 788.191406 203.089844 Z M 788.363281 203.085938 "/>
<path style=" stroke:none;fill-rule:nonzero;fill:rgb(0%,0%,0%);fill-opacity:1;" d="M 797.035156 213.253906 L 796.882813 213.359375 L 796.726563 213.449219 L 796.570313 213.53125 L 796.40625 213.601563 L 796.242188 213.660156 L 796.074219 213.707031 L 795.902344 213.746094 L 795.726563 213.773438 L 795.550781 213.789063 L 795.367188 213.796875 L 795.179688 213.789063 L 795.003906 213.773438 L 794.832031 213.746094 L 794.671875 213.707031 L 794.515625 213.65625 L 794.375 213.59375 L 794.238281 213.523438 L 794.109375 213.441406 L 793.992188 213.34375 L 793.882813 213.238281 L 793.785156 213.125 L 793.699219 213 L 793.625 212.867188 L 793.558594 212.722656 L 793.5 212.574219 L 793.457031 212.410156 L 793.417969 212.242188 L 793.394531 212.0625 L 793.378906 211.875 L 793.375 211.679688 L 793.375 206.730469 L 792.25 206.730469 L 792.25 205.710938 L 793.375 205.710938 L 793.375 203.894531 L 794.722656 203.730469 L 794.722656 205.710938 L 796.464844 205.710938 L 796.3125 206.730469 L 794.722656 206.730469 L 794.722656 211.664063 L 794.730469 211.859375 L 794.757813 212.03125 L 794.800781 212.183594 L 794.859375 212.316406 L 794.9375 212.429688 L 795.03125 212.523438 L 795.140625 212.59375 L 795.269531 212.644531 L 795.417969 212.675781 L 795.578125 212.683594 L 795.679688 212.683594 L 795.726563 212.679688 L 795.773438 212.671875 L 795.824219 212.667969 L 795.867188 212.65625 L 795.914063 212.648438 L 796 212.625 L 796.042969 212.609375 L 796.136719 212.578125 L 796.230469 212.539063 L 796.28125 212.515625 L 796.328125 212.492188 L 796.378906 212.46875 L 796.433594 212.441406 L 796.484375 212.414063 L 796.539063 212.386719 Z M 797.035156 213.253906 "/>
<path style=" stroke:none;fill-rule:nonzero;fill:rgb(0%,0%,0%);fill-opacity:1;" d="M 803.125 211.800781 L 803.125 211.894531 L 803.128906 211.980469 L 803.136719 212.066406 L 803.144531 212.144531 L 803.15625 212.21875 L 803.171875 212.289063 L 803.191406 212.355469 L 803.210938 212.414063 L 803.234375 212.46875 L 803.257813 212.519531 L 803.285156 212.5625 L 803.320313 212.605469 L 803.351563 212.644531 L 803.390625 212.683594 L 803.429688 212.71875 L 803.472656 212.753906 L 803.519531 212.785156 L 803.570313 212.8125 L 803.625 212.839844 L 803.679688 212.863281 L 803.394531 213.78125 L 803.277344 213.761719 L 803.167969 213.738281 L 803.066406 213.710938 L 802.964844 213.679688 L 802.871094 213.644531 L 802.699219 213.566406 L 802.621094 213.519531 L 802.546875 213.472656 L 802.480469 213.421875 L 802.414063 213.363281 L 802.355469 213.300781 L 802.296875 213.230469 L 802.246094 213.160156 L 802.199219 213.078125 L 802.152344 212.992188 L 802.113281 212.902344 L 802.074219 212.804688 L 802.042969 212.703125 L 802.011719 212.59375 L 801.855469 212.824219 L 801.683594 213.027344 L 801.5 213.207031 L 801.304688 213.363281 L 801.09375 213.496094 L 800.875 213.601563 L 800.640625 213.6875 L 800.394531 213.746094 L 800.136719 213.78125 L 799.867188 213.796875 L 799.664063 213.789063 L 799.464844 213.769531 L 799.277344 213.738281 L 799.097656 213.691406 L 798.925781 213.632813 L 798.765625 213.5625 L 798.613281 213.480469 L 798.46875 213.382813 L 798.332031 213.273438 L 798.203125 213.148438 L 798.085938 213.011719 L 797.980469 212.867188 L 797.890625 212.714844 L 797.808594 212.550781 L 797.742188 212.382813 L 797.6875 212.203125 L 797.644531 212.011719 L 797.613281 211.816406 L 797.59375 211.609375 L 797.589844 211.394531 L 797.597656 211.148438 L 797.621094 210.914063 L 797.664063 210.691406 L 797.71875 210.484375 L 797.792969 210.285156 L 797.886719 210.097656 L 797.992188 209.925781 L 798.117188 209.761719 L 798.257813 209.613281 L 798.414063 209.476563 L 798.585938 209.347656 L 798.773438 209.238281 L 798.972656 209.136719 L 799.1875 209.050781 L 799.414063 208.980469 L 799.65625 208.921875 L 799.914063 208.875 L 800.183594 208.839844 L 800.46875 208.820313 L 800.769531 208.816406 L 801.789063 208.816406 L 801.789063 208.140625 L 801.785156 207.980469 L 801.773438 207.828125 L 801.757813 207.6875 L 801.734375 207.554688 L 801.703125 207.429688 L 801.664063 207.316406 L 801.621094 207.210938 L 801.566406 207.117188 L 801.507813 207.03125 L 801.445313 206.953125 L 801.375 206.882813 L 801.292969 206.820313 L 801.207031 206.765625 L 801.109375 206.714844 L 801.003906 206.671875 L 800.890625 206.640625 L 800.769531 206.613281 L 800.636719 206.59375 L 800.496094 206.582031 L 800.347656 206.578125 L 800.179688 206.585938 L 800.007813 206.597656 L 799.828125 206.617188 L 799.644531 206.648438 L 799.457031 206.683594 L 799.261719 206.730469 L 799.0625 206.785156 L 798.855469 206.847656 L 798.644531 206.921875 L 798.429688 207 L 798.097656 206.054688 L 798.359375 205.953125 L 798.621094 205.859375 L 798.875 205.78125 L 799.125 205.710938 L 799.375 205.648438 L 799.617188 205.601563 L 799.859375 205.5625 L 800.09375 205.535156 L 800.328125 205.519531 L 800.558594 205.515625 L 801.046875 205.539063 L 801.480469 205.617188 L 801.867188 205.746094 L 802.199219 205.925781 L 802.480469 206.15625 L 802.714844 206.4375 L 802.894531 206.773438 L 803.019531 207.15625 L 803.097656 207.59375 L 803.125 208.078125 Z M 800.183594 212.773438 L 800.386719 212.761719 L 800.582031 212.726563 L 800.769531 212.664063 L 800.945313 212.578125 L 801.109375 212.46875 L 801.265625 212.332031 L 801.410156 212.171875 L 801.546875 211.988281 L 801.671875 211.777344 L 801.789063 211.546875 L 801.789063 209.683594 L 800.917969 209.683594 L 800.546875 209.703125 L 800.214844 209.75 L 799.925781 209.832031 L 799.671875 209.945313 L 799.457031 210.09375 L 799.28125 210.273438 L 799.144531 210.484375 L 799.046875 210.730469 L 798.988281 211.007813 L 798.96875 211.320313 L 798.972656 211.457031 L 798.980469 211.589844 L 798.996094 211.714844 L 799.019531 211.832031 L 799.046875 211.941406 L 799.082031 212.046875 L 799.121094 212.144531 L 799.171875 212.238281 L 799.222656 212.320313 L 799.285156 212.398438 L 799.347656 212.472656 L 799.421875 212.535156 L 799.496094 212.589844 L 799.578125 212.640625 L 799.667969 212.679688 L 799.757813 212.714844 L 799.855469 212.742188 L 799.960938 212.761719 L 800.070313 212.769531 Z M 800.183594 212.773438 "/>
<path style=" stroke:none;fill-rule:nonzero;fill:rgb(0%,0%,0%);fill-opacity:1;" d="M 809.289063 213.253906 L 809.136719 213.359375 L 808.980469 213.449219 L 808.824219 213.53125 L 808.664063 213.601563 L 808.496094 213.660156 L 808.328125 213.707031 L 808.15625 213.746094 L 807.984375 213.773438 L 807.804688 213.789063 L 807.625 213.796875 L 807.4375 213.789063 L 807.257813 213.773438 L 807.085938 213.746094 L 806.925781 213.707031 L 806.773438 213.65625 L 806.628906 213.59375 L 806.492188 213.523438 L 806.367188 213.441406 L 806.246094 213.34375 L 806.136719 213.238281 L 806.042969 213.125 L 805.953125 213 L 805.878906 212.867188 L 805.8125 212.722656 L 805.757813 212.574219 L 805.710938 212.410156 L 805.675781 212.242188 L 805.648438 212.0625 L 805.632813 211.875 L 805.628906 211.679688 L 805.628906 206.730469 L 804.503906 206.730469 L 804.503906 205.710938 L 805.628906 205.710938 L 805.628906 203.894531 L 806.980469 203.730469 L 806.980469 205.710938 L 808.71875 205.710938 L 808.570313 206.730469 L 806.980469 206.730469 L 806.980469 211.664063 L 806.988281 211.859375 L 807.011719 212.03125 L 807.054688 212.183594 L 807.117188 212.316406 L 807.191406 212.429688 L 807.285156 212.523438 L 807.398438 212.59375 L 807.527344 212.644531 L 807.671875 212.675781 L 807.832031 212.683594 L 807.933594 212.683594 L 807.984375 212.679688 L 808.03125 212.671875 L 808.078125 212.667969 L 808.125 212.65625 L 808.167969 212.648438 L 808.210938 212.636719 L 808.257813 212.625 L 808.296875 212.609375 L 808.390625 212.578125 L 808.484375 212.539063 L 808.636719 212.46875 L 808.738281 212.414063 L 808.792969 212.386719 Z M 809.289063 213.253906 "/>
<path style=" stroke:none;fill-rule:nonzero;fill:rgb(0%,0%,0%);fill-opacity:1;" d="M 815.992188 209.414063 L 815.992188 209.609375 L 815.984375 209.75 L 815.984375 209.820313 L 815.980469 209.894531 L 815.972656 209.96875 L 815.96875 210.042969 L 815.964844 210.121094 L 811.375 210.121094 L 811.390625 210.386719 L 811.414063 210.640625 L 811.449219 210.878906 L 811.492188 211.101563 L 811.542969 211.308594 L 811.601563 211.5 L 811.671875 211.675781 L 811.746094 211.839844 L 811.832031 211.984375 L 811.929688 212.113281 L 812.03125 212.230469 L 812.140625 212.332031 L 812.257813 212.421875 L 812.382813 212.5 L 812.511719 212.566406 L 812.652344 212.617188 L 812.796875 212.660156 L 812.949219 212.691406 L 813.109375 212.710938 L 813.277344 212.714844 L 813.386719 212.714844 L 813.589844 212.699219 L 813.691406 212.6875 L 813.789063 212.671875 L 813.882813 212.65625 L 813.976563 212.632813 L 814.066406 212.609375 L 814.152344 212.582031 L 814.238281 212.550781 L 814.324219 212.515625 L 814.414063 212.476563 L 814.503906 212.433594 L 814.589844 212.382813 L 814.679688 212.332031 L 814.769531 212.277344 L 814.863281 212.214844 L 814.953125 212.152344 L 815.046875 212.082031 L 815.136719 212.011719 L 815.738281 212.804688 L 815.511719 212.992188 L 815.28125 213.160156 L 815.046875 213.308594 L 814.800781 213.4375 L 814.554688 213.546875 L 814.296875 213.636719 L 814.039063 213.707031 L 813.769531 213.753906 L 813.496094 213.785156 L 813.21875 213.796875 L 812.917969 213.785156 L 812.628906 213.753906 L 812.355469 213.699219 L 812.09375 213.625 L 811.847656 213.527344 L 811.613281 213.410156 L 811.394531 213.273438 L 811.1875 213.113281 L 810.996094 212.933594 L 810.820313 212.730469 L 810.660156 212.503906 L 810.515625 212.265625 L 810.390625 212.003906 L 810.28125 211.730469 L 810.1875 211.4375 L 810.113281 211.125 L 810.054688 210.800781 L 810.011719 210.453125 L 809.988281 210.09375 L 809.980469 209.714844 L 809.988281 209.335938 L 810.011719 208.972656 L 810.050781 208.625 L 810.109375 208.296875 L 810.179688 207.984375 L 810.269531 207.683594 L 810.375 207.402344 L 810.496094 207.136719 L 810.632813 206.886719 L 810.789063 206.65625 L 810.957031 206.4375 L 811.136719 206.246094 L 811.332031 206.074219 L 811.539063 205.925781 L 811.757813 205.800781 L 811.988281 205.699219 L 812.230469 205.617188 L 812.488281 205.5625 L 812.757813 205.527344 L 813.039063 205.515625 L 813.316406 205.523438 L 813.582031 205.554688 L 813.835938 205.605469 L 814.074219 205.679688 L 814.296875 205.769531 L 814.511719 205.882813 L 814.710938 206.015625 L 814.894531 206.167969 L 815.070313 206.339844 L 815.230469 206.535156 L 815.375 206.746094 L 815.503906 206.972656 L 815.617188 207.214844 L 815.71875 207.476563 L 815.800781 207.757813 L 815.871094 208.054688 L 815.925781 208.367188 L 815.964844 208.699219 L 815.984375 209.046875 Z M 814.6875 209.011719 L 814.671875 208.539063 L 814.625 208.117188 L 814.542969 207.746094 L 814.425781 207.425781 L 814.28125 207.152344 L 814.101563 206.929688 L 813.886719 206.757813 L 813.640625 206.632813 L 813.363281 206.558594 L 813.054688 206.535156 L 812.90625 206.542969 L 812.765625 206.558594 L 812.632813 206.589844 L 812.503906 206.636719 L 812.382813 206.691406 L 812.265625 206.761719 L 812.15625 206.84375 L 812.054688 206.9375 L 811.957031 207.046875 L 811.867188 207.164063 L 811.785156 207.296875 L 811.710938 207.441406 L 811.640625 207.605469 L 811.582031 207.78125 L 811.527344 207.976563 L 811.480469 208.183594 L 811.441406 208.40625 L 811.414063 208.648438 L 811.390625 208.902344 L 811.375 209.175781 L 814.6875 209.175781 Z M 814.6875 209.011719 "/>
<path style=" stroke:none;fill-rule:nonzero;fill:rgb(0%,0%,0%);fill-opacity:1;" d="M 825.5625 208.140625 L 825.992188 208.234375 L 826.375 208.367188 L 826.710938 208.535156 L 827.003906 208.734375 L 827.25 208.972656 L 827.453125 209.246094 L 827.609375 209.554688 L 827.722656 209.898438 L 827.792969 210.277344 L 827.8125 210.691406 L 827.804688 210.976563 L 827.773438 211.246094 L 827.722656 211.503906 L 827.65625 211.746094 L 827.566406 211.972656 L 827.457031 212.183594 L 827.328125 212.378906 L 827.179688 212.5625 L 827.011719 212.726563 L 826.824219 212.878906 L 826.617188 213.015625 L 826.398438 213.140625 L 826.160156 213.246094 L 825.910156 213.339844 L 825.644531 213.421875 L 825.367188 213.484375 L 825.070313 213.535156 L 824.757813 213.570313 L 824.433594 213.59375 L 824.09375 213.601563 L 821.453125 213.601563 L 821.453125 203.28125 L 823.6875 203.28125 L 824.039063 203.285156 L 824.371094 203.304688 L 824.683594 203.339844 L 824.984375 203.386719 L 825.265625 203.445313 L 825.535156 203.519531 L 825.785156 203.601563 L 826.015625 203.703125 L 826.234375 203.816406 L 826.433594 203.941406 L 826.617188 204.078125 L 826.777344 204.230469 L 826.921875 204.390625 L 827.046875 204.566406 L 827.152344 204.753906 L 827.238281 204.953125 L 827.308594 205.164063 L 827.355469 205.390625 L 827.382813 205.625 L 827.394531 205.875 L 827.386719 206.054688 L 827.375 206.226563 L 827.347656 206.394531 L 827.3125 206.554688 L 827.265625 206.707031 L 827.210938 206.855469 L 827.144531 206.996094 L 827.066406 207.128906 L 826.980469 207.253906 L 826.882813 207.375 L 826.78125 207.484375 L 826.671875 207.589844 L 826.558594 207.683594 L 826.433594 207.769531 L 826.304688 207.851563 L 826.171875 207.925781 L 826.027344 207.988281 L 825.878906 208.046875 L 825.726563 208.097656 Z M 822.847656 204.34375 L 822.847656 207.675781 L 824.136719 207.675781 L 824.308594 207.671875 L 824.472656 207.65625 L 824.625 207.636719 L 824.773438 207.605469 L 824.910156 207.566406 L 825.042969 207.519531 L 825.164063 207.460938 L 825.28125 207.398438 L 825.386719 207.324219 L 825.488281 207.238281 L 825.582031 207.148438 L 825.667969 207.046875 L 825.742188 206.9375 L 825.804688 206.824219 L 825.859375 206.703125 L 825.90625 206.574219 L 825.9375 206.441406 L 825.964844 206.300781 L 825.980469 206.152344 L 825.984375 205.996094 L 825.976563 205.824219 L 825.960938 205.667969 L 825.933594 205.515625 L 825.898438 205.375 L 825.847656 205.246094 L 825.789063 205.125 L 825.71875 205.011719 L 825.636719 204.910156 L 825.546875 204.816406 L 825.445313 204.734375 L 825.332031 204.660156 L 825.210938 204.59375 L 825.078125 204.535156 L 824.933594 204.484375 L 824.777344 204.441406 L 824.609375 204.40625 L 824.429688 204.378906 L 824.238281 204.359375 L 824.035156 204.347656 L 823.824219 204.34375 Z M 824.109375 212.503906 L 824.324219 212.5 L 824.527344 212.488281 L 824.71875 212.46875 L 824.902344 212.4375 L 825.074219 212.398438 L 825.238281 212.355469 L 825.390625 212.300781 L 825.535156 212.234375 L 825.667969 212.164063 L 825.789063 212.085938 L 825.898438 211.992188 L 826 211.890625 L 826.085938 211.773438 L 826.164063 211.648438 L 826.226563 211.511719 L 826.28125 211.363281 L 826.320313 211.203125 L 826.351563 211.035156 L 826.367188 210.851563 L 826.375 210.660156 L 826.351563 210.289063 L 826.289063 209.957031 L 826.183594 209.664063 L 826.035156 209.410156 L 825.84375 209.199219 L 825.613281 209.023438 L 825.335938 208.886719 L 825.019531 208.789063 L 824.660156 208.730469 L 824.257813 208.710938 L 822.847656 208.710938 L 822.847656 212.503906 Z M 824.109375 212.503906 "/>
</g>
</svg>
