<?xml version="1.0" encoding="UTF-8"?>
<svg xmlns="http://www.w3.org/2000/svg" xmlns:xlink="http://www.w3.org/1999/xlink" width="540pt" height="396pt" viewBox="0 0 540 396" version="1.1">
<g id="surface14">
<rect x="0" y="0" width="540" height="396" style="fill:rgb(100%,100%,100%);fill-opacity:1;stroke:none;"/>
<path style="fill:none;stroke-width:2.987539;stroke-linecap:butt;stroke-linejoin:round;stroke:rgb(56.470588%,5.098039%,64.313725%);stroke-opacity:1;stroke-miterlimit:10;" d="M 76.640625 235.371094 L 81.886719 235.386719 L 87.128906 235.402344 L 92.375 235.417969 L 97.617188 235.433594 L 102.863281 235.453125 L 108.105469 235.46875 L 113.351563 235.484375 L 118.59375 235.5 L 123.839844 235.515625 L 129.082031 235.53125 L 139.574219 235.5625 L 144.816406 235.578125 L 150.0625 235.597656 L 155.304688 235.613281 L 160.550781 235.628906 L 165.792969 235.644531 L 171.039063 235.660156 L 176.28125 235.675781 L 181.527344 235.691406 L 186.769531 235.707031 L 192.015625 235.722656 L 197.257813 235.738281 L 202.503906 235.753906 L 207.746094 235.769531 L 218.238281 235.800781 L 223.480469 235.816406 L 228.726563 235.832031 L 233.96875 235.847656 L 239.214844 235.867188 L 244.457031 235.882813 L 249.703125 235.898438 L 254.945313 235.914063 L 260.191406 235.929688 L 265.433594 235.945313 L 270.679688 235.960938 L 275.921875 235.976563 L 281.167969 235.992188 L 286.410156 236.007813 L 296.902344 236.039063 L 302.144531 236.054688 L 307.390625 236.074219 L 312.632813 236.089844 L 317.878906 236.105469 L 323.121094 236.121094 L 328.367188 236.136719 L 333.609375 236.152344 L 338.855469 236.171875 L 344.097656 236.1875 L 349.34375 236.203125 L 354.585938 236.21875 L 359.832031 236.238281 L 365.074219 236.253906 L 370.320313 236.269531 L 375.566406 236.289063 L 380.808594 236.304688 L 386.054688 236.320313 L 391.296875 236.339844 L 396.542969 236.355469 L 401.785156 236.371094 L 407.03125 236.390625 L 412.273438 236.40625 L 417.519531 236.421875 L 422.761719 236.441406 L 428.007813 236.457031 L 433.25 236.476563 L 438.496094 236.492188 L 443.738281 236.507813 L 448.984375 236.527344 L 454.230469 236.542969 L 459.472656 236.5625 L 464.71875 236.578125 L 469.960938 236.59375 L 475.207031 236.613281 L 480.449219 236.628906 L 485.695313 236.648438 L 490.9375 236.664063 "/>
<path style="fill:none;stroke-width:2.987539;stroke-linecap:butt;stroke-linejoin:round;stroke:rgb(97.254902%,58.039216%,25.490196%);stroke-opacity:1;stroke-dasharray:11.950157,11.950157;stroke-miterlimit:10;" d="M 76.640625 181.902344 L 81.886719 181.714844 L 87.128906 181.527344 L 92.375 181.339844 L 97.617188 181.152344 L 102.863281 180.964844 L 108.105469 180.777344 L 113.351563 180.589844 L 118.59375 180.402344 L 123.839844 180.214844 L 129.082031 180.03125 L 134.328125 179.84375 L 139.574219 179.660156 L 144.816406 179.476563 L 150.0625 179.292969 L 155.304688 179.109375 L 160.550781 178.925781 L 165.792969 178.746094 L 171.039063 178.566406 L 176.28125 178.382813 L 181.527344 178.203125 L 186.769531 178.027344 L 192.015625 177.847656 L 197.257813 177.671875 L 202.503906 177.496094 L 207.746094 177.320313 L 218.238281 176.976563 L 223.480469 176.804688 L 228.726563 176.632813 L 233.96875 176.464844 L 239.214844 176.296875 L 244.457031 176.128906 L 249.703125 175.964844 L 254.945313 175.800781 L 260.191406 175.640625 L 265.433594 175.476563 L 270.679688 175.316406 L 275.921875 175.160156 L 281.167969 175.003906 L 286.410156 174.847656 L 291.65625 174.691406 L 296.902344 174.539063 L 302.144531 174.390625 L 307.390625 174.242188 L 312.632813 174.09375 L 317.878906 173.945313 L 323.121094 173.800781 L 328.367188 173.660156 L 333.609375 173.519531 L 338.855469 173.378906 L 344.097656 173.242188 L 349.34375 173.105469 L 354.585938 172.96875 L 359.832031 172.839844 L 365.074219 172.707031 L 375.566406 172.449219 L 380.808594 172.324219 L 386.054688 172.199219 L 391.296875 172.078125 L 396.542969 171.953125 L 401.785156 171.832031 L 407.03125 171.710938 L 412.273438 171.59375 L 417.519531 171.472656 L 422.761719 171.355469 L 428.007813 171.238281 L 433.25 171.121094 L 438.496094 171.003906 L 443.738281 170.886719 L 448.984375 170.773438 L 454.230469 170.65625 L 459.472656 170.542969 L 464.71875 170.425781 L 469.960938 170.3125 L 475.207031 170.199219 L 480.449219 170.082031 L 485.695313 169.96875 L 490.9375 169.855469 "/>
<path style="fill:none;stroke-width:2.987539;stroke-linecap:butt;stroke-linejoin:round;stroke:rgb(33.72549%,0.392157%,64.313725%);stroke-opacity:1;stroke-dasharray:11.950157,11.950157;stroke-miterlimit:10;" d="M 76.640625 261.734375 L 81.886719 261.75 L 87.128906 261.761719 L 92.375 261.773438 L 97.617188 261.789063 L 102.863281 261.800781 L 108.105469 261.8125 L 113.351563 261.828125 L 118.59375 261.839844 L 123.839844 261.851563 L 129.082031 261.867188 L 139.574219 261.890625 L 144.816406 261.90625 L 150.0625 261.917969 L 155.304688 261.929688 L 160.550781 261.945313 L 165.792969 261.957031 L 171.039063 261.96875 L 176.28125 261.984375 L 181.527344 261.996094 L 186.769531 262.007813 L 192.015625 262.023438 L 197.257813 262.035156 L 202.503906 262.046875 L 207.746094 262.0625 L 218.238281 262.085938 L 223.480469 262.101563 L 228.726563 262.113281 L 233.96875 262.125 L 239.214844 262.136719 L 244.457031 262.152344 L 249.703125 262.164063 L 254.945313 262.175781 L 260.191406 262.1875 L 265.433594 262.199219 L 270.679688 262.210938 L 275.921875 262.226563 L 281.167969 262.238281 L 286.410156 262.25 L 296.902344 262.273438 L 302.144531 262.285156 L 307.390625 262.296875 L 312.632813 262.308594 L 317.878906 262.320313 L 323.121094 262.332031 L 328.367188 262.34375 L 333.609375 262.355469 L 338.855469 262.367188 L 344.097656 262.378906 L 349.34375 262.390625 L 354.585938 262.402344 L 359.832031 262.414063 L 365.074219 262.425781 L 375.566406 262.449219 L 380.808594 262.457031 L 386.054688 262.46875 L 391.296875 262.480469 L 396.542969 262.492188 L 401.785156 262.503906 L 407.03125 262.515625 L 412.273438 262.527344 L 417.519531 262.535156 L 422.761719 262.546875 L 428.007813 262.558594 L 433.25 262.570313 L 438.496094 262.582031 L 443.738281 262.589844 L 454.230469 262.613281 L 459.472656 262.625 L 464.71875 262.636719 L 469.960938 262.644531 L 475.207031 262.65625 L 480.449219 262.667969 L 485.695313 262.679688 L 490.9375 262.691406 "/>
<path style=" stroke:none;fill-rule:evenodd;fill:rgb(97.254902%,58.039216%,25.490196%);fill-opacity:1;" d="M 453.339844 174.085938 L 449.957031 181.308594 L 449.957031 185.832031 L 448.355469 185.832031 L 448.355469 181.324219 L 444.972656 174.085938 L 446.679688 174.085938 L 449.191406 179.957031 L 451.683594 174.085938 Z M 453.339844 174.085938 "/>
<path style=" stroke:none;fill-rule:evenodd;fill:rgb(97.254902%,58.039216%,25.490196%);fill-opacity:1;" d="M 457.847656 172.070313 L 457.6875 172.328125 L 457.539063 172.578125 L 457.394531 172.828125 L 457.257813 173.066406 L 457.125 173.304688 L 457 173.535156 L 456.882813 173.761719 L 456.769531 173.984375 L 456.664063 174.199219 L 456.566406 174.410156 L 456.472656 174.621094 L 456.382813 174.839844 L 456.296875 175.0625 L 456.214844 175.289063 L 456.140625 175.523438 L 456.066406 175.765625 L 455.996094 176.011719 L 455.933594 176.261719 L 455.871094 176.519531 L 455.8125 176.78125 L 455.765625 177.050781 L 455.722656 177.328125 L 455.683594 177.613281 L 455.652344 177.90625 L 455.621094 178.207031 L 455.597656 178.519531 L 455.582031 178.839844 L 455.570313 179.171875 L 455.5625 179.507813 L 455.558594 179.855469 L 455.5625 180.203125 L 455.570313 180.542969 L 455.582031 180.871094 L 455.597656 181.191406 L 455.621094 181.503906 L 455.652344 181.804688 L 455.683594 182.101563 L 455.722656 182.386719 L 455.765625 182.660156 L 455.8125 182.929688 L 455.871094 183.1875 L 455.933594 183.445313 L 455.996094 183.695313 L 456.066406 183.9375 L 456.140625 184.179688 L 456.214844 184.414063 L 456.296875 184.644531 L 456.382813 184.867188 L 456.472656 185.085938 L 456.566406 185.300781 L 456.664063 185.511719 L 456.769531 185.726563 L 456.882813 185.949219 L 457 186.175781 L 457.125 186.40625 L 457.257813 186.644531 L 457.394531 186.886719 L 457.539063 187.132813 L 457.6875 187.382813 L 457.847656 187.640625 L 456.855469 188.289063 L 456.671875 188.007813 L 456.496094 187.734375 L 456.324219 187.46875 L 456.160156 187.207031 L 456.007813 186.953125 L 455.859375 186.707031 L 455.71875 186.464844 L 455.582031 186.230469 L 455.457031 186 L 455.335938 185.78125 L 455.222656 185.554688 L 455.113281 185.320313 L 455.007813 185.082031 L 454.90625 184.835938 L 454.808594 184.582031 L 454.714844 184.320313 L 454.625 184.050781 L 454.539063 183.773438 L 454.457031 183.492188 L 454.378906 183.203125 L 454.308594 182.902344 L 454.246094 182.597656 L 454.1875 182.285156 L 454.140625 181.960938 L 454.097656 181.632813 L 454.066406 181.292969 L 454.039063 180.945313 L 454.019531 180.589844 L 454.007813 180.226563 L 454.003906 179.855469 L 454.007813 179.484375 L 454.019531 179.121094 L 454.039063 178.765625 L 454.066406 178.417969 L 454.097656 178.082031 L 454.140625 177.75 L 454.1875 177.425781 L 454.246094 177.113281 L 454.308594 176.808594 L 454.378906 176.507813 L 454.457031 176.21875 L 454.539063 175.9375 L 454.625 175.664063 L 454.714844 175.394531 L 454.808594 175.136719 L 454.90625 174.882813 L 455.007813 174.636719 L 455.113281 174.402344 L 455.222656 174.171875 L 455.335938 173.949219 L 455.457031 173.722656 L 455.582031 173.492188 L 455.71875 173.253906 L 455.859375 173.011719 L 456.007813 172.761719 L 456.160156 172.507813 L 456.324219 172.246094 L 456.496094 171.976563 L 456.671875 171.703125 L 456.855469 171.421875 Z M 457.847656 172.070313 "/>
<path style=" stroke:none;fill-rule:evenodd;fill:rgb(97.254902%,58.039216%,25.490196%);fill-opacity:1;" d="M 463.460938 174.410156 L 463.460938 185.832031 L 461.941406 185.832031 L 461.941406 176.015625 L 459.570313 177.621094 L 458.871094 176.59375 L 462.113281 174.410156 Z M 463.460938 174.410156 "/>
<path style=" stroke:none;fill-rule:evenodd;fill:rgb(97.254902%,58.039216%,25.490196%);fill-opacity:1;" d="M 466.6875 171.421875 L 466.875 171.707031 L 467.054688 171.988281 L 467.226563 172.261719 L 467.390625 172.527344 L 467.546875 172.785156 L 467.695313 173.035156 L 467.835938 173.277344 L 467.96875 173.515625 L 468.09375 173.742188 L 468.207031 173.964844 L 468.324219 174.1875 L 468.433594 174.417969 L 468.539063 174.65625 L 468.640625 174.898438 L 468.738281 175.152344 L 468.832031 175.414063 L 468.921875 175.679688 L 469.007813 175.953125 L 469.085938 176.238281 L 469.164063 176.527344 L 469.234375 176.820313 L 469.300781 177.125 L 469.355469 177.4375 L 469.40625 177.757813 L 469.445313 178.085938 L 469.480469 178.421875 L 469.507813 178.765625 L 469.523438 179.121094 L 469.535156 179.484375 L 469.539063 179.855469 L 469.535156 180.226563 L 469.523438 180.589844 L 469.507813 180.945313 L 469.480469 181.292969 L 469.445313 181.632813 L 469.40625 181.960938 L 469.355469 182.285156 L 469.300781 182.597656 L 469.234375 182.902344 L 469.164063 183.203125 L 469.085938 183.488281 L 469.007813 183.769531 L 468.921875 184.039063 L 468.832031 184.304688 L 468.738281 184.5625 L 468.640625 184.8125 L 468.539063 185.058594 L 468.433594 185.292969 L 468.324219 185.523438 L 468.207031 185.746094 L 468.09375 185.96875 L 467.96875 186.195313 L 467.835938 186.433594 L 467.695313 186.675781 L 467.546875 186.925781 L 467.390625 187.1875 L 467.226563 187.449219 L 467.054688 187.722656 L 466.875 188.003906 L 466.6875 188.289063 L 465.699219 187.640625 L 465.855469 187.382813 L 466.007813 187.132813 L 466.148438 186.886719 L 466.285156 186.644531 L 466.414063 186.40625 L 466.539063 186.175781 L 466.65625 185.949219 L 466.765625 185.726563 L 466.867188 185.511719 L 466.960938 185.300781 L 467.054688 185.085938 L 467.144531 184.867188 L 467.230469 184.644531 L 467.3125 184.414063 L 467.390625 184.179688 L 467.53125 183.695313 L 467.597656 183.445313 L 467.714844 182.929688 L 467.765625 182.65625 L 467.8125 182.378906 L 467.851563 182.09375 L 467.886719 181.796875 L 467.917969 181.496094 L 467.941406 181.183594 L 467.960938 180.863281 L 467.976563 180.535156 L 467.984375 180.199219 L 467.988281 179.855469 L 467.984375 179.511719 L 467.976563 179.175781 L 467.960938 178.847656 L 467.941406 178.53125 L 467.917969 178.222656 L 467.886719 177.917969 L 467.851563 177.628906 L 467.8125 177.34375 L 467.765625 177.066406 L 467.714844 176.800781 L 467.65625 176.535156 L 467.597656 176.277344 L 467.53125 176.027344 L 467.460938 175.78125 L 467.390625 175.539063 L 467.3125 175.304688 L 467.230469 175.078125 L 467.144531 174.855469 L 467.054688 174.636719 L 466.960938 174.425781 L 466.867188 174.210938 L 466.765625 173.992188 L 466.65625 173.769531 L 466.539063 173.542969 L 466.414063 173.308594 L 466.285156 173.070313 L 466.148438 172.828125 L 466.007813 172.582031 L 465.855469 172.328125 L 465.699219 172.070313 Z M 466.6875 171.421875 "/>
<path style=" stroke:none;fill-rule:evenodd;fill:rgb(97.254902%,58.039216%,25.490196%);fill-opacity:1;" d="M 473.894531 172.054688 L 473.894531 187.570313 L 472.460938 187.570313 L 472.460938 172.054688 Z M 473.894531 172.054688 "/>
<path style=" stroke:none;fill-rule:evenodd;fill:rgb(97.254902%,58.039216%,25.490196%);fill-opacity:1;" d="M 483.660156 174.085938 L 483.660156 175.347656 L 478.367188 184.480469 L 483.640625 184.480469 L 483.46875 185.832031 L 476.625 185.832031 L 476.625 184.566406 L 481.949219 175.398438 L 477.152344 175.398438 L 477.152344 174.085938 Z M 483.660156 174.085938 "/>
<path style=" stroke:none;fill-rule:evenodd;fill:rgb(97.254902%,58.039216%,25.490196%);fill-opacity:1;" d="M 485.175781 179.191406 L 485.175781 177.960938 L 491.066406 177.960938 L 491.066406 179.191406 Z M 485.175781 182.417969 L 485.175781 181.1875 L 491.066406 181.1875 L 491.066406 182.417969 Z M 485.175781 182.417969 "/>
<path style=" stroke:none;fill-rule:evenodd;fill:rgb(97.254902%,58.039216%,25.490196%);fill-opacity:1;" d="M 496.445313 174.222656 L 496.78125 174.238281 L 497.101563 174.28125 L 497.402344 174.355469 L 497.691406 174.460938 L 497.960938 174.59375 L 498.210938 174.757813 L 498.449219 174.949219 L 498.667969 175.171875 L 498.871094 175.425781 L 499.058594 175.707031 L 499.226563 176.019531 L 499.375 176.359375 L 499.507813 176.730469 L 499.625 177.128906 L 499.722656 177.554688 L 499.800781 178.011719 L 499.863281 178.496094 L 499.910156 179.011719 L 499.9375 179.554688 L 499.945313 180.128906 L 499.9375 180.707031 L 499.910156 181.257813 L 499.863281 181.777344 L 499.800781 182.269531 L 499.722656 182.726563 L 499.625 183.160156 L 499.507813 183.558594 L 499.375 183.929688 L 499.226563 184.273438 L 499.058594 184.585938 L 498.871094 184.863281 L 498.667969 185.113281 L 498.449219 185.332031 L 498.210938 185.523438 L 497.960938 185.6875 L 497.691406 185.816406 L 497.402344 185.921875 L 497.101563 185.992188 L 496.78125 186.039063 L 496.445313 186.050781 L 496.105469 186.039063 L 495.78125 185.992188 L 495.476563 185.917969 L 495.1875 185.816406 L 494.917969 185.679688 L 494.664063 185.519531 L 494.425781 185.324219 L 494.207031 185.101563 L 494.003906 184.851563 L 493.816406 184.566406 L 493.648438 184.253906 L 493.496094 183.914063 L 493.363281 183.542969 L 493.246094 183.144531 L 493.148438 182.714844 L 493.070313 182.257813 L 493.007813 181.769531 L 492.964844 181.25 L 492.9375 180.703125 L 492.929688 180.128906 L 492.964844 179.007813 L 493.070313 178.003906 L 493.246094 177.117188 L 493.492188 176.347656 L 493.808594 175.699219 L 494.195313 175.167969 L 494.652344 174.753906 L 495.179688 174.457031 L 495.777344 174.28125 Z M 496.445313 175.417969 L 496.253906 175.429688 L 496.070313 175.460938 L 495.898438 175.515625 L 495.734375 175.59375 L 495.582031 175.691406 L 495.441406 175.808594 L 495.308594 175.953125 L 495.1875 176.117188 L 495.078125 176.300781 L 494.976563 176.507813 L 494.890625 176.738281 L 494.8125 177 L 494.742188 177.285156 L 494.683594 177.605469 L 494.632813 177.953125 L 494.589844 178.328125 L 494.558594 178.734375 L 494.535156 179.171875 L 494.519531 179.636719 L 494.515625 180.128906 L 494.519531 180.625 L 494.535156 181.09375 L 494.558594 181.53125 L 494.589844 181.941406 L 494.632813 182.316406 L 494.683594 182.667969 L 494.742188 182.984375 L 494.8125 183.277344 L 494.890625 183.535156 L 494.976563 183.765625 L 495.078125 183.96875 L 495.1875 184.152344 L 495.308594 184.3125 L 495.441406 184.453125 L 495.582031 184.570313 L 495.734375 184.667969 L 495.898438 184.742188 L 496.070313 184.796875 L 496.253906 184.828125 L 496.445313 184.839844 L 496.632813 184.828125 L 496.8125 184.796875 L 496.984375 184.742188 L 497.140625 184.667969 L 497.289063 184.570313 L 497.429688 184.453125 L 497.554688 184.3125 L 497.675781 184.152344 L 497.78125 183.96875 L 497.878906 183.765625 L 497.96875 183.535156 L 498.050781 183.277344 L 498.121094 182.984375 L 498.183594 182.667969 L 498.238281 182.316406 L 498.28125 181.941406 L 498.3125 181.53125 L 498.335938 181.09375 L 498.351563 180.625 L 498.355469 180.128906 L 498.351563 179.632813 L 498.339844 179.164063 L 498.316406 178.726563 L 498.285156 178.316406 L 498.242188 177.9375 L 498.191406 177.589844 L 498.132813 177.273438 L 498.0625 176.980469 L 497.984375 176.722656 L 497.894531 176.492188 L 497.796875 176.289063 L 497.691406 176.105469 L 497.570313 175.945313 L 497.441406 175.804688 L 497.304688 175.6875 L 497.152344 175.589844 L 496.992188 175.515625 L 496.820313 175.460938 L 496.636719 175.429688 Z M 496.445313 175.417969 "/>
<path style=" stroke:none;fill-rule:evenodd;fill:rgb(56.470588%,5.098039%,64.313725%);fill-opacity:1;" d="M 453.339844 241.90625 L 449.957031 249.128906 L 449.957031 253.652344 L 448.355469 253.652344 L 448.355469 249.144531 L 444.972656 241.90625 L 446.679688 241.90625 L 449.191406 247.777344 L 451.683594 241.90625 Z M 453.339844 241.90625 "/>
<path style=" stroke:none;fill-rule:evenodd;fill:rgb(56.470588%,5.098039%,64.313725%);fill-opacity:1;" d="M 457.847656 239.890625 L 457.6875 240.148438 L 457.539063 240.402344 L 457.394531 240.648438 L 457.257813 240.890625 L 457.125 241.125 L 457 241.355469 L 456.882813 241.582031 L 456.769531 241.804688 L 456.664063 242.019531 L 456.566406 242.230469 L 456.472656 242.441406 L 456.382813 242.660156 L 456.296875 242.882813 L 456.214844 243.109375 L 456.140625 243.34375 L 456.066406 243.585938 L 455.996094 243.832031 L 455.933594 244.082031 L 455.871094 244.339844 L 455.8125 244.605469 L 455.765625 244.871094 L 455.722656 245.148438 L 455.683594 245.433594 L 455.652344 245.726563 L 455.621094 246.03125 L 455.597656 246.339844 L 455.582031 246.660156 L 455.570313 246.992188 L 455.5625 247.328125 L 455.558594 247.675781 L 455.5625 248.023438 L 455.570313 248.363281 L 455.582031 248.691406 L 455.597656 249.011719 L 455.621094 249.324219 L 455.652344 249.628906 L 455.683594 249.921875 L 455.722656 250.207031 L 455.765625 250.480469 L 455.8125 250.75 L 455.871094 251.011719 L 455.933594 251.265625 L 455.996094 251.515625 L 456.066406 251.761719 L 456.140625 252 L 456.214844 252.234375 L 456.296875 252.464844 L 456.382813 252.6875 L 456.472656 252.910156 L 456.566406 253.121094 L 456.664063 253.332031 L 456.769531 253.550781 L 456.882813 253.769531 L 457 253.996094 L 457.125 254.226563 L 457.257813 254.464844 L 457.394531 254.707031 L 457.539063 254.953125 L 457.6875 255.203125 L 457.847656 255.460938 L 456.855469 256.109375 L 456.671875 255.828125 L 456.496094 255.554688 L 456.324219 255.289063 L 456.160156 255.027344 L 456.007813 254.773438 L 455.859375 254.527344 L 455.71875 254.285156 L 455.582031 254.050781 L 455.457031 253.824219 L 455.335938 253.601563 L 455.222656 253.375 L 455.113281 253.140625 L 455.007813 252.902344 L 454.90625 252.65625 L 454.808594 252.402344 L 454.714844 252.140625 L 454.625 251.871094 L 454.539063 251.597656 L 454.457031 251.3125 L 454.378906 251.023438 L 454.308594 250.726563 L 454.246094 250.417969 L 454.1875 250.105469 L 454.140625 249.78125 L 454.097656 249.453125 L 454.066406 249.113281 L 454.039063 248.765625 L 454.019531 248.410156 L 454.007813 248.046875 L 454.003906 247.675781 L 454.007813 247.304688 L 454.019531 246.941406 L 454.039063 246.585938 L 454.066406 246.238281 L 454.097656 245.902344 L 454.140625 245.570313 L 454.1875 245.25 L 454.246094 244.933594 L 454.308594 244.628906 L 454.378906 244.332031 L 454.457031 244.039063 L 454.539063 243.757813 L 454.625 243.484375 L 454.714844 243.214844 L 454.808594 242.957031 L 454.90625 242.703125 L 455.007813 242.460938 L 455.113281 242.222656 L 455.222656 241.992188 L 455.335938 241.769531 L 455.457031 241.546875 L 455.582031 241.3125 L 455.71875 241.078125 L 455.859375 240.832031 L 456.007813 240.582031 L 456.160156 240.328125 L 456.324219 240.066406 L 456.496094 239.796875 L 456.671875 239.523438 L 456.855469 239.242188 Z M 457.847656 239.890625 "/>
<path style=" stroke:none;fill-rule:evenodd;fill:rgb(56.470588%,5.098039%,64.313725%);fill-opacity:1;" d="M 462.898438 242.042969 L 463.234375 242.058594 L 463.554688 242.101563 L 463.859375 242.175781 L 464.144531 242.28125 L 464.414063 242.414063 L 464.667969 242.578125 L 464.902344 242.769531 L 465.121094 242.992188 L 465.324219 243.246094 L 465.511719 243.527344 L 465.679688 243.839844 L 465.832031 244.179688 L 465.964844 244.550781 L 466.078125 244.949219 L 466.175781 245.375 L 466.257813 245.832031 L 466.320313 246.320313 L 466.363281 246.832031 L 466.390625 247.378906 L 466.398438 247.949219 L 466.390625 248.527344 L 466.363281 249.078125 L 466.320313 249.597656 L 466.257813 250.089844 L 466.175781 250.550781 L 466.078125 250.980469 L 465.964844 251.378906 L 465.832031 251.753906 L 465.679688 252.09375 L 465.511719 252.40625 L 465.324219 252.683594 L 465.121094 252.933594 L 464.902344 253.15625 L 464.667969 253.34375 L 464.414063 253.507813 L 464.144531 253.640625 L 463.859375 253.742188 L 463.554688 253.816406 L 463.234375 253.859375 L 462.898438 253.875 L 462.558594 253.859375 L 462.238281 253.8125 L 461.929688 253.738281 L 461.644531 253.636719 L 461.371094 253.503906 L 461.117188 253.339844 L 460.878906 253.144531 L 460.660156 252.921875 L 460.457031 252.671875 L 460.269531 252.386719 L 460.101563 252.078125 L 459.949219 251.734375 L 459.816406 251.367188 L 459.703125 250.964844 L 459.605469 250.535156 L 459.523438 250.078125 L 459.460938 249.589844 L 459.417969 249.074219 L 459.390625 248.527344 L 459.382813 247.949219 L 459.417969 246.828125 L 459.523438 245.824219 L 459.699219 244.9375 L 459.945313 244.167969 L 460.261719 243.519531 L 460.648438 242.988281 L 461.105469 242.574219 L 461.632813 242.28125 L 462.230469 242.101563 Z M 462.898438 243.238281 L 462.707031 243.25 L 462.523438 243.28125 L 462.351563 243.335938 L 462.1875 243.414063 L 462.035156 243.511719 L 461.894531 243.632813 L 461.765625 243.773438 L 461.644531 243.9375 L 461.53125 244.125 L 461.429688 244.332031 L 461.34375 244.558594 L 461.265625 244.820313 L 461.195313 245.109375 L 461.136719 245.425781 L 461.085938 245.773438 L 461.042969 246.148438 L 461.011719 246.554688 L 460.988281 246.992188 L 460.976563 247.457031 L 460.96875 247.949219 L 460.976563 248.445313 L 460.988281 248.914063 L 461.011719 249.351563 L 461.042969 249.761719 L 461.085938 250.140625 L 461.136719 250.488281 L 461.195313 250.808594 L 461.265625 251.097656 L 461.34375 251.355469 L 461.429688 251.585938 L 461.53125 251.789063 L 461.644531 251.972656 L 461.765625 252.132813 L 461.894531 252.273438 L 462.035156 252.394531 L 462.1875 252.488281 L 462.351563 252.566406 L 462.523438 252.617188 L 462.707031 252.652344 L 462.898438 252.660156 L 463.089844 252.652344 L 463.269531 252.617188 L 463.4375 252.566406 L 463.59375 252.488281 L 463.746094 252.394531 L 463.882813 252.273438 L 464.011719 252.132813 L 464.128906 251.972656 L 464.234375 251.789063 L 464.332031 251.585938 L 464.425781 251.355469 L 464.503906 251.097656 L 464.578125 250.808594 L 464.640625 250.488281 L 464.691406 250.140625 L 464.734375 249.761719 L 464.769531 249.351563 L 464.792969 248.914063 L 464.804688 248.445313 L 464.8125 247.949219 L 464.804688 247.453125 L 464.792969 246.984375 L 464.769531 246.546875 L 464.738281 246.140625 L 464.695313 245.761719 L 464.644531 245.410156 L 464.585938 245.09375 L 464.515625 244.804688 L 464.4375 244.542969 L 464.351563 244.3125 L 464.253906 244.109375 L 464.144531 243.925781 L 464.027344 243.765625 L 463.898438 243.625 L 463.757813 243.507813 L 463.605469 243.410156 L 463.445313 243.335938 L 463.273438 243.28125 L 463.09375 243.25 Z M 462.898438 243.238281 "/>
<path style=" stroke:none;fill-rule:evenodd;fill:rgb(56.470588%,5.098039%,64.313725%);fill-opacity:1;" d="M 468.925781 239.242188 L 469.113281 239.53125 L 469.292969 239.808594 L 469.464844 240.082031 L 469.628906 240.347656 L 469.785156 240.605469 L 469.929688 240.855469 L 470.070313 241.097656 L 470.203125 241.335938 L 470.328125 241.566406 L 470.445313 241.785156 L 470.558594 242.007813 L 470.667969 242.238281 L 470.773438 242.476563 L 470.875 242.722656 L 470.972656 242.972656 L 471.066406 243.234375 L 471.15625 243.5 L 471.242188 243.777344 L 471.324219 244.058594 L 471.402344 244.347656 L 471.472656 244.640625 L 471.535156 244.945313 L 471.59375 245.257813 L 471.640625 245.578125 L 471.683594 245.90625 L 471.714844 246.242188 L 471.742188 246.589844 L 471.761719 246.941406 L 471.773438 247.304688 L 471.777344 247.675781 L 471.773438 248.046875 L 471.761719 248.410156 L 471.742188 248.765625 L 471.714844 249.113281 L 471.683594 249.453125 L 471.640625 249.78125 L 471.59375 250.105469 L 471.535156 250.417969 L 471.472656 250.726563 L 471.402344 251.023438 L 471.324219 251.308594 L 471.242188 251.589844 L 471.15625 251.859375 L 471.066406 252.125 L 470.972656 252.382813 L 470.875 252.636719 L 470.773438 252.878906 L 470.667969 253.113281 L 470.558594 253.34375 L 470.445313 253.566406 L 470.328125 253.789063 L 470.203125 254.019531 L 470.070313 254.253906 L 469.929688 254.496094 L 469.785156 254.75 L 469.628906 255.007813 L 469.464844 255.273438 L 469.292969 255.542969 L 469.113281 255.824219 L 468.925781 256.109375 L 467.933594 255.460938 L 468.09375 255.203125 L 468.242188 254.953125 L 468.386719 254.707031 L 468.523438 254.464844 L 468.652344 254.226563 L 468.773438 253.996094 L 468.890625 253.769531 L 469 253.550781 L 469.101563 253.332031 L 469.199219 253.121094 L 469.292969 252.910156 L 469.382813 252.6875 L 469.46875 252.464844 L 469.546875 252.234375 L 469.625 252 L 469.699219 251.761719 L 469.765625 251.515625 L 469.832031 251.265625 L 469.894531 251.011719 L 469.949219 250.75 L 470 250.480469 L 470.046875 250.199219 L 470.089844 249.914063 L 470.125 249.617188 L 470.15625 249.316406 L 470.179688 249.003906 L 470.199219 248.683594 L 470.210938 248.355469 L 470.21875 248.019531 L 470.222656 247.675781 L 470.21875 247.332031 L 470.210938 246.996094 L 470.199219 246.671875 L 470.179688 246.351563 L 470.15625 246.042969 L 470.125 245.742188 L 470.089844 245.449219 L 470.046875 245.164063 L 470 244.886719 L 469.949219 244.621094 L 469.894531 244.359375 L 469.832031 244.101563 L 469.765625 243.847656 L 469.699219 243.601563 L 469.625 243.363281 L 469.546875 243.128906 L 469.46875 242.898438 L 469.382813 242.675781 L 469.292969 242.460938 L 469.199219 242.246094 L 469.101563 242.035156 L 469 241.816406 L 468.890625 241.589844 L 468.773438 241.363281 L 468.652344 241.128906 L 468.523438 240.890625 L 468.386719 240.648438 L 468.242188 240.402344 L 468.09375 240.148438 L 467.933594 239.890625 Z M 468.925781 239.242188 "/>
<path style=" stroke:none;fill-rule:evenodd;fill:rgb(56.470588%,5.098039%,64.313725%);fill-opacity:1;" d="M 476.128906 239.875 L 476.128906 255.394531 L 474.695313 255.394531 L 474.695313 239.875 Z M 476.128906 239.875 "/>
<path style=" stroke:none;fill-rule:evenodd;fill:rgb(56.470588%,5.098039%,64.313725%);fill-opacity:1;" d="M 485.894531 241.90625 L 485.894531 243.167969 L 480.601563 252.304688 L 485.878906 252.304688 L 485.707031 253.652344 L 478.859375 253.652344 L 478.859375 252.386719 L 484.1875 243.222656 L 479.390625 243.222656 L 479.390625 241.90625 Z M 485.894531 241.90625 "/>
<path style=" stroke:none;fill-rule:evenodd;fill:rgb(56.470588%,5.098039%,64.313725%);fill-opacity:1;" d="M 487.414063 247.011719 L 487.414063 245.78125 L 493.304688 245.78125 L 493.304688 247.011719 Z M 487.414063 250.238281 L 487.414063 249.007813 L 493.304688 249.007813 L 493.304688 250.238281 Z M 487.414063 250.238281 "/>
<path style=" stroke:none;fill-rule:evenodd;fill:rgb(56.470588%,5.098039%,64.313725%);fill-opacity:1;" d="M 498.679688 242.042969 L 499.019531 242.058594 L 499.335938 242.101563 L 499.640625 242.175781 L 499.925781 242.28125 L 500.195313 242.414063 L 500.449219 242.578125 L 500.683594 242.769531 L 500.90625 242.992188 L 501.105469 243.246094 L 501.292969 243.527344 L 501.460938 243.839844 L 501.613281 244.179688 L 501.746094 244.550781 L 501.863281 244.949219 L 501.960938 245.375 L 502.039063 245.832031 L 502.101563 246.320313 L 502.144531 246.832031 L 502.171875 247.378906 L 502.179688 247.949219 L 502.171875 248.527344 L 502.144531 249.078125 L 502.101563 249.597656 L 502.039063 250.089844 L 501.960938 250.550781 L 501.863281 250.980469 L 501.746094 251.378906 L 501.613281 251.753906 L 501.460938 252.09375 L 501.292969 252.40625 L 501.105469 252.683594 L 500.90625 252.933594 L 500.683594 253.15625 L 500.449219 253.34375 L 500.195313 253.507813 L 499.925781 253.640625 L 499.640625 253.742188 L 499.335938 253.816406 L 499.019531 253.859375 L 498.679688 253.875 L 498.339844 253.859375 L 498.019531 253.8125 L 497.714844 253.738281 L 497.425781 253.636719 L 497.152344 253.503906 L 496.898438 253.339844 L 496.660156 253.144531 L 496.441406 252.921875 L 496.238281 252.671875 L 496.050781 252.386719 L 495.882813 252.078125 L 495.734375 251.734375 L 495.597656 251.367188 L 495.484375 250.964844 L 495.386719 250.535156 L 495.304688 250.078125 L 495.246094 249.589844 L 495.199219 249.074219 L 495.171875 248.527344 L 495.164063 247.949219 L 495.199219 246.828125 L 495.304688 245.824219 L 495.480469 244.9375 L 495.726563 244.167969 L 496.042969 243.519531 L 496.429688 242.988281 L 496.886719 242.574219 L 497.414063 242.28125 L 498.011719 242.101563 Z M 498.679688 243.238281 L 498.488281 243.25 L 498.304688 243.28125 L 498.132813 243.335938 L 497.972656 243.414063 L 497.820313 243.511719 L 497.675781 243.632813 L 497.546875 243.773438 L 497.425781 243.9375 L 497.3125 244.125 L 497.214844 244.332031 L 497.125 244.558594 L 497.046875 244.820313 L 496.976563 245.109375 L 496.917969 245.425781 L 496.867188 245.773438 L 496.824219 246.148438 L 496.792969 246.554688 L 496.769531 246.992188 L 496.757813 247.457031 L 496.753906 247.949219 L 496.757813 248.445313 L 496.769531 248.914063 L 496.792969 249.351563 L 496.824219 249.761719 L 496.867188 250.140625 L 496.917969 250.488281 L 496.976563 250.808594 L 497.046875 251.097656 L 497.125 251.355469 L 497.214844 251.585938 L 497.3125 251.789063 L 497.425781 251.972656 L 497.546875 252.132813 L 497.675781 252.273438 L 497.820313 252.394531 L 497.972656 252.488281 L 498.132813 252.566406 L 498.304688 252.617188 L 498.488281 252.652344 L 498.679688 252.660156 L 498.871094 252.652344 L 499.050781 252.617188 L 499.21875 252.566406 L 499.378906 252.488281 L 499.527344 252.394531 L 499.664063 252.273438 L 499.792969 252.132813 L 499.910156 251.972656 L 500.019531 251.789063 L 500.117188 251.585938 L 500.207031 251.355469 L 500.289063 251.097656 L 500.359375 250.808594 L 500.421875 250.488281 L 500.472656 250.140625 L 500.515625 249.761719 L 500.550781 249.351563 L 500.574219 248.914063 L 500.589844 248.445313 L 500.59375 247.949219 L 500.589844 247.453125 L 500.574219 246.984375 L 500.550781 246.546875 L 500.519531 246.140625 L 500.476563 245.761719 L 500.425781 245.410156 L 500.367188 245.09375 L 500.296875 244.804688 L 500.21875 244.542969 L 500.132813 244.3125 L 500.035156 244.109375 L 499.925781 243.925781 L 499.808594 243.765625 L 499.679688 243.625 L 499.539063 243.507813 L 499.390625 243.410156 L 499.226563 243.335938 L 499.054688 243.28125 L 498.875 243.25 Z M 498.679688 243.238281 "/>
<path style=" stroke:none;fill-rule:evenodd;fill:rgb(33.72549%,0.392157%,64.313725%);fill-opacity:1;" d="M 453.339844 272.050781 L 449.957031 279.269531 L 449.957031 283.792969 L 448.355469 283.792969 L 448.355469 279.289063 L 444.972656 272.050781 L 446.679688 272.050781 L 449.191406 277.921875 L 451.683594 272.050781 Z M 453.339844 272.050781 "/>
<path style=" stroke:none;fill-rule:evenodd;fill:rgb(33.72549%,0.392157%,64.313725%);fill-opacity:1;" d="M 457.847656 270.035156 L 457.6875 270.292969 L 457.539063 270.542969 L 457.394531 270.789063 L 457.257813 271.03125 L 457.125 271.269531 L 457 271.5 L 456.882813 271.726563 L 456.769531 271.945313 L 456.664063 272.164063 L 456.566406 272.375 L 456.472656 272.585938 L 456.382813 272.800781 L 456.296875 273.023438 L 456.214844 273.253906 L 456.140625 273.488281 L 456.066406 273.726563 L 455.996094 273.972656 L 455.933594 274.226563 L 455.871094 274.484375 L 455.8125 274.746094 L 455.765625 275.015625 L 455.722656 275.289063 L 455.683594 275.574219 L 455.652344 275.871094 L 455.621094 276.171875 L 455.597656 276.484375 L 455.582031 276.804688 L 455.570313 277.132813 L 455.5625 277.472656 L 455.558594 277.820313 L 455.5625 278.167969 L 455.570313 278.503906 L 455.582031 278.835938 L 455.597656 279.15625 L 455.621094 279.46875 L 455.652344 279.769531 L 455.683594 280.0625 L 455.722656 280.347656 L 455.765625 280.625 L 455.8125 280.890625 L 455.871094 281.152344 L 455.933594 281.40625 L 455.996094 281.65625 L 456.066406 281.902344 L 456.140625 282.144531 L 456.214844 282.378906 L 456.296875 282.605469 L 456.382813 282.832031 L 456.472656 283.050781 L 456.566406 283.265625 L 456.664063 283.476563 L 456.769531 283.691406 L 456.882813 283.914063 L 457 284.140625 L 457.125 284.371094 L 457.257813 284.605469 L 457.394531 284.847656 L 457.539063 285.09375 L 457.6875 285.347656 L 457.847656 285.605469 L 456.855469 286.253906 L 456.671875 285.972656 L 456.496094 285.699219 L 456.324219 285.433594 L 456.160156 285.171875 L 456.007813 284.917969 L 455.859375 284.667969 L 455.71875 284.429688 L 455.582031 284.195313 L 455.457031 283.964844 L 455.335938 283.742188 L 455.222656 283.519531 L 455.113281 283.285156 L 455.007813 283.046875 L 454.90625 282.796875 L 454.808594 282.542969 L 454.714844 282.28125 L 454.625 282.015625 L 454.539063 281.738281 L 454.457031 281.457031 L 454.378906 281.164063 L 454.308594 280.867188 L 454.246094 280.5625 L 454.1875 280.246094 L 454.140625 279.925781 L 454.097656 279.59375 L 454.066406 279.257813 L 454.039063 278.910156 L 454.019531 278.554688 L 454.007813 278.191406 L 454.003906 277.820313 L 454.007813 277.449219 L 454.019531 277.085938 L 454.039063 276.730469 L 454.066406 276.382813 L 454.097656 276.042969 L 454.140625 275.714844 L 454.1875 275.390625 L 454.246094 275.078125 L 454.308594 274.769531 L 454.378906 274.472656 L 454.457031 274.183594 L 454.539063 273.902344 L 454.625 273.625 L 454.714844 273.359375 L 454.808594 273.097656 L 454.90625 272.847656 L 455.007813 272.601563 L 455.113281 272.363281 L 455.222656 272.136719 L 455.335938 271.914063 L 455.457031 271.6875 L 455.582031 271.457031 L 455.71875 271.21875 L 455.859375 270.976563 L 456.007813 270.726563 L 456.160156 270.46875 L 456.324219 270.207031 L 456.496094 269.941406 L 456.671875 269.667969 L 456.855469 269.386719 Z M 457.847656 270.035156 "/>
<path style=" stroke:none;fill-rule:evenodd;fill:rgb(33.72549%,0.392157%,64.313725%);fill-opacity:1;" d="M 462.898438 272.1875 L 463.234375 272.199219 L 463.554688 272.246094 L 463.859375 272.320313 L 464.144531 272.421875 L 464.414063 272.558594 L 464.667969 272.71875 L 464.902344 272.914063 L 465.121094 273.136719 L 465.324219 273.390625 L 465.511719 273.671875 L 465.679688 273.984375 L 465.832031 274.324219 L 465.964844 274.691406 L 466.078125 275.089844 L 466.175781 275.519531 L 466.257813 275.976563 L 466.320313 276.460938 L 466.363281 276.976563 L 466.390625 277.519531 L 466.398438 278.09375 L 466.390625 278.671875 L 466.363281 279.222656 L 466.320313 279.742188 L 466.257813 280.230469 L 466.175781 280.691406 L 466.078125 281.121094 L 465.964844 281.523438 L 465.832031 281.894531 L 465.679688 282.238281 L 465.511719 282.546875 L 465.324219 282.828125 L 465.121094 283.078125 L 464.902344 283.296875 L 464.667969 283.488281 L 464.414063 283.648438 L 464.144531 283.78125 L 463.859375 283.882813 L 463.554688 283.957031 L 463.234375 284 L 462.898438 284.015625 L 462.558594 284 L 462.238281 283.957031 L 461.929688 283.882813 L 461.644531 283.777344 L 461.371094 283.644531 L 461.117188 283.480469 L 460.878906 283.289063 L 460.660156 283.066406 L 460.457031 282.8125 L 460.269531 282.53125 L 460.101563 282.21875 L 459.949219 281.878906 L 459.816406 281.507813 L 459.703125 281.109375 L 459.605469 280.679688 L 459.523438 280.21875 L 459.460938 279.734375 L 459.417969 279.214844 L 459.390625 278.667969 L 459.382813 278.09375 L 459.417969 276.96875 L 459.523438 275.964844 L 459.699219 275.082031 L 459.945313 274.3125 L 460.261719 273.664063 L 460.648438 273.132813 L 461.105469 272.71875 L 461.632813 272.421875 L 462.230469 272.246094 Z M 462.898438 273.382813 L 462.707031 273.390625 L 462.523438 273.425781 L 462.351563 273.480469 L 462.1875 273.554688 L 462.035156 273.652344 L 461.894531 273.773438 L 461.765625 273.917969 L 461.644531 274.082031 L 461.53125 274.265625 L 461.429688 274.472656 L 461.34375 274.703125 L 461.265625 274.960938 L 461.195313 275.25 L 461.136719 275.570313 L 461.085938 275.914063 L 461.042969 276.292969 L 461.011719 276.699219 L 460.988281 277.132813 L 460.976563 277.597656 L 460.96875 278.09375 L 460.976563 278.589844 L 460.988281 279.058594 L 461.011719 279.496094 L 461.042969 279.902344 L 461.085938 280.28125 L 461.136719 280.632813 L 461.195313 280.949219 L 461.265625 281.238281 L 461.34375 281.5 L 461.429688 281.730469 L 461.53125 281.933594 L 461.644531 282.117188 L 461.765625 282.277344 L 461.894531 282.417969 L 462.035156 282.535156 L 462.1875 282.632813 L 462.351563 282.707031 L 462.523438 282.761719 L 462.707031 282.792969 L 462.898438 282.804688 L 463.089844 282.792969 L 463.269531 282.761719 L 463.4375 282.707031 L 463.59375 282.632813 L 463.746094 282.535156 L 463.882813 282.417969 L 464.011719 282.277344 L 464.128906 282.117188 L 464.234375 281.933594 L 464.332031 281.730469 L 464.425781 281.5 L 464.503906 281.238281 L 464.578125 280.949219 L 464.640625 280.632813 L 464.691406 280.28125 L 464.734375 279.902344 L 464.769531 279.496094 L 464.792969 279.058594 L 464.804688 278.589844 L 464.8125 278.09375 L 464.804688 277.59375 L 464.792969 277.128906 L 464.769531 276.691406 L 464.738281 276.28125 L 464.695313 275.902344 L 464.644531 275.554688 L 464.585938 275.234375 L 464.515625 274.945313 L 464.4375 274.6875 L 464.351563 274.457031 L 464.253906 274.253906 L 464.144531 274.070313 L 464.027344 273.90625 L 463.898438 273.769531 L 463.757813 273.648438 L 463.605469 273.554688 L 463.445313 273.476563 L 463.273438 273.425781 L 463.09375 273.390625 Z M 462.898438 273.382813 "/>
<path style=" stroke:none;fill-rule:evenodd;fill:rgb(33.72549%,0.392157%,64.313725%);fill-opacity:1;" d="M 468.925781 269.386719 L 469.113281 269.671875 L 469.292969 269.953125 L 469.464844 270.222656 L 469.628906 270.488281 L 469.785156 270.746094 L 469.929688 271 L 470.070313 271.242188 L 470.203125 271.476563 L 470.328125 271.707031 L 470.445313 271.929688 L 470.558594 272.152344 L 470.667969 272.382813 L 470.773438 272.617188 L 470.875 272.863281 L 470.972656 273.117188 L 471.066406 273.375 L 471.15625 273.644531 L 471.242188 273.917969 L 471.324219 274.199219 L 471.402344 274.492188 L 471.472656 274.785156 L 471.535156 275.089844 L 471.59375 275.398438 L 471.640625 275.71875 L 471.683594 276.046875 L 471.714844 276.386719 L 471.742188 276.730469 L 471.761719 277.085938 L 471.773438 277.449219 L 471.777344 277.820313 L 471.773438 278.191406 L 471.761719 278.554688 L 471.742188 278.910156 L 471.714844 279.257813 L 471.683594 279.59375 L 471.640625 279.925781 L 471.59375 280.246094 L 471.535156 280.5625 L 471.472656 280.867188 L 471.402344 281.164063 L 471.324219 281.453125 L 471.242188 281.730469 L 471.15625 282.003906 L 471.066406 282.269531 L 470.972656 282.527344 L 470.875 282.777344 L 470.773438 283.019531 L 470.667969 283.257813 L 470.558594 283.488281 L 470.445313 283.710938 L 470.328125 283.929688 L 470.203125 284.160156 L 470.070313 284.398438 L 469.929688 284.640625 L 469.785156 284.890625 L 469.628906 285.148438 L 469.464844 285.414063 L 469.292969 285.6875 L 469.113281 285.964844 L 468.925781 286.253906 L 467.933594 285.605469 L 468.09375 285.347656 L 468.242188 285.09375 L 468.386719 284.847656 L 468.523438 284.605469 L 468.652344 284.371094 L 468.773438 284.140625 L 468.890625 283.914063 L 469 283.691406 L 469.101563 283.476563 L 469.199219 283.265625 L 469.292969 283.050781 L 469.382813 282.832031 L 469.46875 282.605469 L 469.546875 282.378906 L 469.625 282.144531 L 469.699219 281.902344 L 469.765625 281.65625 L 469.832031 281.40625 L 469.894531 281.152344 L 469.949219 280.890625 L 470 280.621094 L 470.046875 280.34375 L 470.089844 280.054688 L 470.125 279.761719 L 470.15625 279.457031 L 470.179688 279.148438 L 470.199219 278.828125 L 470.210938 278.5 L 470.21875 278.164063 L 470.222656 277.820313 L 470.21875 277.476563 L 470.210938 277.140625 L 470.199219 276.8125 L 470.179688 276.496094 L 470.15625 276.183594 L 470.125 275.882813 L 470.089844 275.589844 L 470.046875 275.304688 L 470 275.03125 L 469.949219 274.765625 L 469.894531 274.5 L 469.832031 274.242188 L 469.765625 273.992188 L 469.699219 273.746094 L 469.625 273.503906 L 469.546875 273.269531 L 469.46875 273.042969 L 469.382813 272.820313 L 469.292969 272.601563 L 469.199219 272.390625 L 469.101563 272.175781 L 469 271.957031 L 468.890625 271.734375 L 468.773438 271.503906 L 468.652344 271.273438 L 468.523438 271.035156 L 468.386719 270.792969 L 468.242188 270.542969 L 468.09375 270.292969 L 467.933594 270.035156 Z M 468.925781 269.386719 "/>
<path style=" stroke:none;fill-rule:evenodd;fill:rgb(33.72549%,0.392157%,64.313725%);fill-opacity:1;" d="M 476.128906 270.019531 L 476.128906 285.535156 L 474.695313 285.535156 L 474.695313 270.019531 Z M 476.128906 270.019531 "/>
<path style=" stroke:none;fill-rule:evenodd;fill:rgb(33.72549%,0.392157%,64.313725%);fill-opacity:1;" d="M 485.894531 272.050781 L 485.894531 273.3125 L 480.601563 282.445313 L 485.878906 282.445313 L 485.707031 283.792969 L 478.859375 283.792969 L 478.859375 282.53125 L 484.1875 273.363281 L 479.390625 273.363281 L 479.390625 272.050781 Z M 485.894531 272.050781 "/>
<path style=" stroke:none;fill-rule:evenodd;fill:rgb(33.72549%,0.392157%,64.313725%);fill-opacity:1;" d="M 487.414063 277.152344 L 487.414063 275.925781 L 493.304688 275.925781 L 493.304688 277.152344 Z M 487.414063 280.378906 L 487.414063 279.152344 L 493.304688 279.152344 L 493.304688 280.378906 Z M 487.414063 280.378906 "/>
<path style=" stroke:none;fill-rule:evenodd;fill:rgb(33.72549%,0.392157%,64.313725%);fill-opacity:1;" d="M 499.246094 272.375 L 499.246094 283.792969 L 497.726563 283.792969 L 497.726563 273.976563 L 495.351563 275.582031 L 494.652344 274.558594 L 497.894531 272.375 Z M 499.246094 272.375 "/>
<path style="fill:none;stroke-width:1.115477;stroke-linecap:butt;stroke-linejoin:round;stroke:rgb(66.27451%,66.27451%,66.27451%);stroke-opacity:1;stroke-miterlimit:10;" d="M 55.925781 345.742188 L 55.925781 14.171875 "/>
<path style="fill:none;stroke-width:1.115477;stroke-linecap:butt;stroke-linejoin:round;stroke:rgb(66.27451%,66.27451%,66.27451%);stroke-opacity:1;stroke-miterlimit:10;" d="M 55.925781 345.742188 L 511.652344 345.742188 "/>
<path style=" stroke:none;fill-rule:evenodd;fill:rgb(0%,0%,0%);fill-opacity:1;" d="M 484.292969 351.472656 L 484.09375 352.839844 L 481.054688 352.839844 L 481.054688 363.855469 L 479.378906 363.855469 L 479.378906 352.839844 L 476.246094 352.839844 L 476.246094 351.472656 Z M 484.292969 351.472656 "/>
<path style=" stroke:none;fill-rule:evenodd;fill:rgb(0%,0%,0%);fill-opacity:1;" d="M 487.460938 354.386719 L 487.460938 363.855469 L 485.839844 363.855469 L 485.839844 354.386719 Z M 486.652344 349.921875 L 486.742188 349.925781 L 486.832031 349.9375 L 486.917969 349.949219 L 486.996094 349.972656 L 487.074219 350 L 487.148438 350.035156 L 487.21875 350.074219 L 487.285156 350.121094 L 487.347656 350.171875 L 487.40625 350.230469 L 487.464844 350.292969 L 487.519531 350.359375 L 487.5625 350.425781 L 487.601563 350.496094 L 487.636719 350.570313 L 487.664063 350.648438 L 487.6875 350.726563 L 487.703125 350.8125 L 487.710938 350.898438 L 487.714844 350.984375 L 487.710938 351.074219 L 487.703125 351.160156 L 487.6875 351.242188 L 487.667969 351.324219 L 487.640625 351.398438 L 487.609375 351.472656 L 487.574219 351.546875 L 487.480469 351.679688 L 487.425781 351.742188 L 487.367188 351.796875 L 487.300781 351.84375 L 487.234375 351.886719 L 487.164063 351.925781 L 487.089844 351.957031 L 487.007813 351.984375 L 486.925781 352.003906 L 486.839844 352.019531 L 486.746094 352.027344 L 486.652344 352.03125 L 486.558594 352.027344 L 486.472656 352.019531 L 486.386719 352.003906 L 486.304688 351.984375 L 486.222656 351.957031 L 486.148438 351.925781 L 486.074219 351.886719 L 486.007813 351.84375 L 485.941406 351.796875 L 485.878906 351.742188 L 485.824219 351.679688 L 485.773438 351.613281 L 485.730469 351.546875 L 485.691406 351.472656 L 485.660156 351.398438 L 485.636719 351.324219 L 485.617188 351.242188 L 485.601563 351.160156 L 485.59375 351.074219 L 485.589844 350.984375 L 485.59375 350.898438 L 485.601563 350.8125 L 485.617188 350.726563 L 485.636719 350.648438 L 485.660156 350.570313 L 485.691406 350.496094 L 485.730469 350.425781 L 485.773438 350.359375 L 485.824219 350.292969 L 485.878906 350.230469 L 485.941406 350.171875 L 486.007813 350.121094 L 486.074219 350.074219 L 486.148438 350.035156 L 486.222656 350 L 486.304688 349.972656 L 486.386719 349.949219 L 486.558594 349.925781 Z M 486.652344 349.921875 "/>
<path style=" stroke:none;fill-rule:evenodd;fill:rgb(0%,0%,0%);fill-opacity:1;" d="M 499.125 354.152344 L 499.328125 354.160156 L 499.519531 354.183594 L 499.703125 354.222656 L 499.878906 354.277344 L 500.046875 354.347656 L 500.207031 354.433594 L 500.359375 354.53125 L 500.503906 354.648438 L 500.636719 354.78125 L 500.761719 354.925781 L 500.878906 355.082031 L 500.984375 355.25 L 501.074219 355.429688 L 501.15625 355.617188 L 501.222656 355.8125 L 501.277344 356.023438 L 501.320313 356.242188 L 501.351563 356.472656 L 501.371094 356.710938 L 501.375 356.960938 L 501.375 363.855469 L 499.773438 363.855469 L 499.773438 357.140625 L 499.761719 356.8125 L 499.730469 356.519531 L 499.671875 356.261719 L 499.59375 356.035156 L 499.496094 355.84375 L 499.371094 355.691406 L 499.226563 355.570313 L 499.058594 355.484375 L 498.871094 355.429688 L 498.65625 355.414063 L 498.441406 355.429688 L 498.234375 355.480469 L 498.027344 355.5625 L 497.824219 355.679688 L 497.621094 355.828125 L 497.425781 356.007813 L 497.234375 356.226563 L 497.042969 356.472656 L 496.859375 356.753906 L 496.675781 357.070313 L 496.675781 363.855469 L 495.074219 363.855469 L 495.074219 357.140625 L 495.0625 356.8125 L 495.03125 356.519531 L 494.976563 356.261719 L 494.898438 356.035156 L 494.796875 355.84375 L 494.671875 355.691406 L 494.527344 355.570313 L 494.359375 355.484375 L 494.171875 355.429688 L 493.960938 355.414063 L 493.742188 355.429688 L 493.527344 355.480469 L 493.320313 355.5625 L 493.117188 355.679688 L 492.914063 355.828125 L 492.71875 356.007813 L 492.527344 356.226563 L 492.339844 356.472656 L 492.15625 356.753906 L 491.980469 357.070313 L 491.980469 363.855469 L 490.378906 363.855469 L 490.378906 354.386719 L 491.78125 354.386719 L 491.90625 355.773438 L 492.121094 355.464844 L 492.34375 355.191406 L 492.574219 354.949219 L 492.8125 354.738281 L 493.058594 354.558594 L 493.316406 354.414063 L 493.582031 354.300781 L 493.855469 354.21875 L 494.136719 354.167969 L 494.425781 354.152344 L 494.578125 354.15625 L 494.726563 354.171875 L 494.871094 354.195313 L 495.007813 354.226563 L 495.144531 354.265625 L 495.273438 354.316406 L 495.394531 354.375 L 495.515625 354.441406 L 495.632813 354.519531 L 495.742188 354.605469 L 495.847656 354.699219 L 495.945313 354.796875 L 496.039063 354.90625 L 496.125 355.023438 L 496.203125 355.148438 L 496.28125 355.28125 L 496.347656 355.417969 L 496.410156 355.566406 L 496.464844 355.71875 L 496.515625 355.882813 L 496.738281 355.554688 L 496.972656 355.257813 L 497.210938 355 L 497.460938 354.777344 L 497.71875 354.585938 L 497.980469 354.429688 L 498.253906 354.308594 L 498.539063 354.222656 L 498.828125 354.171875 Z M 499.125 354.152344 "/>
<path style=" stroke:none;fill-rule:evenodd;fill:rgb(0%,0%,0%);fill-opacity:1;" d="M 510.863281 358.832031 L 510.859375 358.910156 L 510.859375 359.070313 L 510.855469 359.148438 L 510.84375 359.40625 L 510.839844 359.496094 L 510.832031 359.585938 L 510.824219 359.679688 L 505.316406 359.679688 L 505.335938 360 L 505.367188 360.304688 L 505.40625 360.589844 L 505.457031 360.859375 L 505.519531 361.105469 L 505.59375 361.335938 L 505.675781 361.546875 L 505.765625 361.742188 L 505.871094 361.917969 L 505.984375 362.074219 L 506.105469 362.210938 L 506.238281 362.332031 L 506.378906 362.441406 L 506.527344 362.535156 L 506.683594 362.613281 L 506.851563 362.679688 L 507.027344 362.730469 L 507.210938 362.765625 L 507.402344 362.785156 L 507.605469 362.792969 L 507.730469 362.792969 L 507.980469 362.777344 L 508.097656 362.761719 L 508.214844 362.742188 L 508.328125 362.722656 L 508.441406 362.695313 L 508.546875 362.667969 L 508.652344 362.632813 L 508.753906 362.59375 L 508.859375 362.554688 L 508.964844 362.507813 L 509.070313 362.453125 L 509.179688 362.398438 L 509.285156 362.335938 L 509.503906 362.195313 L 509.613281 362.117188 L 509.722656 362.035156 L 509.835938 361.949219 L 510.554688 362.902344 L 510.285156 363.128906 L 510.007813 363.328125 L 509.722656 363.507813 L 509.433594 363.660156 L 509.132813 363.792969 L 508.828125 363.898438 L 508.515625 363.984375 L 508.195313 364.042969 L 507.867188 364.078125 L 507.53125 364.089844 L 507.167969 364.078125 L 506.824219 364.039063 L 506.492188 363.972656 L 506.179688 363.886719 L 505.882813 363.769531 L 505.605469 363.628906 L 505.339844 363.464844 L 505.09375 363.273438 L 504.863281 363.054688 L 504.652344 362.8125 L 504.460938 362.542969 L 504.289063 362.253906 L 504.136719 361.941406 L 504.007813 361.609375 L 503.894531 361.257813 L 503.804688 360.886719 L 503.734375 360.496094 L 503.683594 360.082031 L 503.652344 359.648438 L 503.644531 359.195313 L 503.652344 358.738281 L 503.683594 358.304688 L 503.730469 357.886719 L 503.800781 357.492188 L 503.886719 357.113281 L 503.992188 356.757813 L 504.121094 356.417969 L 504.265625 356.101563 L 504.429688 355.800781 L 504.617188 355.523438 L 504.816406 355.261719 L 505.035156 355.027344 L 505.265625 354.824219 L 505.515625 354.644531 L 505.777344 354.496094 L 506.054688 354.371094 L 506.347656 354.277344 L 506.65625 354.207031 L 506.976563 354.167969 L 507.316406 354.152344 L 507.648438 354.164063 L 507.96875 354.203125 L 508.269531 354.265625 L 508.558594 354.347656 L 508.828125 354.460938 L 509.082031 354.59375 L 509.320313 354.753906 L 509.542969 354.9375 L 509.753906 355.144531 L 509.945313 355.378906 L 510.117188 355.628906 L 510.273438 355.902344 L 510.410156 356.195313 L 510.53125 356.507813 L 510.632813 356.84375 L 510.714844 357.199219 L 510.777344 357.578125 L 510.824219 357.976563 L 510.851563 358.394531 Z M 509.296875 358.347656 L 509.277344 357.785156 L 509.21875 357.277344 L 509.117188 356.832031 L 508.980469 356.445313 L 508.804688 356.121094 L 508.589844 355.851563 L 508.335938 355.644531 L 508.039063 355.496094 L 507.707031 355.40625 L 507.332031 355.378906 L 507.15625 355.386719 L 506.988281 355.40625 L 506.828125 355.445313 L 506.675781 355.5 L 506.527344 355.566406 L 506.390625 355.648438 L 506.257813 355.746094 L 506.136719 355.863281 L 506.019531 355.988281 L 505.910156 356.132813 L 505.8125 356.289063 L 505.722656 356.464844 L 505.640625 356.660156 L 505.566406 356.875 L 505.503906 357.105469 L 505.445313 357.355469 L 505.402344 357.625 L 505.363281 357.914063 L 505.335938 358.21875 L 505.316406 358.546875 L 509.296875 358.546875 Z M 509.296875 358.347656 "/>
<path style=" stroke:none;fill-rule:evenodd;fill:rgb(0%,0%,0%);fill-opacity:1;" d="M 34.015625 147.714844 L 34.023438 147.28125 L 34.054688 146.863281 L 34.101563 146.472656 L 34.167969 146.097656 L 34.253906 145.75 L 34.359375 145.417969 L 34.484375 145.109375 L 34.625 144.824219 L 34.789063 144.558594 L 34.96875 144.3125 L 35.171875 144.089844 L 35.390625 143.890625 L 35.628906 143.714844 L 35.886719 143.5625 L 36.164063 143.4375 L 36.457031 143.332031 L 36.773438 143.25 L 37.105469 143.191406 L 37.460938 143.15625 L 37.832031 143.144531 L 38.226563 143.15625 L 38.597656 143.191406 L 38.949219 143.25 L 39.28125 143.335938 L 39.589844 143.445313 L 39.882813 143.578125 L 40.152344 143.734375 L 40.402344 143.914063 L 40.628906 144.121094 L 40.835938 144.347656 L 41.023438 144.597656 L 41.1875 144.863281 L 41.332031 145.144531 L 41.460938 145.449219 L 41.566406 145.769531 L 41.652344 146.113281 L 41.722656 146.472656 L 41.769531 146.847656 L 41.800781 147.246094 L 41.808594 147.660156 L 41.808594 148.847656 L 46.398438 148.847656 L 46.398438 150.523438 L 34.015625 150.523438 Z M 40.515625 147.714844 L 40.507813 147.4375 L 40.488281 147.175781 L 40.460938 146.925781 L 40.417969 146.691406 L 40.367188 146.472656 L 40.300781 146.269531 L 40.222656 146.078125 L 40.132813 145.902344 L 40.03125 145.738281 L 39.917969 145.589844 L 39.792969 145.457031 L 39.648438 145.339844 L 39.484375 145.234375 L 39.304688 145.140625 L 39.105469 145.066406 L 38.890625 145 L 38.65625 144.953125 L 38.40625 144.917969 L 38.136719 144.894531 L 37.851563 144.890625 L 37.585938 144.894531 L 37.339844 144.917969 L 37.109375 144.953125 L 36.890625 145 L 36.6875 145.066406 L 36.5 145.140625 L 36.332031 145.234375 L 36.171875 145.339844 L 36.03125 145.457031 L 35.90625 145.589844 L 35.789063 145.734375 L 35.683594 145.894531 L 35.59375 146.066406 L 35.515625 146.257813 L 35.445313 146.460938 L 35.390625 146.675781 L 35.347656 146.910156 L 35.316406 147.15625 L 35.300781 147.421875 L 35.292969 147.695313 L 35.292969 148.847656 L 40.515625 148.847656 Z M 40.515625 147.714844 "/>
<path style=" stroke:none;fill-rule:evenodd;fill:rgb(0%,0%,0%);fill-opacity:1;" d="M 36.699219 137.886719 L 36.710938 137.53125 L 36.75 137.191406 L 36.8125 136.871094 L 36.902344 136.5625 L 37.015625 136.273438 L 37.15625 135.996094 L 37.324219 135.738281 L 37.515625 135.496094 L 37.734375 135.269531 L 37.976563 135.0625 L 38.242188 134.871094 L 38.53125 134.699219 L 38.84375 134.546875 L 39.175781 134.417969 L 39.53125 134.304688 L 39.910156 134.214844 L 40.3125 134.144531 L 40.734375 134.09375 L 41.179688 134.0625 L 41.648438 134.054688 L 42.097656 134.0625 L 42.53125 134.09375 L 42.945313 134.144531 L 43.339844 134.21875 L 43.714844 134.308594 L 44.070313 134.421875 L 44.40625 134.554688 L 44.722656 134.710938 L 45.023438 134.882813 L 45.300781 135.078125 L 45.554688 135.292969 L 45.78125 135.519531 L 45.980469 135.765625 L 46.152344 136.023438 L 46.300781 136.296875 L 46.421875 136.589844 L 46.515625 136.894531 L 46.582031 137.214844 L 46.621094 137.554688 L 46.632813 137.90625 L 46.621094 138.261719 L 46.582031 138.601563 L 46.515625 138.925781 L 46.421875 139.234375 L 46.304688 139.523438 L 46.160156 139.800781 L 45.988281 140.0625 L 45.792969 140.308594 L 45.570313 140.535156 L 45.320313 140.75 L 45.046875 140.941406 L 44.753906 141.113281 L 44.4375 141.261719 L 44.105469 141.394531 L 43.75 141.503906 L 43.375 141.597656 L 42.976563 141.667969 L 42.5625 141.71875 L 42.125 141.746094 L 41.664063 141.757813 L 41.203125 141.746094 L 40.765625 141.714844 L 40.347656 141.664063 L 39.949219 141.59375 L 39.574219 141.5 L 39.21875 141.386719 L 38.886719 141.253906 L 38.574219 141.101563 L 38.28125 140.925781 L 38.011719 140.730469 L 37.761719 140.519531 L 37.539063 140.289063 L 37.339844 140.042969 L 37.171875 139.785156 L 37.027344 139.507813 L 36.90625 139.214844 L 36.816406 138.90625 L 36.75 138.582031 L 36.710938 138.242188 Z M 37.992188 137.886719 L 38.003906 138.09375 L 38.03125 138.292969 L 38.074219 138.480469 L 38.136719 138.65625 L 38.21875 138.824219 L 38.316406 138.980469 L 38.433594 139.128906 L 38.570313 139.265625 L 38.722656 139.390625 L 38.894531 139.507813 L 39.082031 139.613281 L 39.285156 139.707031 L 39.511719 139.792969 L 39.761719 139.863281 L 40.027344 139.925781 L 40.316406 139.976563 L 40.621094 140.015625 L 40.949219 140.042969 L 41.296875 140.058594 L 41.664063 140.066406 L 42.367188 140.042969 L 42.996094 139.980469 L 43.546875 139.871094 L 44.027344 139.71875 L 44.433594 139.523438 L 44.765625 139.289063 L 45.023438 139.007813 L 45.207031 138.683594 L 45.320313 138.316406 L 45.355469 137.90625 L 45.320313 137.496094 L 45.207031 137.128906 L 45.023438 136.804688 L 44.761719 136.523438 L 44.429688 136.285156 L 44.019531 136.089844 L 43.539063 135.941406 L 42.984375 135.832031 L 42.351563 135.765625 L 41.648438 135.746094 L 41.28125 135.75 L 40.933594 135.765625 L 40.605469 135.792969 L 40.296875 135.832031 L 40.007813 135.878906 L 39.742188 135.941406 L 39.496094 136.011719 L 39.269531 136.089844 L 39.0625 136.183594 L 38.875 136.285156 L 38.707031 136.398438 L 38.558594 136.523438 L 38.425781 136.65625 L 38.3125 136.800781 L 38.214844 136.957031 L 38.136719 137.121094 L 38.074219 137.296875 L 38.027344 137.484375 L 38.003906 137.679688 Z M 37.992188 137.886719 "/>
<path style=" stroke:none;fill-rule:evenodd;fill:rgb(0%,0%,0%);fill-opacity:1;" d="M 45.984375 127.230469 L 46.109375 127.414063 L 46.21875 127.597656 L 46.316406 127.789063 L 46.402344 127.984375 L 46.472656 128.179688 L 46.53125 128.382813 L 46.574219 128.589844 L 46.609375 128.796875 L 46.628906 129.011719 L 46.632813 129.230469 L 46.628906 129.453125 L 46.605469 129.667969 L 46.574219 129.875 L 46.527344 130.066406 L 46.46875 130.25 L 46.394531 130.421875 L 46.308594 130.585938 L 46.207031 130.738281 L 46.09375 130.878906 L 45.96875 131.011719 L 45.828125 131.128906 L 45.679688 131.230469 L 45.519531 131.324219 L 45.347656 131.402344 L 45.167969 131.46875 L 44.972656 131.523438 L 44.769531 131.566406 L 44.554688 131.597656 L 44.332031 131.617188 L 44.097656 131.625 L 38.15625 131.625 L 38.15625 132.972656 L 36.933594 132.972656 L 36.933594 131.625 L 34.753906 131.625 L 34.554688 130.003906 L 36.933594 130.003906 L 36.933594 127.914063 L 38.15625 128.09375 L 38.15625 130.003906 L 44.078125 130.003906 L 44.308594 129.992188 L 44.519531 129.960938 L 44.703125 129.910156 L 44.859375 129.839844 L 44.996094 129.746094 L 45.105469 129.632813 L 45.191406 129.5 L 45.253906 129.347656 L 45.289063 129.171875 L 45.300781 128.976563 L 45.300781 128.917969 L 45.296875 128.855469 L 45.292969 128.796875 L 45.289063 128.742188 L 45.277344 128.683594 L 45.269531 128.628906 L 45.257813 128.574219 L 45.246094 128.523438 L 45.230469 128.46875 L 45.210938 128.417969 L 45.171875 128.308594 L 45.148438 128.253906 L 45.125 128.195313 L 45.097656 128.136719 L 45.070313 128.074219 L 45.042969 128.015625 L 45.011719 127.953125 L 44.976563 127.890625 L 44.941406 127.824219 Z M 45.984375 127.230469 "/>
<path style=" stroke:none;fill-rule:evenodd;fill:rgb(0%,0%,0%);fill-opacity:1;" d="M 41.378906 119.183594 L 41.453125 119.1875 L 41.613281 119.1875 L 41.777344 119.195313 L 41.949219 119.203125 L 42.039063 119.207031 L 42.132813 119.214844 L 42.222656 119.222656 L 42.222656 124.730469 L 42.546875 124.710938 L 42.847656 124.679688 L 43.132813 124.640625 L 43.402344 124.589844 L 43.648438 124.527344 L 43.878906 124.453125 L 44.09375 124.371094 L 44.285156 124.28125 L 44.460938 124.175781 L 44.617188 124.0625 L 44.753906 123.941406 L 44.875 123.808594 L 44.984375 123.667969 L 45.078125 123.519531 L 45.15625 123.359375 L 45.222656 123.195313 L 45.273438 123.019531 L 45.308594 122.835938 L 45.332031 122.644531 L 45.335938 122.441406 L 45.335938 122.316406 L 45.320313 122.066406 L 45.289063 121.832031 L 45.242188 121.605469 L 45.210938 121.5 L 45.175781 121.394531 L 45.140625 121.292969 L 45.097656 121.1875 L 45.050781 121.082031 L 45 120.976563 L 44.941406 120.867188 L 44.878906 120.761719 L 44.8125 120.652344 L 44.738281 120.542969 L 44.660156 120.433594 L 44.578125 120.324219 L 44.492188 120.210938 L 45.445313 119.492188 L 45.671875 119.761719 L 45.875 120.039063 L 46.050781 120.324219 L 46.207031 120.613281 L 46.335938 120.914063 L 46.445313 121.21875 L 46.527344 121.53125 L 46.585938 121.851563 L 46.621094 122.179688 L 46.632813 122.515625 L 46.621094 122.878906 L 46.582031 123.222656 L 46.519531 123.554688 L 46.429688 123.867188 L 46.3125 124.164063 L 46.171875 124.441406 L 46.007813 124.707031 L 45.816406 124.953125 L 45.597656 125.183594 L 45.355469 125.394531 L 45.085938 125.585938 L 44.796875 125.757813 L 44.484375 125.910156 L 44.15625 126.039063 L 43.804688 126.152344 L 43.429688 126.242188 L 43.039063 126.3125 L 42.625 126.363281 L 42.191406 126.394531 L 41.738281 126.402344 L 41.28125 126.394531 L 40.847656 126.363281 L 40.433594 126.316406 L 40.035156 126.246094 L 39.660156 126.160156 L 39.300781 126.054688 L 38.964844 125.925781 L 38.644531 125.78125 L 38.34375 125.617188 L 38.066406 125.429688 L 37.804688 125.230469 L 37.574219 125.011719 L 37.367188 124.78125 L 37.191406 124.53125 L 37.039063 124.269531 L 36.917969 123.992188 L 36.820313 123.699219 L 36.753906 123.390625 L 36.710938 123.070313 L 36.699219 122.730469 L 36.710938 122.398438 L 36.746094 122.078125 L 36.808594 121.777344 L 36.894531 121.488281 L 37.003906 121.21875 L 37.136719 120.964844 L 37.296875 120.726563 L 37.480469 120.503906 L 37.6875 120.292969 L 37.921875 120.101563 L 38.171875 119.929688 L 38.445313 119.773438 L 38.738281 119.636719 L 39.054688 119.515625 L 39.390625 119.414063 L 39.746094 119.332031 L 40.121094 119.269531 L 40.519531 119.222656 L 40.9375 119.195313 Z M 40.890625 120.75 L 40.328125 120.769531 L 39.824219 120.828125 L 39.378906 120.929688 L 38.992188 121.066406 L 38.664063 121.242188 L 38.398438 121.457031 L 38.1875 121.710938 L 38.039063 122.007813 L 37.953125 122.339844 L 37.921875 122.714844 L 37.929688 122.890625 L 37.953125 123.058594 L 37.988281 123.21875 L 38.042969 123.371094 L 38.109375 123.519531 L 38.195313 123.65625 L 38.292969 123.789063 L 38.40625 123.910156 L 38.535156 124.027344 L 38.679688 124.136719 L 38.835938 124.234375 L 39.011719 124.324219 L 39.203125 124.40625 L 39.417969 124.480469 L 39.648438 124.542969 L 39.898438 124.601563 L 40.167969 124.644531 L 40.457031 124.683594 L 40.765625 124.710938 L 41.089844 124.730469 L 41.089844 120.75 Z M 40.890625 120.75 "/>
<path style=" stroke:none;fill-rule:evenodd;fill:rgb(0%,0%,0%);fill-opacity:1;" d="M 36.699219 112.707031 L 36.707031 112.484375 L 36.726563 112.273438 L 36.765625 112.070313 L 36.820313 111.878906 L 36.886719 111.695313 L 36.96875 111.527344 L 37.066406 111.363281 L 37.179688 111.214844 L 37.308594 111.074219 L 37.453125 110.941406 L 37.605469 110.816406 L 37.773438 110.707031 L 37.949219 110.609375 L 38.136719 110.527344 L 38.335938 110.457031 L 38.546875 110.398438 L 38.769531 110.351563 L 39.003906 110.320313 L 39.25 110.300781 L 39.503906 110.292969 L 46.398438 110.292969 L 46.398438 111.914063 L 39.703125 111.914063 L 39.523438 111.917969 L 39.359375 111.925781 L 39.199219 111.941406 L 39.054688 111.960938 L 38.917969 111.988281 L 38.789063 112.023438 L 38.675781 112.0625 L 38.570313 112.109375 L 38.472656 112.160156 L 38.390625 112.21875 L 38.3125 112.285156 L 38.242188 112.355469 L 38.179688 112.433594 L 38.125 112.515625 L 38.078125 112.605469 L 38.042969 112.703125 L 38.011719 112.804688 L 37.992188 112.917969 L 37.980469 113.03125 L 37.976563 113.15625 L 37.992188 113.390625 L 38.042969 113.621094 L 38.128906 113.847656 L 38.246094 114.070313 L 38.398438 114.289063 L 38.585938 114.503906 L 38.804688 114.710938 L 39.058594 114.917969 L 39.347656 115.117188 L 39.667969 115.316406 L 46.398438 115.316406 L 46.398438 116.933594 L 36.933594 116.933594 L 36.933594 115.53125 L 38.335938 115.40625 L 38.023438 115.179688 L 37.746094 114.945313 L 37.5 114.699219 L 37.289063 114.445313 L 37.105469 114.179688 L 36.960938 113.90625 L 36.84375 113.621094 L 36.761719 113.324219 L 36.714844 113.019531 Z M 36.699219 112.707031 "/>
<path style=" stroke:none;fill-rule:evenodd;fill:rgb(0%,0%,0%);fill-opacity:1;" d="M 45.984375 102.96875 L 46.109375 103.148438 L 46.21875 103.335938 L 46.316406 103.523438 L 46.402344 103.71875 L 46.472656 103.917969 L 46.53125 104.117188 L 46.574219 104.324219 L 46.609375 104.535156 L 46.628906 104.746094 L 46.632813 104.964844 L 46.628906 105.191406 L 46.605469 105.40625 L 46.574219 105.609375 L 46.527344 105.804688 L 46.46875 105.988281 L 46.394531 106.160156 L 46.308594 106.320313 L 46.207031 106.472656 L 46.09375 106.617188 L 45.96875 106.746094 L 45.828125 106.863281 L 45.679688 106.96875 L 45.519531 107.058594 L 45.347656 107.140625 L 45.167969 107.207031 L 44.972656 107.261719 L 44.769531 107.304688 L 44.554688 107.335938 L 44.332031 107.351563 L 44.097656 107.359375 L 38.15625 107.359375 L 38.15625 108.710938 L 36.933594 108.710938 L 36.933594 107.359375 L 34.753906 107.359375 L 34.554688 105.738281 L 36.933594 105.738281 L 36.933594 103.652344 L 38.15625 103.832031 L 38.15625 105.738281 L 44.078125 105.738281 L 44.308594 105.730469 L 44.519531 105.699219 L 44.703125 105.648438 L 44.859375 105.574219 L 44.996094 105.484375 L 45.105469 105.371094 L 45.191406 105.238281 L 45.253906 105.082031 L 45.289063 104.90625 L 45.300781 104.714844 L 45.300781 104.652344 L 45.289063 104.476563 L 45.277344 104.421875 L 45.269531 104.367188 L 45.246094 104.257813 L 45.230469 104.207031 L 45.210938 104.15625 L 45.171875 104.046875 L 45.125 103.929688 L 45.070313 103.8125 L 45.042969 103.75 L 45.011719 103.6875 L 44.941406 103.5625 Z M 45.984375 102.96875 "/>
<path style=" stroke:none;fill-rule:evenodd;fill:rgb(0%,0%,0%);fill-opacity:1;" d="M 36.933594 99.941406 L 46.398438 99.941406 L 46.398438 101.5625 L 36.933594 101.5625 Z M 32.46875 100.753906 L 32.472656 100.660156 L 32.480469 100.574219 L 32.496094 100.488281 L 32.515625 100.40625 L 32.542969 100.332031 L 32.578125 100.257813 L 32.617188 100.1875 L 32.664063 100.121094 L 32.714844 100.054688 L 32.773438 99.996094 L 32.835938 99.9375 L 32.902344 99.886719 L 32.96875 99.839844 L 33.042969 99.800781 L 33.191406 99.738281 L 33.273438 99.71875 L 33.355469 99.703125 L 33.441406 99.695313 L 33.53125 99.691406 L 33.617188 99.695313 L 33.703125 99.703125 L 33.785156 99.71875 L 33.867188 99.738281 L 33.945313 99.761719 L 34.019531 99.792969 L 34.089844 99.832031 L 34.15625 99.875 L 34.222656 99.925781 L 34.285156 99.980469 L 34.339844 100.039063 L 34.390625 100.101563 L 34.433594 100.167969 L 34.46875 100.242188 L 34.5 100.316406 L 34.527344 100.394531 L 34.546875 100.480469 L 34.5625 100.566406 L 34.570313 100.65625 L 34.574219 100.753906 L 34.570313 100.84375 L 34.5625 100.933594 L 34.546875 101.019531 L 34.527344 101.101563 L 34.5 101.179688 L 34.46875 101.257813 L 34.433594 101.328125 L 34.390625 101.398438 L 34.339844 101.464844 L 34.285156 101.527344 L 34.222656 101.582031 L 34.15625 101.632813 L 34.089844 101.675781 L 34.019531 101.710938 L 33.945313 101.742188 L 33.867188 101.769531 L 33.785156 101.789063 L 33.703125 101.804688 L 33.617188 101.8125 L 33.53125 101.816406 L 33.441406 101.8125 L 33.355469 101.804688 L 33.273438 101.789063 L 33.191406 101.769531 L 33.117188 101.742188 L 33.042969 101.710938 L 32.96875 101.675781 L 32.902344 101.632813 L 32.835938 101.582031 L 32.773438 101.527344 L 32.714844 101.464844 L 32.664063 101.398438 L 32.617188 101.328125 L 32.578125 101.257813 L 32.542969 101.179688 L 32.515625 101.101563 L 32.496094 101.019531 L 32.480469 100.933594 L 32.472656 100.84375 Z M 32.46875 100.753906 "/>
<path style=" stroke:none;fill-rule:evenodd;fill:rgb(0%,0%,0%);fill-opacity:1;" d="M 44.238281 91.125 L 44.351563 91.121094 L 44.457031 91.117188 L 44.558594 91.109375 L 44.65625 91.097656 L 44.828125 91.066406 L 44.90625 91.042969 L 44.976563 91.019531 L 45.042969 90.992188 L 45.105469 90.960938 L 45.207031 90.890625 L 45.300781 90.804688 L 45.34375 90.753906 L 45.382813 90.703125 L 45.421875 90.644531 L 45.457031 90.585938 L 45.488281 90.523438 L 45.519531 90.457031 L 46.617188 90.800781 L 46.59375 90.9375 L 46.5625 91.066406 L 46.53125 91.191406 L 46.496094 91.3125 L 46.453125 91.425781 L 46.410156 91.53125 L 46.359375 91.632813 L 46.304688 91.726563 L 46.246094 91.816406 L 46.183594 91.898438 L 46.117188 91.972656 L 46.039063 92.046875 L 45.957031 92.113281 L 45.871094 92.175781 L 45.773438 92.234375 L 45.671875 92.289063 L 45.5625 92.335938 L 45.445313 92.382813 L 45.324219 92.421875 L 45.195313 92.457031 L 45.46875 92.644531 L 45.710938 92.851563 L 45.929688 93.074219 L 46.117188 93.308594 L 46.273438 93.558594 L 46.402344 93.824219 L 46.503906 94.101563 L 46.574219 94.394531 L 46.621094 94.707031 L 46.632813 95.027344 L 46.625 95.277344 L 46.601563 95.511719 L 46.5625 95.738281 L 46.511719 95.953125 L 46.441406 96.160156 L 46.355469 96.351563 L 46.253906 96.539063 L 46.136719 96.710938 L 46.007813 96.875 L 45.859375 97.027344 L 45.695313 97.167969 L 45.523438 97.292969 L 45.335938 97.402344 L 45.144531 97.5 L 44.9375 97.582031 L 44.722656 97.648438 L 44.496094 97.699219 L 44.257813 97.734375 L 44.011719 97.757813 L 43.753906 97.765625 L 43.457031 97.753906 L 43.179688 97.726563 L 42.910156 97.675781 L 42.660156 97.605469 L 42.421875 97.519531 L 42.199219 97.410156 L 41.988281 97.28125 L 41.796875 97.132813 L 41.617188 96.964844 L 41.449219 96.773438 L 41.300781 96.570313 L 41.164063 96.34375 L 41.046875 96.105469 L 40.941406 95.847656 L 40.855469 95.574219 L 40.785156 95.28125 L 40.730469 94.976563 L 40.6875 94.648438 L 40.664063 94.308594 L 40.65625 93.949219 L 40.65625 92.726563 L 39.847656 92.726563 L 39.65625 92.730469 L 39.472656 92.742188 L 39.304688 92.761719 L 39.144531 92.792969 L 38.996094 92.828125 L 38.859375 92.875 L 38.734375 92.929688 L 38.621094 92.988281 L 38.519531 93.0625 L 38.425781 93.140625 L 38.339844 93.222656 L 38.265625 93.320313 L 38.195313 93.421875 L 38.136719 93.539063 L 38.089844 93.664063 L 38.046875 93.800781 L 38.015625 93.949219 L 37.992188 94.105469 L 37.980469 94.273438 L 37.976563 94.453125 L 37.980469 94.65625 L 37.996094 94.863281 L 38.019531 95.078125 L 38.054688 95.296875 L 38.101563 95.523438 L 38.15625 95.757813 L 38.222656 95.996094 L 38.296875 96.246094 L 38.382813 96.496094 L 38.480469 96.757813 L 37.347656 97.152344 L 37.222656 96.839844 L 37.113281 96.527344 L 37.015625 96.222656 L 36.929688 95.921875 L 36.859375 95.625 L 36.800781 95.332031 L 36.757813 95.042969 L 36.722656 94.757813 L 36.703125 94.476563 L 36.699219 94.203125 L 36.730469 93.617188 L 36.820313 93.09375 L 36.976563 92.632813 L 37.191406 92.230469 L 37.46875 91.894531 L 37.804688 91.617188 L 38.207031 91.398438 L 38.667969 91.246094 L 39.191406 91.152344 L 39.777344 91.125 Z M 45.410156 94.652344 L 45.394531 94.40625 L 45.351563 94.171875 L 45.277344 93.949219 L 45.171875 93.738281 L 45.039063 93.539063 L 44.878906 93.351563 L 44.6875 93.179688 L 44.464844 93.015625 L 44.214844 92.863281 L 43.933594 92.726563 L 41.703125 92.726563 L 41.703125 93.769531 L 41.722656 94.214844 L 41.78125 94.613281 L 41.878906 94.960938 L 42.015625 95.265625 L 42.191406 95.523438 L 42.40625 95.734375 L 42.664063 95.898438 L 42.957031 96.015625 L 43.289063 96.085938 L 43.664063 96.109375 L 43.828125 96.105469 L 43.984375 96.09375 L 44.136719 96.074219 L 44.277344 96.046875 L 44.410156 96.015625 L 44.535156 95.972656 L 44.652344 95.925781 L 44.765625 95.867188 L 44.867188 95.804688 L 44.960938 95.730469 L 45.046875 95.652344 L 45.121094 95.566406 L 45.1875 95.476563 L 45.246094 95.378906 L 45.296875 95.273438 L 45.335938 95.160156 L 45.371094 95.042969 L 45.390625 94.917969 L 45.40625 94.789063 Z M 45.410156 94.652344 "/>
<path style=" stroke:none;fill-rule:evenodd;fill:rgb(0%,0%,0%);fill-opacity:1;" d="M 46.632813 86.425781 L 46.628906 86.59375 L 46.613281 86.757813 L 46.585938 86.910156 L 46.550781 87.058594 L 46.503906 87.199219 L 46.445313 87.332031 L 46.378906 87.457031 L 46.300781 87.578125 L 46.210938 87.6875 L 46.113281 87.792969 L 46.003906 87.890625 L 45.886719 87.976563 L 45.761719 88.050781 L 45.628906 88.117188 L 45.484375 88.171875 L 45.335938 88.214844 L 45.179688 88.25 L 45.011719 88.277344 L 44.835938 88.292969 L 44.652344 88.296875 L 33.097656 88.296875 L 32.917969 86.675781 L 44.601563 86.675781 L 44.734375 86.671875 L 44.851563 86.652344 L 44.957031 86.625 L 45.050781 86.585938 L 45.125 86.535156 L 45.1875 86.46875 L 45.238281 86.394531 L 45.273438 86.308594 L 45.292969 86.210938 L 45.300781 86.101563 L 45.300781 86.054688 L 45.296875 86.003906 L 45.292969 85.957031 L 45.285156 85.90625 L 45.273438 85.855469 L 45.25 85.746094 L 45.234375 85.691406 L 45.214844 85.636719 L 45.195313 85.578125 L 46.328125 85.21875 L 46.386719 85.335938 L 46.4375 85.453125 L 46.484375 85.570313 L 46.523438 85.6875 L 46.558594 85.808594 L 46.585938 85.929688 L 46.605469 86.050781 L 46.621094 86.175781 L 46.628906 86.300781 Z M 46.632813 86.425781 "/>
<path style=" stroke:none;fill-rule:evenodd;fill:rgb(0%,0%,0%);fill-opacity:1;" d="M 33.78125 75.03125 L 33.796875 74.597656 L 33.847656 74.183594 L 33.929688 73.789063 L 34.042969 73.414063 L 34.191406 73.054688 L 34.371094 72.71875 L 34.585938 72.398438 L 34.828125 72.097656 L 35.109375 71.820313 L 35.417969 71.558594 L 35.757813 71.3125 L 36.128906 71.097656 L 36.53125 70.90625 L 36.964844 70.738281 L 37.425781 70.597656 L 37.921875 70.484375 L 38.445313 70.394531 L 39.003906 70.332031 L 39.589844 70.292969 L 40.207031 70.277344 L 40.816406 70.292969 L 41.394531 70.328125 L 41.945313 70.394531 L 42.464844 70.480469 L 42.957031 70.59375 L 43.417969 70.734375 L 43.851563 70.898438 L 44.257813 71.085938 L 44.632813 71.300781 L 44.976563 71.539063 L 45.292969 71.800781 L 45.574219 72.082031 L 45.824219 72.382813 L 46.039063 72.703125 L 46.21875 73.042969 L 46.367188 73.402344 L 46.484375 73.78125 L 46.566406 74.175781 L 46.617188 74.59375 L 46.632813 75.03125 L 46.617188 75.464844 L 46.570313 75.878906 L 46.488281 76.273438 L 46.375 76.652344 L 46.230469 77.011719 L 46.050781 77.351563 L 45.839844 77.671875 L 45.597656 77.972656 L 45.320313 78.257813 L 45.015625 78.523438 L 44.671875 78.761719 L 44.296875 78.976563 L 43.894531 79.164063 L 43.460938 79.328125 L 42.996094 79.46875 L 42.503906 79.582031 L 41.980469 79.667969 L 41.425781 79.734375 L 40.839844 79.769531 L 40.226563 79.785156 L 39.816406 79.777344 L 39.421875 79.761719 L 39.039063 79.730469 L 38.671875 79.691406 L 38.3125 79.640625 L 37.96875 79.574219 L 37.636719 79.5 L 37.316406 79.414063 L 37.011719 79.316406 L 36.714844 79.207031 L 36.429688 79.082031 L 36.160156 78.949219 L 35.90625 78.808594 L 35.664063 78.65625 L 35.4375 78.496094 L 35.226563 78.324219 L 35.027344 78.144531 L 34.84375 77.957031 L 34.675781 77.757813 L 34.519531 77.550781 L 34.378906 77.332031 L 34.253906 77.105469 L 34.144531 76.871094 L 34.046875 76.628906 L 33.964844 76.382813 L 33.898438 76.125 L 33.847656 75.863281 L 33.8125 75.59375 L 33.789063 75.316406 Z M 35.113281 75.03125 L 35.164063 75.597656 L 35.316406 76.105469 L 35.574219 76.554688 L 35.933594 76.945313 L 36.390625 77.273438 L 36.953125 77.542969 L 37.617188 77.75 L 38.386719 77.898438 L 39.253906 77.988281 L 40.226563 78.019531 L 41.1875 77.988281 L 42.046875 77.898438 L 42.804688 77.75 L 43.460938 77.542969 L 44.019531 77.273438 L 44.472656 76.945313 L 44.828125 76.554688 L 45.082031 76.105469 L 45.234375 75.597656 L 45.285156 75.03125 L 45.273438 74.742188 L 45.234375 74.46875 L 45.175781 74.210938 L 45.089844 73.964844 L 44.980469 73.734375 L 44.847656 73.519531 L 44.691406 73.316406 L 44.511719 73.128906 L 44.308594 72.957031 L 44.078125 72.800781 L 43.820313 72.65625 L 43.535156 72.527344 L 43.222656 72.414063 L 42.878906 72.316406 L 42.507813 72.230469 L 42.105469 72.164063 L 41.675781 72.109375 L 41.214844 72.074219 L 40.726563 72.050781 L 40.207031 72.042969 L 39.691406 72.050781 L 39.207031 72.074219 L 38.75 72.113281 L 38.320313 72.167969 L 37.917969 72.238281 L 37.542969 72.320313 L 37.199219 72.421875 L 36.882813 72.539063 L 36.597656 72.671875 L 36.335938 72.816406 L 36.105469 72.976563 L 35.898438 73.148438 L 35.714844 73.335938 L 35.554688 73.535156 L 35.417969 73.75 L 35.308594 73.976563 L 35.222656 74.21875 L 35.164063 74.476563 L 35.125 74.746094 Z M 35.113281 75.03125 "/>
<path style=" stroke:none;fill-rule:evenodd;fill:rgb(0%,0%,0%);fill-opacity:1;" d="M 46.398438 61.421875 L 46.398438 62.828125 L 44.976563 62.917969 L 45.292969 63.121094 L 45.574219 63.339844 L 45.824219 63.570313 L 46.039063 63.816406 L 46.21875 64.074219 L 46.367188 64.34375 L 46.484375 64.628906 L 46.566406 64.925781 L 46.617188 65.238281 L 46.632813 65.5625 L 46.625 65.785156 L 46.605469 65.996094 L 46.566406 66.199219 L 46.515625 66.394531 L 46.449219 66.574219 L 46.367188 66.75 L 46.273438 66.914063 L 46.160156 67.066406 L 46.035156 67.210938 L 45.894531 67.34375 L 45.742188 67.46875 L 45.578125 67.578125 L 45.40625 67.675781 L 45.222656 67.761719 L 45.027344 67.832031 L 44.820313 67.890625 L 44.605469 67.933594 L 44.382813 67.96875 L 44.144531 67.988281 L 43.898438 67.992188 L 36.933594 67.992188 L 36.933594 66.375 L 43.753906 66.375 L 43.914063 66.371094 L 44.066406 66.359375 L 44.210938 66.34375 L 44.347656 66.324219 L 44.472656 66.296875 L 44.59375 66.261719 L 44.703125 66.222656 L 44.800781 66.175781 L 44.894531 66.125 L 44.976563 66.066406 L 45.050781 66 L 45.113281 65.925781 L 45.171875 65.84375 L 45.21875 65.757813 L 45.261719 65.667969 L 45.296875 65.566406 L 45.320313 65.464844 L 45.339844 65.351563 L 45.351563 65.234375 L 45.355469 65.113281 L 45.339844 64.875 L 45.292969 64.644531 L 45.214844 64.421875 L 45.101563 64.203125 L 44.960938 63.992188 L 44.785156 63.789063 L 44.578125 63.59375 L 44.34375 63.402344 L 44.074219 63.21875 L 43.773438 63.042969 L 36.933594 63.042969 L 36.933594 61.421875 Z M 46.398438 61.421875 "/>
<path style=" stroke:none;fill-rule:evenodd;fill:rgb(0%,0%,0%);fill-opacity:1;" d="M 45.984375 54.023438 L 46.109375 54.207031 L 46.21875 54.394531 L 46.316406 54.582031 L 46.402344 54.777344 L 46.472656 54.976563 L 46.53125 55.175781 L 46.574219 55.382813 L 46.609375 55.59375 L 46.628906 55.804688 L 46.632813 56.023438 L 46.628906 56.25 L 46.605469 56.464844 L 46.574219 56.667969 L 46.527344 56.859375 L 46.46875 57.042969 L 46.394531 57.21875 L 46.308594 57.378906 L 46.207031 57.53125 L 46.09375 57.675781 L 45.96875 57.804688 L 45.828125 57.921875 L 45.679688 58.027344 L 45.519531 58.117188 L 45.347656 58.195313 L 45.167969 58.265625 L 44.972656 58.320313 L 44.769531 58.363281 L 44.554688 58.394531 L 44.332031 58.410156 L 44.097656 58.417969 L 38.15625 58.417969 L 38.15625 59.765625 L 36.933594 59.765625 L 36.933594 58.417969 L 34.753906 58.417969 L 34.554688 56.796875 L 36.933594 56.796875 L 36.933594 54.710938 L 38.15625 54.890625 L 38.15625 56.796875 L 44.078125 56.796875 L 44.308594 56.785156 L 44.519531 56.757813 L 44.703125 56.703125 L 44.859375 56.632813 L 44.996094 56.539063 L 45.105469 56.429688 L 45.191406 56.292969 L 45.253906 56.140625 L 45.289063 55.964844 L 45.300781 55.769531 L 45.300781 55.710938 L 45.289063 55.535156 L 45.277344 55.480469 L 45.269531 55.421875 L 45.257813 55.371094 L 45.246094 55.316406 L 45.230469 55.265625 L 45.210938 55.214844 L 45.191406 55.160156 L 45.171875 55.101563 L 45.148438 55.046875 L 45.125 54.988281 L 45.070313 54.871094 L 45.042969 54.808594 L 45.011719 54.746094 L 44.941406 54.621094 Z M 45.984375 54.023438 "/>
<path style=" stroke:none;fill-rule:evenodd;fill:rgb(0%,0%,0%);fill-opacity:1;" d="M 36.699219 49.328125 L 36.699219 49.175781 L 36.707031 49.03125 L 36.71875 48.886719 L 36.738281 48.742188 L 36.761719 48.601563 L 36.789063 48.464844 L 36.820313 48.332031 L 36.859375 48.199219 L 36.902344 48.070313 L 36.949219 47.941406 L 37.003906 47.816406 L 37.0625 47.691406 L 37.125 47.566406 L 37.195313 47.445313 L 37.269531 47.324219 L 37.347656 47.203125 L 37.433594 47.085938 L 37.621094 46.851563 L 37.722656 46.734375 L 38.695313 47.457031 L 38.628906 47.542969 L 38.566406 47.628906 L 38.449219 47.800781 L 38.398438 47.886719 L 38.304688 48.058594 L 38.265625 48.144531 L 38.226563 48.234375 L 38.15625 48.40625 L 38.125 48.496094 L 38.078125 48.675781 L 38.039063 48.863281 L 38.027344 48.960938 L 38.019531 49.054688 L 38.011719 49.15625 L 38.011719 49.253906 L 38.019531 49.464844 L 38.046875 49.660156 L 38.09375 49.851563 L 38.15625 50.03125 L 38.238281 50.199219 L 38.335938 50.359375 L 38.453125 50.511719 L 38.585938 50.65625 L 38.742188 50.789063 L 38.910156 50.910156 L 39.101563 51.019531 L 39.3125 51.117188 L 39.542969 51.203125 L 39.792969 51.28125 L 40.0625 51.34375 L 40.355469 51.394531 L 40.664063 51.433594 L 40.996094 51.464844 L 41.347656 51.480469 L 41.71875 51.488281 L 42.398438 51.464844 L 43.003906 51.398438 L 43.539063 51.285156 L 44 51.128906 L 44.394531 50.929688 L 44.714844 50.683594 L 44.964844 50.394531 L 45.140625 50.058594 L 45.25 49.679688 L 45.285156 49.253906 L 45.277344 49.058594 L 45.269531 48.960938 L 45.257813 48.867188 L 45.242188 48.773438 L 45.226563 48.683594 L 45.203125 48.59375 L 45.179688 48.507813 L 45.152344 48.421875 L 45.121094 48.335938 L 45.085938 48.253906 L 45 48.082031 L 44.953125 47.996094 L 44.902344 47.910156 L 44.847656 47.820313 L 44.730469 47.640625 L 44.667969 47.546875 L 44.601563 47.457031 L 45.589844 46.699219 L 45.789063 46.933594 L 45.964844 47.171875 L 46.121094 47.417969 L 46.257813 47.667969 L 46.371094 47.925781 L 46.464844 48.191406 L 46.539063 48.460938 L 46.59375 48.738281 L 46.625 49.019531 L 46.632813 49.308594 L 46.621094 49.664063 L 46.582031 50.003906 L 46.519531 50.332031 L 46.433594 50.640625 L 46.320313 50.933594 L 46.179688 51.210938 L 46.015625 51.476563 L 45.828125 51.722656 L 45.613281 51.953125 L 45.375 52.171875 L 45.109375 52.367188 L 44.824219 52.539063 L 44.515625 52.695313 L 44.1875 52.828125 L 43.835938 52.941406 L 43.460938 53.03125 L 43.0625 53.105469 L 42.644531 53.15625 L 42.203125 53.1875 L 41.738281 53.195313 L 41.433594 53.191406 L 41.136719 53.179688 L 40.847656 53.15625 L 40.566406 53.121094 L 40.292969 53.082031 L 40.027344 53.027344 L 39.773438 52.96875 L 39.527344 52.898438 L 39.285156 52.816406 L 39.054688 52.730469 L 38.835938 52.628906 L 38.621094 52.519531 L 38.421875 52.402344 L 38.230469 52.28125 L 38.050781 52.148438 L 37.882813 52.011719 L 37.722656 51.863281 L 37.574219 51.710938 L 37.4375 51.546875 L 37.308594 51.378906 L 37.195313 51.199219 L 37.089844 51.015625 L 36.996094 50.824219 L 36.917969 50.628906 L 36.851563 50.425781 L 36.796875 50.21875 L 36.753906 50.003906 L 36.722656 49.785156 L 36.703125 49.558594 Z M 36.699219 49.328125 "/>
<path style=" stroke:none;fill-rule:evenodd;fill:rgb(0%,0%,0%);fill-opacity:1;" d="M 36.699219 41.625 L 36.710938 41.269531 L 36.75 40.929688 L 36.8125 40.605469 L 36.902344 40.296875 L 37.015625 40.007813 L 37.15625 39.734375 L 37.324219 39.476563 L 37.515625 39.234375 L 37.734375 39.007813 L 37.976563 38.796875 L 38.242188 38.605469 L 38.53125 38.433594 L 38.84375 38.28125 L 39.175781 38.152344 L 39.53125 38.042969 L 39.910156 37.949219 L 40.3125 37.878906 L 40.734375 37.828125 L 41.179688 37.800781 L 41.648438 37.789063 L 42.097656 37.800781 L 42.53125 37.832031 L 42.945313 37.882813 L 43.339844 37.953125 L 43.714844 38.046875 L 44.070313 38.160156 L 44.40625 38.292969 L 44.722656 38.445313 L 45.023438 38.621094 L 45.300781 38.816406 L 45.554688 39.027344 L 45.78125 39.257813 L 45.980469 39.5 L 46.152344 39.761719 L 46.300781 40.035156 L 46.421875 40.324219 L 46.515625 40.632813 L 46.582031 40.953125 L 46.621094 41.289063 L 46.632813 41.640625 L 46.621094 41.996094 L 46.582031 42.335938 L 46.515625 42.660156 L 46.421875 42.96875 L 46.304688 43.261719 L 46.160156 43.539063 L 45.988281 43.796875 L 45.792969 44.042969 L 45.570313 44.273438 L 45.320313 44.484375 L 45.046875 44.675781 L 44.753906 44.847656 L 44.4375 45 L 44.105469 45.128906 L 43.75 45.242188 L 43.375 45.332031 L 42.976563 45.402344 L 42.5625 45.453125 L 42.125 45.484375 L 41.664063 45.492188 L 41.203125 45.484375 L 40.765625 45.453125 L 40.347656 45.402344 L 39.949219 45.328125 L 39.574219 45.238281 L 39.21875 45.125 L 38.886719 44.992188 L 38.574219 44.835938 L 38.28125 44.664063 L 38.011719 44.46875 L 37.761719 44.253906 L 37.539063 44.023438 L 37.339844 43.78125 L 37.171875 43.519531 L 37.027344 43.242188 L 36.90625 42.949219 L 36.816406 42.644531 L 36.75 42.320313 L 36.710938 41.980469 Z M 37.992188 41.625 L 38.003906 41.832031 L 38.03125 42.027344 L 38.074219 42.214844 L 38.136719 42.390625 L 38.21875 42.558594 L 38.316406 42.714844 L 38.433594 42.863281 L 38.570313 43 L 38.722656 43.125 L 38.894531 43.242188 L 39.082031 43.347656 L 39.285156 43.445313 L 39.511719 43.527344 L 39.761719 43.601563 L 40.027344 43.660156 L 40.316406 43.710938 L 40.621094 43.75 L 40.949219 43.777344 L 41.296875 43.796875 L 41.664063 43.800781 L 42.367188 43.78125 L 42.996094 43.714844 L 43.546875 43.605469 L 44.027344 43.457031 L 44.433594 43.261719 L 44.765625 43.023438 L 45.023438 42.742188 L 45.207031 42.417969 L 45.320313 42.050781 L 45.355469 41.640625 L 45.320313 41.230469 L 45.207031 40.863281 L 45.023438 40.539063 L 44.761719 40.257813 L 44.429688 40.019531 L 44.019531 39.828125 L 43.539063 39.675781 L 42.984375 39.566406 L 42.351563 39.503906 L 41.648438 39.480469 L 41.28125 39.488281 L 40.933594 39.503906 L 40.605469 39.53125 L 40.296875 39.566406 L 40.007813 39.617188 L 39.742188 39.675781 L 39.496094 39.746094 L 39.269531 39.828125 L 39.0625 39.917969 L 38.875 40.019531 L 38.707031 40.132813 L 38.558594 40.257813 L 38.425781 40.390625 L 38.3125 40.535156 L 38.214844 40.691406 L 38.136719 40.855469 L 38.074219 41.03125 L 38.027344 41.21875 L 38.003906 41.417969 Z M 37.992188 41.625 "/>
<path style=" stroke:none;fill-rule:evenodd;fill:rgb(0%,0%,0%);fill-opacity:1;" d="M 36.699219 26.703125 L 36.707031 26.5 L 36.730469 26.308594 L 36.765625 26.121094 L 36.820313 25.945313 L 36.890625 25.777344 L 36.976563 25.617188 L 37.078125 25.46875 L 37.191406 25.324219 L 37.324219 25.191406 L 37.472656 25.0625 L 37.628906 24.945313 L 37.796875 24.84375 L 37.972656 24.75 L 38.160156 24.671875 L 38.359375 24.605469 L 38.566406 24.550781 L 38.785156 24.507813 L 39.015625 24.476563 L 39.253906 24.457031 L 39.503906 24.453125 L 46.398438 24.453125 L 46.398438 26.054688 L 39.6875 26.054688 L 39.359375 26.0625 L 39.0625 26.097656 L 38.804688 26.152344 L 38.578125 26.230469 L 38.390625 26.332031 L 38.234375 26.453125 L 38.113281 26.601563 L 38.027344 26.765625 L 37.976563 26.957031 L 37.957031 27.167969 L 37.972656 27.382813 L 38.023438 27.59375 L 38.105469 27.800781 L 38.222656 28.003906 L 38.371094 28.203125 L 38.554688 28.402344 L 38.769531 28.59375 L 39.019531 28.78125 L 39.300781 28.96875 L 39.613281 29.148438 L 46.398438 29.148438 L 46.398438 30.75 L 39.6875 30.75 L 39.359375 30.761719 L 39.0625 30.796875 L 38.804688 30.851563 L 38.578125 30.929688 L 38.390625 31.03125 L 38.234375 31.152344 L 38.113281 31.296875 L 38.027344 31.464844 L 37.976563 31.65625 L 37.957031 31.867188 L 37.972656 32.085938 L 38.023438 32.296875 L 38.105469 32.507813 L 38.222656 32.710938 L 38.371094 32.910156 L 38.554688 33.105469 L 38.769531 33.296875 L 39.019531 33.484375 L 39.300781 33.667969 L 39.613281 33.847656 L 46.398438 33.847656 L 46.398438 35.449219 L 36.933594 35.449219 L 36.933594 34.046875 L 38.316406 33.917969 L 38.011719 33.707031 L 37.734375 33.484375 L 37.492188 33.253906 L 37.28125 33.015625 L 37.101563 32.765625 L 36.957031 32.511719 L 36.84375 32.246094 L 36.761719 31.972656 L 36.714844 31.691406 L 36.699219 31.398438 L 36.703125 31.246094 L 36.714844 31.097656 L 36.738281 30.957031 L 36.769531 30.816406 L 36.808594 30.683594 L 36.859375 30.554688 L 36.917969 30.429688 L 36.984375 30.3125 L 37.0625 30.195313 L 37.148438 30.085938 L 37.242188 29.980469 L 37.34375 29.882813 L 37.453125 29.789063 L 37.566406 29.703125 L 37.691406 29.621094 L 37.824219 29.546875 L 37.964844 29.480469 L 38.109375 29.417969 L 38.265625 29.359375 L 38.425781 29.3125 L 38.097656 29.085938 L 37.804688 28.855469 L 37.542969 28.613281 L 37.320313 28.367188 L 37.128906 28.109375 L 36.972656 27.84375 L 36.851563 27.570313 L 36.765625 27.289063 L 36.714844 27 Z M 36.699219 26.703125 "/>
<path style=" stroke:none;fill-rule:evenodd;fill:rgb(0%,0%,0%);fill-opacity:1;" d="M 41.378906 14.964844 L 41.53125 14.964844 L 41.695313 14.972656 L 41.777344 14.972656 L 41.863281 14.976563 L 41.949219 14.984375 L 42.039063 14.988281 L 42.132813 14.996094 L 42.222656 15 L 42.222656 20.507813 L 42.546875 20.488281 L 42.847656 20.460938 L 43.132813 20.417969 L 43.402344 20.367188 L 43.648438 20.308594 L 43.878906 20.234375 L 44.09375 20.152344 L 44.285156 20.058594 L 44.460938 19.957031 L 44.617188 19.84375 L 44.753906 19.71875 L 44.875 19.589844 L 44.984375 19.449219 L 45.078125 19.300781 L 45.15625 19.140625 L 45.222656 18.976563 L 45.273438 18.800781 L 45.308594 18.617188 L 45.332031 18.425781 L 45.335938 18.222656 L 45.335938 18.09375 L 45.328125 17.96875 L 45.320313 17.847656 L 45.304688 17.726563 L 45.289063 17.609375 L 45.265625 17.496094 L 45.242188 17.386719 L 45.210938 17.277344 L 45.175781 17.171875 L 45.140625 17.070313 L 45.097656 16.964844 L 45.050781 16.859375 L 45 16.753906 L 44.941406 16.648438 L 44.878906 16.539063 L 44.8125 16.433594 L 44.738281 16.324219 L 44.660156 16.214844 L 44.578125 16.101563 L 44.492188 15.992188 L 45.445313 15.269531 L 45.671875 15.542969 L 45.875 15.820313 L 46.050781 16.101563 L 46.207031 16.394531 L 46.335938 16.691406 L 46.445313 17 L 46.527344 17.3125 L 46.585938 17.632813 L 46.621094 17.960938 L 46.632813 18.296875 L 46.621094 18.65625 L 46.582031 19.003906 L 46.519531 19.332031 L 46.429688 19.644531 L 46.3125 19.941406 L 46.171875 20.222656 L 46.007813 20.484375 L 45.816406 20.730469 L 45.597656 20.960938 L 45.355469 21.175781 L 45.085938 21.367188 L 44.796875 21.539063 L 44.484375 21.6875 L 44.15625 21.820313 L 43.804688 21.929688 L 43.429688 22.023438 L 43.039063 22.09375 L 42.625 22.144531 L 42.191406 22.171875 L 41.738281 22.183594 L 41.28125 22.171875 L 40.847656 22.144531 L 40.433594 22.097656 L 40.035156 22.027344 L 39.660156 21.941406 L 39.300781 21.832031 L 38.964844 21.707031 L 38.644531 21.5625 L 38.34375 21.394531 L 38.066406 21.210938 L 37.804688 21.007813 L 37.574219 20.792969 L 37.367188 20.558594 L 37.191406 20.3125 L 37.039063 20.050781 L 36.917969 19.773438 L 36.820313 19.480469 L 36.753906 19.171875 L 36.710938 18.847656 L 36.699219 18.511719 L 36.710938 18.175781 L 36.746094 17.859375 L 36.808594 17.554688 L 36.894531 17.269531 L 37.003906 17 L 37.136719 16.746094 L 37.296875 16.503906 L 37.480469 16.28125 L 37.6875 16.074219 L 37.921875 15.882813 L 38.171875 15.707031 L 38.445313 15.554688 L 38.738281 15.414063 L 39.054688 15.296875 L 39.390625 15.195313 L 39.746094 15.113281 L 40.121094 15.046875 L 40.519531 15 L 40.9375 14.972656 Z M 40.890625 16.53125 L 40.328125 16.550781 L 39.824219 16.609375 L 39.378906 16.707031 L 38.992188 16.84375 L 38.664063 17.023438 L 38.398438 17.238281 L 38.1875 17.492188 L 38.039063 17.785156 L 37.953125 18.121094 L 37.921875 18.492188 L 37.929688 18.667969 L 37.953125 18.839844 L 37.988281 19 L 38.042969 19.152344 L 38.109375 19.296875 L 38.195313 19.4375 L 38.292969 19.566406 L 38.40625 19.691406 L 38.535156 19.808594 L 38.679688 19.914063 L 38.835938 20.015625 L 39.011719 20.105469 L 39.203125 20.1875 L 39.417969 20.261719 L 39.648438 20.324219 L 39.898438 20.378906 L 40.167969 20.425781 L 40.457031 20.460938 L 40.765625 20.492188 L 41.089844 20.507813 L 41.089844 16.53125 Z M 40.890625 16.53125 "/>
</g>
</svg>
