<?xml version="1.0" encoding="UTF-8"?>
<svg xmlns="http://www.w3.org/2000/svg" xmlns:xlink="http://www.w3.org/1999/xlink" width="504pt" height="360pt" viewBox="0 0 504 360" version="1.1">
<g id="surface24">
<rect x="0" y="0" width="504" height="360" style="fill:rgb(100%,100%,100%);fill-opacity:1;stroke:none;"/>
<path style="fill-rule:nonzero;fill:rgb(5.098039%,3.137255%,52.941176%);fill-opacity:1;stroke-width:3.200935;stroke-linecap:round;stroke-linejoin:round;stroke:rgb(100%,100%,100%);stroke-opacity:1;stroke-miterlimit:10;" d="M 223.292969 171.480469 L 223.292969 56.972656 L 219.417969 57.039063 L 215.546875 57.234375 L 211.683594 57.5625 L 207.835938 58.019531 L 204.003906 58.609375 L 200.195313 59.328125 L 196.414063 60.171875 L 192.664063 61.144531 L 188.945313 62.246094 L 185.269531 63.472656 L 181.636719 64.820313 L 178.050781 66.289063 L 174.515625 67.882813 L 171.039063 69.59375 L 167.617188 71.417969 L 164.265625 73.359375 L 160.976563 75.414063 L 157.761719 77.578125 L 154.621094 79.847656 L 151.558594 82.226563 L 148.582031 84.703125 L 145.6875 87.28125 L 142.882813 89.957031 L 140.167969 92.726563 L 137.550781 95.582031 L 135.03125 98.527344 L 132.613281 101.558594 L 130.296875 104.667969 L 128.089844 107.851563 L 125.992188 111.109375 L 124.003906 114.4375 L 122.132813 117.828125 L 120.375 121.285156 L 118.734375 124.796875 L 117.214844 128.363281 L 115.816406 131.976563 L 114.539063 135.636719 L 113.390625 139.335938 L 112.363281 143.074219 L 111.464844 146.84375 L 110.695313 150.644531 L 110.054688 154.464844 L 109.542969 158.308594 L 109.164063 162.164063 L 108.914063 166.03125 L 108.796875 169.90625 L 108.808594 173.78125 L 108.949219 177.65625 L 109.226563 181.523438 L 109.628906 185.375 L 110.164063 189.214844 L 110.832031 193.03125 L 111.625 196.828125 L 112.546875 200.589844 L 113.59375 204.324219 L 114.769531 208.015625 L 116.066406 211.667969 L 117.488281 215.273438 L 119.03125 218.828125 L 120.695313 222.332031 L 122.472656 225.773438 L 124.367188 229.152344 L 126.378906 232.46875 L 128.496094 235.714844 L 130.726563 238.886719 L 133.058594 241.980469 L 135.496094 244.992188 L 138.035156 247.921875 L 140.671875 250.761719 L 143.402344 253.515625 L 146.222656 256.171875 L 149.132813 258.730469 L 152.128906 261.191406 L 155.203125 263.546875 L 158.359375 265.796875 L 161.589844 267.941406 L 164.886719 269.976563 L 168.253906 271.894531 L 171.683594 273.699219 L 175.171875 275.386719 L 178.71875 276.957031 L 182.3125 278.40625 L 185.953125 279.730469 L 189.640625 280.933594 L 193.363281 282.007813 L 197.121094 282.957031 L 200.910156 283.78125 L 204.722656 284.472656 L 208.554688 285.035156 L 212.40625 285.46875 L 216.269531 285.773438 L 220.144531 285.945313 L 224.019531 285.988281 L 227.894531 285.898438 L 231.761719 285.675781 L 235.621094 285.324219 L 239.46875 284.839844 L 243.296875 284.226563 L 247.101563 283.488281 L 246.277344 279.625 L 244.636719 271.898438 L 243.816406 268.039063 L 242.175781 260.3125 L 241.351563 256.449219 L 240.53125 252.589844 L 238.890625 244.863281 L 238.070313 241.003906 L 237.25 237.140625 L 236.425781 233.277344 L 235.605469 229.414063 L 234.785156 225.554688 L 232.324219 213.964844 L 231.5 210.105469 L 229.039063 198.515625 L 228.21875 194.65625 L 227.398438 190.792969 L 226.574219 186.929688 L 225.753906 183.066406 L 224.933594 179.207031 Z M 223.292969 171.480469 "/>
<path style="fill-rule:nonzero;fill:rgb(33.72549%,0.392157%,64.313725%);fill-opacity:1;stroke-width:3.200935;stroke-linecap:round;stroke-linejoin:round;stroke:rgb(100%,100%,100%);stroke-opacity:1;stroke-miterlimit:10;" d="M 223.292969 171.480469 L 224.933594 179.207031 L 225.753906 183.066406 L 226.574219 186.929688 L 227.398438 190.792969 L 228.21875 194.65625 L 229.039063 198.515625 L 231.5 210.105469 L 232.324219 213.964844 L 234.785156 225.554688 L 235.605469 229.414063 L 236.425781 233.277344 L 237.25 237.140625 L 238.070313 241.003906 L 238.890625 244.863281 L 240.53125 252.589844 L 241.351563 256.449219 L 242.175781 260.3125 L 243.816406 268.039063 L 244.636719 271.898438 L 246.277344 279.625 L 247.101563 283.488281 L 250.898438 282.609375 L 254.667969 281.605469 L 258.398438 280.476563 L 262.089844 279.214844 L 265.734375 277.832031 L 269.332031 276.324219 L 272.875 274.699219 L 276.359375 272.949219 L 279.785156 271.082031 L 283.144531 269.101563 L 286.433594 267.007813 L 289.648438 264.804688 L 292.789063 262.488281 L 295.847656 260.070313 L 298.820313 257.546875 L 301.707031 254.925781 L 304.503906 252.207031 L 307.203125 249.398438 L 309.808594 246.496094 L 312.3125 243.503906 L 314.714844 240.433594 L 317.007813 237.28125 L 319.195313 234.050781 L 321.269531 230.75 L 323.230469 227.378906 L 325.074219 223.945313 L 326.800781 220.449219 L 328.410156 216.894531 L 329.894531 213.289063 L 331.257813 209.636719 L 332.492188 205.9375 L 333.601563 202.199219 L 334.585938 198.425781 L 335.4375 194.621094 L 336.160156 190.789063 L 336.753906 186.933594 L 337.214844 183.0625 L 337.542969 179.175781 L 337.738281 175.28125 L 337.800781 171.382813 L 337.730469 167.484375 L 337.527344 163.589844 L 337.191406 159.707031 L 336.726563 155.835938 L 336.128906 151.980469 L 335.398438 148.152344 L 334.539063 144.347656 L 333.550781 140.574219 L 332.433594 136.839844 L 331.191406 133.144531 L 329.824219 129.492188 L 328.332031 125.886719 L 326.71875 122.339844 L 324.984375 118.84375 L 323.132813 115.414063 L 321.167969 112.046875 L 319.085938 108.75 L 316.894531 105.523438 L 314.59375 102.375 L 312.1875 99.304688 L 309.679688 96.320313 L 307.070313 93.421875 L 304.363281 90.617188 L 301.566406 87.902344 L 298.671875 85.285156 L 295.695313 82.769531 L 292.632813 80.355469 L 289.488281 78.046875 L 286.269531 75.847656 L 282.976563 73.757813 L 279.613281 71.78125 L 276.1875 69.921875 L 272.699219 68.179688 L 269.152344 66.558594 L 265.554688 65.058594 L 261.90625 63.679688 L 258.214844 62.429688 L 254.480469 61.300781 L 250.710938 60.304688 L 246.910156 59.433594 L 243.082031 58.695313 L 239.230469 58.085938 L 237.578125 69.816406 L 237.03125 73.726563 L 235.929688 81.546875 L 235.382813 85.457031 L 234.28125 93.277344 L 233.734375 97.1875 L 232.632813 105.007813 L 232.085938 108.917969 L 230.984375 116.738281 L 230.4375 120.648438 L 229.335938 128.46875 L 228.789063 132.378906 L 227.6875 140.199219 L 227.140625 144.109375 L 226.039063 151.929688 L 225.492188 155.839844 L 223.839844 167.570313 Z M 223.292969 171.480469 "/>
<path style="fill-rule:nonzero;fill:rgb(56.470588%,5.098039%,64.313725%);fill-opacity:1;stroke-width:3.200935;stroke-linecap:round;stroke-linejoin:round;stroke:rgb(100%,100%,100%);stroke-opacity:1;stroke-miterlimit:10;" d="M 223.292969 171.480469 L 223.839844 167.570313 L 225.492188 155.839844 L 226.039063 151.929688 L 227.140625 144.109375 L 227.6875 140.199219 L 228.789063 132.378906 L 229.335938 128.46875 L 230.4375 120.648438 L 230.984375 116.738281 L 232.085938 108.917969 L 232.632813 105.007813 L 233.734375 97.1875 L 234.28125 93.277344 L 235.382813 85.457031 L 235.929688 81.546875 L 237.03125 73.726563 L 237.578125 69.816406 L 239.230469 58.085938 L 237.578125 69.816406 L 237.03125 73.726563 L 235.929688 81.546875 L 235.382813 85.457031 L 234.28125 93.277344 L 233.734375 97.1875 L 232.632813 105.007813 L 232.085938 108.917969 L 230.984375 116.738281 L 230.4375 120.648438 L 229.335938 128.46875 L 228.789063 132.378906 L 227.6875 140.199219 L 227.140625 144.109375 L 226.039063 151.929688 L 225.492188 155.839844 L 223.839844 167.570313 Z M 223.292969 171.480469 "/>
<path style="fill-rule:nonzero;fill:rgb(74.901961%,22.352941%,51.764706%);fill-opacity:1;stroke-width:3.200935;stroke-linecap:round;stroke-linejoin:round;stroke:rgb(100%,100%,100%);stroke-opacity:1;stroke-miterlimit:10;" d="M 223.292969 171.480469 L 223.839844 167.570313 L 225.492188 155.839844 L 226.039063 151.929688 L 227.140625 144.109375 L 227.6875 140.199219 L 228.789063 132.378906 L 229.335938 128.46875 L 230.4375 120.648438 L 230.984375 116.738281 L 232.085938 108.917969 L 232.632813 105.007813 L 233.734375 97.1875 L 234.28125 93.277344 L 235.382813 85.457031 L 235.929688 81.546875 L 237.03125 73.726563 L 237.578125 69.816406 L 239.230469 58.085938 L 235.261719 57.601563 L 231.28125 57.253906 L 227.289063 57.042969 L 223.292969 56.972656 Z M 223.292969 171.480469 "/>
<path style="fill:none;stroke-width:3.200935;stroke-linecap:round;stroke-linejoin:round;stroke:rgb(100%,100%,100%);stroke-opacity:1;stroke-miterlimit:10;" d="M 223.292969 171.480469 L 223.292969 56.972656 Z M 223.292969 171.480469 "/>
<path style="fill:none;stroke-width:3.200935;stroke-linecap:round;stroke-linejoin:round;stroke:rgb(100%,100%,100%);stroke-opacity:1;stroke-miterlimit:10;" d="M 223.292969 171.480469 L 223.292969 56.972656 Z M 223.292969 171.480469 "/>
<path style="fill:none;stroke-width:3.200935;stroke-linecap:round;stroke-linejoin:round;stroke:rgb(100%,100%,100%);stroke-opacity:1;stroke-miterlimit:10;" d="M 223.292969 171.480469 L 223.292969 56.972656 Z M 223.292969 171.480469 "/>
<path style="fill:none;stroke-width:3.200935;stroke-linecap:round;stroke-linejoin:round;stroke:rgb(100%,100%,100%);stroke-opacity:1;stroke-miterlimit:10;" d="M 223.292969 171.480469 L 223.292969 56.972656 Z M 223.292969 171.480469 "/>
<path style="fill:none;stroke-width:3.200935;stroke-linecap:round;stroke-linejoin:round;stroke:rgb(100%,100%,100%);stroke-opacity:1;stroke-miterlimit:10;" d="M 223.292969 171.480469 L 223.292969 56.972656 Z M 223.292969 171.480469 "/>
<path style="fill:none;stroke-width:3.200935;stroke-linecap:round;stroke-linejoin:round;stroke:rgb(100%,100%,100%);stroke-opacity:1;stroke-miterlimit:10;" d="M 223.292969 171.480469 L 223.292969 56.972656 Z M 223.292969 171.480469 "/>
<path style="fill-rule:nonzero;fill:rgb(100%,100%,100%);fill-opacity:1;stroke-width:1.115477;stroke-linecap:round;stroke-linejoin:round;stroke:rgb(100%,100%,100%);stroke-opacity:1;stroke-miterlimit:10;" d="M 377.882813 274.089844 L 432.375 274.089844 L 432.375 68.875 L 377.882813 68.875 Z M 377.882813 274.089844 "/>
<path style=" stroke:none;fill-rule:evenodd;fill:rgb(0%,0%,0%);fill-opacity:1;" d="M 388.472656 75.992188 L 388.644531 75.992188 L 388.8125 76 L 388.972656 76.015625 L 389.132813 76.035156 L 389.285156 76.0625 L 389.4375 76.09375 L 389.582031 76.128906 L 389.71875 76.171875 L 389.855469 76.222656 L 389.988281 76.273438 L 390.121094 76.332031 L 390.25 76.394531 L 390.382813 76.464844 L 390.511719 76.539063 L 390.640625 76.621094 L 390.769531 76.707031 L 390.898438 76.800781 L 391.023438 76.898438 L 391.152344 77.003906 L 391.277344 77.117188 L 390.527344 77.894531 L 390.425781 77.8125 L 390.324219 77.738281 L 390.226563 77.664063 L 390.125 77.597656 L 390.027344 77.535156 L 389.933594 77.476563 L 389.835938 77.425781 L 389.742188 77.375 L 389.644531 77.332031 L 389.550781 77.296875 L 389.457031 77.257813 L 389.363281 77.226563 L 389.261719 77.195313 L 389.058594 77.148438 L 388.953125 77.132813 L 388.84375 77.117188 L 388.617188 77.101563 L 388.503906 77.101563 L 388.273438 77.109375 L 388.050781 77.140625 L 387.839844 77.191406 L 387.632813 77.261719 L 387.4375 77.351563 L 387.25 77.460938 L 387.070313 77.59375 L 386.898438 77.742188 L 386.738281 77.914063 L 386.582031 78.105469 L 386.441406 78.316406 L 386.3125 78.550781 L 386.199219 78.8125 L 386.101563 79.097656 L 386.019531 79.40625 L 385.953125 79.742188 L 385.898438 80.101563 L 385.863281 80.484375 L 385.839844 80.894531 L 385.832031 81.332031 L 385.839844 81.773438 L 385.859375 82.191406 L 385.890625 82.582031 L 385.933594 82.949219 L 385.988281 83.289063 L 386.058594 83.601563 L 386.140625 83.890625 L 386.234375 84.152344 L 386.34375 84.390625 L 386.460938 84.601563 L 386.59375 84.785156 L 386.738281 84.953125 L 386.898438 85.097656 L 387.066406 85.222656 L 387.25 85.332031 L 387.445313 85.417969 L 387.652344 85.488281 L 387.875 85.535156 L 388.105469 85.566406 L 388.351563 85.574219 L 388.535156 85.570313 L 388.71875 85.558594 L 388.894531 85.535156 L 389.066406 85.503906 L 389.238281 85.460938 L 389.402344 85.414063 L 389.566406 85.355469 L 389.726563 85.289063 L 389.878906 85.210938 L 390.03125 85.125 L 390.03125 81.898438 L 388.457031 81.898438 L 388.308594 80.804688 L 391.382813 80.804688 L 391.382813 85.769531 L 391.097656 85.945313 L 390.804688 86.105469 L 390.511719 86.246094 L 390.214844 86.367188 L 389.914063 86.46875 L 389.609375 86.550781 L 389.300781 86.617188 L 388.988281 86.664063 L 388.671875 86.691406 L 388.351563 86.699219 L 387.976563 86.6875 L 387.621094 86.648438 L 387.28125 86.582031 L 386.957031 86.488281 L 386.652344 86.367188 L 386.367188 86.21875 L 386.097656 86.046875 L 385.847656 85.847656 L 385.613281 85.617188 L 385.398438 85.367188 L 385.199219 85.082031 L 385.023438 84.769531 L 384.871094 84.433594 L 384.734375 84.070313 L 384.621094 83.679688 L 384.527344 83.257813 L 384.457031 82.8125 L 384.402344 82.339844 L 384.371094 81.839844 L 384.363281 81.316406 L 384.367188 80.972656 L 384.386719 80.640625 L 384.414063 80.320313 L 384.453125 80.007813 L 384.5 79.710938 L 384.5625 79.421875 L 384.632813 79.144531 L 384.71875 78.875 L 384.8125 78.621094 L 384.917969 78.375 L 385.03125 78.140625 L 385.15625 77.917969 L 385.285156 77.710938 L 385.421875 77.511719 L 385.566406 77.328125 L 385.71875 77.15625 L 385.878906 76.996094 L 386.046875 76.847656 L 386.21875 76.714844 L 386.402344 76.589844 L 386.59375 76.476563 L 386.789063 76.375 L 386.984375 76.285156 L 387.1875 76.207031 L 387.394531 76.140625 L 387.601563 76.085938 L 387.8125 76.042969 L 388.03125 76.015625 L 388.25 75.996094 Z M 388.472656 75.992188 "/>
<path style=" stroke:none;fill-rule:evenodd;fill:rgb(0%,0%,0%);fill-opacity:1;" d="M 396.664063 78.433594 L 396.738281 78.4375 L 396.8125 78.4375 L 396.886719 78.445313 L 396.957031 78.449219 L 397.027344 78.457031 L 397.09375 78.46875 L 397.21875 78.492188 L 397.28125 78.507813 L 397.335938 78.523438 L 397.113281 79.832031 L 397.054688 79.8125 L 396.996094 79.796875 L 396.878906 79.773438 L 396.816406 79.761719 L 396.753906 79.753906 L 396.691406 79.75 L 396.628906 79.742188 L 396.496094 79.742188 L 396.367188 79.746094 L 396.242188 79.761719 L 396.125 79.789063 L 396.007813 79.824219 L 395.898438 79.871094 L 395.792969 79.929688 L 395.691406 79.996094 L 395.59375 80.078125 L 395.503906 80.164063 L 395.417969 80.265625 L 395.339844 80.375 L 395.261719 80.496094 L 395.1875 80.628906 L 395.121094 80.773438 L 395.054688 80.929688 L 394.992188 81.09375 L 394.929688 81.273438 L 394.875 81.460938 L 394.820313 81.660156 L 394.773438 81.871094 L 394.773438 86.503906 L 393.421875 86.503906 L 393.421875 78.617188 L 394.59375 78.617188 L 394.699219 80.175781 L 394.824219 79.84375 L 394.964844 79.550781 L 395.121094 79.289063 L 395.292969 79.0625 L 395.480469 78.871094 L 395.6875 78.714844 L 395.90625 78.59375 L 396.140625 78.503906 L 396.394531 78.453125 Z M 396.664063 78.433594 "/>
<path style=" stroke:none;fill-rule:evenodd;fill:rgb(0%,0%,0%);fill-opacity:1;" d="M 403.578125 84.707031 L 403.578125 84.800781 L 403.582031 84.886719 L 403.589844 84.972656 L 403.597656 85.050781 L 403.613281 85.125 L 403.625 85.195313 L 403.664063 85.320313 L 403.6875 85.375 L 403.710938 85.425781 L 403.773438 85.511719 L 403.84375 85.589844 L 403.886719 85.625 L 403.929688 85.65625 L 404.023438 85.71875 L 404.078125 85.746094 L 404.132813 85.769531 L 403.847656 86.683594 L 403.734375 86.664063 L 403.625 86.640625 L 403.519531 86.613281 L 403.421875 86.585938 L 403.328125 86.550781 L 403.238281 86.511719 L 403.152344 86.472656 L 403.074219 86.425781 L 403 86.378906 L 402.867188 86.269531 L 402.808594 86.207031 L 402.753906 86.136719 L 402.699219 86.0625 L 402.652344 85.984375 L 402.605469 85.898438 L 402.566406 85.808594 L 402.53125 85.710938 L 402.496094 85.609375 L 402.46875 85.5 L 402.308594 85.726563 L 402.136719 85.933594 L 401.953125 86.113281 L 401.757813 86.269531 L 401.550781 86.398438 L 401.328125 86.507813 L 401.09375 86.59375 L 400.851563 86.652344 L 400.59375 86.6875 L 400.324219 86.699219 L 400.117188 86.695313 L 399.921875 86.675781 L 399.730469 86.640625 L 399.550781 86.597656 L 399.382813 86.539063 L 399.21875 86.46875 L 399.066406 86.382813 L 398.921875 86.289063 L 398.785156 86.179688 L 398.65625 86.054688 L 398.539063 85.917969 L 398.4375 85.773438 L 398.34375 85.621094 L 398.265625 85.457031 L 398.195313 85.285156 L 398.140625 85.105469 L 398.097656 84.917969 L 398.066406 84.722656 L 398.046875 84.515625 L 398.042969 84.300781 L 398.050781 84.054688 L 398.074219 83.820313 L 398.117188 83.597656 L 398.175781 83.386719 L 398.25 83.191406 L 398.339844 83.003906 L 398.445313 82.832031 L 398.570313 82.667969 L 398.710938 82.519531 L 398.867188 82.378906 L 399.039063 82.253906 L 399.226563 82.144531 L 399.425781 82.042969 L 399.640625 81.957031 L 399.867188 81.886719 L 400.113281 81.824219 L 400.367188 81.78125 L 400.640625 81.746094 L 400.921875 81.726563 L 401.222656 81.71875 L 402.242188 81.71875 L 402.242188 81.046875 L 402.238281 80.886719 L 402.230469 80.734375 L 402.210938 80.59375 L 402.1875 80.460938 L 402.15625 80.335938 L 402.117188 80.222656 L 402.074219 80.117188 L 402.023438 80.023438 L 401.964844 79.9375 L 401.898438 79.859375 L 401.828125 79.789063 L 401.75 79.726563 L 401.660156 79.667969 L 401.5625 79.621094 L 401.457031 79.578125 L 401.34375 79.546875 L 401.222656 79.519531 L 401.089844 79.5 L 400.953125 79.488281 L 400.800781 79.484375 L 400.636719 79.488281 L 400.460938 79.503906 L 400.285156 79.523438 L 400.097656 79.550781 L 399.910156 79.589844 L 399.714844 79.636719 L 399.515625 79.691406 L 399.308594 79.753906 L 399.097656 79.824219 L 398.882813 79.90625 L 398.550781 78.960938 L 398.816406 78.859375 L 399.074219 78.765625 L 399.328125 78.683594 L 399.578125 78.613281 L 399.828125 78.554688 L 400.070313 78.507813 L 400.3125 78.46875 L 400.550781 78.441406 L 400.78125 78.425781 L 401.011719 78.421875 L 401.5 78.445313 L 401.9375 78.523438 L 402.320313 78.652344 L 402.652344 78.832031 L 402.9375 79.0625 L 403.167969 79.34375 L 403.347656 79.675781 L 403.476563 80.0625 L 403.550781 80.496094 L 403.578125 80.984375 Z M 400.636719 85.679688 L 400.84375 85.667969 L 401.039063 85.632813 L 401.222656 85.570313 L 401.398438 85.484375 L 401.5625 85.371094 L 401.71875 85.238281 L 401.863281 85.078125 L 402 84.894531 L 402.125 84.683594 L 402.242188 84.449219 L 402.242188 82.589844 L 401.371094 82.589844 L 401.003906 82.605469 L 400.671875 82.65625 L 400.378906 82.738281 L 400.125 82.851563 L 399.910156 83 L 399.734375 83.179688 L 399.597656 83.390625 L 399.5 83.636719 L 399.441406 83.914063 L 399.421875 84.226563 L 399.425781 84.363281 L 399.433594 84.492188 L 399.449219 84.617188 L 399.472656 84.738281 L 399.5 84.847656 L 399.535156 84.953125 L 399.578125 85.050781 L 399.625 85.140625 L 399.679688 85.226563 L 399.738281 85.304688 L 399.804688 85.375 L 399.875 85.441406 L 399.949219 85.496094 L 400.03125 85.546875 L 400.121094 85.585938 L 400.210938 85.621094 L 400.3125 85.648438 L 400.414063 85.664063 L 400.523438 85.675781 Z M 400.636719 85.679688 "/>
<path style=" stroke:none;fill-rule:evenodd;fill:rgb(0%,0%,0%);fill-opacity:1;" d="M 411.617188 75.421875 L 411.617188 86.503906 L 410.417969 86.503906 L 410.328125 85.46875 L 410.167969 85.703125 L 410 85.914063 L 409.820313 86.097656 L 409.632813 86.257813 L 409.429688 86.394531 L 409.21875 86.503906 L 409 86.589844 L 408.769531 86.652344 L 408.523438 86.6875 L 408.273438 86.699219 L 408.019531 86.6875 L 407.78125 86.65625 L 407.550781 86.601563 L 407.332031 86.523438 L 407.125 86.425781 L 406.929688 86.304688 L 406.746094 86.164063 L 406.574219 86 L 406.414063 85.8125 L 406.261719 85.605469 L 406.128906 85.378906 L 406.007813 85.132813 L 405.902344 84.875 L 405.8125 84.597656 L 405.734375 84.304688 L 405.671875 83.996094 L 405.621094 83.667969 L 405.585938 83.324219 L 405.566406 82.964844 L 405.558594 82.589844 L 405.5625 82.34375 L 405.570313 82.105469 L 405.589844 81.871094 L 405.613281 81.640625 L 405.644531 81.421875 L 405.683594 81.203125 L 405.726563 80.996094 L 405.777344 80.789063 L 405.835938 80.59375 L 405.902344 80.398438 L 405.976563 80.214844 L 406.058594 80.039063 L 406.144531 79.871094 L 406.234375 79.714844 L 406.332031 79.5625 L 406.4375 79.421875 L 406.546875 79.289063 L 406.660156 79.167969 L 406.78125 79.050781 L 406.90625 78.945313 L 407.039063 78.84375 L 407.171875 78.757813 L 407.3125 78.675781 L 407.453125 78.609375 L 407.601563 78.550781 L 407.75 78.503906 L 407.90625 78.46875 L 408.0625 78.441406 L 408.226563 78.425781 L 408.394531 78.421875 L 408.613281 78.429688 L 408.828125 78.457031 L 409.035156 78.503906 L 409.234375 78.570313 L 409.425781 78.65625 L 409.609375 78.761719 L 409.785156 78.882813 L 409.953125 79.023438 L 410.113281 79.1875 L 410.269531 79.367188 L 410.269531 75.269531 Z M 408.585938 85.636719 L 408.695313 85.632813 L 408.796875 85.625 L 408.898438 85.609375 L 408.996094 85.585938 L 409.089844 85.558594 L 409.179688 85.527344 L 409.269531 85.488281 L 409.355469 85.441406 L 409.4375 85.390625 L 409.519531 85.335938 L 409.597656 85.273438 L 409.675781 85.203125 L 409.753906 85.128906 L 409.832031 85.050781 L 409.90625 84.964844 L 410.054688 84.777344 L 410.128906 84.671875 L 410.199219 84.5625 L 410.269531 84.449219 L 410.269531 80.492188 L 410.128906 80.300781 L 409.988281 80.128906 L 409.84375 79.976563 L 409.691406 79.847656 L 409.535156 79.738281 L 409.375 79.644531 L 409.210938 79.574219 L 409.042969 79.527344 L 408.871094 79.496094 L 408.691406 79.484375 L 408.535156 79.492188 L 408.386719 79.515625 L 408.246094 79.554688 L 408.109375 79.609375 L 407.980469 79.675781 L 407.855469 79.761719 L 407.742188 79.859375 L 407.632813 79.976563 L 407.527344 80.105469 L 407.433594 80.25 L 407.34375 80.410156 L 407.265625 80.585938 L 407.195313 80.78125 L 407.136719 80.988281 L 407.085938 81.210938 L 407.046875 81.449219 L 407.015625 81.703125 L 406.996094 81.972656 L 406.984375 82.257813 L 406.984375 82.558594 L 406.988281 82.867188 L 407 83.15625 L 407.019531 83.429688 L 407.050781 83.6875 L 407.085938 83.929688 L 407.132813 84.152344 L 407.1875 84.359375 L 407.25 84.550781 L 407.324219 84.726563 L 407.402344 84.886719 L 407.488281 85.027344 L 407.585938 85.15625 L 407.6875 85.269531 L 407.792969 85.367188 L 407.910156 85.449219 L 408.03125 85.515625 L 408.160156 85.566406 L 408.296875 85.605469 L 408.4375 85.628906 Z M 408.585938 85.636719 "/>
<path style=" stroke:none;fill-rule:evenodd;fill:rgb(0%,0%,0%);fill-opacity:1;" d="M 419.582031 82.320313 L 419.582031 82.449219 L 419.578125 82.515625 L 419.578125 82.585938 L 419.574219 82.652344 L 419.570313 82.726563 L 419.566406 82.796875 L 419.5625 82.871094 L 419.558594 82.949219 L 419.550781 83.023438 L 414.960938 83.023438 L 414.980469 83.292969 L 415.003906 83.546875 L 415.039063 83.785156 L 415.082031 84.007813 L 415.132813 84.214844 L 415.191406 84.40625 L 415.257813 84.582031 L 415.335938 84.742188 L 415.421875 84.890625 L 415.519531 85.019531 L 415.621094 85.132813 L 415.730469 85.234375 L 415.847656 85.328125 L 415.972656 85.402344 L 416.101563 85.46875 L 416.242188 85.523438 L 416.386719 85.566406 L 416.539063 85.597656 L 416.699219 85.613281 L 416.867188 85.621094 L 417.078125 85.613281 L 417.179688 85.605469 L 417.28125 85.59375 L 417.378906 85.578125 L 417.472656 85.5625 L 417.566406 85.539063 L 417.65625 85.515625 L 417.742188 85.488281 L 417.828125 85.457031 L 417.914063 85.421875 L 418.003906 85.382813 L 418.089844 85.335938 L 418.179688 85.289063 L 418.269531 85.238281 L 418.359375 85.183594 L 418.453125 85.121094 L 418.542969 85.058594 L 418.636719 84.988281 L 418.726563 84.914063 L 419.328125 85.710938 L 419.101563 85.898438 L 418.871094 86.066406 L 418.632813 86.214844 L 418.390625 86.34375 L 418.144531 86.453125 L 417.886719 86.542969 L 417.625 86.609375 L 417.359375 86.660156 L 417.085938 86.691406 L 416.808594 86.699219 L 416.503906 86.691406 L 416.21875 86.65625 L 415.941406 86.605469 L 415.683594 86.53125 L 415.433594 86.433594 L 415.203125 86.316406 L 414.984375 86.179688 L 414.777344 86.019531 L 414.585938 85.835938 L 414.40625 85.636719 L 414.246094 85.410156 L 414.105469 85.167969 L 413.980469 84.910156 L 413.871094 84.632813 L 413.777344 84.339844 L 413.703125 84.03125 L 413.644531 83.703125 L 413.601563 83.359375 L 413.574219 83 L 413.566406 82.621094 L 413.574219 82.242188 L 413.601563 81.878906 L 413.640625 81.53125 L 413.695313 81.203125 L 413.769531 80.886719 L 413.859375 80.589844 L 413.964844 80.308594 L 414.085938 80.042969 L 414.222656 79.792969 L 414.378906 79.558594 L 414.546875 79.34375 L 414.726563 79.148438 L 414.921875 78.980469 L 415.125 78.832031 L 415.34375 78.707031 L 415.578125 78.601563 L 415.820313 78.523438 L 416.078125 78.464844 L 416.347656 78.433594 L 416.628906 78.421875 L 416.90625 78.429688 L 417.171875 78.460938 L 417.421875 78.511719 L 417.660156 78.582031 L 417.886719 78.675781 L 418.101563 78.789063 L 418.300781 78.921875 L 418.484375 79.074219 L 418.65625 79.246094 L 418.816406 79.441406 L 418.964844 79.648438 L 419.09375 79.878906 L 419.207031 80.121094 L 419.308594 80.382813 L 419.390625 80.664063 L 419.460938 80.960938 L 419.515625 81.273438 L 419.550781 81.605469 L 419.574219 81.953125 Z M 418.277344 81.914063 L 418.261719 81.445313 L 418.210938 81.023438 L 418.128906 80.652344 L 418.015625 80.332031 L 417.867188 80.058594 L 417.6875 79.835938 L 417.476563 79.664063 L 417.230469 79.539063 L 416.953125 79.464844 L 416.644531 79.441406 L 416.496094 79.445313 L 416.355469 79.464844 L 416.222656 79.496094 L 416.09375 79.542969 L 415.972656 79.597656 L 415.855469 79.667969 L 415.746094 79.75 L 415.644531 79.84375 L 415.546875 79.949219 L 415.457031 80.070313 L 415.375 80.199219 L 415.296875 80.347656 L 415.230469 80.507813 L 415.167969 80.6875 L 415.117188 80.878906 L 415.070313 81.089844 L 415.03125 81.3125 L 415 81.554688 L 414.976563 81.808594 L 414.960938 82.082031 L 418.277344 82.082031 Z M 418.277344 81.914063 "/>
<path style=" stroke:none;fill-rule:evenodd;fill:rgb(0%,0%,0%);fill-opacity:1;" d="M 423.496094 78.421875 L 423.769531 78.429688 L 424.03125 78.457031 L 424.289063 78.5 L 424.542969 78.5625 L 424.789063 78.644531 L 425.027344 78.746094 L 425.261719 78.859375 L 425.488281 78.996094 L 425.710938 79.148438 L 425.925781 79.320313 L 425.359375 80.117188 L 425.261719 80.050781 L 425.167969 79.988281 L 425.074219 79.933594 L 424.984375 79.878906 L 424.804688 79.777344 L 424.714844 79.734375 L 424.628906 79.691406 L 424.457031 79.621094 L 424.375 79.589844 L 424.203125 79.535156 L 424.113281 79.515625 L 424.027344 79.496094 L 423.9375 79.480469 L 423.847656 79.46875 L 423.757813 79.460938 L 423.664063 79.457031 L 423.453125 79.457031 L 423.335938 79.46875 L 423.226563 79.480469 L 423.121094 79.503906 L 423.019531 79.53125 L 422.925781 79.5625 L 422.835938 79.601563 L 422.75 79.648438 L 422.671875 79.699219 L 422.597656 79.753906 L 422.53125 79.816406 L 422.472656 79.878906 L 422.421875 79.945313 L 422.375 80.019531 L 422.339844 80.097656 L 422.308594 80.179688 L 422.285156 80.265625 L 422.265625 80.355469 L 422.257813 80.449219 L 422.253906 80.550781 L 422.257813 80.648438 L 422.265625 80.738281 L 422.28125 80.828125 L 422.304688 80.914063 L 422.335938 80.992188 L 422.371094 81.070313 L 422.414063 81.140625 L 422.464844 81.207031 L 422.519531 81.269531 L 422.582031 81.332031 L 422.65625 81.386719 L 422.746094 81.445313 L 422.84375 81.503906 L 422.953125 81.5625 L 423.078125 81.617188 L 423.210938 81.675781 L 423.359375 81.738281 L 423.519531 81.796875 L 423.691406 81.855469 L 423.871094 81.914063 L 424.101563 81.992188 L 424.320313 82.070313 L 424.527344 82.15625 L 424.71875 82.242188 L 424.894531 82.332031 L 425.0625 82.425781 L 425.214844 82.519531 L 425.355469 82.621094 L 425.484375 82.722656 L 425.597656 82.832031 L 425.699219 82.941406 L 425.792969 83.0625 L 425.871094 83.191406 L 425.941406 83.328125 L 426.003906 83.472656 L 426.050781 83.625 L 426.089844 83.785156 L 426.117188 83.953125 L 426.132813 84.128906 L 426.136719 84.316406 L 426.128906 84.53125 L 426.105469 84.742188 L 426.066406 84.9375 L 426.007813 85.128906 L 425.933594 85.308594 L 425.847656 85.480469 L 425.742188 85.640625 L 425.621094 85.792969 L 425.480469 85.9375 L 425.328125 86.070313 L 425.160156 86.191406 L 424.988281 86.296875 L 424.804688 86.390625 L 424.613281 86.472656 L 424.417969 86.542969 L 424.210938 86.597656 L 423.996094 86.644531 L 423.773438 86.675781 L 423.542969 86.695313 L 423.300781 86.699219 L 422.988281 86.691406 L 422.679688 86.65625 L 422.382813 86.605469 L 422.097656 86.53125 L 421.820313 86.433594 L 421.554688 86.316406 L 421.296875 86.179688 L 421.050781 86.019531 L 420.816406 85.835938 L 420.585938 85.636719 L 421.277344 84.886719 L 421.46875 85.03125 L 421.660156 85.160156 L 421.855469 85.277344 L 422.050781 85.375 L 422.25 85.460938 L 422.449219 85.527344 L 422.652344 85.582031 L 422.855469 85.621094 L 423.0625 85.644531 L 423.273438 85.648438 L 423.402344 85.648438 L 423.527344 85.636719 L 423.644531 85.621094 L 423.761719 85.597656 L 423.867188 85.566406 L 423.972656 85.53125 L 424.070313 85.488281 L 424.164063 85.4375 L 424.253906 85.382813 L 424.335938 85.320313 L 424.414063 85.25 L 424.484375 85.179688 L 424.542969 85.097656 L 424.597656 85.015625 L 424.640625 84.925781 L 424.679688 84.832031 L 424.707031 84.734375 L 424.726563 84.628906 L 424.738281 84.519531 L 424.742188 84.40625 L 424.742188 84.324219 L 424.738281 84.242188 L 424.730469 84.167969 L 424.71875 84.09375 L 424.707031 84.027344 L 424.6875 83.960938 L 424.667969 83.898438 L 424.648438 83.839844 L 424.621094 83.78125 L 424.59375 83.730469 L 424.5625 83.679688 L 424.527344 83.628906 L 424.488281 83.582031 L 424.445313 83.535156 L 424.398438 83.492188 L 424.34375 83.445313 L 424.285156 83.402344 L 424.222656 83.359375 L 424.15625 83.320313 L 424.082031 83.28125 L 424.007813 83.238281 L 423.925781 83.195313 L 423.835938 83.152344 L 423.738281 83.109375 L 423.636719 83.066406 L 423.527344 83.023438 L 423.410156 82.980469 L 423.285156 82.933594 L 423.15625 82.890625 L 423.019531 82.84375 L 422.800781 82.769531 L 422.59375 82.6875 L 422.398438 82.605469 L 422.21875 82.519531 L 422.050781 82.433594 L 421.894531 82.339844 L 421.75 82.246094 L 421.621094 82.148438 L 421.503906 82.046875 L 421.398438 81.945313 L 421.304688 81.835938 L 421.21875 81.722656 L 421.144531 81.605469 L 421.082031 81.480469 L 421.027344 81.347656 L 420.980469 81.210938 L 420.945313 81.070313 L 420.921875 80.921875 L 420.90625 80.769531 L 420.902344 80.609375 L 420.90625 80.484375 L 420.914063 80.363281 L 420.933594 80.246094 L 420.957031 80.128906 L 420.984375 80.015625 L 421.019531 79.902344 L 421.0625 79.792969 L 421.113281 79.6875 L 421.167969 79.585938 L 421.234375 79.484375 L 421.300781 79.386719 L 421.375 79.296875 L 421.453125 79.207031 L 421.539063 79.121094 L 421.625 79.042969 L 421.71875 78.96875 L 421.820313 78.894531 L 421.921875 78.828125 L 422.03125 78.765625 L 422.148438 78.707031 L 422.265625 78.652344 L 422.390625 78.601563 L 422.515625 78.558594 L 422.644531 78.523438 L 422.777344 78.492188 L 422.914063 78.464844 L 423.054688 78.445313 L 423.199219 78.433594 L 423.347656 78.421875 Z M 423.496094 78.421875 "/>
<path style="fill-rule:evenodd;fill:rgb(5.098039%,3.137255%,52.941176%);fill-opacity:1;stroke-width:3.200935;stroke-linecap:square;stroke-linejoin:miter;stroke:rgb(100%,100%,100%);stroke-opacity:1;stroke-miterlimit:10;" d="M 385.738281 110.714844 L 398.765625 110.714844 L 398.765625 97.6875 L 385.738281 97.6875 Z M 385.738281 110.714844 "/>
<path style="fill-rule:evenodd;fill:rgb(33.72549%,0.392157%,64.313725%);fill-opacity:1;stroke-width:3.200935;stroke-linecap:square;stroke-linejoin:miter;stroke:rgb(100%,100%,100%);stroke-opacity:1;stroke-miterlimit:10;" d="M 385.738281 127.992188 L 398.765625 127.992188 L 398.765625 114.964844 L 385.738281 114.964844 Z M 385.738281 127.992188 "/>
<path style="fill-rule:evenodd;fill:rgb(56.470588%,5.098039%,64.313725%);fill-opacity:1;stroke-width:3.200935;stroke-linecap:square;stroke-linejoin:miter;stroke:rgb(100%,100%,100%);stroke-opacity:1;stroke-miterlimit:10;" d="M 385.738281 145.273438 L 398.765625 145.273438 L 398.765625 132.246094 L 385.738281 132.246094 Z M 385.738281 145.273438 "/>
<path style="fill-rule:evenodd;fill:rgb(74.901961%,22.352941%,51.764706%);fill-opacity:1;stroke-width:3.200935;stroke-linecap:square;stroke-linejoin:miter;stroke:rgb(100%,100%,100%);stroke-opacity:1;stroke-miterlimit:10;" d="M 385.738281 162.554688 L 398.765625 162.554688 L 398.765625 149.527344 L 385.738281 149.527344 Z M 385.738281 162.554688 "/>
<path style="fill-rule:evenodd;fill:rgb(56.470588%,5.098039%,64.313725%);fill-opacity:1;stroke-width:3.200935;stroke-linecap:square;stroke-linejoin:miter;stroke:rgb(100%,100%,100%);stroke-opacity:1;stroke-miterlimit:10;" d="M 385.738281 179.832031 L 398.765625 179.832031 L 398.765625 166.804688 L 385.738281 166.804688 Z M 385.738281 179.832031 "/>
<path style="fill-rule:evenodd;fill:rgb(88.235294%,39.215686%,38.431373%);fill-opacity:1;stroke-width:3.200935;stroke-linecap:square;stroke-linejoin:miter;stroke:rgb(100%,100%,100%);stroke-opacity:1;stroke-miterlimit:10;" d="M 385.738281 197.113281 L 398.765625 197.113281 L 398.765625 184.085938 L 385.738281 184.085938 Z M 385.738281 197.113281 "/>
<path style="fill-rule:evenodd;fill:rgb(97.254902%,58.039216%,25.490196%);fill-opacity:1;stroke-width:3.200935;stroke-linecap:square;stroke-linejoin:miter;stroke:rgb(100%,100%,100%);stroke-opacity:1;stroke-miterlimit:10;" d="M 385.738281 214.394531 L 398.765625 214.394531 L 398.765625 201.367188 L 385.738281 201.367188 Z M 385.738281 214.394531 "/>
<path style="fill-rule:evenodd;fill:rgb(96.078431%,77.254902%,25.882353%);fill-opacity:1;stroke-width:3.200935;stroke-linecap:square;stroke-linejoin:miter;stroke:rgb(100%,100%,100%);stroke-opacity:1;stroke-miterlimit:10;" d="M 385.738281 231.671875 L 398.765625 231.671875 L 398.765625 218.644531 L 385.738281 218.644531 Z M 385.738281 231.671875 "/>
<path style="fill-rule:evenodd;fill:rgb(98.823529%,80.784314%,14.509804%);fill-opacity:1;stroke-width:3.200935;stroke-linecap:square;stroke-linejoin:miter;stroke:rgb(100%,100%,100%);stroke-opacity:1;stroke-miterlimit:10;" d="M 385.738281 248.953125 L 398.765625 248.953125 L 398.765625 235.925781 L 385.738281 235.925781 Z M 385.738281 248.953125 "/>
<path style="fill-rule:evenodd;fill:rgb(96.078431%,86.27451%,49.803922%);fill-opacity:1;stroke-width:3.200935;stroke-linecap:square;stroke-linejoin:miter;stroke:rgb(100%,100%,100%);stroke-opacity:1;stroke-miterlimit:10;" d="M 385.738281 266.234375 L 398.765625 266.234375 L 398.765625 253.207031 L 385.738281 253.207031 Z M 385.738281 266.234375 "/>
<path style=" stroke:none;fill-rule:evenodd;fill:rgb(0%,0%,0%);fill-opacity:1;" d="M 413.441406 108.328125 L 412.886719 106.226563 L 410.117188 106.226563 L 409.566406 108.328125 L 408.449219 108.328125 L 410.835938 100.070313 L 412.203125 100.070313 L 414.59375 108.328125 Z M 410.34375 105.351563 L 412.660156 105.351563 L 411.507813 100.960938 Z M 410.34375 105.351563 "/>
<path style=" stroke:none;fill-rule:evenodd;fill:rgb(0%,0%,0%);fill-opacity:1;" d="M 413.441406 125.609375 L 412.886719 123.507813 L 410.117188 123.507813 L 409.566406 125.609375 L 408.449219 125.609375 L 410.835938 117.351563 L 412.203125 117.351563 L 414.59375 125.609375 Z M 410.34375 122.632813 L 412.660156 122.632813 L 411.507813 118.238281 Z M 410.34375 122.632813 "/>
<path style=" stroke:none;fill-rule:evenodd;fill:rgb(0%,0%,0%);fill-opacity:1;" d="M 415.335938 122.296875 L 415.335938 121.40625 L 418.445313 121.40625 L 418.445313 122.296875 Z M 415.335938 122.296875 "/>
<path style=" stroke:none;fill-rule:evenodd;fill:rgb(0%,0%,0%);fill-opacity:1;" d="M 412.671875 138.519531 L 413.015625 138.597656 L 413.320313 138.703125 L 413.589844 138.835938 L 413.824219 138.996094 L 414.023438 139.1875 L 414.183594 139.402344 L 414.3125 139.648438 L 414.402344 139.925781 L 414.453125 140.226563 L 414.472656 140.558594 L 414.464844 140.789063 L 414.441406 141.007813 L 414.402344 141.210938 L 414.347656 141.40625 L 414.273438 141.585938 L 414.1875 141.753906 L 414.085938 141.914063 L 413.964844 142.058594 L 413.832031 142.191406 L 413.679688 142.3125 L 413.515625 142.421875 L 413.339844 142.519531 L 413.152344 142.605469 L 412.949219 142.679688 L 412.738281 142.742188 L 412.515625 142.796875 L 412.277344 142.835938 L 412.03125 142.863281 L 411.769531 142.882813 L 411.496094 142.886719 L 409.382813 142.886719 L 409.382813 134.632813 L 411.171875 134.632813 L 411.453125 134.636719 L 411.71875 134.652344 L 411.96875 134.679688 L 412.210938 134.714844 L 412.4375 134.765625 L 412.648438 134.820313 L 412.847656 134.890625 L 413.035156 134.96875 L 413.207031 135.058594 L 413.367188 135.160156 L 413.515625 135.269531 L 413.644531 135.390625 L 413.761719 135.519531 L 413.859375 135.660156 L 413.945313 135.8125 L 414.015625 135.96875 L 414.066406 136.140625 L 414.105469 136.320313 L 414.128906 136.507813 L 414.136719 136.707031 L 414.132813 136.851563 L 414.121094 136.988281 L 414.101563 137.125 L 414.070313 137.25 L 414.035156 137.375 L 413.988281 137.492188 L 413.9375 137.601563 L 413.875 137.710938 L 413.804688 137.8125 L 413.730469 137.90625 L 413.648438 137.996094 L 413.558594 138.078125 L 413.46875 138.15625 L 413.371094 138.222656 L 413.265625 138.289063 L 413.160156 138.347656 L 413.042969 138.398438 L 412.925781 138.445313 L 412.800781 138.484375 Z M 410.5 135.484375 L 410.5 138.148438 L 411.53125 138.148438 L 411.667969 138.144531 L 411.796875 138.132813 L 411.921875 138.117188 L 412.039063 138.09375 L 412.152344 138.0625 L 412.253906 138.023438 L 412.355469 137.976563 L 412.445313 137.925781 L 412.53125 137.867188 L 412.613281 137.800781 L 412.6875 137.726563 L 412.753906 137.644531 L 412.816406 137.558594 L 412.867188 137.46875 L 412.910156 137.371094 L 412.945313 137.269531 L 412.972656 137.160156 L 412.992188 137.046875 L 413.003906 136.929688 L 413.007813 136.804688 L 413.003906 136.667969 L 412.992188 136.539063 L 412.96875 136.421875 L 412.9375 136.308594 L 412.902344 136.203125 L 412.851563 136.105469 L 412.796875 136.015625 L 412.730469 135.9375 L 412.660156 135.863281 L 412.578125 135.796875 L 412.488281 135.738281 L 412.390625 135.683594 L 412.285156 135.636719 L 412.167969 135.597656 L 412.042969 135.5625 L 411.910156 135.535156 L 411.765625 135.511719 L 411.613281 135.496094 L 411.453125 135.488281 L 411.28125 135.484375 Z M 411.507813 142.011719 L 411.679688 142.007813 L 411.84375 142 L 411.996094 141.980469 L 412.144531 141.957031 L 412.28125 141.929688 L 412.414063 141.890625 L 412.535156 141.847656 L 412.648438 141.796875 L 412.753906 141.738281 L 412.851563 141.675781 L 412.941406 141.601563 L 413.019531 141.519531 L 413.089844 141.425781 L 413.152344 141.328125 L 413.203125 141.214844 L 413.246094 141.097656 L 413.277344 140.972656 L 413.300781 140.835938 L 413.316406 140.691406 L 413.320313 140.535156 L 413.304688 140.238281 L 413.253906 139.972656 L 413.167969 139.738281 L 413.050781 139.539063 L 412.898438 139.367188 L 412.710938 139.226563 L 412.492188 139.117188 L 412.238281 139.039063 L 411.949219 138.992188 L 411.628906 138.976563 L 410.5 138.976563 L 410.5 142.011719 Z M 411.507813 142.011719 "/>
<path style=" stroke:none;fill-rule:evenodd;fill:rgb(0%,0%,0%);fill-opacity:1;" d="M 418.132813 136.671875 L 418.132813 138.472656 L 419.765625 138.472656 L 419.765625 139.359375 L 418.132813 139.359375 L 418.132813 141.148438 L 417.207031 141.148438 L 417.207031 139.359375 L 415.578125 139.359375 L 415.578125 138.472656 L 417.207031 138.472656 L 417.207031 136.671875 Z M 418.132813 136.671875 "/>
<path style=" stroke:none;fill-rule:evenodd;fill:rgb(0%,0%,0%);fill-opacity:1;" d="M 412.671875 155.800781 L 413.015625 155.875 L 413.320313 155.980469 L 413.589844 156.113281 L 413.824219 156.277344 L 414.023438 156.464844 L 414.183594 156.683594 L 414.3125 156.929688 L 414.402344 157.207031 L 414.453125 157.507813 L 414.472656 157.839844 L 414.464844 158.070313 L 414.441406 158.285156 L 414.402344 158.492188 L 414.347656 158.683594 L 414.273438 158.867188 L 414.1875 159.035156 L 414.085938 159.191406 L 413.964844 159.335938 L 413.832031 159.46875 L 413.679688 159.589844 L 413.515625 159.703125 L 413.339844 159.800781 L 413.152344 159.886719 L 412.949219 159.960938 L 412.738281 160.023438 L 412.515625 160.074219 L 412.277344 160.117188 L 412.03125 160.144531 L 411.769531 160.160156 L 411.496094 160.167969 L 409.382813 160.167969 L 409.382813 151.910156 L 411.171875 151.910156 L 411.453125 151.917969 L 411.71875 151.933594 L 411.96875 151.960938 L 412.210938 151.996094 L 412.4375 152.042969 L 412.648438 152.101563 L 412.847656 152.171875 L 413.035156 152.25 L 413.207031 152.339844 L 413.367188 152.441406 L 413.515625 152.550781 L 413.644531 152.671875 L 413.761719 152.800781 L 413.859375 152.941406 L 413.945313 153.089844 L 414.015625 153.25 L 414.066406 153.421875 L 414.105469 153.597656 L 414.128906 153.789063 L 414.136719 153.988281 L 414.132813 154.132813 L 414.121094 154.269531 L 414.101563 154.402344 L 414.070313 154.53125 L 414.035156 154.652344 L 413.988281 154.769531 L 413.9375 154.882813 L 413.875 154.988281 L 413.804688 155.089844 L 413.730469 155.1875 L 413.648438 155.277344 L 413.558594 155.359375 L 413.46875 155.433594 L 413.371094 155.503906 L 413.265625 155.570313 L 413.160156 155.625 L 413.042969 155.679688 L 412.925781 155.726563 L 412.800781 155.765625 Z M 410.5 152.765625 L 410.5 155.429688 L 411.53125 155.429688 L 411.667969 155.425781 L 411.796875 155.414063 L 411.921875 155.394531 L 412.039063 155.371094 L 412.152344 155.339844 L 412.253906 155.300781 L 412.355469 155.257813 L 412.445313 155.203125 L 412.53125 155.144531 L 412.613281 155.078125 L 412.6875 155.003906 L 412.753906 154.925781 L 412.816406 154.839844 L 412.867188 154.746094 L 412.910156 154.652344 L 412.945313 154.546875 L 412.972656 154.441406 L 412.992188 154.328125 L 413.003906 154.207031 L 413.007813 154.082031 L 413.003906 153.949219 L 412.992188 153.820313 L 412.96875 153.699219 L 412.9375 153.589844 L 412.902344 153.484375 L 412.851563 153.386719 L 412.796875 153.296875 L 412.730469 153.214844 L 412.660156 153.140625 L 412.578125 153.074219 L 412.488281 153.015625 L 412.390625 152.964844 L 412.285156 152.917969 L 412.167969 152.875 L 412.042969 152.839844 L 411.910156 152.8125 L 411.765625 152.792969 L 411.613281 152.777344 L 411.453125 152.765625 Z M 411.507813 159.292969 L 411.679688 159.289063 L 411.84375 159.277344 L 411.996094 159.261719 L 412.144531 159.238281 L 412.28125 159.207031 L 412.414063 159.171875 L 412.535156 159.128906 L 412.648438 159.078125 L 412.753906 159.019531 L 412.851563 158.957031 L 412.941406 158.882813 L 413.019531 158.796875 L 413.089844 158.707031 L 413.152344 158.605469 L 413.203125 158.496094 L 413.246094 158.378906 L 413.277344 158.25 L 413.300781 158.113281 L 413.316406 157.96875 L 413.320313 157.816406 L 413.304688 157.519531 L 413.253906 157.253906 L 413.167969 157.019531 L 413.050781 156.816406 L 412.898438 156.644531 L 412.710938 156.503906 L 412.492188 156.394531 L 412.238281 156.316406 L 411.949219 156.269531 L 411.628906 156.253906 L 410.5 156.253906 L 410.5 159.292969 Z M 411.507813 159.292969 "/>
<path style=" stroke:none;fill-rule:evenodd;fill:rgb(0%,0%,0%);fill-opacity:1;" d="M 412.671875 173.078125 L 413.015625 173.15625 L 413.320313 173.261719 L 413.589844 173.394531 L 413.824219 173.554688 L 414.023438 173.746094 L 414.183594 173.964844 L 414.3125 174.210938 L 414.402344 174.484375 L 414.453125 174.789063 L 414.472656 175.121094 L 414.464844 175.347656 L 414.441406 175.566406 L 414.402344 175.769531 L 414.347656 175.964844 L 414.273438 176.144531 L 414.1875 176.316406 L 414.085938 176.472656 L 413.964844 176.617188 L 413.832031 176.75 L 413.679688 176.871094 L 413.515625 176.980469 L 413.339844 177.078125 L 413.152344 177.164063 L 412.949219 177.242188 L 412.738281 177.304688 L 412.515625 177.355469 L 412.277344 177.394531 L 412.03125 177.425781 L 411.769531 177.441406 L 411.496094 177.449219 L 409.382813 177.449219 L 409.382813 169.191406 L 411.171875 169.191406 L 411.453125 169.195313 L 411.71875 169.210938 L 411.96875 169.238281 L 412.210938 169.277344 L 412.4375 169.324219 L 412.648438 169.382813 L 412.847656 169.449219 L 413.035156 169.53125 L 413.207031 169.621094 L 413.367188 169.71875 L 413.515625 169.832031 L 413.644531 169.949219 L 413.761719 170.082031 L 413.859375 170.222656 L 413.945313 170.371094 L 414.015625 170.53125 L 414.066406 170.699219 L 414.105469 170.878906 L 414.128906 171.070313 L 414.136719 171.269531 L 414.132813 171.410156 L 414.121094 171.550781 L 414.101563 171.683594 L 414.070313 171.8125 L 414.035156 171.933594 L 413.988281 172.050781 L 413.9375 172.164063 L 413.875 172.269531 L 413.804688 172.371094 L 413.730469 172.46875 L 413.648438 172.554688 L 413.558594 172.636719 L 413.46875 172.714844 L 413.371094 172.785156 L 413.265625 172.847656 L 413.160156 172.90625 L 413.042969 172.960938 L 412.925781 173.003906 L 412.800781 173.046875 Z M 410.5 170.042969 L 410.5 172.707031 L 411.53125 172.707031 L 411.667969 172.703125 L 411.796875 172.695313 L 411.921875 172.675781 L 412.039063 172.652344 L 412.152344 172.621094 L 412.253906 172.582031 L 412.355469 172.539063 L 412.445313 172.484375 L 412.53125 172.425781 L 412.613281 172.359375 L 412.6875 172.285156 L 412.753906 172.203125 L 412.816406 172.117188 L 412.867188 172.027344 L 412.910156 171.929688 L 412.945313 171.828125 L 412.972656 171.71875 L 412.992188 171.605469 L 413.003906 171.488281 L 413.007813 171.363281 L 413.003906 171.226563 L 412.992188 171.101563 L 412.96875 170.980469 L 412.9375 170.867188 L 412.902344 170.765625 L 412.851563 170.667969 L 412.796875 170.578125 L 412.730469 170.496094 L 412.660156 170.421875 L 412.578125 170.355469 L 412.488281 170.296875 L 412.390625 170.242188 L 412.285156 170.195313 L 412.167969 170.15625 L 412.042969 170.121094 L 411.910156 170.09375 L 411.765625 170.070313 L 411.613281 170.054688 L 411.453125 170.046875 L 411.28125 170.042969 Z M 411.507813 176.570313 L 411.679688 176.570313 L 411.84375 176.558594 L 411.996094 176.542969 L 412.144531 176.519531 L 412.28125 176.488281 L 412.414063 176.449219 L 412.535156 176.40625 L 412.648438 176.355469 L 412.753906 176.300781 L 412.851563 176.234375 L 412.941406 176.160156 L 413.019531 176.078125 L 413.089844 175.988281 L 413.152344 175.886719 L 413.203125 175.777344 L 413.246094 175.660156 L 413.277344 175.53125 L 413.300781 175.394531 L 413.316406 175.25 L 413.320313 175.097656 L 413.304688 174.800781 L 413.253906 174.535156 L 413.167969 174.300781 L 413.050781 174.097656 L 412.898438 173.925781 L 412.710938 173.785156 L 412.492188 173.675781 L 412.238281 173.597656 L 411.949219 173.550781 L 411.628906 173.535156 L 410.5 173.535156 L 410.5 176.570313 Z M 411.507813 176.570313 "/>
<path style=" stroke:none;fill-rule:evenodd;fill:rgb(0%,0%,0%);fill-opacity:1;" d="M 415.589844 174.136719 L 415.589844 173.246094 L 418.695313 173.246094 L 418.695313 174.136719 Z M 415.589844 174.136719 "/>
<path style=" stroke:none;fill-rule:evenodd;fill:rgb(0%,0%,0%);fill-opacity:1;" d="M 412.121094 186.316406 L 412.25 186.316406 L 412.375 186.324219 L 412.496094 186.335938 L 412.613281 186.347656 L 412.726563 186.367188 L 412.945313 186.414063 L 413.050781 186.445313 L 413.152344 186.480469 L 413.25 186.519531 L 413.34375 186.558594 L 413.441406 186.605469 L 413.535156 186.65625 L 413.628906 186.710938 L 413.726563 186.769531 L 413.820313 186.832031 L 413.914063 186.898438 L 414.007813 186.972656 L 414.101563 187.050781 L 414.195313 187.132813 L 413.621094 187.804688 L 413.550781 187.746094 L 413.410156 187.636719 L 413.34375 187.589844 L 413.273438 187.542969 L 413.203125 187.5 L 413.0625 187.421875 L 412.996094 187.390625 L 412.925781 187.359375 L 412.855469 187.332031 L 412.789063 187.308594 L 412.714844 187.285156 L 412.644531 187.269531 L 412.570313 187.25 L 412.496094 187.238281 L 412.339844 187.222656 L 412.261719 187.21875 L 412.179688 187.214844 L 411.996094 187.222656 L 411.820313 187.246094 L 411.652344 187.289063 L 411.492188 187.34375 L 411.339844 187.417969 L 411.195313 187.503906 L 411.058594 187.609375 L 410.929688 187.730469 L 410.808594 187.867188 L 410.691406 188.019531 L 410.585938 188.1875 L 410.492188 188.375 L 410.410156 188.582031 L 410.339844 188.8125 L 410.277344 189.058594 L 410.230469 189.324219 L 410.191406 189.609375 L 410.164063 189.917969 L 410.144531 190.242188 L 410.140625 190.585938 L 410.144531 190.925781 L 410.164063 191.242188 L 410.191406 191.542969 L 410.230469 191.824219 L 410.277344 192.089844 L 410.339844 192.335938 L 410.410156 192.566406 L 410.492188 192.777344 L 410.585938 192.96875 L 410.691406 193.144531 L 410.808594 193.296875 L 410.929688 193.4375 L 411.058594 193.558594 L 411.195313 193.664063 L 411.339844 193.753906 L 411.492188 193.828125 L 411.652344 193.886719 L 411.820313 193.925781 L 411.996094 193.953125 L 412.179688 193.960938 L 412.273438 193.957031 L 412.363281 193.953125 L 412.449219 193.945313 L 412.535156 193.933594 L 412.617188 193.917969 L 412.695313 193.898438 L 412.769531 193.878906 L 412.917969 193.824219 L 412.984375 193.792969 L 413.050781 193.757813 L 413.121094 193.71875 L 413.261719 193.632813 L 413.335938 193.585938 L 413.410156 193.535156 L 413.484375 193.480469 L 413.5625 193.421875 L 413.636719 193.363281 L 413.714844 193.300781 L 414.28125 193.960938 L 414.097656 194.136719 L 413.90625 194.292969 L 413.707031 194.429688 L 413.503906 194.550781 L 413.289063 194.652344 L 413.070313 194.734375 L 412.84375 194.800781 L 412.609375 194.847656 L 412.367188 194.875 L 412.121094 194.882813 L 411.9375 194.878906 L 411.757813 194.863281 L 411.585938 194.839844 L 411.414063 194.808594 L 411.246094 194.765625 L 411.085938 194.710938 L 410.925781 194.648438 L 410.773438 194.578125 L 410.621094 194.496094 L 410.476563 194.402344 L 410.339844 194.304688 L 410.207031 194.191406 L 410.078125 194.074219 L 409.957031 193.941406 L 409.84375 193.804688 L 409.734375 193.65625 L 409.632813 193.496094 L 409.535156 193.328125 L 409.445313 193.152344 L 409.359375 192.964844 L 409.285156 192.765625 L 409.21875 192.558594 L 409.160156 192.339844 L 409.105469 192.117188 L 409.0625 191.882813 L 409.027344 191.640625 L 409 191.390625 L 408.980469 191.132813 L 408.96875 190.863281 L 408.964844 190.585938 L 408.96875 190.3125 L 408.980469 190.046875 L 409 189.792969 L 409.03125 189.542969 L 409.066406 189.304688 L 409.113281 189.074219 L 409.164063 188.851563 L 409.226563 188.636719 L 409.296875 188.433594 L 409.371094 188.234375 L 409.460938 188.046875 L 409.550781 187.871094 L 409.652344 187.703125 L 409.753906 187.542969 L 409.863281 187.394531 L 409.980469 187.257813 L 410.101563 187.125 L 410.230469 187.007813 L 410.363281 186.898438 L 410.5 186.796875 L 410.644531 186.703125 L 410.796875 186.621094 L 410.949219 186.550781 L 411.105469 186.488281 L 411.265625 186.4375 L 411.429688 186.390625 L 411.597656 186.359375 L 411.769531 186.335938 L 411.941406 186.320313 Z M 412.121094 186.316406 "/>
<path style=" stroke:none;fill-rule:evenodd;fill:rgb(0%,0%,0%);fill-opacity:1;" d="M 417.664063 188.511719 L 417.664063 190.3125 L 419.296875 190.3125 L 419.296875 191.199219 L 417.664063 191.199219 L 417.664063 192.988281 L 416.742188 192.988281 L 416.742188 191.199219 L 415.109375 191.199219 L 415.109375 190.3125 L 416.742188 190.3125 L 416.742188 188.511719 Z M 417.664063 188.511719 "/>
<path style=" stroke:none;fill-rule:evenodd;fill:rgb(0%,0%,0%);fill-opacity:1;" d="M 412.121094 203.597656 L 412.25 203.597656 L 412.375 203.605469 L 412.496094 203.613281 L 412.613281 203.628906 L 412.726563 203.648438 L 412.835938 203.667969 L 412.945313 203.695313 L 413.050781 203.726563 L 413.152344 203.761719 L 413.25 203.800781 L 413.34375 203.839844 L 413.441406 203.886719 L 413.535156 203.933594 L 413.628906 203.988281 L 413.726563 204.046875 L 413.914063 204.179688 L 414.101563 204.328125 L 414.195313 204.410156 L 413.621094 205.082031 L 413.550781 205.023438 L 413.480469 204.96875 L 413.410156 204.917969 L 413.34375 204.867188 L 413.132813 204.738281 L 413.0625 204.703125 L 412.996094 204.671875 L 412.925781 204.640625 L 412.855469 204.613281 L 412.789063 204.589844 L 412.714844 204.566406 L 412.644531 204.546875 L 412.570313 204.53125 L 412.496094 204.519531 L 412.417969 204.507813 L 412.339844 204.5 L 412.261719 204.496094 L 412.179688 204.496094 L 411.996094 204.503906 L 411.820313 204.527344 L 411.652344 204.566406 L 411.492188 204.625 L 411.339844 204.695313 L 411.195313 204.785156 L 411.058594 204.890625 L 410.929688 205.011719 L 410.808594 205.148438 L 410.691406 205.300781 L 410.585938 205.46875 L 410.492188 205.65625 L 410.410156 205.863281 L 410.339844 206.089844 L 410.277344 206.335938 L 410.230469 206.605469 L 410.191406 206.890625 L 410.164063 207.195313 L 410.144531 207.523438 L 410.140625 207.867188 L 410.144531 208.203125 L 410.164063 208.523438 L 410.191406 208.824219 L 410.230469 209.105469 L 410.277344 209.371094 L 410.339844 209.617188 L 410.410156 209.847656 L 410.492188 210.054688 L 410.585938 210.25 L 410.691406 210.421875 L 410.808594 210.578125 L 410.929688 210.71875 L 411.058594 210.839844 L 411.195313 210.945313 L 411.339844 211.035156 L 411.492188 211.109375 L 411.652344 211.167969 L 411.820313 211.207031 L 411.996094 211.230469 L 412.179688 211.238281 L 412.273438 211.238281 L 412.363281 211.234375 L 412.449219 211.226563 L 412.535156 211.210938 L 412.617188 211.199219 L 412.695313 211.179688 L 412.84375 211.132813 L 412.917969 211.105469 L 413.050781 211.035156 L 413.121094 211 L 413.261719 210.914063 L 413.484375 210.761719 L 413.5625 210.703125 L 413.636719 210.644531 L 413.714844 210.578125 L 414.28125 211.238281 L 414.097656 211.414063 L 413.90625 211.574219 L 413.707031 211.710938 L 413.503906 211.832031 L 413.289063 211.933594 L 413.070313 212.015625 L 412.84375 212.082031 L 412.609375 212.125 L 412.367188 212.15625 L 412.121094 212.164063 L 411.9375 212.160156 L 411.757813 212.144531 L 411.585938 212.121094 L 411.414063 212.085938 L 411.246094 212.042969 L 411.085938 211.992188 L 410.925781 211.929688 L 410.773438 211.855469 L 410.621094 211.773438 L 410.476563 211.683594 L 410.339844 211.582031 L 410.207031 211.472656 L 410.078125 211.351563 L 409.957031 211.222656 L 409.84375 211.082031 L 409.734375 210.933594 L 409.632813 210.777344 L 409.535156 210.609375 L 409.445313 210.429688 L 409.359375 210.242188 L 409.285156 210.046875 L 409.21875 209.835938 L 409.160156 209.621094 L 409.105469 209.398438 L 409.0625 209.164063 L 409.027344 208.921875 L 409 208.671875 L 408.980469 208.410156 L 408.96875 208.144531 L 408.964844 207.867188 L 408.96875 207.59375 L 408.980469 207.328125 L 409 207.070313 L 409.03125 206.824219 L 409.066406 206.582031 L 409.113281 206.351563 L 409.164063 206.128906 L 409.226563 205.917969 L 409.296875 205.710938 L 409.371094 205.515625 L 409.460938 205.328125 L 409.550781 205.152344 L 409.652344 204.984375 L 409.753906 204.824219 L 409.863281 204.675781 L 409.980469 204.535156 L 410.101563 204.40625 L 410.230469 204.285156 L 410.363281 204.175781 L 410.5 204.074219 L 410.644531 203.984375 L 410.796875 203.902344 L 410.949219 203.832031 L 411.105469 203.769531 L 411.265625 203.714844 L 411.429688 203.671875 L 411.597656 203.640625 L 411.769531 203.613281 L 411.941406 203.601563 Z M 412.121094 203.597656 "/>
<path style=" stroke:none;fill-rule:evenodd;fill:rgb(0%,0%,0%);fill-opacity:1;" d="M 412.121094 220.875 L 412.25 220.878906 L 412.375 220.882813 L 412.496094 220.894531 L 412.613281 220.910156 L 412.726563 220.925781 L 412.835938 220.949219 L 412.945313 220.976563 L 413.050781 221.007813 L 413.152344 221.039063 L 413.25 221.078125 L 413.34375 221.121094 L 413.441406 221.164063 L 413.535156 221.214844 L 413.628906 221.269531 L 413.726563 221.328125 L 413.820313 221.390625 L 414.007813 221.53125 L 414.101563 221.609375 L 414.195313 221.691406 L 413.621094 222.363281 L 413.550781 222.304688 L 413.480469 222.25 L 413.410156 222.199219 L 413.34375 222.148438 L 413.273438 222.101563 L 413.203125 222.058594 L 413.132813 222.019531 L 413.0625 221.984375 L 412.996094 221.949219 L 412.925781 221.917969 L 412.855469 221.890625 L 412.789063 221.867188 L 412.714844 221.847656 L 412.644531 221.828125 L 412.496094 221.796875 L 412.339844 221.78125 L 412.261719 221.777344 L 412.179688 221.777344 L 411.996094 221.785156 L 411.820313 221.808594 L 411.652344 221.847656 L 411.492188 221.90625 L 411.339844 221.976563 L 411.195313 222.066406 L 411.058594 222.167969 L 410.929688 222.289063 L 410.808594 222.425781 L 410.691406 222.578125 L 410.585938 222.746094 L 410.492188 222.9375 L 410.410156 223.144531 L 410.339844 223.371094 L 410.277344 223.617188 L 410.230469 223.882813 L 410.191406 224.171875 L 410.164063 224.476563 L 410.144531 224.800781 L 410.140625 225.148438 L 410.144531 225.484375 L 410.164063 225.804688 L 410.191406 226.105469 L 410.230469 226.386719 L 410.277344 226.652344 L 410.339844 226.898438 L 410.410156 227.125 L 410.492188 227.335938 L 410.585938 227.527344 L 410.691406 227.703125 L 410.808594 227.859375 L 410.929688 227.996094 L 411.058594 228.121094 L 411.195313 228.226563 L 411.339844 228.316406 L 411.492188 228.390625 L 411.652344 228.445313 L 411.820313 228.488281 L 411.996094 228.511719 L 412.179688 228.519531 L 412.273438 228.519531 L 412.363281 228.511719 L 412.449219 228.503906 L 412.535156 228.492188 L 412.617188 228.476563 L 412.695313 228.460938 L 412.84375 228.414063 L 412.917969 228.382813 L 412.984375 228.351563 L 413.050781 228.316406 L 413.191406 228.238281 L 413.261719 228.191406 L 413.335938 228.144531 L 413.410156 228.09375 L 413.484375 228.039063 L 413.5625 227.984375 L 413.636719 227.921875 L 413.714844 227.859375 L 414.28125 228.519531 L 414.097656 228.695313 L 413.90625 228.851563 L 413.707031 228.992188 L 413.503906 229.109375 L 413.289063 229.210938 L 413.070313 229.296875 L 412.84375 229.359375 L 412.609375 229.40625 L 412.367188 229.433594 L 412.121094 229.445313 L 411.9375 229.4375 L 411.757813 229.425781 L 411.585938 229.402344 L 411.414063 229.367188 L 411.246094 229.324219 L 411.085938 229.269531 L 410.925781 229.207031 L 410.773438 229.136719 L 410.621094 229.054688 L 410.476563 228.964844 L 410.339844 228.863281 L 410.207031 228.753906 L 410.078125 228.632813 L 409.957031 228.503906 L 409.84375 228.363281 L 409.734375 228.214844 L 409.632813 228.054688 L 409.535156 227.886719 L 409.445313 227.710938 L 409.359375 227.523438 L 409.285156 227.324219 L 409.21875 227.117188 L 409.160156 226.902344 L 409.105469 226.675781 L 409.0625 226.445313 L 409.027344 226.203125 L 409 225.953125 L 408.980469 225.691406 L 408.96875 225.425781 L 408.964844 225.148438 L 408.96875 224.875 L 408.980469 224.609375 L 409 224.351563 L 409.03125 224.101563 L 409.066406 223.863281 L 409.113281 223.632813 L 409.164063 223.410156 L 409.226563 223.195313 L 409.296875 222.992188 L 409.371094 222.796875 L 409.460938 222.609375 L 409.550781 222.429688 L 409.652344 222.261719 L 409.753906 222.105469 L 409.863281 221.957031 L 409.980469 221.816406 L 410.101563 221.6875 L 410.230469 221.566406 L 410.363281 221.457031 L 410.5 221.355469 L 410.644531 221.265625 L 410.796875 221.183594 L 410.949219 221.109375 L 411.105469 221.046875 L 411.265625 220.996094 L 411.429688 220.953125 L 411.597656 220.917969 L 411.769531 220.894531 L 411.941406 220.878906 Z M 412.121094 220.875 "/>
<path style=" stroke:none;fill-rule:evenodd;fill:rgb(0%,0%,0%);fill-opacity:1;" d="M 415.121094 225.976563 L 415.121094 225.085938 L 418.230469 225.085938 L 418.230469 225.976563 Z M 415.121094 225.976563 "/>
<path style=" stroke:none;fill-rule:evenodd;fill:rgb(0%,0%,0%);fill-opacity:1;" d="M 411.089844 238.3125 L 411.300781 238.316406 L 411.503906 238.324219 L 411.703125 238.339844 L 411.898438 238.363281 L 412.085938 238.394531 L 412.269531 238.429688 L 412.449219 238.46875 L 412.621094 238.519531 L 412.789063 238.574219 L 412.949219 238.636719 L 413.105469 238.707031 L 413.253906 238.789063 L 413.398438 238.882813 L 413.535156 238.988281 L 413.664063 239.105469 L 413.789063 239.230469 L 413.910156 239.371094 L 414.023438 239.523438 L 414.132813 239.683594 L 414.234375 239.859375 L 414.328125 240.046875 L 414.414063 240.25 L 414.488281 240.464844 L 414.554688 240.695313 L 414.609375 240.941406 L 414.65625 241.203125 L 414.691406 241.476563 L 414.714844 241.769531 L 414.730469 242.074219 L 414.738281 242.390625 L 414.726563 242.84375 L 414.695313 243.265625 L 414.648438 243.664063 L 414.578125 244.03125 L 414.488281 244.367188 L 414.378906 244.679688 L 414.25 244.964844 L 414.097656 245.21875 L 413.929688 245.445313 L 413.742188 245.644531 L 413.539063 245.820313 L 413.324219 245.976563 L 413.101563 246.113281 L 412.867188 246.234375 L 412.625 246.335938 L 412.371094 246.417969 L 412.105469 246.484375 L 411.828125 246.53125 L 411.542969 246.558594 L 411.246094 246.566406 L 409.382813 246.566406 L 409.382813 238.3125 Z M 410.5 239.1875 L 410.5 245.703125 L 411.316406 245.703125 L 411.519531 245.695313 L 411.710938 245.675781 L 411.898438 245.640625 L 412.074219 245.589844 L 412.242188 245.527344 L 412.402344 245.449219 L 412.554688 245.355469 L 412.699219 245.25 L 412.832031 245.128906 L 412.960938 244.996094 L 413.078125 244.839844 L 413.179688 244.660156 L 413.273438 244.460938 L 413.351563 244.234375 L 413.417969 243.984375 L 413.476563 243.710938 L 413.515625 243.417969 L 413.546875 243.097656 L 413.566406 242.757813 L 413.574219 242.390625 L 413.570313 242.132813 L 413.558594 241.886719 L 413.542969 241.65625 L 413.519531 241.433594 L 413.492188 241.226563 L 413.457031 241.027344 L 413.414063 240.84375 L 413.363281 240.671875 L 413.308594 240.511719 L 413.25 240.363281 L 413.183594 240.226563 L 413.117188 240.101563 L 413.042969 239.980469 L 412.96875 239.875 L 412.886719 239.777344 L 412.804688 239.6875 L 412.71875 239.609375 L 412.625 239.539063 L 412.53125 239.476563 L 412.433594 239.429688 L 412.332031 239.382813 L 412.226563 239.339844 L 412.121094 239.304688 L 412.007813 239.273438 L 411.890625 239.246094 L 411.773438 239.226563 L 411.648438 239.210938 L 411.523438 239.199219 L 411.390625 239.191406 L 411.257813 239.1875 Z M 410.5 239.1875 "/>
<path style=" stroke:none;fill-rule:evenodd;fill:rgb(0%,0%,0%);fill-opacity:1;" d="M 409.382813 263.847656 L 409.382813 255.589844 L 413.390625 255.589844 L 413.273438 256.457031 L 410.5 256.457031 L 410.5 259.335938 L 412.902344 259.335938 L 412.902344 260.199219 L 410.5 260.199219 L 410.5 263.847656 Z M 409.382813 263.847656 "/>
</g>
</svg>
