<?xml version="1.0" encoding="UTF-8"?>
<svg xmlns="http://www.w3.org/2000/svg" xmlns:xlink="http://www.w3.org/1999/xlink" width="540pt" height="360pt" viewBox="0 0 540 360" version="1.1">
<g id="surface34">
<rect x="0" y="0" width="540" height="360" style="fill:rgb(100%,100%,100%);fill-opacity:1;stroke:none;"/>
<path style="fill-rule:nonzero;fill:rgb(100%,100%,100%);fill-opacity:1;stroke-width:3.200935;stroke-linecap:square;stroke-linejoin:miter;stroke:rgb(74.901961%,22.352941%,51.764706%);stroke-opacity:1;stroke-miterlimit:10;" d="M 100.695313 271.382813 L 110.480469 271.382813 L 110.480469 270.035156 L 100.695313 270.035156 Z M 100.695313 271.382813 "/>
<path style="fill:none;stroke-width:3.200935;stroke-linecap:square;stroke-linejoin:miter;stroke:rgb(74.901961%,22.352941%,51.764706%);stroke-opacity:1;stroke-miterlimit:10;" d="M 110.480469 271.382813 L 120.265625 271.382813 Z M 110.480469 271.382813 "/>
<path style="fill:none;stroke-width:3.200935;stroke-linecap:square;stroke-linejoin:miter;stroke:rgb(74.901961%,22.352941%,51.764706%);stroke-opacity:1;stroke-miterlimit:10;" d="M 120.265625 271.382813 L 130.050781 271.382813 Z M 120.265625 271.382813 "/>
<path style="fill-rule:nonzero;fill:rgb(100%,100%,100%);fill-opacity:1;stroke-width:3.200935;stroke-linecap:square;stroke-linejoin:miter;stroke:rgb(74.901961%,22.352941%,51.764706%);stroke-opacity:1;stroke-miterlimit:10;" d="M 130.050781 271.382813 L 139.835938 271.382813 L 139.835938 270.035156 L 130.050781 270.035156 Z M 130.050781 271.382813 "/>
<path style="fill-rule:nonzero;fill:rgb(100%,100%,100%);fill-opacity:1;stroke-width:3.200935;stroke-linecap:square;stroke-linejoin:miter;stroke:rgb(74.901961%,22.352941%,51.764706%);stroke-opacity:1;stroke-miterlimit:10;" d="M 139.835938 271.382813 L 149.621094 271.382813 L 149.621094 270.035156 L 139.835938 270.035156 Z M 139.835938 271.382813 "/>
<path style="fill-rule:nonzero;fill:rgb(100%,100%,100%);fill-opacity:1;stroke-width:3.200935;stroke-linecap:square;stroke-linejoin:miter;stroke:rgb(74.901961%,22.352941%,51.764706%);stroke-opacity:1;stroke-miterlimit:10;" d="M 149.621094 271.382813 L 159.40625 271.382813 L 159.40625 267.34375 L 149.621094 267.34375 Z M 149.621094 271.382813 "/>
<path style="fill-rule:nonzero;fill:rgb(100%,100%,100%);fill-opacity:1;stroke-width:3.200935;stroke-linecap:square;stroke-linejoin:miter;stroke:rgb(74.901961%,22.352941%,51.764706%);stroke-opacity:1;stroke-miterlimit:10;" d="M 159.402344 271.382813 L 169.1875 271.382813 L 169.1875 268.691406 L 159.402344 268.691406 Z M 159.402344 271.382813 "/>
<path style="fill-rule:nonzero;fill:rgb(100%,100%,100%);fill-opacity:1;stroke-width:3.200935;stroke-linecap:square;stroke-linejoin:miter;stroke:rgb(74.901961%,22.352941%,51.764706%);stroke-opacity:1;stroke-miterlimit:10;" d="M 169.1875 271.382813 L 178.972656 271.382813 L 178.972656 259.269531 L 169.1875 259.269531 Z M 169.1875 271.382813 "/>
<path style="fill-rule:nonzero;fill:rgb(100%,100%,100%);fill-opacity:1;stroke-width:3.200935;stroke-linecap:square;stroke-linejoin:miter;stroke:rgb(74.901961%,22.352941%,51.764706%);stroke-opacity:1;stroke-miterlimit:10;" d="M 178.972656 271.382813 L 188.757813 271.382813 L 188.757813 263.308594 L 178.972656 263.308594 Z M 178.972656 271.382813 "/>
<path style="fill-rule:nonzero;fill:rgb(100%,100%,100%);fill-opacity:1;stroke-width:3.200935;stroke-linecap:square;stroke-linejoin:miter;stroke:rgb(74.901961%,22.352941%,51.764706%);stroke-opacity:1;stroke-miterlimit:10;" d="M 188.757813 271.382813 L 198.542969 271.382813 L 198.542969 259.269531 L 188.757813 259.269531 Z M 188.757813 271.382813 "/>
<path style="fill-rule:nonzero;fill:rgb(100%,100%,100%);fill-opacity:1;stroke-width:3.200935;stroke-linecap:square;stroke-linejoin:miter;stroke:rgb(74.901961%,22.352941%,51.764706%);stroke-opacity:1;stroke-miterlimit:10;" d="M 198.542969 271.382813 L 208.328125 271.382813 L 208.328125 245.8125 L 198.542969 245.8125 Z M 198.542969 271.382813 "/>
<path style="fill-rule:nonzero;fill:rgb(100%,100%,100%);fill-opacity:1;stroke-width:3.200935;stroke-linecap:square;stroke-linejoin:miter;stroke:rgb(74.901961%,22.352941%,51.764706%);stroke-opacity:1;stroke-miterlimit:10;" d="M 208.328125 271.382813 L 218.113281 271.382813 L 218.113281 226.972656 L 208.328125 226.972656 Z M 208.328125 271.382813 "/>
<path style="fill-rule:nonzero;fill:rgb(100%,100%,100%);fill-opacity:1;stroke-width:3.200935;stroke-linecap:square;stroke-linejoin:miter;stroke:rgb(74.901961%,22.352941%,51.764706%);stroke-opacity:1;stroke-miterlimit:10;" d="M 218.113281 271.382813 L 227.898438 271.382813 L 227.898438 222.9375 L 218.113281 222.9375 Z M 218.113281 271.382813 "/>
<path style="fill-rule:nonzero;fill:rgb(100%,100%,100%);fill-opacity:1;stroke-width:3.200935;stroke-linecap:square;stroke-linejoin:miter;stroke:rgb(74.901961%,22.352941%,51.764706%);stroke-opacity:1;stroke-miterlimit:10;" d="M 227.898438 271.382813 L 237.683594 271.382813 L 237.683594 191.984375 L 227.898438 191.984375 Z M 227.898438 271.382813 "/>
<path style="fill-rule:nonzero;fill:rgb(100%,100%,100%);fill-opacity:1;stroke-width:3.200935;stroke-linecap:square;stroke-linejoin:miter;stroke:rgb(74.901961%,22.352941%,51.764706%);stroke-opacity:1;stroke-miterlimit:10;" d="M 237.679688 271.382813 L 247.464844 271.382813 L 247.464844 144.886719 L 237.679688 144.886719 Z M 237.679688 271.382813 "/>
<path style="fill-rule:nonzero;fill:rgb(100%,100%,100%);fill-opacity:1;stroke-width:3.200935;stroke-linecap:square;stroke-linejoin:miter;stroke:rgb(74.901961%,22.352941%,51.764706%);stroke-opacity:1;stroke-miterlimit:10;" d="M 247.464844 271.382813 L 257.25 271.382813 L 257.25 177.183594 L 247.464844 177.183594 Z M 247.464844 271.382813 "/>
<path style="fill-rule:nonzero;fill:rgb(100%,100%,100%);fill-opacity:1;stroke-width:3.200935;stroke-linecap:square;stroke-linejoin:miter;stroke:rgb(74.901961%,22.352941%,51.764706%);stroke-opacity:1;stroke-miterlimit:10;" d="M 257.25 271.382813 L 267.035156 271.382813 L 267.035156 120.664063 L 257.25 120.664063 Z M 257.25 271.382813 "/>
<path style="fill-rule:nonzero;fill:rgb(100%,100%,100%);fill-opacity:1;stroke-width:3.200935;stroke-linecap:square;stroke-linejoin:miter;stroke:rgb(74.901961%,22.352941%,51.764706%);stroke-opacity:1;stroke-miterlimit:10;" d="M 267.035156 271.382813 L 276.820313 271.382813 L 276.820313 88.367188 L 267.035156 88.367188 Z M 267.035156 271.382813 "/>
<path style="fill-rule:nonzero;fill:rgb(100%,100%,100%);fill-opacity:1;stroke-width:3.200935;stroke-linecap:square;stroke-linejoin:miter;stroke:rgb(74.901961%,22.352941%,51.764706%);stroke-opacity:1;stroke-miterlimit:10;" d="M 276.820313 271.382813 L 286.605469 271.382813 L 286.605469 119.316406 L 276.820313 119.316406 Z M 276.820313 271.382813 "/>
<path style="fill-rule:nonzero;fill:rgb(100%,100%,100%);fill-opacity:1;stroke-width:3.200935;stroke-linecap:square;stroke-linejoin:miter;stroke:rgb(74.901961%,22.352941%,51.764706%);stroke-opacity:1;stroke-miterlimit:10;" d="M 286.605469 271.382813 L 296.390625 271.382813 L 296.390625 89.710938 L 286.605469 89.710938 Z M 286.605469 271.382813 "/>
<path style="fill-rule:nonzero;fill:rgb(100%,100%,100%);fill-opacity:1;stroke-width:3.200935;stroke-linecap:square;stroke-linejoin:miter;stroke:rgb(74.901961%,22.352941%,51.764706%);stroke-opacity:1;stroke-miterlimit:10;" d="M 296.390625 271.382813 L 306.175781 271.382813 L 306.175781 39.917969 L 296.390625 39.917969 Z M 296.390625 271.382813 "/>
<path style="fill-rule:nonzero;fill:rgb(100%,100%,100%);fill-opacity:1;stroke-width:3.200935;stroke-linecap:square;stroke-linejoin:miter;stroke:rgb(74.901961%,22.352941%,51.764706%);stroke-opacity:1;stroke-miterlimit:10;" d="M 306.175781 271.382813 L 315.960938 271.382813 L 315.960938 95.09375 L 306.175781 95.09375 Z M 306.175781 271.382813 "/>
<path style="fill-rule:nonzero;fill:rgb(100%,100%,100%);fill-opacity:1;stroke-width:3.200935;stroke-linecap:square;stroke-linejoin:miter;stroke:rgb(74.901961%,22.352941%,51.764706%);stroke-opacity:1;stroke-miterlimit:10;" d="M 315.960938 271.382813 L 325.746094 271.382813 L 325.746094 97.785156 L 315.960938 97.785156 Z M 315.960938 271.382813 "/>
<path style="fill-rule:nonzero;fill:rgb(100%,100%,100%);fill-opacity:1;stroke-width:3.200935;stroke-linecap:square;stroke-linejoin:miter;stroke:rgb(74.901961%,22.352941%,51.764706%);stroke-opacity:1;stroke-miterlimit:10;" d="M 325.742188 271.382813 L 335.527344 271.382813 L 335.527344 140.847656 L 325.742188 140.847656 Z M 325.742188 271.382813 "/>
<path style="fill-rule:nonzero;fill:rgb(100%,100%,100%);fill-opacity:1;stroke-width:3.200935;stroke-linecap:square;stroke-linejoin:miter;stroke:rgb(74.901961%,22.352941%,51.764706%);stroke-opacity:1;stroke-miterlimit:10;" d="M 335.527344 271.382813 L 345.3125 271.382813 L 345.3125 99.132813 L 335.527344 99.132813 Z M 335.527344 271.382813 "/>
<path style="fill-rule:nonzero;fill:rgb(100%,100%,100%);fill-opacity:1;stroke-width:3.200935;stroke-linecap:square;stroke-linejoin:miter;stroke:rgb(74.901961%,22.352941%,51.764706%);stroke-opacity:1;stroke-miterlimit:10;" d="M 345.3125 271.382813 L 355.097656 271.382813 L 355.097656 74.910156 L 345.3125 74.910156 Z M 345.3125 271.382813 "/>
<path style="fill-rule:nonzero;fill:rgb(100%,100%,100%);fill-opacity:1;stroke-width:3.200935;stroke-linecap:square;stroke-linejoin:miter;stroke:rgb(74.901961%,22.352941%,51.764706%);stroke-opacity:1;stroke-miterlimit:10;" d="M 355.097656 271.382813 L 364.882813 271.382813 L 364.882813 144.886719 L 355.097656 144.886719 Z M 355.097656 271.382813 "/>
<path style="fill-rule:nonzero;fill:rgb(100%,100%,100%);fill-opacity:1;stroke-width:3.200935;stroke-linecap:square;stroke-linejoin:miter;stroke:rgb(74.901961%,22.352941%,51.764706%);stroke-opacity:1;stroke-miterlimit:10;" d="M 364.882813 271.382813 L 374.667969 271.382813 L 374.667969 158.34375 L 364.882813 158.34375 Z M 364.882813 271.382813 "/>
<path style="fill-rule:nonzero;fill:rgb(100%,100%,100%);fill-opacity:1;stroke-width:3.200935;stroke-linecap:square;stroke-linejoin:miter;stroke:rgb(74.901961%,22.352941%,51.764706%);stroke-opacity:1;stroke-miterlimit:10;" d="M 374.667969 271.382813 L 384.453125 271.382813 L 384.453125 185.257813 L 374.667969 185.257813 Z M 374.667969 271.382813 "/>
<path style="fill-rule:nonzero;fill:rgb(100%,100%,100%);fill-opacity:1;stroke-width:3.200935;stroke-linecap:square;stroke-linejoin:miter;stroke:rgb(74.901961%,22.352941%,51.764706%);stroke-opacity:1;stroke-miterlimit:10;" d="M 384.453125 271.382813 L 394.238281 271.382813 L 394.238281 210.824219 L 384.453125 210.824219 Z M 384.453125 271.382813 "/>
<path style="fill-rule:nonzero;fill:rgb(100%,100%,100%);fill-opacity:1;stroke-width:3.200935;stroke-linecap:square;stroke-linejoin:miter;stroke:rgb(74.901961%,22.352941%,51.764706%);stroke-opacity:1;stroke-miterlimit:10;" d="M 394.238281 271.382813 L 404.023438 271.382813 L 404.023438 213.515625 L 394.238281 213.515625 Z M 394.238281 271.382813 "/>
<path style="fill-rule:nonzero;fill:rgb(100%,100%,100%);fill-opacity:1;stroke-width:3.200935;stroke-linecap:square;stroke-linejoin:miter;stroke:rgb(74.901961%,22.352941%,51.764706%);stroke-opacity:1;stroke-miterlimit:10;" d="M 404.023438 271.382813 L 413.808594 271.382813 L 413.808594 236.394531 L 404.023438 236.394531 Z M 404.023438 271.382813 "/>
<path style="fill-rule:nonzero;fill:rgb(100%,100%,100%);fill-opacity:1;stroke-width:3.200935;stroke-linecap:square;stroke-linejoin:miter;stroke:rgb(74.901961%,22.352941%,51.764706%);stroke-opacity:1;stroke-miterlimit:10;" d="M 413.804688 271.382813 L 423.589844 271.382813 L 423.589844 228.320313 L 413.804688 228.320313 Z M 413.804688 271.382813 "/>
<path style="fill-rule:nonzero;fill:rgb(100%,100%,100%);fill-opacity:1;stroke-width:3.200935;stroke-linecap:square;stroke-linejoin:miter;stroke:rgb(74.901961%,22.352941%,51.764706%);stroke-opacity:1;stroke-miterlimit:10;" d="M 423.589844 271.382813 L 433.375 271.382813 L 433.375 255.234375 L 423.589844 255.234375 Z M 423.589844 271.382813 "/>
<path style="fill-rule:nonzero;fill:rgb(100%,100%,100%);fill-opacity:1;stroke-width:3.200935;stroke-linecap:square;stroke-linejoin:miter;stroke:rgb(74.901961%,22.352941%,51.764706%);stroke-opacity:1;stroke-miterlimit:10;" d="M 433.375 271.382813 L 443.160156 271.382813 L 443.160156 256.578125 L 433.375 256.578125 Z M 433.375 271.382813 "/>
<path style="fill-rule:nonzero;fill:rgb(100%,100%,100%);fill-opacity:1;stroke-width:3.200935;stroke-linecap:square;stroke-linejoin:miter;stroke:rgb(74.901961%,22.352941%,51.764706%);stroke-opacity:1;stroke-miterlimit:10;" d="M 443.160156 271.382813 L 452.945313 271.382813 L 452.945313 256.578125 L 443.160156 256.578125 Z M 443.160156 271.382813 "/>
<path style="fill-rule:nonzero;fill:rgb(100%,100%,100%);fill-opacity:1;stroke-width:3.200935;stroke-linecap:square;stroke-linejoin:miter;stroke:rgb(74.901961%,22.352941%,51.764706%);stroke-opacity:1;stroke-miterlimit:10;" d="M 452.945313 271.382813 L 462.730469 271.382813 L 462.730469 257.925781 L 452.945313 257.925781 Z M 452.945313 271.382813 "/>
<path style="fill-rule:nonzero;fill:rgb(100%,100%,100%);fill-opacity:1;stroke-width:3.200935;stroke-linecap:square;stroke-linejoin:miter;stroke:rgb(74.901961%,22.352941%,51.764706%);stroke-opacity:1;stroke-miterlimit:10;" d="M 462.730469 271.382813 L 472.515625 271.382813 L 472.515625 261.960938 L 462.730469 261.960938 Z M 462.730469 271.382813 "/>
<path style="fill-rule:nonzero;fill:rgb(100%,100%,100%);fill-opacity:1;stroke-width:3.200935;stroke-linecap:square;stroke-linejoin:miter;stroke:rgb(74.901961%,22.352941%,51.764706%);stroke-opacity:1;stroke-miterlimit:10;" d="M 472.515625 271.382813 L 482.300781 271.382813 L 482.300781 266 L 472.515625 266 Z M 472.515625 271.382813 "/>
<path style="fill-rule:nonzero;fill:rgb(100%,100%,100%);fill-opacity:1;stroke-width:3.200935;stroke-linecap:square;stroke-linejoin:miter;stroke:rgb(74.901961%,22.352941%,51.764706%);stroke-opacity:1;stroke-miterlimit:10;" d="M 482.300781 271.382813 L 492.085938 271.382813 L 492.085938 264.652344 L 482.300781 264.652344 Z M 482.300781 271.382813 "/>
<path style="fill:none;stroke-width:1.115477;stroke-linecap:butt;stroke-linejoin:round;stroke:rgb(66.27451%,66.27451%,66.27451%);stroke-opacity:1;stroke-miterlimit:10;" d="M 81.125 282.957031 L 81.125 28.347656 "/>
<path style=" stroke:none;fill-rule:nonzero;fill:rgb(30.196078%,30.196078%,30.196078%);fill-opacity:1;" d="M 74.0625 266.40625 L 74.363281 266.417969 L 74.648438 266.457031 L 74.917969 266.523438 L 75.175781 266.613281 L 75.417969 266.726563 L 75.644531 266.871094 L 75.855469 267.035156 L 76.050781 267.230469 L 76.234375 267.449219 L 76.398438 267.695313 L 76.554688 267.960938 L 76.691406 268.25 L 76.8125 268.558594 L 76.917969 268.894531 L 77.007813 269.25 L 77.082031 269.628906 L 77.140625 270.03125 L 77.179688 270.457031 L 77.203125 270.90625 L 77.210938 271.375 L 77.203125 271.847656 L 77.179688 272.300781 L 77.140625 272.726563 L 77.082031 273.132813 L 77.007813 273.515625 L 76.917969 273.875 L 76.8125 274.210938 L 76.691406 274.523438 L 76.554688 274.816406 L 76.398438 275.085938 L 76.234375 275.328125 L 76.050781 275.542969 L 75.855469 275.734375 L 75.644531 275.902344 L 75.417969 276.042969 L 75.175781 276.15625 L 74.917969 276.246094 L 74.648438 276.308594 L 74.363281 276.347656 L 74.0625 276.359375 L 73.761719 276.347656 L 73.476563 276.308594 L 73.203125 276.246094 L 72.945313 276.15625 L 72.703125 276.042969 L 72.476563 275.902344 L 72.261719 275.734375 L 72.0625 275.542969 L 71.878906 275.328125 L 71.710938 275.085938 L 71.558594 274.816406 L 71.421875 274.523438 L 71.304688 274.210938 L 71.199219 273.875 L 71.113281 273.515625 L 71.039063 273.132813 L 70.984375 272.726563 L 70.945313 272.300781 L 70.921875 271.847656 L 70.910156 271.375 L 70.921875 270.90625 L 70.945313 270.457031 L 70.984375 270.03125 L 71.039063 269.628906 L 71.113281 269.25 L 71.199219 268.894531 L 71.304688 268.558594 L 71.421875 268.25 L 71.558594 267.960938 L 71.710938 267.695313 L 71.878906 267.449219 L 72.0625 267.230469 L 72.261719 267.035156 L 72.476563 266.871094 L 72.703125 266.726563 L 72.945313 266.613281 L 73.203125 266.523438 L 73.476563 266.457031 L 73.761719 266.417969 Z M 74.0625 267.359375 L 73.699219 267.398438 L 73.371094 267.519531 L 73.082031 267.71875 L 72.835938 268 L 72.625 268.363281 L 72.449219 268.804688 L 72.316406 269.328125 L 72.222656 269.929688 L 72.164063 270.613281 L 72.144531 271.375 L 72.164063 272.140625 L 72.222656 272.828125 L 72.316406 273.433594 L 72.449219 273.957031 L 72.625 274.398438 L 72.835938 274.761719 L 73.082031 275.042969 L 73.371094 275.246094 L 73.699219 275.367188 L 74.0625 275.40625 L 74.425781 275.367188 L 74.753906 275.246094 L 75.039063 275.042969 L 75.289063 274.761719 L 75.5 274.398438 L 75.671875 273.957031 L 75.808594 273.433594 L 75.902344 272.828125 L 75.960938 272.140625 L 75.980469 271.375 L 75.960938 270.613281 L 75.902344 269.929688 L 75.808594 269.328125 L 75.671875 268.804688 L 75.5 268.363281 L 75.289063 268 L 75.039063 267.71875 L 74.753906 267.519531 L 74.425781 267.398438 Z M 74.0625 270.464844 L 74.140625 270.46875 L 74.214844 270.476563 L 74.285156 270.488281 L 74.355469 270.507813 L 74.421875 270.53125 L 74.488281 270.5625 L 74.550781 270.597656 L 74.609375 270.636719 L 74.664063 270.679688 L 74.71875 270.730469 L 74.769531 270.785156 L 74.816406 270.84375 L 74.855469 270.902344 L 74.890625 270.960938 L 74.917969 271.027344 L 74.945313 271.089844 L 74.976563 271.230469 L 74.984375 271.300781 L 74.984375 271.453125 L 74.976563 271.527344 L 74.945313 271.667969 L 74.890625 271.800781 L 74.855469 271.863281 L 74.816406 271.921875 L 74.769531 271.980469 L 74.71875 272.035156 L 74.664063 272.085938 L 74.609375 272.128906 L 74.550781 272.167969 L 74.488281 272.203125 L 74.421875 272.234375 L 74.355469 272.257813 L 74.285156 272.277344 L 74.214844 272.289063 L 74.140625 272.296875 L 74.0625 272.300781 L 73.984375 272.296875 L 73.910156 272.289063 L 73.839844 272.277344 L 73.769531 272.257813 L 73.703125 272.234375 L 73.636719 272.203125 L 73.574219 272.167969 L 73.515625 272.128906 L 73.457031 272.085938 L 73.402344 272.035156 L 73.355469 271.980469 L 73.3125 271.921875 L 73.277344 271.863281 L 73.242188 271.800781 L 73.214844 271.734375 L 73.191406 271.667969 L 73.160156 271.527344 L 73.15625 271.453125 L 73.152344 271.375 L 73.15625 271.300781 L 73.160156 271.230469 L 73.191406 271.089844 L 73.214844 271.027344 L 73.242188 270.960938 L 73.3125 270.84375 L 73.355469 270.785156 L 73.402344 270.730469 L 73.457031 270.679688 L 73.515625 270.636719 L 73.574219 270.597656 L 73.636719 270.5625 L 73.703125 270.53125 L 73.769531 270.507813 L 73.839844 270.488281 L 73.910156 270.476563 L 73.984375 270.46875 Z M 74.0625 270.464844 "/>
<path style=" stroke:none;fill-rule:nonzero;fill:rgb(30.196078%,30.196078%,30.196078%);fill-opacity:1;" d="M 68.113281 200.226563 L 64.304688 200.226563 L 64.304688 203.265625 L 64.386719 203.21875 L 64.464844 203.175781 L 64.546875 203.136719 L 64.625 203.097656 L 64.707031 203.0625 L 64.785156 203.035156 L 64.867188 203.007813 L 64.945313 202.980469 L 65.101563 202.941406 L 65.183594 202.921875 L 65.347656 202.890625 L 65.519531 202.867188 L 65.691406 202.851563 L 65.777344 202.847656 L 65.867188 202.84375 L 65.957031 202.84375 L 66.191406 202.851563 L 66.417969 202.875 L 66.632813 202.914063 L 66.839844 202.972656 L 67.039063 203.042969 L 67.222656 203.132813 L 67.402344 203.234375 L 67.570313 203.355469 L 67.726563 203.492188 L 67.875 203.640625 L 68.011719 203.808594 L 68.136719 203.984375 L 68.246094 204.175781 L 68.339844 204.382813 L 68.421875 204.597656 L 68.484375 204.828125 L 68.535156 205.066406 L 68.574219 205.320313 L 68.59375 205.589844 L 68.601563 205.867188 L 68.597656 206.054688 L 68.585938 206.238281 L 68.566406 206.417969 L 68.535156 206.59375 L 68.5 206.765625 L 68.457031 206.929688 L 68.402344 207.089844 L 68.34375 207.246094 L 68.273438 207.398438 L 68.195313 207.546875 L 68.113281 207.691406 L 68.023438 207.828125 L 67.929688 207.957031 L 67.828125 208.078125 L 67.714844 208.195313 L 67.597656 208.304688 L 67.476563 208.410156 L 67.34375 208.507813 L 67.207031 208.597656 L 67.0625 208.683594 L 66.910156 208.757813 L 66.753906 208.824219 L 66.59375 208.882813 L 66.429688 208.933594 L 66.261719 208.976563 L 66.085938 209.011719 L 65.90625 209.039063 L 65.722656 209.058594 L 65.535156 209.070313 L 65.339844 209.074219 L 65.023438 209.0625 L 64.710938 209.027344 L 64.410156 208.96875 L 64.121094 208.890625 L 63.835938 208.785156 L 63.558594 208.660156 L 63.292969 208.511719 L 63.03125 208.339844 L 62.78125 208.144531 L 62.539063 207.925781 L 63.269531 207.210938 L 63.449219 207.382813 L 63.632813 207.535156 L 63.824219 207.667969 L 64.023438 207.785156 L 64.226563 207.882813 L 64.4375 207.964844 L 64.652344 208.027344 L 64.875 208.070313 L 65.105469 208.097656 L 65.339844 208.109375 L 65.527344 208.101563 L 65.710938 208.085938 L 65.878906 208.054688 L 66.042969 208.015625 L 66.199219 207.960938 L 66.34375 207.894531 L 66.480469 207.820313 L 66.609375 207.730469 L 66.726563 207.632813 L 66.839844 207.519531 L 66.9375 207.398438 L 67.03125 207.265625 L 67.109375 207.121094 L 67.179688 206.964844 L 67.238281 206.800781 L 67.285156 206.628906 L 67.320313 206.441406 L 67.347656 206.246094 L 67.363281 206.042969 L 67.371094 205.824219 L 67.367188 205.613281 L 67.351563 205.414063 L 67.328125 205.226563 L 67.292969 205.050781 L 67.25 204.886719 L 67.199219 204.738281 L 67.136719 204.597656 L 67.066406 204.472656 L 66.984375 204.359375 L 66.894531 204.257813 L 66.796875 204.164063 L 66.691406 204.082031 L 66.578125 204.007813 L 66.460938 203.945313 L 66.335938 203.890625 L 66.207031 203.847656 L 66.070313 203.8125 L 65.925781 203.789063 L 65.777344 203.773438 L 65.621094 203.769531 L 65.472656 203.769531 L 65.398438 203.773438 L 65.328125 203.777344 L 65.257813 203.785156 L 65.125 203.800781 L 65.058594 203.8125 L 64.933594 203.835938 L 64.871094 203.851563 L 64.804688 203.871094 L 64.65625 203.910156 L 64.578125 203.9375 L 64.492188 203.960938 L 64.40625 203.992188 L 64.316406 204.023438 L 64.222656 204.054688 L 64.121094 204.089844 L 63.171875 204.089844 L 63.171875 199.273438 L 68.28125 199.273438 Z M 68.113281 200.226563 "/>
<path style=" stroke:none;fill-rule:nonzero;fill:rgb(30.196078%,30.196078%,30.196078%);fill-opacity:1;" d="M 74.0625 199.121094 L 74.363281 199.132813 L 74.648438 199.171875 L 74.917969 199.234375 L 75.175781 199.324219 L 75.417969 199.441406 L 75.644531 199.582031 L 75.855469 199.75 L 76.050781 199.945313 L 76.234375 200.164063 L 76.398438 200.40625 L 76.554688 200.675781 L 76.691406 200.960938 L 76.8125 201.273438 L 76.917969 201.609375 L 77.007813 201.964844 L 77.082031 202.34375 L 77.140625 202.746094 L 77.179688 203.171875 L 77.203125 203.621094 L 77.210938 204.089844 L 77.203125 204.5625 L 77.179688 205.011719 L 77.140625 205.441406 L 77.082031 205.847656 L 77.007813 206.226563 L 76.917969 206.589844 L 76.8125 206.925781 L 76.691406 207.238281 L 76.554688 207.53125 L 76.398438 207.800781 L 76.234375 208.042969 L 76.050781 208.257813 L 75.855469 208.449219 L 75.644531 208.617188 L 75.417969 208.753906 L 75.175781 208.871094 L 74.917969 208.960938 L 74.648438 209.023438 L 74.363281 209.0625 L 74.0625 209.074219 L 73.761719 209.0625 L 73.476563 209.023438 L 73.203125 208.960938 L 72.945313 208.871094 L 72.703125 208.753906 L 72.476563 208.617188 L 72.261719 208.449219 L 72.0625 208.257813 L 71.878906 208.042969 L 71.710938 207.800781 L 71.558594 207.53125 L 71.421875 207.238281 L 71.304688 206.925781 L 71.199219 206.589844 L 71.113281 206.226563 L 71.039063 205.847656 L 70.984375 205.441406 L 70.945313 205.011719 L 70.921875 204.5625 L 70.910156 204.089844 L 70.921875 203.621094 L 70.945313 203.171875 L 70.984375 202.746094 L 71.039063 202.34375 L 71.113281 201.964844 L 71.199219 201.609375 L 71.304688 201.273438 L 71.421875 200.960938 L 71.558594 200.675781 L 71.710938 200.40625 L 71.878906 200.164063 L 72.0625 199.945313 L 72.261719 199.75 L 72.476563 199.582031 L 72.703125 199.441406 L 72.945313 199.324219 L 73.203125 199.234375 L 73.476563 199.171875 L 73.761719 199.132813 Z M 74.0625 200.070313 L 73.699219 200.113281 L 73.371094 200.234375 L 73.082031 200.433594 L 72.835938 200.714844 L 72.625 201.078125 L 72.449219 201.519531 L 72.316406 202.039063 L 72.222656 202.644531 L 72.164063 203.328125 L 72.144531 204.089844 L 72.164063 204.855469 L 72.222656 205.542969 L 72.316406 206.144531 L 72.449219 206.671875 L 72.625 207.113281 L 72.835938 207.476563 L 73.082031 207.757813 L 73.371094 207.960938 L 73.699219 208.082031 L 74.0625 208.121094 L 74.425781 208.082031 L 74.753906 207.960938 L 75.039063 207.757813 L 75.289063 207.476563 L 75.5 207.113281 L 75.671875 206.671875 L 75.808594 206.144531 L 75.902344 205.542969 L 75.960938 204.855469 L 75.980469 204.089844 L 75.960938 203.328125 L 75.902344 202.644531 L 75.808594 202.039063 L 75.671875 201.519531 L 75.5 201.078125 L 75.289063 200.714844 L 75.039063 200.433594 L 74.753906 200.234375 L 74.425781 200.113281 Z M 74.0625 203.179688 L 74.140625 203.183594 L 74.214844 203.191406 L 74.285156 203.203125 L 74.355469 203.222656 L 74.421875 203.246094 L 74.488281 203.277344 L 74.550781 203.308594 L 74.609375 203.351563 L 74.664063 203.394531 L 74.71875 203.445313 L 74.769531 203.5 L 74.816406 203.558594 L 74.855469 203.617188 L 74.890625 203.675781 L 74.917969 203.738281 L 74.945313 203.804688 L 74.960938 203.875 L 74.976563 203.941406 L 74.984375 204.015625 L 74.984375 204.167969 L 74.976563 204.242188 L 74.945313 204.382813 L 74.890625 204.515625 L 74.855469 204.578125 L 74.816406 204.636719 L 74.769531 204.695313 L 74.71875 204.746094 L 74.664063 204.796875 L 74.609375 204.84375 L 74.550781 204.882813 L 74.488281 204.917969 L 74.421875 204.949219 L 74.355469 204.972656 L 74.214844 205.003906 L 74.140625 205.011719 L 74.0625 205.015625 L 73.984375 205.011719 L 73.910156 205.003906 L 73.769531 204.972656 L 73.703125 204.949219 L 73.636719 204.917969 L 73.574219 204.882813 L 73.515625 204.84375 L 73.457031 204.796875 L 73.402344 204.746094 L 73.355469 204.695313 L 73.3125 204.636719 L 73.277344 204.578125 L 73.242188 204.515625 L 73.214844 204.449219 L 73.191406 204.382813 L 73.160156 204.242188 L 73.15625 204.167969 L 73.152344 204.089844 L 73.160156 203.941406 L 73.175781 203.875 L 73.191406 203.804688 L 73.214844 203.738281 L 73.242188 203.675781 L 73.3125 203.558594 L 73.355469 203.5 L 73.402344 203.445313 L 73.457031 203.394531 L 73.574219 203.308594 L 73.636719 203.277344 L 73.703125 203.246094 L 73.769531 203.222656 L 73.839844 203.203125 L 73.910156 203.191406 L 73.984375 203.183594 Z M 74.0625 203.179688 "/>
<path style=" stroke:none;fill-rule:nonzero;fill:rgb(30.196078%,30.196078%,30.196078%);fill-opacity:1;" d="M 60.300781 140.683594 L 60.300781 141.632813 L 54.742188 141.632813 L 54.742188 140.683594 L 57.109375 140.683594 L 57.109375 133.277344 L 54.910156 134.605469 L 54.390625 133.78125 L 57.261719 131.988281 L 58.296875 131.988281 L 58.296875 140.683594 Z M 60.300781 140.683594 "/>
<path style=" stroke:none;fill-rule:nonzero;fill:rgb(30.196078%,30.196078%,30.196078%);fill-opacity:1;" d="M 65.660156 131.835938 L 65.960938 131.847656 L 66.25 131.886719 L 66.519531 131.949219 L 66.773438 132.039063 L 67.015625 132.15625 L 67.242188 132.296875 L 67.453125 132.464844 L 67.652344 132.660156 L 67.832031 132.878906 L 68 133.121094 L 68.152344 133.386719 L 68.292969 133.675781 L 68.414063 133.988281 L 68.519531 134.324219 L 68.609375 134.679688 L 68.683594 135.058594 L 68.738281 135.460938 L 68.78125 135.886719 L 68.804688 136.332031 L 68.8125 136.804688 L 68.804688 137.277344 L 68.78125 137.726563 L 68.738281 138.15625 L 68.683594 138.558594 L 68.609375 138.941406 L 68.519531 139.300781 L 68.414063 139.640625 L 68.292969 139.953125 L 68.152344 140.246094 L 68 140.515625 L 67.832031 140.757813 L 67.652344 140.972656 L 67.453125 141.164063 L 67.242188 141.328125 L 67.015625 141.46875 L 66.773438 141.585938 L 66.519531 141.671875 L 66.25 141.738281 L 65.960938 141.773438 L 65.660156 141.789063 L 65.359375 141.773438 L 65.074219 141.738281 L 64.804688 141.671875 L 64.546875 141.585938 L 64.304688 141.46875 L 64.074219 141.328125 L 63.863281 141.164063 L 63.664063 140.972656 L 63.480469 140.757813 L 63.308594 140.515625 L 63.160156 140.246094 L 63.023438 139.953125 L 62.902344 139.640625 L 62.800781 139.300781 L 62.710938 138.941406 L 62.640625 138.558594 L 62.582031 138.15625 L 62.542969 137.726563 L 62.519531 137.277344 L 62.511719 136.804688 L 62.519531 136.332031 L 62.542969 135.886719 L 62.582031 135.460938 L 62.640625 135.058594 L 62.710938 134.679688 L 62.800781 134.324219 L 62.902344 133.988281 L 63.023438 133.675781 L 63.160156 133.386719 L 63.308594 133.121094 L 63.480469 132.878906 L 63.664063 132.660156 L 63.863281 132.464844 L 64.074219 132.296875 L 64.304688 132.15625 L 64.546875 132.039063 L 64.804688 131.949219 L 65.074219 131.886719 L 65.359375 131.847656 Z M 65.660156 132.785156 L 65.296875 132.828125 L 64.972656 132.945313 L 64.683594 133.148438 L 64.433594 133.429688 L 64.222656 133.789063 L 64.050781 134.234375 L 63.917969 134.753906 L 63.820313 135.359375 L 63.761719 136.039063 L 63.742188 136.804688 L 63.761719 137.570313 L 63.820313 138.253906 L 63.917969 138.859375 L 64.050781 139.382813 L 64.222656 139.828125 L 64.433594 140.191406 L 64.683594 140.472656 L 64.972656 140.675781 L 65.296875 140.796875 L 65.660156 140.835938 L 66.027344 140.796875 L 66.351563 140.675781 L 66.640625 140.472656 L 66.890625 140.191406 L 67.101563 139.828125 L 67.273438 139.382813 L 67.40625 138.859375 L 67.503906 138.253906 L 67.5625 137.570313 L 67.578125 136.804688 L 67.5625 136.039063 L 67.503906 135.359375 L 67.40625 134.753906 L 67.273438 134.234375 L 67.101563 133.789063 L 66.890625 133.429688 L 66.640625 133.148438 L 66.351563 132.945313 L 66.027344 132.828125 Z M 65.660156 135.894531 L 65.738281 135.898438 L 65.8125 135.90625 L 65.886719 135.917969 L 65.957031 135.9375 L 66.023438 135.960938 L 66.085938 135.988281 L 66.148438 136.023438 L 66.207031 136.0625 L 66.265625 136.109375 L 66.320313 136.160156 L 66.371094 136.214844 L 66.414063 136.269531 L 66.457031 136.328125 L 66.492188 136.390625 L 66.519531 136.453125 L 66.542969 136.519531 L 66.5625 136.585938 L 66.574219 136.65625 L 66.582031 136.730469 L 66.585938 136.804688 L 66.582031 136.882813 L 66.574219 136.957031 L 66.5625 137.027344 L 66.542969 137.097656 L 66.519531 137.164063 L 66.492188 137.230469 L 66.457031 137.292969 L 66.414063 137.351563 L 66.371094 137.40625 L 66.320313 137.460938 L 66.265625 137.511719 L 66.207031 137.558594 L 66.148438 137.597656 L 66.085938 137.632813 L 66.023438 137.660156 L 65.957031 137.6875 L 65.886719 137.703125 L 65.8125 137.71875 L 65.738281 137.726563 L 65.585938 137.726563 L 65.511719 137.71875 L 65.4375 137.703125 L 65.367188 137.6875 L 65.300781 137.660156 L 65.238281 137.632813 L 65.175781 137.597656 L 65.117188 137.558594 L 65.058594 137.511719 L 65.003906 137.460938 L 64.957031 137.40625 L 64.914063 137.351563 L 64.875 137.292969 L 64.84375 137.230469 L 64.816406 137.164063 L 64.792969 137.097656 L 64.773438 137.027344 L 64.761719 136.957031 L 64.753906 136.882813 L 64.753906 136.730469 L 64.761719 136.65625 L 64.773438 136.585938 L 64.792969 136.519531 L 64.816406 136.453125 L 64.84375 136.390625 L 64.875 136.328125 L 64.914063 136.269531 L 64.957031 136.214844 L 65.003906 136.160156 L 65.058594 136.109375 L 65.117188 136.0625 L 65.175781 136.023438 L 65.238281 135.988281 L 65.300781 135.960938 L 65.367188 135.9375 L 65.4375 135.917969 L 65.511719 135.90625 L 65.585938 135.898438 Z M 65.660156 135.894531 "/>
<path style=" stroke:none;fill-rule:nonzero;fill:rgb(30.196078%,30.196078%,30.196078%);fill-opacity:1;" d="M 74.0625 131.835938 L 74.363281 131.847656 L 74.648438 131.886719 L 74.917969 131.949219 L 75.175781 132.039063 L 75.417969 132.15625 L 75.644531 132.296875 L 75.855469 132.464844 L 76.050781 132.660156 L 76.234375 132.878906 L 76.398438 133.121094 L 76.554688 133.386719 L 76.691406 133.675781 L 76.8125 133.988281 L 76.917969 134.324219 L 77.007813 134.679688 L 77.082031 135.058594 L 77.140625 135.460938 L 77.179688 135.886719 L 77.203125 136.332031 L 77.210938 136.804688 L 77.203125 137.277344 L 77.179688 137.726563 L 77.140625 138.15625 L 77.082031 138.558594 L 77.007813 138.941406 L 76.917969 139.300781 L 76.8125 139.640625 L 76.691406 139.953125 L 76.554688 140.246094 L 76.398438 140.515625 L 76.234375 140.757813 L 76.050781 140.972656 L 75.855469 141.164063 L 75.644531 141.328125 L 75.417969 141.46875 L 75.175781 141.585938 L 74.917969 141.671875 L 74.648438 141.738281 L 74.363281 141.773438 L 74.0625 141.789063 L 73.761719 141.773438 L 73.476563 141.738281 L 73.203125 141.671875 L 72.945313 141.585938 L 72.703125 141.46875 L 72.476563 141.328125 L 72.261719 141.164063 L 72.0625 140.972656 L 71.878906 140.757813 L 71.710938 140.515625 L 71.558594 140.246094 L 71.421875 139.953125 L 71.304688 139.640625 L 71.199219 139.300781 L 71.113281 138.941406 L 71.039063 138.558594 L 70.984375 138.15625 L 70.945313 137.726563 L 70.921875 137.277344 L 70.910156 136.804688 L 70.921875 136.332031 L 70.945313 135.886719 L 70.984375 135.460938 L 71.039063 135.058594 L 71.113281 134.679688 L 71.199219 134.324219 L 71.304688 133.988281 L 71.421875 133.675781 L 71.558594 133.386719 L 71.710938 133.121094 L 71.878906 132.878906 L 72.0625 132.660156 L 72.261719 132.464844 L 72.476563 132.296875 L 72.703125 132.15625 L 72.945313 132.039063 L 73.203125 131.949219 L 73.476563 131.886719 L 73.761719 131.847656 Z M 74.0625 132.785156 L 73.699219 132.828125 L 73.371094 132.945313 L 73.082031 133.148438 L 72.835938 133.429688 L 72.625 133.789063 L 72.449219 134.234375 L 72.316406 134.753906 L 72.222656 135.359375 L 72.164063 136.039063 L 72.144531 136.804688 L 72.164063 137.570313 L 72.222656 138.253906 L 72.316406 138.859375 L 72.449219 139.382813 L 72.625 139.828125 L 72.835938 140.191406 L 73.082031 140.472656 L 73.371094 140.675781 L 73.699219 140.796875 L 74.0625 140.835938 L 74.425781 140.796875 L 74.753906 140.675781 L 75.039063 140.472656 L 75.289063 140.191406 L 75.5 139.828125 L 75.671875 139.382813 L 75.808594 138.859375 L 75.902344 138.253906 L 75.960938 137.570313 L 75.980469 136.804688 L 75.960938 136.039063 L 75.902344 135.359375 L 75.808594 134.753906 L 75.671875 134.234375 L 75.5 133.789063 L 75.289063 133.429688 L 75.039063 133.148438 L 74.753906 132.945313 L 74.425781 132.828125 Z M 74.0625 135.894531 L 74.140625 135.898438 L 74.214844 135.90625 L 74.285156 135.917969 L 74.355469 135.9375 L 74.421875 135.960938 L 74.488281 135.988281 L 74.550781 136.023438 L 74.609375 136.0625 L 74.664063 136.109375 L 74.71875 136.160156 L 74.769531 136.214844 L 74.816406 136.269531 L 74.855469 136.328125 L 74.890625 136.390625 L 74.917969 136.453125 L 74.945313 136.519531 L 74.960938 136.585938 L 74.976563 136.65625 L 74.984375 136.730469 L 74.984375 136.882813 L 74.976563 136.957031 L 74.945313 137.097656 L 74.890625 137.230469 L 74.855469 137.292969 L 74.816406 137.351563 L 74.769531 137.40625 L 74.71875 137.460938 L 74.664063 137.511719 L 74.609375 137.558594 L 74.550781 137.597656 L 74.488281 137.632813 L 74.355469 137.6875 L 74.214844 137.71875 L 74.140625 137.726563 L 73.984375 137.726563 L 73.910156 137.71875 L 73.769531 137.6875 L 73.636719 137.632813 L 73.574219 137.597656 L 73.515625 137.558594 L 73.457031 137.511719 L 73.402344 137.460938 L 73.355469 137.40625 L 73.3125 137.351563 L 73.277344 137.292969 L 73.242188 137.230469 L 73.214844 137.164063 L 73.191406 137.097656 L 73.160156 136.957031 L 73.15625 136.882813 L 73.152344 136.804688 L 73.160156 136.65625 L 73.175781 136.585938 L 73.191406 136.519531 L 73.214844 136.453125 L 73.242188 136.390625 L 73.277344 136.328125 L 73.3125 136.269531 L 73.355469 136.214844 L 73.402344 136.160156 L 73.457031 136.109375 L 73.515625 136.0625 L 73.574219 136.023438 L 73.636719 135.988281 L 73.703125 135.960938 L 73.769531 135.9375 L 73.839844 135.917969 L 73.910156 135.90625 L 73.984375 135.898438 Z M 74.0625 135.894531 "/>
<path style=" stroke:none;fill-rule:nonzero;fill:rgb(30.196078%,30.196078%,30.196078%);fill-opacity:1;" d="M 60.300781 73.394531 L 60.300781 74.347656 L 54.742188 74.347656 L 54.742188 73.394531 L 57.109375 73.394531 L 57.109375 65.992188 L 54.910156 67.320313 L 54.390625 66.496094 L 57.261719 64.703125 L 58.296875 64.703125 L 58.296875 73.394531 Z M 60.300781 73.394531 "/>
<path style=" stroke:none;fill-rule:nonzero;fill:rgb(30.196078%,30.196078%,30.196078%);fill-opacity:1;" d="M 68.113281 65.65625 L 64.304688 65.65625 L 64.304688 68.691406 L 64.386719 68.644531 L 64.464844 68.601563 L 64.546875 68.5625 L 64.625 68.527344 L 64.707031 68.492188 L 64.785156 68.460938 L 64.867188 68.433594 L 64.945313 68.410156 L 65.101563 68.371094 L 65.183594 68.351563 L 65.347656 68.320313 L 65.519531 68.296875 L 65.691406 68.28125 L 65.777344 68.277344 L 65.867188 68.273438 L 65.957031 68.273438 L 66.191406 68.28125 L 66.417969 68.304688 L 66.632813 68.34375 L 66.839844 68.398438 L 67.039063 68.472656 L 67.222656 68.558594 L 67.402344 68.664063 L 67.570313 68.78125 L 67.726563 68.917969 L 67.875 69.070313 L 68.011719 69.234375 L 68.136719 69.414063 L 68.246094 69.605469 L 68.339844 69.808594 L 68.421875 70.027344 L 68.484375 70.253906 L 68.535156 70.496094 L 68.574219 70.75 L 68.59375 71.015625 L 68.601563 71.296875 L 68.597656 71.484375 L 68.585938 71.667969 L 68.566406 71.847656 L 68.535156 72.023438 L 68.5 72.191406 L 68.457031 72.359375 L 68.402344 72.519531 L 68.34375 72.675781 L 68.273438 72.828125 L 68.195313 72.976563 L 68.113281 73.117188 L 68.023438 73.253906 L 67.929688 73.382813 L 67.828125 73.507813 L 67.714844 73.625 L 67.597656 73.734375 L 67.476563 73.835938 L 67.34375 73.933594 L 67.207031 74.027344 L 67.0625 74.109375 L 66.910156 74.183594 L 66.753906 74.25 L 66.59375 74.308594 L 66.429688 74.359375 L 66.261719 74.40625 L 66.085938 74.441406 L 65.90625 74.46875 L 65.722656 74.488281 L 65.535156 74.5 L 65.339844 74.503906 L 65.023438 74.492188 L 64.710938 74.457031 L 64.410156 74.398438 L 64.121094 74.320313 L 63.835938 74.214844 L 63.558594 74.089844 L 63.292969 73.941406 L 63.03125 73.769531 L 62.78125 73.574219 L 62.539063 73.355469 L 63.269531 72.640625 L 63.449219 72.8125 L 63.632813 72.964844 L 63.824219 73.097656 L 64.023438 73.214844 L 64.226563 73.3125 L 64.4375 73.394531 L 64.652344 73.457031 L 64.875 73.5 L 65.105469 73.527344 L 65.339844 73.535156 L 65.527344 73.53125 L 65.710938 73.511719 L 65.878906 73.484375 L 66.042969 73.441406 L 66.199219 73.390625 L 66.34375 73.324219 L 66.480469 73.25 L 66.609375 73.160156 L 66.726563 73.058594 L 66.839844 72.949219 L 66.9375 72.824219 L 67.03125 72.691406 L 67.109375 72.550781 L 67.179688 72.394531 L 67.238281 72.230469 L 67.285156 72.054688 L 67.320313 71.871094 L 67.347656 71.675781 L 67.363281 71.46875 L 67.371094 71.253906 L 67.367188 71.042969 L 67.351563 70.84375 L 67.328125 70.65625 L 67.292969 70.480469 L 67.25 70.316406 L 67.199219 70.164063 L 67.136719 70.027344 L 67.066406 69.902344 L 66.984375 69.789063 L 66.894531 69.6875 L 66.796875 69.59375 L 66.691406 69.511719 L 66.578125 69.4375 L 66.460938 69.371094 L 66.335938 69.320313 L 66.207031 69.273438 L 66.070313 69.242188 L 65.925781 69.214844 L 65.777344 69.203125 L 65.621094 69.195313 L 65.546875 69.195313 L 65.398438 69.203125 L 65.328125 69.207031 L 65.257813 69.214844 L 65.125 69.230469 L 65.058594 69.242188 L 64.933594 69.265625 L 64.871094 69.28125 L 64.804688 69.296875 L 64.730469 69.320313 L 64.65625 69.339844 L 64.578125 69.363281 L 64.40625 69.417969 L 64.316406 69.449219 L 64.222656 69.484375 L 64.121094 69.519531 L 63.171875 69.519531 L 63.171875 64.703125 L 68.28125 64.703125 Z M 68.113281 65.65625 "/>
<path style=" stroke:none;fill-rule:nonzero;fill:rgb(30.196078%,30.196078%,30.196078%);fill-opacity:1;" d="M 74.0625 64.546875 L 74.363281 64.5625 L 74.648438 64.601563 L 74.917969 64.664063 L 75.175781 64.753906 L 75.417969 64.871094 L 75.644531 65.011719 L 75.855469 65.179688 L 76.050781 65.371094 L 76.234375 65.589844 L 76.398438 65.835938 L 76.554688 66.101563 L 76.691406 66.390625 L 76.8125 66.703125 L 76.917969 67.035156 L 77.007813 67.394531 L 77.082031 67.773438 L 77.140625 68.175781 L 77.179688 68.601563 L 77.203125 69.046875 L 77.210938 69.519531 L 77.203125 69.992188 L 77.179688 70.441406 L 77.140625 70.871094 L 77.082031 71.273438 L 77.007813 71.65625 L 76.917969 72.015625 L 76.8125 72.351563 L 76.691406 72.667969 L 76.554688 72.960938 L 76.398438 73.226563 L 76.234375 73.46875 L 76.050781 73.6875 L 75.855469 73.878906 L 75.644531 74.042969 L 75.417969 74.183594 L 75.175781 74.296875 L 74.917969 74.386719 L 74.648438 74.453125 L 74.363281 74.488281 L 74.0625 74.503906 L 73.761719 74.488281 L 73.476563 74.453125 L 73.203125 74.386719 L 72.945313 74.296875 L 72.703125 74.183594 L 72.476563 74.042969 L 72.261719 73.878906 L 72.0625 73.6875 L 71.878906 73.46875 L 71.710938 73.226563 L 71.558594 72.960938 L 71.421875 72.667969 L 71.304688 72.351563 L 71.199219 72.015625 L 71.113281 71.65625 L 71.039063 71.273438 L 70.984375 70.871094 L 70.945313 70.441406 L 70.921875 69.992188 L 70.910156 69.519531 L 70.921875 69.046875 L 70.945313 68.601563 L 70.984375 68.175781 L 71.039063 67.773438 L 71.113281 67.394531 L 71.199219 67.035156 L 71.304688 66.703125 L 71.421875 66.390625 L 71.558594 66.101563 L 71.710938 65.835938 L 71.878906 65.589844 L 72.0625 65.371094 L 72.261719 65.179688 L 72.476563 65.011719 L 72.703125 64.871094 L 72.945313 64.753906 L 73.203125 64.664063 L 73.476563 64.601563 L 73.761719 64.5625 Z M 74.0625 65.5 L 73.699219 65.539063 L 73.371094 65.660156 L 73.082031 65.863281 L 72.835938 66.144531 L 72.625 66.503906 L 72.449219 66.945313 L 72.316406 67.46875 L 72.222656 68.070313 L 72.164063 68.753906 L 72.144531 69.519531 L 72.164063 70.285156 L 72.222656 70.96875 L 72.316406 71.574219 L 72.449219 72.097656 L 72.625 72.542969 L 72.835938 72.90625 L 73.082031 73.1875 L 73.371094 73.390625 L 73.699219 73.511719 L 74.0625 73.550781 L 74.425781 73.511719 L 74.753906 73.390625 L 75.039063 73.1875 L 75.289063 72.90625 L 75.5 72.542969 L 75.671875 72.097656 L 75.808594 71.574219 L 75.902344 70.96875 L 75.960938 70.285156 L 75.980469 69.519531 L 75.960938 68.753906 L 75.902344 68.070313 L 75.808594 67.46875 L 75.671875 66.945313 L 75.5 66.503906 L 75.289063 66.144531 L 75.039063 65.863281 L 74.753906 65.660156 L 74.425781 65.539063 Z M 74.0625 68.609375 L 74.140625 68.609375 L 74.214844 68.617188 L 74.285156 68.632813 L 74.355469 68.652344 L 74.421875 68.675781 L 74.488281 68.703125 L 74.550781 68.738281 L 74.609375 68.777344 L 74.664063 68.824219 L 74.71875 68.875 L 74.769531 68.929688 L 74.816406 68.984375 L 74.855469 69.042969 L 74.890625 69.105469 L 74.917969 69.167969 L 74.945313 69.234375 L 74.960938 69.300781 L 74.976563 69.371094 L 74.984375 69.445313 L 74.984375 69.59375 L 74.976563 69.671875 L 74.945313 69.8125 L 74.890625 69.945313 L 74.855469 70.003906 L 74.816406 70.066406 L 74.769531 70.121094 L 74.71875 70.175781 L 74.664063 70.226563 L 74.609375 70.273438 L 74.550781 70.3125 L 74.488281 70.347656 L 74.421875 70.375 L 74.355469 70.398438 L 74.285156 70.417969 L 74.214844 70.433594 L 74.140625 70.441406 L 73.984375 70.441406 L 73.910156 70.433594 L 73.839844 70.417969 L 73.769531 70.398438 L 73.703125 70.375 L 73.636719 70.347656 L 73.574219 70.3125 L 73.515625 70.273438 L 73.457031 70.226563 L 73.402344 70.175781 L 73.355469 70.121094 L 73.3125 70.066406 L 73.277344 70.003906 L 73.242188 69.945313 L 73.214844 69.878906 L 73.191406 69.8125 L 73.160156 69.671875 L 73.15625 69.59375 L 73.152344 69.519531 L 73.160156 69.371094 L 73.175781 69.300781 L 73.191406 69.234375 L 73.214844 69.167969 L 73.242188 69.105469 L 73.277344 69.042969 L 73.3125 68.984375 L 73.355469 68.929688 L 73.402344 68.875 L 73.457031 68.824219 L 73.515625 68.777344 L 73.574219 68.738281 L 73.636719 68.703125 L 73.703125 68.675781 L 73.769531 68.652344 L 73.839844 68.632813 L 73.910156 68.617188 L 73.984375 68.609375 Z M 74.0625 68.609375 "/>
<path style="fill:none;stroke-width:1.115477;stroke-linecap:butt;stroke-linejoin:round;stroke:rgb(66.27451%,66.27451%,66.27451%);stroke-opacity:1;stroke-miterlimit:10;" d="M 81.125 282.957031 L 511.652344 282.957031 "/>
<path style=" stroke:none;fill-rule:nonzero;fill:rgb(30.196078%,30.196078%,30.196078%);fill-opacity:1;" d="M 144.777344 294.515625 L 144.777344 295.464844 L 139.21875 295.464844 L 139.21875 294.515625 L 141.582031 294.515625 L 141.582031 287.109375 L 139.386719 288.4375 L 138.867188 287.613281 L 141.738281 285.820313 L 142.773438 285.820313 L 142.773438 294.515625 Z M 144.777344 294.515625 "/>
<path style=" stroke:none;fill-rule:nonzero;fill:rgb(30.196078%,30.196078%,30.196078%);fill-opacity:1;" d="M 236.160156 285.667969 L 236.335938 285.667969 L 236.503906 285.679688 L 236.671875 285.699219 L 236.832031 285.722656 L 236.988281 285.753906 L 237.140625 285.792969 L 237.285156 285.835938 L 237.429688 285.890625 L 237.566406 285.949219 L 237.703125 286.015625 L 237.832031 286.089844 L 237.957031 286.167969 L 238.074219 286.25 L 238.1875 286.339844 L 238.292969 286.433594 L 238.390625 286.53125 L 238.484375 286.636719 L 238.570313 286.746094 L 238.648438 286.863281 L 238.722656 286.980469 L 238.789063 287.105469 L 238.847656 287.230469 L 238.902344 287.359375 L 238.949219 287.492188 L 238.984375 287.625 L 239.015625 287.765625 L 239.042969 287.90625 L 239.058594 288.054688 L 239.070313 288.203125 L 239.074219 288.355469 L 239.070313 288.53125 L 239.054688 288.710938 L 239.035156 288.886719 L 239.007813 289.0625 L 238.96875 289.234375 L 238.921875 289.410156 L 238.867188 289.582031 L 238.804688 289.75 L 238.734375 289.921875 L 238.652344 290.089844 L 238.566406 290.257813 L 238.472656 290.433594 L 238.363281 290.609375 L 238.246094 290.789063 L 238.121094 290.972656 L 237.984375 291.160156 L 237.839844 291.347656 L 237.679688 291.542969 L 237.515625 291.738281 L 237.335938 291.9375 L 237.148438 292.140625 L 236.941406 292.355469 L 236.722656 292.582031 L 236.488281 292.820313 L 236.238281 293.066406 L 235.972656 293.324219 L 235.691406 293.589844 L 235.398438 293.867188 L 235.085938 294.15625 L 234.761719 294.457031 L 239.296875 294.457031 L 239.15625 295.464844 L 233.417969 295.464844 L 233.417969 294.515625 L 233.785156 294.160156 L 234.132813 293.824219 L 234.464844 293.5 L 234.773438 293.195313 L 235.0625 292.902344 L 235.332031 292.628906 L 235.582031 292.371094 L 235.8125 292.125 L 236.027344 291.898438 L 236.21875 291.6875 L 236.394531 291.484375 L 236.5625 291.289063 L 236.71875 291.097656 L 236.863281 290.914063 L 236.996094 290.738281 L 237.121094 290.566406 L 237.230469 290.398438 L 237.328125 290.238281 L 237.414063 290.085938 L 237.492188 289.9375 L 237.558594 289.789063 L 237.617188 289.640625 L 237.667969 289.492188 L 237.714844 289.339844 L 237.753906 289.1875 L 237.785156 289.03125 L 237.808594 288.875 L 237.828125 288.71875 L 237.835938 288.558594 L 237.839844 288.394531 L 237.835938 288.238281 L 237.824219 288.085938 L 237.800781 287.941406 L 237.765625 287.800781 L 237.726563 287.671875 L 237.675781 287.546875 L 237.613281 287.429688 L 237.546875 287.320313 L 237.46875 287.21875 L 237.378906 287.121094 L 237.285156 287.035156 L 237.179688 286.957031 L 237.070313 286.886719 L 236.953125 286.828125 L 236.828125 286.777344 L 236.699219 286.734375 L 236.5625 286.703125 L 236.417969 286.679688 L 236.265625 286.664063 L 236.105469 286.660156 L 235.96875 286.664063 L 235.839844 286.667969 L 235.714844 286.679688 L 235.59375 286.699219 L 235.476563 286.71875 L 235.363281 286.746094 L 235.253906 286.777344 L 235.152344 286.8125 L 235.050781 286.851563 L 234.957031 286.898438 L 234.867188 286.945313 L 234.777344 287 L 234.6875 287.0625 L 234.59375 287.132813 L 234.503906 287.207031 L 234.410156 287.289063 L 234.316406 287.375 L 234.222656 287.472656 L 234.128906 287.574219 L 234.035156 287.683594 L 233.222656 287.050781 L 233.335938 286.914063 L 233.457031 286.78125 L 233.578125 286.65625 L 233.699219 286.542969 L 233.828125 286.433594 L 233.957031 286.332031 L 234.085938 286.238281 L 234.21875 286.152344 L 234.355469 286.074219 L 234.496094 286.003906 L 234.640625 285.9375 L 234.789063 285.882813 L 234.945313 285.832031 L 235.105469 285.785156 L 235.269531 285.75 L 235.4375 285.71875 L 235.613281 285.695313 L 235.789063 285.679688 L 235.972656 285.667969 Z M 236.160156 285.667969 "/>
<path style=" stroke:none;fill-rule:nonzero;fill:rgb(30.196078%,30.196078%,30.196078%);fill-opacity:1;" d="M 331.019531 285.667969 L 331.195313 285.667969 L 331.363281 285.679688 L 331.53125 285.695313 L 331.691406 285.71875 L 331.847656 285.75 L 332 285.785156 L 332.152344 285.832031 L 332.296875 285.882813 L 332.4375 285.9375 L 332.574219 286.003906 L 332.703125 286.070313 L 332.828125 286.140625 L 332.949219 286.214844 L 333.0625 286.296875 L 333.167969 286.382813 L 333.269531 286.472656 L 333.363281 286.570313 L 333.449219 286.667969 L 333.53125 286.773438 L 333.609375 286.882813 L 333.679688 286.996094 L 333.738281 287.105469 L 333.792969 287.222656 L 333.84375 287.339844 L 333.882813 287.457031 L 333.914063 287.578125 L 333.941406 287.703125 L 333.957031 287.828125 L 333.96875 287.957031 L 333.972656 288.089844 L 333.96875 288.253906 L 333.953125 288.414063 L 333.925781 288.574219 L 333.886719 288.726563 L 333.835938 288.875 L 333.777344 289.019531 L 333.707031 289.160156 L 333.625 289.296875 L 333.53125 289.429688 L 333.425781 289.558594 L 333.316406 289.675781 L 333.199219 289.785156 L 333.078125 289.886719 L 332.953125 289.976563 L 332.820313 290.058594 L 332.6875 290.132813 L 332.546875 290.195313 L 332.402344 290.246094 L 332.25 290.292969 L 332.097656 290.328125 L 332.277344 290.347656 L 332.449219 290.378906 L 332.617188 290.417969 L 332.78125 290.472656 L 332.9375 290.535156 L 333.089844 290.609375 L 333.234375 290.695313 L 333.375 290.789063 L 333.507813 290.894531 L 333.636719 291.015625 L 333.757813 291.140625 L 333.867188 291.277344 L 333.964844 291.425781 L 334.050781 291.578125 L 334.121094 291.742188 L 334.179688 291.914063 L 334.222656 292.097656 L 334.253906 292.285156 L 334.273438 292.484375 L 334.28125 292.695313 L 334.277344 292.859375 L 334.265625 293.019531 L 334.242188 293.175781 L 334.214844 293.332031 L 334.175781 293.480469 L 334.128906 293.628906 L 334.074219 293.773438 L 334.011719 293.917969 L 333.941406 294.054688 L 333.859375 294.191406 L 333.773438 294.324219 L 333.679688 294.449219 L 333.578125 294.570313 L 333.46875 294.683594 L 333.355469 294.789063 L 333.230469 294.894531 L 333.101563 294.988281 L 332.964844 295.078125 L 332.820313 295.164063 L 332.671875 295.242188 L 332.519531 295.3125 L 332.359375 295.378906 L 332.199219 295.433594 L 332.03125 295.484375 L 331.859375 295.527344 L 331.683594 295.558594 L 331.503906 295.585938 L 331.316406 295.605469 L 331.128906 295.617188 L 330.933594 295.621094 L 330.765625 295.617188 L 330.597656 295.605469 L 330.425781 295.589844 L 330.261719 295.570313 L 330.09375 295.539063 L 329.929688 295.503906 L 329.765625 295.460938 L 329.605469 295.414063 L 329.441406 295.359375 L 329.28125 295.296875 L 329.128906 295.230469 L 328.980469 295.15625 L 328.835938 295.078125 L 328.699219 294.992188 L 328.566406 294.898438 L 328.4375 294.800781 L 328.316406 294.695313 L 328.199219 294.585938 L 328.085938 294.46875 L 327.980469 294.347656 L 328.765625 293.703125 L 328.84375 293.792969 L 328.929688 293.878906 L 329.015625 293.960938 L 329.105469 294.039063 L 329.199219 294.113281 L 329.394531 294.246094 L 329.5 294.308594 L 329.605469 294.363281 L 329.71875 294.417969 L 329.832031 294.460938 L 330.066406 294.539063 L 330.183594 294.570313 L 330.300781 294.59375 L 330.421875 294.617188 L 330.542969 294.632813 L 330.664063 294.644531 L 330.785156 294.652344 L 330.90625 294.652344 L 331.105469 294.648438 L 331.292969 294.632813 L 331.472656 294.609375 L 331.640625 294.570313 L 331.804688 294.523438 L 331.957031 294.46875 L 332.097656 294.398438 L 332.234375 294.324219 L 332.359375 294.234375 L 332.476563 294.136719 L 332.585938 294.027344 L 332.683594 293.90625 L 332.769531 293.78125 L 332.84375 293.648438 L 332.90625 293.507813 L 332.957031 293.363281 L 332.996094 293.207031 L 333.027344 293.042969 L 333.042969 292.871094 L 333.050781 292.695313 L 333.027344 292.34375 L 332.96875 292.035156 L 332.867188 291.757813 L 332.730469 291.519531 L 332.546875 291.320313 L 332.328125 291.152344 L 332.066406 291.023438 L 331.769531 290.933594 L 331.425781 290.878906 L 331.046875 290.859375 L 330.25 290.859375 L 330.390625 289.921875 L 330.964844 289.921875 L 331.113281 289.917969 L 331.257813 289.90625 L 331.398438 289.882813 L 331.53125 289.855469 L 331.664063 289.816406 L 331.789063 289.769531 L 331.910156 289.714844 L 332.03125 289.652344 L 332.140625 289.582031 L 332.25 289.503906 L 332.351563 289.410156 L 332.441406 289.3125 L 332.523438 289.207031 L 332.589844 289.09375 L 332.648438 288.96875 L 332.699219 288.839844 L 332.734375 288.703125 L 332.761719 288.558594 L 332.777344 288.402344 L 332.78125 288.242188 L 332.777344 288.089844 L 332.761719 287.949219 L 332.738281 287.8125 L 332.699219 287.683594 L 332.652344 287.558594 L 332.597656 287.445313 L 332.527344 287.335938 L 332.453125 287.234375 L 332.363281 287.140625 L 332.265625 287.050781 L 332.160156 286.96875 L 332.050781 286.894531 L 331.9375 286.832031 L 331.816406 286.773438 L 331.6875 286.726563 L 331.554688 286.6875 L 331.414063 286.65625 L 331.269531 286.636719 L 331.121094 286.621094 L 330.964844 286.617188 L 330.84375 286.621094 L 330.726563 286.625 L 330.613281 286.636719 L 330.5 286.652344 L 330.390625 286.671875 L 330.285156 286.695313 L 330.183594 286.722656 L 330.082031 286.753906 L 329.980469 286.789063 L 329.886719 286.828125 L 329.792969 286.871094 L 329.699219 286.921875 L 329.605469 286.976563 L 329.507813 287.035156 L 329.414063 287.101563 L 329.316406 287.171875 L 329.21875 287.246094 L 329.117188 287.324219 L 329.019531 287.410156 L 328.917969 287.5 L 328.273438 286.785156 L 328.515625 286.574219 L 328.761719 286.382813 L 329.015625 286.214844 L 329.277344 286.070313 L 329.550781 285.945313 L 329.828125 285.84375 L 330.113281 285.765625 L 330.40625 285.710938 L 330.710938 285.675781 Z M 331.019531 285.667969 "/>
<path style=" stroke:none;fill-rule:nonzero;fill:rgb(30.196078%,30.196078%,30.196078%);fill-opacity:1;" d="M 429.503906 293.128906 L 428.257813 293.128906 L 428.257813 295.464844 L 427.121094 295.464844 L 427.121094 293.128906 L 423.117188 293.128906 L 423.117188 292.261719 L 425.945313 285.667969 L 426.925781 286.085938 L 424.363281 292.175781 L 427.136719 292.175781 L 427.234375 289.445313 L 428.257813 289.445313 L 428.257813 292.175781 L 429.503906 292.175781 Z M 429.503906 293.128906 "/>
<path style=" stroke:none;fill-rule:nonzero;fill:rgb(0%,0%,0%);fill-opacity:1;" d="M 438.609375 301.296875 L 439.046875 301.308594 L 439.460938 301.335938 L 439.851563 301.382813 L 440.226563 301.449219 L 440.574219 301.535156 L 440.90625 301.640625 L 441.214844 301.765625 L 441.5 301.910156 L 441.765625 302.070313 L 442.011719 302.253906 L 442.234375 302.453125 L 442.433594 302.671875 L 442.609375 302.910156 L 442.761719 303.167969 L 442.890625 303.445313 L 442.996094 303.742188 L 443.078125 304.054688 L 443.132813 304.390625 L 443.167969 304.742188 L 443.179688 305.113281 L 443.167969 305.507813 L 443.132813 305.878906 L 443.074219 306.230469 L 442.988281 306.5625 L 442.878906 306.875 L 442.746094 307.164063 L 442.589844 307.433594 L 442.410156 307.683594 L 442.203125 307.910156 L 441.976563 308.121094 L 441.730469 308.304688 L 441.464844 308.46875 L 441.179688 308.617188 L 440.875 308.742188 L 440.554688 308.847656 L 440.214844 308.9375 L 439.855469 309.003906 L 439.476563 309.054688 L 439.078125 309.082031 L 438.664063 309.09375 L 437.476563 309.09375 L 437.476563 313.683594 L 435.800781 313.683594 L 435.800781 301.296875 Z M 438.609375 307.796875 L 438.886719 307.789063 L 439.148438 307.773438 L 439.398438 307.742188 L 439.632813 307.703125 L 439.851563 307.648438 L 440.058594 307.582031 L 440.246094 307.503906 L 440.425781 307.417969 L 440.585938 307.316406 L 440.734375 307.203125 L 440.867188 307.074219 L 440.984375 306.929688 L 441.089844 306.765625 L 441.183594 306.585938 L 441.261719 306.386719 L 441.324219 306.171875 L 441.371094 305.9375 L 441.40625 305.6875 L 441.429688 305.417969 L 441.433594 305.132813 L 441.429688 304.871094 L 441.40625 304.621094 L 441.371094 304.390625 L 441.324219 304.171875 L 441.261719 303.972656 L 441.183594 303.785156 L 441.089844 303.613281 L 440.984375 303.457031 L 440.867188 303.316406 L 440.734375 303.1875 L 440.589844 303.070313 L 440.429688 302.96875 L 440.257813 302.875 L 440.066406 302.796875 L 439.863281 302.730469 L 439.648438 302.675781 L 439.414063 302.632813 L 439.167969 302.601563 L 438.90625 302.582031 L 438.628906 302.578125 L 437.476563 302.578125 L 437.476563 307.796875 Z M 438.609375 307.796875 "/>
<path style=" stroke:none;fill-rule:nonzero;fill:rgb(0%,0%,0%);fill-opacity:1;" d="M 449.03125 304 L 449.125 304 L 449.214844 304.003906 L 449.300781 304.007813 L 449.386719 304.015625 L 449.46875 304.023438 L 449.546875 304.039063 L 449.625 304.050781 L 449.699219 304.066406 L 449.773438 304.085938 L 449.839844 304.105469 L 449.570313 305.671875 L 449.503906 305.652344 L 449.433594 305.632813 L 449.363281 305.617188 L 449.289063 305.601563 L 449.214844 305.589844 L 449.066406 305.574219 L 448.988281 305.570313 L 448.914063 305.566406 L 448.832031 305.5625 L 448.679688 305.570313 L 448.527344 305.589844 L 448.382813 305.621094 L 448.246094 305.664063 L 448.113281 305.722656 L 447.988281 305.792969 L 447.867188 305.871094 L 447.75 305.96875 L 447.640625 306.074219 L 447.539063 306.195313 L 447.441406 306.328125 L 447.351563 306.472656 L 447.265625 306.632813 L 447.179688 306.804688 L 447.101563 306.992188 L 447.027344 307.191406 L 446.953125 307.402344 L 446.886719 307.628906 L 446.824219 307.867188 L 446.761719 308.121094 L 446.761719 313.683594 L 445.144531 313.683594 L 445.144531 304.214844 L 446.546875 304.214844 L 446.671875 306.085938 L 446.824219 305.691406 L 446.992188 305.335938 L 447.179688 305.019531 L 447.386719 304.75 L 447.613281 304.519531 L 447.859375 304.332031 L 448.125 304.1875 L 448.40625 304.082031 L 448.710938 304.019531 Z M 449.03125 304 "/>
<path style=" stroke:none;fill-rule:nonzero;fill:rgb(0%,0%,0%);fill-opacity:1;" d="M 453.046875 304.214844 L 453.046875 313.683594 L 451.425781 313.683594 L 451.425781 304.214844 Z M 452.234375 299.75 L 452.328125 299.753906 L 452.414063 299.761719 L 452.5 299.777344 L 452.582031 299.800781 L 452.660156 299.828125 L 452.730469 299.859375 L 452.800781 299.898438 L 452.871094 299.945313 L 452.933594 300 L 452.992188 300.054688 L 453.050781 300.117188 L 453.101563 300.183594 L 453.148438 300.253906 L 453.1875 300.324219 L 453.222656 300.398438 L 453.25 300.476563 L 453.269531 300.554688 L 453.285156 300.636719 L 453.292969 300.722656 L 453.296875 300.8125 L 453.292969 300.902344 L 453.285156 300.988281 L 453.273438 301.070313 L 453.226563 301.226563 L 453.195313 301.300781 L 453.15625 301.371094 L 453.113281 301.441406 L 453.0625 301.503906 L 453.007813 301.566406 L 452.949219 301.621094 L 452.886719 301.671875 L 452.820313 301.714844 L 452.746094 301.753906 L 452.671875 301.785156 L 452.59375 301.808594 L 452.507813 301.832031 L 452.421875 301.84375 L 452.332031 301.851563 L 452.234375 301.855469 L 452.144531 301.851563 L 452.054688 301.84375 L 451.96875 301.832031 L 451.886719 301.808594 L 451.808594 301.785156 L 451.730469 301.753906 L 451.660156 301.714844 L 451.589844 301.671875 L 451.523438 301.621094 L 451.460938 301.566406 L 451.40625 301.503906 L 451.359375 301.441406 L 451.316406 301.371094 L 451.277344 301.300781 L 451.246094 301.226563 L 451.21875 301.148438 L 451.199219 301.070313 L 451.183594 300.988281 L 451.175781 300.902344 L 451.171875 300.8125 L 451.175781 300.722656 L 451.183594 300.636719 L 451.199219 300.554688 L 451.21875 300.476563 L 451.246094 300.398438 L 451.277344 300.324219 L 451.316406 300.253906 L 451.359375 300.183594 L 451.40625 300.117188 L 451.460938 300.054688 L 451.523438 300 L 451.589844 299.945313 L 451.660156 299.898438 L 451.730469 299.859375 L 451.808594 299.828125 L 451.886719 299.800781 L 451.96875 299.777344 L 452.054688 299.761719 L 452.144531 299.753906 Z M 452.234375 299.75 "/>
<path style=" stroke:none;fill-rule:nonzero;fill:rgb(0%,0%,0%);fill-opacity:1;" d="M 459.253906 303.980469 L 459.40625 303.984375 L 459.554688 303.992188 L 459.699219 304.003906 L 459.839844 304.019531 L 459.980469 304.042969 L 460.117188 304.070313 L 460.253906 304.105469 L 460.382813 304.140625 L 460.515625 304.183594 L 460.640625 304.230469 L 460.765625 304.285156 L 460.890625 304.34375 L 461.015625 304.40625 L 461.136719 304.476563 L 461.257813 304.550781 L 461.378906 304.632813 L 461.496094 304.71875 L 461.613281 304.808594 L 461.730469 304.90625 L 461.847656 305.007813 L 461.128906 305.976563 L 461.042969 305.910156 L 460.953125 305.847656 L 460.867188 305.789063 L 460.695313 305.679688 L 460.523438 305.585938 L 460.351563 305.507813 L 460.261719 305.472656 L 460.175781 305.441406 L 460.085938 305.410156 L 459.996094 305.382813 L 459.90625 305.359375 L 459.8125 305.339844 L 459.625 305.308594 L 459.527344 305.300781 L 459.425781 305.296875 L 459.328125 305.292969 L 459.121094 305.304688 L 458.921875 305.332031 L 458.734375 305.375 L 458.554688 305.4375 L 458.382813 305.519531 L 458.222656 305.617188 L 458.070313 305.734375 L 457.929688 305.871094 L 457.796875 306.023438 L 457.671875 306.195313 L 457.5625 306.382813 L 457.464844 306.59375 L 457.378906 306.824219 L 457.304688 307.074219 L 457.238281 307.347656 L 457.1875 307.636719 L 457.148438 307.949219 L 457.117188 308.28125 L 457.101563 308.628906 L 457.09375 309.003906 L 457.117188 309.679688 L 457.183594 310.285156 L 457.296875 310.820313 L 457.453125 311.285156 L 457.652344 311.675781 L 457.898438 311.996094 L 458.1875 312.246094 L 458.523438 312.421875 L 458.902344 312.53125 L 459.328125 312.566406 L 459.425781 312.566406 L 459.527344 312.558594 L 459.621094 312.550781 L 459.808594 312.527344 L 459.988281 312.488281 L 460.078125 312.460938 L 460.160156 312.433594 L 460.246094 312.40625 L 460.328125 312.367188 L 460.5 312.28125 L 460.585938 312.234375 L 460.671875 312.183594 L 460.851563 312.074219 L 460.941406 312.011719 L 461.035156 311.949219 L 461.128906 311.882813 L 461.882813 312.871094 L 461.648438 313.070313 L 461.410156 313.25 L 461.164063 313.40625 L 460.914063 313.539063 L 460.65625 313.65625 L 460.390625 313.75 L 460.121094 313.824219 L 459.84375 313.875 L 459.5625 313.90625 L 459.273438 313.917969 L 458.917969 313.902344 L 458.578125 313.867188 L 458.253906 313.804688 L 457.941406 313.714844 L 457.648438 313.601563 L 457.371094 313.460938 L 457.109375 313.300781 L 456.859375 313.109375 L 456.628906 312.894531 L 456.410156 312.65625 L 456.214844 312.394531 L 456.042969 312.109375 L 455.886719 311.800781 L 455.753906 311.46875 L 455.640625 311.117188 L 455.550781 310.742188 L 455.476563 310.34375 L 455.425781 309.925781 L 455.394531 309.484375 L 455.386719 309.019531 L 455.390625 308.714844 L 455.402344 308.417969 L 455.425781 308.128906 L 455.460938 307.847656 L 455.503906 307.574219 L 455.554688 307.3125 L 455.613281 307.054688 L 455.683594 306.808594 L 455.765625 306.570313 L 455.855469 306.339844 L 455.953125 306.117188 L 456.0625 305.90625 L 456.179688 305.703125 L 456.304688 305.515625 L 456.433594 305.335938 L 456.574219 305.164063 L 456.71875 305.007813 L 456.875 304.859375 L 457.035156 304.71875 L 457.203125 304.59375 L 457.382813 304.476563 L 457.566406 304.371094 L 457.757813 304.28125 L 457.957031 304.199219 L 458.15625 304.132813 L 458.367188 304.078125 L 458.578125 304.035156 L 458.800781 304.003906 L 459.023438 303.988281 Z M 459.253906 303.980469 "/>
<path style=" stroke:none;fill-rule:nonzero;fill:rgb(0%,0%,0%);fill-opacity:1;" d="M 470.308594 308.660156 L 470.308594 308.738281 L 470.304688 308.816406 L 470.304688 308.894531 L 470.300781 308.976563 L 470.296875 309.0625 L 470.292969 309.144531 L 470.285156 309.324219 L 470.277344 309.414063 L 470.273438 309.507813 L 464.761719 309.507813 L 464.78125 309.828125 L 464.8125 310.132813 L 464.855469 310.417969 L 464.90625 310.683594 L 464.964844 310.933594 L 465.039063 311.164063 L 465.121094 311.375 L 465.210938 311.570313 L 465.316406 311.742188 L 465.429688 311.898438 L 465.550781 312.039063 L 465.683594 312.160156 L 465.824219 312.265625 L 465.972656 312.359375 L 466.132813 312.441406 L 466.296875 312.503906 L 466.472656 312.554688 L 466.65625 312.589844 L 466.847656 312.613281 L 467.050781 312.621094 L 467.175781 312.617188 L 467.304688 312.613281 L 467.425781 312.601563 L 467.542969 312.589844 L 467.660156 312.570313 L 467.773438 312.550781 L 467.886719 312.523438 L 467.996094 312.492188 L 468.097656 312.460938 L 468.203125 312.421875 L 468.304688 312.378906 L 468.410156 312.332031 L 468.519531 312.28125 L 468.625 312.222656 L 468.734375 312.160156 L 468.839844 312.09375 L 468.949219 312.023438 L 469.058594 311.945313 L 469.171875 311.863281 L 469.28125 311.773438 L 470 312.726563 L 469.730469 312.953125 L 469.453125 313.15625 L 469.171875 313.335938 L 468.878906 313.488281 L 468.578125 313.621094 L 468.273438 313.726563 L 467.960938 313.808594 L 467.640625 313.867188 L 467.3125 313.90625 L 466.976563 313.917969 L 466.613281 313.902344 L 466.269531 313.863281 L 465.941406 313.800781 L 465.625 313.710938 L 465.332031 313.597656 L 465.050781 313.457031 L 464.789063 313.289063 L 464.542969 313.097656 L 464.3125 312.882813 L 464.097656 312.636719 L 463.90625 312.367188 L 463.734375 312.078125 L 463.582031 311.769531 L 463.453125 311.4375 L 463.339844 311.085938 L 463.25 310.714844 L 463.179688 310.320313 L 463.128906 309.90625 L 463.101563 309.472656 L 463.089844 309.019531 L 463.097656 308.566406 L 463.128906 308.128906 L 463.175781 307.714844 L 463.246094 307.316406 L 463.332031 306.941406 L 463.441406 306.582031 L 463.566406 306.246094 L 463.710938 305.925781 L 463.875 305.628906 L 464.0625 305.347656 L 464.261719 305.089844 L 464.480469 304.855469 L 464.710938 304.652344 L 464.960938 304.472656 L 465.222656 304.324219 L 465.5 304.199219 L 465.792969 304.101563 L 466.101563 304.035156 L 466.421875 303.992188 L 466.761719 303.980469 L 467.09375 303.992188 L 467.414063 304.027344 L 467.714844 304.089844 L 468.003906 304.175781 L 468.273438 304.285156 L 468.527344 304.421875 L 468.765625 304.578125 L 468.992188 304.765625 L 469.199219 304.972656 L 469.390625 305.203125 L 469.5625 305.457031 L 469.71875 305.726563 L 469.859375 306.023438 L 469.976563 306.335938 L 470.078125 306.671875 L 470.160156 307.027344 L 470.226563 307.402344 L 470.269531 307.800781 L 470.296875 308.222656 Z M 468.742188 308.175781 L 468.722656 307.609375 L 468.664063 307.105469 L 468.566406 306.660156 L 468.425781 306.273438 L 468.25 305.945313 L 468.035156 305.679688 L 467.78125 305.472656 L 467.484375 305.324219 L 467.152344 305.234375 L 466.78125 305.203125 L 466.601563 305.210938 L 466.433594 305.234375 L 466.273438 305.273438 L 466.121094 305.324219 L 465.972656 305.394531 L 465.835938 305.476563 L 465.703125 305.574219 L 465.582031 305.6875 L 465.464844 305.816406 L 465.359375 305.960938 L 465.257813 306.117188 L 465.167969 306.292969 L 465.085938 306.488281 L 465.011719 306.699219 L 464.949219 306.933594 L 464.894531 307.183594 L 464.847656 307.453125 L 464.808594 307.738281 L 464.78125 308.046875 L 464.761719 308.371094 L 468.742188 308.371094 Z M 468.742188 308.175781 "/>
<path style=" stroke:none;fill-rule:nonzero;fill:rgb(0%,0%,0%);fill-opacity:1;" d="M 480.007813 299.175781 L 479.84375 299.445313 L 479.683594 299.710938 L 479.53125 299.972656 L 479.386719 300.226563 L 479.25 300.476563 L 479.117188 300.71875 L 478.992188 300.957031 L 478.875 301.191406 L 478.765625 301.417969 L 478.660156 301.640625 L 478.5625 301.863281 L 478.464844 302.089844 L 478.375 302.328125 L 478.289063 302.566406 L 478.132813 303.066406 L 478.058594 303.328125 L 477.992188 303.59375 L 477.925781 303.863281 L 477.867188 304.140625 L 477.816406 304.425781 L 477.769531 304.714844 L 477.730469 305.015625 L 477.695313 305.324219 L 477.664063 305.644531 L 477.640625 305.972656 L 477.621094 306.3125 L 477.609375 306.660156 L 477.601563 307.015625 L 477.597656 307.382813 L 477.601563 307.75 L 477.609375 308.105469 L 477.621094 308.453125 L 477.640625 308.789063 L 477.664063 309.121094 L 477.695313 309.4375 L 477.730469 309.75 L 477.769531 310.050781 L 477.816406 310.339844 L 477.867188 310.621094 L 477.925781 310.898438 L 478.058594 311.429688 L 478.132813 311.6875 L 478.210938 311.941406 L 478.289063 312.1875 L 478.375 312.429688 L 478.464844 312.667969 L 478.5625 312.898438 L 478.660156 313.125 L 478.765625 313.347656 L 478.875 313.574219 L 478.992188 313.808594 L 479.117188 314.046875 L 479.25 314.289063 L 479.386719 314.539063 L 479.53125 314.792969 L 479.683594 315.054688 L 479.84375 315.320313 L 480.007813 315.589844 L 478.964844 316.273438 L 478.769531 315.980469 L 478.585938 315.691406 L 478.40625 315.410156 L 478.234375 315.132813 L 478.070313 314.867188 L 477.914063 314.605469 L 477.765625 314.351563 L 477.625 314.101563 L 477.488281 313.863281 L 477.363281 313.628906 L 477.242188 313.390625 L 477.128906 313.144531 L 477.015625 312.890625 L 476.910156 312.632813 L 476.804688 312.363281 L 476.707031 312.089844 L 476.613281 311.804688 L 476.523438 311.515625 L 476.4375 311.214844 L 476.355469 310.910156 L 476.28125 310.597656 L 476.214844 310.273438 L 476.152344 309.941406 L 476.101563 309.601563 L 476.058594 309.253906 L 476.023438 308.898438 L 475.996094 308.53125 L 475.976563 308.15625 L 475.964844 307.773438 L 475.960938 307.382813 L 475.964844 306.992188 L 475.976563 306.609375 L 475.996094 306.234375 L 476.023438 305.867188 L 476.058594 305.511719 L 476.101563 305.160156 L 476.152344 304.820313 L 476.214844 304.492188 L 476.28125 304.167969 L 476.355469 303.855469 L 476.4375 303.546875 L 476.523438 303.25 L 476.613281 302.960938 L 476.707031 302.679688 L 476.804688 302.40625 L 476.910156 302.140625 L 477.015625 301.882813 L 477.128906 301.632813 L 477.242188 301.390625 L 477.363281 301.15625 L 477.488281 300.917969 L 477.625 300.671875 L 477.765625 300.421875 L 477.914063 300.167969 L 478.070313 299.902344 L 478.234375 299.632813 L 478.40625 299.359375 L 478.585938 299.074219 L 478.769531 298.785156 L 478.964844 298.492188 Z M 480.007813 299.175781 "/>
<path style=" stroke:none;fill-rule:nonzero;fill:rgb(0%,0%,0%);fill-opacity:1;" d="M 492.449219 313.683594 L 490.84375 313.683594 L 490.46875 308.085938 L 490.417969 307.355469 L 490.375 306.671875 L 490.335938 306.039063 L 490.304688 305.449219 L 490.273438 304.90625 L 490.25 304.414063 L 490.230469 303.964844 L 490.214844 303.5625 L 490.203125 303.207031 L 490.199219 302.898438 L 487.820313 312.277344 L 486.253906 312.277344 L 483.773438 302.898438 L 483.773438 303.234375 L 483.769531 303.609375 L 483.761719 304.027344 L 483.75 304.488281 L 483.730469 304.988281 L 483.707031 305.53125 L 483.683594 306.117188 L 483.652344 306.742188 L 483.613281 307.410156 L 483.574219 308.121094 L 483.214844 313.683594 L 481.628906 313.683594 L 482.582031 301.296875 L 484.761719 301.296875 L 487.066406 310.460938 L 489.28125 301.296875 L 491.492188 301.296875 Z M 492.449219 313.683594 "/>
<path style=" stroke:none;fill-rule:nonzero;fill:rgb(0%,0%,0%);fill-opacity:1;" d="M 505.660156 310.316406 L 505.652344 310.578125 L 505.628906 310.835938 L 505.589844 311.082031 L 505.53125 311.320313 L 505.460938 311.554688 L 505.375 311.777344 L 505.269531 311.996094 L 505.152344 312.207031 L 505.019531 312.40625 L 504.867188 312.601563 L 504.703125 312.785156 L 504.527344 312.957031 L 504.339844 313.113281 L 504.140625 313.253906 L 503.925781 313.378906 L 503.703125 313.496094 L 503.46875 313.59375 L 503.21875 313.679688 L 502.960938 313.75 L 502.691406 313.808594 L 502.691406 316.453125 L 501.410156 316.453125 L 501.410156 313.863281 L 501.027344 313.832031 L 500.65625 313.773438 L 500.292969 313.6875 L 499.941406 313.574219 L 499.601563 313.433594 L 499.273438 313.269531 L 498.953125 313.074219 L 498.648438 312.855469 L 498.351563 312.605469 L 498.0625 312.332031 L 498.925781 311.394531 L 499.054688 311.507813 L 499.179688 311.617188 L 499.308594 311.71875 L 499.566406 311.90625 L 499.695313 311.992188 L 499.828125 312.070313 L 499.957031 312.144531 L 500.089844 312.214844 L 500.222656 312.277344 L 500.359375 312.335938 L 500.496094 312.386719 L 500.636719 312.433594 L 500.78125 312.472656 L 500.929688 312.507813 L 501.082031 312.535156 L 501.234375 312.558594 L 501.554688 312.582031 L 501.71875 312.585938 L 501.921875 312.578125 L 502.117188 312.5625 L 502.304688 312.53125 L 502.484375 312.488281 L 502.652344 312.4375 L 502.816406 312.371094 L 502.96875 312.292969 L 503.113281 312.203125 L 503.246094 312.101563 L 503.375 311.992188 L 503.492188 311.867188 L 503.601563 311.734375 L 503.695313 311.597656 L 503.777344 311.449219 L 503.847656 311.292969 L 503.902344 311.128906 L 503.945313 310.957031 L 503.976563 310.773438 L 503.996094 310.585938 L 504.003906 310.386719 L 504 310.210938 L 503.984375 310.042969 L 503.957031 309.882813 L 503.921875 309.730469 L 503.878906 309.582031 L 503.820313 309.445313 L 503.757813 309.3125 L 503.679688 309.191406 L 503.59375 309.074219 L 503.5 308.964844 L 503.390625 308.863281 L 503.265625 308.761719 L 503.121094 308.660156 L 502.964844 308.558594 L 502.789063 308.460938 L 502.597656 308.367188 L 502.386719 308.269531 L 502.164063 308.175781 L 501.921875 308.085938 L 501.664063 307.996094 L 501.335938 307.875 L 501.023438 307.75 L 500.734375 307.621094 L 500.460938 307.492188 L 500.210938 307.355469 L 499.976563 307.214844 L 499.761719 307.074219 L 499.566406 306.929688 L 499.390625 306.78125 L 499.234375 306.625 L 499.09375 306.464844 L 498.96875 306.289063 L 498.855469 306.109375 L 498.761719 305.917969 L 498.679688 305.71875 L 498.613281 305.507813 L 498.5625 305.289063 L 498.523438 305.058594 L 498.503906 304.820313 L 498.496094 304.574219 L 498.503906 304.335938 L 498.527344 304.105469 L 498.570313 303.882813 L 498.625 303.667969 L 498.699219 303.457031 L 498.789063 303.257813 L 498.890625 303.0625 L 499.015625 302.875 L 499.152344 302.695313 L 499.304688 302.523438 L 499.472656 302.359375 L 499.648438 302.210938 L 499.835938 302.074219 L 500.03125 301.953125 L 500.238281 301.84375 L 500.453125 301.746094 L 500.675781 301.664063 L 500.914063 301.59375 L 501.15625 301.539063 L 501.410156 301.496094 L 501.410156 298.867188 L 502.691406 298.867188 L 502.691406 301.496094 L 502.847656 301.519531 L 503 301.550781 L 503.148438 301.582031 L 503.296875 301.621094 L 503.441406 301.664063 L 503.582031 301.710938 L 503.71875 301.761719 L 503.984375 301.878906 L 504.242188 302.011719 L 504.367188 302.085938 L 504.496094 302.164063 L 504.621094 302.246094 L 504.746094 302.332031 L 504.871094 302.425781 L 504.992188 302.523438 L 505.113281 302.625 L 505.234375 302.734375 L 505.355469 302.847656 L 504.507813 303.78125 L 504.394531 303.675781 L 504.28125 303.578125 L 504.167969 303.484375 L 504.054688 303.394531 L 503.941406 303.3125 L 503.824219 303.238281 L 503.707031 303.167969 L 503.589844 303.101563 L 503.472656 303.042969 L 503.355469 302.992188 L 503.234375 302.941406 L 503.113281 302.898438 L 502.992188 302.863281 L 502.867188 302.828125 L 502.738281 302.800781 L 502.609375 302.777344 L 502.480469 302.761719 L 502.347656 302.75 L 502.214844 302.742188 L 502.078125 302.738281 L 501.90625 302.742188 L 501.738281 302.757813 L 501.578125 302.78125 L 501.425781 302.816406 L 501.28125 302.859375 L 501.140625 302.914063 L 501.011719 302.976563 L 500.886719 303.050781 L 500.765625 303.132813 L 500.65625 303.222656 L 500.554688 303.320313 L 500.46875 303.425781 L 500.390625 303.535156 L 500.320313 303.652344 L 500.265625 303.773438 L 500.21875 303.902344 L 500.179688 304.039063 L 500.15625 304.179688 L 500.140625 304.328125 L 500.132813 304.484375 L 500.140625 304.695313 L 500.164063 304.890625 L 500.183594 304.984375 L 500.203125 305.074219 L 500.230469 305.160156 L 500.261719 305.246094 L 500.292969 305.324219 L 500.332031 305.402344 L 500.378906 305.472656 L 500.429688 305.542969 L 500.488281 305.613281 L 500.550781 305.683594 L 500.621094 305.75 L 500.695313 305.816406 L 500.773438 305.878906 L 500.863281 305.945313 L 500.953125 306.007813 L 501.050781 306.066406 L 501.160156 306.128906 L 501.277344 306.191406 L 501.402344 306.253906 L 501.535156 306.316406 L 501.675781 306.378906 L 501.828125 306.441406 L 501.984375 306.503906 L 502.152344 306.570313 L 502.328125 306.632813 L 502.507813 306.699219 L 502.820313 306.8125 L 503.117188 306.929688 L 503.394531 307.054688 L 503.660156 307.183594 L 503.90625 307.316406 L 504.132813 307.453125 L 504.347656 307.59375 L 504.542969 307.742188 L 504.722656 307.890625 L 504.886719 308.046875 L 505.03125 308.214844 L 505.164063 308.390625 L 505.28125 308.585938 L 505.382813 308.792969 L 505.464844 309.011719 L 505.535156 309.246094 L 505.589844 309.492188 L 505.628906 309.753906 L 505.652344 310.027344 Z M 505.660156 310.316406 "/>
<path style=" stroke:none;fill-rule:nonzero;fill:rgb(0%,0%,0%);fill-opacity:1;" d="M 508.015625 298.492188 L 508.214844 298.792969 L 508.402344 299.085938 L 508.585938 299.375 L 508.757813 299.652344 L 508.921875 299.925781 L 509.078125 300.191406 L 509.226563 300.445313 L 509.367188 300.695313 L 509.496094 300.9375 L 509.621094 301.171875 L 509.738281 301.40625 L 509.855469 301.648438 L 509.96875 301.898438 L 510.074219 302.15625 L 510.175781 302.421875 L 510.277344 302.699219 L 510.371094 302.980469 L 510.460938 303.269531 L 510.546875 303.566406 L 510.628906 303.871094 L 510.703125 304.183594 L 510.769531 304.503906 L 510.828125 304.832031 L 510.882813 305.167969 L 510.925781 305.515625 L 510.960938 305.871094 L 510.988281 306.234375 L 511.007813 306.609375 L 511.019531 306.992188 L 511.023438 307.382813 L 511.019531 307.773438 L 511.007813 308.15625 L 510.988281 308.53125 L 510.960938 308.898438 L 510.925781 309.253906 L 510.882813 309.601563 L 510.828125 309.941406 L 510.769531 310.273438 L 510.703125 310.597656 L 510.628906 310.910156 L 510.546875 311.210938 L 510.460938 311.507813 L 510.371094 311.792969 L 510.277344 312.074219 L 510.175781 312.347656 L 510.074219 312.609375 L 509.96875 312.867188 L 509.855469 313.117188 L 509.738281 313.359375 L 509.621094 313.59375 L 509.496094 313.828125 L 509.367188 314.066406 L 509.226563 314.316406 L 509.078125 314.574219 L 508.921875 314.839844 L 508.757813 315.109375 L 508.585938 315.390625 L 508.402344 315.675781 L 508.214844 315.972656 L 508.015625 316.273438 L 506.972656 315.589844 L 507.140625 315.320313 L 507.296875 315.054688 L 507.449219 314.792969 L 507.59375 314.539063 L 507.730469 314.289063 L 507.859375 314.046875 L 507.980469 313.808594 L 508.097656 313.574219 L 508.203125 313.347656 L 508.304688 313.125 L 508.402344 312.898438 L 508.5 312.667969 L 508.589844 312.429688 L 508.675781 312.1875 L 508.753906 311.941406 L 508.832031 311.6875 L 508.90625 311.429688 L 509.039063 310.898438 L 509.097656 310.621094 L 509.152344 310.335938 L 509.203125 310.042969 L 509.246094 309.742188 L 509.28125 309.429688 L 509.3125 309.109375 L 509.339844 308.78125 L 509.359375 308.445313 L 509.375 308.097656 L 509.382813 307.746094 L 509.386719 307.382813 L 509.382813 307.019531 L 509.375 306.664063 L 509.359375 306.320313 L 509.339844 305.984375 L 509.3125 305.660156 L 509.28125 305.339844 L 509.246094 305.03125 L 509.203125 304.734375 L 509.152344 304.441406 L 509.097656 304.160156 L 509.039063 303.882813 L 508.972656 303.609375 L 508.90625 303.34375 L 508.832031 303.085938 L 508.753906 302.832031 L 508.675781 302.585938 L 508.589844 302.34375 L 508.5 302.109375 L 508.402344 301.882813 L 508.304688 301.660156 L 508.203125 301.433594 L 508.097656 301.203125 L 507.980469 300.964844 L 507.859375 300.726563 L 507.730469 300.480469 L 507.59375 300.226563 L 507.449219 299.972656 L 507.296875 299.710938 L 507.140625 299.445313 L 506.972656 299.175781 Z M 508.015625 298.492188 "/>
<path style=" stroke:none;fill-rule:nonzero;fill:rgb(0%,0%,0%);fill-opacity:1;" d="M 33.78125 66.109375 L 33.785156 65.917969 L 33.792969 65.730469 L 33.808594 65.550781 L 33.832031 65.375 L 33.859375 65.203125 L 33.890625 65.035156 L 33.976563 64.714844 L 34.085938 64.417969 L 34.148438 64.273438 L 34.214844 64.132813 L 34.371094 63.84375 L 34.460938 63.703125 L 34.554688 63.5625 L 34.660156 63.417969 L 34.765625 63.277344 L 34.882813 63.136719 L 35.003906 62.996094 L 36.015625 63.859375 L 35.925781 63.964844 L 35.84375 64.070313 L 35.765625 64.171875 L 35.691406 64.277344 L 35.621094 64.382813 L 35.558594 64.488281 L 35.5 64.589844 L 35.445313 64.695313 L 35.394531 64.800781 L 35.347656 64.90625 L 35.269531 65.109375 L 35.238281 65.214844 L 35.210938 65.324219 L 35.1875 65.433594 L 35.167969 65.546875 L 35.152344 65.664063 L 35.140625 65.78125 L 35.132813 65.898438 L 35.132813 66.019531 L 35.144531 66.296875 L 35.179688 66.558594 L 35.242188 66.8125 L 35.324219 67.050781 L 35.433594 67.28125 L 35.566406 67.496094 L 35.722656 67.703125 L 35.902344 67.898438 L 36.109375 68.082031 L 36.335938 68.253906 L 36.589844 68.410156 L 36.871094 68.550781 L 37.183594 68.675781 L 37.523438 68.78125 L 37.894531 68.875 L 38.292969 68.949219 L 38.722656 69.007813 L 39.183594 69.046875 L 39.671875 69.070313 L 40.191406 69.082031 L 40.695313 69.070313 L 41.171875 69.046875 L 41.625 69.007813 L 42.046875 68.949219 L 42.445313 68.875 L 42.8125 68.78125 L 43.15625 68.675781 L 43.472656 68.550781 L 43.761719 68.410156 L 44.023438 68.253906 L 44.257813 68.082031 L 44.464844 67.898438 L 44.648438 67.703125 L 44.808594 67.496094 L 44.941406 67.28125 L 45.050781 67.050781 L 45.136719 66.8125 L 45.199219 66.558594 L 45.234375 66.296875 L 45.246094 66.019531 L 45.246094 65.882813 L 45.238281 65.746094 L 45.226563 65.617188 L 45.207031 65.492188 L 45.183594 65.367188 L 45.15625 65.25 L 45.125 65.132813 L 45.085938 65.023438 L 45.042969 64.917969 L 44.996094 64.816406 L 44.941406 64.710938 L 44.886719 64.609375 L 44.824219 64.503906 L 44.757813 64.398438 L 44.683594 64.289063 L 44.609375 64.175781 L 44.527344 64.066406 L 44.441406 63.949219 L 44.351563 63.835938 L 44.257813 63.714844 L 45.246094 62.871094 L 45.511719 63.144531 L 45.746094 63.433594 L 45.953125 63.730469 L 46.136719 64.035156 L 46.289063 64.355469 L 46.410156 64.683594 L 46.507813 65.023438 L 46.578125 65.375 L 46.621094 65.738281 L 46.632813 66.109375 L 46.625 66.382813 L 46.605469 66.652344 L 46.570313 66.914063 L 46.519531 67.171875 L 46.453125 67.421875 L 46.375 67.664063 L 46.28125 67.902344 L 46.171875 68.132813 L 46.050781 68.355469 L 45.914063 68.578125 L 45.761719 68.785156 L 45.597656 68.984375 L 45.417969 69.171875 L 45.222656 69.355469 L 45.015625 69.527344 L 44.789063 69.6875 L 44.554688 69.84375 L 44.300781 69.988281 L 44.035156 70.125 L 43.753906 70.25 L 43.457031 70.363281 L 43.144531 70.464844 L 42.820313 70.554688 L 42.484375 70.628906 L 42.132813 70.695313 L 41.769531 70.75 L 41.394531 70.789063 L 41.007813 70.820313 L 40.605469 70.839844 L 40.191406 70.84375 L 39.777344 70.839844 L 39.378906 70.820313 L 38.996094 70.789063 L 38.621094 70.746094 L 38.265625 70.691406 L 37.917969 70.625 L 37.585938 70.542969 L 37.261719 70.453125 L 36.957031 70.347656 L 36.660156 70.234375 L 36.382813 70.101563 L 36.113281 69.964844 L 35.863281 69.816406 L 35.625 69.660156 L 35.402344 69.496094 L 35.191406 69.320313 L 35 69.140625 L 34.820313 68.949219 L 34.652344 68.75 L 34.5 68.539063 L 34.363281 68.320313 L 34.242188 68.097656 L 34.132813 67.867188 L 34.039063 67.632813 L 33.960938 67.394531 L 33.898438 67.148438 L 33.847656 66.894531 L 33.8125 66.640625 L 33.789063 66.378906 Z M 33.78125 66.109375 "/>
<path style=" stroke:none;fill-rule:nonzero;fill:rgb(0%,0%,0%);fill-opacity:1;" d="M 36.699219 57.847656 L 36.710938 57.492188 L 36.75 57.152344 L 36.8125 56.832031 L 36.902344 56.523438 L 37.015625 56.234375 L 37.15625 55.957031 L 37.324219 55.699219 L 37.515625 55.457031 L 37.734375 55.230469 L 37.976563 55.023438 L 38.242188 54.832031 L 38.53125 54.660156 L 38.84375 54.507813 L 39.175781 54.378906 L 39.53125 54.265625 L 39.910156 54.175781 L 40.3125 54.105469 L 40.734375 54.054688 L 41.179688 54.023438 L 41.648438 54.015625 L 42.097656 54.023438 L 42.53125 54.054688 L 42.945313 54.105469 L 43.339844 54.179688 L 43.714844 54.269531 L 44.070313 54.382813 L 44.40625 54.515625 L 44.722656 54.671875 L 45.023438 54.84375 L 45.300781 55.039063 L 45.554688 55.253906 L 45.78125 55.480469 L 45.980469 55.726563 L 46.152344 55.984375 L 46.300781 56.261719 L 46.421875 56.550781 L 46.515625 56.855469 L 46.582031 57.175781 L 46.621094 57.515625 L 46.632813 57.867188 L 46.621094 58.222656 L 46.582031 58.5625 L 46.515625 58.886719 L 46.421875 59.195313 L 46.304688 59.488281 L 46.160156 59.761719 L 45.988281 60.023438 L 45.792969 60.269531 L 45.570313 60.496094 L 45.320313 60.710938 L 45.046875 60.902344 L 44.753906 61.074219 L 44.4375 61.222656 L 44.105469 61.355469 L 43.75 61.464844 L 43.375 61.558594 L 42.976563 61.628906 L 42.5625 61.679688 L 42.125 61.707031 L 41.664063 61.71875 L 41.203125 61.707031 L 40.765625 61.675781 L 40.347656 61.625 L 39.949219 61.554688 L 39.574219 61.460938 L 39.21875 61.347656 L 38.886719 61.214844 L 38.574219 61.0625 L 38.28125 60.886719 L 38.011719 60.691406 L 37.761719 60.480469 L 37.539063 60.25 L 37.339844 60.003906 L 37.171875 59.746094 L 37.027344 59.46875 L 36.90625 59.175781 L 36.816406 58.867188 L 36.75 58.542969 L 36.710938 58.203125 Z M 37.992188 57.847656 L 38.003906 58.054688 L 38.03125 58.253906 L 38.074219 58.441406 L 38.136719 58.617188 L 38.21875 58.785156 L 38.316406 58.941406 L 38.433594 59.089844 L 38.570313 59.226563 L 38.722656 59.351563 L 38.894531 59.46875 L 39.082031 59.574219 L 39.285156 59.667969 L 39.511719 59.753906 L 39.761719 59.824219 L 40.027344 59.886719 L 40.316406 59.9375 L 40.621094 59.976563 L 40.949219 60.003906 L 41.296875 60.019531 L 41.664063 60.027344 L 42.367188 60.003906 L 42.996094 59.941406 L 43.546875 59.832031 L 44.027344 59.679688 L 44.433594 59.488281 L 44.765625 59.25 L 45.023438 58.96875 L 45.207031 58.644531 L 45.320313 58.277344 L 45.355469 57.867188 L 45.320313 57.457031 L 45.207031 57.089844 L 45.023438 56.765625 L 44.761719 56.484375 L 44.429688 56.246094 L 44.019531 56.050781 L 43.539063 55.902344 L 42.984375 55.792969 L 42.351563 55.726563 L 41.648438 55.707031 L 41.28125 55.710938 L 40.933594 55.726563 L 40.605469 55.753906 L 40.296875 55.792969 L 40.007813 55.839844 L 39.742188 55.902344 L 39.496094 55.972656 L 39.269531 56.050781 L 39.0625 56.144531 L 38.875 56.246094 L 38.707031 56.359375 L 38.558594 56.484375 L 38.425781 56.617188 L 38.3125 56.761719 L 38.214844 56.917969 L 38.136719 57.082031 L 38.074219 57.257813 L 38.027344 57.445313 L 38.003906 57.640625 Z M 37.992188 57.847656 "/>
<path style=" stroke:none;fill-rule:nonzero;fill:rgb(0%,0%,0%);fill-opacity:1;" d="M 46.398438 45.175781 L 46.398438 46.582031 L 44.976563 46.671875 L 45.292969 46.875 L 45.574219 47.09375 L 45.824219 47.324219 L 46.039063 47.570313 L 46.21875 47.828125 L 46.367188 48.097656 L 46.484375 48.382813 L 46.566406 48.679688 L 46.617188 48.992188 L 46.632813 49.316406 L 46.625 49.539063 L 46.605469 49.75 L 46.566406 49.953125 L 46.515625 50.144531 L 46.449219 50.328125 L 46.367188 50.503906 L 46.273438 50.664063 L 46.160156 50.820313 L 46.035156 50.964844 L 45.894531 51.097656 L 45.742188 51.222656 L 45.578125 51.332031 L 45.40625 51.429688 L 45.222656 51.511719 L 45.027344 51.585938 L 44.820313 51.644531 L 44.605469 51.6875 L 44.382813 51.71875 L 44.144531 51.738281 L 43.898438 51.746094 L 36.933594 51.746094 L 36.933594 50.125 L 43.914063 50.125 L 44.066406 50.113281 L 44.210938 50.097656 L 44.347656 50.078125 L 44.472656 50.050781 L 44.59375 50.015625 L 44.703125 49.976563 L 44.800781 49.929688 L 44.894531 49.878906 L 44.976563 49.820313 L 45.050781 49.753906 L 45.113281 49.679688 L 45.171875 49.597656 L 45.21875 49.511719 L 45.261719 49.421875 L 45.296875 49.320313 L 45.320313 49.21875 L 45.339844 49.105469 L 45.351563 48.988281 L 45.355469 48.867188 L 45.339844 48.628906 L 45.292969 48.398438 L 45.214844 48.171875 L 45.101563 47.957031 L 44.960938 47.746094 L 44.785156 47.542969 L 44.578125 47.34375 L 44.34375 47.15625 L 44.074219 46.972656 L 43.773438 46.796875 L 36.933594 46.796875 L 36.933594 45.175781 Z M 46.398438 45.175781 "/>
<path style=" stroke:none;fill-rule:nonzero;fill:rgb(0%,0%,0%);fill-opacity:1;" d="M 36.699219 38.03125 L 36.707031 37.808594 L 36.726563 37.597656 L 36.765625 37.394531 L 36.820313 37.203125 L 36.886719 37.023438 L 36.96875 36.851563 L 37.066406 36.691406 L 37.179688 36.539063 L 37.308594 36.398438 L 37.453125 36.265625 L 37.605469 36.144531 L 37.773438 36.03125 L 37.949219 35.9375 L 38.136719 35.851563 L 38.335938 35.78125 L 38.546875 35.722656 L 38.769531 35.675781 L 39.003906 35.644531 L 39.25 35.625 L 39.503906 35.617188 L 46.398438 35.617188 L 46.398438 37.238281 L 39.703125 37.238281 L 39.523438 37.242188 L 39.359375 37.25 L 39.199219 37.265625 L 39.054688 37.289063 L 38.917969 37.316406 L 38.789063 37.347656 L 38.675781 37.386719 L 38.570313 37.433594 L 38.472656 37.484375 L 38.390625 37.542969 L 38.3125 37.609375 L 38.242188 37.679688 L 38.179688 37.757813 L 38.125 37.839844 L 38.078125 37.929688 L 38.042969 38.027344 L 38.011719 38.132813 L 37.992188 38.242188 L 37.980469 38.359375 L 37.976563 38.480469 L 37.992188 38.714844 L 38.042969 38.945313 L 38.128906 39.171875 L 38.246094 39.394531 L 38.398438 39.613281 L 38.585938 39.828125 L 38.804688 40.039063 L 39.058594 40.242188 L 39.347656 40.445313 L 39.667969 40.640625 L 46.398438 40.640625 L 46.398438 42.261719 L 36.933594 42.261719 L 36.933594 40.855469 L 38.335938 40.730469 L 38.023438 40.503906 L 37.746094 40.269531 L 37.5 40.027344 L 37.289063 39.769531 L 37.105469 39.507813 L 36.960938 39.230469 L 36.84375 38.945313 L 36.761719 38.652344 L 36.714844 38.347656 Z M 36.699219 38.03125 "/>
<path style=" stroke:none;fill-rule:nonzero;fill:rgb(0%,0%,0%);fill-opacity:1;" d="M 45.984375 28.292969 L 46.109375 28.472656 L 46.21875 28.660156 L 46.316406 28.851563 L 46.402344 29.042969 L 46.472656 29.242188 L 46.53125 29.445313 L 46.574219 29.648438 L 46.609375 29.859375 L 46.628906 30.074219 L 46.632813 30.289063 L 46.628906 30.515625 L 46.605469 30.730469 L 46.574219 30.933594 L 46.527344 31.128906 L 46.46875 31.3125 L 46.394531 31.484375 L 46.308594 31.648438 L 46.207031 31.800781 L 46.09375 31.941406 L 45.96875 32.074219 L 45.828125 32.1875 L 45.679688 32.292969 L 45.519531 32.382813 L 45.347656 32.464844 L 45.167969 32.53125 L 44.972656 32.585938 L 44.769531 32.628906 L 44.554688 32.660156 L 44.332031 32.679688 L 44.097656 32.683594 L 38.15625 32.683594 L 38.15625 34.035156 L 36.933594 34.035156 L 36.933594 32.683594 L 34.753906 32.683594 L 34.554688 31.066406 L 36.933594 31.066406 L 36.933594 28.976563 L 38.15625 29.15625 L 38.15625 31.066406 L 44.078125 31.066406 L 44.308594 31.054688 L 44.519531 31.023438 L 44.703125 30.972656 L 44.859375 30.898438 L 44.996094 30.808594 L 45.105469 30.695313 L 45.191406 30.5625 L 45.253906 30.40625 L 45.289063 30.234375 L 45.300781 30.039063 L 45.300781 29.976563 L 45.289063 29.800781 L 45.277344 29.746094 L 45.269531 29.691406 L 45.246094 29.582031 L 45.230469 29.53125 L 45.210938 29.480469 L 45.171875 29.371094 L 45.125 29.253906 L 45.070313 29.136719 L 45.042969 29.074219 L 45.011719 29.015625 L 44.976563 28.949219 L 44.941406 28.886719 Z M 45.984375 28.292969 "/>
</g>
</svg>
