<?xml version="1.0" encoding="UTF-8"?>
<svg xmlns="http://www.w3.org/2000/svg" xmlns:xlink="http://www.w3.org/1999/xlink" width="504pt" height="360pt" viewBox="0 0 504 360" version="1.1">
<g id="surface34">
<rect x="0" y="0" width="504" height="360" style="fill:rgb(100%,100%,100%);fill-opacity:1;stroke:none;"/>
<path style="fill-rule:nonzero;fill:rgb(5.098039%,3.137255%,52.941176%);fill-opacity:1;stroke-width:3.200935;stroke-linecap:round;stroke-linejoin:round;stroke:rgb(100%,100%,100%);stroke-opacity:1;stroke-miterlimit:10;" d="M 211.644531 171.480469 L 211.644531 56.972656 L 207.765625 57.039063 L 203.890625 57.234375 L 200.023438 57.566406 L 196.171875 58.023438 L 192.335938 58.613281 L 188.523438 59.332031 L 184.738281 60.179688 L 180.980469 61.15625 L 177.261719 62.257813 L 173.582031 63.484375 L 169.945313 64.835938 L 166.355469 66.308594 L 162.820313 67.90625 L 159.335938 69.617188 L 155.917969 71.449219 L 152.558594 73.394531 L 149.269531 75.453125 L 146.054688 77.621094 L 142.910156 79.894531 L 139.847656 82.277344 L 136.867188 84.761719 L 133.972656 87.34375 L 131.164063 90.023438 L 128.453125 92.796875 L 125.835938 95.660156 L 123.316406 98.609375 L 120.898438 101.644531 L 118.582031 104.757813 L 116.375 107.949219 L 114.277344 111.214844 L 112.292969 114.546875 L 110.421875 117.945313 L 108.664063 121.40625 L 107.027344 124.921875 L 105.511719 128.496094 L 104.117188 132.113281 L 102.84375 135.78125 L 101.695313 139.488281 L 100.675781 143.230469 L 99.78125 147.003906 L 99.015625 150.808594 L 98.382813 154.636719 L 97.875 158.484375 L 97.5 162.34375 L 97.257813 166.21875 L 97.144531 170.09375 L 97.164063 173.976563 L 97.3125 177.851563 L 97.59375 181.722656 L 98.007813 185.578125 L 98.550781 189.421875 L 99.222656 193.242188 L 100.023438 197.039063 L 100.953125 200.804688 L 102.011719 204.539063 L 103.195313 208.234375 L 104.5 211.886719 L 105.933594 215.492188 L 107.484375 219.050781 L 109.15625 222.550781 L 110.945313 225.992188 L 112.847656 229.375 L 114.867188 232.6875 L 116.996094 235.929688 L 119.234375 239.101563 L 121.578125 242.191406 L 124.023438 245.203125 L 126.574219 248.128906 L 129.21875 250.96875 L 131.957031 253.714844 L 134.789063 256.367188 L 137.710938 258.921875 L 140.714844 261.375 L 143.800781 263.726563 L 146.964844 265.972656 L 150.203125 268.109375 L 153.511719 270.136719 L 156.886719 272.046875 L 160.324219 273.847656 L 163.824219 275.527344 L 167.375 277.085938 L 170.980469 278.523438 L 174.628906 279.839844 L 178.320313 281.035156 L 182.050781 282.097656 L 185.816406 283.039063 L 189.609375 283.847656 L 193.429688 284.53125 L 197.269531 285.082031 L 201.128906 285.503906 L 204.996094 285.796875 L 208.871094 285.957031 L 212.753906 285.984375 L 216.628906 285.878906 L 220.503906 285.644531 L 224.367188 285.28125 L 228.214844 284.785156 L 232.042969 284.15625 L 235.847656 283.402344 L 239.625 282.515625 L 243.371094 281.503906 L 247.082031 280.367188 L 250.75 279.105469 L 254.375 277.71875 L 257.949219 276.210938 L 261.46875 274.582031 L 264.933594 272.832031 L 268.335938 270.96875 L 271.675781 268.992188 L 274.945313 266.902344 L 278.140625 264.703125 L 281.261719 262.398438 L 284.300781 259.984375 L 287.257813 257.472656 L 290.125 254.863281 L 292.90625 252.15625 L 295.59375 249.355469 L 298.183594 246.46875 L 271.324219 223.195313 L 268.34375 220.609375 L 256.40625 210.265625 L 253.421875 207.683594 L 226.5625 184.410156 L 223.582031 181.824219 Z M 211.644531 171.480469 "/>
<path style="fill-rule:nonzero;fill:rgb(56.470588%,5.098039%,64.313725%);fill-opacity:1;stroke-width:3.200935;stroke-linecap:round;stroke-linejoin:round;stroke:rgb(100%,100%,100%);stroke-opacity:1;stroke-miterlimit:10;" d="M 211.644531 171.480469 L 223.582031 181.824219 L 226.5625 184.410156 L 253.421875 207.683594 L 256.40625 210.265625 L 268.34375 220.609375 L 271.324219 223.195313 L 298.183594 246.46875 L 300.671875 243.492188 L 303.0625 240.4375 L 305.347656 237.300781 L 307.523438 234.085938 L 309.585938 230.800781 L 311.542969 227.449219 L 313.378906 224.035156 L 315.101563 220.558594 L 316.707031 217.023438 L 318.1875 213.4375 L 319.546875 209.804688 L 320.785156 206.128906 L 321.894531 202.410156 L 322.878906 198.65625 L 323.738281 194.871094 L 324.464844 191.0625 L 325.0625 187.230469 L 325.53125 183.378906 L 325.871094 179.511719 L 326.074219 175.636719 L 326.152344 171.757813 L 326.09375 167.878906 L 325.90625 164.003906 L 325.589844 160.136719 L 325.136719 156.28125 L 324.558594 152.445313 L 323.847656 148.632813 L 323.011719 144.84375 L 322.042969 141.085938 L 320.949219 137.363281 L 319.730469 133.679688 L 318.390625 130.039063 L 316.925781 126.449219 L 315.339844 122.90625 L 313.632813 119.421875 L 311.8125 115.996094 L 309.875 112.632813 L 307.824219 109.339844 L 305.664063 106.117188 L 303.394531 102.96875 L 301.019531 99.902344 L 298.546875 96.914063 L 295.96875 94.011719 L 293.296875 91.199219 L 290.53125 88.480469 L 287.671875 85.855469 L 284.726563 83.328125 L 281.699219 80.902344 L 278.589844 78.582031 L 275.40625 76.367188 L 272.144531 74.261719 L 268.816406 72.269531 L 265.421875 70.386719 L 261.96875 68.625 L 258.453125 66.980469 L 254.886719 65.453125 L 251.269531 64.046875 L 247.609375 62.769531 L 243.90625 61.613281 L 242.792969 65.402344 L 241.679688 69.1875 L 239.453125 76.765625 L 238.34375 80.554688 L 233.890625 95.710938 L 232.78125 99.496094 L 229.441406 110.863281 L 228.332031 114.652344 L 224.992188 126.019531 L 223.878906 129.804688 L 222.769531 133.59375 L 218.316406 148.75 L 217.207031 152.539063 L 214.980469 160.117188 L 213.867188 163.902344 L 212.757813 167.691406 Z M 211.644531 171.480469 "/>
<path style="fill-rule:nonzero;fill:rgb(74.901961%,22.352941%,51.764706%);fill-opacity:1;stroke-width:3.200935;stroke-linecap:round;stroke-linejoin:round;stroke:rgb(100%,100%,100%);stroke-opacity:1;stroke-miterlimit:10;" d="M 211.644531 171.480469 L 212.757813 167.691406 L 213.867188 163.902344 L 214.980469 160.117188 L 217.207031 152.539063 L 218.316406 148.75 L 222.769531 133.59375 L 223.878906 129.804688 L 224.992188 126.019531 L 228.332031 114.652344 L 229.441406 110.863281 L 232.78125 99.496094 L 233.890625 95.710938 L 238.34375 80.554688 L 239.453125 76.765625 L 241.679688 69.1875 L 242.792969 65.402344 L 243.90625 61.613281 L 240.152344 60.578125 L 236.363281 59.671875 L 232.550781 58.898438 L 228.710938 58.253906 L 224.851563 57.738281 L 220.976563 57.355469 L 217.09375 57.101563 L 216.90625 61.046875 L 216.714844 64.992188 L 216.527344 68.933594 L 216.152344 76.824219 L 215.964844 80.765625 L 215.402344 92.601563 L 215.214844 96.542969 L 215.027344 100.488281 L 214.835938 104.433594 L 214.648438 108.375 L 214.273438 116.265625 L 214.085938 120.207031 L 213.710938 128.097656 L 213.523438 132.039063 L 213.148438 139.929688 L 212.957031 143.871094 L 212.582031 151.761719 L 212.394531 155.703125 L 211.832031 167.539063 Z M 211.644531 171.480469 "/>
<path style="fill-rule:nonzero;fill:rgb(88.235294%,39.215686%,38.431373%);fill-opacity:1;stroke-width:3.200935;stroke-linecap:round;stroke-linejoin:round;stroke:rgb(100%,100%,100%);stroke-opacity:1;stroke-miterlimit:10;" d="M 211.644531 171.480469 L 211.832031 167.539063 L 212.394531 155.703125 L 212.582031 151.761719 L 212.957031 143.871094 L 213.148438 139.929688 L 213.523438 132.039063 L 213.710938 128.097656 L 214.085938 120.207031 L 214.273438 116.265625 L 214.648438 108.375 L 214.835938 104.433594 L 215.027344 100.488281 L 215.214844 96.542969 L 215.402344 92.601563 L 215.964844 80.765625 L 216.152344 76.824219 L 216.527344 68.933594 L 216.714844 64.992188 L 216.90625 61.046875 L 217.09375 57.101563 L 211.644531 56.972656 Z M 211.644531 171.480469 "/>
<path style="fill:none;stroke-width:3.200935;stroke-linecap:round;stroke-linejoin:round;stroke:rgb(100%,100%,100%);stroke-opacity:1;stroke-miterlimit:10;" d="M 211.644531 171.480469 L 211.644531 56.972656 Z M 211.644531 171.480469 "/>
<path style="fill:none;stroke-width:3.200935;stroke-linecap:round;stroke-linejoin:round;stroke:rgb(100%,100%,100%);stroke-opacity:1;stroke-miterlimit:10;" d="M 211.644531 171.480469 L 211.644531 56.972656 Z M 211.644531 171.480469 "/>
<path style="fill:none;stroke-width:3.200935;stroke-linecap:round;stroke-linejoin:round;stroke:rgb(100%,100%,100%);stroke-opacity:1;stroke-miterlimit:10;" d="M 211.644531 171.480469 L 211.644531 56.972656 Z M 211.644531 171.480469 "/>
<path style="fill-rule:nonzero;fill:rgb(100%,100%,100%);fill-opacity:1;stroke-width:1.115477;stroke-linecap:round;stroke-linejoin:round;stroke:rgb(100%,100%,100%);stroke-opacity:1;stroke-miterlimit:10;" d="M 366.234375 248.167969 L 444.023438 248.167969 L 444.023438 94.792969 L 366.234375 94.792969 Z M 366.234375 248.167969 "/>
<path style=" stroke:none;fill-rule:nonzero;fill:rgb(0%,0%,0%);fill-opacity:1;" d="M 376.824219 101.910156 L 376.996094 101.914063 L 377.164063 101.921875 L 377.324219 101.9375 L 377.484375 101.957031 L 377.636719 101.980469 L 377.785156 102.011719 L 377.933594 102.050781 L 378.070313 102.09375 L 378.207031 102.140625 L 378.339844 102.195313 L 378.472656 102.253906 L 378.601563 102.316406 L 378.730469 102.382813 L 378.863281 102.460938 L 378.992188 102.539063 L 379.25 102.71875 L 379.375 102.820313 L 379.503906 102.925781 L 379.628906 103.035156 L 378.878906 103.816406 L 378.777344 103.734375 L 378.675781 103.65625 L 378.578125 103.585938 L 378.476563 103.519531 L 378.378906 103.457031 L 378.285156 103.398438 L 378.1875 103.34375 L 378.09375 103.296875 L 377.996094 103.253906 L 377.902344 103.214844 L 377.714844 103.144531 L 377.511719 103.089844 L 377.410156 103.070313 L 377.304688 103.050781 L 377.195313 103.039063 L 377.082031 103.027344 L 376.855469 103.019531 L 376.625 103.03125 L 376.402344 103.058594 L 376.191406 103.109375 L 375.984375 103.179688 L 375.789063 103.273438 L 375.601563 103.382813 L 375.421875 103.511719 L 375.25 103.664063 L 375.089844 103.835938 L 374.933594 104.023438 L 374.792969 104.234375 L 374.664063 104.472656 L 374.550781 104.730469 L 374.453125 105.015625 L 374.371094 105.328125 L 374.304688 105.660156 L 374.25 106.019531 L 374.214844 106.40625 L 374.191406 106.816406 L 374.183594 107.25 L 374.191406 107.695313 L 374.210938 108.109375 L 374.242188 108.503906 L 374.285156 108.867188 L 374.339844 109.207031 L 374.410156 109.523438 L 374.492188 109.808594 L 374.585938 110.074219 L 374.695313 110.308594 L 374.8125 110.519531 L 374.945313 110.707031 L 375.089844 110.871094 L 375.25 111.015625 L 375.417969 111.144531 L 375.601563 111.25 L 375.796875 111.339844 L 376.003906 111.40625 L 376.226563 111.457031 L 376.457031 111.484375 L 376.703125 111.496094 L 376.886719 111.492188 L 377.070313 111.476563 L 377.246094 111.453125 L 377.417969 111.421875 L 377.589844 111.382813 L 377.753906 111.332031 L 377.917969 111.273438 L 378.078125 111.207031 L 378.230469 111.128906 L 378.382813 111.046875 L 378.382813 107.820313 L 376.808594 107.820313 L 376.660156 106.726563 L 379.734375 106.726563 L 379.734375 111.691406 L 379.449219 111.867188 L 379.15625 112.023438 L 378.863281 112.164063 L 378.566406 112.285156 L 378.265625 112.386719 L 377.960938 112.472656 L 377.652344 112.535156 L 377.339844 112.582031 L 377.023438 112.609375 L 376.703125 112.621094 L 376.328125 112.605469 L 375.972656 112.566406 L 375.632813 112.5 L 375.308594 112.40625 L 375.003906 112.285156 L 374.71875 112.140625 L 374.449219 111.964844 L 374.199219 111.765625 L 373.964844 111.539063 L 373.75 111.285156 L 373.550781 111 L 373.375 110.691406 L 373.222656 110.355469 L 373.085938 109.988281 L 372.972656 109.597656 L 372.878906 109.179688 L 372.808594 108.734375 L 372.753906 108.261719 L 372.722656 107.761719 L 372.714844 107.234375 L 372.71875 106.894531 L 372.734375 106.5625 L 372.765625 106.238281 L 372.804688 105.929688 L 372.851563 105.628906 L 372.914063 105.339844 L 372.984375 105.0625 L 373.070313 104.796875 L 373.164063 104.539063 L 373.269531 104.296875 L 373.382813 104.0625 L 373.507813 103.839844 L 373.636719 103.628906 L 373.773438 103.433594 L 373.917969 103.25 L 374.070313 103.078125 L 374.230469 102.917969 L 374.398438 102.769531 L 374.570313 102.632813 L 374.753906 102.511719 L 374.945313 102.394531 L 375.140625 102.292969 L 375.335938 102.203125 L 375.539063 102.125 L 375.742188 102.058594 L 375.953125 102.007813 L 376.164063 101.964844 L 376.382813 101.933594 L 376.601563 101.917969 Z M 376.824219 101.910156 "/>
<path style=" stroke:none;fill-rule:nonzero;fill:rgb(0%,0%,0%);fill-opacity:1;" d="M 385.015625 104.355469 L 385.089844 104.355469 L 385.238281 104.363281 L 385.378906 104.378906 L 385.445313 104.386719 L 385.507813 104.398438 L 385.632813 104.429688 L 385.6875 104.445313 L 385.464844 105.75 L 385.289063 105.703125 L 385.230469 105.691406 L 385.042969 105.667969 L 384.980469 105.664063 L 384.914063 105.660156 L 384.847656 105.660156 L 384.71875 105.664063 L 384.59375 105.679688 L 384.476563 105.707031 L 384.359375 105.746094 L 384.25 105.792969 L 384.144531 105.847656 L 384.042969 105.917969 L 383.945313 105.996094 L 383.855469 106.085938 L 383.769531 106.183594 L 383.691406 106.296875 L 383.613281 106.417969 L 383.539063 106.550781 L 383.472656 106.695313 L 383.40625 106.847656 L 383.34375 107.015625 L 383.28125 107.191406 L 383.226563 107.378906 L 383.171875 107.578125 L 383.125 107.789063 L 383.125 112.425781 L 381.773438 112.425781 L 381.773438 104.535156 L 382.945313 104.535156 L 383.050781 106.09375 L 383.175781 105.765625 L 383.316406 105.46875 L 383.472656 105.207031 L 383.644531 104.980469 L 383.832031 104.789063 L 384.039063 104.632813 L 384.257813 104.511719 L 384.492188 104.425781 L 384.746094 104.371094 Z M 385.015625 104.355469 "/>
<path style=" stroke:none;fill-rule:nonzero;fill:rgb(0%,0%,0%);fill-opacity:1;" d="M 391.929688 110.625 L 391.929688 110.71875 L 391.933594 110.808594 L 391.949219 110.972656 L 391.960938 111.046875 L 391.976563 111.113281 L 391.996094 111.179688 L 392.015625 111.238281 L 392.039063 111.292969 L 392.0625 111.34375 L 392.09375 111.390625 L 392.125 111.429688 L 392.160156 111.472656 L 392.195313 111.507813 L 392.28125 111.578125 L 392.328125 111.609375 L 392.375 111.636719 L 392.484375 111.691406 L 392.199219 112.605469 L 392.085938 112.585938 L 391.976563 112.5625 L 391.871094 112.535156 L 391.773438 112.503906 L 391.679688 112.46875 L 391.589844 112.433594 L 391.503906 112.390625 L 391.425781 112.347656 L 391.351563 112.296875 L 391.285156 112.246094 L 391.21875 112.1875 L 391.160156 112.125 L 391.105469 112.058594 L 391.050781 111.984375 L 390.957031 111.820313 L 390.917969 111.726563 L 390.882813 111.632813 L 390.847656 111.527344 L 390.820313 111.421875 L 390.660156 111.648438 L 390.488281 111.851563 L 390.304688 112.03125 L 390.109375 112.1875 L 389.898438 112.320313 L 389.679688 112.429688 L 389.445313 112.511719 L 389.203125 112.574219 L 388.945313 112.609375 L 388.675781 112.621094 L 388.46875 112.613281 L 388.273438 112.59375 L 388.082031 112.5625 L 387.902344 112.515625 L 387.734375 112.460938 L 387.570313 112.386719 L 387.417969 112.304688 L 387.273438 112.207031 L 387.136719 112.097656 L 387.007813 111.976563 L 386.890625 111.839844 L 386.789063 111.695313 L 386.695313 111.539063 L 386.617188 111.378906 L 386.546875 111.207031 L 386.492188 111.027344 L 386.449219 110.839844 L 386.417969 110.640625 L 386.398438 110.433594 L 386.394531 110.21875 L 386.402344 109.972656 L 386.425781 109.742188 L 386.46875 109.519531 L 386.527344 109.308594 L 386.601563 109.109375 L 386.691406 108.925781 L 386.796875 108.75 L 386.921875 108.589844 L 387.0625 108.4375 L 387.21875 108.300781 L 387.390625 108.175781 L 387.578125 108.0625 L 387.777344 107.964844 L 387.992188 107.878906 L 388.21875 107.804688 L 388.464844 107.746094 L 388.71875 107.699219 L 388.992188 107.667969 L 389.273438 107.648438 L 389.574219 107.640625 L 390.59375 107.640625 L 390.59375 106.964844 L 390.589844 106.804688 L 390.582031 106.652344 L 390.5625 106.511719 L 390.539063 106.378906 L 390.507813 106.257813 L 390.46875 106.144531 L 390.425781 106.039063 L 390.375 105.941406 L 390.316406 105.855469 L 390.25 105.78125 L 390.179688 105.710938 L 390.101563 105.644531 L 390.011719 105.589844 L 389.914063 105.539063 L 389.808594 105.5 L 389.695313 105.464844 L 389.574219 105.4375 L 389.441406 105.421875 L 389.304688 105.410156 L 389.152344 105.40625 L 388.988281 105.410156 L 388.8125 105.421875 L 388.636719 105.441406 L 388.449219 105.472656 L 388.261719 105.511719 L 388.066406 105.554688 L 387.867188 105.609375 L 387.660156 105.675781 L 387.449219 105.746094 L 387.234375 105.824219 L 386.902344 104.878906 L 387.167969 104.777344 L 387.425781 104.6875 L 387.679688 104.605469 L 387.929688 104.535156 L 388.179688 104.476563 L 388.421875 104.425781 L 388.664063 104.390625 L 388.902344 104.363281 L 389.132813 104.34375 L 389.363281 104.339844 L 389.851563 104.367188 L 390.289063 104.441406 L 390.671875 104.570313 L 391.003906 104.75 L 391.289063 104.980469 L 391.519531 105.261719 L 391.699219 105.597656 L 391.828125 105.980469 L 391.902344 106.417969 L 391.929688 106.90625 Z M 388.988281 111.601563 L 389.195313 111.589844 L 389.390625 111.550781 L 389.574219 111.488281 L 389.75 111.402344 L 389.914063 111.292969 L 390.070313 111.15625 L 390.214844 110.996094 L 390.351563 110.8125 L 390.476563 110.605469 L 390.59375 110.371094 L 390.59375 108.511719 L 389.722656 108.511719 L 389.355469 108.527344 L 389.023438 108.574219 L 388.730469 108.65625 L 388.476563 108.773438 L 388.261719 108.917969 L 388.085938 109.097656 L 387.949219 109.3125 L 387.851563 109.558594 L 387.792969 109.835938 L 387.773438 110.144531 L 387.777344 110.28125 L 387.785156 110.414063 L 387.800781 110.539063 L 387.824219 110.65625 L 387.851563 110.769531 L 387.886719 110.871094 L 387.929688 110.96875 L 387.976563 111.0625 L 388.027344 111.148438 L 388.089844 111.226563 L 388.15625 111.296875 L 388.226563 111.359375 L 388.300781 111.417969 L 388.382813 111.464844 L 388.472656 111.507813 L 388.5625 111.539063 L 388.664063 111.566406 L 388.765625 111.585938 L 388.875 111.597656 Z M 388.988281 111.601563 "/>
<path style=" stroke:none;fill-rule:nonzero;fill:rgb(0%,0%,0%);fill-opacity:1;" d="M 399.96875 101.339844 L 399.96875 112.425781 L 398.769531 112.425781 L 398.679688 111.390625 L 398.519531 111.625 L 398.351563 111.832031 L 398.171875 112.015625 L 397.984375 112.175781 L 397.78125 112.3125 L 397.570313 112.421875 L 397.351563 112.507813 L 397.117188 112.570313 L 396.875 112.609375 L 396.625 112.621094 L 396.371094 112.609375 L 396.132813 112.578125 L 395.902344 112.523438 L 395.683594 112.445313 L 395.476563 112.347656 L 395.28125 112.226563 L 395.097656 112.082031 L 394.925781 111.917969 L 394.765625 111.734375 L 394.613281 111.523438 L 394.480469 111.296875 L 394.359375 111.054688 L 394.253906 110.792969 L 394.164063 110.515625 L 394.085938 110.222656 L 394.023438 109.914063 L 393.972656 109.589844 L 393.9375 109.246094 L 393.917969 108.886719 L 393.910156 108.511719 L 393.914063 108.265625 L 393.921875 108.023438 L 393.941406 107.789063 L 393.964844 107.5625 L 393.996094 107.339844 L 394.035156 107.125 L 394.078125 106.914063 L 394.128906 106.710938 L 394.1875 106.511719 L 394.253906 106.320313 L 394.328125 106.136719 L 394.410156 105.960938 L 394.496094 105.792969 L 394.585938 105.632813 L 394.683594 105.484375 L 394.789063 105.34375 L 394.898438 105.210938 L 395.011719 105.085938 L 395.132813 104.972656 L 395.257813 104.867188 L 395.390625 104.765625 L 395.523438 104.675781 L 395.664063 104.597656 L 395.804688 104.527344 L 395.953125 104.472656 L 396.101563 104.425781 L 396.257813 104.386719 L 396.414063 104.359375 L 396.578125 104.34375 L 396.742188 104.339844 L 396.964844 104.351563 L 397.179688 104.378906 L 397.386719 104.425781 L 397.585938 104.492188 L 397.773438 104.578125 L 397.960938 104.679688 L 398.136719 104.804688 L 398.304688 104.945313 L 398.464844 105.105469 L 398.617188 105.285156 L 398.617188 101.191406 Z M 396.9375 111.554688 L 397.046875 111.550781 L 397.148438 111.542969 L 397.25 111.527344 L 397.347656 111.507813 L 397.441406 111.480469 L 397.53125 111.449219 L 397.621094 111.410156 L 397.707031 111.363281 L 397.789063 111.3125 L 397.867188 111.253906 L 397.949219 111.191406 L 398.027344 111.125 L 398.105469 111.050781 L 398.183594 110.96875 L 398.257813 110.882813 L 398.332031 110.792969 L 398.40625 110.695313 L 398.480469 110.59375 L 398.550781 110.484375 L 398.617188 110.371094 L 398.617188 106.410156 L 398.480469 106.21875 L 398.339844 106.046875 L 398.195313 105.898438 L 398.042969 105.765625 L 397.886719 105.65625 L 397.726563 105.566406 L 397.5625 105.496094 L 397.394531 105.445313 L 397.222656 105.414063 L 397.042969 105.40625 L 396.886719 105.414063 L 396.738281 105.4375 L 396.597656 105.472656 L 396.460938 105.527344 L 396.332031 105.597656 L 396.207031 105.679688 L 396.09375 105.78125 L 395.984375 105.894531 L 395.878906 106.023438 L 395.785156 106.171875 L 395.695313 106.332031 L 395.617188 106.507813 L 395.546875 106.699219 L 395.488281 106.90625 L 395.4375 107.128906 L 395.398438 107.367188 L 395.367188 107.625 L 395.347656 107.894531 L 395.335938 108.179688 L 395.335938 108.480469 L 395.339844 108.785156 L 395.351563 109.078125 L 395.371094 109.351563 L 395.402344 109.609375 L 395.4375 109.847656 L 395.484375 110.074219 L 395.539063 110.28125 L 395.601563 110.472656 L 395.675781 110.648438 L 395.753906 110.804688 L 395.839844 110.949219 L 395.9375 111.074219 L 396.039063 111.1875 L 396.144531 111.285156 L 396.261719 111.367188 L 396.382813 111.433594 L 396.511719 111.488281 L 396.648438 111.523438 L 396.789063 111.546875 Z M 396.9375 111.554688 "/>
<path style=" stroke:none;fill-rule:nonzero;fill:rgb(0%,0%,0%);fill-opacity:1;" d="M 407.933594 108.242188 L 407.933594 108.371094 L 407.929688 108.4375 L 407.929688 108.503906 L 407.921875 108.644531 L 407.910156 108.867188 L 407.902344 108.945313 L 403.3125 108.945313 L 403.332031 109.214844 L 403.355469 109.464844 L 403.390625 109.703125 L 403.433594 109.925781 L 403.484375 110.132813 L 403.542969 110.324219 L 403.609375 110.503906 L 403.6875 110.664063 L 403.773438 110.808594 L 403.867188 110.941406 L 403.972656 111.054688 L 404.082031 111.15625 L 404.199219 111.246094 L 404.324219 111.324219 L 404.453125 111.390625 L 404.59375 111.445313 L 404.738281 111.484375 L 404.890625 111.515625 L 405.050781 111.535156 L 405.21875 111.539063 L 405.324219 111.539063 L 405.429688 111.535156 L 405.53125 111.527344 L 405.632813 111.515625 L 405.730469 111.5 L 405.917969 111.460938 L 406.007813 111.433594 L 406.09375 111.40625 L 406.179688 111.375 L 406.265625 111.339844 L 406.355469 111.300781 L 406.441406 111.257813 L 406.53125 111.210938 L 406.710938 111.101563 L 406.804688 111.042969 L 406.894531 110.976563 L 406.988281 110.90625 L 407.078125 110.835938 L 407.679688 111.628906 L 407.453125 111.820313 L 407.222656 111.988281 L 406.984375 112.136719 L 406.742188 112.265625 L 406.492188 112.371094 L 406.238281 112.460938 L 405.976563 112.53125 L 405.710938 112.582031 L 405.4375 112.609375 L 405.160156 112.621094 L 404.855469 112.609375 L 404.570313 112.578125 L 404.292969 112.523438 L 404.035156 112.449219 L 403.785156 112.355469 L 403.554688 112.238281 L 403.335938 112.097656 L 403.128906 111.9375 L 402.9375 111.757813 L 402.757813 111.554688 L 402.597656 111.332031 L 402.457031 111.089844 L 402.332031 110.832031 L 402.222656 110.554688 L 402.128906 110.261719 L 402.054688 109.953125 L 401.996094 109.625 L 401.953125 109.28125 L 401.925781 108.917969 L 401.917969 108.539063 L 401.925781 108.160156 L 401.953125 107.796875 L 401.992188 107.453125 L 402.046875 107.121094 L 402.121094 106.808594 L 402.210938 106.511719 L 402.316406 106.226563 L 402.4375 105.960938 L 402.574219 105.714844 L 402.730469 105.480469 L 402.898438 105.261719 L 403.078125 105.070313 L 403.273438 104.898438 L 403.476563 104.75 L 403.695313 104.625 L 403.929688 104.523438 L 404.171875 104.441406 L 404.429688 104.386719 L 404.699219 104.351563 L 404.980469 104.339844 L 405.257813 104.351563 L 405.523438 104.382813 L 405.773438 104.433594 L 406.011719 104.503906 L 406.238281 104.59375 L 406.453125 104.707031 L 406.652344 104.839844 L 406.835938 104.992188 L 407.007813 105.167969 L 407.167969 105.359375 L 407.3125 105.570313 L 407.445313 105.796875 L 407.558594 106.042969 L 407.660156 106.304688 L 407.742188 106.582031 L 407.8125 106.878906 L 407.867188 107.195313 L 407.902344 107.523438 L 407.925781 107.875 Z M 406.628906 107.835938 L 406.613281 107.363281 L 406.5625 106.945313 L 406.480469 106.574219 L 406.367188 106.25 L 406.21875 105.980469 L 406.039063 105.757813 L 405.828125 105.582031 L 405.582031 105.460938 L 405.304688 105.386719 L 404.992188 105.359375 L 404.847656 105.367188 L 404.707031 105.386719 L 404.574219 105.417969 L 404.445313 105.460938 L 404.324219 105.519531 L 404.207031 105.585938 L 404.097656 105.667969 L 403.996094 105.761719 L 403.898438 105.871094 L 403.808594 105.992188 L 403.726563 106.121094 L 403.648438 106.265625 L 403.582031 106.429688 L 403.519531 106.605469 L 403.46875 106.800781 L 403.421875 107.007813 L 403.382813 107.234375 L 403.351563 107.472656 L 403.328125 107.730469 L 403.3125 108 L 406.628906 108 Z M 406.628906 107.835938 "/>
<path style=" stroke:none;fill-rule:nonzero;fill:rgb(0%,0%,0%);fill-opacity:1;" d="M 411.847656 104.339844 L 412.117188 104.347656 L 412.382813 104.375 L 412.640625 104.421875 L 412.894531 104.484375 L 413.140625 104.566406 L 413.378906 104.664063 L 413.613281 104.78125 L 413.839844 104.917969 L 414.0625 105.070313 L 414.277344 105.242188 L 413.710938 106.035156 L 413.613281 105.972656 L 413.519531 105.910156 L 413.425781 105.851563 L 413.335938 105.796875 L 413.242188 105.746094 L 413.15625 105.699219 L 413.066406 105.652344 L 412.894531 105.574219 L 412.808594 105.539063 L 412.726563 105.507813 L 412.640625 105.480469 L 412.554688 105.457031 L 412.464844 105.433594 L 412.378906 105.417969 L 412.289063 105.402344 L 412.199219 105.390625 L 412.109375 105.382813 L 412.015625 105.375 L 411.925781 105.375 L 411.804688 105.378906 L 411.6875 105.386719 L 411.578125 105.402344 L 411.472656 105.421875 L 411.371094 105.449219 L 411.277344 105.484375 L 411.1875 105.523438 L 411.101563 105.566406 L 411.023438 105.617188 L 410.949219 105.675781 L 410.882813 105.734375 L 410.824219 105.796875 L 410.773438 105.867188 L 410.726563 105.9375 L 410.691406 106.015625 L 410.660156 106.097656 L 410.636719 106.183594 L 410.617188 106.273438 L 410.609375 106.371094 L 410.605469 106.46875 L 410.605469 106.566406 L 410.617188 106.660156 L 410.632813 106.75 L 410.65625 106.832031 L 410.6875 106.914063 L 410.722656 106.988281 L 410.765625 107.058594 L 410.816406 107.128906 L 410.871094 107.191406 L 410.933594 107.25 L 411.007813 107.308594 L 411.097656 107.363281 L 411.195313 107.421875 L 411.304688 107.480469 L 411.429688 107.539063 L 411.5625 107.597656 L 411.710938 107.65625 L 411.871094 107.714844 L 412.042969 107.777344 L 412.222656 107.835938 L 412.453125 107.910156 L 412.671875 107.992188 L 412.878906 108.074219 L 413.070313 108.160156 L 413.246094 108.25 L 413.414063 108.34375 L 413.566406 108.441406 L 413.707031 108.539063 L 413.835938 108.644531 L 413.949219 108.75 L 414.050781 108.863281 L 414.144531 108.984375 L 414.222656 109.109375 L 414.292969 109.246094 L 414.355469 109.390625 L 414.402344 109.542969 L 414.441406 109.703125 L 414.46875 109.875 L 414.484375 110.050781 L 414.488281 110.234375 L 414.480469 110.453125 L 414.457031 110.660156 L 414.417969 110.859375 L 414.359375 111.050781 L 414.285156 111.230469 L 414.199219 111.398438 L 414.09375 111.5625 L 413.96875 111.714844 L 413.832031 111.855469 L 413.679688 111.992188 L 413.511719 112.109375 L 413.339844 112.21875 L 413.15625 112.3125 L 412.964844 112.394531 L 412.769531 112.460938 L 412.5625 112.519531 L 412.347656 112.5625 L 412.125 112.59375 L 411.894531 112.613281 L 411.652344 112.621094 L 411.339844 112.609375 L 411.03125 112.578125 L 410.734375 112.523438 L 410.449219 112.449219 L 410.171875 112.355469 L 409.90625 112.238281 L 409.648438 112.097656 L 409.402344 111.9375 L 409.167969 111.757813 L 408.9375 111.554688 L 409.628906 110.804688 L 409.820313 110.949219 L 410.011719 111.082031 L 410.207031 111.195313 L 410.402344 111.292969 L 410.601563 111.378906 L 410.800781 111.449219 L 411.003906 111.5 L 411.207031 111.539063 L 411.414063 111.5625 L 411.625 111.570313 L 411.753906 111.566406 L 411.878906 111.558594 L 411.996094 111.539063 L 412.109375 111.515625 L 412.21875 111.488281 L 412.324219 111.453125 L 412.421875 111.410156 L 412.515625 111.359375 L 412.605469 111.304688 L 412.6875 111.242188 L 412.765625 111.171875 L 412.835938 111.097656 L 412.894531 111.019531 L 412.949219 110.933594 L 412.992188 110.847656 L 413.03125 110.753906 L 413.058594 110.652344 L 413.078125 110.550781 L 413.089844 110.441406 L 413.09375 110.324219 L 413.09375 110.242188 L 413.089844 110.164063 L 413.082031 110.089844 L 413.070313 110.015625 L 413.054688 109.945313 L 413.039063 109.878906 L 413.019531 109.816406 L 413 109.757813 L 412.945313 109.648438 L 412.914063 109.601563 L 412.878906 109.550781 L 412.839844 109.503906 L 412.796875 109.457031 L 412.75 109.410156 L 412.695313 109.367188 L 412.636719 109.324219 L 412.574219 109.28125 L 412.507813 109.238281 L 412.433594 109.199219 L 412.359375 109.15625 L 412.277344 109.117188 L 412.1875 109.074219 L 412.089844 109.03125 L 411.988281 108.988281 L 411.878906 108.941406 L 411.761719 108.898438 L 411.636719 108.855469 L 411.507813 108.808594 L 411.367188 108.765625 L 411.152344 108.6875 L 410.945313 108.609375 L 410.75 108.527344 L 410.570313 108.441406 L 410.402344 108.351563 L 410.246094 108.261719 L 410.101563 108.167969 L 409.972656 108.070313 L 409.855469 107.96875 L 409.75 107.867188 L 409.65625 107.757813 L 409.570313 107.644531 L 409.496094 107.523438 L 409.433594 107.398438 L 409.378906 107.269531 L 409.332031 107.132813 L 409.296875 106.992188 L 409.273438 106.84375 L 409.257813 106.6875 L 409.253906 106.53125 L 409.257813 106.40625 L 409.265625 106.285156 L 409.285156 106.164063 L 409.308594 106.046875 L 409.335938 105.933594 L 409.371094 105.824219 L 409.414063 105.714844 L 409.464844 105.609375 L 409.519531 105.503906 L 409.652344 105.308594 L 409.726563 105.214844 L 409.804688 105.128906 L 409.890625 105.042969 L 409.976563 104.960938 L 410.070313 104.886719 L 410.273438 104.746094 L 410.382813 104.683594 L 410.5 104.625 L 410.617188 104.570313 L 410.742188 104.523438 L 410.867188 104.480469 L 410.996094 104.441406 L 411.128906 104.410156 L 411.265625 104.386719 L 411.40625 104.367188 L 411.550781 104.351563 L 411.699219 104.34375 Z M 411.847656 104.339844 "/>
<path style="fill-rule:nonzero;fill:rgb(5.098039%,3.137255%,52.941176%);fill-opacity:1;stroke-width:3.200935;stroke-linecap:square;stroke-linejoin:miter;stroke:rgb(100%,100%,100%);stroke-opacity:1;stroke-miterlimit:10;" d="M 374.089844 136.632813 L 387.117188 136.632813 L 387.117188 123.605469 L 374.089844 123.605469 Z M 374.089844 136.632813 "/>
<path style="fill-rule:nonzero;fill:rgb(56.470588%,5.098039%,64.313725%);fill-opacity:1;stroke-width:3.200935;stroke-linecap:square;stroke-linejoin:miter;stroke:rgb(100%,100%,100%);stroke-opacity:1;stroke-miterlimit:10;" d="M 374.089844 153.914063 L 387.117188 153.914063 L 387.117188 140.886719 L 374.089844 140.886719 Z M 374.089844 153.914063 "/>
<path style="fill-rule:nonzero;fill:rgb(74.901961%,22.352941%,51.764706%);fill-opacity:1;stroke-width:3.200935;stroke-linecap:square;stroke-linejoin:miter;stroke:rgb(100%,100%,100%);stroke-opacity:1;stroke-miterlimit:10;" d="M 374.089844 171.195313 L 387.117188 171.195313 L 387.117188 158.167969 L 374.089844 158.167969 Z M 374.089844 171.195313 "/>
<path style="fill-rule:nonzero;fill:rgb(88.235294%,39.215686%,38.431373%);fill-opacity:1;stroke-width:3.200935;stroke-linecap:square;stroke-linejoin:miter;stroke:rgb(100%,100%,100%);stroke-opacity:1;stroke-miterlimit:10;" d="M 374.089844 188.472656 L 387.117188 188.472656 L 387.117188 175.445313 L 374.089844 175.445313 Z M 374.089844 188.472656 "/>
<path style="fill-rule:nonzero;fill:rgb(97.254902%,58.039216%,25.490196%);fill-opacity:1;stroke-width:3.200935;stroke-linecap:square;stroke-linejoin:miter;stroke:rgb(100%,100%,100%);stroke-opacity:1;stroke-miterlimit:10;" d="M 374.089844 205.753906 L 387.117188 205.753906 L 387.117188 192.726563 L 374.089844 192.726563 Z M 374.089844 205.753906 "/>
<path style="fill-rule:nonzero;fill:rgb(98.823529%,80.784314%,14.509804%);fill-opacity:1;stroke-width:3.200935;stroke-linecap:square;stroke-linejoin:miter;stroke:rgb(100%,100%,100%);stroke-opacity:1;stroke-miterlimit:10;" d="M 374.089844 223.035156 L 387.117188 223.035156 L 387.117188 210.007813 L 374.089844 210.007813 Z M 374.089844 223.035156 "/>
<path style="fill-rule:nonzero;fill:rgb(96.078431%,86.27451%,49.803922%);fill-opacity:1;stroke-width:3.200935;stroke-linecap:square;stroke-linejoin:miter;stroke:rgb(100%,100%,100%);stroke-opacity:1;stroke-miterlimit:10;" d="M 374.089844 240.3125 L 387.117188 240.3125 L 387.117188 227.285156 L 374.089844 227.285156 Z M 374.089844 240.3125 "/>
<path style=" stroke:none;fill-rule:nonzero;fill:rgb(0%,0%,0%);fill-opacity:1;" d="M 401.792969 134.246094 L 401.238281 132.148438 L 398.46875 132.148438 L 397.917969 134.246094 L 396.800781 134.246094 L 399.1875 125.992188 L 400.554688 125.992188 L 402.945313 134.246094 Z M 398.695313 131.273438 L 401.011719 131.273438 L 399.859375 126.878906 Z M 398.695313 131.273438 "/>
<path style=" stroke:none;fill-rule:nonzero;fill:rgb(0%,0%,0%);fill-opacity:1;" d="M 401.792969 151.527344 L 401.238281 149.429688 L 398.46875 149.429688 L 397.917969 151.527344 L 396.800781 151.527344 L 399.1875 143.273438 L 400.554688 143.273438 L 402.945313 151.527344 Z M 398.695313 148.550781 L 401.011719 148.550781 L 399.859375 144.160156 Z M 398.695313 148.550781 "/>
<path style=" stroke:none;fill-rule:nonzero;fill:rgb(0%,0%,0%);fill-opacity:1;" d="M 403.6875 148.214844 L 403.6875 147.328125 L 406.796875 147.328125 L 406.796875 148.214844 Z M 403.6875 148.214844 "/>
<path style=" stroke:none;fill-rule:nonzero;fill:rgb(0%,0%,0%);fill-opacity:1;" d="M 401.023438 164.441406 L 401.367188 164.515625 L 401.671875 164.621094 L 401.941406 164.753906 L 402.175781 164.914063 L 402.375 165.105469 L 402.535156 165.324219 L 402.660156 165.570313 L 402.753906 165.84375 L 402.804688 166.148438 L 402.824219 166.480469 L 402.816406 166.707031 L 402.792969 166.925781 L 402.753906 167.132813 L 402.699219 167.324219 L 402.625 167.503906 L 402.539063 167.675781 L 402.4375 167.832031 L 402.316406 167.976563 L 402.183594 168.109375 L 402.03125 168.230469 L 401.867188 168.339844 L 401.691406 168.4375 L 401.503906 168.527344 L 401.300781 168.601563 L 401.089844 168.664063 L 400.867188 168.714844 L 400.628906 168.757813 L 400.382813 168.785156 L 400.121094 168.800781 L 399.847656 168.808594 L 397.734375 168.808594 L 397.734375 160.550781 L 399.523438 160.550781 L 399.804688 160.558594 L 400.070313 160.574219 L 400.320313 160.597656 L 400.5625 160.636719 L 400.785156 160.683594 L 401 160.742188 L 401.199219 160.808594 L 401.386719 160.890625 L 401.558594 160.980469 L 401.71875 161.078125 L 401.867188 161.191406 L 401.996094 161.3125 L 402.113281 161.441406 L 402.210938 161.582031 L 402.296875 161.730469 L 402.363281 161.890625 L 402.417969 162.058594 L 402.457031 162.238281 L 402.480469 162.429688 L 402.488281 162.628906 L 402.484375 162.773438 L 402.472656 162.910156 L 402.453125 163.042969 L 402.421875 163.171875 L 402.386719 163.292969 L 402.339844 163.410156 L 402.289063 163.523438 L 402.226563 163.628906 L 402.15625 163.730469 L 402.082031 163.828125 L 402 163.914063 L 401.910156 164 L 401.820313 164.074219 L 401.722656 164.144531 L 401.617188 164.207031 L 401.511719 164.265625 L 401.394531 164.320313 L 401.277344 164.367188 L 401.152344 164.40625 Z M 398.851563 161.402344 L 398.851563 164.066406 L 399.882813 164.066406 L 400.019531 164.0625 L 400.148438 164.054688 L 400.273438 164.035156 L 400.390625 164.011719 L 400.503906 163.980469 L 400.605469 163.941406 L 400.707031 163.898438 L 400.796875 163.84375 L 400.882813 163.785156 L 400.964844 163.71875 L 401.039063 163.644531 L 401.105469 163.566406 L 401.167969 163.480469 L 401.21875 163.386719 L 401.261719 163.289063 L 401.296875 163.1875 L 401.324219 163.082031 L 401.34375 162.96875 L 401.355469 162.847656 L 401.359375 162.722656 L 401.355469 162.589844 L 401.34375 162.460938 L 401.320313 162.339844 L 401.289063 162.226563 L 401.253906 162.125 L 401.203125 162.027344 L 401.148438 161.9375 L 401.082031 161.855469 L 401.011719 161.78125 L 400.929688 161.714844 L 400.839844 161.65625 L 400.742188 161.601563 L 400.636719 161.554688 L 400.519531 161.515625 L 400.394531 161.480469 L 400.261719 161.453125 L 400.117188 161.433594 L 399.964844 161.417969 L 399.800781 161.40625 L 399.632813 161.402344 Z M 399.859375 167.933594 L 400.03125 167.929688 L 400.195313 167.917969 L 400.347656 167.902344 L 400.496094 167.878906 L 400.632813 167.847656 L 400.765625 167.8125 L 400.886719 167.765625 L 401 167.714844 L 401.105469 167.660156 L 401.203125 167.597656 L 401.292969 167.523438 L 401.371094 167.4375 L 401.441406 167.347656 L 401.503906 167.246094 L 401.554688 167.136719 L 401.597656 167.019531 L 401.628906 166.890625 L 401.652344 166.753906 L 401.667969 166.609375 L 401.671875 166.457031 L 401.65625 166.160156 L 401.605469 165.894531 L 401.519531 165.660156 L 401.402344 165.457031 L 401.25 165.285156 L 401.0625 165.144531 L 400.84375 165.035156 L 400.589844 164.957031 L 400.300781 164.910156 L 399.980469 164.894531 L 398.851563 164.894531 L 398.851563 167.933594 Z M 399.859375 167.933594 "/>
<path style=" stroke:none;fill-rule:nonzero;fill:rgb(0%,0%,0%);fill-opacity:1;" d="M 406.484375 162.589844 L 406.484375 164.390625 L 408.117188 164.390625 L 408.117188 165.28125 L 406.484375 165.28125 L 406.484375 167.066406 L 405.558594 167.066406 L 405.558594 165.28125 L 403.929688 165.28125 L 403.929688 164.390625 L 405.558594 164.390625 L 405.558594 162.589844 Z M 406.484375 162.589844 "/>
<path style=" stroke:none;fill-rule:nonzero;fill:rgb(0%,0%,0%);fill-opacity:1;" d="M 401.023438 181.71875 L 401.367188 181.796875 L 401.671875 181.902344 L 401.941406 182.035156 L 402.175781 182.195313 L 402.375 182.386719 L 402.535156 182.605469 L 402.660156 182.851563 L 402.753906 183.125 L 402.804688 183.429688 L 402.824219 183.757813 L 402.816406 183.988281 L 402.792969 184.207031 L 402.753906 184.410156 L 402.699219 184.605469 L 402.625 184.785156 L 402.539063 184.953125 L 402.4375 185.113281 L 402.316406 185.257813 L 402.183594 185.390625 L 402.03125 185.511719 L 401.867188 185.621094 L 401.691406 185.71875 L 401.503906 185.804688 L 401.300781 185.878906 L 401.089844 185.945313 L 400.867188 185.996094 L 400.628906 186.035156 L 400.382813 186.066406 L 400.121094 186.082031 L 399.847656 186.085938 L 397.734375 186.085938 L 397.734375 177.832031 L 399.523438 177.832031 L 399.804688 177.835938 L 400.070313 177.851563 L 400.320313 177.878906 L 400.5625 177.917969 L 400.785156 177.964844 L 401 178.023438 L 401.199219 178.089844 L 401.386719 178.167969 L 401.558594 178.257813 L 401.71875 178.359375 L 401.867188 178.46875 L 401.996094 178.589844 L 402.113281 178.722656 L 402.210938 178.859375 L 402.296875 179.011719 L 402.363281 179.171875 L 402.417969 179.339844 L 402.457031 179.519531 L 402.480469 179.707031 L 402.488281 179.90625 L 402.484375 180.050781 L 402.472656 180.191406 L 402.453125 180.324219 L 402.421875 180.449219 L 402.386719 180.574219 L 402.339844 180.691406 L 402.289063 180.804688 L 402.226563 180.910156 L 402.15625 181.011719 L 402.082031 181.109375 L 402 181.195313 L 401.910156 181.277344 L 401.820313 181.355469 L 401.722656 181.425781 L 401.617188 181.488281 L 401.511719 181.546875 L 401.394531 181.597656 L 401.277344 181.644531 L 401.152344 181.683594 Z M 398.851563 178.683594 L 398.851563 181.347656 L 399.882813 181.347656 L 400.019531 181.34375 L 400.148438 181.332031 L 400.273438 181.316406 L 400.390625 181.292969 L 400.503906 181.261719 L 400.605469 181.222656 L 400.707031 181.175781 L 400.796875 181.125 L 400.882813 181.066406 L 400.964844 181 L 401.039063 180.925781 L 401.105469 180.84375 L 401.167969 180.757813 L 401.21875 180.667969 L 401.261719 180.570313 L 401.296875 180.46875 L 401.324219 180.359375 L 401.34375 180.246094 L 401.355469 180.128906 L 401.359375 180.003906 L 401.355469 179.867188 L 401.34375 179.742188 L 401.320313 179.621094 L 401.289063 179.507813 L 401.253906 179.402344 L 401.203125 179.308594 L 401.148438 179.21875 L 401.082031 179.136719 L 401.011719 179.0625 L 400.929688 178.996094 L 400.839844 178.9375 L 400.742188 178.882813 L 400.636719 178.835938 L 400.519531 178.796875 L 400.394531 178.761719 L 400.261719 178.734375 L 400.117188 178.710938 L 399.964844 178.695313 L 399.800781 178.6875 L 399.632813 178.683594 Z M 399.859375 185.210938 L 400.03125 185.207031 L 400.195313 185.199219 L 400.347656 185.179688 L 400.496094 185.15625 L 400.632813 185.128906 L 400.765625 185.089844 L 400.886719 185.046875 L 401 184.996094 L 401.105469 184.941406 L 401.203125 184.875 L 401.292969 184.800781 L 401.371094 184.71875 L 401.441406 184.628906 L 401.503906 184.527344 L 401.554688 184.417969 L 401.597656 184.296875 L 401.628906 184.171875 L 401.652344 184.035156 L 401.667969 183.890625 L 401.671875 183.734375 L 401.65625 183.4375 L 401.605469 183.175781 L 401.519531 182.941406 L 401.402344 182.738281 L 401.25 182.566406 L 401.0625 182.425781 L 400.84375 182.316406 L 400.589844 182.238281 L 400.300781 182.191406 L 399.980469 182.175781 L 398.851563 182.175781 L 398.851563 185.210938 Z M 399.859375 185.210938 "/>
<path style=" stroke:none;fill-rule:nonzero;fill:rgb(0%,0%,0%);fill-opacity:1;" d="M 401.023438 199 L 401.367188 199.078125 L 401.671875 199.179688 L 401.941406 199.3125 L 402.175781 199.476563 L 402.375 199.664063 L 402.535156 199.882813 L 402.660156 200.128906 L 402.753906 200.40625 L 402.804688 200.707031 L 402.824219 201.039063 L 402.816406 201.269531 L 402.792969 201.484375 L 402.753906 201.691406 L 402.699219 201.882813 L 402.625 202.066406 L 402.539063 202.234375 L 402.4375 202.390625 L 402.316406 202.539063 L 402.183594 202.671875 L 402.03125 202.792969 L 401.867188 202.902344 L 401.691406 203 L 401.503906 203.085938 L 401.300781 203.160156 L 401.089844 203.222656 L 400.867188 203.277344 L 400.628906 203.316406 L 400.382813 203.34375 L 400.121094 203.363281 L 399.847656 203.367188 L 397.734375 203.367188 L 397.734375 195.113281 L 399.523438 195.113281 L 399.804688 195.117188 L 400.070313 195.132813 L 400.320313 195.160156 L 400.5625 195.195313 L 400.785156 195.242188 L 401 195.300781 L 401.199219 195.371094 L 401.386719 195.449219 L 401.558594 195.539063 L 401.71875 195.640625 L 401.867188 195.75 L 401.996094 195.871094 L 402.113281 196 L 402.210938 196.140625 L 402.296875 196.289063 L 402.363281 196.449219 L 402.417969 196.621094 L 402.457031 196.800781 L 402.480469 196.988281 L 402.488281 197.1875 L 402.484375 197.332031 L 402.472656 197.46875 L 402.453125 197.601563 L 402.421875 197.730469 L 402.386719 197.855469 L 402.339844 197.972656 L 402.289063 198.082031 L 402.226563 198.191406 L 402.15625 198.292969 L 402.082031 198.386719 L 402 198.476563 L 401.910156 198.558594 L 401.820313 198.632813 L 401.722656 198.703125 L 401.617188 198.769531 L 401.511719 198.828125 L 401.394531 198.878906 L 401.277344 198.925781 L 401.152344 198.964844 Z M 398.851563 195.964844 L 398.851563 198.628906 L 399.882813 198.628906 L 400.019531 198.625 L 400.148438 198.613281 L 400.273438 198.597656 L 400.390625 198.570313 L 400.503906 198.539063 L 400.605469 198.503906 L 400.707031 198.457031 L 400.796875 198.40625 L 400.882813 198.347656 L 400.964844 198.28125 L 401.039063 198.203125 L 401.105469 198.125 L 401.167969 198.039063 L 401.21875 197.949219 L 401.261719 197.851563 L 401.296875 197.75 L 401.324219 197.640625 L 401.34375 197.527344 L 401.355469 197.40625 L 401.359375 197.285156 L 401.355469 197.148438 L 401.34375 197.019531 L 401.320313 196.902344 L 401.289063 196.789063 L 401.253906 196.683594 L 401.203125 196.585938 L 401.148438 196.496094 L 401.082031 196.414063 L 401.011719 196.34375 L 400.929688 196.277344 L 400.839844 196.214844 L 400.742188 196.164063 L 400.636719 196.117188 L 400.519531 196.074219 L 400.394531 196.042969 L 400.261719 196.011719 L 400.117188 195.992188 L 399.964844 195.976563 L 399.800781 195.96875 L 399.632813 195.964844 Z M 399.859375 202.492188 L 400.03125 202.488281 L 400.195313 202.476563 L 400.347656 202.460938 L 400.496094 202.4375 L 400.632813 202.40625 L 400.765625 202.371094 L 400.886719 202.328125 L 401 202.277344 L 401.105469 202.21875 L 401.203125 202.15625 L 401.292969 202.082031 L 401.371094 202 L 401.441406 201.90625 L 401.503906 201.804688 L 401.554688 201.695313 L 401.597656 201.578125 L 401.628906 201.449219 L 401.652344 201.316406 L 401.667969 201.167969 L 401.671875 201.015625 L 401.65625 200.71875 L 401.605469 200.453125 L 401.519531 200.21875 L 401.402344 200.015625 L 401.25 199.847656 L 401.0625 199.707031 L 400.84375 199.597656 L 400.589844 199.519531 L 400.300781 199.472656 L 399.980469 199.457031 L 398.851563 199.457031 L 398.851563 202.492188 Z M 399.859375 202.492188 "/>
<path style=" stroke:none;fill-rule:nonzero;fill:rgb(0%,0%,0%);fill-opacity:1;" d="M 403.941406 200.054688 L 403.941406 199.167969 L 407.046875 199.167969 L 407.046875 200.054688 Z M 403.941406 200.054688 "/>
<path style=" stroke:none;fill-rule:nonzero;fill:rgb(0%,0%,0%);fill-opacity:1;" d="M 400.472656 212.234375 L 400.601563 212.238281 L 400.722656 212.242188 L 400.847656 212.253906 L 400.964844 212.269531 L 401.078125 212.285156 L 401.1875 212.308594 L 401.296875 212.335938 L 401.402344 212.367188 L 401.503906 212.402344 L 401.601563 212.441406 L 401.695313 212.480469 L 401.792969 212.527344 L 401.886719 212.574219 L 401.980469 212.628906 L 402.078125 212.6875 L 402.265625 212.820313 L 402.453125 212.96875 L 402.546875 213.050781 L 401.972656 213.722656 L 401.902344 213.664063 L 401.832031 213.609375 L 401.761719 213.558594 L 401.695313 213.507813 L 401.625 213.460938 L 401.554688 213.417969 L 401.484375 213.378906 L 401.34375 213.308594 L 401.277344 213.28125 L 401.207031 213.253906 L 401.140625 213.226563 L 401.066406 213.207031 L 400.996094 213.1875 L 400.921875 213.171875 L 400.847656 213.160156 L 400.769531 213.148438 L 400.691406 213.140625 L 400.613281 213.136719 L 400.53125 213.136719 L 400.347656 213.144531 L 400.171875 213.167969 L 400.003906 213.207031 L 399.84375 213.265625 L 399.691406 213.335938 L 399.546875 213.425781 L 399.410156 213.53125 L 399.28125 213.648438 L 399.160156 213.785156 L 399.042969 213.941406 L 398.9375 214.109375 L 398.84375 214.296875 L 398.761719 214.503906 L 398.691406 214.730469 L 398.628906 214.976563 L 398.582031 215.246094 L 398.542969 215.53125 L 398.515625 215.835938 L 398.496094 216.164063 L 398.492188 216.507813 L 398.496094 216.84375 L 398.515625 217.164063 L 398.542969 217.464844 L 398.582031 217.746094 L 398.628906 218.011719 L 398.691406 218.257813 L 398.761719 218.484375 L 398.84375 218.695313 L 398.9375 218.890625 L 399.042969 219.0625 L 399.160156 219.21875 L 399.28125 219.359375 L 399.410156 219.480469 L 399.546875 219.585938 L 399.691406 219.675781 L 399.84375 219.75 L 400.003906 219.804688 L 400.171875 219.847656 L 400.347656 219.871094 L 400.53125 219.878906 L 400.625 219.878906 L 400.714844 219.871094 L 400.800781 219.863281 L 400.886719 219.851563 L 400.96875 219.835938 L 401.046875 219.820313 L 401.195313 219.773438 L 401.335938 219.710938 L 401.402344 219.675781 L 401.542969 219.597656 L 401.613281 219.550781 L 401.6875 219.503906 L 401.761719 219.453125 L 401.910156 219.34375 L 402.066406 219.21875 L 402.632813 219.878906 L 402.449219 220.054688 L 402.257813 220.210938 L 402.058594 220.351563 L 401.855469 220.472656 L 401.640625 220.574219 L 401.421875 220.65625 L 401.195313 220.71875 L 400.960938 220.765625 L 400.71875 220.792969 L 400.472656 220.804688 L 400.289063 220.800781 L 400.109375 220.785156 L 399.9375 220.761719 L 399.765625 220.726563 L 399.597656 220.683594 L 399.4375 220.632813 L 399.277344 220.570313 L 399.125 220.496094 L 398.972656 220.414063 L 398.828125 220.324219 L 398.691406 220.222656 L 398.558594 220.113281 L 398.429688 219.992188 L 398.308594 219.863281 L 398.195313 219.722656 L 398.085938 219.574219 L 397.984375 219.417969 L 397.886719 219.25 L 397.796875 219.070313 L 397.710938 218.882813 L 397.636719 218.683594 L 397.570313 218.476563 L 397.511719 218.261719 L 397.457031 218.035156 L 397.414063 217.804688 L 397.378906 217.5625 L 397.351563 217.3125 L 397.332031 217.050781 L 397.320313 216.785156 L 397.316406 216.507813 L 397.320313 216.234375 L 397.332031 215.96875 L 397.351563 215.710938 L 397.382813 215.464844 L 397.417969 215.222656 L 397.464844 214.992188 L 397.515625 214.769531 L 397.578125 214.558594 L 397.648438 214.351563 L 397.722656 214.15625 L 397.8125 213.96875 L 397.902344 213.789063 L 398.003906 213.621094 L 398.105469 213.464844 L 398.214844 213.316406 L 398.332031 213.175781 L 398.453125 213.046875 L 398.582031 212.925781 L 398.714844 212.816406 L 398.851563 212.714844 L 398.996094 212.625 L 399.148438 212.542969 L 399.300781 212.472656 L 399.457031 212.410156 L 399.617188 212.355469 L 399.78125 212.3125 L 399.949219 212.277344 L 400.121094 212.253906 L 400.292969 212.242188 Z M 400.472656 212.234375 "/>
<path style=" stroke:none;fill-rule:nonzero;fill:rgb(0%,0%,0%);fill-opacity:1;" d="M 406.015625 214.433594 L 406.015625 216.230469 L 407.648438 216.230469 L 407.648438 217.121094 L 406.015625 217.121094 L 406.015625 218.90625 L 405.09375 218.90625 L 405.09375 217.121094 L 403.460938 217.121094 L 403.460938 216.230469 L 405.09375 216.230469 L 405.09375 214.433594 Z M 406.015625 214.433594 "/>
<path style=" stroke:none;fill-rule:nonzero;fill:rgb(0%,0%,0%);fill-opacity:1;" d="M 400.472656 229.515625 L 400.601563 229.519531 L 400.722656 229.523438 L 400.847656 229.535156 L 400.964844 229.546875 L 401.078125 229.566406 L 401.1875 229.589844 L 401.296875 229.617188 L 401.402344 229.644531 L 401.503906 229.679688 L 401.601563 229.71875 L 401.695313 229.761719 L 401.792969 229.804688 L 401.886719 229.855469 L 401.980469 229.910156 L 402.078125 229.96875 L 402.171875 230.03125 L 402.359375 230.171875 L 402.453125 230.25 L 402.546875 230.332031 L 401.972656 231.003906 L 401.902344 230.945313 L 401.761719 230.835938 L 401.695313 230.789063 L 401.625 230.742188 L 401.554688 230.699219 L 401.484375 230.660156 L 401.34375 230.589844 L 401.277344 230.558594 L 401.207031 230.53125 L 401.140625 230.507813 L 401.066406 230.484375 L 400.996094 230.46875 L 400.847656 230.4375 L 400.691406 230.421875 L 400.613281 230.417969 L 400.53125 230.414063 L 400.347656 230.421875 L 400.171875 230.449219 L 400.003906 230.488281 L 399.84375 230.542969 L 399.691406 230.617188 L 399.546875 230.707031 L 399.410156 230.808594 L 399.28125 230.929688 L 399.160156 231.066406 L 399.042969 231.21875 L 398.9375 231.386719 L 398.84375 231.574219 L 398.761719 231.785156 L 398.691406 232.011719 L 398.628906 232.257813 L 398.582031 232.523438 L 398.542969 232.8125 L 398.515625 233.117188 L 398.496094 233.441406 L 398.492188 233.789063 L 398.496094 234.125 L 398.515625 234.441406 L 398.542969 234.742188 L 398.582031 235.027344 L 398.628906 235.289063 L 398.691406 235.539063 L 398.761719 235.765625 L 398.84375 235.976563 L 398.9375 236.167969 L 399.042969 236.34375 L 399.160156 236.5 L 399.28125 236.636719 L 399.410156 236.761719 L 399.546875 236.867188 L 399.691406 236.957031 L 399.84375 237.027344 L 400.003906 237.085938 L 400.171875 237.128906 L 400.347656 237.152344 L 400.53125 237.160156 L 400.625 237.15625 L 400.714844 237.152344 L 400.800781 237.144531 L 400.886719 237.132813 L 400.96875 237.117188 L 401.046875 237.097656 L 401.121094 237.078125 L 401.195313 237.050781 L 401.265625 237.023438 L 401.335938 236.992188 L 401.402344 236.957031 L 401.472656 236.917969 L 401.613281 236.832031 L 401.6875 236.785156 L 401.761719 236.734375 L 401.910156 236.625 L 402.066406 236.5 L 402.632813 237.160156 L 402.449219 237.335938 L 402.257813 237.492188 L 402.058594 237.632813 L 401.855469 237.75 L 401.640625 237.851563 L 401.421875 237.9375 L 401.195313 238 L 400.960938 238.046875 L 400.71875 238.074219 L 400.472656 238.082031 L 400.289063 238.078125 L 400.109375 238.066406 L 399.9375 238.039063 L 399.765625 238.007813 L 399.597656 237.964844 L 399.4375 237.910156 L 399.277344 237.847656 L 399.125 237.777344 L 398.972656 237.695313 L 398.828125 237.605469 L 398.691406 237.503906 L 398.558594 237.390625 L 398.429688 237.273438 L 398.308594 237.144531 L 398.195313 237.003906 L 398.085938 236.855469 L 397.984375 236.695313 L 397.886719 236.527344 L 397.796875 236.351563 L 397.710938 236.164063 L 397.636719 235.964844 L 397.570313 235.757813 L 397.511719 235.542969 L 397.457031 235.316406 L 397.414063 235.082031 L 397.378906 234.84375 L 397.351563 234.589844 L 397.332031 234.332031 L 397.320313 234.0625 L 397.316406 233.789063 L 397.320313 233.511719 L 397.332031 233.25 L 397.351563 232.992188 L 397.382813 232.742188 L 397.417969 232.503906 L 397.464844 232.273438 L 397.515625 232.050781 L 397.578125 231.835938 L 397.648438 231.632813 L 397.722656 231.4375 L 397.8125 231.25 L 397.902344 231.070313 L 398.003906 230.902344 L 398.105469 230.746094 L 398.214844 230.597656 L 398.332031 230.457031 L 398.453125 230.328125 L 398.582031 230.207031 L 398.714844 230.097656 L 398.851563 229.996094 L 398.996094 229.90625 L 399.148438 229.824219 L 399.300781 229.75 L 399.457031 229.6875 L 399.617188 229.636719 L 399.78125 229.59375 L 399.949219 229.558594 L 400.121094 229.535156 L 400.292969 229.519531 Z M 400.472656 229.515625 "/>
<path style=" stroke:none;fill-rule:nonzero;fill:rgb(0%,0%,0%);fill-opacity:1;" d="M 408.800781 231.460938 L 409.035156 231.46875 L 409.261719 231.492188 L 409.480469 231.535156 L 409.683594 231.597656 L 409.878906 231.671875 L 410.058594 231.765625 L 410.230469 231.878906 L 410.394531 232.003906 L 410.542969 232.148438 L 410.683594 232.3125 L 410.8125 232.488281 L 410.925781 232.683594 L 411.027344 232.890625 L 411.113281 233.113281 L 411.1875 233.351563 L 411.25 233.601563 L 411.296875 233.867188 L 411.328125 234.152344 L 411.347656 234.449219 L 411.355469 234.757813 L 411.347656 235.0625 L 411.328125 235.347656 L 411.292969 235.625 L 411.246094 235.886719 L 411.183594 236.136719 L 411.109375 236.375 L 411.019531 236.597656 L 410.917969 236.808594 L 410.800781 237.007813 L 410.671875 237.195313 L 410.53125 237.363281 L 410.378906 237.515625 L 410.214844 237.648438 L 410.042969 237.765625 L 409.859375 237.863281 L 409.664063 237.941406 L 409.460938 238.003906 L 409.246094 238.046875 L 409.023438 238.074219 L 408.789063 238.082031 L 408.550781 238.074219 L 408.324219 238.046875 L 408.109375 238.003906 L 407.902344 237.945313 L 407.707031 237.863281 L 407.523438 237.769531 L 407.351563 237.65625 L 407.1875 237.523438 L 407.035156 237.375 L 406.890625 237.207031 L 406.765625 237.027344 L 406.648438 236.828125 L 406.550781 236.621094 L 406.460938 236.398438 L 406.386719 236.160156 L 406.328125 235.910156 L 406.28125 235.644531 L 406.246094 235.367188 L 406.226563 235.078125 L 406.21875 234.773438 L 406.226563 234.464844 L 406.246094 234.171875 L 406.28125 233.890625 L 406.328125 233.628906 L 406.390625 233.375 L 406.464844 233.140625 L 406.554688 232.917969 L 406.65625 232.710938 L 406.773438 232.515625 L 406.902344 232.335938 L 407.046875 232.167969 L 407.199219 232.019531 L 407.363281 231.890625 L 407.535156 231.773438 L 407.71875 231.679688 L 407.914063 231.601563 L 408.121094 231.539063 L 408.335938 231.496094 L 408.5625 231.46875 Z M 408.800781 232.324219 L 408.660156 232.328125 L 408.53125 232.347656 L 408.40625 232.378906 L 408.289063 232.417969 L 408.175781 232.472656 L 408.070313 232.539063 L 407.972656 232.617188 L 407.882813 232.707031 L 407.796875 232.808594 L 407.71875 232.921875 L 407.648438 233.046875 L 407.585938 233.1875 L 407.53125 233.335938 L 407.480469 233.5 L 407.441406 233.679688 L 407.40625 233.871094 L 407.382813 234.078125 L 407.363281 234.292969 L 407.351563 234.527344 L 407.347656 234.773438 L 407.363281 235.238281 L 407.40625 235.65625 L 407.476563 236.027344 L 407.578125 236.347656 L 407.707031 236.617188 L 407.867188 236.839844 L 408.054688 237.011719 L 408.269531 237.132813 L 408.515625 237.207031 L 408.789063 237.230469 L 409.0625 237.207031 L 409.304688 237.132813 L 409.523438 237.007813 L 409.710938 236.835938 L 409.867188 236.613281 L 409.996094 236.34375 L 410.097656 236.019531 L 410.171875 235.648438 L 410.214844 235.230469 L 410.226563 234.757813 L 410.222656 234.515625 L 410.214844 234.28125 L 410.195313 234.0625 L 410.171875 233.859375 L 410.136719 233.667969 L 410.097656 233.488281 L 410.050781 233.324219 L 409.996094 233.171875 L 409.9375 233.035156 L 409.867188 232.910156 L 409.792969 232.800781 L 409.710938 232.699219 L 409.621094 232.613281 L 409.523438 232.535156 L 409.421875 232.472656 L 409.3125 232.417969 L 409.195313 232.375 L 409.070313 232.347656 L 408.9375 232.328125 Z M 408.800781 232.324219 "/>
<path style=" stroke:none;fill-rule:nonzero;fill:rgb(0%,0%,0%);fill-opacity:1;" d="M 415.507813 231.472656 L 415.570313 231.472656 L 415.628906 231.476563 L 415.6875 231.476563 L 415.746094 231.484375 L 415.800781 231.488281 L 415.851563 231.496094 L 415.953125 231.519531 L 416.046875 231.542969 L 415.867188 232.585938 L 415.820313 232.574219 L 415.777344 232.5625 L 415.726563 232.550781 L 415.632813 232.535156 L 415.582031 232.527344 L 415.429688 232.515625 L 415.375 232.515625 L 415.273438 232.519531 L 415.171875 232.53125 L 415.078125 232.554688 L 414.984375 232.582031 L 414.894531 232.621094 L 414.8125 232.667969 L 414.730469 232.722656 L 414.652344 232.785156 L 414.582031 232.855469 L 414.511719 232.9375 L 414.449219 233.023438 L 414.386719 233.121094 L 414.328125 233.226563 L 414.273438 233.34375 L 414.222656 233.464844 L 414.171875 233.597656 L 414.125 233.742188 L 414.078125 233.890625 L 414.035156 234.050781 L 413.996094 234.21875 L 413.996094 237.929688 L 412.917969 237.929688 L 412.917969 231.617188 L 413.851563 231.617188 L 413.9375 232.863281 L 414.035156 232.597656 L 414.148438 232.363281 L 414.273438 232.152344 L 414.414063 231.972656 L 414.5625 231.820313 L 414.726563 231.695313 L 414.902344 231.597656 L 415.09375 231.527344 L 415.292969 231.484375 Z M 415.507813 231.472656 "/>
<path style=" stroke:none;fill-rule:nonzero;fill:rgb(0%,0%,0%);fill-opacity:1;" d="M 421.113281 238.082031 L 421 238.082031 L 420.890625 238.070313 L 420.789063 238.050781 L 420.691406 238.027344 L 420.597656 237.996094 L 420.507813 237.957031 L 420.421875 237.914063 L 420.34375 237.859375 L 420.269531 237.800781 L 420.199219 237.734375 L 420.136719 237.664063 L 420.078125 237.585938 L 420.027344 237.503906 L 419.984375 237.414063 L 419.949219 237.320313 L 419.917969 237.21875 L 419.894531 237.113281 L 419.878906 237.003906 L 419.867188 236.886719 L 419.863281 236.765625 L 419.863281 229.058594 L 420.945313 228.941406 L 420.945313 236.726563 L 420.949219 236.816406 L 420.960938 236.894531 L 420.980469 236.964844 L 421.003906 237.027344 L 421.039063 237.078125 L 421.082031 237.121094 L 421.132813 237.152344 L 421.191406 237.175781 L 421.253906 237.191406 L 421.328125 237.195313 L 421.359375 237.195313 L 421.390625 237.191406 L 421.425781 237.1875 L 421.457031 237.183594 L 421.492188 237.179688 L 421.527344 237.167969 L 421.5625 237.160156 L 421.601563 237.148438 L 421.636719 237.136719 L 421.675781 237.125 L 421.917969 237.878906 L 421.839844 237.917969 L 421.761719 237.953125 L 421.683594 237.984375 L 421.601563 238.011719 L 421.523438 238.03125 L 421.441406 238.050781 L 421.359375 238.066406 L 421.195313 238.082031 Z M 421.113281 238.082031 "/>
<path style=" stroke:none;fill-rule:nonzero;fill:rgb(0%,0%,0%);fill-opacity:1;" d="M 427.519531 234.578125 L 427.519531 234.738281 L 427.515625 234.789063 L 427.515625 234.847656 L 427.511719 234.902344 L 427.503906 235.019531 L 427.496094 235.144531 L 423.824219 235.144531 L 423.835938 235.359375 L 423.855469 235.5625 L 423.882813 235.75 L 423.917969 235.929688 L 423.960938 236.09375 L 424.007813 236.25 L 424.0625 236.390625 L 424.125 236.519531 L 424.191406 236.636719 L 424.269531 236.738281 L 424.351563 236.832031 L 424.4375 236.914063 L 424.53125 236.984375 L 424.632813 237.046875 L 424.734375 237.101563 L 424.847656 237.144531 L 424.964844 237.175781 L 425.085938 237.199219 L 425.214844 237.214844 L 425.347656 237.21875 L 425.433594 237.21875 L 425.515625 237.214844 L 425.679688 237.199219 L 425.757813 237.1875 L 425.90625 237.15625 L 425.976563 237.136719 L 426.046875 237.113281 L 426.1875 237.058594 L 426.257813 237.027344 L 426.398438 236.957031 L 426.46875 236.914063 L 426.542969 236.867188 L 426.613281 236.820313 L 426.6875 236.769531 L 426.761719 236.714844 L 426.835938 236.65625 L 427.316406 237.292969 L 427.136719 237.441406 L 426.953125 237.578125 L 426.761719 237.695313 L 426.566406 237.796875 L 426.367188 237.886719 L 426.164063 237.957031 L 425.957031 238.011719 L 425.742188 238.050781 L 425.523438 238.074219 L 425.300781 238.082031 L 425.058594 238.074219 L 424.828125 238.050781 L 424.609375 238.007813 L 424.398438 237.949219 L 424.203125 237.871094 L 424.015625 237.777344 L 423.839844 237.667969 L 423.675781 237.539063 L 423.523438 237.394531 L 423.378906 237.230469 L 423.253906 237.050781 L 423.136719 236.859375 L 423.039063 236.652344 L 422.949219 236.429688 L 422.875 236.195313 L 422.816406 235.949219 L 422.769531 235.6875 L 422.734375 235.410156 L 422.714844 235.121094 L 422.707031 234.820313 L 422.714844 234.515625 L 422.734375 234.226563 L 422.765625 233.949219 L 422.8125 233.683594 L 422.871094 233.433594 L 422.941406 233.195313 L 423.027344 232.96875 L 423.121094 232.757813 L 423.234375 232.558594 L 423.355469 232.371094 L 423.492188 232.199219 L 423.636719 232.042969 L 423.789063 231.90625 L 423.957031 231.789063 L 424.128906 231.6875 L 424.316406 231.605469 L 424.511719 231.542969 L 424.714844 231.496094 L 424.929688 231.46875 L 425.15625 231.460938 L 425.378906 231.46875 L 425.589844 231.492188 L 425.792969 231.53125 L 425.984375 231.589844 L 426.164063 231.664063 L 426.335938 231.753906 L 426.492188 231.859375 L 426.640625 231.980469 L 426.78125 232.121094 L 426.90625 232.277344 L 427.023438 232.445313 L 427.128906 232.625 L 427.21875 232.820313 L 427.300781 233.03125 L 427.367188 233.253906 L 427.421875 233.492188 L 427.464844 233.742188 L 427.496094 234.007813 L 427.515625 234.285156 Z M 426.476563 234.253906 L 426.464844 233.878906 L 426.421875 233.542969 L 426.359375 233.246094 L 426.265625 232.988281 L 426.148438 232.769531 L 426.003906 232.59375 L 425.835938 232.453125 L 425.640625 232.355469 L 425.417969 232.296875 L 425.167969 232.277344 L 425.050781 232.28125 L 424.9375 232.296875 L 424.832031 232.320313 L 424.726563 232.355469 L 424.632813 232.402344 L 424.539063 232.457031 L 424.453125 232.523438 L 424.371094 232.597656 L 424.292969 232.683594 L 424.21875 232.78125 L 424.152344 232.882813 L 424.09375 233 L 424.039063 233.132813 L 423.988281 233.273438 L 423.945313 233.429688 L 423.910156 233.59375 L 423.878906 233.773438 L 423.855469 233.964844 L 423.835938 234.171875 L 423.824219 234.386719 L 426.476563 234.386719 Z M 426.476563 234.253906 "/>
<path style=" stroke:none;fill-rule:nonzero;fill:rgb(0%,0%,0%);fill-opacity:1;" d="M 430.652344 231.460938 L 430.867188 231.46875 L 431.078125 231.488281 L 431.285156 231.523438 L 431.488281 231.574219 L 431.683594 231.640625 L 431.875 231.71875 L 432.0625 231.8125 L 432.246094 231.921875 L 432.421875 232.042969 L 432.597656 232.179688 L 432.140625 232.816406 L 432.0625 232.765625 L 431.988281 232.714844 L 431.914063 232.667969 L 431.839844 232.625 L 431.769531 232.585938 L 431.695313 232.546875 L 431.554688 232.476563 L 431.488281 232.449219 L 431.421875 232.417969 L 431.351563 232.394531 L 431.285156 232.371094 L 431.214844 232.351563 L 431.074219 232.320313 L 431.003906 232.308594 L 430.933594 232.300781 L 430.859375 232.292969 L 430.785156 232.289063 L 430.617188 232.289063 L 430.523438 232.296875 L 430.433594 232.308594 L 430.351563 232.324219 L 430.269531 232.347656 L 430.195313 232.375 L 430.125 232.40625 L 430.054688 232.441406 L 429.992188 232.480469 L 429.933594 232.527344 L 429.878906 232.574219 L 429.832031 232.625 L 429.792969 232.679688 L 429.753906 232.738281 L 429.726563 232.800781 L 429.699219 232.867188 L 429.679688 232.933594 L 429.667969 233.007813 L 429.660156 233.082031 L 429.65625 233.164063 L 429.660156 233.242188 L 429.667969 233.316406 L 429.679688 233.386719 L 429.699219 233.453125 L 429.722656 233.519531 L 429.75 233.578125 L 429.785156 233.636719 L 429.824219 233.691406 L 429.871094 233.742188 L 429.921875 233.789063 L 429.980469 233.832031 L 430.050781 233.878906 L 430.128906 233.925781 L 430.21875 233.972656 L 430.316406 234.019531 L 430.425781 234.066406 L 430.542969 234.113281 L 430.667969 234.160156 L 430.804688 234.207031 L 430.953125 234.253906 L 431.136719 234.316406 L 431.3125 234.382813 L 431.472656 234.449219 L 431.628906 234.515625 L 431.769531 234.589844 L 431.902344 234.664063 L 432.027344 234.742188 L 432.136719 234.820313 L 432.242188 234.902344 L 432.332031 234.988281 L 432.414063 235.078125 L 432.488281 235.171875 L 432.550781 235.277344 L 432.609375 235.386719 L 432.65625 235.5 L 432.695313 235.621094 L 432.726563 235.75 L 432.746094 235.886719 L 432.757813 236.027344 L 432.765625 236.175781 L 432.757813 236.351563 L 432.738281 236.515625 L 432.707031 236.675781 L 432.660156 236.828125 L 432.601563 236.972656 L 432.53125 237.109375 L 432.445313 237.238281 L 432.347656 237.359375 L 432.238281 237.472656 L 432.117188 237.578125 L 431.984375 237.675781 L 431.84375 237.761719 L 431.699219 237.835938 L 431.546875 237.902344 L 431.386719 237.957031 L 431.222656 238.003906 L 431.050781 238.039063 L 430.871094 238.0625 L 430.6875 238.078125 L 430.496094 238.082031 L 430.242188 238.074219 L 430 238.050781 L 429.761719 238.007813 L 429.53125 237.949219 L 429.3125 237.871094 L 429.097656 237.777344 L 428.890625 237.667969 L 428.695313 237.539063 L 428.503906 237.394531 L 428.324219 237.230469 L 428.875 236.632813 L 429.027344 236.746094 L 429.183594 236.851563 L 429.335938 236.945313 L 429.496094 237.023438 L 429.652344 237.089844 L 429.8125 237.144531 L 429.976563 237.1875 L 430.140625 237.21875 L 430.304688 237.238281 L 430.472656 237.242188 L 430.574219 237.242188 L 430.675781 237.234375 L 430.863281 237.203125 L 430.949219 237.179688 L 431.03125 237.148438 L 431.109375 237.113281 L 431.1875 237.074219 L 431.257813 237.03125 L 431.324219 236.980469 L 431.386719 236.925781 L 431.441406 236.867188 L 431.488281 236.804688 L 431.53125 236.734375 L 431.566406 236.664063 L 431.597656 236.589844 L 431.617188 236.511719 L 431.636719 236.425781 L 431.644531 236.339844 L 431.648438 236.246094 L 431.648438 236.183594 L 431.644531 236.117188 L 431.628906 236 L 431.605469 235.890625 L 431.589844 235.84375 L 431.570313 235.792969 L 431.550781 235.75 L 431.527344 235.707031 L 431.503906 235.667969 L 431.476563 235.628906 L 431.445313 235.589844 L 431.410156 235.550781 L 431.371094 235.515625 L 431.328125 235.480469 L 431.28125 235.445313 L 431.230469 235.410156 L 431.179688 235.378906 L 431.121094 235.347656 L 431.058594 235.3125 L 430.992188 235.28125 L 430.921875 235.246094 L 430.84375 235.210938 L 430.761719 235.175781 L 430.675781 235.140625 L 430.582031 235.105469 L 430.484375 235.070313 L 430.378906 235.035156 L 430.269531 235 L 430.09375 234.9375 L 429.929688 234.875 L 429.773438 234.808594 L 429.628906 234.742188 L 429.492188 234.667969 L 429.371094 234.597656 L 429.253906 234.519531 L 429.152344 234.441406 L 429.054688 234.363281 L 428.972656 234.28125 L 428.898438 234.195313 L 428.828125 234.101563 L 428.769531 234.007813 L 428.71875 233.90625 L 428.675781 233.804688 L 428.640625 233.695313 L 428.613281 233.578125 L 428.59375 233.460938 L 428.578125 233.339844 L 428.574219 233.210938 L 428.578125 233.113281 L 428.585938 233.015625 L 428.601563 232.917969 L 428.617188 232.824219 L 428.640625 232.734375 L 428.671875 232.644531 L 428.707031 232.558594 L 428.746094 232.472656 L 428.789063 232.390625 L 428.839844 232.3125 L 428.894531 232.234375 L 428.953125 232.160156 L 429.015625 232.089844 L 429.082031 232.023438 L 429.15625 231.957031 L 429.230469 231.898438 L 429.308594 231.839844 L 429.394531 231.785156 L 429.480469 231.734375 L 429.570313 231.6875 L 429.667969 231.644531 L 429.765625 231.605469 L 429.867188 231.570313 L 429.96875 231.542969 L 430.074219 231.515625 L 430.183594 231.496094 L 430.296875 231.480469 L 430.414063 231.46875 L 430.53125 231.460938 Z M 430.652344 231.460938 "/>
<path style=" stroke:none;fill-rule:nonzero;fill:rgb(0%,0%,0%);fill-opacity:1;" d="M 435.777344 231.460938 L 435.992188 231.46875 L 436.203125 231.488281 L 436.410156 231.523438 L 436.609375 231.574219 L 436.808594 231.640625 L 437 231.71875 L 437.1875 231.8125 L 437.371094 231.921875 L 437.546875 232.042969 L 437.71875 232.179688 L 437.265625 232.816406 L 437.1875 232.765625 L 437.113281 232.714844 L 437.039063 232.667969 L 436.964844 232.625 L 436.890625 232.585938 L 436.820313 232.546875 L 436.679688 232.476563 L 436.613281 232.449219 L 436.542969 232.417969 L 436.410156 232.371094 L 436.339844 232.351563 L 436.199219 232.320313 L 436.128906 232.308594 L 436.054688 232.300781 L 435.984375 232.292969 L 435.910156 232.289063 L 435.738281 232.289063 L 435.648438 232.296875 L 435.558594 232.308594 L 435.476563 232.324219 L 435.394531 232.347656 L 435.320313 232.375 L 435.246094 232.40625 L 435.179688 232.441406 L 435.117188 232.480469 L 435.054688 232.527344 L 435.003906 232.574219 L 434.957031 232.625 L 434.914063 232.679688 L 434.878906 232.738281 L 434.847656 232.800781 L 434.824219 232.867188 L 434.804688 232.933594 L 434.78125 233.082031 L 434.78125 233.242188 L 434.789063 233.316406 L 434.804688 233.386719 L 434.824219 233.453125 L 434.847656 233.519531 L 434.875 233.578125 L 434.910156 233.636719 L 434.949219 233.691406 L 434.992188 233.742188 L 435.042969 233.789063 L 435.105469 233.832031 L 435.171875 233.878906 L 435.253906 233.925781 L 435.339844 233.972656 L 435.441406 234.019531 L 435.546875 234.066406 L 435.664063 234.113281 L 435.792969 234.160156 L 435.929688 234.207031 L 436.074219 234.253906 L 436.261719 234.316406 L 436.433594 234.382813 L 436.597656 234.449219 L 436.75 234.515625 L 436.894531 234.589844 L 437.027344 234.664063 L 437.152344 234.742188 L 437.261719 234.820313 L 437.363281 234.902344 L 437.457031 234.988281 L 437.539063 235.078125 L 437.613281 235.171875 L 437.675781 235.277344 L 437.734375 235.386719 L 437.78125 235.5 L 437.820313 235.621094 L 437.847656 235.75 L 437.871094 235.886719 L 437.882813 236.027344 L 437.886719 236.175781 L 437.882813 236.351563 L 437.863281 236.515625 L 437.828125 236.675781 L 437.785156 236.828125 L 437.726563 236.972656 L 437.65625 237.109375 L 437.570313 237.238281 L 437.472656 237.359375 L 437.363281 237.472656 L 437.238281 237.578125 L 437.105469 237.675781 L 436.96875 237.761719 L 436.820313 237.835938 L 436.667969 237.902344 L 436.511719 237.957031 L 436.347656 238.003906 L 436.175781 238.039063 L 435.996094 238.0625 L 435.8125 238.078125 L 435.621094 238.082031 L 435.367188 238.074219 L 435.121094 238.050781 L 434.886719 238.007813 L 434.65625 237.949219 L 434.433594 237.871094 L 434.222656 237.777344 L 434.015625 237.667969 L 433.820313 237.539063 L 433.628906 237.394531 L 433.449219 237.230469 L 434 236.632813 L 434.152344 236.746094 L 434.304688 236.851563 L 434.460938 236.945313 L 434.617188 237.023438 L 434.777344 237.089844 L 434.9375 237.144531 L 435.101563 237.1875 L 435.261719 237.21875 L 435.429688 237.238281 L 435.597656 237.242188 L 435.699219 237.242188 L 435.800781 237.234375 L 435.894531 237.21875 L 435.984375 237.203125 L 436.074219 237.179688 L 436.15625 237.148438 L 436.234375 237.113281 L 436.308594 237.074219 L 436.382813 237.03125 L 436.449219 236.980469 L 436.507813 236.925781 L 436.566406 236.867188 L 436.613281 236.804688 L 436.65625 236.734375 L 436.691406 236.664063 L 436.71875 236.589844 L 436.742188 236.511719 L 436.757813 236.425781 L 436.769531 236.339844 L 436.773438 236.246094 L 436.769531 236.183594 L 436.765625 236.117188 L 436.761719 236.058594 L 436.753906 236 L 436.730469 235.890625 L 436.714844 235.84375 L 436.695313 235.792969 L 436.675781 235.75 L 436.652344 235.707031 L 436.628906 235.667969 L 436.601563 235.628906 L 436.570313 235.589844 L 436.535156 235.550781 L 436.496094 235.515625 L 436.453125 235.480469 L 436.40625 235.445313 L 436.355469 235.410156 L 436.300781 235.378906 L 436.242188 235.347656 L 436.183594 235.3125 L 436.117188 235.28125 L 436.046875 235.246094 L 435.96875 235.210938 L 435.886719 235.175781 L 435.800781 235.140625 L 435.707031 235.105469 L 435.503906 235.035156 L 435.390625 235 L 435.21875 234.9375 L 435.050781 234.875 L 434.898438 234.808594 L 434.753906 234.742188 L 434.617188 234.667969 L 434.492188 234.597656 L 434.378906 234.519531 L 434.273438 234.441406 L 434.179688 234.363281 L 434.097656 234.28125 L 434.019531 234.195313 L 433.953125 234.101563 L 433.894531 234.007813 L 433.84375 233.90625 L 433.800781 233.804688 L 433.761719 233.695313 L 433.734375 233.578125 L 433.714844 233.460938 L 433.703125 233.339844 L 433.699219 233.210938 L 433.703125 233.113281 L 433.710938 233.015625 L 433.722656 232.917969 L 433.742188 232.824219 L 433.765625 232.734375 L 433.796875 232.644531 L 433.828125 232.558594 L 433.867188 232.472656 L 433.914063 232.390625 L 433.964844 232.3125 L 434.019531 232.234375 L 434.078125 232.160156 L 434.140625 232.089844 L 434.207031 232.023438 L 434.277344 231.957031 L 434.433594 231.839844 L 434.515625 231.785156 L 434.605469 231.734375 L 434.695313 231.6875 L 434.792969 231.644531 L 434.890625 231.605469 L 434.988281 231.570313 L 435.199219 231.515625 L 435.308594 231.496094 L 435.421875 231.480469 L 435.535156 231.46875 L 435.65625 231.460938 Z M 435.777344 231.460938 "/>
</g>
</svg>
