<?xml version="1.0" encoding="UTF-8"?>
<svg xmlns="http://www.w3.org/2000/svg" xmlns:xlink="http://www.w3.org/1999/xlink" width="504pt" height="360pt" viewBox="0 0 504 360" version="1.1">
<g id="surface34">
<rect x="0" y="0" width="504" height="360" style="fill:rgb(100%,100%,100%);fill-opacity:1;stroke:none;"/>
<path style="fill-rule:nonzero;fill:rgb(5.098039%,3.137255%,52.941176%);fill-opacity:1;stroke-width:3.200935;stroke-linecap:round;stroke-linejoin:round;stroke:rgb(100%,100%,100%);stroke-opacity:1;stroke-miterlimit:10;" d="M 223.292969 171.480469 L 223.292969 56.972656 L 219.402344 57.039063 L 215.519531 57.238281 L 211.644531 57.566406 L 207.785156 58.027344 L 203.941406 58.621094 L 200.121094 59.34375 L 196.328125 60.195313 L 192.5625 61.171875 L 188.835938 62.28125 L 185.148438 63.511719 L 181.503906 64.871094 L 177.910156 66.351563 L 174.363281 67.953125 L 170.878906 69.671875 L 167.453125 71.511719 L 164.089844 73.464844 L 160.796875 75.53125 L 157.574219 77.710938 L 154.429688 79.996094 L 151.359375 82.386719 L 148.378906 84.878906 L 145.480469 87.472656 L 142.671875 90.164063 L 139.957031 92.949219 L 137.339844 95.824219 L 134.820313 98.785156 L 132.402344 101.832031 L 130.089844 104.957031 L 127.886719 108.160156 L 125.789063 111.433594 L 123.808594 114.78125 L 121.941406 118.191406 L 120.1875 121.664063 L 118.558594 125.191406 L 117.046875 128.777344 L 115.65625 132.40625 L 114.394531 136.085938 L 113.253906 139.800781 L 112.242188 143.558594 L 111.355469 147.34375 L 110.601563 151.160156 L 109.976563 154.996094 L 109.484375 158.851563 L 109.121094 162.726563 L 108.886719 166.605469 L 108.789063 170.492188 L 108.820313 174.382813 L 108.984375 178.265625 L 109.28125 182.144531 L 109.710938 186.007813 L 110.269531 189.855469 L 110.957031 193.683594 L 111.777344 197.484375 L 112.722656 201.257813 L 113.796875 204.996094 L 115 208.691406 L 116.324219 212.347656 L 117.773438 215.957031 L 119.34375 219.511719 L 121.035156 223.015625 L 122.84375 226.457031 L 124.769531 229.835938 L 126.808594 233.148438 L 128.957031 236.386719 L 131.214844 239.554688 L 133.578125 242.640625 L 136.046875 245.644531 L 138.617188 248.566406 L 141.28125 251.394531 L 144.042969 254.132813 L 146.894531 256.777344 L 149.835938 259.324219 L 152.859375 261.765625 L 155.964844 264.105469 L 159.148438 266.339844 L 162.40625 268.460938 L 165.734375 270.472656 L 169.128906 272.371094 L 172.585938 274.152344 L 176.101563 275.8125 L 179.671875 277.355469 L 183.292969 278.773438 L 186.957031 280.070313 L 190.664063 281.242188 L 194.410156 282.289063 L 198.191406 283.203125 L 202 283.992188 L 205.832031 284.648438 L 209.683594 285.175781 L 213.550781 285.574219 L 217.429688 285.839844 L 221.316406 285.972656 L 225.207031 285.972656 L 229.09375 285.84375 L 232.972656 285.578125 L 236.839844 285.183594 L 240.691406 284.660156 L 244.527344 284.003906 L 248.335938 283.21875 L 252.113281 282.300781 L 255.859375 281.261719 L 259.566406 280.089844 L 263.234375 278.796875 L 266.855469 277.378906 L 270.425781 275.839844 L 273.941406 274.179688 L 277.398438 272.398438 L 280.796875 270.503906 L 284.125 268.492188 L 287.382813 266.371094 L 290.566406 264.140625 L 293.675781 261.804688 L 296.703125 259.363281 L 299.644531 256.820313 L 302.496094 254.175781 L 305.257813 251.441406 L 307.925781 248.609375 L 310.496094 245.691406 L 312.964844 242.6875 L 315.332031 239.605469 L 317.59375 236.4375 L 319.742188 233.199219 L 321.785156 229.890625 L 323.710938 226.511719 L 320.246094 224.613281 L 316.785156 222.714844 L 313.320313 220.820313 L 306.398438 217.023438 L 302.933594 215.125 L 299.472656 213.226563 L 296.007813 211.332031 L 292.546875 209.433594 L 289.082031 207.535156 L 285.621094 205.636719 L 282.15625 203.742188 L 278.695313 201.84375 L 275.230469 199.945313 L 268.308594 196.148438 L 264.84375 194.253906 L 261.382813 192.355469 L 257.917969 190.457031 L 254.457031 188.558594 L 250.992188 186.660156 L 247.53125 184.765625 L 244.066406 182.867188 L 237.144531 179.070313 L 233.679688 177.175781 L 230.21875 175.277344 L 226.753906 173.378906 Z M 223.292969 171.480469 "/>
<path style="fill-rule:nonzero;fill:rgb(33.72549%,0.392157%,64.313725%);fill-opacity:1;stroke-width:3.200935;stroke-linecap:round;stroke-linejoin:round;stroke:rgb(100%,100%,100%);stroke-opacity:1;stroke-miterlimit:10;" d="M 223.292969 171.480469 L 226.753906 173.378906 L 230.21875 175.277344 L 233.679688 177.175781 L 237.144531 179.070313 L 244.066406 182.867188 L 247.53125 184.765625 L 250.992188 186.660156 L 254.457031 188.558594 L 257.917969 190.457031 L 261.382813 192.355469 L 264.84375 194.253906 L 268.308594 196.148438 L 275.230469 199.945313 L 278.695313 201.84375 L 282.15625 203.742188 L 285.621094 205.636719 L 289.082031 207.535156 L 292.546875 209.433594 L 296.007813 211.332031 L 299.472656 213.226563 L 302.933594 215.125 L 306.398438 217.023438 L 313.320313 220.820313 L 316.785156 222.714844 L 320.246094 224.613281 L 323.710938 226.511719 L 325.523438 223.066406 L 327.214844 219.5625 L 328.789063 216.003906 L 330.242188 212.394531 L 331.570313 208.734375 L 332.773438 205.035156 L 333.851563 201.296875 L 334.800781 197.519531 L 335.621094 193.71875 L 336.3125 189.886719 L 336.871094 186.035156 L 337.300781 182.167969 L 337.597656 178.289063 L 337.761719 174.398438 L 337.796875 170.507813 L 337.695313 166.617188 L 337.464844 162.734375 L 337.101563 158.859375 L 336.609375 155 L 335.980469 151.15625 L 335.226563 147.339844 L 334.339844 143.550781 L 333.328125 139.792969 L 332.1875 136.070313 L 330.921875 132.390625 L 329.53125 128.757813 L 328.019531 125.171875 L 326.382813 121.640625 L 324.628906 118.164063 L 322.761719 114.753906 L 320.773438 111.40625 L 318.675781 108.128906 L 316.46875 104.921875 L 314.152344 101.792969 L 311.734375 98.746094 L 309.210938 95.785156 L 306.589844 92.90625 L 303.871094 90.125 L 301.058594 87.433594 L 298.160156 84.835938 L 295.171875 82.34375 L 292.101563 79.953125 L 288.949219 77.667969 L 285.726563 75.492188 L 282.425781 73.425781 L 279.0625 71.472656 L 275.628906 69.632813 L 272.140625 67.914063 L 268.589844 66.316406 L 264.992188 64.835938 L 261.34375 63.480469 L 257.652344 62.25 L 253.917969 61.144531 L 250.152344 60.167969 L 246.355469 59.320313 L 242.53125 58.601563 L 238.683594 58.011719 L 234.820313 57.554688 L 230.941406 57.230469 L 230.675781 61.167969 L 230.414063 65.109375 L 230.148438 69.046875 L 229.886719 72.988281 L 229.621094 76.929688 L 229.359375 80.867188 L 229.09375 84.808594 L 228.832031 88.746094 L 228.566406 92.6875 L 228.304688 96.625 L 228.039063 100.566406 L 227.777344 104.507813 L 227.511719 108.445313 L 227.25 112.386719 L 226.984375 116.324219 L 226.722656 120.265625 L 226.457031 124.203125 L 226.191406 128.144531 L 225.929688 132.082031 L 225.664063 136.023438 L 225.402344 139.964844 L 225.136719 143.902344 L 224.875 147.84375 L 224.609375 151.78125 L 224.347656 155.722656 L 224.082031 159.660156 L 223.820313 163.601563 L 223.554688 167.542969 Z M 223.292969 171.480469 "/>
<path style="fill-rule:nonzero;fill:rgb(56.470588%,5.098039%,64.313725%);fill-opacity:1;stroke-width:3.200935;stroke-linecap:round;stroke-linejoin:round;stroke:rgb(100%,100%,100%);stroke-opacity:1;stroke-miterlimit:10;" d="M 223.292969 171.480469 L 223.554688 167.542969 L 223.820313 163.601563 L 224.082031 159.660156 L 224.347656 155.722656 L 224.609375 151.78125 L 224.875 147.84375 L 225.136719 143.902344 L 225.402344 139.964844 L 225.664063 136.023438 L 225.929688 132.082031 L 226.191406 128.144531 L 226.457031 124.203125 L 226.722656 120.265625 L 226.984375 116.324219 L 227.25 112.386719 L 227.511719 108.445313 L 227.777344 104.507813 L 228.039063 100.566406 L 228.304688 96.625 L 228.566406 92.6875 L 228.832031 88.746094 L 229.09375 84.808594 L 229.359375 80.867188 L 229.621094 76.929688 L 229.886719 72.988281 L 230.148438 69.046875 L 230.414063 65.109375 L 230.675781 61.167969 L 230.941406 57.230469 L 230.675781 61.167969 L 230.414063 65.109375 L 230.148438 69.046875 L 229.886719 72.988281 L 229.621094 76.929688 L 229.359375 80.867188 L 229.09375 84.808594 L 228.832031 88.746094 L 228.566406 92.6875 L 228.304688 96.625 L 228.039063 100.566406 L 227.777344 104.507813 L 227.511719 108.445313 L 227.25 112.386719 L 226.984375 116.324219 L 226.722656 120.265625 L 226.457031 124.203125 L 226.191406 128.144531 L 225.929688 132.082031 L 225.664063 136.023438 L 225.402344 139.964844 L 225.136719 143.902344 L 224.875 147.84375 L 224.609375 151.78125 L 224.347656 155.722656 L 224.082031 159.660156 L 223.820313 163.601563 L 223.554688 167.542969 Z M 223.292969 171.480469 "/>
<path style="fill-rule:nonzero;fill:rgb(74.901961%,22.352941%,51.764706%);fill-opacity:1;stroke-width:3.200935;stroke-linecap:round;stroke-linejoin:round;stroke:rgb(100%,100%,100%);stroke-opacity:1;stroke-miterlimit:10;" d="M 223.292969 171.480469 L 223.554688 167.542969 L 223.820313 163.601563 L 224.082031 159.660156 L 224.347656 155.722656 L 224.609375 151.78125 L 224.875 147.84375 L 225.136719 143.902344 L 225.402344 139.964844 L 225.664063 136.023438 L 225.929688 132.082031 L 226.191406 128.144531 L 226.457031 124.203125 L 226.722656 120.265625 L 226.984375 116.324219 L 227.25 112.386719 L 227.511719 108.445313 L 227.777344 104.507813 L 228.039063 100.566406 L 228.304688 96.625 L 228.566406 92.6875 L 228.832031 88.746094 L 229.09375 84.808594 L 229.359375 80.867188 L 229.621094 76.929688 L 229.886719 72.988281 L 230.148438 69.046875 L 230.414063 65.109375 L 230.675781 61.167969 L 230.941406 57.230469 L 223.292969 56.972656 Z M 223.292969 171.480469 "/>
<path style="fill:none;stroke-width:3.200935;stroke-linecap:round;stroke-linejoin:round;stroke:rgb(100%,100%,100%);stroke-opacity:1;stroke-miterlimit:10;" d="M 223.292969 171.480469 L 223.292969 56.972656 Z M 223.292969 171.480469 "/>
<path style="fill:none;stroke-width:3.200935;stroke-linecap:round;stroke-linejoin:round;stroke:rgb(100%,100%,100%);stroke-opacity:1;stroke-miterlimit:10;" d="M 223.292969 171.480469 L 223.292969 56.972656 Z M 223.292969 171.480469 "/>
<path style="fill:none;stroke-width:3.200935;stroke-linecap:round;stroke-linejoin:round;stroke:rgb(100%,100%,100%);stroke-opacity:1;stroke-miterlimit:10;" d="M 223.292969 171.480469 L 223.292969 56.972656 Z M 223.292969 171.480469 "/>
<path style="fill:none;stroke-width:3.200935;stroke-linecap:round;stroke-linejoin:round;stroke:rgb(100%,100%,100%);stroke-opacity:1;stroke-miterlimit:10;" d="M 223.292969 171.480469 L 223.292969 56.972656 Z M 223.292969 171.480469 "/>
<path style="fill:none;stroke-width:3.200935;stroke-linecap:round;stroke-linejoin:round;stroke:rgb(100%,100%,100%);stroke-opacity:1;stroke-miterlimit:10;" d="M 223.292969 171.480469 L 223.292969 56.972656 Z M 223.292969 171.480469 "/>
<path style="fill:none;stroke-width:3.200935;stroke-linecap:round;stroke-linejoin:round;stroke:rgb(100%,100%,100%);stroke-opacity:1;stroke-miterlimit:10;" d="M 223.292969 171.480469 L 223.292969 56.972656 Z M 223.292969 171.480469 "/>
<path style="fill-rule:nonzero;fill:rgb(100%,100%,100%);fill-opacity:1;stroke-width:1.115477;stroke-linecap:round;stroke-linejoin:round;stroke:rgb(100%,100%,100%);stroke-opacity:1;stroke-miterlimit:10;" d="M 377.882813 274.089844 L 432.375 274.089844 L 432.375 68.875 L 377.882813 68.875 Z M 377.882813 274.089844 "/>
<path style="fill-rule:nonzero;fill:rgb(5.098039%,3.137255%,52.941176%);fill-opacity:1;stroke-width:3.200935;stroke-linecap:square;stroke-linejoin:miter;stroke:rgb(100%,100%,100%);stroke-opacity:1;stroke-miterlimit:10;" d="M 385.738281 110.714844 L 398.765625 110.714844 L 398.765625 97.6875 L 385.738281 97.6875 Z M 385.738281 110.714844 "/>
<path style="fill-rule:nonzero;fill:rgb(33.72549%,0.392157%,64.313725%);fill-opacity:1;stroke-width:3.200935;stroke-linecap:square;stroke-linejoin:miter;stroke:rgb(100%,100%,100%);stroke-opacity:1;stroke-miterlimit:10;" d="M 385.738281 127.992188 L 398.765625 127.992188 L 398.765625 114.964844 L 385.738281 114.964844 Z M 385.738281 127.992188 "/>
<path style="fill-rule:nonzero;fill:rgb(56.470588%,5.098039%,64.313725%);fill-opacity:1;stroke-width:3.200935;stroke-linecap:square;stroke-linejoin:miter;stroke:rgb(100%,100%,100%);stroke-opacity:1;stroke-miterlimit:10;" d="M 385.738281 145.273438 L 398.765625 145.273438 L 398.765625 132.246094 L 385.738281 132.246094 Z M 385.738281 145.273438 "/>
<path style="fill-rule:nonzero;fill:rgb(74.901961%,22.352941%,51.764706%);fill-opacity:1;stroke-width:3.200935;stroke-linecap:square;stroke-linejoin:miter;stroke:rgb(100%,100%,100%);stroke-opacity:1;stroke-miterlimit:10;" d="M 385.738281 162.554688 L 398.765625 162.554688 L 398.765625 149.527344 L 385.738281 149.527344 Z M 385.738281 162.554688 "/>
<path style="fill-rule:nonzero;fill:rgb(56.470588%,5.098039%,64.313725%);fill-opacity:1;stroke-width:3.200935;stroke-linecap:square;stroke-linejoin:miter;stroke:rgb(100%,100%,100%);stroke-opacity:1;stroke-miterlimit:10;" d="M 385.738281 179.832031 L 398.765625 179.832031 L 398.765625 166.804688 L 385.738281 166.804688 Z M 385.738281 179.832031 "/>
<path style="fill-rule:nonzero;fill:rgb(88.235294%,39.215686%,38.431373%);fill-opacity:1;stroke-width:3.200935;stroke-linecap:square;stroke-linejoin:miter;stroke:rgb(100%,100%,100%);stroke-opacity:1;stroke-miterlimit:10;" d="M 385.738281 197.113281 L 398.765625 197.113281 L 398.765625 184.085938 L 385.738281 184.085938 Z M 385.738281 197.113281 "/>
<path style="fill-rule:nonzero;fill:rgb(97.254902%,58.039216%,25.490196%);fill-opacity:1;stroke-width:3.200935;stroke-linecap:square;stroke-linejoin:miter;stroke:rgb(100%,100%,100%);stroke-opacity:1;stroke-miterlimit:10;" d="M 385.738281 214.394531 L 398.765625 214.394531 L 398.765625 201.367188 L 385.738281 201.367188 Z M 385.738281 214.394531 "/>
<path style="fill-rule:nonzero;fill:rgb(96.078431%,77.254902%,25.882353%);fill-opacity:1;stroke-width:3.200935;stroke-linecap:square;stroke-linejoin:miter;stroke:rgb(100%,100%,100%);stroke-opacity:1;stroke-miterlimit:10;" d="M 385.738281 231.671875 L 398.765625 231.671875 L 398.765625 218.644531 L 385.738281 218.644531 Z M 385.738281 231.671875 "/>
<path style="fill-rule:nonzero;fill:rgb(98.823529%,80.784314%,14.509804%);fill-opacity:1;stroke-width:3.200935;stroke-linecap:square;stroke-linejoin:miter;stroke:rgb(100%,100%,100%);stroke-opacity:1;stroke-miterlimit:10;" d="M 385.738281 248.953125 L 398.765625 248.953125 L 398.765625 235.925781 L 385.738281 235.925781 Z M 385.738281 248.953125 "/>
<path style="fill-rule:nonzero;fill:rgb(96.078431%,86.27451%,49.803922%);fill-opacity:1;stroke-width:3.200935;stroke-linecap:square;stroke-linejoin:miter;stroke:rgb(100%,100%,100%);stroke-opacity:1;stroke-miterlimit:10;" d="M 385.738281 266.234375 L 398.765625 266.234375 L 398.765625 253.207031 L 385.738281 253.207031 Z M 385.738281 266.234375 "/>
</g>
</svg>
