<?xml version="1.0" encoding="UTF-8"?>
<svg xmlns="http://www.w3.org/2000/svg" xmlns:xlink="http://www.w3.org/1999/xlink" width="576pt" height="180pt" viewBox="0 0 576 180" version="1.1">
<g id="surface4">
<rect x="0" y="0" width="576" height="180" style="fill:rgb(100%,100%,100%);fill-opacity:1;stroke:none;"/>
<path style="fill:none;stroke-width:3.200935;stroke-linecap:butt;stroke-linejoin:round;stroke:rgb(0%,0%,0%);stroke-opacity:1;stroke-miterlimit:1;" d="M 104.070313 87.507813 L 476.914063 87.507813 "/>
<path style="fill-rule:nonzero;fill:rgb(0%,0%,0%);fill-opacity:1;stroke-width:3.200935;stroke-linecap:butt;stroke-linejoin:round;stroke:rgb(0%,0%,0%);stroke-opacity:1;stroke-miterlimit:1;" d="M 467.558594 92.910156 L 476.914063 87.507813 L 467.558594 82.109375 Z M 467.558594 92.910156 "/>
<path style="fill-rule:nonzero;fill:rgb(56.470588%,5.098039%,64.313725%);fill-opacity:1;stroke-width:0.708661;stroke-linecap:round;stroke-linejoin:round;stroke:rgb(56.470588%,5.098039%,64.313725%);stroke-opacity:1;stroke-miterlimit:10;" d="M 82.5625 87.507813 C 82.5625 99.492188 72.851563 109.203125 60.867188 109.203125 C 48.886719 109.203125 39.175781 99.492188 39.175781 87.507813 C 39.175781 75.527344 48.886719 65.816406 60.867188 65.816406 C 72.851563 65.816406 82.5625 75.527344 82.5625 87.507813 "/>
<path style="fill-rule:nonzero;fill:rgb(97.254902%,58.039216%,25.490196%);fill-opacity:1;stroke-width:0.708661;stroke-linecap:round;stroke-linejoin:round;stroke:rgb(97.254902%,58.039216%,25.490196%);stroke-opacity:1;stroke-miterlimit:10;" d="M 541.808594 87.507813 C 541.808594 99.492188 532.09375 109.203125 520.113281 109.203125 C 508.132813 109.203125 498.417969 99.492188 498.417969 87.507813 C 498.417969 75.527344 508.132813 65.816406 520.113281 65.816406 C 532.09375 65.816406 541.808594 75.527344 541.808594 87.507813 "/>
<path style="fill-rule:nonzero;fill:rgb(56.470588%,5.098039%,64.313725%);fill-opacity:1;stroke-width:0.533489;stroke-linecap:round;stroke-linejoin:round;stroke:rgb(100%,100%,100%);stroke-opacity:1;stroke-miterlimit:10;" d="M 22.144531 128.371094 L 121.878906 128.371094 L 121.792969 128.371094 L 122.140625 128.355469 L 122.480469 128.285156 L 122.804688 128.164063 L 123.105469 127.988281 L 123.375 127.769531 L 123.605469 127.507813 L 123.792969 127.214844 L 123.929688 126.894531 L 124.011719 126.558594 L 124.039063 126.210938 L 124.039063 95.128906 L 124.011719 94.78125 L 123.929688 94.445313 L 123.792969 94.125 L 123.605469 93.832031 L 123.375 93.570313 L 123.105469 93.351563 L 122.804688 93.175781 L 122.480469 93.054688 L 122.140625 92.984375 L 121.878906 92.96875 L 22.144531 92.96875 L 22.40625 92.984375 L 22.058594 92.96875 L 21.710938 93.011719 L 21.378906 93.109375 L 21.0625 93.257813 L 20.777344 93.457031 L 20.527344 93.695313 L 20.316406 93.972656 L 20.15625 94.28125 L 20.046875 94.613281 L 19.992188 94.953125 L 19.984375 95.128906 L 19.984375 126.210938 L 19.992188 126.039063 L 19.992188 126.386719 L 20.046875 126.726563 L 20.15625 127.058594 L 20.316406 127.367188 L 20.527344 127.644531 L 20.777344 127.882813 L 21.0625 128.082031 L 21.378906 128.230469 L 21.710938 128.328125 L 22.058594 128.371094 Z M 22.144531 128.371094 "/>
<path style=" stroke:none;fill-rule:evenodd;fill:rgb(100%,100%,100%);fill-opacity:1;" d="M 39.6875 103.769531 L 39.347656 106.039063 L 35.066406 106.039063 L 35.066406 109.445313 L 38.808594 109.445313 L 38.808594 111.675781 L 35.066406 111.675781 L 35.066406 115.261719 L 39.648438 115.261719 L 39.648438 117.570313 L 31.878906 117.570313 L 31.878906 103.769531 Z M 39.6875 103.769531 "/>
<path style=" stroke:none;fill-rule:evenodd;fill:rgb(100%,100%,100%);fill-opacity:1;" d="M 50.023438 102.792969 L 50.023438 117.570313 L 47.316406 117.570313 L 47.175781 116.394531 L 46.964844 116.683594 L 46.742188 116.941406 L 46.507813 117.167969 L 46.257813 117.363281 L 45.996094 117.53125 L 45.71875 117.667969 L 45.429688 117.773438 L 45.128906 117.847656 L 44.816406 117.894531 L 44.488281 117.910156 L 44.140625 117.894531 L 43.8125 117.851563 L 43.5 117.777344 L 43.203125 117.671875 L 42.921875 117.542969 L 42.660156 117.378906 L 42.414063 117.1875 L 42.1875 116.964844 L 41.972656 116.714844 L 41.777344 116.4375 L 41.601563 116.125 L 41.441406 115.792969 L 41.300781 115.433594 L 41.179688 115.050781 L 41.074219 114.648438 L 40.992188 114.21875 L 40.925781 113.769531 L 40.878906 113.292969 L 40.851563 112.796875 L 40.84375 112.273438 L 40.847656 111.941406 L 40.859375 111.621094 L 40.886719 111.304688 L 40.917969 111 L 40.960938 110.699219 L 41.015625 110.410156 L 41.078125 110.125 L 41.148438 109.851563 L 41.230469 109.585938 L 41.320313 109.324219 L 41.421875 109.078125 L 41.535156 108.839844 L 41.652344 108.613281 L 41.777344 108.398438 L 41.914063 108.195313 L 42.054688 108.003906 L 42.203125 107.824219 L 42.359375 107.65625 L 42.523438 107.5 L 42.695313 107.355469 L 42.875 107.222656 L 43.0625 107.101563 L 43.253906 107 L 43.453125 106.90625 L 43.65625 106.832031 L 43.863281 106.769531 L 44.074219 106.71875 L 44.292969 106.683594 L 44.515625 106.664063 L 44.746094 106.65625 L 45.007813 106.667969 L 45.261719 106.695313 L 45.503906 106.746094 L 45.738281 106.8125 L 45.964844 106.902344 L 46.183594 107.007813 L 46.390625 107.132813 L 46.585938 107.28125 L 46.777344 107.445313 L 46.957031 107.632813 L 46.957031 102.472656 Z M 45.460938 115.660156 L 45.554688 115.65625 L 45.640625 115.648438 L 45.730469 115.636719 L 45.8125 115.617188 L 45.894531 115.59375 L 45.976563 115.566406 L 46.054688 115.53125 L 46.132813 115.492188 L 46.207031 115.449219 L 46.28125 115.398438 L 46.351563 115.339844 L 46.421875 115.277344 L 46.492188 115.207031 L 46.558594 115.132813 L 46.628906 115.050781 L 46.695313 114.964844 L 46.761719 114.875 L 46.828125 114.777344 L 46.890625 114.671875 L 46.957031 114.5625 L 46.957031 109.761719 L 46.894531 109.679688 L 46.828125 109.597656 L 46.765625 109.523438 L 46.703125 109.453125 L 46.574219 109.324219 L 46.511719 109.265625 L 46.445313 109.214844 L 46.382813 109.167969 L 46.320313 109.125 L 46.195313 109.046875 L 46.0625 108.984375 L 45.992188 108.960938 L 45.917969 108.941406 L 45.84375 108.925781 L 45.765625 108.914063 L 45.601563 108.90625 L 45.300781 108.941406 L 45.027344 109.042969 L 44.789063 109.210938 L 44.582031 109.445313 L 44.40625 109.75 L 44.265625 110.117188 L 44.152344 110.554688 L 44.074219 111.0625 L 44.023438 111.632813 L 44.007813 112.273438 L 44.011719 112.640625 L 44.023438 112.984375 L 44.042969 113.304688 L 44.070313 113.605469 L 44.101563 113.882813 L 44.144531 114.136719 L 44.195313 114.367188 L 44.25 114.574219 L 44.316406 114.757813 L 44.386719 114.921875 L 44.464844 115.0625 L 44.550781 115.1875 L 44.644531 115.296875 L 44.742188 115.394531 L 44.84375 115.476563 L 44.957031 115.542969 L 45.074219 115.59375 L 45.195313 115.628906 L 45.328125 115.652344 Z M 45.460938 115.660156 "/>
<path style=" stroke:none;fill-rule:evenodd;fill:rgb(100%,100%,100%);fill-opacity:1;" d="M 60.359375 117.570313 L 57.691406 117.570313 L 57.550781 116.296875 L 57.335938 116.601563 L 57.109375 116.878906 L 56.863281 117.117188 L 56.605469 117.328125 L 56.332031 117.507813 L 56.042969 117.652344 L 55.742188 117.765625 L 55.421875 117.84375 L 55.089844 117.894531 L 54.742188 117.910156 L 54.492188 117.902344 L 54.25 117.875 L 54.019531 117.832031 L 53.800781 117.773438 L 53.59375 117.695313 L 53.398438 117.601563 L 53.214844 117.488281 L 53.042969 117.363281 L 52.882813 117.214844 L 52.730469 117.054688 L 52.601563 116.875 L 52.480469 116.6875 L 52.375 116.484375 L 52.285156 116.273438 L 52.210938 116.046875 L 52.148438 115.808594 L 52.097656 115.5625 L 52.0625 115.300781 L 52.042969 115.027344 L 52.035156 114.742188 L 52.035156 106.996094 L 55.101563 106.996094 L 55.101563 114.503906 L 55.109375 114.71875 L 55.132813 114.914063 L 55.175781 115.082031 L 55.230469 115.230469 L 55.300781 115.355469 L 55.390625 115.457031 L 55.492188 115.535156 L 55.613281 115.59375 L 55.746094 115.628906 L 55.898438 115.640625 L 56.054688 115.628906 L 56.203125 115.59375 L 56.351563 115.535156 L 56.496094 115.453125 L 56.636719 115.351563 L 56.773438 115.222656 L 56.910156 115.074219 L 57.039063 114.898438 L 57.167969 114.703125 L 57.292969 114.484375 L 57.292969 106.996094 L 60.359375 106.996094 Z M 60.359375 117.570313 "/>
<path style=" stroke:none;fill-rule:evenodd;fill:rgb(100%,100%,100%);fill-opacity:1;" d="M 66.792969 106.65625 L 66.992188 106.660156 L 67.183594 106.667969 L 67.375 106.683594 L 67.558594 106.707031 L 67.738281 106.734375 L 67.917969 106.769531 L 68.089844 106.8125 L 68.257813 106.859375 L 68.425781 106.914063 L 68.585938 106.976563 L 68.746094 107.042969 L 68.902344 107.117188 L 69.054688 107.195313 L 69.207031 107.285156 L 69.359375 107.378906 L 69.507813 107.480469 L 69.652344 107.585938 L 69.796875 107.703125 L 69.941406 107.824219 L 70.078125 107.949219 L 68.804688 109.703125 L 68.714844 109.632813 L 68.535156 109.507813 L 68.445313 109.449219 L 68.355469 109.394531 L 68.269531 109.34375 L 68.097656 109.257813 L 68.011719 109.21875 L 67.929688 109.1875 L 67.84375 109.152344 L 67.757813 109.121094 L 67.671875 109.09375 L 67.585938 109.070313 L 67.496094 109.050781 L 67.40625 109.035156 L 67.3125 109.023438 L 67.222656 109.015625 L 67.128906 109.007813 L 67.03125 109.007813 L 66.855469 109.015625 L 66.683594 109.035156 L 66.523438 109.074219 L 66.375 109.128906 L 66.230469 109.195313 L 66.097656 109.277344 L 65.972656 109.378906 L 65.859375 109.492188 L 65.753906 109.621094 L 65.660156 109.761719 L 65.570313 109.925781 L 65.492188 110.109375 L 65.425781 110.316406 L 65.367188 110.542969 L 65.316406 110.789063 L 65.273438 111.058594 L 65.242188 111.351563 L 65.21875 111.664063 L 65.203125 111.996094 L 65.199219 112.351563 L 65.203125 112.691406 L 65.21875 113.011719 L 65.242188 113.308594 L 65.273438 113.585938 L 65.316406 113.839844 L 65.367188 114.074219 L 65.425781 114.289063 L 65.492188 114.480469 L 65.570313 114.652344 L 65.660156 114.800781 L 65.757813 114.933594 L 65.867188 115.054688 L 65.980469 115.15625 L 66.105469 115.25 L 66.234375 115.324219 L 66.375 115.386719 L 66.523438 115.4375 L 66.679688 115.472656 L 66.839844 115.492188 L 67.011719 115.5 L 67.105469 115.5 L 67.191406 115.492188 L 67.28125 115.488281 L 67.367188 115.476563 L 67.449219 115.464844 L 67.535156 115.449219 L 67.613281 115.429688 L 67.695313 115.410156 L 67.773438 115.386719 L 67.847656 115.359375 L 67.925781 115.328125 L 68.007813 115.289063 L 68.089844 115.246094 L 68.261719 115.152344 L 68.355469 115.097656 L 68.449219 115.039063 L 68.542969 114.976563 L 68.746094 114.84375 L 70.078125 116.65625 L 69.800781 116.894531 L 69.511719 117.105469 L 69.210938 117.292969 L 68.902344 117.457031 L 68.582031 117.597656 L 68.25 117.707031 L 67.910156 117.796875 L 67.5625 117.859375 L 67.203125 117.898438 L 66.832031 117.910156 L 66.390625 117.894531 L 65.964844 117.851563 L 65.558594 117.777344 L 65.171875 117.675781 L 64.808594 117.546875 L 64.460938 117.386719 L 64.132813 117.195313 L 63.824219 116.980469 L 63.539063 116.730469 L 63.269531 116.457031 L 63.027344 116.152344 L 62.808594 115.828125 L 62.617188 115.476563 L 62.453125 115.105469 L 62.3125 114.707031 L 62.199219 114.289063 L 62.109375 113.84375 L 62.042969 113.378906 L 62.007813 112.886719 L 61.992188 112.371094 L 62 112.03125 L 62.015625 111.695313 L 62.046875 111.371094 L 62.085938 111.054688 L 62.136719 110.75 L 62.203125 110.449219 L 62.277344 110.160156 L 62.363281 109.878906 L 62.460938 109.609375 L 62.570313 109.34375 L 62.695313 109.09375 L 62.828125 108.851563 L 62.972656 108.621094 L 63.125 108.40625 L 63.289063 108.199219 L 63.460938 108.007813 L 63.640625 107.824219 L 63.832031 107.65625 L 64.035156 107.5 L 64.246094 107.355469 L 64.46875 107.222656 L 64.695313 107.101563 L 64.933594 107 L 65.179688 106.90625 L 65.429688 106.832031 L 65.6875 106.769531 L 65.953125 106.71875 L 66.226563 106.683594 L 66.507813 106.664063 Z M 66.792969 106.65625 "/>
<path style=" stroke:none;fill-rule:evenodd;fill:rgb(100%,100%,100%);fill-opacity:1;" d="M 78.921875 114.644531 L 78.929688 114.847656 L 78.9375 114.941406 L 78.945313 115.027344 L 78.957031 115.109375 L 78.972656 115.1875 L 78.992188 115.257813 L 79.011719 115.324219 L 79.035156 115.386719 L 79.0625 115.441406 L 79.09375 115.492188 L 79.125 115.539063 L 79.164063 115.585938 L 79.207031 115.628906 L 79.25 115.667969 L 79.300781 115.707031 L 79.355469 115.742188 L 79.414063 115.777344 L 79.539063 115.839844 L 78.902344 117.851563 L 78.722656 117.832031 L 78.550781 117.808594 L 78.382813 117.777344 L 78.222656 117.746094 L 78.070313 117.707031 L 77.925781 117.660156 L 77.785156 117.613281 L 77.652344 117.558594 L 77.527344 117.496094 L 77.410156 117.429688 L 77.296875 117.359375 L 77.1875 117.28125 L 77.085938 117.195313 L 76.988281 117.101563 L 76.898438 117 L 76.808594 116.890625 L 76.726563 116.773438 L 76.652344 116.648438 L 76.578125 116.515625 L 76.511719 116.375 L 76.308594 116.667969 L 76.085938 116.929688 L 75.847656 117.15625 L 75.589844 117.359375 L 75.3125 117.527344 L 75.019531 117.664063 L 74.707031 117.773438 L 74.378906 117.847656 L 74.03125 117.894531 L 73.664063 117.910156 L 73.382813 117.902344 L 73.113281 117.875 L 72.855469 117.828125 L 72.609375 117.765625 L 72.375 117.683594 L 72.152344 117.585938 L 71.941406 117.46875 L 71.742188 117.335938 L 71.550781 117.183594 L 71.375 117.011719 L 71.214844 116.824219 L 71.074219 116.625 L 70.949219 116.410156 L 70.839844 116.1875 L 70.746094 115.953125 L 70.671875 115.707031 L 70.613281 115.449219 L 70.570313 115.179688 L 70.546875 114.894531 L 70.539063 114.601563 L 70.550781 114.265625 L 70.585938 113.941406 L 70.640625 113.636719 L 70.722656 113.347656 L 70.828125 113.074219 L 70.953125 112.816406 L 71.105469 112.578125 L 71.277344 112.355469 L 71.472656 112.144531 L 71.691406 111.953125 L 71.9375 111.78125 L 72.203125 111.625 L 72.492188 111.488281 L 72.800781 111.367188 L 73.128906 111.265625 L 73.476563 111.183594 L 73.847656 111.121094 L 74.234375 111.074219 L 74.648438 111.046875 L 75.078125 111.039063 L 75.914063 111.039063 L 75.914063 110.359375 L 75.902344 110.1875 L 75.886719 110.03125 L 75.863281 109.882813 L 75.832031 109.75 L 75.792969 109.625 L 75.75 109.511719 L 75.699219 109.414063 L 75.640625 109.324219 L 75.578125 109.246094 L 75.503906 109.171875 L 75.421875 109.109375 L 75.328125 109.050781 L 75.222656 109.003906 L 75.109375 108.960938 L 74.984375 108.929688 L 74.847656 108.902344 L 74.703125 108.882813 L 74.546875 108.871094 L 74.382813 108.867188 L 74.179688 108.871094 L 73.96875 108.890625 L 73.75 108.914063 L 73.515625 108.953125 L 73.273438 109 L 73.015625 109.0625 L 72.753906 109.128906 L 72.476563 109.210938 L 72.191406 109.304688 L 71.890625 109.40625 L 71.195313 107.433594 L 71.371094 107.359375 L 71.550781 107.289063 L 71.730469 107.222656 L 71.914063 107.160156 L 72.289063 107.042969 L 72.480469 106.992188 L 72.675781 106.941406 L 73.066406 106.855469 L 73.265625 106.816406 L 73.460938 106.785156 L 73.652344 106.753906 L 73.84375 106.726563 L 74.210938 106.6875 L 74.394531 106.675781 L 74.570313 106.664063 L 74.746094 106.660156 L 74.917969 106.65625 L 75.320313 106.664063 L 75.699219 106.691406 L 76.054688 106.738281 L 76.390625 106.804688 L 76.703125 106.886719 L 76.996094 106.988281 L 77.265625 107.105469 L 77.515625 107.242188 L 77.742188 107.398438 L 77.945313 107.574219 L 78.132813 107.765625 L 78.296875 107.976563 L 78.445313 108.207031 L 78.570313 108.457031 L 78.679688 108.726563 L 78.765625 109.015625 L 78.835938 109.324219 L 78.882813 109.652344 L 78.914063 109.996094 L 78.921875 110.359375 Z M 74.582031 115.71875 L 74.664063 115.714844 L 74.746094 115.707031 L 74.824219 115.695313 L 74.902344 115.675781 L 74.980469 115.652344 L 75.054688 115.625 L 75.128906 115.59375 L 75.199219 115.554688 L 75.339844 115.460938 L 75.410156 115.40625 L 75.476563 115.347656 L 75.539063 115.285156 L 75.601563 115.21875 L 75.71875 115.070313 L 75.773438 114.988281 L 75.824219 114.90625 L 75.871094 114.816406 L 75.914063 114.722656 L 75.914063 112.75 L 75.359375 112.75 L 75.175781 112.753906 L 75.003906 112.765625 L 74.839844 112.785156 L 74.6875 112.816406 L 74.546875 112.851563 L 74.414063 112.894531 L 74.292969 112.945313 L 74.179688 113.007813 L 74.078125 113.074219 L 73.984375 113.148438 L 73.902344 113.230469 L 73.824219 113.316406 L 73.761719 113.414063 L 73.703125 113.523438 L 73.65625 113.636719 L 73.617188 113.761719 L 73.585938 113.894531 L 73.5625 114.035156 L 73.550781 114.183594 L 73.546875 114.34375 L 73.546875 114.476563 L 73.554688 114.601563 L 73.570313 114.722656 L 73.585938 114.835938 L 73.609375 114.941406 L 73.640625 115.042969 L 73.671875 115.136719 L 73.710938 115.222656 L 73.753906 115.304688 L 73.804688 115.378906 L 73.863281 115.445313 L 73.925781 115.503906 L 73.992188 115.554688 L 74.0625 115.597656 L 74.136719 115.632813 L 74.21875 115.664063 L 74.300781 115.6875 L 74.390625 115.707031 L 74.484375 115.714844 Z M 74.582031 115.71875 "/>
<path style=" stroke:none;fill-rule:evenodd;fill:rgb(100%,100%,100%);fill-opacity:1;" d="M 87.207031 117.074219 L 87.097656 117.152344 L 86.988281 117.226563 L 86.871094 117.296875 L 86.75 117.363281 L 86.5 117.488281 L 86.367188 117.542969 L 86.234375 117.59375 L 86.09375 117.644531 L 85.953125 117.691406 L 85.8125 117.730469 L 85.675781 117.769531 L 85.394531 117.832031 L 85.25 117.855469 L 85.109375 117.875 L 84.96875 117.890625 L 84.824219 117.902344 L 84.683594 117.90625 L 84.539063 117.910156 L 84.226563 117.902344 L 83.925781 117.871094 L 83.644531 117.828125 L 83.375 117.761719 L 83.125 117.679688 L 82.890625 117.578125 L 82.671875 117.460938 L 82.46875 117.324219 L 82.28125 117.167969 L 82.109375 116.992188 L 81.953125 116.804688 L 81.816406 116.597656 L 81.695313 116.378906 L 81.585938 116.140625 L 81.496094 115.894531 L 81.425781 115.628906 L 81.367188 115.351563 L 81.324219 115.054688 L 81.300781 114.746094 L 81.292969 114.425781 L 81.292969 109.125 L 80.019531 109.125 L 80.019531 106.996094 L 81.292969 106.996094 L 81.292969 104.703125 L 84.359375 104.347656 L 84.359375 106.996094 L 86.53125 106.996094 L 86.210938 109.125 L 84.359375 109.125 L 84.359375 114.382813 L 84.367188 114.59375 L 84.394531 114.777344 L 84.4375 114.941406 L 84.496094 115.085938 L 84.570313 115.207031 L 84.660156 115.304688 L 84.769531 115.382813 L 84.894531 115.4375 L 85.039063 115.46875 L 85.195313 115.480469 L 85.289063 115.476563 L 85.382813 115.46875 L 85.480469 115.453125 L 85.578125 115.433594 L 85.675781 115.40625 L 85.777344 115.371094 L 85.878906 115.332031 L 85.980469 115.289063 L 86.085938 115.238281 L 86.191406 115.179688 Z M 87.207031 117.074219 "/>
<path style=" stroke:none;fill-rule:evenodd;fill:rgb(100%,100%,100%);fill-opacity:1;" d="M 91.113281 106.996094 L 91.113281 117.570313 L 88.046875 117.570313 L 88.046875 106.996094 Z M 89.558594 101.476563 L 89.710938 101.484375 L 89.859375 101.496094 L 90 101.523438 L 90.136719 101.558594 L 90.265625 101.601563 L 90.390625 101.65625 L 90.507813 101.722656 L 90.625 101.796875 L 90.730469 101.882813 L 90.832031 101.976563 L 90.933594 102.078125 L 91.019531 102.183594 L 91.097656 102.296875 L 91.164063 102.414063 L 91.222656 102.535156 L 91.269531 102.660156 L 91.304688 102.789063 L 91.332031 102.925781 L 91.347656 103.066406 L 91.351563 103.210938 L 91.347656 103.359375 L 91.332031 103.503906 L 91.304688 103.640625 L 91.269531 103.773438 L 91.222656 103.902344 L 91.164063 104.027344 L 91.097656 104.144531 L 91.019531 104.257813 L 90.933594 104.363281 L 90.832031 104.464844 L 90.730469 104.558594 L 90.625 104.644531 L 90.507813 104.71875 L 90.390625 104.785156 L 90.265625 104.839844 L 90.136719 104.882813 L 90 104.917969 L 89.859375 104.945313 L 89.710938 104.957031 L 89.558594 104.964844 L 89.40625 104.957031 L 89.257813 104.945313 L 89.117188 104.917969 L 88.980469 104.882813 L 88.851563 104.839844 L 88.726563 104.785156 L 88.609375 104.71875 L 88.496094 104.644531 L 88.386719 104.558594 L 88.285156 104.464844 L 88.191406 104.363281 L 88.105469 104.257813 L 88.03125 104.144531 L 87.964844 104.027344 L 87.910156 103.902344 L 87.867188 103.773438 L 87.832031 103.640625 L 87.804688 103.503906 L 87.792969 103.359375 L 87.785156 103.210938 L 87.792969 103.066406 L 87.804688 102.925781 L 87.832031 102.789063 L 87.867188 102.660156 L 87.910156 102.535156 L 87.964844 102.414063 L 88.03125 102.296875 L 88.105469 102.183594 L 88.191406 102.078125 L 88.285156 101.976563 L 88.386719 101.882813 L 88.496094 101.796875 L 88.609375 101.722656 L 88.726563 101.65625 L 88.851563 101.601563 L 88.980469 101.558594 L 89.117188 101.523438 L 89.257813 101.496094 L 89.40625 101.484375 Z M 89.558594 101.476563 "/>
<path style=" stroke:none;fill-rule:evenodd;fill:rgb(100%,100%,100%);fill-opacity:1;" d="M 97.484375 106.65625 L 97.921875 106.671875 L 98.339844 106.714844 L 98.738281 106.789063 L 99.113281 106.890625 L 99.472656 107.019531 L 99.8125 107.179688 L 100.128906 107.367188 L 100.429688 107.585938 L 100.710938 107.835938 L 100.972656 108.109375 L 101.214844 108.410156 L 101.429688 108.738281 L 101.621094 109.089844 L 101.785156 109.46875 L 101.925781 109.875 L 102.042969 110.304688 L 102.132813 110.761719 L 102.195313 111.246094 L 102.234375 111.757813 L 102.246094 112.292969 L 102.234375 112.808594 L 102.195313 113.300781 L 102.132813 113.769531 L 102.042969 114.214844 L 101.925781 114.636719 L 101.785156 115.039063 L 101.621094 115.417969 L 101.429688 115.773438 L 101.214844 116.105469 L 100.972656 116.414063 L 100.707031 116.699219 L 100.425781 116.953125 L 100.121094 117.175781 L 99.800781 117.371094 L 99.460938 117.535156 L 99.105469 117.671875 L 98.726563 117.773438 L 98.332031 117.851563 L 97.917969 117.894531 L 97.484375 117.910156 L 97.050781 117.894531 L 96.632813 117.851563 L 96.234375 117.777344 L 95.855469 117.675781 L 95.5 117.546875 L 95.160156 117.386719 L 94.839844 117.195313 L 94.542969 116.980469 L 94.261719 116.730469 L 94 116.457031 L 93.761719 116.152344 L 93.546875 115.824219 L 93.359375 115.46875 L 93.195313 115.089844 L 93.058594 114.683594 L 92.945313 114.253906 L 92.859375 113.796875 L 92.796875 113.3125 L 92.757813 112.804688 L 92.746094 112.273438 L 92.757813 111.753906 L 92.796875 111.261719 L 92.859375 110.789063 L 92.945313 110.34375 L 93.058594 109.917969 L 93.195313 109.515625 L 93.359375 109.140625 L 93.546875 108.785156 L 93.761719 108.457031 L 94 108.148438 L 94.265625 107.867188 L 94.546875 107.613281 L 94.847656 107.386719 L 95.167969 107.195313 L 95.507813 107.03125 L 95.867188 106.894531 L 96.242188 106.789063 L 96.640625 106.714844 L 97.054688 106.671875 Z M 97.484375 108.925781 L 97.328125 108.933594 L 97.175781 108.957031 L 97.035156 108.996094 L 96.902344 109.050781 L 96.777344 109.121094 L 96.664063 109.207031 L 96.558594 109.308594 L 96.460938 109.425781 L 96.371094 109.554688 L 96.289063 109.703125 L 96.21875 109.871094 L 96.15625 110.054688 L 96.097656 110.261719 L 96.046875 110.488281 L 96.007813 110.734375 L 95.972656 111 L 95.945313 111.289063 L 95.925781 111.597656 L 95.917969 111.925781 L 95.914063 112.273438 L 95.917969 112.628906 L 95.925781 112.964844 L 95.945313 113.277344 L 95.972656 113.570313 L 96.007813 113.839844 L 96.046875 114.09375 L 96.097656 114.320313 L 96.15625 114.527344 L 96.21875 114.714844 L 96.289063 114.882813 L 96.371094 115.03125 L 96.460938 115.160156 L 96.558594 115.277344 L 96.664063 115.378906 L 96.777344 115.464844 L 96.902344 115.535156 L 97.035156 115.589844 L 97.175781 115.628906 L 97.328125 115.652344 L 97.484375 115.660156 L 97.644531 115.652344 L 97.792969 115.628906 L 97.9375 115.589844 L 98.070313 115.535156 L 98.191406 115.464844 L 98.308594 115.378906 L 98.414063 115.277344 L 98.511719 115.160156 L 98.601563 115.03125 L 98.679688 114.882813 L 98.757813 114.714844 L 98.824219 114.523438 L 98.882813 114.316406 L 98.9375 114.085938 L 98.980469 113.835938 L 99.015625 113.566406 L 99.042969 113.277344 L 99.0625 112.96875 L 99.074219 112.640625 L 99.078125 112.292969 L 99.074219 111.9375 L 99.0625 111.601563 L 99.046875 111.289063 L 99.019531 111 L 98.984375 110.730469 L 98.941406 110.480469 L 98.894531 110.253906 L 98.835938 110.050781 L 98.773438 109.867188 L 98.699219 109.703125 L 98.621094 109.554688 L 98.53125 109.425781 L 98.433594 109.308594 L 98.324219 109.207031 L 98.207031 109.121094 L 98.082031 109.050781 L 97.945313 108.996094 L 97.800781 108.957031 L 97.648438 108.933594 Z M 97.484375 108.925781 "/>
<path style=" stroke:none;fill-rule:evenodd;fill:rgb(100%,100%,100%);fill-opacity:1;" d="M 109.613281 106.65625 L 109.855469 106.664063 L 110.085938 106.691406 L 110.308594 106.730469 L 110.515625 106.789063 L 110.714844 106.867188 L 110.902344 106.957031 L 111.082031 107.066406 L 111.246094 107.191406 L 111.402344 107.335938 L 111.546875 107.492188 L 111.683594 107.664063 L 111.804688 107.84375 L 111.914063 108.039063 L 112.007813 108.246094 L 112.085938 108.464844 L 112.148438 108.695313 L 112.199219 108.9375 L 112.234375 109.195313 L 112.257813 109.464844 L 112.265625 109.742188 L 112.265625 117.570313 L 109.195313 117.570313 L 109.195313 110.035156 L 109.1875 109.914063 L 109.179688 109.804688 L 109.164063 109.699219 L 109.148438 109.605469 L 109.125 109.515625 L 109.097656 109.4375 L 109.070313 109.363281 L 109.035156 109.300781 L 108.996094 109.246094 L 108.960938 109.191406 L 108.917969 109.144531 L 108.824219 109.066406 L 108.769531 109.035156 L 108.710938 109.011719 L 108.648438 108.992188 L 108.582031 108.976563 L 108.515625 108.96875 L 108.359375 108.96875 L 108.28125 108.980469 L 108.203125 108.996094 L 108.125 109.019531 L 108.046875 109.050781 L 107.96875 109.089844 L 107.890625 109.132813 L 107.816406 109.183594 L 107.738281 109.242188 L 107.664063 109.304688 L 107.589844 109.371094 L 107.519531 109.445313 L 107.445313 109.523438 L 107.371094 109.613281 L 107.292969 109.703125 L 107.21875 109.800781 L 107.140625 109.90625 L 107.0625 110.019531 L 106.984375 110.136719 L 106.90625 110.261719 L 106.90625 117.570313 L 103.839844 117.570313 L 103.839844 106.996094 L 106.527344 106.996094 L 106.746094 108.25 L 106.863281 108.09375 L 106.984375 107.945313 L 107.105469 107.808594 L 107.226563 107.675781 L 107.355469 107.554688 L 107.484375 107.4375 L 107.613281 107.328125 L 107.746094 107.230469 L 107.882813 107.136719 L 108.023438 107.054688 L 108.164063 106.980469 L 108.308594 106.910156 L 108.457031 106.851563 L 108.613281 106.800781 L 108.769531 106.757813 L 108.929688 106.71875 L 109.09375 106.691406 L 109.265625 106.671875 L 109.4375 106.660156 Z M 109.613281 106.65625 "/>
<path style="fill-rule:evenodd;fill:rgb(97.254902%,58.039216%,25.490196%);fill-opacity:1;stroke-width:0.533489;stroke-linecap:round;stroke-linejoin:round;stroke:rgb(100%,100%,100%);stroke-opacity:1;stroke-miterlimit:10;" d="M 470.273438 82.34375 L 558.835938 82.34375 L 558.75 82.34375 L 559.097656 82.328125 L 559.4375 82.257813 L 559.761719 82.136719 L 560.0625 81.960938 L 560.332031 81.742188 L 560.5625 81.480469 L 560.75 81.1875 L 560.886719 80.867188 L 560.96875 80.53125 L 560.996094 80.183594 L 560.996094 49.101563 L 560.96875 48.753906 L 560.886719 48.417969 L 560.75 48.097656 L 560.5625 47.804688 L 560.332031 47.542969 L 560.0625 47.324219 L 559.761719 47.152344 L 559.4375 47.027344 L 559.097656 46.957031 L 558.835938 46.941406 L 470.273438 46.941406 L 470.535156 46.957031 L 470.1875 46.945313 L 469.84375 46.984375 L 469.507813 47.082031 L 469.195313 47.230469 L 468.910156 47.429688 L 468.65625 47.667969 L 468.449219 47.949219 L 468.289063 48.253906 L 468.175781 48.585938 L 468.121094 48.929688 L 468.113281 49.101563 L 468.113281 80.183594 L 468.121094 80.011719 L 468.121094 80.359375 L 468.175781 80.703125 L 468.289063 81.03125 L 468.449219 81.339844 L 468.65625 81.617188 L 468.910156 81.859375 L 469.195313 82.054688 L 469.507813 82.203125 L 469.84375 82.300781 L 470.1875 82.34375 Z M 470.273438 82.34375 "/>
<path style=" stroke:none;fill-rule:evenodd;fill:rgb(100%,100%,100%);fill-opacity:1;" d="M 487.816406 57.742188 L 487.480469 60.011719 L 483.195313 60.011719 L 483.195313 63.417969 L 486.941406 63.417969 L 486.941406 65.648438 L 483.195313 65.648438 L 483.195313 69.234375 L 487.777344 69.234375 L 487.777344 71.542969 L 480.011719 71.542969 L 480.011719 57.742188 Z M 487.816406 57.742188 "/>
<path style=" stroke:none;fill-rule:evenodd;fill:rgb(100%,100%,100%);fill-opacity:1;" d="M 497.179688 68.617188 L 497.179688 68.722656 L 497.183594 68.820313 L 497.191406 68.914063 L 497.199219 69.003906 L 497.214844 69.085938 L 497.246094 69.234375 L 497.292969 69.359375 L 497.316406 69.414063 L 497.347656 69.464844 L 497.417969 69.558594 L 497.460938 69.601563 L 497.507813 69.640625 L 497.609375 69.71875 L 497.667969 69.75 L 497.730469 69.78125 L 497.796875 69.8125 L 497.160156 71.824219 L 496.980469 71.804688 L 496.804688 71.78125 L 496.640625 71.753906 L 496.480469 71.71875 L 496.328125 71.679688 L 496.179688 71.632813 L 496.042969 71.585938 L 495.910156 71.53125 L 495.785156 71.46875 L 495.664063 71.40625 L 495.550781 71.332031 L 495.445313 71.253906 L 495.339844 71.167969 L 495.246094 71.074219 L 495.152344 70.972656 L 495.066406 70.863281 L 494.984375 70.746094 L 494.90625 70.621094 L 494.835938 70.488281 L 494.769531 70.347656 L 494.5625 70.640625 L 494.34375 70.902344 L 494.101563 71.132813 L 493.84375 71.332031 L 493.570313 71.5 L 493.273438 71.636719 L 492.964844 71.746094 L 492.632813 71.820313 L 492.285156 71.867188 L 491.921875 71.882813 L 491.640625 71.875 L 491.371094 71.847656 L 491.113281 71.800781 L 490.867188 71.738281 L 490.628906 71.660156 L 490.40625 71.558594 L 490.195313 71.445313 L 489.996094 71.308594 L 489.808594 71.15625 L 489.628906 70.988281 L 489.472656 70.796875 L 489.328125 70.597656 L 489.203125 70.386719 L 489.09375 70.160156 L 489.003906 69.925781 L 488.925781 69.679688 L 488.867188 69.421875 L 488.828125 69.152344 L 488.800781 68.871094 L 488.792969 68.578125 L 488.804688 68.238281 L 488.839844 67.917969 L 488.898438 67.609375 L 488.976563 67.320313 L 489.082031 67.046875 L 489.210938 66.792969 L 489.359375 66.550781 L 489.53125 66.328125 L 489.730469 66.121094 L 489.949219 65.929688 L 490.195313 65.753906 L 490.460938 65.597656 L 490.746094 65.460938 L 491.054688 65.339844 L 491.382813 65.242188 L 491.730469 65.160156 L 492.101563 65.09375 L 492.492188 65.046875 L 492.902344 65.019531 L 493.335938 65.011719 L 494.171875 65.011719 L 494.171875 64.515625 L 494.167969 64.332031 L 494.15625 64.164063 L 494.140625 64.003906 L 494.117188 63.855469 L 494.085938 63.722656 L 494.050781 63.597656 L 494.003906 63.484375 L 493.953125 63.386719 L 493.898438 63.296875 L 493.832031 63.21875 L 493.757813 63.148438 L 493.675781 63.082031 L 493.582031 63.027344 L 493.480469 62.976563 L 493.363281 62.933594 L 493.238281 62.902344 L 493.105469 62.875 L 492.960938 62.855469 L 492.804688 62.84375 L 492.636719 62.839844 L 492.4375 62.847656 L 492.226563 62.863281 L 492.003906 62.890625 L 491.769531 62.925781 L 491.527344 62.976563 L 491.273438 63.035156 L 491.007813 63.105469 L 490.730469 63.183594 L 490.445313 63.277344 L 490.148438 63.378906 L 489.449219 61.40625 L 489.628906 61.332031 L 489.804688 61.261719 L 489.988281 61.195313 L 490.171875 61.132813 L 490.355469 61.074219 L 490.546875 61.015625 L 490.734375 60.964844 L 490.929688 60.914063 L 491.125 60.871094 L 491.324219 60.828125 L 491.714844 60.757813 L 491.90625 60.726563 L 492.097656 60.703125 L 492.285156 60.679688 L 492.46875 60.660156 L 492.828125 60.636719 L 493.003906 60.632813 L 493.175781 60.628906 L 493.574219 60.640625 L 493.953125 60.667969 L 494.308594 60.710938 L 494.644531 60.777344 L 494.957031 60.859375 L 495.25 60.960938 L 495.519531 61.078125 L 495.769531 61.214844 L 495.996094 61.371094 L 496.203125 61.546875 L 496.386719 61.738281 L 496.554688 61.949219 L 496.699219 62.183594 L 496.828125 62.433594 L 496.933594 62.703125 L 497.023438 62.988281 L 497.089844 63.296875 L 497.140625 63.625 L 497.167969 63.96875 L 497.179688 64.335938 Z M 492.835938 69.691406 L 492.917969 69.691406 L 493 69.683594 L 493.082031 69.667969 L 493.160156 69.652344 L 493.234375 69.628906 L 493.382813 69.566406 L 493.453125 69.527344 L 493.59375 69.433594 L 493.664063 69.378906 L 493.730469 69.320313 L 493.796875 69.257813 L 493.859375 69.191406 L 493.917969 69.121094 L 494.027344 68.964844 L 494.078125 68.878906 L 494.125 68.789063 L 494.171875 68.695313 L 494.171875 66.722656 L 493.613281 66.722656 L 493.429688 66.726563 L 493.257813 66.742188 L 493.097656 66.761719 L 492.945313 66.789063 L 492.800781 66.824219 L 492.667969 66.867188 L 492.546875 66.917969 L 492.433594 66.980469 L 492.332031 67.046875 L 492.238281 67.121094 L 492.15625 67.203125 L 492.082031 67.292969 L 492.015625 67.390625 L 491.957031 67.496094 L 491.910156 67.609375 L 491.871094 67.734375 L 491.839844 67.867188 L 491.820313 68.007813 L 491.804688 68.160156 L 491.800781 68.316406 L 491.804688 68.449219 L 491.8125 68.574219 L 491.824219 68.695313 L 491.84375 68.808594 L 491.867188 68.914063 L 491.894531 69.015625 L 491.929688 69.109375 L 491.964844 69.199219 L 492.058594 69.355469 L 492.117188 69.417969 L 492.179688 69.476563 L 492.246094 69.527344 L 492.316406 69.570313 L 492.394531 69.609375 L 492.472656 69.636719 L 492.558594 69.660156 L 492.644531 69.679688 L 492.738281 69.6875 Z M 492.835938 69.691406 "/>
<path style=" stroke:none;fill-rule:evenodd;fill:rgb(100%,100%,100%);fill-opacity:1;" d="M 504.707031 60.667969 L 504.910156 60.675781 L 505.007813 60.683594 L 505.101563 60.695313 L 505.195313 60.710938 L 505.285156 60.726563 L 505.375 60.746094 L 505.460938 60.773438 L 505.542969 60.796875 L 505.625 60.828125 L 505.125 63.777344 L 505.042969 63.753906 L 504.957031 63.734375 L 504.875 63.714844 L 504.789063 63.699219 L 504.625 63.675781 L 504.539063 63.667969 L 504.457031 63.660156 L 504.371094 63.660156 L 504.289063 63.65625 L 504.128906 63.664063 L 503.976563 63.683594 L 503.832031 63.714844 L 503.695313 63.757813 L 503.566406 63.816406 L 503.445313 63.886719 L 503.332031 63.96875 L 503.222656 64.066406 L 503.125 64.171875 L 503.035156 64.292969 L 502.949219 64.425781 L 502.867188 64.566406 L 502.789063 64.71875 L 502.714844 64.886719 L 502.644531 65.066406 L 502.578125 65.257813 L 502.519531 65.460938 L 502.460938 65.675781 L 502.40625 65.90625 L 502.355469 66.148438 L 502.355469 71.542969 L 499.289063 71.542969 L 499.289063 60.96875 L 501.976563 60.96875 L 502.21875 62.820313 L 502.292969 62.617188 L 502.371094 62.425781 L 502.457031 62.242188 L 502.550781 62.070313 L 502.644531 61.90625 L 502.75 61.75 L 502.855469 61.605469 L 502.96875 61.46875 L 503.089844 61.34375 L 503.214844 61.226563 L 503.34375 61.121094 L 503.476563 61.027344 L 503.617188 60.941406 L 503.757813 60.871094 L 503.90625 60.808594 L 504.058594 60.757813 L 504.214844 60.71875 L 504.375 60.691406 L 504.539063 60.675781 Z M 504.707031 60.667969 "/>
<path style=" stroke:none;fill-rule:evenodd;fill:rgb(100%,100%,100%);fill-opacity:1;" d="M 512.355469 60.628906 L 512.597656 60.636719 L 512.828125 60.664063 L 513.046875 60.707031 L 513.257813 60.765625 L 513.457031 60.839844 L 513.644531 60.929688 L 513.820313 61.039063 L 513.988281 61.164063 L 514.140625 61.308594 L 514.289063 61.464844 L 514.421875 61.636719 L 514.546875 61.816406 L 514.652344 62.011719 L 514.746094 62.21875 L 514.824219 62.4375 L 514.890625 62.667969 L 514.941406 62.914063 L 514.976563 63.167969 L 514.996094 63.4375 L 515.003906 63.71875 L 515.003906 71.542969 L 511.9375 71.542969 L 511.9375 64.136719 L 511.933594 64.007813 L 511.929688 63.886719 L 511.917969 63.777344 L 511.90625 63.671875 L 511.886719 63.578125 L 511.867188 63.488281 L 511.839844 63.410156 L 511.808594 63.339844 L 511.777344 63.273438 L 511.738281 63.21875 L 511.699219 63.167969 L 511.65625 63.117188 L 511.613281 63.078125 L 511.5625 63.039063 L 511.507813 63.011719 L 511.449219 62.984375 L 511.390625 62.964844 L 511.324219 62.953125 L 511.253906 62.941406 L 511.179688 62.941406 L 511.101563 62.945313 L 511.023438 62.953125 L 510.941406 62.972656 L 510.863281 62.996094 L 510.785156 63.023438 L 510.710938 63.0625 L 510.632813 63.105469 L 510.554688 63.15625 L 510.480469 63.214844 L 510.402344 63.277344 L 510.332031 63.347656 L 510.257813 63.417969 L 510.183594 63.5 L 510.109375 63.585938 L 510.035156 63.675781 L 509.957031 63.777344 L 509.882813 63.882813 L 509.804688 63.992188 L 509.726563 64.109375 L 509.648438 64.234375 L 509.648438 71.542969 L 506.578125 71.542969 L 506.578125 60.96875 L 509.269531 60.96875 L 509.488281 62.222656 L 509.605469 62.066406 L 509.722656 61.921875 L 509.84375 61.78125 L 509.96875 61.648438 L 510.09375 61.527344 L 510.222656 61.410156 L 510.355469 61.304688 L 510.488281 61.203125 L 510.625 61.113281 L 510.761719 61.027344 L 510.902344 60.953125 L 511.046875 60.886719 L 511.199219 60.824219 L 511.351563 60.773438 L 511.507813 60.730469 L 511.671875 60.695313 L 511.835938 60.664063 L 512.003906 60.644531 L 512.179688 60.632813 Z M 512.355469 60.628906 "/>
<path style=" stroke:none;fill-rule:evenodd;fill:rgb(100%,100%,100%);fill-opacity:1;" d="M 520.082031 60.96875 L 520.082031 71.542969 L 517.015625 71.542969 L 517.015625 60.96875 Z M 518.53125 55.453125 L 518.683594 55.457031 L 518.828125 55.472656 L 518.96875 55.496094 L 519.105469 55.53125 L 519.238281 55.574219 L 519.359375 55.628906 L 519.480469 55.695313 L 519.59375 55.769531 L 519.703125 55.855469 L 519.804688 55.949219 L 519.902344 56.050781 L 519.992188 56.15625 L 520.066406 56.269531 L 520.136719 56.386719 L 520.191406 56.507813 L 520.238281 56.632813 L 520.273438 56.761719 L 520.300781 56.898438 L 520.316406 57.039063 L 520.320313 57.183594 L 520.316406 57.332031 L 520.300781 57.476563 L 520.273438 57.613281 L 520.238281 57.75 L 520.191406 57.875 L 520.136719 58 L 520.066406 58.117188 L 519.992188 58.230469 L 519.902344 58.335938 L 519.804688 58.4375 L 519.703125 58.535156 L 519.59375 58.617188 L 519.480469 58.691406 L 519.359375 58.757813 L 519.238281 58.8125 L 519.105469 58.855469 L 518.96875 58.890625 L 518.828125 58.917969 L 518.683594 58.933594 L 518.53125 58.9375 L 518.375 58.933594 L 518.230469 58.917969 L 518.089844 58.890625 L 517.953125 58.855469 L 517.824219 58.8125 L 517.699219 58.757813 L 517.578125 58.691406 L 517.464844 58.617188 L 517.355469 58.535156 L 517.253906 58.4375 L 517.160156 58.335938 L 517.074219 58.230469 L 517 58.117188 L 516.9375 58 L 516.882813 57.875 L 516.835938 57.75 L 516.800781 57.613281 L 516.777344 57.476563 L 516.761719 57.332031 L 516.757813 57.183594 L 516.761719 57.039063 L 516.777344 56.898438 L 516.800781 56.761719 L 516.835938 56.632813 L 516.882813 56.507813 L 516.9375 56.386719 L 517 56.269531 L 517.074219 56.15625 L 517.160156 56.050781 L 517.253906 55.949219 L 517.355469 55.855469 L 517.464844 55.769531 L 517.578125 55.695313 L 517.699219 55.628906 L 517.824219 55.574219 L 517.953125 55.53125 L 518.089844 55.496094 L 518.230469 55.472656 L 518.375 55.457031 Z M 518.53125 55.453125 "/>
<path style=" stroke:none;fill-rule:evenodd;fill:rgb(100%,100%,100%);fill-opacity:1;" d="M 527.949219 60.628906 L 528.191406 60.636719 L 528.421875 60.664063 L 528.644531 60.707031 L 528.851563 60.765625 L 529.050781 60.839844 L 529.238281 60.929688 L 529.414063 61.039063 L 529.582031 61.164063 L 529.738281 61.308594 L 529.882813 61.464844 L 530.019531 61.636719 L 530.140625 61.816406 L 530.246094 62.011719 L 530.339844 62.21875 L 530.417969 62.4375 L 530.484375 62.667969 L 530.535156 62.914063 L 530.570313 63.167969 L 530.59375 63.4375 L 530.597656 63.71875 L 530.597656 71.542969 L 527.53125 71.542969 L 527.53125 64.007813 L 527.523438 63.886719 L 527.515625 63.777344 L 527.5 63.671875 L 527.480469 63.578125 L 527.460938 63.488281 L 527.433594 63.410156 L 527.40625 63.339844 L 527.371094 63.273438 L 527.332031 63.21875 L 527.253906 63.117188 L 527.207031 63.078125 L 527.15625 63.039063 L 527.105469 63.011719 L 527.046875 62.984375 L 526.984375 62.964844 L 526.917969 62.953125 L 526.847656 62.941406 L 526.773438 62.941406 L 526.695313 62.945313 L 526.617188 62.953125 L 526.539063 62.972656 L 526.460938 62.996094 L 526.382813 63.023438 L 526.304688 63.0625 L 526.226563 63.105469 L 526.152344 63.15625 L 526.074219 63.214844 L 526 63.277344 L 525.851563 63.417969 L 525.78125 63.5 L 525.707031 63.585938 L 525.628906 63.675781 L 525.554688 63.777344 L 525.476563 63.882813 L 525.398438 63.992188 L 525.320313 64.109375 L 525.242188 64.234375 L 525.242188 71.542969 L 522.175781 71.542969 L 522.175781 60.96875 L 524.863281 60.96875 L 525.082031 62.222656 L 525.199219 62.066406 L 525.316406 61.921875 L 525.4375 61.78125 L 525.5625 61.648438 L 525.691406 61.527344 L 525.816406 61.410156 L 525.949219 61.304688 L 526.082031 61.203125 L 526.21875 61.113281 L 526.355469 61.027344 L 526.5 60.953125 L 526.644531 60.886719 L 526.792969 60.824219 L 526.945313 60.773438 L 527.105469 60.730469 L 527.265625 60.695313 L 527.429688 60.664063 L 527.601563 60.644531 L 527.773438 60.632813 Z M 527.949219 60.628906 "/>
<path style=" stroke:none;fill-rule:evenodd;fill:rgb(100%,100%,100%);fill-opacity:1;" d="M 541.535156 61.585938 L 541.339844 61.660156 L 541.132813 61.730469 L 540.902344 61.789063 L 540.65625 61.839844 L 540.394531 61.882813 L 540.113281 61.921875 L 539.8125 61.949219 L 539.492188 61.96875 L 539.160156 61.980469 L 538.804688 61.984375 L 538.992188 62.074219 L 539.167969 62.167969 L 539.332031 62.265625 L 539.488281 62.371094 L 539.632813 62.476563 L 539.765625 62.589844 L 539.890625 62.703125 L 540.003906 62.824219 L 540.105469 62.949219 L 540.199219 63.078125 L 540.285156 63.210938 L 540.363281 63.351563 L 540.433594 63.496094 L 540.492188 63.648438 L 540.542969 63.8125 L 540.582031 63.980469 L 540.617188 64.15625 L 540.640625 64.339844 L 540.652344 64.535156 L 540.65625 64.734375 L 540.652344 64.933594 L 540.636719 65.132813 L 540.613281 65.324219 L 540.578125 65.511719 L 540.53125 65.699219 L 540.476563 65.878906 L 540.414063 66.058594 L 540.339844 66.230469 L 540.253906 66.398438 L 540.160156 66.566406 L 540.054688 66.722656 L 539.941406 66.871094 L 539.820313 67.011719 L 539.691406 67.148438 L 539.550781 67.277344 L 539.402344 67.398438 L 539.246094 67.515625 L 539.082031 67.625 L 538.90625 67.726563 L 538.726563 67.820313 L 538.539063 67.902344 L 538.34375 67.976563 L 538.144531 68.042969 L 537.9375 68.101563 L 537.722656 68.148438 L 537.503906 68.1875 L 537.277344 68.21875 L 537.042969 68.242188 L 536.800781 68.253906 L 536.554688 68.257813 L 536.4375 68.257813 L 536.320313 68.253906 L 536.09375 68.238281 L 535.988281 68.226563 L 535.878906 68.214844 L 535.777344 68.199219 L 535.574219 68.160156 L 535.480469 68.136719 L 535.414063 68.183594 L 535.355469 68.234375 L 535.304688 68.289063 L 535.261719 68.347656 L 535.226563 68.40625 L 535.195313 68.472656 L 535.171875 68.542969 L 535.152344 68.617188 L 535.144531 68.695313 L 535.140625 68.777344 L 535.140625 68.839844 L 535.148438 68.898438 L 535.160156 68.953125 L 535.175781 69.007813 L 535.195313 69.058594 L 535.21875 69.109375 L 535.246094 69.152344 L 535.316406 69.238281 L 535.359375 69.273438 L 535.410156 69.308594 L 535.46875 69.339844 L 535.535156 69.367188 L 535.609375 69.386719 L 535.691406 69.410156 L 535.78125 69.425781 L 535.878906 69.4375 L 535.984375 69.445313 L 536.097656 69.453125 L 537.511719 69.453125 L 537.855469 69.460938 L 538.183594 69.488281 L 538.496094 69.53125 L 538.796875 69.589844 L 539.082031 69.667969 L 539.355469 69.761719 L 539.613281 69.871094 L 539.855469 70 L 540.085938 70.148438 L 540.296875 70.308594 L 540.496094 70.480469 L 540.671875 70.664063 L 540.828125 70.855469 L 540.960938 71.058594 L 541.074219 71.269531 L 541.167969 71.492188 L 541.242188 71.726563 L 541.292969 71.964844 L 541.324219 72.21875 L 541.335938 72.480469 L 541.320313 72.796875 L 541.28125 73.097656 L 541.214844 73.386719 L 541.125 73.660156 L 541.003906 73.917969 L 540.859375 74.164063 L 540.691406 74.398438 L 540.492188 74.617188 L 540.269531 74.820313 L 540.019531 75.011719 L 539.746094 75.1875 L 539.449219 75.347656 L 539.128906 75.488281 L 538.785156 75.609375 L 538.421875 75.710938 L 538.035156 75.796875 L 537.625 75.863281 L 537.191406 75.910156 L 536.734375 75.9375 L 536.253906 75.945313 L 535.746094 75.9375 L 535.269531 75.910156 L 534.824219 75.867188 L 534.410156 75.808594 L 534.03125 75.730469 L 533.679688 75.636719 L 533.367188 75.527344 L 533.082031 75.398438 L 532.828125 75.253906 L 532.609375 75.089844 L 532.417969 74.910156 L 532.246094 74.714844 L 532.09375 74.503906 L 531.960938 74.273438 L 531.847656 74.027344 L 531.757813 73.769531 L 531.6875 73.492188 L 531.636719 73.195313 L 531.605469 72.886719 L 531.59375 72.558594 L 534.34375 72.558594 L 534.347656 72.703125 L 534.359375 72.839844 L 534.378906 72.964844 L 534.40625 73.082031 L 534.441406 73.191406 L 534.488281 73.292969 L 534.539063 73.386719 L 534.597656 73.472656 L 534.667969 73.546875 L 534.742188 73.617188 L 534.828125 73.675781 L 534.929688 73.730469 L 535.050781 73.777344 L 535.179688 73.820313 L 535.328125 73.855469 L 535.492188 73.882813 L 535.671875 73.90625 L 535.863281 73.921875 L 536.070313 73.929688 L 536.296875 73.933594 L 536.507813 73.929688 L 536.707031 73.921875 L 536.894531 73.902344 L 537.066406 73.878906 L 537.226563 73.851563 L 537.375 73.8125 L 537.507813 73.769531 L 537.628906 73.71875 L 537.734375 73.660156 L 537.828125 73.597656 L 537.914063 73.53125 L 537.988281 73.457031 L 538.050781 73.382813 L 538.109375 73.300781 L 538.15625 73.210938 L 538.195313 73.121094 L 538.226563 73.023438 L 538.25 72.921875 L 538.261719 72.8125 L 538.265625 72.699219 L 538.253906 72.488281 L 538.210938 72.296875 L 538.140625 72.128906 L 538.039063 71.984375 L 537.914063 71.863281 L 537.757813 71.761719 L 537.574219 71.683594 L 537.363281 71.628906 L 537.121094 71.59375 L 536.851563 71.585938 L 535.71875 71.585938 L 535.40625 71.578125 L 535.113281 71.5625 L 534.835938 71.535156 L 534.578125 71.496094 L 534.332031 71.445313 L 534.105469 71.382813 L 533.898438 71.3125 L 533.703125 71.226563 L 533.527344 71.132813 L 533.367188 71.027344 L 533.222656 70.90625 L 533.09375 70.78125 L 532.980469 70.648438 L 532.882813 70.507813 L 532.800781 70.359375 L 532.730469 70.203125 L 532.679688 70.042969 L 532.640625 69.871094 L 532.617188 69.695313 L 532.609375 69.511719 L 532.613281 69.398438 L 532.625 69.285156 L 532.640625 69.171875 L 532.660156 69.058594 L 532.691406 68.949219 L 532.726563 68.839844 L 532.765625 68.734375 L 532.867188 68.523438 L 532.929688 68.417969 L 532.996094 68.316406 L 533.066406 68.214844 L 533.140625 68.121094 L 533.21875 68.027344 L 533.304688 67.933594 L 533.390625 67.847656 L 533.484375 67.761719 L 533.578125 67.679688 L 533.679688 67.597656 L 533.785156 67.519531 L 533.609375 67.410156 L 533.4375 67.300781 L 533.28125 67.183594 L 533.132813 67.0625 L 532.992188 66.9375 L 532.867188 66.8125 L 532.746094 66.679688 L 532.636719 66.546875 L 532.539063 66.40625 L 532.453125 66.265625 L 532.375 66.121094 L 532.308594 65.964844 L 532.25 65.804688 L 532.195313 65.636719 L 532.152344 65.464844 L 532.117188 65.285156 L 532.089844 65.097656 L 532.070313 64.902344 L 532.058594 64.703125 L 532.054688 64.492188 L 532.066406 64.144531 L 532.101563 63.808594 L 532.160156 63.488281 L 532.242188 63.179688 L 532.347656 62.890625 L 532.476563 62.617188 L 532.628906 62.355469 L 532.804688 62.109375 L 533.003906 61.878906 L 533.226563 61.664063 L 533.476563 61.46875 L 533.738281 61.292969 L 534.015625 61.140625 L 534.3125 61.007813 L 534.621094 60.894531 L 534.949219 60.804688 L 535.292969 60.734375 L 535.648438 60.683594 L 536.023438 60.65625 L 536.414063 60.648438 L 536.6875 60.652344 L 536.953125 60.644531 L 537.210938 60.632813 L 537.457031 60.613281 L 537.695313 60.585938 L 537.921875 60.550781 L 538.140625 60.511719 L 538.351563 60.464844 L 538.554688 60.410156 L 538.746094 60.351563 L 538.933594 60.28125 L 539.128906 60.203125 L 539.324219 60.121094 L 539.730469 59.933594 L 540.152344 59.722656 L 540.371094 59.605469 L 540.589844 59.484375 L 540.816406 59.355469 Z M 536.414063 62.660156 L 536.160156 62.679688 L 535.933594 62.734375 L 535.734375 62.824219 L 535.5625 62.949219 L 535.414063 63.109375 L 535.292969 63.308594 L 535.199219 63.539063 L 535.132813 63.808594 L 535.09375 64.113281 L 535.082031 64.453125 L 535.082031 64.632813 L 535.09375 64.800781 L 535.109375 64.960938 L 535.132813 65.113281 L 535.164063 65.253906 L 535.203125 65.386719 L 535.246094 65.511719 L 535.296875 65.625 L 535.355469 65.730469 L 535.417969 65.828125 L 535.492188 65.914063 L 535.574219 65.992188 L 535.660156 66.0625 L 535.75 66.121094 L 535.847656 66.171875 L 535.949219 66.214844 L 536.058594 66.246094 L 536.171875 66.269531 L 536.289063 66.28125 L 536.414063 66.285156 L 536.542969 66.28125 L 536.664063 66.269531 L 536.78125 66.246094 L 536.890625 66.214844 L 536.992188 66.175781 L 537.089844 66.128906 L 537.179688 66.070313 L 537.261719 66.007813 L 537.339844 65.929688 L 537.410156 65.847656 L 537.476563 65.75 L 537.53125 65.644531 L 537.582031 65.527344 L 537.628906 65.398438 L 537.664063 65.261719 L 537.695313 65.113281 L 537.71875 64.953125 L 537.734375 64.785156 L 537.746094 64.605469 L 537.75 64.414063 L 537.746094 64.234375 L 537.734375 64.066406 L 537.71875 63.910156 L 537.695313 63.761719 L 537.664063 63.621094 L 537.628906 63.492188 L 537.582031 63.375 L 537.53125 63.265625 L 537.476563 63.167969 L 537.410156 63.078125 L 537.34375 63 L 537.269531 62.929688 L 537.1875 62.867188 L 537.097656 62.8125 L 537.003906 62.765625 L 536.898438 62.726563 L 536.789063 62.699219 L 536.671875 62.679688 L 536.546875 62.664063 Z M 536.414063 62.660156 "/>
<path style=" stroke:none;fill-rule:evenodd;fill:rgb(100%,100%,100%);fill-opacity:1;" d="M 545.953125 60.628906 L 546.164063 60.632813 L 546.371094 60.644531 L 546.574219 60.660156 L 546.777344 60.683594 L 546.976563 60.714844 L 547.171875 60.75 L 547.363281 60.796875 L 547.554688 60.847656 L 547.742188 60.902344 L 547.925781 60.96875 L 548.109375 61.039063 L 548.285156 61.113281 L 548.457031 61.195313 L 548.625 61.285156 L 548.789063 61.375 L 548.949219 61.476563 L 549.101563 61.578125 L 549.253906 61.6875 L 549.398438 61.804688 L 549.539063 61.925781 L 548.425781 63.597656 L 548.1875 63.449219 L 547.953125 63.316406 L 547.71875 63.203125 L 547.492188 63.101563 L 547.265625 63.015625 L 547.039063 62.945313 L 546.820313 62.890625 L 546.601563 62.851563 L 546.386719 62.828125 L 546.175781 62.820313 L 546.066406 62.824219 L 545.960938 62.832031 L 545.863281 62.84375 L 545.769531 62.859375 L 545.679688 62.878906 L 545.597656 62.90625 L 545.519531 62.9375 L 545.449219 62.972656 L 545.378906 63.015625 L 545.316406 63.058594 L 545.261719 63.105469 L 545.210938 63.15625 L 545.164063 63.207031 L 545.125 63.265625 L 545.09375 63.324219 L 545.066406 63.386719 L 545.046875 63.453125 L 545.03125 63.523438 L 545.023438 63.597656 L 545.019531 63.675781 L 545.019531 63.734375 L 545.023438 63.792969 L 545.03125 63.847656 L 545.054688 63.957031 L 545.070313 64.007813 L 545.085938 64.054688 L 545.109375 64.105469 L 545.132813 64.152344 L 545.160156 64.195313 L 545.191406 64.234375 L 545.234375 64.277344 L 545.277344 64.316406 L 545.328125 64.359375 L 545.382813 64.398438 L 545.441406 64.441406 L 545.507813 64.484375 L 545.578125 64.527344 L 545.734375 64.613281 L 545.824219 64.652344 L 545.921875 64.695313 L 546.023438 64.742188 L 546.136719 64.789063 L 546.257813 64.835938 L 546.386719 64.886719 L 546.527344 64.941406 L 546.671875 64.996094 L 546.828125 65.050781 L 546.992188 65.109375 L 547.277344 65.214844 L 547.550781 65.320313 L 547.804688 65.433594 L 548.046875 65.550781 L 548.269531 65.675781 L 548.480469 65.800781 L 548.671875 65.933594 L 548.851563 66.074219 L 549.015625 66.21875 L 549.160156 66.367188 L 549.296875 66.523438 L 549.417969 66.691406 L 549.527344 66.867188 L 549.621094 67.058594 L 549.699219 67.257813 L 549.765625 67.46875 L 549.8125 67.6875 L 549.851563 67.921875 L 549.871094 68.164063 L 549.878906 68.417969 L 549.867188 68.730469 L 549.832031 69.027344 L 549.769531 69.3125 L 549.683594 69.585938 L 549.574219 69.847656 L 549.441406 70.09375 L 549.285156 70.324219 L 549.101563 70.546875 L 548.894531 70.753906 L 548.664063 70.945313 L 548.414063 71.125 L 548.152344 71.285156 L 547.875 71.425781 L 547.582031 71.546875 L 547.28125 71.648438 L 546.960938 71.734375 L 546.632813 71.796875 L 546.285156 71.84375 L 545.929688 71.875 L 545.558594 71.882813 L 545.316406 71.878906 L 545.078125 71.867188 L 544.84375 71.84375 L 544.609375 71.816406 L 544.382813 71.777344 L 544.15625 71.734375 L 543.933594 71.679688 L 543.714844 71.617188 L 543.5 71.542969 L 543.285156 71.464844 L 543.082031 71.378906 L 542.882813 71.285156 L 542.691406 71.1875 L 542.503906 71.082031 L 542.324219 70.972656 L 542.152344 70.855469 L 541.984375 70.734375 L 541.820313 70.605469 L 541.664063 70.46875 L 541.511719 70.328125 L 542.96875 68.695313 L 543.214844 68.886719 L 543.460938 69.054688 L 543.707031 69.203125 L 543.957031 69.332031 L 544.203125 69.441406 L 544.449219 69.53125 L 544.695313 69.601563 L 544.941406 69.652344 L 545.191406 69.683594 L 545.4375 69.691406 L 545.558594 69.691406 L 545.671875 69.683594 L 545.78125 69.667969 L 545.886719 69.652344 L 545.984375 69.628906 L 546.078125 69.597656 L 546.164063 69.566406 L 546.246094 69.527344 L 546.324219 69.480469 L 546.394531 69.433594 L 546.460938 69.375 L 546.523438 69.3125 L 546.574219 69.246094 L 546.621094 69.179688 L 546.660156 69.105469 L 546.695313 69.027344 L 546.71875 68.945313 L 546.738281 68.859375 L 546.75 68.769531 L 546.75 68.601563 L 546.746094 68.53125 L 546.738281 68.460938 L 546.726563 68.394531 L 546.710938 68.332031 L 546.695313 68.273438 L 546.671875 68.214844 L 546.648438 68.160156 L 546.59375 68.058594 L 546.5625 68.011719 L 546.527344 67.964844 L 546.484375 67.917969 L 546.4375 67.871094 L 546.382813 67.824219 L 546.324219 67.78125 L 546.261719 67.734375 L 546.191406 67.6875 L 546.117188 67.644531 L 546.035156 67.601563 L 545.949219 67.554688 L 545.855469 67.511719 L 545.753906 67.460938 L 545.644531 67.414063 L 545.523438 67.363281 L 545.390625 67.308594 L 545.253906 67.253906 L 545.105469 67.199219 L 544.945313 67.140625 L 544.78125 67.082031 L 544.496094 66.980469 L 544.230469 66.875 L 543.976563 66.761719 L 543.742188 66.644531 L 543.519531 66.519531 L 543.316406 66.390625 L 543.125 66.257813 L 542.949219 66.121094 L 542.792969 65.976563 L 542.648438 65.828125 L 542.523438 65.667969 L 542.414063 65.5 L 542.3125 65.328125 L 542.226563 65.144531 L 542.15625 64.953125 L 542.097656 64.753906 L 542.050781 64.546875 L 542.019531 64.332031 L 542 64.109375 L 541.992188 63.875 L 541.996094 63.695313 L 542.011719 63.515625 L 542.035156 63.34375 L 542.066406 63.171875 L 542.109375 63.003906 L 542.164063 62.839844 L 542.226563 62.679688 L 542.296875 62.523438 L 542.378906 62.371094 L 542.46875 62.222656 L 542.570313 62.078125 L 542.675781 61.941406 L 542.792969 61.808594 L 542.917969 61.683594 L 543.050781 61.566406 L 543.195313 61.453125 L 543.34375 61.347656 L 543.503906 61.25 L 543.667969 61.15625 L 543.84375 61.066406 L 544.027344 60.984375 L 544.214844 60.910156 L 544.410156 60.84375 L 544.613281 60.789063 L 544.820313 60.738281 L 545.035156 60.699219 L 545.253906 60.667969 L 545.480469 60.648438 L 545.714844 60.632813 Z M 545.953125 60.628906 "/>
</g>
</svg>
