<?xml version="1.0" encoding="UTF-8"?>
<svg xmlns="http://www.w3.org/2000/svg" xmlns:xlink="http://www.w3.org/1999/xlink" width="576pt" height="288pt" viewBox="0 0 576 288" version="1.1">
<defs>
<clipPath id="clip1">
  <path d="M 38 229 L 83 229 L 83 273.054688 L 38 273.054688 Z M 38 229 "/>
</clipPath>
<clipPath id="clip2">
  <path d="M 268 9.960938 L 313 9.960938 L 313 54 L 268 54 Z M 268 9.960938 "/>
</clipPath>
<clipPath id="clip3">
  <path d="M 498 229 L 543 229 L 543 273.054688 L 498 273.054688 Z M 498 229 "/>
</clipPath>
</defs>
<g id="surface14">
<rect x="0" y="0" width="576" height="288" style="fill:rgb(100%,100%,100%);fill-opacity:1;stroke:none;"/>
<path style="fill:none;stroke-width:3.200935;stroke-linecap:butt;stroke-linejoin:round;stroke:rgb(0%,0%,0%);stroke-opacity:1;stroke-miterlimit:1;" d="M 104.070313 251.132813 L 476.914063 251.132813 "/>
<path style="fill-rule:nonzero;fill:rgb(0%,0%,0%);fill-opacity:1;stroke-width:3.200935;stroke-linecap:butt;stroke-linejoin:round;stroke:rgb(0%,0%,0%);stroke-opacity:1;stroke-miterlimit:1;" d="M 467.558594 256.53125 L 476.914063 251.132813 L 467.558594 245.730469 Z M 467.558594 256.53125 "/>
<path style="fill:none;stroke-width:3.200935;stroke-linecap:butt;stroke-linejoin:round;stroke:rgb(0%,0%,0%);stroke-opacity:1;stroke-miterlimit:1;" d="M 321.734375 61.71875 L 322.960938 62.890625 L 329.921875 69.535156 L 332.238281 71.75 L 341.519531 80.609375 L 343.835938 82.824219 L 346.15625 85.039063 L 348.476563 87.25 L 350.796875 89.464844 L 353.113281 91.679688 L 360.074219 98.324219 L 362.390625 100.539063 L 371.671875 109.398438 L 373.988281 111.613281 L 380.949219 118.257813 L 383.265625 120.472656 L 385.585938 122.683594 L 392.546875 129.328125 L 394.863281 131.542969 L 401.824219 138.1875 L 404.140625 140.402344 L 411.101563 147.046875 L 413.417969 149.261719 L 418.058594 153.691406 L 420.378906 155.902344 L 422.699219 158.117188 L 425.015625 160.332031 L 431.976563 166.976563 L 434.292969 169.191406 L 441.253906 175.835938 L 443.570313 178.050781 L 452.851563 186.910156 L 455.167969 189.121094 L 462.128906 195.765625 L 464.445313 197.980469 L 471.40625 204.625 L 473.722656 206.839844 L 483.003906 215.699219 L 485.320313 217.914063 L 487.640625 220.128906 L 488.867188 221.296875 "/>
<path style="fill-rule:nonzero;fill:rgb(0%,0%,0%);fill-opacity:1;stroke-width:3.200935;stroke-linecap:butt;stroke-linejoin:round;stroke:rgb(0%,0%,0%);stroke-opacity:1;stroke-miterlimit:1;" d="M 478.375 218.746094 L 488.867188 221.296875 L 485.832031 210.933594 Z M 478.375 218.746094 "/>
<path style="fill:none;stroke-width:3.200935;stroke-linecap:butt;stroke-linejoin:round;stroke:rgb(0%,0%,0%);stroke-opacity:1;stroke-miterlimit:1;" d="M 259.246094 61.71875 L 258.019531 62.890625 L 253.378906 67.320313 L 251.0625 69.535156 L 241.78125 78.394531 L 239.464844 80.609375 L 234.824219 85.039063 L 232.503906 87.25 L 230.1875 89.464844 L 220.90625 98.324219 L 218.589844 100.539063 L 211.628906 107.183594 L 209.3125 109.398438 L 202.351563 116.042969 L 200.035156 118.257813 L 197.714844 120.472656 L 195.394531 122.683594 L 190.753906 127.113281 L 188.4375 129.328125 L 181.476563 135.972656 L 179.160156 138.1875 L 172.199219 144.832031 L 169.882813 147.046875 L 162.921875 153.691406 L 160.601563 155.902344 L 158.285156 158.117188 L 151.324219 164.761719 L 149.007813 166.976563 L 142.046875 173.621094 L 139.730469 175.835938 L 130.449219 184.695313 L 128.132813 186.910156 L 125.8125 189.121094 L 121.171875 193.550781 L 118.855469 195.765625 L 109.574219 204.625 L 107.257813 206.839844 L 100.296875 213.484375 L 97.980469 215.699219 L 93.339844 220.128906 L 92.113281 221.296875 "/>
<path style="fill-rule:nonzero;fill:rgb(0%,0%,0%);fill-opacity:1;stroke-width:3.200935;stroke-linecap:butt;stroke-linejoin:round;stroke:rgb(0%,0%,0%);stroke-opacity:1;stroke-miterlimit:1;" d="M 95.148438 210.933594 L 92.113281 221.296875 L 102.605469 218.746094 Z M 95.148438 210.933594 "/>
<path style=" stroke:none;fill-rule:nonzero;fill:rgb(56.470588%,5.098039%,64.313725%);fill-opacity:1;" d="M 82.5625 251.132813 C 82.5625 263.113281 72.851563 272.824219 60.867188 272.824219 C 48.886719 272.824219 39.175781 263.113281 39.175781 251.132813 C 39.175781 239.148438 48.886719 229.4375 60.867188 229.4375 C 72.851563 229.4375 82.5625 239.148438 82.5625 251.132813 "/>
<g clip-path="url(#clip1)" clip-rule="nonzero">
<path style="fill:none;stroke-width:0.708661;stroke-linecap:round;stroke-linejoin:round;stroke:rgb(56.470588%,5.098039%,64.313725%);stroke-opacity:1;stroke-miterlimit:10;" d="M 82.5625 251.132813 C 82.5625 263.113281 72.851563 272.824219 60.867188 272.824219 C 48.886719 272.824219 39.175781 263.113281 39.175781 251.132813 C 39.175781 239.148438 48.886719 229.4375 60.867188 229.4375 C 72.851563 229.4375 82.5625 239.148438 82.5625 251.132813 "/>
</g>
<path style=" stroke:none;fill-rule:nonzero;fill:rgb(49.803922%,49.803922%,49.803922%);fill-opacity:1;" d="M 312.183594 31.886719 C 312.183594 43.867188 302.472656 53.582031 290.492188 53.582031 C 278.507813 53.582031 268.796875 43.867188 268.796875 31.886719 C 268.796875 19.90625 278.507813 10.191406 290.492188 10.191406 C 302.472656 10.191406 312.183594 19.90625 312.183594 31.886719 "/>
<g clip-path="url(#clip2)" clip-rule="nonzero">
<path style="fill:none;stroke-width:0.708661;stroke-linecap:round;stroke-linejoin:round;stroke:rgb(49.803922%,49.803922%,49.803922%);stroke-opacity:1;stroke-miterlimit:10;" d="M 312.183594 31.886719 C 312.183594 43.867188 302.472656 53.582031 290.492188 53.582031 C 278.507813 53.582031 268.796875 43.867188 268.796875 31.886719 C 268.796875 19.90625 278.507813 10.191406 290.492188 10.191406 C 302.472656 10.191406 312.183594 19.90625 312.183594 31.886719 "/>
</g>
<path style=" stroke:none;fill-rule:nonzero;fill:rgb(97.254902%,58.039216%,25.490196%);fill-opacity:1;" d="M 541.808594 251.132813 C 541.808594 263.113281 532.09375 272.824219 520.113281 272.824219 C 508.132813 272.824219 498.417969 263.113281 498.417969 251.132813 C 498.417969 239.148438 508.132813 229.4375 520.113281 229.4375 C 532.09375 229.4375 541.808594 239.148438 541.808594 251.132813 "/>
<g clip-path="url(#clip3)" clip-rule="nonzero">
<path style="fill:none;stroke-width:0.708661;stroke-linecap:round;stroke-linejoin:round;stroke:rgb(97.254902%,58.039216%,25.490196%);stroke-opacity:1;stroke-miterlimit:10;" d="M 541.808594 251.132813 C 541.808594 263.113281 532.09375 272.824219 520.113281 272.824219 C 508.132813 272.824219 498.417969 263.113281 498.417969 251.132813 C 498.417969 239.148438 508.132813 229.4375 520.113281 229.4375 C 532.09375 229.4375 541.808594 239.148438 541.808594 251.132813 "/>
</g>
<path style="fill:none;stroke-width:1.066978;stroke-linecap:round;stroke-linejoin:round;stroke:rgb(49.803922%,49.803922%,49.803922%);stroke-opacity:1;stroke-miterlimit:10;" d="M 129.945313 201.054688 L 67.636719 246.226563 "/>
<path style="fill:none;stroke-width:1.066978;stroke-linecap:round;stroke-linejoin:round;stroke:rgb(49.803922%,49.803922%,49.803922%);stroke-opacity:1;stroke-miterlimit:10;" d="M 290.582031 81.960938 L 290.5 37.761719 "/>
<path style="fill:none;stroke-width:1.066978;stroke-linecap:round;stroke-linejoin:round;stroke:rgb(49.803922%,49.803922%,49.803922%);stroke-opacity:1;stroke-miterlimit:10;" d="M 454.675781 201.054688 L 513.597656 246.148438 "/>
<path style="fill-rule:nonzero;fill:rgb(56.470588%,5.098039%,64.313725%);fill-opacity:1;stroke-width:0.533489;stroke-linecap:round;stroke-linejoin:round;stroke:rgb(100%,100%,100%);stroke-opacity:1;stroke-miterlimit:10;" d="M 89.105469 201.054688 L 188.839844 201.054688 L 188.753906 201.054688 L 189.101563 201.039063 L 189.441406 200.972656 L 189.765625 200.847656 L 190.066406 200.671875 L 190.335938 200.453125 L 190.566406 200.195313 L 190.753906 199.898438 L 190.890625 199.578125 L 190.972656 199.242188 L 191 198.894531 L 191 167.8125 L 190.972656 167.46875 L 190.890625 167.128906 L 190.753906 166.808594 L 190.566406 166.515625 L 190.335938 166.253906 L 190.066406 166.035156 L 189.765625 165.863281 L 189.441406 165.738281 L 189.101563 165.667969 L 188.839844 165.652344 L 89.105469 165.652344 L 89.363281 165.667969 L 89.015625 165.65625 L 88.671875 165.695313 L 88.339844 165.792969 L 88.023438 165.941406 L 87.738281 166.140625 L 87.488281 166.382813 L 87.277344 166.660156 L 87.117188 166.96875 L 87.007813 167.296875 L 86.949219 167.640625 L 86.945313 167.8125 L 86.945313 198.894531 L 86.949219 198.722656 L 86.949219 199.070313 L 87.007813 199.414063 L 87.117188 199.742188 L 87.277344 200.050781 L 87.488281 200.328125 L 87.738281 200.570313 L 88.023438 200.765625 L 88.339844 200.914063 L 88.671875 201.011719 L 89.015625 201.054688 Z M 89.105469 201.054688 "/>
<path style=" stroke:none;fill-rule:evenodd;fill:rgb(100%,100%,100%);fill-opacity:1;" d="M 106.648438 176.453125 L 106.308594 178.722656 L 102.027344 178.722656 L 102.027344 182.128906 L 105.769531 182.128906 L 105.769531 184.359375 L 102.027344 184.359375 L 102.027344 187.945313 L 106.605469 187.945313 L 106.605469 190.257813 L 98.839844 190.257813 L 98.839844 176.453125 Z M 106.648438 176.453125 "/>
<path style=" stroke:none;fill-rule:evenodd;fill:rgb(100%,100%,100%);fill-opacity:1;" d="M 116.984375 175.476563 L 116.984375 190.257813 L 114.273438 190.257813 L 114.136719 189.082031 L 113.925781 189.367188 L 113.703125 189.625 L 113.46875 189.851563 L 113.21875 190.050781 L 112.957031 190.214844 L 112.679688 190.351563 L 112.390625 190.457031 L 112.089844 190.535156 L 111.773438 190.578125 L 111.445313 190.59375 L 111.101563 190.578125 L 110.769531 190.535156 L 110.457031 190.460938 L 110.164063 190.359375 L 109.882813 190.226563 L 109.621094 190.0625 L 109.375 189.871094 L 109.144531 189.652344 L 108.933594 189.402344 L 108.738281 189.121094 L 108.558594 188.808594 L 108.402344 188.476563 L 108.261719 188.117188 L 108.140625 187.738281 L 108.035156 187.332031 L 107.953125 186.90625 L 107.886719 186.453125 L 107.839844 185.980469 L 107.8125 185.480469 L 107.800781 184.957031 L 107.808594 184.628906 L 107.820313 184.304688 L 107.84375 183.988281 L 107.878906 183.683594 L 107.921875 183.382813 L 107.972656 183.09375 L 108.035156 182.8125 L 108.109375 182.535156 L 108.1875 182.269531 L 108.28125 182.011719 L 108.382813 181.761719 L 108.496094 181.523438 L 108.613281 181.296875 L 108.738281 181.082031 L 108.871094 180.878906 L 109.015625 180.6875 L 109.164063 180.507813 L 109.320313 180.339844 L 109.484375 180.183594 L 109.652344 180.039063 L 109.835938 179.90625 L 110.023438 179.789063 L 110.214844 179.683594 L 110.414063 179.59375 L 110.617188 179.515625 L 110.824219 179.453125 L 111.035156 179.40625 L 111.253906 179.371094 L 111.476563 179.347656 L 111.707031 179.339844 L 111.96875 179.351563 L 112.222656 179.378906 L 112.464844 179.429688 L 112.699219 179.496094 L 112.925781 179.585938 L 113.140625 179.691406 L 113.347656 179.820313 L 113.546875 179.964844 L 113.738281 180.132813 L 113.917969 180.316406 L 113.917969 175.160156 Z M 112.421875 188.34375 L 112.511719 188.339844 L 112.601563 188.332031 L 112.6875 188.320313 L 112.773438 188.300781 L 112.855469 188.277344 L 112.9375 188.25 L 113.015625 188.21875 L 113.09375 188.179688 L 113.167969 188.132813 L 113.238281 188.085938 L 113.3125 188.027344 L 113.382813 187.960938 L 113.449219 187.894531 L 113.519531 187.816406 L 113.585938 187.738281 L 113.65625 187.648438 L 113.722656 187.558594 L 113.789063 187.460938 L 113.851563 187.355469 L 113.917969 187.25 L 113.917969 182.449219 L 113.851563 182.363281 L 113.789063 182.28125 L 113.726563 182.207031 L 113.660156 182.136719 L 113.597656 182.070313 L 113.535156 182.007813 L 113.46875 181.953125 L 113.34375 181.851563 L 113.277344 181.8125 L 113.21875 181.769531 L 113.15625 181.730469 L 113.089844 181.699219 L 113.019531 181.671875 L 112.949219 181.648438 L 112.878906 181.628906 L 112.800781 181.613281 L 112.726563 181.601563 L 112.644531 181.59375 L 112.5625 181.59375 L 112.257813 181.625 L 111.988281 181.726563 L 111.75 181.894531 L 111.542969 182.128906 L 111.367188 182.433594 L 111.222656 182.804688 L 111.113281 183.242188 L 111.03125 183.746094 L 110.984375 184.320313 L 110.96875 184.957031 L 110.972656 185.324219 L 110.984375 185.667969 L 111.003906 185.992188 L 111.03125 186.289063 L 111.0625 186.566406 L 111.105469 186.820313 L 111.152344 187.050781 L 111.210938 187.257813 L 111.273438 187.445313 L 111.347656 187.605469 L 111.425781 187.746094 L 111.511719 187.871094 L 111.601563 187.984375 L 111.699219 188.078125 L 111.804688 188.160156 L 111.917969 188.226563 L 112.03125 188.277344 L 112.15625 188.316406 L 112.285156 188.335938 Z M 112.421875 188.34375 "/>
<path style=" stroke:none;fill-rule:evenodd;fill:rgb(100%,100%,100%);fill-opacity:1;" d="M 127.320313 190.257813 L 124.652344 190.257813 L 124.511719 188.980469 L 124.296875 189.289063 L 124.070313 189.5625 L 123.824219 189.804688 L 123.566406 190.015625 L 123.292969 190.191406 L 123.003906 190.335938 L 122.703125 190.449219 L 122.382813 190.53125 L 122.050781 190.578125 L 121.703125 190.59375 L 121.449219 190.585938 L 121.210938 190.558594 L 120.980469 190.515625 L 120.761719 190.457031 L 120.554688 190.378906 L 120.359375 190.285156 L 120.175781 190.175781 L 120.003906 190.046875 L 119.839844 189.902344 L 119.691406 189.738281 L 119.558594 189.5625 L 119.441406 189.371094 L 119.335938 189.171875 L 119.246094 188.957031 L 119.167969 188.730469 L 119.105469 188.496094 L 119.058594 188.246094 L 119.023438 187.984375 L 119.003906 187.710938 L 118.996094 187.429688 L 118.996094 179.679688 L 122.0625 179.679688 L 122.0625 187.1875 L 122.070313 187.40625 L 122.09375 187.597656 L 122.132813 187.769531 L 122.191406 187.914063 L 122.261719 188.039063 L 122.347656 188.140625 L 122.453125 188.222656 L 122.574219 188.277344 L 122.707031 188.3125 L 122.859375 188.324219 L 123.011719 188.3125 L 123.164063 188.277344 L 123.3125 188.21875 L 123.457031 188.140625 L 123.597656 188.035156 L 123.734375 187.910156 L 123.867188 187.757813 L 124 187.585938 L 124.128906 187.386719 L 124.253906 187.167969 L 124.253906 179.679688 L 127.320313 179.679688 Z M 127.320313 190.257813 "/>
<path style=" stroke:none;fill-rule:evenodd;fill:rgb(100%,100%,100%);fill-opacity:1;" d="M 133.753906 179.339844 L 133.949219 179.34375 L 134.144531 179.355469 L 134.332031 179.371094 L 134.519531 179.390625 L 134.699219 179.421875 L 134.878906 179.457031 L 135.050781 179.496094 L 135.21875 179.546875 L 135.386719 179.601563 L 135.546875 179.660156 L 135.703125 179.726563 L 135.859375 179.800781 L 136.015625 179.882813 L 136.167969 179.96875 L 136.316406 180.0625 L 136.464844 180.164063 L 136.613281 180.273438 L 136.757813 180.386719 L 136.898438 180.507813 L 137.039063 180.636719 L 135.765625 182.390625 L 135.675781 182.320313 L 135.582031 182.253906 L 135.492188 182.191406 L 135.40625 182.132813 L 135.316406 182.082031 L 135.230469 182.03125 L 135.144531 181.984375 L 135.058594 181.941406 L 134.972656 181.90625 L 134.890625 181.871094 L 134.804688 181.835938 L 134.71875 181.804688 L 134.632813 181.78125 L 134.542969 181.757813 L 134.457031 181.738281 L 134.367188 181.71875 L 134.273438 181.707031 L 134.179688 181.699219 L 133.992188 181.691406 L 133.8125 181.699219 L 133.644531 181.722656 L 133.484375 181.761719 L 133.332031 181.8125 L 133.191406 181.882813 L 133.058594 181.964844 L 132.933594 182.0625 L 132.820313 182.175781 L 132.714844 182.304688 L 132.617188 182.449219 L 132.53125 182.609375 L 132.453125 182.792969 L 132.386719 183 L 132.324219 183.226563 L 132.273438 183.472656 L 132.234375 183.742188 L 132.203125 184.035156 L 132.179688 184.347656 L 132.164063 184.683594 L 132.160156 185.039063 L 132.164063 185.378906 L 132.179688 185.695313 L 132.203125 185.996094 L 132.234375 186.269531 L 132.273438 186.527344 L 132.324219 186.761719 L 132.386719 186.972656 L 132.453125 187.167969 L 132.53125 187.335938 L 132.617188 187.488281 L 132.71875 187.621094 L 132.824219 187.738281 L 132.941406 187.84375 L 133.066406 187.933594 L 133.195313 188.011719 L 133.335938 188.074219 L 133.484375 188.121094 L 133.636719 188.15625 L 133.800781 188.175781 L 133.972656 188.183594 L 134.0625 188.183594 L 134.152344 188.179688 L 134.242188 188.171875 L 134.328125 188.164063 L 134.574219 188.117188 L 134.65625 188.09375 L 134.734375 188.070313 L 134.808594 188.046875 L 134.886719 188.011719 L 134.964844 187.972656 L 135.050781 187.933594 L 135.132813 187.886719 L 135.222656 187.835938 L 135.3125 187.78125 L 135.40625 187.722656 L 135.503906 187.664063 L 135.601563 187.597656 L 135.707031 187.527344 L 137.039063 189.339844 L 136.761719 189.578125 L 136.46875 189.792969 L 136.171875 189.980469 L 135.859375 190.144531 L 135.542969 190.28125 L 135.210938 190.394531 L 134.871094 190.480469 L 134.523438 190.542969 L 134.164063 190.582031 L 133.792969 190.59375 L 133.347656 190.582031 L 132.925781 190.535156 L 132.519531 190.464844 L 132.132813 190.363281 L 131.765625 190.230469 L 131.421875 190.070313 L 131.09375 189.882813 L 130.785156 189.664063 L 130.496094 189.417969 L 130.226563 189.140625 L 129.984375 188.839844 L 129.769531 188.511719 L 129.578125 188.164063 L 129.414063 187.789063 L 129.273438 187.394531 L 129.15625 186.972656 L 129.070313 186.53125 L 129.003906 186.0625 L 128.964844 185.570313 L 128.953125 185.058594 L 128.960938 184.714844 L 128.976563 184.382813 L 129.003906 184.058594 L 129.046875 183.742188 L 129.097656 183.433594 L 129.160156 183.136719 L 129.238281 182.847656 L 129.324219 182.566406 L 129.421875 182.292969 L 129.53125 182.03125 L 129.65625 181.777344 L 129.789063 181.535156 L 129.933594 181.308594 L 130.085938 181.089844 L 130.25 180.886719 L 130.421875 180.691406 L 130.601563 180.511719 L 130.792969 180.339844 L 130.992188 180.183594 L 131.203125 180.039063 L 131.425781 179.90625 L 131.65625 179.789063 L 131.894531 179.683594 L 132.136719 179.59375 L 132.390625 179.515625 L 132.648438 179.453125 L 132.914063 179.40625 L 133.1875 179.371094 L 133.464844 179.347656 Z M 133.753906 179.339844 "/>
<path style=" stroke:none;fill-rule:evenodd;fill:rgb(100%,100%,100%);fill-opacity:1;" d="M 145.882813 187.328125 L 145.882813 187.433594 L 145.890625 187.53125 L 145.894531 187.625 L 145.90625 187.714844 L 145.917969 187.796875 L 145.933594 187.875 L 145.953125 187.945313 L 145.972656 188.011719 L 145.996094 188.070313 L 146.023438 188.125 L 146.050781 188.175781 L 146.085938 188.222656 L 146.125 188.269531 L 146.164063 188.3125 L 146.210938 188.355469 L 146.261719 188.394531 L 146.316406 188.429688 L 146.375 188.460938 L 146.433594 188.496094 L 146.5 188.523438 L 145.863281 190.535156 L 145.683594 190.515625 L 145.511719 190.492188 L 145.34375 190.464844 L 145.183594 190.429688 L 145.03125 190.390625 L 144.886719 190.347656 L 144.746094 190.296875 L 144.613281 190.242188 L 144.488281 190.183594 L 144.371094 190.117188 L 144.257813 190.046875 L 144.148438 189.964844 L 144.046875 189.878906 L 143.949219 189.785156 L 143.855469 189.683594 L 143.769531 189.574219 L 143.6875 189.457031 L 143.609375 189.332031 L 143.539063 189.199219 L 143.472656 189.0625 L 143.269531 189.351563 L 143.046875 189.613281 L 142.808594 189.84375 L 142.550781 190.042969 L 142.273438 190.210938 L 141.980469 190.347656 L 141.667969 190.457031 L 141.339844 190.535156 L 140.992188 190.578125 L 140.625 190.59375 L 140.34375 190.585938 L 140.074219 190.558594 L 139.816406 190.515625 L 139.570313 190.453125 L 139.335938 190.371094 L 139.113281 190.273438 L 138.902344 190.15625 L 138.699219 190.019531 L 138.511719 189.867188 L 138.335938 189.699219 L 138.175781 189.507813 L 138.035156 189.308594 L 137.90625 189.097656 L 137.800781 188.871094 L 137.707031 188.636719 L 137.632813 188.390625 L 137.574219 188.132813 L 137.53125 187.863281 L 137.507813 187.582031 L 137.5 187.289063 L 137.507813 186.949219 L 137.542969 186.628906 L 137.601563 186.320313 L 137.683594 186.03125 L 137.785156 185.761719 L 137.914063 185.503906 L 138.0625 185.261719 L 138.238281 185.039063 L 138.433594 184.832031 L 138.652344 184.640625 L 138.898438 184.464844 L 139.164063 184.308594 L 139.453125 184.171875 L 139.757813 184.054688 L 140.085938 183.953125 L 140.4375 183.871094 L 140.804688 183.804688 L 141.195313 183.761719 L 141.605469 183.734375 L 142.039063 183.722656 L 142.875 183.722656 L 142.875 183.226563 L 142.871094 183.042969 L 142.863281 182.875 L 142.84375 182.714844 L 142.820313 182.570313 L 142.792969 182.433594 L 142.753906 182.308594 L 142.710938 182.199219 L 142.660156 182.097656 L 142.601563 182.007813 L 142.539063 181.929688 L 142.464844 181.859375 L 142.382813 181.792969 L 142.289063 181.738281 L 142.183594 181.6875 L 142.070313 181.648438 L 141.945313 181.613281 L 141.808594 181.585938 L 141.664063 181.566406 L 141.507813 181.554688 L 141.34375 181.550781 L 141.140625 181.558594 L 140.929688 181.574219 L 140.707031 181.601563 L 140.476563 181.636719 L 140.230469 181.6875 L 139.976563 181.746094 L 139.710938 181.816406 L 139.4375 181.898438 L 139.148438 181.988281 L 138.851563 182.089844 L 138.15625 180.117188 L 138.332031 180.042969 L 138.511719 179.972656 L 138.691406 179.90625 L 138.875 179.84375 L 139.0625 179.785156 L 139.25 179.730469 L 139.441406 179.675781 L 139.632813 179.628906 L 139.828125 179.582031 L 140.027344 179.539063 L 140.226563 179.503906 L 140.421875 179.46875 L 140.613281 179.4375 L 140.988281 179.390625 L 141.171875 179.375 L 141.351563 179.359375 L 141.53125 179.347656 L 141.707031 179.34375 L 141.878906 179.339844 L 142.28125 179.351563 L 142.65625 179.378906 L 143.015625 179.425781 L 143.347656 179.488281 L 143.664063 179.570313 L 143.953125 179.671875 L 144.226563 179.789063 L 144.472656 179.929688 L 144.703125 180.082031 L 144.90625 180.257813 L 145.09375 180.449219 L 145.257813 180.664063 L 145.40625 180.894531 L 145.53125 181.144531 L 145.640625 181.414063 L 145.726563 181.703125 L 145.796875 182.007813 L 145.84375 182.335938 L 145.875 182.679688 L 145.882813 183.046875 Z M 141.542969 188.402344 L 141.625 188.402344 L 141.707031 188.394531 L 141.863281 188.363281 L 141.941406 188.339844 L 142.015625 188.3125 L 142.085938 188.277344 L 142.160156 188.238281 L 142.230469 188.195313 L 142.296875 188.144531 L 142.367188 188.089844 L 142.4375 188.03125 L 142.5 187.96875 L 142.5625 187.902344 L 142.621094 187.832031 L 142.679688 187.753906 L 142.730469 187.675781 L 142.78125 187.589844 L 142.832031 187.5 L 142.875 187.40625 L 142.875 185.4375 L 142.316406 185.4375 L 142.136719 185.441406 L 141.964844 185.453125 L 141.800781 185.472656 L 141.648438 185.5 L 141.507813 185.535156 L 141.375 185.578125 L 141.25 185.632813 L 141.140625 185.691406 L 141.035156 185.757813 L 140.945313 185.835938 L 140.859375 185.914063 L 140.785156 186.003906 L 140.71875 186.101563 L 140.664063 186.207031 L 140.613281 186.324219 L 140.574219 186.445313 L 140.546875 186.578125 L 140.523438 186.71875 L 140.511719 186.871094 L 140.503906 187.03125 L 140.507813 187.160156 L 140.515625 187.289063 L 140.527344 187.40625 L 140.546875 187.519531 L 140.570313 187.628906 L 140.597656 187.726563 L 140.632813 187.820313 L 140.671875 187.910156 L 140.714844 187.992188 L 140.765625 188.066406 L 140.824219 188.128906 L 140.886719 188.1875 L 140.953125 188.238281 L 141.023438 188.28125 L 141.097656 188.320313 L 141.261719 188.375 L 141.351563 188.390625 L 141.445313 188.398438 Z M 141.542969 188.402344 "/>
<path style=" stroke:none;fill-rule:evenodd;fill:rgb(100%,100%,100%);fill-opacity:1;" d="M 154.167969 189.757813 L 154.058594 189.835938 L 153.945313 189.910156 L 153.828125 189.980469 L 153.710938 190.046875 L 153.585938 190.113281 L 153.457031 190.171875 L 153.328125 190.226563 L 153.195313 190.28125 L 152.914063 190.375 L 152.773438 190.417969 L 152.492188 190.488281 L 152.351563 190.515625 L 152.210938 190.539063 L 152.070313 190.558594 L 151.929688 190.574219 L 151.785156 190.585938 L 151.644531 190.59375 L 151.5 190.59375 L 151.183594 190.585938 L 150.886719 190.558594 L 150.601563 190.511719 L 150.335938 190.449219 L 150.085938 190.367188 L 149.851563 190.265625 L 149.632813 190.144531 L 149.429688 190.007813 L 149.242188 189.851563 L 149.070313 189.679688 L 148.914063 189.488281 L 148.777344 189.28125 L 148.652344 189.0625 L 148.546875 188.828125 L 148.457031 188.578125 L 148.382813 188.3125 L 148.328125 188.035156 L 148.285156 187.742188 L 148.261719 187.433594 L 148.253906 187.109375 L 148.253906 181.8125 L 146.980469 181.8125 L 146.980469 179.679688 L 148.253906 179.679688 L 148.253906 177.390625 L 151.320313 177.03125 L 151.320313 179.679688 L 153.492188 179.679688 L 153.171875 181.8125 L 151.320313 181.8125 L 151.320313 187.070313 L 151.328125 187.277344 L 151.355469 187.464844 L 151.394531 187.628906 L 151.453125 187.769531 L 151.53125 187.890625 L 151.621094 187.988281 L 151.730469 188.066406 L 151.855469 188.121094 L 152 188.152344 L 152.15625 188.164063 L 152.25 188.160156 L 152.34375 188.152344 L 152.4375 188.136719 L 152.535156 188.117188 L 152.636719 188.089844 L 152.734375 188.058594 L 152.835938 188.019531 L 152.941406 187.972656 L 153.046875 187.921875 L 153.152344 187.867188 Z M 154.167969 189.757813 "/>
<path style=" stroke:none;fill-rule:evenodd;fill:rgb(100%,100%,100%);fill-opacity:1;" d="M 158.074219 179.679688 L 158.074219 190.257813 L 155.003906 190.257813 L 155.003906 179.679688 Z M 156.519531 174.164063 L 156.671875 174.167969 L 156.820313 174.183594 L 156.960938 174.207031 L 157.09375 174.242188 L 157.226563 174.289063 L 157.351563 174.34375 L 157.46875 174.40625 L 157.582031 174.480469 L 157.691406 174.566406 L 157.792969 174.660156 L 157.890625 174.761719 L 157.980469 174.871094 L 158.058594 174.980469 L 158.125 175.097656 L 158.183594 175.21875 L 158.226563 175.34375 L 158.265625 175.476563 L 158.289063 175.609375 L 158.304688 175.75 L 158.3125 175.894531 L 158.304688 176.042969 L 158.289063 176.1875 L 158.265625 176.328125 L 158.226563 176.460938 L 158.183594 176.589844 L 158.125 176.710938 L 158.058594 176.828125 L 157.980469 176.941406 L 157.890625 177.046875 L 157.792969 177.152344 L 157.691406 177.246094 L 157.582031 177.328125 L 157.46875 177.40625 L 157.351563 177.46875 L 157.226563 177.523438 L 157.09375 177.570313 L 156.960938 177.605469 L 156.820313 177.628906 L 156.671875 177.644531 L 156.519531 177.648438 L 156.367188 177.644531 L 156.21875 177.628906 L 156.078125 177.605469 L 155.941406 177.570313 L 155.8125 177.523438 L 155.6875 177.46875 L 155.566406 177.40625 L 155.453125 177.328125 L 155.347656 177.246094 L 155.242188 177.152344 L 155.148438 177.046875 L 155.066406 176.941406 L 154.988281 176.828125 L 154.925781 176.710938 L 154.871094 176.589844 L 154.824219 176.460938 L 154.792969 176.328125 L 154.765625 176.1875 L 154.75 176.042969 L 154.746094 175.894531 L 154.75 175.75 L 154.765625 175.609375 L 154.792969 175.476563 L 154.824219 175.34375 L 154.871094 175.21875 L 154.925781 175.097656 L 154.988281 174.980469 L 155.066406 174.871094 L 155.148438 174.761719 L 155.242188 174.660156 L 155.347656 174.566406 L 155.453125 174.480469 L 155.566406 174.40625 L 155.6875 174.34375 L 155.8125 174.289063 L 155.941406 174.242188 L 156.078125 174.207031 L 156.21875 174.183594 L 156.367188 174.167969 Z M 156.519531 174.164063 "/>
<path style=" stroke:none;fill-rule:evenodd;fill:rgb(100%,100%,100%);fill-opacity:1;" d="M 164.445313 179.339844 L 164.882813 179.355469 L 165.300781 179.398438 L 165.695313 179.472656 L 166.074219 179.574219 L 166.433594 179.703125 L 166.769531 179.863281 L 167.089844 180.054688 L 167.390625 180.273438 L 167.671875 180.519531 L 167.929688 180.796875 L 168.171875 181.09375 L 168.390625 181.421875 L 168.582031 181.773438 L 168.746094 182.152344 L 168.886719 182.558594 L 169 182.988281 L 169.089844 183.445313 L 169.15625 183.929688 L 169.191406 184.441406 L 169.207031 184.976563 L 169.191406 185.492188 L 169.15625 185.984375 L 169.089844 186.453125 L 169 186.898438 L 168.886719 187.324219 L 168.746094 187.722656 L 168.582031 188.101563 L 168.390625 188.457031 L 168.171875 188.789063 L 167.929688 189.101563 L 167.667969 189.382813 L 167.382813 189.636719 L 167.082031 189.863281 L 166.761719 190.058594 L 166.421875 190.222656 L 166.066406 190.355469 L 165.6875 190.460938 L 165.292969 190.535156 L 164.878906 190.578125 L 164.445313 190.59375 L 164.007813 190.582031 L 163.59375 190.535156 L 163.195313 190.464844 L 162.816406 190.363281 L 162.460938 190.230469 L 162.121094 190.070313 L 161.800781 189.882813 L 161.5 189.664063 L 161.222656 189.417969 L 160.960938 189.140625 L 160.722656 188.835938 L 160.507813 188.507813 L 160.320313 188.152344 L 160.15625 187.773438 L 160.019531 187.367188 L 159.90625 186.9375 L 159.820313 186.480469 L 159.753906 186 L 159.71875 185.492188 L 159.707031 184.957031 L 159.71875 184.441406 L 159.753906 183.945313 L 159.820313 183.472656 L 159.90625 183.027344 L 160.019531 182.601563 L 160.15625 182.203125 L 160.320313 181.824219 L 160.507813 181.472656 L 160.722656 181.140625 L 160.960938 180.835938 L 161.222656 180.550781 L 161.507813 180.296875 L 161.808594 180.074219 L 162.128906 179.878906 L 162.46875 179.714844 L 162.828125 179.582031 L 163.203125 179.476563 L 163.597656 179.402344 L 164.011719 179.355469 Z M 164.445313 181.613281 L 164.285156 181.621094 L 164.136719 181.644531 L 163.996094 181.683594 L 163.863281 181.738281 L 163.738281 181.804688 L 163.625 181.890625 L 163.515625 181.992188 L 163.417969 182.109375 L 163.332031 182.242188 L 163.25 182.390625 L 163.179688 182.554688 L 163.113281 182.738281 L 163.058594 182.945313 L 163.007813 183.171875 L 162.96875 183.417969 L 162.933594 183.6875 L 162.90625 183.972656 L 162.886719 184.28125 L 162.875 184.609375 L 162.871094 184.957031 L 162.875 185.3125 L 162.886719 185.648438 L 162.90625 185.960938 L 162.933594 186.253906 L 162.96875 186.527344 L 163.007813 186.777344 L 163.058594 187.007813 L 163.113281 187.214844 L 163.179688 187.402344 L 163.25 187.566406 L 163.332031 187.714844 L 163.417969 187.847656 L 163.515625 187.964844 L 163.625 188.0625 L 163.738281 188.148438 L 163.863281 188.21875 L 163.996094 188.273438 L 164.136719 188.3125 L 164.285156 188.335938 L 164.445313 188.34375 L 164.605469 188.335938 L 164.753906 188.3125 L 164.894531 188.273438 L 165.027344 188.21875 L 165.152344 188.148438 L 165.269531 188.0625 L 165.375 187.964844 L 165.472656 187.847656 L 165.5625 187.714844 L 165.640625 187.566406 L 165.714844 187.398438 L 165.785156 187.207031 L 165.84375 187 L 165.894531 186.769531 L 165.941406 186.523438 L 165.976563 186.253906 L 166.003906 185.964844 L 166.023438 185.65625 L 166.035156 185.328125 L 166.039063 184.976563 L 166.035156 184.621094 L 166.023438 184.289063 L 166.003906 183.976563 L 165.980469 183.683594 L 165.945313 183.414063 L 165.902344 183.167969 L 165.855469 182.941406 L 165.796875 182.734375 L 165.734375 182.550781 L 165.660156 182.390625 L 165.582031 182.242188 L 165.492188 182.109375 L 165.390625 181.992188 L 165.285156 181.890625 L 165.167969 181.804688 L 165.042969 181.738281 L 164.90625 181.683594 L 164.761719 181.644531 L 164.609375 181.621094 Z M 164.445313 181.613281 "/>
<path style=" stroke:none;fill-rule:evenodd;fill:rgb(100%,100%,100%);fill-opacity:1;" d="M 176.574219 179.339844 L 176.816406 179.351563 L 177.046875 179.375 L 177.269531 179.417969 L 177.476563 179.476563 L 177.675781 179.550781 L 177.863281 179.644531 L 178.039063 179.75 L 178.207031 179.875 L 178.363281 180.019531 L 178.507813 180.179688 L 178.644531 180.347656 L 178.765625 180.53125 L 178.871094 180.722656 L 178.964844 180.929688 L 179.042969 181.148438 L 179.109375 181.378906 L 179.160156 181.625 L 179.195313 181.878906 L 179.21875 182.148438 L 179.222656 182.429688 L 179.222656 190.257813 L 176.15625 190.257813 L 176.15625 182.71875 L 176.148438 182.601563 L 176.140625 182.488281 L 176.125 182.386719 L 176.105469 182.289063 L 176.085938 182.203125 L 176.058594 182.121094 L 176.03125 182.050781 L 175.996094 181.988281 L 175.957031 181.929688 L 175.917969 181.878906 L 175.878906 181.832031 L 175.832031 181.789063 L 175.78125 181.753906 L 175.730469 181.722656 L 175.671875 181.695313 L 175.609375 181.675781 L 175.542969 181.664063 L 175.472656 181.65625 L 175.398438 181.652344 L 175.320313 181.65625 L 175.242188 181.664063 L 175.164063 181.683594 L 175.085938 181.707031 L 175.007813 181.738281 L 174.929688 181.773438 L 174.851563 181.816406 L 174.777344 181.867188 L 174.699219 181.925781 L 174.550781 182.058594 L 174.476563 182.128906 L 174.40625 182.210938 L 174.332031 182.296875 L 174.253906 182.390625 L 174.179688 182.488281 L 174.101563 182.59375 L 174.023438 182.703125 L 173.945313 182.820313 L 173.867188 182.945313 L 173.867188 190.257813 L 170.800781 190.257813 L 170.800781 179.679688 L 173.488281 179.679688 L 173.707031 180.933594 L 173.824219 180.78125 L 173.941406 180.632813 L 174.0625 180.492188 L 174.1875 180.359375 L 174.316406 180.238281 L 174.441406 180.121094 L 174.574219 180.015625 L 174.707031 179.914063 L 174.84375 179.824219 L 174.980469 179.738281 L 175.125 179.664063 L 175.269531 179.597656 L 175.417969 179.535156 L 175.570313 179.484375 L 175.730469 179.441406 L 175.890625 179.40625 L 176.054688 179.378906 L 176.226563 179.359375 L 176.398438 179.34375 Z M 176.574219 179.339844 "/>
<path style="fill-rule:evenodd;fill:rgb(49.803922%,49.803922%,49.803922%);fill-opacity:1;stroke-width:0.533489;stroke-linecap:round;stroke-linejoin:round;stroke:rgb(100%,100%,100%);stroke-opacity:1;stroke-miterlimit:10;" d="M 255.003906 117.363281 L 326.160156 117.363281 L 326.074219 117.363281 L 326.421875 117.347656 L 326.761719 117.28125 L 327.085938 117.15625 L 327.386719 116.984375 L 327.65625 116.761719 L 327.886719 116.503906 L 328.074219 116.207031 L 328.210938 115.890625 L 328.292969 115.550781 L 328.320313 115.203125 L 328.320313 84.121094 L 328.292969 83.777344 L 328.210938 83.4375 L 328.074219 83.117188 L 327.886719 82.824219 L 327.65625 82.566406 L 327.386719 82.34375 L 327.085938 82.171875 L 326.761719 82.046875 L 326.421875 81.976563 L 326.160156 81.960938 L 255.003906 81.960938 L 255.265625 81.976563 L 254.917969 81.964844 L 254.574219 82.007813 L 254.238281 82.101563 L 253.925781 82.253906 L 253.640625 82.449219 L 253.390625 82.691406 L 253.179688 82.96875 L 253.019531 83.277344 L 252.910156 83.605469 L 252.851563 83.949219 L 252.847656 84.121094 L 252.847656 115.203125 L 252.851563 115.03125 L 252.851563 115.378906 L 252.910156 115.722656 L 253.019531 116.050781 L 253.179688 116.359375 L 253.390625 116.636719 L 253.640625 116.878906 L 253.925781 117.074219 L 254.238281 117.226563 L 254.574219 117.320313 L 254.917969 117.363281 Z M 255.003906 117.363281 "/>
<path style=" stroke:none;fill-rule:evenodd;fill:rgb(100%,100%,100%);fill-opacity:1;" d="M 271.394531 106.566406 L 270.777344 103.558594 L 267.269531 103.558594 L 266.652344 106.566406 L 263.425781 106.566406 L 267.152344 92.761719 L 270.976563 92.761719 L 274.679688 106.566406 Z M 267.75 101.265625 L 270.296875 101.265625 L 269.023438 95.09375 Z M 267.75 101.265625 "/>
<path style=" stroke:none;fill-rule:evenodd;fill:rgb(100%,100%,100%);fill-opacity:1;" d="M 281.152344 95.652344 L 281.484375 95.664063 L 281.796875 95.707031 L 282.097656 95.78125 L 282.378906 95.882813 L 282.644531 96.015625 L 282.898438 96.175781 L 283.132813 96.363281 L 283.351563 96.582031 L 283.554688 96.828125 L 283.742188 97.105469 L 283.914063 97.40625 L 284.070313 97.730469 L 284.210938 98.082031 L 284.328125 98.460938 L 284.429688 98.867188 L 284.511719 99.296875 L 284.574219 99.757813 L 284.621094 100.242188 L 284.648438 100.75 L 284.65625 101.285156 L 284.652344 101.617188 L 284.640625 101.941406 L 284.617188 102.253906 L 284.585938 102.5625 L 284.542969 102.859375 L 284.492188 103.152344 L 284.433594 103.433594 L 284.363281 103.707031 L 284.285156 103.976563 L 284.199219 104.234375 L 284.105469 104.484375 L 284 104.722656 L 283.890625 104.949219 L 283.769531 105.164063 L 283.640625 105.363281 L 283.507813 105.554688 L 283.363281 105.738281 L 283.210938 105.90625 L 283.054688 106.0625 L 282.886719 106.207031 L 282.710938 106.339844 L 282.53125 106.457031 L 282.34375 106.5625 L 282.148438 106.652344 L 281.949219 106.730469 L 281.742188 106.792969 L 281.53125 106.839844 L 281.3125 106.875 L 281.085938 106.898438 L 280.855469 106.902344 L 280.703125 106.898438 L 280.554688 106.890625 L 280.410156 106.875 L 280.128906 106.820313 L 279.988281 106.78125 L 279.851563 106.738281 L 279.71875 106.6875 L 279.589844 106.628906 L 279.460938 106.566406 L 279.335938 106.492188 L 279.210938 106.410156 L 279.09375 106.324219 L 278.980469 106.234375 L 278.867188 106.136719 L 278.757813 106.035156 L 278.65625 105.925781 L 278.554688 105.8125 L 278.457031 105.695313 L 278.363281 105.570313 L 278.226563 106.566406 L 275.496094 106.566406 L 275.496094 91.785156 L 278.5625 91.46875 L 278.5625 97.023438 L 278.652344 96.898438 L 278.75 96.78125 L 278.847656 96.667969 L 278.953125 96.558594 L 279.0625 96.457031 L 279.175781 96.359375 L 279.292969 96.269531 L 279.417969 96.183594 L 279.546875 96.101563 L 279.679688 96.027344 L 279.816406 95.957031 L 279.953125 95.894531 L 280.097656 95.835938 L 280.238281 95.785156 L 280.386719 95.746094 L 280.535156 95.710938 L 280.683594 95.683594 L 280.839844 95.664063 L 280.996094 95.65625 Z M 279.957031 104.671875 L 280.101563 104.664063 L 280.238281 104.644531 L 280.371094 104.605469 L 280.492188 104.550781 L 280.609375 104.484375 L 280.71875 104.402344 L 280.824219 104.300781 L 280.921875 104.1875 L 281.011719 104.058594 L 281.09375 103.917969 L 281.167969 103.75 L 281.238281 103.5625 L 281.296875 103.351563 L 281.347656 103.121094 L 281.390625 102.871094 L 281.425781 102.597656 L 281.457031 102.300781 L 281.476563 101.984375 L 281.488281 101.648438 L 281.492188 101.285156 L 281.488281 100.90625 L 281.476563 100.550781 L 281.460938 100.21875 L 281.433594 99.914063 L 281.402344 99.632813 L 281.363281 99.378906 L 281.316406 99.152344 L 281.261719 98.949219 L 281.199219 98.769531 L 281.132813 98.617188 L 281.058594 98.480469 L 280.976563 98.359375 L 280.890625 98.253906 L 280.796875 98.160156 L 280.695313 98.082031 L 280.585938 98.015625 L 280.476563 97.964844 L 280.355469 97.929688 L 280.230469 97.910156 L 280.097656 97.902344 L 280.011719 97.90625 L 279.921875 97.914063 L 279.835938 97.929688 L 279.753906 97.953125 L 279.667969 97.980469 L 279.585938 98.015625 L 279.503906 98.058594 L 279.421875 98.105469 L 279.339844 98.160156 L 279.261719 98.21875 L 279.183594 98.285156 L 279.113281 98.355469 L 279.039063 98.433594 L 278.96875 98.511719 L 278.898438 98.597656 L 278.828125 98.6875 L 278.761719 98.78125 L 278.691406 98.882813 L 278.628906 98.988281 L 278.5625 99.097656 L 278.5625 103.675781 L 278.679688 103.867188 L 278.796875 104.035156 L 278.921875 104.183594 L 279.054688 104.316406 L 279.191406 104.425781 L 279.332031 104.511719 L 279.480469 104.582031 L 279.632813 104.632813 L 279.792969 104.664063 Z M 279.957031 104.671875 "/>
<path style=" stroke:none;fill-rule:evenodd;fill:rgb(100%,100%,100%);fill-opacity:1;" d="M 289.378906 95.988281 L 289.378906 106.566406 L 286.3125 106.566406 L 286.3125 95.988281 Z M 287.824219 90.472656 L 287.976563 90.476563 L 288.125 90.492188 L 288.265625 90.515625 L 288.402344 90.550781 L 288.53125 90.597656 L 288.65625 90.652344 L 288.777344 90.714844 L 288.890625 90.789063 L 288.996094 90.875 L 289.097656 90.96875 L 289.199219 91.070313 L 289.285156 91.179688 L 289.363281 91.289063 L 289.429688 91.40625 L 289.488281 91.527344 L 289.535156 91.652344 L 289.570313 91.785156 L 289.597656 91.917969 L 289.613281 92.058594 L 289.617188 92.203125 L 289.613281 92.355469 L 289.597656 92.496094 L 289.570313 92.636719 L 289.535156 92.769531 L 289.488281 92.898438 L 289.429688 93.019531 L 289.363281 93.136719 L 289.285156 93.25 L 289.199219 93.359375 L 289.097656 93.460938 L 288.996094 93.554688 L 288.890625 93.640625 L 288.777344 93.714844 L 288.65625 93.777344 L 288.53125 93.832031 L 288.402344 93.878906 L 288.265625 93.914063 L 288.125 93.9375 L 287.976563 93.953125 L 287.824219 93.957031 L 287.671875 93.953125 L 287.523438 93.9375 L 287.382813 93.914063 L 287.25 93.878906 L 287.117188 93.832031 L 286.992188 93.777344 L 286.875 93.714844 L 286.761719 93.640625 L 286.652344 93.554688 L 286.550781 93.460938 L 286.457031 93.359375 L 286.371094 93.25 L 286.296875 93.136719 L 286.230469 93.019531 L 286.175781 92.898438 L 286.132813 92.769531 L 286.097656 92.636719 L 286.070313 92.496094 L 286.058594 92.355469 L 286.050781 92.203125 L 286.058594 92.058594 L 286.070313 91.917969 L 286.097656 91.785156 L 286.132813 91.652344 L 286.175781 91.527344 L 286.230469 91.40625 L 286.296875 91.289063 L 286.371094 91.179688 L 286.457031 91.070313 L 286.550781 90.96875 L 286.652344 90.875 L 286.761719 90.789063 L 286.875 90.714844 L 286.992188 90.652344 L 287.117188 90.597656 L 287.25 90.550781 L 287.382813 90.515625 L 287.523438 90.492188 L 287.671875 90.476563 Z M 287.824219 90.472656 "/>
<path style=" stroke:none;fill-rule:evenodd;fill:rgb(100%,100%,100%);fill-opacity:1;" d="M 294.160156 106.902344 L 293.902344 106.894531 L 293.65625 106.875 L 293.421875 106.835938 L 293.199219 106.78125 L 292.988281 106.714844 L 292.789063 106.632813 L 292.601563 106.53125 L 292.425781 106.417969 L 292.261719 106.289063 L 292.105469 106.148438 L 291.96875 105.988281 L 291.839844 105.820313 L 291.730469 105.640625 L 291.636719 105.445313 L 291.554688 105.242188 L 291.488281 105.023438 L 291.4375 104.792969 L 291.398438 104.554688 L 291.378906 104.300781 L 291.371094 104.035156 L 291.371094 91.785156 L 294.4375 91.46875 L 294.4375 103.894531 L 294.441406 104.007813 L 294.457031 104.105469 L 294.480469 104.191406 L 294.515625 104.265625 L 294.558594 104.328125 L 294.609375 104.382813 L 294.671875 104.421875 L 294.742188 104.449219 L 294.824219 104.46875 L 294.914063 104.472656 L 294.957031 104.472656 L 294.996094 104.46875 L 295.082031 104.460938 L 295.167969 104.445313 L 295.214844 104.433594 L 295.257813 104.421875 L 295.304688 104.410156 L 295.351563 104.394531 L 295.929688 106.523438 L 295.769531 106.597656 L 295.605469 106.660156 L 295.4375 106.71875 L 295.265625 106.765625 L 295.089844 106.808594 L 294.910156 106.84375 L 294.726563 106.871094 L 294.542969 106.886719 L 294.351563 106.898438 Z M 294.160156 106.902344 "/>
<path style=" stroke:none;fill-rule:evenodd;fill:rgb(100%,100%,100%);fill-opacity:1;" d="M 299.972656 95.988281 L 299.972656 106.566406 L 296.90625 106.566406 L 296.90625 95.988281 Z M 298.421875 90.472656 L 298.574219 90.476563 L 298.71875 90.492188 L 298.863281 90.515625 L 298.996094 90.550781 L 299.128906 90.597656 L 299.253906 90.652344 L 299.371094 90.714844 L 299.484375 90.789063 L 299.59375 90.875 L 299.695313 90.96875 L 299.792969 91.070313 L 299.882813 91.179688 L 299.960938 91.289063 L 300.027344 91.40625 L 300.082031 91.527344 L 300.128906 91.652344 L 300.167969 91.785156 L 300.191406 91.917969 L 300.207031 92.058594 L 300.214844 92.203125 L 300.207031 92.355469 L 300.191406 92.496094 L 300.167969 92.636719 L 300.128906 92.769531 L 300.082031 92.898438 L 300.027344 93.019531 L 299.960938 93.136719 L 299.882813 93.25 L 299.792969 93.359375 L 299.695313 93.460938 L 299.59375 93.554688 L 299.484375 93.640625 L 299.371094 93.714844 L 299.253906 93.777344 L 299.128906 93.832031 L 298.996094 93.878906 L 298.863281 93.914063 L 298.71875 93.9375 L 298.574219 93.953125 L 298.421875 93.957031 L 298.269531 93.953125 L 298.121094 93.9375 L 297.980469 93.914063 L 297.84375 93.878906 L 297.714844 93.832031 L 297.589844 93.777344 L 297.46875 93.714844 L 297.355469 93.640625 L 297.25 93.554688 L 297.144531 93.460938 L 297.050781 93.359375 L 296.964844 93.25 L 296.890625 93.136719 L 296.828125 93.019531 L 296.773438 92.898438 L 296.726563 92.769531 L 296.691406 92.636719 L 296.667969 92.496094 L 296.652344 92.355469 L 296.648438 92.203125 L 296.652344 92.058594 L 296.667969 91.917969 L 296.691406 91.785156 L 296.726563 91.652344 L 296.773438 91.527344 L 296.828125 91.40625 L 296.890625 91.289063 L 296.964844 91.179688 L 297.050781 91.070313 L 297.144531 90.96875 L 297.25 90.875 L 297.355469 90.789063 L 297.46875 90.714844 L 297.589844 90.652344 L 297.714844 90.597656 L 297.84375 90.550781 L 297.980469 90.515625 L 298.121094 90.492188 L 298.269531 90.476563 Z M 298.421875 90.472656 "/>
<path style=" stroke:none;fill-rule:evenodd;fill:rgb(100%,100%,100%);fill-opacity:1;" d="M 308.238281 106.066406 L 308.128906 106.144531 L 308.015625 106.21875 L 307.902344 106.289063 L 307.78125 106.355469 L 307.65625 106.421875 L 307.53125 106.480469 L 307.265625 106.589844 L 307.125 106.640625 L 306.84375 106.726563 L 306.707031 106.761719 L 306.566406 106.796875 L 306.425781 106.824219 L 306.28125 106.847656 L 306.140625 106.867188 L 306 106.882813 L 305.855469 106.894531 L 305.714844 106.902344 L 305.570313 106.902344 L 305.257813 106.894531 L 304.957031 106.867188 L 304.675781 106.820313 L 304.40625 106.757813 L 304.15625 106.675781 L 303.921875 106.574219 L 303.703125 106.453125 L 303.5 106.316406 L 303.3125 106.160156 L 303.140625 105.988281 L 302.984375 105.796875 L 302.847656 105.589844 L 302.722656 105.371094 L 302.617188 105.136719 L 302.527344 104.886719 L 302.453125 104.621094 L 302.398438 104.34375 L 302.355469 104.050781 L 302.332031 103.742188 L 302.324219 103.417969 L 302.324219 98.121094 L 301.050781 98.121094 L 301.050781 95.988281 L 302.324219 95.988281 L 302.324219 93.699219 L 305.390625 93.339844 L 305.390625 95.988281 L 307.5625 95.988281 L 307.242188 98.121094 L 305.390625 98.121094 L 305.390625 103.378906 L 305.398438 103.585938 L 305.425781 103.773438 L 305.46875 103.9375 L 305.527344 104.078125 L 305.601563 104.199219 L 305.691406 104.296875 L 305.800781 104.375 L 305.925781 104.429688 L 306.070313 104.460938 L 306.226563 104.472656 L 306.320313 104.472656 L 306.414063 104.460938 L 306.511719 104.445313 L 306.605469 104.425781 L 306.707031 104.398438 L 306.804688 104.367188 L 306.910156 104.328125 L 307.011719 104.28125 L 307.117188 104.230469 L 307.222656 104.175781 Z M 308.238281 106.066406 "/>
<path style=" stroke:none;fill-rule:evenodd;fill:rgb(100%,100%,100%);fill-opacity:1;" d="M 314.613281 106.585938 L 314.351563 107.371094 L 314.027344 108.082031 L 313.636719 108.710938 L 313.183594 109.269531 L 312.660156 109.746094 L 312.074219 110.148438 L 311.421875 110.472656 L 310.707031 110.722656 L 309.925781 110.890625 L 309.078125 110.988281 L 308.738281 108.855469 L 309.003906 108.8125 L 309.257813 108.761719 L 309.5 108.707031 L 309.726563 108.644531 L 309.9375 108.578125 L 310.136719 108.5 L 310.320313 108.421875 L 310.492188 108.332031 L 310.648438 108.238281 L 310.789063 108.136719 L 310.921875 108.03125 L 311.046875 107.917969 L 311.171875 107.789063 L 311.285156 107.648438 L 311.398438 107.496094 L 311.5 107.332031 L 311.601563 107.160156 L 311.695313 106.972656 L 311.78125 106.773438 L 311.863281 106.566406 L 310.769531 106.566406 L 307.941406 95.988281 L 311.085938 95.988281 L 312.722656 104.613281 L 314.535156 95.988281 L 317.621094 95.988281 Z M 314.613281 106.585938 "/>
<path style="fill-rule:evenodd;fill:rgb(97.254902%,58.039216%,25.490196%);fill-opacity:1;stroke-width:0.533489;stroke-linecap:round;stroke-linejoin:round;stroke:rgb(100%,100%,100%);stroke-opacity:1;stroke-miterlimit:10;" d="M 403.316406 201.054688 L 491.878906 201.054688 L 491.789063 201.054688 L 492.136719 201.039063 L 492.476563 200.972656 L 492.804688 200.847656 L 493.105469 200.671875 L 493.375 200.453125 L 493.605469 200.195313 L 493.789063 199.898438 L 493.925781 199.578125 L 494.007813 199.242188 L 494.039063 198.894531 L 494.039063 167.8125 L 494.007813 167.46875 L 493.925781 167.128906 L 493.789063 166.808594 L 493.605469 166.515625 L 493.375 166.253906 L 493.105469 166.035156 L 492.804688 165.863281 L 492.476563 165.738281 L 492.136719 165.667969 L 491.878906 165.652344 L 403.316406 165.652344 L 403.574219 165.667969 L 403.226563 165.65625 L 402.882813 165.695313 L 402.546875 165.792969 L 402.234375 165.941406 L 401.949219 166.140625 L 401.699219 166.382813 L 401.488281 166.660156 L 401.328125 166.96875 L 401.21875 167.296875 L 401.160156 167.640625 L 401.15625 167.8125 L 401.15625 198.894531 L 401.160156 198.722656 L 401.160156 199.070313 L 401.21875 199.414063 L 401.328125 199.742188 L 401.488281 200.050781 L 401.699219 200.328125 L 401.949219 200.570313 L 402.234375 200.765625 L 402.546875 200.914063 L 402.882813 201.011719 L 403.226563 201.054688 Z M 403.316406 201.054688 "/>
<path style=" stroke:none;fill-rule:evenodd;fill:rgb(100%,100%,100%);fill-opacity:1;" d="M 420.859375 176.453125 L 420.519531 178.722656 L 416.238281 178.722656 L 416.238281 182.128906 L 419.980469 182.128906 L 419.980469 184.359375 L 416.238281 184.359375 L 416.238281 187.945313 L 420.816406 187.945313 L 420.816406 190.257813 L 413.050781 190.257813 L 413.050781 176.453125 Z M 420.859375 176.453125 "/>
<path style=" stroke:none;fill-rule:evenodd;fill:rgb(100%,100%,100%);fill-opacity:1;" d="M 430.21875 187.328125 L 430.21875 187.433594 L 430.222656 187.53125 L 430.230469 187.625 L 430.242188 187.714844 L 430.253906 187.796875 L 430.269531 187.875 L 430.285156 187.945313 L 430.308594 188.011719 L 430.332031 188.070313 L 430.359375 188.125 L 430.386719 188.175781 L 430.421875 188.222656 L 430.460938 188.269531 L 430.5 188.3125 L 430.546875 188.355469 L 430.597656 188.394531 L 430.652344 188.429688 L 430.707031 188.460938 L 430.769531 188.496094 L 430.835938 188.523438 L 430.199219 190.535156 L 430.019531 190.515625 L 429.84375 190.492188 L 429.679688 190.464844 L 429.519531 190.429688 L 429.367188 190.390625 L 429.222656 190.347656 L 429.082031 190.296875 L 428.949219 190.242188 L 428.824219 190.183594 L 428.703125 190.117188 L 428.59375 190.046875 L 428.484375 189.964844 L 428.382813 189.878906 L 428.285156 189.785156 L 428.191406 189.683594 L 428.105469 189.574219 L 428.023438 189.457031 L 427.945313 189.332031 L 427.875 189.199219 L 427.808594 189.0625 L 427.605469 189.351563 L 427.382813 189.613281 L 427.140625 189.84375 L 426.882813 190.042969 L 426.609375 190.210938 L 426.316406 190.347656 L 426.003906 190.457031 L 425.671875 190.535156 L 425.324219 190.578125 L 424.960938 190.59375 L 424.679688 190.585938 L 424.410156 190.558594 L 424.152344 190.515625 L 423.90625 190.453125 L 423.671875 190.371094 L 423.449219 190.273438 L 423.234375 190.15625 L 423.035156 190.019531 L 422.847656 189.867188 L 422.671875 189.699219 L 422.511719 189.507813 L 422.367188 189.308594 L 422.242188 189.097656 L 422.132813 188.871094 L 422.042969 188.636719 L 421.96875 188.390625 L 421.910156 188.132813 L 421.867188 187.863281 L 421.84375 187.582031 L 421.832031 187.289063 L 421.84375 186.949219 L 421.878906 186.628906 L 421.9375 186.320313 L 422.019531 186.03125 L 422.121094 185.761719 L 422.25 185.503906 L 422.398438 185.261719 L 422.574219 185.039063 L 422.769531 184.832031 L 422.988281 184.640625 L 423.234375 184.464844 L 423.5 184.308594 L 423.785156 184.171875 L 424.09375 184.054688 L 424.421875 183.953125 L 424.773438 183.871094 L 425.140625 183.804688 L 425.53125 183.761719 L 425.941406 183.734375 L 426.375 183.722656 L 427.210938 183.722656 L 427.210938 183.226563 L 427.207031 183.042969 L 427.199219 182.875 L 427.179688 182.714844 L 427.15625 182.570313 L 427.125 182.433594 L 427.089844 182.308594 L 427.046875 182.199219 L 426.996094 182.097656 L 426.9375 182.007813 L 426.871094 181.929688 L 426.800781 181.859375 L 426.714844 181.792969 L 426.621094 181.738281 L 426.519531 181.6875 L 426.40625 181.648438 L 426.28125 181.613281 L 426.144531 181.585938 L 426 181.566406 L 425.84375 181.554688 L 425.675781 181.550781 L 425.476563 181.558594 L 425.265625 181.574219 L 425.042969 181.601563 L 424.8125 181.636719 L 424.566406 181.6875 L 424.3125 181.746094 L 424.046875 181.816406 L 423.773438 181.898438 L 423.484375 181.988281 L 423.1875 182.089844 L 422.492188 180.117188 L 422.667969 180.042969 L 422.847656 179.972656 L 423.027344 179.90625 L 423.210938 179.84375 L 423.398438 179.785156 L 423.585938 179.730469 L 423.777344 179.675781 L 423.96875 179.628906 L 424.164063 179.582031 L 424.363281 179.539063 L 424.5625 179.503906 L 424.753906 179.46875 L 424.949219 179.4375 L 425.324219 179.390625 L 425.507813 179.375 L 425.6875 179.359375 L 425.867188 179.347656 L 426.042969 179.34375 L 426.214844 179.339844 L 426.613281 179.351563 L 426.992188 179.378906 L 427.347656 179.425781 L 427.683594 179.488281 L 427.996094 179.570313 L 428.289063 179.671875 L 428.558594 179.789063 L 428.808594 179.929688 L 429.035156 180.082031 L 429.242188 180.257813 L 429.429688 180.449219 L 429.59375 180.664063 L 429.742188 180.894531 L 429.867188 181.144531 L 429.972656 181.414063 L 430.0625 181.703125 L 430.128906 182.007813 L 430.179688 182.335938 L 430.207031 182.679688 L 430.21875 183.046875 Z M 425.875 188.402344 L 425.960938 188.402344 L 426.039063 188.394531 L 426.121094 188.378906 L 426.199219 188.363281 L 426.273438 188.339844 L 426.351563 188.3125 L 426.421875 188.277344 L 426.496094 188.238281 L 426.566406 188.195313 L 426.632813 188.144531 L 426.703125 188.089844 L 426.769531 188.03125 L 426.835938 187.96875 L 426.898438 187.902344 L 426.957031 187.832031 L 427.066406 187.675781 L 427.117188 187.589844 L 427.164063 187.5 L 427.210938 187.40625 L 427.210938 185.4375 L 426.652344 185.4375 L 426.472656 185.441406 L 426.300781 185.453125 L 426.136719 185.472656 L 425.984375 185.5 L 425.839844 185.535156 L 425.710938 185.578125 L 425.585938 185.632813 L 425.472656 185.691406 L 425.371094 185.757813 L 425.277344 185.835938 L 425.195313 185.914063 L 425.121094 186.003906 L 425.054688 186.101563 L 425 186.207031 L 424.949219 186.324219 L 424.910156 186.445313 L 424.878906 186.578125 L 424.859375 186.71875 L 424.84375 186.871094 L 424.839844 187.03125 L 424.84375 187.160156 L 424.851563 187.289063 L 424.863281 187.40625 L 424.882813 187.519531 L 424.90625 187.628906 L 424.933594 187.726563 L 424.96875 187.820313 L 425.007813 187.910156 L 425.050781 187.992188 L 425.101563 188.066406 L 425.15625 188.128906 L 425.21875 188.1875 L 425.285156 188.238281 L 425.359375 188.28125 L 425.433594 188.320313 L 425.511719 188.347656 L 425.597656 188.375 L 425.6875 188.390625 L 425.777344 188.398438 Z M 425.875 188.402344 "/>
<path style=" stroke:none;fill-rule:evenodd;fill:rgb(100%,100%,100%);fill-opacity:1;" d="M 437.746094 179.382813 L 437.847656 179.382813 L 437.949219 179.386719 L 438.046875 179.394531 L 438.140625 179.40625 L 438.234375 179.421875 L 438.324219 179.4375 L 438.414063 179.460938 L 438.5 179.484375 L 438.664063 179.539063 L 438.164063 182.488281 L 438.082031 182.464844 L 438 182.445313 L 437.914063 182.425781 L 437.832031 182.410156 L 437.746094 182.398438 L 437.664063 182.386719 L 437.578125 182.378906 L 437.414063 182.371094 L 437.328125 182.367188 L 437.167969 182.375 L 437.015625 182.394531 L 436.871094 182.425781 L 436.734375 182.472656 L 436.605469 182.527344 L 436.484375 182.597656 L 436.371094 182.679688 L 436.265625 182.777344 L 436.164063 182.886719 L 436.074219 183.007813 L 435.988281 183.136719 L 435.90625 183.277344 L 435.828125 183.433594 L 435.753906 183.597656 L 435.6875 183.777344 L 435.621094 183.96875 L 435.558594 184.171875 L 435.5 184.390625 L 435.445313 184.617188 L 435.398438 184.859375 L 435.398438 190.257813 L 432.328125 190.257813 L 432.328125 179.679688 L 435.019531 179.679688 L 435.257813 181.53125 L 435.332031 181.328125 L 435.410156 181.136719 L 435.496094 180.953125 L 435.589844 180.78125 L 435.6875 180.617188 L 435.789063 180.460938 L 435.894531 180.316406 L 436.007813 180.179688 L 436.128906 180.054688 L 436.253906 179.9375 L 436.382813 179.832031 L 436.515625 179.738281 L 436.65625 179.65625 L 436.796875 179.582031 L 436.945313 179.519531 L 437.097656 179.46875 L 437.253906 179.429688 L 437.414063 179.402344 L 437.578125 179.386719 Z M 437.746094 179.382813 "/>
<path style=" stroke:none;fill-rule:evenodd;fill:rgb(100%,100%,100%);fill-opacity:1;" d="M 445.394531 179.339844 L 445.636719 179.351563 L 445.867188 179.375 L 446.085938 179.417969 L 446.296875 179.476563 L 446.496094 179.550781 L 446.683594 179.644531 L 446.859375 179.75 L 447.027344 179.875 L 447.183594 180.019531 L 447.328125 180.179688 L 447.464844 180.347656 L 447.585938 180.53125 L 447.691406 180.722656 L 447.785156 180.929688 L 447.863281 181.148438 L 447.929688 181.378906 L 447.980469 181.625 L 448.015625 181.878906 L 448.035156 182.148438 L 448.042969 182.429688 L 448.042969 190.257813 L 444.976563 190.257813 L 444.976563 182.71875 L 444.96875 182.601563 L 444.960938 182.488281 L 444.945313 182.386719 L 444.925781 182.289063 L 444.90625 182.203125 L 444.878906 182.121094 L 444.847656 182.050781 L 444.816406 181.988281 L 444.777344 181.929688 L 444.738281 181.878906 L 444.699219 181.832031 L 444.652344 181.789063 L 444.601563 181.753906 L 444.546875 181.722656 L 444.492188 181.695313 L 444.429688 181.675781 L 444.363281 181.664063 L 444.292969 181.65625 L 444.21875 181.652344 L 444.140625 181.65625 L 444.0625 181.664063 L 443.984375 181.683594 L 443.90625 181.707031 L 443.828125 181.738281 L 443.75 181.773438 L 443.671875 181.816406 L 443.59375 181.867188 L 443.519531 181.925781 L 443.441406 181.992188 L 443.371094 182.058594 L 443.296875 182.128906 L 443.226563 182.210938 L 443.148438 182.296875 L 443.074219 182.390625 L 443 182.488281 L 442.921875 182.59375 L 442.84375 182.703125 L 442.765625 182.820313 L 442.6875 182.945313 L 442.6875 190.257813 L 439.621094 190.257813 L 439.621094 179.679688 L 442.308594 179.679688 L 442.527344 180.933594 L 442.644531 180.78125 L 442.761719 180.632813 L 442.882813 180.492188 L 443.007813 180.359375 L 443.132813 180.238281 L 443.261719 180.121094 L 443.394531 180.015625 L 443.527344 179.914063 L 443.664063 179.824219 L 443.800781 179.738281 L 443.941406 179.664063 L 444.089844 179.597656 L 444.238281 179.535156 L 444.390625 179.484375 L 444.546875 179.441406 L 444.710938 179.40625 L 444.875 179.378906 L 445.042969 179.359375 L 445.21875 179.34375 Z M 445.394531 179.339844 "/>
<path style=" stroke:none;fill-rule:evenodd;fill:rgb(100%,100%,100%);fill-opacity:1;" d="M 453.121094 179.679688 L 453.121094 190.257813 L 450.054688 190.257813 L 450.054688 179.679688 Z M 451.570313 174.164063 L 451.722656 174.167969 L 451.867188 174.183594 L 452.011719 174.207031 L 452.144531 174.242188 L 452.277344 174.289063 L 452.402344 174.34375 L 452.519531 174.40625 L 452.632813 174.480469 L 452.742188 174.566406 L 452.84375 174.660156 L 452.941406 174.761719 L 453.03125 174.871094 L 453.109375 174.980469 L 453.175781 175.097656 L 453.234375 175.21875 L 453.277344 175.34375 L 453.316406 175.476563 L 453.339844 175.609375 L 453.355469 175.75 L 453.363281 175.894531 L 453.355469 176.042969 L 453.339844 176.1875 L 453.316406 176.328125 L 453.277344 176.460938 L 453.234375 176.589844 L 453.175781 176.710938 L 453.109375 176.828125 L 453.03125 176.941406 L 452.941406 177.046875 L 452.84375 177.152344 L 452.742188 177.246094 L 452.632813 177.328125 L 452.519531 177.40625 L 452.402344 177.46875 L 452.277344 177.523438 L 452.144531 177.570313 L 452.011719 177.605469 L 451.867188 177.628906 L 451.722656 177.644531 L 451.570313 177.648438 L 451.417969 177.644531 L 451.269531 177.628906 L 451.128906 177.605469 L 450.992188 177.570313 L 450.863281 177.523438 L 450.738281 177.46875 L 450.617188 177.40625 L 450.503906 177.328125 L 450.398438 177.246094 L 450.292969 177.152344 L 450.199219 177.046875 L 450.117188 176.941406 L 450.039063 176.828125 L 449.976563 176.710938 L 449.921875 176.589844 L 449.875 176.460938 L 449.839844 176.328125 L 449.816406 176.1875 L 449.800781 176.042969 L 449.796875 175.894531 L 449.800781 175.75 L 449.816406 175.609375 L 449.839844 175.476563 L 449.875 175.34375 L 449.921875 175.21875 L 449.976563 175.097656 L 450.039063 174.980469 L 450.117188 174.871094 L 450.199219 174.761719 L 450.292969 174.660156 L 450.398438 174.566406 L 450.503906 174.480469 L 450.617188 174.40625 L 450.738281 174.34375 L 450.863281 174.289063 L 450.992188 174.242188 L 451.128906 174.207031 L 451.269531 174.183594 L 451.417969 174.167969 Z M 451.570313 174.164063 "/>
<path style=" stroke:none;fill-rule:evenodd;fill:rgb(100%,100%,100%);fill-opacity:1;" d="M 460.988281 179.339844 L 461.230469 179.351563 L 461.460938 179.375 L 461.683594 179.417969 L 461.890625 179.476563 L 462.089844 179.550781 L 462.277344 179.644531 L 462.457031 179.75 L 462.621094 179.875 L 462.777344 180.019531 L 462.921875 180.179688 L 463.058594 180.347656 L 463.179688 180.53125 L 463.289063 180.722656 L 463.382813 180.929688 L 463.460938 181.148438 L 463.523438 181.378906 L 463.574219 181.625 L 463.609375 181.878906 L 463.632813 182.148438 L 463.640625 182.429688 L 463.640625 190.257813 L 460.570313 190.257813 L 460.570313 182.71875 L 460.5625 182.601563 L 460.554688 182.488281 L 460.539063 182.386719 L 460.523438 182.289063 L 460.5 182.203125 L 460.472656 182.121094 L 460.445313 182.050781 L 460.410156 181.988281 L 460.371094 181.929688 L 460.335938 181.878906 L 460.292969 181.832031 L 460.246094 181.789063 L 460.199219 181.753906 L 460.144531 181.722656 L 460.085938 181.695313 L 460.023438 181.675781 L 459.957031 181.664063 L 459.890625 181.65625 L 459.816406 181.652344 L 459.734375 181.65625 L 459.65625 181.664063 L 459.578125 181.683594 L 459.5 181.707031 L 459.421875 181.738281 L 459.34375 181.773438 L 459.265625 181.816406 L 459.191406 181.867188 L 459.113281 181.925781 L 458.964844 182.058594 L 458.894531 182.128906 L 458.820313 182.210938 L 458.746094 182.296875 L 458.667969 182.390625 L 458.59375 182.488281 L 458.515625 182.59375 L 458.4375 182.703125 L 458.359375 182.820313 L 458.28125 182.945313 L 458.28125 190.257813 L 455.214844 190.257813 L 455.214844 179.679688 L 457.902344 179.679688 L 458.121094 180.933594 L 458.238281 180.78125 L 458.359375 180.632813 L 458.480469 180.492188 L 458.601563 180.359375 L 458.730469 180.238281 L 458.859375 180.121094 L 458.988281 180.015625 L 459.121094 179.914063 L 459.257813 179.824219 L 459.398438 179.738281 L 459.539063 179.664063 L 459.683594 179.597656 L 459.832031 179.535156 L 459.988281 179.484375 L 460.144531 179.441406 L 460.304688 179.40625 L 460.46875 179.378906 L 460.640625 179.359375 L 460.8125 179.34375 Z M 460.988281 179.339844 "/>
<path style=" stroke:none;fill-rule:evenodd;fill:rgb(100%,100%,100%);fill-opacity:1;" d="M 474.574219 180.296875 L 474.382813 180.375 L 474.171875 180.441406 L 473.941406 180.5 L 473.695313 180.550781 L 473.433594 180.597656 L 473.152344 180.632813 L 472.851563 180.660156 L 472.535156 180.679688 L 472.199219 180.691406 L 471.84375 180.695313 L 472.03125 180.785156 L 472.207031 180.878906 L 472.371094 180.980469 L 472.527344 181.082031 L 472.671875 181.1875 L 472.804688 181.300781 L 472.929688 181.417969 L 473.042969 181.539063 L 473.144531 181.660156 L 473.238281 181.792969 L 473.324219 181.921875 L 473.402344 182.0625 L 473.472656 182.207031 L 473.53125 182.363281 L 473.582031 182.523438 L 473.625 182.691406 L 473.65625 182.867188 L 473.679688 183.054688 L 473.691406 183.246094 L 473.695313 183.445313 L 473.691406 183.644531 L 473.675781 183.84375 L 473.652344 184.035156 L 473.617188 184.226563 L 473.574219 184.410156 L 473.519531 184.589844 L 473.453125 184.769531 L 473.378906 184.941406 L 473.292969 185.113281 L 473.199219 185.277344 L 473.09375 185.433594 L 472.984375 185.582031 L 472.859375 185.722656 L 472.730469 185.859375 L 472.589844 185.988281 L 472.445313 186.109375 L 472.289063 186.226563 L 472.121094 186.335938 L 471.949219 186.4375 L 471.765625 186.53125 L 471.578125 186.613281 L 471.386719 186.6875 L 471.183594 186.753906 L 470.976563 186.8125 L 470.765625 186.859375 L 470.542969 186.898438 L 470.316406 186.929688 L 470.082031 186.953125 L 469.84375 186.964844 L 469.59375 186.96875 L 469.476563 186.96875 L 469.359375 186.964844 L 469.246094 186.960938 L 469.136719 186.949219 L 469.027344 186.941406 L 468.816406 186.910156 L 468.714844 186.894531 L 468.617188 186.871094 L 468.519531 186.851563 L 468.453125 186.894531 L 468.398438 186.945313 L 468.347656 187 L 468.300781 187.058594 L 468.265625 187.117188 L 468.234375 187.183594 L 468.210938 187.253906 L 468.195313 187.328125 L 468.183594 187.40625 L 468.179688 187.488281 L 468.183594 187.550781 L 468.1875 187.609375 L 468.199219 187.667969 L 468.214844 187.71875 L 468.234375 187.769531 L 468.257813 187.820313 L 468.289063 187.867188 L 468.320313 187.910156 L 468.359375 187.949219 L 468.398438 187.984375 L 468.449219 188.019531 L 468.511719 188.050781 L 468.578125 188.078125 L 468.652344 188.101563 L 468.734375 188.121094 L 468.824219 188.136719 L 468.917969 188.148438 L 469.023438 188.15625 L 469.136719 188.164063 L 470.550781 188.164063 L 470.894531 188.171875 L 471.222656 188.199219 L 471.539063 188.242188 L 471.835938 188.300781 L 472.125 188.378906 L 472.394531 188.472656 L 472.652344 188.585938 L 472.894531 188.710938 L 473.125 188.859375 L 473.339844 189.019531 L 473.535156 189.195313 L 473.710938 189.375 L 473.867188 189.566406 L 474 189.769531 L 474.117188 189.980469 L 474.207031 190.203125 L 474.28125 190.4375 L 474.332031 190.679688 L 474.363281 190.929688 L 474.375 191.191406 L 474.359375 191.507813 L 474.320313 191.808594 L 474.257813 192.097656 L 474.164063 192.371094 L 474.046875 192.632813 L 473.902344 192.878906 L 473.730469 193.109375 L 473.53125 193.328125 L 473.308594 193.53125 L 473.058594 193.722656 L 472.785156 193.898438 L 472.488281 194.058594 L 472.167969 194.199219 L 471.828125 194.320313 L 471.460938 194.421875 L 471.074219 194.507813 L 470.664063 194.574219 L 470.230469 194.621094 L 469.773438 194.648438 L 469.296875 194.65625 L 468.785156 194.648438 L 468.308594 194.625 L 467.863281 194.582031 L 467.449219 194.519531 L 467.070313 194.445313 L 466.722656 194.347656 L 466.40625 194.238281 L 466.121094 194.109375 L 465.871094 193.964844 L 465.652344 193.800781 L 465.457031 193.621094 L 465.285156 193.425781 L 465.132813 193.214844 L 465 192.984375 L 464.890625 192.742188 L 464.796875 192.480469 L 464.726563 192.203125 L 464.675781 191.910156 L 464.644531 191.597656 L 464.636719 191.273438 L 467.382813 191.273438 L 467.386719 191.414063 L 467.398438 191.550781 L 467.417969 191.675781 L 467.445313 191.792969 L 467.484375 191.902344 L 467.527344 192.003906 L 467.578125 192.097656 L 467.636719 192.183594 L 467.707031 192.257813 L 467.78125 192.328125 L 467.867188 192.386719 L 467.972656 192.441406 L 468.089844 192.488281 L 468.222656 192.53125 L 468.371094 192.566406 L 468.53125 192.59375 L 468.710938 192.617188 L 468.902344 192.632813 L 469.113281 192.644531 L 469.546875 192.644531 L 469.746094 192.632813 L 469.933594 192.617188 L 470.105469 192.59375 L 470.265625 192.5625 L 470.414063 192.523438 L 470.546875 192.480469 L 470.667969 192.429688 L 470.773438 192.371094 L 470.867188 192.308594 L 470.953125 192.242188 L 471.027344 192.167969 L 471.09375 192.09375 L 471.148438 192.011719 L 471.199219 191.925781 L 471.238281 191.832031 L 471.269531 191.734375 L 471.289063 191.632813 L 471.304688 191.523438 L 471.308594 191.410156 L 471.292969 191.199219 L 471.25 191.007813 L 471.179688 190.84375 L 471.082031 190.699219 L 470.953125 190.574219 L 470.796875 190.472656 L 470.613281 190.394531 L 470.402344 190.339844 L 470.160156 190.308594 L 469.894531 190.296875 L 468.757813 190.296875 L 468.449219 190.289063 L 468.152344 190.273438 L 467.878906 190.246094 L 467.617188 190.207031 L 467.375 190.15625 L 467.148438 190.09375 L 466.9375 190.023438 L 466.742188 189.9375 L 466.566406 189.84375 L 466.40625 189.738281 L 466.265625 189.617188 L 466.136719 189.492188 L 466.023438 189.359375 L 465.921875 189.21875 L 465.839844 189.070313 L 465.773438 188.917969 L 465.71875 188.753906 L 465.679688 188.585938 L 465.660156 188.40625 L 465.652344 188.222656 L 465.652344 188.109375 L 465.664063 187.996094 L 465.679688 187.882813 L 465.703125 187.773438 L 465.730469 187.660156 L 465.765625 187.554688 L 465.808594 187.445313 L 465.855469 187.339844 L 465.910156 187.234375 L 465.96875 187.128906 L 466.035156 187.027344 L 466.105469 186.925781 L 466.179688 186.832031 L 466.257813 186.738281 L 466.34375 186.644531 L 466.429688 186.558594 L 466.523438 186.472656 L 466.71875 186.308594 L 466.824219 186.234375 L 466.648438 186.125 L 466.480469 186.011719 L 466.320313 185.894531 L 466.171875 185.773438 L 466.035156 185.648438 L 465.90625 185.523438 L 465.789063 185.390625 L 465.679688 185.257813 L 465.578125 185.121094 L 465.492188 184.976563 L 465.414063 184.832031 L 465.347656 184.675781 L 465.289063 184.515625 L 465.238281 184.351563 L 465.191406 184.175781 L 465.15625 183.996094 L 465.128906 183.808594 L 465.109375 183.613281 L 465.097656 183.414063 L 465.09375 183.207031 L 465.105469 182.855469 L 465.140625 182.519531 L 465.199219 182.199219 L 465.28125 181.890625 L 465.386719 181.601563 L 465.515625 181.328125 L 465.667969 181.066406 L 465.84375 180.820313 L 466.042969 180.59375 L 466.269531 180.378906 L 466.515625 180.179688 L 466.777344 180.003906 L 467.058594 179.851563 L 467.351563 179.71875 L 467.664063 179.605469 L 467.988281 179.515625 L 468.332031 179.445313 L 468.691406 179.394531 L 469.066406 179.367188 L 469.453125 179.363281 L 469.730469 179.363281 L 469.996094 179.355469 L 470.25 179.34375 L 470.496094 179.324219 L 470.734375 179.296875 L 470.964844 179.261719 L 471.183594 179.222656 L 471.390625 179.175781 L 471.59375 179.125 L 471.785156 179.0625 L 471.972656 178.992188 L 472.167969 178.914063 L 472.363281 178.832031 L 472.566406 178.742188 L 472.769531 178.644531 L 472.980469 178.542969 L 473.191406 178.433594 L 473.410156 178.316406 L 473.632813 178.195313 L 473.855469 178.066406 Z M 469.453125 181.375 L 469.203125 181.390625 L 468.972656 181.445313 L 468.773438 181.535156 L 468.601563 181.660156 L 468.453125 181.820313 L 468.332031 182.019531 L 468.242188 182.25 L 468.171875 182.519531 L 468.132813 182.824219 L 468.121094 183.164063 L 468.125 183.34375 L 468.132813 183.515625 L 468.152344 183.675781 L 468.175781 183.824219 L 468.203125 183.96875 L 468.242188 184.101563 L 468.285156 184.222656 L 468.335938 184.339844 L 468.394531 184.445313 L 468.460938 184.539063 L 468.535156 184.625 L 468.613281 184.703125 L 468.699219 184.773438 L 468.789063 184.832031 L 468.886719 184.882813 L 468.988281 184.925781 L 469.097656 184.957031 L 469.210938 184.980469 L 469.332031 184.992188 L 469.453125 184.996094 L 469.582031 184.992188 L 469.703125 184.980469 L 469.820313 184.957031 L 469.929688 184.929688 L 470.03125 184.886719 L 470.128906 184.839844 L 470.21875 184.785156 L 470.300781 184.71875 L 470.378906 184.644531 L 470.449219 184.558594 L 470.515625 184.464844 L 470.574219 184.355469 L 470.625 184.238281 L 470.667969 184.109375 L 470.703125 183.972656 L 470.734375 183.824219 L 470.757813 183.664063 L 470.777344 183.496094 L 470.785156 183.316406 L 470.789063 183.125 L 470.785156 182.949219 L 470.777344 182.777344 L 470.757813 182.621094 L 470.734375 182.472656 L 470.703125 182.335938 L 470.667969 182.207031 L 470.625 182.085938 L 470.574219 181.980469 L 470.515625 181.878906 L 470.449219 181.792969 L 470.382813 181.710938 L 470.308594 181.640625 L 470.226563 181.578125 L 470.136719 181.523438 L 470.042969 181.476563 L 469.9375 181.441406 L 469.828125 181.410156 L 469.710938 181.390625 L 469.585938 181.378906 Z M 469.453125 181.375 "/>
<path style=" stroke:none;fill-rule:evenodd;fill:rgb(100%,100%,100%);fill-opacity:1;" d="M 478.996094 179.339844 L 479.203125 179.34375 L 479.410156 179.355469 L 479.617188 179.371094 L 479.816406 179.394531 L 480.015625 179.425781 L 480.210938 179.464844 L 480.40625 179.507813 L 480.59375 179.558594 L 480.78125 179.617188 L 480.96875 179.679688 L 481.148438 179.75 L 481.324219 179.828125 L 481.496094 179.910156 L 481.664063 179.996094 L 481.828125 180.089844 L 481.988281 180.1875 L 482.140625 180.289063 L 482.292969 180.398438 L 482.4375 180.515625 L 482.582031 180.636719 L 481.464844 182.308594 L 481.226563 182.160156 L 480.992188 182.03125 L 480.761719 181.914063 L 480.53125 181.8125 L 480.304688 181.726563 L 480.082031 181.65625 L 479.859375 181.601563 L 479.640625 181.5625 L 479.425781 181.539063 L 479.214844 181.53125 L 479.105469 181.535156 L 479 181.542969 L 478.902344 181.554688 L 478.808594 181.570313 L 478.636719 181.617188 L 478.558594 181.648438 L 478.488281 181.683594 L 478.421875 181.726563 L 478.359375 181.769531 L 478.300781 181.816406 L 478.25 181.867188 L 478.207031 181.917969 L 478.167969 181.976563 L 478.132813 182.035156 L 478.105469 182.097656 L 478.085938 182.164063 L 478.070313 182.238281 L 478.0625 182.3125 L 478.058594 182.390625 L 478.058594 182.449219 L 478.066406 182.503906 L 478.070313 182.5625 L 478.082031 182.613281 L 478.09375 182.667969 L 478.109375 182.71875 L 478.128906 182.769531 L 478.148438 182.816406 L 478.171875 182.863281 L 478.199219 182.90625 L 478.234375 182.945313 L 478.273438 182.988281 L 478.316406 183.027344 L 478.367188 183.070313 L 478.421875 183.109375 L 478.546875 183.195313 L 478.617188 183.238281 L 478.695313 183.28125 L 478.777344 183.324219 L 478.863281 183.367188 L 478.960938 183.410156 L 479.066406 183.453125 L 479.175781 183.5 L 479.296875 183.550781 L 479.429688 183.601563 L 479.566406 183.652344 L 479.710938 183.707031 L 479.867188 183.765625 L 480.03125 183.824219 L 480.316406 183.925781 L 480.589844 184.03125 L 480.84375 184.144531 L 481.085938 184.261719 L 481.308594 184.386719 L 481.519531 184.511719 L 481.714844 184.648438 L 481.890625 184.785156 L 482.054688 184.929688 L 482.203125 185.078125 L 482.339844 185.234375 L 482.460938 185.402344 L 482.566406 185.582031 L 482.660156 185.769531 L 482.738281 185.96875 L 482.804688 186.179688 L 482.855469 186.402344 L 482.890625 186.632813 L 482.910156 186.875 L 482.917969 187.128906 L 482.90625 187.441406 L 482.871094 187.738281 L 482.808594 188.027344 L 482.722656 188.296875 L 482.613281 188.558594 L 482.480469 188.804688 L 482.324219 189.039063 L 482.140625 189.257813 L 481.933594 189.464844 L 481.703125 189.660156 L 481.453125 189.835938 L 481.191406 189.996094 L 480.914063 190.136719 L 480.625 190.257813 L 480.320313 190.359375 L 480.003906 190.445313 L 479.671875 190.511719 L 479.328125 190.558594 L 478.96875 190.585938 L 478.597656 190.59375 L 478.355469 190.589844 L 478.117188 190.578125 L 477.882813 190.558594 L 477.648438 190.527344 L 477.421875 190.488281 L 477.195313 190.445313 L 476.972656 190.390625 L 476.753906 190.328125 L 476.539063 190.253906 L 476.328125 190.175781 L 476.121094 190.089844 L 475.925781 189.996094 L 475.730469 189.898438 L 475.546875 189.792969 L 475.363281 189.683594 L 475.191406 189.566406 L 475.023438 189.445313 L 474.859375 189.316406 L 474.703125 189.179688 L 474.554688 189.042969 L 476.007813 187.40625 L 476.253906 187.597656 L 476.5 187.765625 L 476.75 187.914063 L 476.996094 188.046875 L 477.242188 188.15625 L 477.488281 188.246094 L 477.734375 188.3125 L 477.984375 188.363281 L 478.230469 188.394531 L 478.476563 188.402344 L 478.597656 188.402344 L 478.714844 188.394531 L 478.824219 188.378906 L 478.925781 188.363281 L 479.023438 188.339844 L 479.117188 188.3125 L 479.203125 188.277344 L 479.285156 188.238281 L 479.363281 188.195313 L 479.433594 188.144531 L 479.5 188.085938 L 479.5625 188.023438 L 479.617188 187.960938 L 479.664063 187.890625 L 479.703125 187.816406 L 479.734375 187.738281 L 479.757813 187.65625 L 479.777344 187.570313 L 479.789063 187.480469 L 479.792969 187.386719 L 479.789063 187.3125 L 479.785156 187.242188 L 479.777344 187.171875 L 479.765625 187.109375 L 479.75 187.042969 L 479.734375 186.984375 L 479.714844 186.925781 L 479.691406 186.871094 L 479.664063 186.820313 L 479.632813 186.769531 L 479.601563 186.722656 L 479.566406 186.675781 L 479.523438 186.628906 L 479.476563 186.582031 L 479.421875 186.535156 L 479.363281 186.492188 L 479.300781 186.445313 L 479.230469 186.402344 L 479.15625 186.355469 L 478.992188 186.269531 L 478.898438 186.222656 L 478.792969 186.175781 L 478.683594 186.125 L 478.5625 186.074219 L 478.433594 186.019531 L 478.292969 185.964844 L 478.144531 185.910156 L 477.988281 185.855469 L 477.820313 185.792969 L 477.535156 185.691406 L 477.269531 185.585938 L 477.015625 185.472656 L 476.78125 185.355469 L 476.558594 185.230469 L 476.355469 185.105469 L 476.164063 184.96875 L 475.992188 184.832031 L 475.832031 184.6875 L 475.6875 184.539063 L 475.5625 184.378906 L 475.453125 184.214844 L 475.355469 184.039063 L 475.269531 183.855469 L 475.195313 183.664063 L 475.136719 183.464844 L 475.089844 183.257813 L 475.058594 183.042969 L 475.039063 182.820313 L 475.03125 182.589844 L 475.035156 182.40625 L 475.050781 182.230469 L 475.074219 182.054688 L 475.109375 181.882813 L 475.152344 181.714844 L 475.203125 181.554688 L 475.265625 181.394531 L 475.335938 181.238281 L 475.417969 181.085938 L 475.507813 180.933594 L 475.609375 180.789063 L 475.71875 180.652344 L 475.835938 180.519531 L 475.957031 180.394531 L 476.09375 180.277344 L 476.234375 180.164063 L 476.382813 180.058594 L 476.542969 179.960938 L 476.707031 179.867188 L 476.882813 179.78125 L 477.066406 179.695313 L 477.253906 179.621094 L 477.449219 179.554688 L 477.652344 179.5 L 477.859375 179.449219 L 478.074219 179.410156 L 478.292969 179.382813 L 478.523438 179.359375 L 478.753906 179.347656 Z M 478.996094 179.339844 "/>
</g>
</svg>
