<?xml version="1.0" encoding="UTF-8"?>
<svg xmlns="http://www.w3.org/2000/svg" xmlns:xlink="http://www.w3.org/1999/xlink" width="540pt" height="324pt" viewBox="0 0 540 324" version="1.1">
<g id="surface4">
<rect x="0" y="0" width="540" height="324" style="fill:rgb(100%,100%,100%);fill-opacity:1;stroke:none;"/>
<path style="fill-rule:nonzero;fill:rgb(98.823529%,80.784314%,14.509804%);fill-opacity:0.4;stroke-width:0.708661;stroke-linecap:round;stroke-linejoin:round;stroke:rgb(98.823529%,80.784314%,14.509804%);stroke-opacity:1;stroke-miterlimit:10;" d="M 357.335938 131.03125 C 357.335938 135.773438 350.226563 135.773438 350.226563 131.03125 C 350.226563 126.292969 357.335938 126.292969 357.335938 131.03125 "/>
<path style="fill-rule:nonzero;fill:rgb(98.823529%,80.784314%,14.509804%);fill-opacity:0.4;stroke-width:0.708661;stroke-linecap:round;stroke-linejoin:round;stroke:rgb(98.823529%,80.784314%,14.509804%);stroke-opacity:1;stroke-miterlimit:10;" d="M 347.257813 176.214844 C 347.257813 180.953125 340.148438 180.953125 340.148438 176.214844 C 340.148438 171.472656 347.257813 171.472656 347.257813 176.214844 "/>
<path style="fill-rule:nonzero;fill:rgb(98.823529%,80.784314%,14.509804%);fill-opacity:0.4;stroke-width:0.708661;stroke-linecap:round;stroke-linejoin:round;stroke:rgb(98.823529%,80.784314%,14.509804%);stroke-opacity:1;stroke-miterlimit:10;" d="M 406.53125 101.71875 C 406.53125 106.457031 399.421875 106.457031 399.421875 101.71875 C 399.421875 96.976563 406.53125 96.976563 406.53125 101.71875 "/>
<path style="fill-rule:nonzero;fill:rgb(98.823529%,80.784314%,14.509804%);fill-opacity:0.4;stroke-width:0.708661;stroke-linecap:round;stroke-linejoin:round;stroke:rgb(98.823529%,80.784314%,14.509804%);stroke-opacity:1;stroke-miterlimit:10;" d="M 306.765625 60.542969 C 306.765625 65.285156 299.652344 65.285156 299.652344 60.542969 C 299.652344 55.804688 306.765625 55.804688 306.765625 60.542969 "/>
<path style="fill-rule:nonzero;fill:rgb(98.823529%,80.784314%,14.509804%);fill-opacity:0.4;stroke-width:0.708661;stroke-linecap:round;stroke-linejoin:round;stroke:rgb(98.823529%,80.784314%,14.509804%);stroke-opacity:1;stroke-miterlimit:10;" d="M 389.679688 187.074219 C 389.679688 191.8125 382.570313 191.8125 382.570313 187.074219 C 382.570313 182.332031 389.679688 182.332031 389.679688 187.074219 "/>
<path style="fill-rule:nonzero;fill:rgb(98.823529%,80.784314%,14.509804%);fill-opacity:0.4;stroke-width:0.708661;stroke-linecap:round;stroke-linejoin:round;stroke:rgb(98.823529%,80.784314%,14.509804%);stroke-opacity:1;stroke-miterlimit:10;" d="M 392.742188 77.03125 C 392.742188 81.773438 385.632813 81.773438 385.632813 77.03125 C 385.632813 72.292969 392.742188 72.292969 392.742188 77.03125 "/>
<path style="fill-rule:nonzero;fill:rgb(98.823529%,80.784314%,14.509804%);fill-opacity:0.4;stroke-width:0.708661;stroke-linecap:round;stroke-linejoin:round;stroke:rgb(98.823529%,80.784314%,14.509804%);stroke-opacity:1;stroke-miterlimit:10;" d="M 458.855469 146.089844 C 458.855469 150.832031 451.742188 150.832031 451.742188 146.089844 C 451.742188 141.351563 458.855469 141.351563 458.855469 146.089844 "/>
<path style="fill-rule:nonzero;fill:rgb(98.823529%,80.784314%,14.509804%);fill-opacity:0.4;stroke-width:0.708661;stroke-linecap:round;stroke-linejoin:round;stroke:rgb(98.823529%,80.784314%,14.509804%);stroke-opacity:1;stroke-miterlimit:10;" d="M 369.917969 52.417969 C 369.917969 57.15625 362.808594 57.15625 362.808594 52.417969 C 362.808594 47.675781 369.917969 47.675781 369.917969 52.417969 "/>
<path style="fill-rule:nonzero;fill:rgb(98.823529%,80.784314%,14.509804%);fill-opacity:0.4;stroke-width:0.708661;stroke-linecap:round;stroke-linejoin:round;stroke:rgb(98.823529%,80.784314%,14.509804%);stroke-opacity:1;stroke-miterlimit:10;" d="M 405.375 61.417969 C 405.375 66.160156 398.261719 66.160156 398.261719 61.417969 C 398.261719 56.679688 405.375 56.679688 405.375 61.417969 "/>
<path style="fill-rule:nonzero;fill:rgb(98.823529%,80.784314%,14.509804%);fill-opacity:0.4;stroke-width:0.708661;stroke-linecap:round;stroke-linejoin:round;stroke:rgb(98.823529%,80.784314%,14.509804%);stroke-opacity:1;stroke-miterlimit:10;" d="M 329.671875 148.855469 C 329.671875 153.597656 322.5625 153.597656 322.5625 148.855469 C 322.5625 144.117188 329.671875 144.117188 329.671875 148.855469 "/>
<path style="fill-rule:nonzero;fill:rgb(98.823529%,80.784314%,14.509804%);fill-opacity:0.4;stroke-width:0.708661;stroke-linecap:round;stroke-linejoin:round;stroke:rgb(98.823529%,80.784314%,14.509804%);stroke-opacity:1;stroke-miterlimit:10;" d="M 421.152344 114.117188 C 421.152344 118.859375 414.042969 118.859375 414.042969 114.117188 C 414.042969 109.375 421.152344 109.375 421.152344 114.117188 "/>
<path style="fill-rule:nonzero;fill:rgb(98.823529%,80.784314%,14.509804%);fill-opacity:0.4;stroke-width:0.708661;stroke-linecap:round;stroke-linejoin:round;stroke:rgb(98.823529%,80.784314%,14.509804%);stroke-opacity:1;stroke-miterlimit:10;" d="M 472.886719 98.953125 C 472.886719 103.691406 465.777344 103.691406 465.777344 98.953125 C 465.777344 94.210938 472.886719 94.210938 472.886719 98.953125 "/>
<path style="fill-rule:nonzero;fill:rgb(98.823529%,80.784314%,14.509804%);fill-opacity:0.4;stroke-width:0.708661;stroke-linecap:round;stroke-linejoin:round;stroke:rgb(98.823529%,80.784314%,14.509804%);stroke-opacity:1;stroke-miterlimit:10;" d="M 351.820313 129.660156 C 351.820313 134.398438 344.710938 134.398438 344.710938 129.660156 C 344.710938 124.917969 351.820313 124.917969 351.820313 129.660156 "/>
<path style="fill-rule:nonzero;fill:rgb(98.823529%,80.784314%,14.509804%);fill-opacity:0.4;stroke-width:0.708661;stroke-linecap:round;stroke-linejoin:round;stroke:rgb(98.823529%,80.784314%,14.509804%);stroke-opacity:1;stroke-miterlimit:10;" d="M 375.585938 25.972656 C 375.585938 30.710938 368.476563 30.710938 368.476563 25.972656 C 368.476563 21.230469 375.585938 21.230469 375.585938 25.972656 "/>
<path style="fill-rule:nonzero;fill:rgb(98.823529%,80.784314%,14.509804%);fill-opacity:0.4;stroke-width:0.708661;stroke-linecap:round;stroke-linejoin:round;stroke:rgb(98.823529%,80.784314%,14.509804%);stroke-opacity:1;stroke-miterlimit:10;" d="M 448.824219 96.289063 C 448.824219 101.03125 441.714844 101.03125 441.714844 96.289063 C 441.714844 91.550781 448.824219 91.550781 448.824219 96.289063 "/>
<path style="fill-rule:nonzero;fill:rgb(98.823529%,80.784314%,14.509804%);fill-opacity:0.4;stroke-width:0.708661;stroke-linecap:round;stroke-linejoin:round;stroke:rgb(98.823529%,80.784314%,14.509804%);stroke-opacity:1;stroke-miterlimit:10;" d="M 430.007813 127.824219 C 430.007813 132.5625 422.898438 132.5625 422.898438 127.824219 C 422.898438 123.082031 430.007813 123.082031 430.007813 127.824219 "/>
<path style="fill-rule:nonzero;fill:rgb(98.823529%,80.784314%,14.509804%);fill-opacity:0.4;stroke-width:0.708661;stroke-linecap:round;stroke-linejoin:round;stroke:rgb(98.823529%,80.784314%,14.509804%);stroke-opacity:1;stroke-miterlimit:10;" d="M 336.582031 97.964844 C 336.582031 102.707031 329.472656 102.707031 329.472656 97.964844 C 329.472656 93.226563 336.582031 93.226563 336.582031 97.964844 "/>
<path style="fill-rule:nonzero;fill:rgb(98.823529%,80.784314%,14.509804%);fill-opacity:0.4;stroke-width:0.708661;stroke-linecap:round;stroke-linejoin:round;stroke:rgb(98.823529%,80.784314%,14.509804%);stroke-opacity:1;stroke-miterlimit:10;" d="M 367.34375 107.507813 C 367.34375 112.25 360.234375 112.25 360.234375 107.507813 C 360.234375 102.769531 367.34375 102.769531 367.34375 107.507813 "/>
<path style="fill-rule:nonzero;fill:rgb(98.823529%,80.784314%,14.509804%);fill-opacity:0.4;stroke-width:0.708661;stroke-linecap:round;stroke-linejoin:round;stroke:rgb(98.823529%,80.784314%,14.509804%);stroke-opacity:1;stroke-miterlimit:10;" d="M 367.738281 116.589844 C 367.738281 121.332031 360.628906 121.332031 360.628906 116.589844 C 360.628906 111.851563 367.738281 111.851563 367.738281 116.589844 "/>
<path style="fill-rule:nonzero;fill:rgb(98.823529%,80.784314%,14.509804%);fill-opacity:0.4;stroke-width:0.708661;stroke-linecap:round;stroke-linejoin:round;stroke:rgb(98.823529%,80.784314%,14.509804%);stroke-opacity:1;stroke-miterlimit:10;" d="M 434.289063 106.210938 C 434.289063 110.949219 427.179688 110.949219 427.179688 106.210938 C 427.179688 101.46875 434.289063 101.46875 434.289063 106.210938 "/>
<path style="fill-rule:nonzero;fill:rgb(98.823529%,80.784314%,14.509804%);fill-opacity:0.4;stroke-width:0.708661;stroke-linecap:round;stroke-linejoin:round;stroke:rgb(98.823529%,80.784314%,14.509804%);stroke-opacity:1;stroke-miterlimit:10;" d="M 403.210938 93.179688 C 403.210938 97.921875 396.101563 97.921875 396.101563 93.179688 C 396.101563 88.441406 403.210938 88.441406 403.210938 93.179688 "/>
<path style="fill-rule:nonzero;fill:rgb(98.823529%,80.784314%,14.509804%);fill-opacity:0.4;stroke-width:0.708661;stroke-linecap:round;stroke-linejoin:round;stroke:rgb(98.823529%,80.784314%,14.509804%);stroke-opacity:1;stroke-miterlimit:10;" d="M 438.414063 138.246094 C 438.414063 142.988281 431.304688 142.988281 431.304688 138.246094 C 431.304688 133.507813 438.414063 133.507813 438.414063 138.246094 "/>
<path style="fill-rule:nonzero;fill:rgb(98.823529%,80.784314%,14.509804%);fill-opacity:0.4;stroke-width:0.708661;stroke-linecap:round;stroke-linejoin:round;stroke:rgb(98.823529%,80.784314%,14.509804%);stroke-opacity:1;stroke-miterlimit:10;" d="M 403.722656 147.359375 C 403.722656 152.097656 396.613281 152.097656 396.613281 147.359375 C 396.613281 142.617188 403.722656 142.617188 403.722656 147.359375 "/>
<path style="fill-rule:nonzero;fill:rgb(98.823529%,80.784314%,14.509804%);fill-opacity:0.4;stroke-width:0.708661;stroke-linecap:round;stroke-linejoin:round;stroke:rgb(98.823529%,80.784314%,14.509804%);stroke-opacity:1;stroke-miterlimit:10;" d="M 446.09375 45.601563 C 446.09375 50.34375 438.984375 50.34375 438.984375 45.601563 C 438.984375 40.863281 446.09375 40.863281 446.09375 45.601563 "/>
<path style="fill-rule:nonzero;fill:rgb(98.823529%,80.784314%,14.509804%);fill-opacity:0.4;stroke-width:0.708661;stroke-linecap:round;stroke-linejoin:round;stroke:rgb(98.823529%,80.784314%,14.509804%);stroke-opacity:1;stroke-miterlimit:10;" d="M 379.933594 181.636719 C 379.933594 186.378906 372.824219 186.378906 372.824219 181.636719 C 372.824219 176.898438 379.933594 176.898438 379.933594 181.636719 "/>
<path style="fill-rule:nonzero;fill:rgb(98.823529%,80.784314%,14.509804%);fill-opacity:0.4;stroke-width:0.708661;stroke-linecap:round;stroke-linejoin:round;stroke:rgb(98.823529%,80.784314%,14.509804%);stroke-opacity:1;stroke-miterlimit:10;" d="M 329.90625 120.140625 C 329.90625 124.878906 322.796875 124.878906 322.796875 120.140625 C 322.796875 115.398438 329.90625 115.398438 329.90625 120.140625 "/>
<path style="fill-rule:nonzero;fill:rgb(98.823529%,80.784314%,14.509804%);fill-opacity:0.4;stroke-width:0.708661;stroke-linecap:round;stroke-linejoin:round;stroke:rgb(98.823529%,80.784314%,14.509804%);stroke-opacity:1;stroke-miterlimit:10;" d="M 450.382813 137.023438 C 450.382813 141.765625 443.273438 141.765625 443.273438 137.023438 C 443.273438 132.285156 450.382813 132.285156 450.382813 137.023438 "/>
<path style="fill-rule:nonzero;fill:rgb(98.823529%,80.784314%,14.509804%);fill-opacity:0.4;stroke-width:0.708661;stroke-linecap:round;stroke-linejoin:round;stroke:rgb(98.823529%,80.784314%,14.509804%);stroke-opacity:1;stroke-miterlimit:10;" d="M 472.84375 87.53125 C 472.84375 92.269531 465.734375 92.269531 465.734375 87.53125 C 465.734375 82.789063 472.84375 82.789063 472.84375 87.53125 "/>
<path style="fill-rule:nonzero;fill:rgb(98.823529%,80.784314%,14.509804%);fill-opacity:0.4;stroke-width:0.708661;stroke-linecap:round;stroke-linejoin:round;stroke:rgb(98.823529%,80.784314%,14.509804%);stroke-opacity:1;stroke-miterlimit:10;" d="M 405.882813 73.890625 C 405.882813 78.628906 398.773438 78.628906 398.773438 73.890625 C 398.773438 69.148438 405.882813 69.148438 405.882813 73.890625 "/>
<path style="fill-rule:nonzero;fill:rgb(98.823529%,80.784314%,14.509804%);fill-opacity:0.4;stroke-width:0.708661;stroke-linecap:round;stroke-linejoin:round;stroke:rgb(98.823529%,80.784314%,14.509804%);stroke-opacity:1;stroke-miterlimit:10;" d="M 351.292969 186.847656 C 351.292969 191.585938 344.179688 191.585938 344.179688 186.847656 C 344.179688 182.105469 351.292969 182.105469 351.292969 186.847656 "/>
<path style="fill-rule:nonzero;fill:rgb(98.823529%,80.784314%,14.509804%);fill-opacity:0.4;stroke-width:0.708661;stroke-linecap:round;stroke-linejoin:round;stroke:rgb(98.823529%,80.784314%,14.509804%);stroke-opacity:1;stroke-miterlimit:10;" d="M 393.65625 79.695313 C 393.65625 84.4375 386.542969 84.4375 386.542969 79.695313 C 386.542969 74.957031 393.65625 74.957031 393.65625 79.695313 "/>
<path style="fill-rule:nonzero;fill:rgb(98.823529%,80.784314%,14.509804%);fill-opacity:0.4;stroke-width:0.708661;stroke-linecap:round;stroke-linejoin:round;stroke:rgb(98.823529%,80.784314%,14.509804%);stroke-opacity:1;stroke-miterlimit:10;" d="M 482.210938 96.757813 C 482.210938 101.496094 475.101563 101.496094 475.101563 96.757813 C 475.101563 92.015625 482.210938 92.015625 482.210938 96.757813 "/>
<path style="fill-rule:nonzero;fill:rgb(98.823529%,80.784314%,14.509804%);fill-opacity:0.4;stroke-width:0.708661;stroke-linecap:round;stroke-linejoin:round;stroke:rgb(98.823529%,80.784314%,14.509804%);stroke-opacity:1;stroke-miterlimit:10;" d="M 365.566406 159.90625 C 365.566406 164.644531 358.457031 164.644531 358.457031 159.90625 C 358.457031 155.164063 365.566406 155.164063 365.566406 159.90625 "/>
<path style="fill-rule:nonzero;fill:rgb(98.823529%,80.784314%,14.509804%);fill-opacity:0.4;stroke-width:0.708661;stroke-linecap:round;stroke-linejoin:round;stroke:rgb(98.823529%,80.784314%,14.509804%);stroke-opacity:1;stroke-miterlimit:10;" d="M 487.371094 159.246094 C 487.371094 163.984375 480.261719 163.984375 480.261719 159.246094 C 480.261719 154.503906 487.371094 154.503906 487.371094 159.246094 "/>
<path style="fill-rule:nonzero;fill:rgb(98.823529%,80.784314%,14.509804%);fill-opacity:0.4;stroke-width:0.708661;stroke-linecap:round;stroke-linejoin:round;stroke:rgb(98.823529%,80.784314%,14.509804%);stroke-opacity:1;stroke-miterlimit:10;" d="M 435.289063 79.03125 C 435.289063 83.773438 428.179688 83.773438 428.179688 79.03125 C 428.179688 74.292969 435.289063 74.292969 435.289063 79.03125 "/>
<path style="fill-rule:nonzero;fill:rgb(98.823529%,80.784314%,14.509804%);fill-opacity:0.4;stroke-width:0.708661;stroke-linecap:round;stroke-linejoin:round;stroke:rgb(98.823529%,80.784314%,14.509804%);stroke-opacity:1;stroke-miterlimit:10;" d="M 474.355469 101.707031 C 474.355469 106.445313 467.242188 106.445313 467.242188 101.707031 C 467.242188 96.964844 474.355469 96.964844 474.355469 101.707031 "/>
<path style="fill-rule:nonzero;fill:rgb(98.823529%,80.784314%,14.509804%);fill-opacity:0.4;stroke-width:0.708661;stroke-linecap:round;stroke-linejoin:round;stroke:rgb(98.823529%,80.784314%,14.509804%);stroke-opacity:1;stroke-miterlimit:10;" d="M 331.714844 112.980469 C 331.714844 117.71875 324.605469 117.71875 324.605469 112.980469 C 324.605469 108.238281 331.714844 108.238281 331.714844 112.980469 "/>
<path style="fill-rule:nonzero;fill:rgb(98.823529%,80.784314%,14.509804%);fill-opacity:0.4;stroke-width:0.708661;stroke-linecap:round;stroke-linejoin:round;stroke:rgb(98.823529%,80.784314%,14.509804%);stroke-opacity:1;stroke-miterlimit:10;" d="M 422.039063 77.621094 C 422.039063 82.359375 414.925781 82.359375 414.925781 77.621094 C 414.925781 72.878906 422.039063 72.878906 422.039063 77.621094 "/>
<path style="fill-rule:nonzero;fill:rgb(98.823529%,80.784314%,14.509804%);fill-opacity:0.4;stroke-width:0.708661;stroke-linecap:round;stroke-linejoin:round;stroke:rgb(98.823529%,80.784314%,14.509804%);stroke-opacity:1;stroke-miterlimit:10;" d="M 494.492188 34.851563 C 494.492188 39.59375 487.382813 39.59375 487.382813 34.851563 C 487.382813 30.113281 494.492188 30.113281 494.492188 34.851563 "/>
<path style="fill-rule:nonzero;fill:rgb(98.823529%,80.784314%,14.509804%);fill-opacity:0.4;stroke-width:0.708661;stroke-linecap:round;stroke-linejoin:round;stroke:rgb(98.823529%,80.784314%,14.509804%);stroke-opacity:1;stroke-miterlimit:10;" d="M 321.632813 125.449219 C 321.632813 130.1875 314.519531 130.1875 314.519531 125.449219 C 314.519531 120.707031 321.632813 120.707031 321.632813 125.449219 "/>
<path style="fill-rule:nonzero;fill:rgb(98.823529%,80.784314%,14.509804%);fill-opacity:0.4;stroke-width:0.708661;stroke-linecap:round;stroke-linejoin:round;stroke:rgb(98.823529%,80.784314%,14.509804%);stroke-opacity:1;stroke-miterlimit:10;" d="M 361.941406 133.96875 C 361.941406 138.707031 354.832031 138.707031 354.832031 133.96875 C 354.832031 129.226563 361.941406 129.226563 361.941406 133.96875 "/>
<path style="fill-rule:nonzero;fill:rgb(98.823529%,80.784314%,14.509804%);fill-opacity:0.4;stroke-width:0.708661;stroke-linecap:round;stroke-linejoin:round;stroke:rgb(98.823529%,80.784314%,14.509804%);stroke-opacity:1;stroke-miterlimit:10;" d="M 469.460938 49.109375 C 469.460938 53.847656 462.347656 53.847656 462.347656 49.109375 C 462.347656 44.367188 469.460938 44.367188 469.460938 49.109375 "/>
<path style="fill-rule:nonzero;fill:rgb(98.823529%,80.784314%,14.509804%);fill-opacity:0.4;stroke-width:0.708661;stroke-linecap:round;stroke-linejoin:round;stroke:rgb(98.823529%,80.784314%,14.509804%);stroke-opacity:1;stroke-miterlimit:10;" d="M 451.847656 130.226563 C 451.847656 134.96875 444.738281 134.96875 444.738281 130.226563 C 444.738281 125.488281 451.847656 125.488281 451.847656 130.226563 "/>
<path style="fill-rule:nonzero;fill:rgb(98.823529%,80.784314%,14.509804%);fill-opacity:0.4;stroke-width:0.708661;stroke-linecap:round;stroke-linejoin:round;stroke:rgb(98.823529%,80.784314%,14.509804%);stroke-opacity:1;stroke-miterlimit:10;" d="M 461.851563 137.464844 C 461.851563 142.203125 454.742188 142.203125 454.742188 137.464844 C 454.742188 132.722656 461.851563 132.722656 461.851563 137.464844 "/>
<path style="fill-rule:nonzero;fill:rgb(98.823529%,80.784314%,14.509804%);fill-opacity:0.4;stroke-width:0.708661;stroke-linecap:round;stroke-linejoin:round;stroke:rgb(98.823529%,80.784314%,14.509804%);stroke-opacity:1;stroke-miterlimit:10;" d="M 416.792969 123.882813 C 416.792969 128.621094 409.683594 128.621094 409.683594 123.882813 C 409.683594 119.140625 416.792969 119.140625 416.792969 123.882813 "/>
<path style="fill-rule:nonzero;fill:rgb(98.823529%,80.784314%,14.509804%);fill-opacity:0.4;stroke-width:0.708661;stroke-linecap:round;stroke-linejoin:round;stroke:rgb(98.823529%,80.784314%,14.509804%);stroke-opacity:1;stroke-miterlimit:10;" d="M 394.242188 27.4375 C 394.242188 32.179688 387.132813 32.179688 387.132813 27.4375 C 387.132813 22.699219 394.242188 22.699219 394.242188 27.4375 "/>
<path style="fill-rule:nonzero;fill:rgb(98.823529%,80.784314%,14.509804%);fill-opacity:0.4;stroke-width:0.708661;stroke-linecap:round;stroke-linejoin:round;stroke:rgb(98.823529%,80.784314%,14.509804%);stroke-opacity:1;stroke-miterlimit:10;" d="M 452.40625 128.097656 C 452.40625 132.835938 445.296875 132.835938 445.296875 128.097656 C 445.296875 123.355469 452.40625 123.355469 452.40625 128.097656 "/>
<path style="fill-rule:nonzero;fill:rgb(98.823529%,80.784314%,14.509804%);fill-opacity:0.4;stroke-width:0.708661;stroke-linecap:round;stroke-linejoin:round;stroke:rgb(98.823529%,80.784314%,14.509804%);stroke-opacity:1;stroke-miterlimit:10;" d="M 473.304688 82.636719 C 473.304688 87.378906 466.191406 87.378906 466.191406 82.636719 C 466.191406 77.898438 473.304688 77.898438 473.304688 82.636719 "/>
<path style="fill-rule:nonzero;fill:rgb(98.823529%,80.784314%,14.509804%);fill-opacity:0.4;stroke-width:0.708661;stroke-linecap:round;stroke-linejoin:round;stroke:rgb(98.823529%,80.784314%,14.509804%);stroke-opacity:1;stroke-miterlimit:10;" d="M 337.207031 159.039063 C 337.207031 163.78125 330.097656 163.78125 330.097656 159.039063 C 330.097656 154.300781 337.207031 154.300781 337.207031 159.039063 "/>
<path style="fill-rule:nonzero;fill:rgb(98.823529%,80.784314%,14.509804%);fill-opacity:0.4;stroke-width:0.708661;stroke-linecap:round;stroke-linejoin:round;stroke:rgb(98.823529%,80.784314%,14.509804%);stroke-opacity:1;stroke-miterlimit:10;" d="M 357.199219 155.535156 C 357.199219 160.277344 350.085938 160.277344 350.085938 155.535156 C 350.085938 150.796875 357.199219 150.796875 357.199219 155.535156 "/>
<path style="fill-rule:nonzero;fill:rgb(33.72549%,0.392157%,64.313725%);fill-opacity:0.4;stroke-width:0.708661;stroke-linecap:round;stroke-linejoin:round;stroke:rgb(33.72549%,0.392157%,64.313725%);stroke-opacity:1;stroke-miterlimit:10;" d="M 140.625 197.140625 C 140.625 201.882813 133.515625 201.882813 133.515625 197.140625 C 133.515625 192.402344 140.625 192.402344 140.625 197.140625 "/>
<path style="fill-rule:nonzero;fill:rgb(33.72549%,0.392157%,64.313725%);fill-opacity:0.4;stroke-width:0.708661;stroke-linecap:round;stroke-linejoin:round;stroke:rgb(33.72549%,0.392157%,64.313725%);stroke-opacity:1;stroke-miterlimit:10;" d="M 114.101563 144.464844 C 114.101563 149.207031 106.988281 149.207031 106.988281 144.464844 C 106.988281 139.726563 114.101563 139.726563 114.101563 144.464844 "/>
<path style="fill-rule:nonzero;fill:rgb(33.72549%,0.392157%,64.313725%);fill-opacity:0.4;stroke-width:0.708661;stroke-linecap:round;stroke-linejoin:round;stroke:rgb(33.72549%,0.392157%,64.313725%);stroke-opacity:1;stroke-miterlimit:10;" d="M 121.546875 204.921875 C 121.546875 209.664063 114.4375 209.664063 114.4375 204.921875 C 114.4375 200.183594 121.546875 200.183594 121.546875 204.921875 "/>
<path style="fill-rule:nonzero;fill:rgb(33.72549%,0.392157%,64.313725%);fill-opacity:0.4;stroke-width:0.708661;stroke-linecap:round;stroke-linejoin:round;stroke:rgb(33.72549%,0.392157%,64.313725%);stroke-opacity:1;stroke-miterlimit:10;" d="M 129.429688 159.417969 C 129.429688 164.160156 122.320313 164.160156 122.320313 159.417969 C 122.320313 154.679688 129.429688 154.679688 129.429688 159.417969 "/>
<path style="fill-rule:nonzero;fill:rgb(33.72549%,0.392157%,64.313725%);fill-opacity:0.4;stroke-width:0.708661;stroke-linecap:round;stroke-linejoin:round;stroke:rgb(33.72549%,0.392157%,64.313725%);stroke-opacity:1;stroke-miterlimit:10;" d="M 193.089844 226.246094 C 193.089844 230.988281 185.980469 230.988281 185.980469 226.246094 C 185.980469 221.507813 193.089844 221.507813 193.089844 226.246094 "/>
<path style="fill-rule:nonzero;fill:rgb(33.72549%,0.392157%,64.313725%);fill-opacity:0.4;stroke-width:0.708661;stroke-linecap:round;stroke-linejoin:round;stroke:rgb(33.72549%,0.392157%,64.313725%);stroke-opacity:1;stroke-miterlimit:10;" d="M 125.105469 202.007813 C 125.105469 206.75 117.996094 206.75 117.996094 202.007813 C 117.996094 197.269531 125.105469 197.269531 125.105469 202.007813 "/>
<path style="fill-rule:nonzero;fill:rgb(33.72549%,0.392157%,64.313725%);fill-opacity:0.4;stroke-width:0.708661;stroke-linecap:round;stroke-linejoin:round;stroke:rgb(33.72549%,0.392157%,64.313725%);stroke-opacity:1;stroke-miterlimit:10;" d="M 98.972656 219.050781 C 98.972656 223.789063 91.863281 223.789063 91.863281 219.050781 C 91.863281 214.308594 98.972656 214.308594 98.972656 219.050781 "/>
<path style="fill-rule:nonzero;fill:rgb(33.72549%,0.392157%,64.313725%);fill-opacity:0.4;stroke-width:0.708661;stroke-linecap:round;stroke-linejoin:round;stroke:rgb(33.72549%,0.392157%,64.313725%);stroke-opacity:1;stroke-miterlimit:10;" d="M 120.382813 201.753906 C 120.382813 206.496094 113.273438 206.496094 113.273438 201.753906 C 113.273438 197.015625 120.382813 197.015625 120.382813 201.753906 "/>
<path style="fill-rule:nonzero;fill:rgb(33.72549%,0.392157%,64.313725%);fill-opacity:0.4;stroke-width:0.708661;stroke-linecap:round;stroke-linejoin:round;stroke:rgb(33.72549%,0.392157%,64.313725%);stroke-opacity:1;stroke-miterlimit:10;" d="M 194.347656 135.175781 C 194.347656 139.917969 187.238281 139.917969 187.238281 135.175781 C 187.238281 130.433594 194.347656 130.433594 194.347656 135.175781 "/>
<path style="fill-rule:nonzero;fill:rgb(33.72549%,0.392157%,64.313725%);fill-opacity:0.4;stroke-width:0.708661;stroke-linecap:round;stroke-linejoin:round;stroke:rgb(33.72549%,0.392157%,64.313725%);stroke-opacity:1;stroke-miterlimit:10;" d="M 116.660156 193.558594 C 116.660156 198.300781 109.550781 198.300781 109.550781 193.558594 C 109.550781 188.820313 116.660156 188.820313 116.660156 193.558594 "/>
<path style="fill-rule:nonzero;fill:rgb(33.72549%,0.392157%,64.313725%);fill-opacity:0.4;stroke-width:0.708661;stroke-linecap:round;stroke-linejoin:round;stroke:rgb(33.72549%,0.392157%,64.313725%);stroke-opacity:1;stroke-miterlimit:10;" d="M 167.414063 175.632813 C 167.414063 180.375 160.304688 180.375 160.304688 175.632813 C 160.304688 170.894531 167.414063 170.894531 167.414063 175.632813 "/>
<path style="fill-rule:nonzero;fill:rgb(33.72549%,0.392157%,64.313725%);fill-opacity:0.4;stroke-width:0.708661;stroke-linecap:round;stroke-linejoin:round;stroke:rgb(33.72549%,0.392157%,64.313725%);stroke-opacity:1;stroke-miterlimit:10;" d="M 204.3125 166.695313 C 204.3125 171.4375 197.199219 171.4375 197.199219 166.695313 C 197.199219 161.957031 204.3125 161.957031 204.3125 166.695313 "/>
<path style="fill-rule:nonzero;fill:rgb(33.72549%,0.392157%,64.313725%);fill-opacity:0.4;stroke-width:0.708661;stroke-linecap:round;stroke-linejoin:round;stroke:rgb(33.72549%,0.392157%,64.313725%);stroke-opacity:1;stroke-miterlimit:10;" d="M 267.371094 185.40625 C 267.371094 190.148438 260.261719 190.148438 260.261719 185.40625 C 260.261719 180.667969 267.371094 180.667969 267.371094 185.40625 "/>
<path style="fill-rule:nonzero;fill:rgb(33.72549%,0.392157%,64.313725%);fill-opacity:0.4;stroke-width:0.708661;stroke-linecap:round;stroke-linejoin:round;stroke:rgb(33.72549%,0.392157%,64.313725%);stroke-opacity:1;stroke-miterlimit:10;" d="M 210.203125 222.414063 C 210.203125 227.152344 203.09375 227.152344 203.09375 222.414063 C 203.09375 217.671875 210.203125 217.671875 210.203125 222.414063 "/>
<path style="fill-rule:nonzero;fill:rgb(33.72549%,0.392157%,64.313725%);fill-opacity:0.4;stroke-width:0.708661;stroke-linecap:round;stroke-linejoin:round;stroke:rgb(33.72549%,0.392157%,64.313725%);stroke-opacity:1;stroke-miterlimit:10;" d="M 163.683594 193.214844 C 163.683594 197.957031 156.574219 197.957031 156.574219 193.214844 C 156.574219 188.476563 163.683594 188.476563 163.683594 193.214844 "/>
<path style="fill-rule:nonzero;fill:rgb(33.72549%,0.392157%,64.313725%);fill-opacity:0.4;stroke-width:0.708661;stroke-linecap:round;stroke-linejoin:round;stroke:rgb(33.72549%,0.392157%,64.313725%);stroke-opacity:1;stroke-miterlimit:10;" d="M 146.105469 180.691406 C 146.105469 185.429688 138.996094 185.429688 138.996094 180.691406 C 138.996094 175.949219 146.105469 175.949219 146.105469 180.691406 "/>
<path style="fill-rule:nonzero;fill:rgb(33.72549%,0.392157%,64.313725%);fill-opacity:0.4;stroke-width:0.708661;stroke-linecap:round;stroke-linejoin:round;stroke:rgb(33.72549%,0.392157%,64.313725%);stroke-opacity:1;stroke-miterlimit:10;" d="M 165.8125 147.429688 C 165.8125 152.167969 158.703125 152.167969 158.703125 147.429688 C 158.703125 142.6875 165.8125 142.6875 165.8125 147.429688 "/>
<path style="fill-rule:nonzero;fill:rgb(33.72549%,0.392157%,64.313725%);fill-opacity:0.4;stroke-width:0.708661;stroke-linecap:round;stroke-linejoin:round;stroke:rgb(33.72549%,0.392157%,64.313725%);stroke-opacity:1;stroke-miterlimit:10;" d="M 163.738281 190.667969 C 163.738281 195.410156 156.625 195.410156 156.625 190.667969 C 156.625 185.929688 163.738281 185.929688 163.738281 190.667969 "/>
<path style="fill-rule:nonzero;fill:rgb(33.72549%,0.392157%,64.313725%);fill-opacity:0.4;stroke-width:0.708661;stroke-linecap:round;stroke-linejoin:round;stroke:rgb(33.72549%,0.392157%,64.313725%);stroke-opacity:1;stroke-miterlimit:10;" d="M 123.4375 198.996094 C 123.4375 203.738281 116.328125 203.738281 116.328125 198.996094 C 116.328125 194.253906 123.4375 194.253906 123.4375 198.996094 "/>
<path style="fill-rule:nonzero;fill:rgb(33.72549%,0.392157%,64.313725%);fill-opacity:0.4;stroke-width:0.708661;stroke-linecap:round;stroke-linejoin:round;stroke:rgb(33.72549%,0.392157%,64.313725%);stroke-opacity:1;stroke-miterlimit:10;" d="M 213.816406 119.285156 C 213.816406 124.027344 206.707031 124.027344 206.707031 119.285156 C 206.707031 114.542969 213.816406 114.542969 213.816406 119.285156 "/>
<path style="fill-rule:nonzero;fill:rgb(33.72549%,0.392157%,64.313725%);fill-opacity:0.4;stroke-width:0.708661;stroke-linecap:round;stroke-linejoin:round;stroke:rgb(33.72549%,0.392157%,64.313725%);stroke-opacity:1;stroke-miterlimit:10;" d="M 157.0625 209.234375 C 157.0625 213.976563 149.953125 213.976563 149.953125 209.234375 C 149.953125 204.496094 157.0625 204.496094 157.0625 209.234375 "/>
<path style="fill-rule:nonzero;fill:rgb(33.72549%,0.392157%,64.313725%);fill-opacity:0.4;stroke-width:0.708661;stroke-linecap:round;stroke-linejoin:round;stroke:rgb(33.72549%,0.392157%,64.313725%);stroke-opacity:1;stroke-miterlimit:10;" d="M 140.0625 171.746094 C 140.0625 176.488281 132.949219 176.488281 132.949219 171.746094 C 132.949219 167.003906 140.0625 167.003906 140.0625 171.746094 "/>
<path style="fill-rule:nonzero;fill:rgb(33.72549%,0.392157%,64.313725%);fill-opacity:0.4;stroke-width:0.708661;stroke-linecap:round;stroke-linejoin:round;stroke:rgb(33.72549%,0.392157%,64.313725%);stroke-opacity:1;stroke-miterlimit:10;" d="M 189.316406 197.445313 C 189.316406 202.183594 182.207031 202.183594 182.207031 197.445313 C 182.207031 192.703125 189.316406 192.703125 189.316406 197.445313 "/>
<path style="fill-rule:nonzero;fill:rgb(33.72549%,0.392157%,64.313725%);fill-opacity:0.4;stroke-width:0.708661;stroke-linecap:round;stroke-linejoin:round;stroke:rgb(33.72549%,0.392157%,64.313725%);stroke-opacity:1;stroke-miterlimit:10;" d="M 268.664063 150.519531 C 268.664063 155.261719 261.554688 155.261719 261.554688 150.519531 C 261.554688 145.78125 268.664063 145.78125 268.664063 150.519531 "/>
<path style="fill-rule:nonzero;fill:rgb(33.72549%,0.392157%,64.313725%);fill-opacity:0.4;stroke-width:0.708661;stroke-linecap:round;stroke-linejoin:round;stroke:rgb(33.72549%,0.392157%,64.313725%);stroke-opacity:1;stroke-miterlimit:10;" d="M 207.261719 226.8125 C 207.261719 231.554688 200.152344 231.554688 200.152344 226.8125 C 200.152344 222.074219 207.261719 222.074219 207.261719 226.8125 "/>
<path style="fill-rule:nonzero;fill:rgb(33.72549%,0.392157%,64.313725%);fill-opacity:0.4;stroke-width:0.708661;stroke-linecap:round;stroke-linejoin:round;stroke:rgb(33.72549%,0.392157%,64.313725%);stroke-opacity:1;stroke-miterlimit:10;" d="M 199.804688 193.492188 C 199.804688 198.234375 192.691406 198.234375 192.691406 193.492188 C 192.691406 188.753906 199.804688 188.753906 199.804688 193.492188 "/>
<path style="fill-rule:nonzero;fill:rgb(33.72549%,0.392157%,64.313725%);fill-opacity:0.4;stroke-width:0.708661;stroke-linecap:round;stroke-linejoin:round;stroke:rgb(33.72549%,0.392157%,64.313725%);stroke-opacity:1;stroke-miterlimit:10;" d="M 246.464844 177.636719 C 246.464844 182.375 239.355469 182.375 239.355469 177.636719 C 239.355469 172.894531 246.464844 172.894531 246.464844 177.636719 "/>
<path style="fill-rule:nonzero;fill:rgb(33.72549%,0.392157%,64.313725%);fill-opacity:0.4;stroke-width:0.708661;stroke-linecap:round;stroke-linejoin:round;stroke:rgb(33.72549%,0.392157%,64.313725%);stroke-opacity:1;stroke-miterlimit:10;" d="M 229.996094 137.042969 C 229.996094 141.78125 222.886719 141.78125 222.886719 137.042969 C 222.886719 132.300781 229.996094 132.300781 229.996094 137.042969 "/>
<path style="fill-rule:nonzero;fill:rgb(33.72549%,0.392157%,64.313725%);fill-opacity:0.4;stroke-width:0.708661;stroke-linecap:round;stroke-linejoin:round;stroke:rgb(33.72549%,0.392157%,64.313725%);stroke-opacity:1;stroke-miterlimit:10;" d="M 241.914063 184.789063 C 241.914063 189.527344 234.804688 189.527344 234.804688 184.789063 C 234.804688 180.046875 241.914063 180.046875 241.914063 184.789063 "/>
<path style="fill-rule:nonzero;fill:rgb(33.72549%,0.392157%,64.313725%);fill-opacity:0.4;stroke-width:0.708661;stroke-linecap:round;stroke-linejoin:round;stroke:rgb(33.72549%,0.392157%,64.313725%);stroke-opacity:1;stroke-miterlimit:10;" d="M 92.542969 183.949219 C 92.542969 188.6875 85.429688 188.6875 85.429688 183.949219 C 85.429688 179.207031 92.542969 179.207031 92.542969 183.949219 "/>
<path style="fill-rule:nonzero;fill:rgb(33.72549%,0.392157%,64.313725%);fill-opacity:0.4;stroke-width:0.708661;stroke-linecap:round;stroke-linejoin:round;stroke:rgb(33.72549%,0.392157%,64.313725%);stroke-opacity:1;stroke-miterlimit:10;" d="M 166.574219 195.65625 C 166.574219 200.394531 159.464844 200.394531 159.464844 195.65625 C 159.464844 190.914063 166.574219 190.914063 166.574219 195.65625 "/>
<path style="fill-rule:nonzero;fill:rgb(33.72549%,0.392157%,64.313725%);fill-opacity:0.4;stroke-width:0.708661;stroke-linecap:round;stroke-linejoin:round;stroke:rgb(33.72549%,0.392157%,64.313725%);stroke-opacity:1;stroke-miterlimit:10;" d="M 194.714844 205.511719 C 194.714844 210.253906 187.605469 210.253906 187.605469 205.511719 C 187.605469 200.773438 194.714844 200.773438 194.714844 205.511719 "/>
<path style="fill-rule:nonzero;fill:rgb(33.72549%,0.392157%,64.313725%);fill-opacity:0.4;stroke-width:0.708661;stroke-linecap:round;stroke-linejoin:round;stroke:rgb(33.72549%,0.392157%,64.313725%);stroke-opacity:1;stroke-miterlimit:10;" d="M 259.15625 142.882813 C 259.15625 147.625 252.042969 147.625 252.042969 142.882813 C 252.042969 138.144531 259.15625 138.144531 259.15625 142.882813 "/>
<path style="fill-rule:nonzero;fill:rgb(33.72549%,0.392157%,64.313725%);fill-opacity:0.4;stroke-width:0.708661;stroke-linecap:round;stroke-linejoin:round;stroke:rgb(33.72549%,0.392157%,64.313725%);stroke-opacity:1;stroke-miterlimit:10;" d="M 271.847656 179.460938 C 271.847656 184.203125 264.738281 184.203125 264.738281 179.460938 C 264.738281 174.722656 271.847656 174.722656 271.847656 179.460938 "/>
<path style="fill-rule:nonzero;fill:rgb(33.72549%,0.392157%,64.313725%);fill-opacity:0.4;stroke-width:0.708661;stroke-linecap:round;stroke-linejoin:round;stroke:rgb(33.72549%,0.392157%,64.313725%);stroke-opacity:1;stroke-miterlimit:10;" d="M 81.738281 150.386719 C 81.738281 155.128906 74.625 155.128906 74.625 150.386719 C 74.625 145.644531 81.738281 145.644531 81.738281 150.386719 "/>
<path style="fill-rule:nonzero;fill:rgb(33.72549%,0.392157%,64.313725%);fill-opacity:0.4;stroke-width:0.708661;stroke-linecap:round;stroke-linejoin:round;stroke:rgb(33.72549%,0.392157%,64.313725%);stroke-opacity:1;stroke-miterlimit:10;" d="M 190.398438 162.679688 C 190.398438 167.417969 183.285156 167.417969 183.285156 162.679688 C 183.285156 157.9375 190.398438 157.9375 190.398438 162.679688 "/>
<path style="fill-rule:nonzero;fill:rgb(33.72549%,0.392157%,64.313725%);fill-opacity:0.4;stroke-width:0.708661;stroke-linecap:round;stroke-linejoin:round;stroke:rgb(33.72549%,0.392157%,64.313725%);stroke-opacity:1;stroke-miterlimit:10;" d="M 221.652344 177.449219 C 221.652344 182.1875 214.542969 182.1875 214.542969 177.449219 C 214.542969 172.707031 221.652344 172.707031 221.652344 177.449219 "/>
<path style="fill-rule:nonzero;fill:rgb(33.72549%,0.392157%,64.313725%);fill-opacity:0.4;stroke-width:0.708661;stroke-linecap:round;stroke-linejoin:round;stroke:rgb(33.72549%,0.392157%,64.313725%);stroke-opacity:1;stroke-miterlimit:10;" d="M 124.171875 173.34375 C 124.171875 178.085938 117.0625 178.085938 117.0625 173.34375 C 117.0625 168.601563 124.171875 168.601563 124.171875 173.34375 "/>
<path style="fill-rule:nonzero;fill:rgb(33.72549%,0.392157%,64.313725%);fill-opacity:0.4;stroke-width:0.708661;stroke-linecap:round;stroke-linejoin:round;stroke:rgb(33.72549%,0.392157%,64.313725%);stroke-opacity:1;stroke-miterlimit:10;" d="M 134.632813 188.285156 C 134.632813 193.027344 127.519531 193.027344 127.519531 188.285156 C 127.519531 183.546875 134.632813 183.546875 134.632813 188.285156 "/>
<path style="fill-rule:nonzero;fill:rgb(33.72549%,0.392157%,64.313725%);fill-opacity:0.4;stroke-width:0.708661;stroke-linecap:round;stroke-linejoin:round;stroke:rgb(33.72549%,0.392157%,64.313725%);stroke-opacity:1;stroke-miterlimit:10;" d="M 221.683594 157 C 221.683594 161.742188 214.574219 161.742188 214.574219 157 C 214.574219 152.261719 221.683594 152.261719 221.683594 157 "/>
<path style="fill-rule:nonzero;fill:rgb(33.72549%,0.392157%,64.313725%);fill-opacity:0.4;stroke-width:0.708661;stroke-linecap:round;stroke-linejoin:round;stroke:rgb(33.72549%,0.392157%,64.313725%);stroke-opacity:1;stroke-miterlimit:10;" d="M 256.585938 180.273438 C 256.585938 185.011719 249.476563 185.011719 249.476563 180.273438 C 249.476563 175.53125 256.585938 175.53125 256.585938 180.273438 "/>
<path style="fill-rule:nonzero;fill:rgb(33.72549%,0.392157%,64.313725%);fill-opacity:0.4;stroke-width:0.708661;stroke-linecap:round;stroke-linejoin:round;stroke:rgb(33.72549%,0.392157%,64.313725%);stroke-opacity:1;stroke-miterlimit:10;" d="M 116.339844 261.945313 C 116.339844 266.683594 109.230469 266.683594 109.230469 261.945313 C 109.230469 257.203125 116.339844 257.203125 116.339844 261.945313 "/>
<path style="fill-rule:nonzero;fill:rgb(33.72549%,0.392157%,64.313725%);fill-opacity:0.4;stroke-width:0.708661;stroke-linecap:round;stroke-linejoin:round;stroke:rgb(33.72549%,0.392157%,64.313725%);stroke-opacity:1;stroke-miterlimit:10;" d="M 146.179688 179.71875 C 146.179688 184.460938 139.070313 184.460938 139.070313 179.71875 C 139.070313 174.980469 146.179688 174.980469 146.179688 179.71875 "/>
<path style="fill-rule:nonzero;fill:rgb(33.72549%,0.392157%,64.313725%);fill-opacity:0.4;stroke-width:0.708661;stroke-linecap:round;stroke-linejoin:round;stroke:rgb(33.72549%,0.392157%,64.313725%);stroke-opacity:1;stroke-miterlimit:10;" d="M 164.316406 159.738281 C 164.316406 164.476563 157.207031 164.476563 157.207031 159.738281 C 157.207031 154.996094 164.316406 154.996094 164.316406 159.738281 "/>
<path style="fill-rule:nonzero;fill:rgb(33.72549%,0.392157%,64.313725%);fill-opacity:0.4;stroke-width:0.708661;stroke-linecap:round;stroke-linejoin:round;stroke:rgb(33.72549%,0.392157%,64.313725%);stroke-opacity:1;stroke-miterlimit:10;" d="M 256.480469 199.601563 C 256.480469 204.339844 249.367188 204.339844 249.367188 199.601563 C 249.367188 194.859375 256.480469 194.859375 256.480469 199.601563 "/>
<path style="fill-rule:nonzero;fill:rgb(33.72549%,0.392157%,64.313725%);fill-opacity:0.4;stroke-width:0.708661;stroke-linecap:round;stroke-linejoin:round;stroke:rgb(33.72549%,0.392157%,64.313725%);stroke-opacity:1;stroke-miterlimit:10;" d="M 152.476563 221.449219 C 152.476563 226.191406 145.367188 226.191406 145.367188 221.449219 C 145.367188 216.710938 152.476563 216.710938 152.476563 221.449219 "/>
<path style="fill-rule:nonzero;fill:rgb(33.72549%,0.392157%,64.313725%);fill-opacity:0.4;stroke-width:0.708661;stroke-linecap:round;stroke-linejoin:round;stroke:rgb(33.72549%,0.392157%,64.313725%);stroke-opacity:1;stroke-miterlimit:10;" d="M 178.230469 194.363281 C 178.230469 199.105469 171.121094 199.105469 171.121094 194.363281 C 171.121094 189.625 178.230469 189.625 178.230469 194.363281 "/>
<path style="fill-rule:nonzero;fill:rgb(33.72549%,0.392157%,64.313725%);fill-opacity:0.4;stroke-width:0.708661;stroke-linecap:round;stroke-linejoin:round;stroke:rgb(33.72549%,0.392157%,64.313725%);stroke-opacity:1;stroke-miterlimit:10;" d="M 99.328125 210.222656 C 99.328125 214.964844 92.214844 214.964844 92.214844 210.222656 C 92.214844 205.484375 99.328125 205.484375 99.328125 210.222656 "/>
<path style="fill-rule:nonzero;fill:rgb(33.72549%,0.392157%,64.313725%);fill-opacity:0.4;stroke-width:0.708661;stroke-linecap:round;stroke-linejoin:round;stroke:rgb(33.72549%,0.392157%,64.313725%);stroke-opacity:1;stroke-miterlimit:10;" d="M 80.195313 181.9375 C 80.195313 186.675781 73.085938 186.675781 73.085938 181.9375 C 73.085938 177.195313 80.195313 177.195313 80.195313 181.9375 "/>
<path style="fill-rule:nonzero;fill:rgb(33.72549%,0.392157%,64.313725%);fill-opacity:0.4;stroke-width:0.708661;stroke-linecap:round;stroke-linejoin:round;stroke:rgb(33.72549%,0.392157%,64.313725%);stroke-opacity:1;stroke-miterlimit:10;" d="M 229.398438 166.550781 C 229.398438 171.292969 222.289063 171.292969 222.289063 166.550781 C 222.289063 161.8125 229.398438 161.8125 229.398438 166.550781 "/>
<path style="fill:none;stroke-width:1.115477;stroke-linecap:butt;stroke-linejoin:round;stroke:rgb(66.27451%,66.27451%,66.27451%);stroke-opacity:1;stroke-miterlimit:10;" d="M 55.925781 273.742188 L 55.925781 14.171875 "/>
<path style="fill:none;stroke-width:1.115477;stroke-linecap:butt;stroke-linejoin:round;stroke:rgb(66.27451%,66.27451%,66.27451%);stroke-opacity:1;stroke-miterlimit:10;" d="M 55.925781 273.742188 L 511.652344 273.742188 "/>
<path style=" stroke:none;fill-rule:evenodd;fill:rgb(0%,0%,0%);fill-opacity:1;" d="M 508.214844 285.160156 L 511.582031 291.855469 L 509.78125 291.855469 L 507.207031 286.292969 L 504.667969 291.855469 L 502.941406 291.855469 L 506.21875 285.230469 L 503.230469 279.472656 L 505.03125 279.472656 L 507.242188 284.167969 L 509.476563 279.472656 L 511.203125 279.472656 Z M 508.214844 285.160156 "/>
<path style=" stroke:none;fill-rule:evenodd;fill:rgb(0%,0%,0%);fill-opacity:1;" d="M 34.015625 65.078125 L 46.398438 65.078125 L 46.398438 66.75 L 34.015625 66.75 Z M 34.015625 65.078125 "/>
<path style=" stroke:none;fill-rule:evenodd;fill:rgb(0%,0%,0%);fill-opacity:1;" d="M 36.699219 57.878906 L 36.707031 57.65625 L 36.726563 57.445313 L 36.765625 57.242188 L 36.820313 57.050781 L 36.886719 56.871094 L 36.96875 56.699219 L 37.066406 56.535156 L 37.179688 56.386719 L 37.308594 56.246094 L 37.453125 56.113281 L 37.605469 55.988281 L 37.773438 55.878906 L 37.949219 55.78125 L 38.136719 55.699219 L 38.335938 55.628906 L 38.546875 55.570313 L 38.769531 55.523438 L 39.003906 55.492188 L 39.25 55.472656 L 39.503906 55.464844 L 46.398438 55.464844 L 46.398438 57.085938 L 39.703125 57.085938 L 39.523438 57.089844 L 39.359375 57.097656 L 39.199219 57.113281 L 39.054688 57.132813 L 38.917969 57.160156 L 38.789063 57.195313 L 38.675781 57.234375 L 38.570313 57.28125 L 38.472656 57.332031 L 38.390625 57.390625 L 38.3125 57.457031 L 38.242188 57.527344 L 38.179688 57.605469 L 38.125 57.6875 L 38.078125 57.777344 L 38.042969 57.875 L 38.011719 57.976563 L 37.992188 58.089844 L 37.980469 58.203125 L 37.976563 58.328125 L 37.992188 58.5625 L 38.042969 58.792969 L 38.128906 59.019531 L 38.246094 59.242188 L 38.398438 59.460938 L 38.585938 59.675781 L 38.804688 59.882813 L 39.058594 60.089844 L 39.347656 60.289063 L 39.667969 60.488281 L 46.398438 60.488281 L 46.398438 62.105469 L 36.933594 62.105469 L 36.933594 60.703125 L 38.335938 60.578125 L 38.023438 60.351563 L 37.746094 60.117188 L 37.5 59.875 L 37.289063 59.617188 L 37.105469 59.351563 L 36.960938 59.078125 L 36.84375 58.792969 L 36.761719 58.496094 L 36.714844 58.191406 Z M 36.699219 57.878906 "/>
<path style=" stroke:none;fill-rule:evenodd;fill:rgb(0%,0%,0%);fill-opacity:1;" d="M 36.699219 49.328125 L 36.699219 49.175781 L 36.707031 49.03125 L 36.71875 48.886719 L 36.738281 48.742188 L 36.761719 48.601563 L 36.789063 48.464844 L 36.820313 48.332031 L 36.859375 48.199219 L 36.902344 48.070313 L 36.949219 47.941406 L 37.003906 47.816406 L 37.0625 47.691406 L 37.125 47.566406 L 37.195313 47.445313 L 37.269531 47.324219 L 37.347656 47.203125 L 37.433594 47.085938 L 37.621094 46.851563 L 37.722656 46.734375 L 38.695313 47.457031 L 38.628906 47.542969 L 38.566406 47.628906 L 38.449219 47.800781 L 38.398438 47.886719 L 38.304688 48.058594 L 38.265625 48.144531 L 38.226563 48.234375 L 38.15625 48.40625 L 38.125 48.496094 L 38.078125 48.675781 L 38.039063 48.863281 L 38.027344 48.960938 L 38.019531 49.054688 L 38.011719 49.15625 L 38.011719 49.253906 L 38.019531 49.464844 L 38.046875 49.660156 L 38.09375 49.851563 L 38.15625 50.03125 L 38.238281 50.199219 L 38.335938 50.359375 L 38.453125 50.511719 L 38.585938 50.65625 L 38.742188 50.789063 L 38.910156 50.910156 L 39.101563 51.019531 L 39.3125 51.117188 L 39.542969 51.203125 L 39.792969 51.28125 L 40.0625 51.34375 L 40.355469 51.394531 L 40.664063 51.433594 L 40.996094 51.464844 L 41.347656 51.480469 L 41.71875 51.488281 L 42.398438 51.464844 L 43.003906 51.398438 L 43.539063 51.285156 L 44 51.128906 L 44.394531 50.929688 L 44.714844 50.683594 L 44.964844 50.394531 L 45.140625 50.058594 L 45.25 49.679688 L 45.285156 49.253906 L 45.277344 49.058594 L 45.269531 48.960938 L 45.257813 48.867188 L 45.242188 48.773438 L 45.226563 48.683594 L 45.203125 48.59375 L 45.179688 48.507813 L 45.152344 48.421875 L 45.121094 48.335938 L 45.085938 48.253906 L 45 48.082031 L 44.953125 47.996094 L 44.902344 47.910156 L 44.847656 47.820313 L 44.730469 47.640625 L 44.667969 47.546875 L 44.601563 47.457031 L 45.589844 46.699219 L 45.789063 46.933594 L 45.964844 47.171875 L 46.121094 47.417969 L 46.257813 47.667969 L 46.371094 47.925781 L 46.464844 48.191406 L 46.539063 48.460938 L 46.59375 48.738281 L 46.625 49.019531 L 46.632813 49.308594 L 46.621094 49.664063 L 46.582031 50.003906 L 46.519531 50.332031 L 46.433594 50.640625 L 46.320313 50.933594 L 46.179688 51.210938 L 46.015625 51.476563 L 45.828125 51.722656 L 45.613281 51.953125 L 45.375 52.171875 L 45.109375 52.367188 L 44.824219 52.539063 L 44.515625 52.695313 L 44.1875 52.828125 L 43.835938 52.941406 L 43.460938 53.03125 L 43.0625 53.105469 L 42.644531 53.15625 L 42.203125 53.1875 L 41.738281 53.195313 L 41.433594 53.191406 L 41.136719 53.179688 L 40.847656 53.15625 L 40.566406 53.121094 L 40.292969 53.082031 L 40.027344 53.027344 L 39.773438 52.96875 L 39.527344 52.898438 L 39.285156 52.816406 L 39.054688 52.730469 L 38.835938 52.628906 L 38.621094 52.519531 L 38.421875 52.402344 L 38.230469 52.28125 L 38.050781 52.148438 L 37.882813 52.011719 L 37.722656 51.863281 L 37.574219 51.710938 L 37.4375 51.546875 L 37.308594 51.378906 L 37.195313 51.199219 L 37.089844 51.015625 L 36.996094 50.824219 L 36.917969 50.628906 L 36.851563 50.425781 L 36.796875 50.21875 L 36.753906 50.003906 L 36.722656 49.785156 L 36.703125 49.558594 Z M 36.699219 49.328125 "/>
<path style=" stroke:none;fill-rule:evenodd;fill:rgb(0%,0%,0%);fill-opacity:1;" d="M 36.699219 41.625 L 36.710938 41.269531 L 36.75 40.929688 L 36.8125 40.605469 L 36.902344 40.296875 L 37.015625 40.007813 L 37.15625 39.734375 L 37.324219 39.476563 L 37.515625 39.234375 L 37.734375 39.007813 L 37.976563 38.796875 L 38.242188 38.605469 L 38.53125 38.433594 L 38.84375 38.28125 L 39.175781 38.152344 L 39.53125 38.042969 L 39.910156 37.949219 L 40.3125 37.878906 L 40.734375 37.828125 L 41.179688 37.800781 L 41.648438 37.789063 L 42.097656 37.800781 L 42.53125 37.832031 L 42.945313 37.882813 L 43.339844 37.953125 L 43.714844 38.046875 L 44.070313 38.160156 L 44.40625 38.292969 L 44.722656 38.445313 L 45.023438 38.621094 L 45.300781 38.816406 L 45.554688 39.027344 L 45.78125 39.257813 L 45.980469 39.5 L 46.152344 39.761719 L 46.300781 40.035156 L 46.421875 40.324219 L 46.515625 40.632813 L 46.582031 40.953125 L 46.621094 41.289063 L 46.632813 41.640625 L 46.621094 41.996094 L 46.582031 42.335938 L 46.515625 42.660156 L 46.421875 42.96875 L 46.304688 43.261719 L 46.160156 43.539063 L 45.988281 43.796875 L 45.792969 44.042969 L 45.570313 44.273438 L 45.320313 44.484375 L 45.046875 44.675781 L 44.753906 44.847656 L 44.4375 45 L 44.105469 45.128906 L 43.75 45.242188 L 43.375 45.332031 L 42.976563 45.402344 L 42.5625 45.453125 L 42.125 45.484375 L 41.664063 45.492188 L 41.203125 45.484375 L 40.765625 45.453125 L 40.347656 45.402344 L 39.949219 45.328125 L 39.574219 45.238281 L 39.21875 45.125 L 38.886719 44.992188 L 38.574219 44.835938 L 38.28125 44.664063 L 38.011719 44.46875 L 37.761719 44.253906 L 37.539063 44.023438 L 37.339844 43.78125 L 37.171875 43.519531 L 37.027344 43.242188 L 36.90625 42.949219 L 36.816406 42.644531 L 36.75 42.320313 L 36.710938 41.980469 Z M 37.992188 41.625 L 38.003906 41.832031 L 38.03125 42.027344 L 38.074219 42.214844 L 38.136719 42.390625 L 38.21875 42.558594 L 38.316406 42.714844 L 38.433594 42.863281 L 38.570313 43 L 38.722656 43.125 L 38.894531 43.242188 L 39.082031 43.347656 L 39.285156 43.445313 L 39.511719 43.527344 L 39.761719 43.601563 L 40.027344 43.660156 L 40.316406 43.710938 L 40.621094 43.75 L 40.949219 43.777344 L 41.296875 43.796875 L 41.664063 43.800781 L 42.367188 43.78125 L 42.996094 43.714844 L 43.546875 43.605469 L 44.027344 43.457031 L 44.433594 43.261719 L 44.765625 43.023438 L 45.023438 42.742188 L 45.207031 42.417969 L 45.320313 42.050781 L 45.355469 41.640625 L 45.320313 41.230469 L 45.207031 40.863281 L 45.023438 40.539063 L 44.761719 40.257813 L 44.429688 40.019531 L 44.019531 39.828125 L 43.539063 39.675781 L 42.984375 39.566406 L 42.351563 39.503906 L 41.648438 39.480469 L 41.28125 39.488281 L 40.933594 39.503906 L 40.605469 39.53125 L 40.296875 39.566406 L 40.007813 39.617188 L 39.742188 39.675781 L 39.496094 39.746094 L 39.269531 39.828125 L 39.0625 39.917969 L 38.875 40.019531 L 38.707031 40.132813 L 38.558594 40.257813 L 38.425781 40.390625 L 38.3125 40.535156 L 38.214844 40.691406 L 38.136719 40.855469 L 38.074219 41.03125 L 38.027344 41.21875 L 38.003906 41.417969 Z M 37.992188 41.625 "/>
<path style=" stroke:none;fill-rule:evenodd;fill:rgb(0%,0%,0%);fill-opacity:1;" d="M 36.699219 26.703125 L 36.707031 26.5 L 36.730469 26.308594 L 36.765625 26.121094 L 36.820313 25.945313 L 36.890625 25.777344 L 36.976563 25.617188 L 37.078125 25.46875 L 37.191406 25.324219 L 37.324219 25.191406 L 37.472656 25.0625 L 37.628906 24.945313 L 37.796875 24.84375 L 37.972656 24.75 L 38.160156 24.671875 L 38.359375 24.605469 L 38.566406 24.550781 L 38.785156 24.507813 L 39.015625 24.476563 L 39.253906 24.457031 L 39.503906 24.453125 L 46.398438 24.453125 L 46.398438 26.054688 L 39.6875 26.054688 L 39.359375 26.0625 L 39.0625 26.097656 L 38.804688 26.152344 L 38.578125 26.230469 L 38.390625 26.332031 L 38.234375 26.453125 L 38.113281 26.601563 L 38.027344 26.765625 L 37.976563 26.957031 L 37.957031 27.167969 L 37.972656 27.382813 L 38.023438 27.59375 L 38.105469 27.800781 L 38.222656 28.003906 L 38.371094 28.203125 L 38.554688 28.402344 L 38.769531 28.59375 L 39.019531 28.78125 L 39.300781 28.96875 L 39.613281 29.148438 L 46.398438 29.148438 L 46.398438 30.75 L 39.6875 30.75 L 39.359375 30.761719 L 39.0625 30.796875 L 38.804688 30.851563 L 38.578125 30.929688 L 38.390625 31.03125 L 38.234375 31.152344 L 38.113281 31.296875 L 38.027344 31.464844 L 37.976563 31.65625 L 37.957031 31.867188 L 37.972656 32.085938 L 38.023438 32.296875 L 38.105469 32.507813 L 38.222656 32.710938 L 38.371094 32.910156 L 38.554688 33.105469 L 38.769531 33.296875 L 39.019531 33.484375 L 39.300781 33.667969 L 39.613281 33.847656 L 46.398438 33.847656 L 46.398438 35.449219 L 36.933594 35.449219 L 36.933594 34.046875 L 38.316406 33.917969 L 38.011719 33.707031 L 37.734375 33.484375 L 37.492188 33.253906 L 37.28125 33.015625 L 37.101563 32.765625 L 36.957031 32.511719 L 36.84375 32.246094 L 36.761719 31.972656 L 36.714844 31.691406 L 36.699219 31.398438 L 36.703125 31.246094 L 36.714844 31.097656 L 36.738281 30.957031 L 36.769531 30.816406 L 36.808594 30.683594 L 36.859375 30.554688 L 36.917969 30.429688 L 36.984375 30.3125 L 37.0625 30.195313 L 37.148438 30.085938 L 37.242188 29.980469 L 37.34375 29.882813 L 37.453125 29.789063 L 37.566406 29.703125 L 37.691406 29.621094 L 37.824219 29.546875 L 37.964844 29.480469 L 38.109375 29.417969 L 38.265625 29.359375 L 38.425781 29.3125 L 38.097656 29.085938 L 37.804688 28.855469 L 37.542969 28.613281 L 37.320313 28.367188 L 37.128906 28.109375 L 36.972656 27.84375 L 36.851563 27.570313 L 36.765625 27.289063 L 36.714844 27 Z M 36.699219 26.703125 "/>
<path style=" stroke:none;fill-rule:evenodd;fill:rgb(0%,0%,0%);fill-opacity:1;" d="M 41.378906 14.964844 L 41.53125 14.964844 L 41.695313 14.972656 L 41.777344 14.972656 L 41.863281 14.976563 L 41.949219 14.984375 L 42.039063 14.988281 L 42.132813 14.996094 L 42.222656 15 L 42.222656 20.507813 L 42.546875 20.488281 L 42.847656 20.460938 L 43.132813 20.417969 L 43.402344 20.367188 L 43.648438 20.308594 L 43.878906 20.234375 L 44.09375 20.152344 L 44.285156 20.058594 L 44.460938 19.957031 L 44.617188 19.84375 L 44.753906 19.71875 L 44.875 19.589844 L 44.984375 19.449219 L 45.078125 19.300781 L 45.15625 19.140625 L 45.222656 18.976563 L 45.273438 18.800781 L 45.308594 18.617188 L 45.332031 18.425781 L 45.335938 18.222656 L 45.335938 18.09375 L 45.328125 17.96875 L 45.320313 17.847656 L 45.304688 17.726563 L 45.289063 17.609375 L 45.265625 17.496094 L 45.242188 17.386719 L 45.210938 17.277344 L 45.175781 17.171875 L 45.140625 17.070313 L 45.097656 16.964844 L 45.050781 16.859375 L 45 16.753906 L 44.941406 16.648438 L 44.878906 16.539063 L 44.8125 16.433594 L 44.738281 16.324219 L 44.660156 16.214844 L 44.578125 16.101563 L 44.492188 15.992188 L 45.445313 15.269531 L 45.671875 15.542969 L 45.875 15.820313 L 46.050781 16.101563 L 46.207031 16.394531 L 46.335938 16.691406 L 46.445313 17 L 46.527344 17.3125 L 46.585938 17.632813 L 46.621094 17.960938 L 46.632813 18.296875 L 46.621094 18.65625 L 46.582031 19.003906 L 46.519531 19.332031 L 46.429688 19.644531 L 46.3125 19.941406 L 46.171875 20.222656 L 46.007813 20.484375 L 45.816406 20.730469 L 45.597656 20.960938 L 45.355469 21.175781 L 45.085938 21.367188 L 44.796875 21.539063 L 44.484375 21.6875 L 44.15625 21.820313 L 43.804688 21.929688 L 43.429688 22.023438 L 43.039063 22.09375 L 42.625 22.144531 L 42.191406 22.171875 L 41.738281 22.183594 L 41.28125 22.171875 L 40.847656 22.144531 L 40.433594 22.097656 L 40.035156 22.027344 L 39.660156 21.941406 L 39.300781 21.832031 L 38.964844 21.707031 L 38.644531 21.5625 L 38.34375 21.394531 L 38.066406 21.210938 L 37.804688 21.007813 L 37.574219 20.792969 L 37.367188 20.558594 L 37.191406 20.3125 L 37.039063 20.050781 L 36.917969 19.773438 L 36.820313 19.480469 L 36.753906 19.171875 L 36.710938 18.847656 L 36.699219 18.511719 L 36.710938 18.175781 L 36.746094 17.859375 L 36.808594 17.554688 L 36.894531 17.269531 L 37.003906 17 L 37.136719 16.746094 L 37.296875 16.503906 L 37.480469 16.28125 L 37.6875 16.074219 L 37.921875 15.882813 L 38.171875 15.707031 L 38.445313 15.554688 L 38.738281 15.414063 L 39.054688 15.296875 L 39.390625 15.195313 L 39.746094 15.113281 L 40.121094 15.046875 L 40.519531 15 L 40.9375 14.972656 Z M 40.890625 16.53125 L 40.328125 16.550781 L 39.824219 16.609375 L 39.378906 16.707031 L 38.992188 16.84375 L 38.664063 17.023438 L 38.398438 17.238281 L 38.1875 17.492188 L 38.039063 17.785156 L 37.953125 18.121094 L 37.921875 18.492188 L 37.929688 18.667969 L 37.953125 18.839844 L 37.988281 19 L 38.042969 19.152344 L 38.109375 19.296875 L 38.195313 19.4375 L 38.292969 19.566406 L 38.40625 19.691406 L 38.535156 19.808594 L 38.679688 19.914063 L 38.835938 20.015625 L 39.011719 20.105469 L 39.203125 20.1875 L 39.417969 20.261719 L 39.648438 20.324219 L 39.898438 20.378906 L 40.167969 20.425781 L 40.457031 20.460938 L 40.765625 20.492188 L 41.089844 20.507813 L 41.089844 16.53125 Z M 40.890625 16.53125 "/>
<path style="fill-rule:evenodd;fill:rgb(100%,100%,100%);fill-opacity:1;stroke-width:1.115477;stroke-linecap:round;stroke-linejoin:round;stroke:rgb(100%,100%,100%);stroke-opacity:1;stroke-miterlimit:10;" d="M 417.046875 260.679688 L 515.113281 260.679688 L 515.113281 208.933594 L 417.046875 208.933594 Z M 417.046875 260.679688 "/>
<path style="fill-rule:evenodd;fill:rgb(33.72549%,0.392157%,64.313725%);fill-opacity:0.4;stroke-width:0.708661;stroke-linecap:round;stroke-linejoin:round;stroke:rgb(33.72549%,0.392157%,64.313725%);stroke-opacity:1;stroke-miterlimit:10;" d="M 434.972656 229.03125 C 434.972656 233.773438 427.859375 233.773438 427.859375 229.03125 C 427.859375 224.292969 434.972656 224.292969 434.972656 229.03125 "/>
<path style="fill-rule:evenodd;fill:rgb(98.823529%,80.784314%,14.509804%);fill-opacity:0.4;stroke-width:0.708661;stroke-linecap:round;stroke-linejoin:round;stroke:rgb(98.823529%,80.784314%,14.509804%);stroke-opacity:1;stroke-miterlimit:10;" d="M 434.972656 246.3125 C 434.972656 251.050781 427.859375 251.050781 427.859375 246.3125 C 427.859375 241.570313 434.972656 241.570313 434.972656 246.3125 "/>
<path style=" stroke:none;fill-rule:evenodd;fill:rgb(0%,0%,0%);fill-opacity:1;" d="M 450.480469 223.675781 L 450.640625 223.679688 L 450.796875 223.6875 L 450.945313 223.699219 L 451.09375 223.71875 L 451.238281 223.742188 L 451.375 223.769531 L 451.511719 223.800781 L 451.640625 223.839844 L 451.769531 223.882813 L 452.011719 223.984375 L 452.128906 224.039063 L 452.25 224.101563 L 452.367188 224.167969 L 452.484375 224.242188 L 452.605469 224.324219 L 452.722656 224.40625 L 452.957031 224.59375 L 453.074219 224.695313 L 452.355469 225.535156 L 452.269531 225.464844 L 452.179688 225.394531 L 452.09375 225.328125 L 451.921875 225.210938 L 451.832031 225.15625 L 451.746094 225.105469 L 451.660156 225.0625 L 451.570313 225.019531 L 451.484375 224.980469 L 451.3125 224.917969 L 451.226563 224.890625 L 451.132813 224.867188 L 451.042969 224.847656 L 450.949219 224.832031 L 450.851563 224.816406 L 450.753906 224.808594 L 450.65625 224.804688 L 450.554688 224.800781 L 450.324219 224.8125 L 450.105469 224.84375 L 449.894531 224.890625 L 449.695313 224.960938 L 449.503906 225.054688 L 449.324219 225.164063 L 449.152344 225.292969 L 448.992188 225.445313 L 448.835938 225.617188 L 448.695313 225.808594 L 448.5625 226.015625 L 448.445313 226.253906 L 448.34375 226.511719 L 448.253906 226.796875 L 448.175781 227.105469 L 448.117188 227.4375 L 448.066406 227.796875 L 448.03125 228.179688 L 448.011719 228.585938 L 448.003906 229.015625 L 448.011719 229.4375 L 448.03125 229.835938 L 448.066406 230.210938 L 448.117188 230.566406 L 448.175781 230.894531 L 448.253906 231.203125 L 448.34375 231.488281 L 448.445313 231.753906 L 448.5625 231.992188 L 448.695313 232.210938 L 448.835938 232.40625 L 448.992188 232.578125 L 449.152344 232.730469 L 449.324219 232.863281 L 449.503906 232.976563 L 449.695313 233.070313 L 449.894531 233.140625 L 450.105469 233.191406 L 450.324219 233.222656 L 450.554688 233.230469 L 450.671875 233.230469 L 450.890625 233.214844 L 450.996094 233.199219 L 451.097656 233.179688 L 451.199219 233.15625 L 451.292969 233.128906 L 451.386719 233.097656 L 451.472656 233.0625 L 451.558594 233.023438 L 451.730469 232.929688 L 451.820313 232.878906 L 451.90625 232.824219 L 452 232.761719 L 452.089844 232.699219 L 452.183594 232.632813 L 452.28125 232.5625 L 452.375 232.484375 L 452.476563 232.40625 L 453.179688 233.230469 L 452.949219 233.453125 L 452.710938 233.648438 L 452.464844 233.820313 L 452.207031 233.972656 L 451.941406 234.097656 L 451.667969 234.203125 L 451.382813 234.28125 L 451.09375 234.339844 L 450.789063 234.375 L 450.480469 234.386719 L 450.25 234.378906 L 450.027344 234.363281 L 449.808594 234.332031 L 449.597656 234.289063 L 449.390625 234.238281 L 449.1875 234.171875 L 448.988281 234.09375 L 448.796875 234.003906 L 448.609375 233.902344 L 448.425781 233.785156 L 448.25 233.660156 L 448.085938 233.523438 L 447.929688 233.371094 L 447.777344 233.210938 L 447.632813 233.035156 L 447.5 232.851563 L 447.371094 232.652344 L 447.25 232.441406 L 447.136719 232.222656 L 447.03125 231.988281 L 446.9375 231.738281 L 446.851563 231.480469 L 446.777344 231.210938 L 446.714844 230.929688 L 446.660156 230.636719 L 446.613281 230.335938 L 446.578125 230.019531 L 446.554688 229.695313 L 446.539063 229.363281 L 446.535156 229.015625 L 446.539063 228.675781 L 446.554688 228.34375 L 446.582031 228.019531 L 446.617188 227.710938 L 446.664063 227.410156 L 446.71875 227.125 L 446.785156 226.84375 L 446.863281 226.578125 L 446.949219 226.320313 L 447.046875 226.078125 L 447.152344 225.84375 L 447.269531 225.621094 L 447.390625 225.410156 L 447.523438 225.210938 L 447.660156 225.027344 L 447.804688 224.851563 L 447.957031 224.691406 L 448.117188 224.539063 L 448.28125 224.402344 L 448.453125 224.277344 L 448.636719 224.164063 L 448.824219 224.0625 L 449.015625 223.972656 L 449.210938 223.894531 L 449.410156 223.828125 L 449.617188 223.773438 L 449.824219 223.730469 L 450.039063 223.699219 L 450.257813 223.683594 Z M 450.480469 223.675781 "/>
<path style=" stroke:none;fill-rule:evenodd;fill:rgb(0%,0%,0%);fill-opacity:1;" d="M 457.363281 226.105469 L 457.660156 226.117188 L 457.945313 226.148438 L 458.214844 226.203125 L 458.46875 226.277344 L 458.710938 226.375 L 458.941406 226.488281 L 459.15625 226.628906 L 459.355469 226.789063 L 459.546875 226.96875 L 459.71875 227.171875 L 459.878906 227.394531 L 460.023438 227.636719 L 460.148438 227.894531 L 460.257813 228.171875 L 460.351563 228.46875 L 460.425781 228.785156 L 460.484375 229.117188 L 460.527344 229.472656 L 460.550781 229.84375 L 460.558594 230.230469 L 460.550781 230.609375 L 460.527344 230.96875 L 460.484375 231.3125 L 460.421875 231.640625 L 460.347656 231.953125 L 460.253906 232.25 L 460.140625 232.53125 L 460.011719 232.796875 L 459.867188 233.042969 L 459.703125 233.277344 L 459.527344 233.488281 L 459.335938 233.675781 L 459.132813 233.84375 L 458.917969 233.988281 L 458.6875 234.109375 L 458.445313 234.210938 L 458.191406 234.285156 L 457.925781 234.34375 L 457.644531 234.375 L 457.351563 234.386719 L 457.054688 234.375 L 456.769531 234.34375 L 456.5 234.289063 L 456.242188 234.210938 L 456 234.113281 L 455.769531 233.992188 L 455.550781 233.851563 L 455.347656 233.6875 L 455.15625 233.5 L 454.980469 233.292969 L 454.820313 233.0625 L 454.675781 232.820313 L 454.550781 232.558594 L 454.441406 232.277344 L 454.351563 231.984375 L 454.273438 231.671875 L 454.214844 231.339844 L 454.171875 230.992188 L 454.148438 230.628906 L 454.140625 230.246094 L 454.148438 229.863281 L 454.175781 229.496094 L 454.21875 229.148438 L 454.277344 228.816406 L 454.355469 228.503906 L 454.449219 228.207031 L 454.558594 227.929688 L 454.6875 227.667969 L 454.832031 227.425781 L 454.996094 227.203125 L 455.171875 226.992188 L 455.363281 226.808594 L 455.566406 226.644531 L 455.785156 226.5 L 456.015625 226.378906 L 456.257813 226.28125 L 456.515625 226.207031 L 456.785156 226.152344 L 457.070313 226.117188 Z M 457.363281 227.1875 L 457.191406 227.195313 L 457.027344 227.21875 L 456.871094 227.253906 L 456.722656 227.308594 L 456.585938 227.375 L 456.453125 227.457031 L 456.332031 227.554688 L 456.21875 227.667969 L 456.113281 227.792969 L 456.015625 227.9375 L 455.925781 228.09375 L 455.847656 228.265625 L 455.777344 228.453125 L 455.71875 228.660156 L 455.667969 228.882813 L 455.625 229.121094 L 455.59375 229.378906 L 455.570313 229.652344 L 455.554688 229.941406 L 455.550781 230.246094 L 455.566406 230.832031 L 455.621094 231.355469 L 455.710938 231.816406 L 455.839844 232.214844 L 456 232.554688 L 456.199219 232.828125 L 456.433594 233.046875 L 456.703125 233.199219 L 457.007813 233.292969 L 457.351563 233.320313 L 457.691406 233.289063 L 458 233.199219 L 458.269531 233.042969 L 458.503906 232.828125 L 458.699219 232.550781 L 458.863281 232.210938 L 458.988281 231.808594 L 459.078125 231.34375 L 459.132813 230.820313 L 459.148438 230.230469 L 459.144531 229.925781 L 459.132813 229.636719 L 459.109375 229.363281 L 459.078125 229.105469 L 459.039063 228.867188 L 458.988281 228.644531 L 458.929688 228.4375 L 458.863281 228.25 L 458.785156 228.078125 L 458.699219 227.921875 L 458.605469 227.78125 L 458.503906 227.65625 L 458.390625 227.546875 L 458.269531 227.453125 L 458.140625 227.371094 L 458.003906 227.304688 L 457.855469 227.253906 L 457.703125 227.214844 L 457.539063 227.195313 Z M 457.363281 227.1875 "/>
<path style=" stroke:none;fill-rule:evenodd;fill:rgb(0%,0%,0%);fill-opacity:1;" d="M 466.035156 226.105469 L 466.21875 226.113281 L 466.394531 226.132813 L 466.5625 226.164063 L 466.722656 226.207031 L 466.875 226.265625 L 467.019531 226.332031 L 467.152344 226.414063 L 467.277344 226.511719 L 467.394531 226.617188 L 467.503906 226.738281 L 467.609375 226.863281 L 467.699219 227.003906 L 467.78125 227.148438 L 467.851563 227.304688 L 467.910156 227.472656 L 467.957031 227.648438 L 467.996094 227.832031 L 468.023438 228.027344 L 468.039063 228.234375 L 468.046875 228.445313 L 468.046875 234.191406 L 466.695313 234.191406 L 466.695313 228.613281 L 466.691406 228.464844 L 466.683594 228.324219 L 466.671875 228.191406 L 466.652344 228.070313 L 466.632813 227.957031 L 466.601563 227.851563 L 466.570313 227.753906 L 466.53125 227.667969 L 466.488281 227.585938 L 466.441406 227.515625 L 466.386719 227.453125 L 466.328125 227.394531 L 466.261719 227.339844 L 466.191406 227.296875 L 466.117188 227.257813 L 466.035156 227.226563 L 465.949219 227.203125 L 465.859375 227.1875 L 465.761719 227.175781 L 465.660156 227.171875 L 465.464844 227.1875 L 465.269531 227.226563 L 465.082031 227.296875 L 464.898438 227.398438 L 464.714844 227.523438 L 464.535156 227.679688 L 464.363281 227.863281 L 464.191406 228.074219 L 464.023438 228.3125 L 463.859375 228.582031 L 463.859375 234.191406 L 462.511719 234.191406 L 462.511719 226.300781 L 463.679688 226.300781 L 463.785156 227.472656 L 463.972656 227.210938 L 464.167969 226.980469 L 464.371094 226.777344 L 464.585938 226.597656 L 464.804688 226.449219 L 465.035156 226.324219 L 465.273438 226.230469 L 465.519531 226.160156 L 465.773438 226.121094 Z M 466.035156 226.105469 "/>
<path style=" stroke:none;fill-rule:evenodd;fill:rgb(0%,0%,0%);fill-opacity:1;" d="M 474.148438 233.847656 L 474 233.949219 L 473.84375 234.042969 L 473.683594 234.121094 L 473.523438 234.191406 L 473.359375 234.25 L 473.191406 234.300781 L 473.019531 234.339844 L 472.84375 234.363281 L 472.667969 234.382813 L 472.484375 234.386719 L 472.296875 234.382813 L 472.117188 234.363281 L 471.949219 234.335938 L 471.785156 234.296875 L 471.632813 234.25 L 471.488281 234.1875 L 471.355469 234.113281 L 471.226563 234.03125 L 471.109375 233.9375 L 471 233.832031 L 470.902344 233.714844 L 470.816406 233.59375 L 470.738281 233.457031 L 470.671875 233.316406 L 470.617188 233.164063 L 470.570313 233.003906 L 470.535156 232.835938 L 470.511719 232.65625 L 470.496094 232.46875 L 470.488281 232.273438 L 470.488281 227.320313 L 469.363281 227.320313 L 469.363281 226.300781 L 470.488281 226.300781 L 470.488281 224.488281 L 471.839844 224.320313 L 471.839844 226.300781 L 473.578125 226.300781 L 473.429688 227.320313 L 471.839844 227.320313 L 471.839844 232.257813 L 471.847656 232.449219 L 471.875 232.625 L 471.917969 232.777344 L 471.976563 232.910156 L 472.054688 233.023438 L 472.148438 233.113281 L 472.257813 233.183594 L 472.386719 233.234375 L 472.53125 233.265625 L 472.695313 233.277344 L 472.746094 233.277344 L 472.796875 233.273438 L 472.890625 233.265625 L 472.984375 233.25 L 473.03125 233.238281 L 473.074219 233.230469 L 473.117188 233.214844 L 473.160156 233.203125 L 473.207031 233.1875 L 473.25 233.167969 L 473.300781 233.148438 L 473.394531 233.109375 L 473.445313 233.085938 L 473.496094 233.058594 L 473.550781 233.035156 L 473.601563 233.007813 L 473.65625 232.976563 Z M 474.148438 233.847656 "/>
<path style=" stroke:none;fill-rule:evenodd;fill:rgb(0%,0%,0%);fill-opacity:1;" d="M 478.558594 226.121094 L 478.636719 226.121094 L 478.785156 226.128906 L 478.855469 226.136719 L 478.921875 226.144531 L 478.992188 226.152344 L 479.054688 226.164063 L 479.117188 226.179688 L 479.234375 226.210938 L 479.011719 227.515625 L 478.894531 227.484375 L 478.835938 227.472656 L 478.773438 227.460938 L 478.714844 227.449219 L 478.589844 227.433594 L 478.523438 227.429688 L 478.460938 227.425781 L 478.394531 227.425781 L 478.265625 227.433594 L 478.140625 227.449219 L 478.019531 227.472656 L 477.90625 227.511719 L 477.796875 227.558594 L 477.691406 227.617188 L 477.589844 227.683594 L 477.492188 227.761719 L 477.402344 227.851563 L 477.316406 227.953125 L 477.234375 228.0625 L 477.160156 228.183594 L 477.085938 228.316406 L 477.015625 228.460938 L 476.953125 228.617188 L 476.886719 228.78125 L 476.828125 228.957031 L 476.773438 229.148438 L 476.71875 229.347656 L 476.671875 229.558594 L 476.671875 234.191406 L 475.320313 234.191406 L 475.320313 226.300781 L 476.488281 226.300781 L 476.59375 227.863281 L 476.71875 227.53125 L 476.859375 227.234375 L 477.019531 226.972656 L 477.191406 226.75 L 477.378906 226.558594 L 477.582031 226.398438 L 477.804688 226.277344 L 478.039063 226.191406 L 478.292969 226.140625 Z M 478.558594 226.121094 "/>
<path style=" stroke:none;fill-rule:evenodd;fill:rgb(0%,0%,0%);fill-opacity:1;" d="M 483.300781 226.105469 L 483.597656 226.117188 L 483.878906 226.148438 L 484.148438 226.203125 L 484.402344 226.277344 L 484.644531 226.375 L 484.875 226.488281 L 485.089844 226.628906 L 485.292969 226.789063 L 485.480469 226.96875 L 485.65625 227.171875 L 485.816406 227.394531 L 485.957031 227.636719 L 486.082031 227.894531 L 486.191406 228.171875 L 486.285156 228.46875 L 486.359375 228.785156 L 486.417969 229.117188 L 486.460938 229.472656 L 486.488281 229.84375 L 486.496094 230.230469 L 486.488281 230.609375 L 486.460938 230.96875 L 486.417969 231.3125 L 486.359375 231.640625 L 486.28125 231.953125 L 486.1875 232.25 L 486.074219 232.53125 L 485.949219 232.796875 L 485.800781 233.042969 L 485.640625 233.277344 L 485.460938 233.488281 L 485.273438 233.675781 L 485.070313 233.84375 L 484.851563 233.988281 L 484.625 234.109375 L 484.382813 234.210938 L 484.128906 234.285156 L 483.859375 234.34375 L 483.578125 234.375 L 483.285156 234.386719 L 482.988281 234.375 L 482.707031 234.34375 L 482.433594 234.289063 L 482.179688 234.210938 L 481.933594 234.113281 L 481.703125 233.992188 L 481.488281 233.851563 L 481.285156 233.6875 L 481.09375 233.5 L 480.914063 233.292969 L 480.753906 233.0625 L 480.613281 232.820313 L 480.488281 232.558594 L 480.378906 232.277344 L 480.285156 231.984375 L 480.210938 231.671875 L 480.152344 231.339844 L 480.109375 230.992188 L 480.082031 230.628906 L 480.074219 230.246094 L 480.082031 229.863281 L 480.109375 229.496094 L 480.152344 229.148438 L 480.210938 228.816406 L 480.289063 228.503906 L 480.382813 228.207031 L 480.492188 227.929688 L 480.621094 227.667969 L 480.769531 227.425781 L 480.929688 227.203125 L 481.109375 226.992188 L 481.296875 226.808594 L 481.503906 226.644531 L 481.71875 226.5 L 481.949219 226.378906 L 482.195313 226.28125 L 482.449219 226.207031 L 482.71875 226.152344 L 483.003906 226.117188 Z M 483.300781 227.1875 L 483.128906 227.195313 L 482.960938 227.21875 L 482.808594 227.253906 L 482.660156 227.308594 L 482.519531 227.375 L 482.390625 227.457031 L 482.265625 227.554688 L 482.152344 227.667969 L 482.046875 227.792969 L 481.949219 227.9375 L 481.863281 228.09375 L 481.78125 228.265625 L 481.714844 228.453125 L 481.652344 228.660156 L 481.601563 228.882813 L 481.558594 229.121094 L 481.527344 229.378906 L 481.503906 229.652344 L 481.488281 229.941406 L 481.484375 230.246094 L 481.503906 230.832031 L 481.558594 231.355469 L 481.648438 231.816406 L 481.773438 232.214844 L 481.933594 232.554688 L 482.132813 232.828125 L 482.367188 233.046875 L 482.636719 233.199219 L 482.941406 233.292969 L 483.285156 233.320313 L 483.628906 233.289063 L 483.933594 233.199219 L 484.203125 233.042969 L 484.4375 232.828125 L 484.636719 232.550781 L 484.796875 232.210938 L 484.921875 231.808594 L 485.011719 231.34375 L 485.066406 230.820313 L 485.085938 230.230469 L 485.082031 229.925781 L 485.066406 229.636719 L 485.042969 229.363281 L 485.011719 229.105469 L 484.972656 228.867188 L 484.921875 228.644531 L 484.863281 228.4375 L 484.796875 228.25 L 484.71875 228.078125 L 484.636719 227.921875 L 484.539063 227.78125 L 484.4375 227.65625 L 484.324219 227.546875 L 484.207031 227.453125 L 484.078125 227.371094 L 483.9375 227.304688 L 483.792969 227.253906 L 483.636719 227.214844 L 483.472656 227.195313 Z M 483.300781 227.1875 "/>
<path style=" stroke:none;fill-rule:evenodd;fill:rgb(0%,0%,0%);fill-opacity:1;" d="M 489.929688 234.386719 L 489.789063 234.382813 L 489.652344 234.371094 L 489.523438 234.347656 L 489.402344 234.316406 L 489.285156 234.277344 L 489.175781 234.230469 L 489.070313 234.171875 L 488.96875 234.109375 L 488.878906 234.035156 L 488.789063 233.953125 L 488.710938 233.863281 L 488.640625 233.765625 L 488.574219 233.660156 L 488.519531 233.546875 L 488.476563 233.429688 L 488.4375 233.304688 L 488.40625 233.171875 L 488.386719 233.035156 L 488.375 232.890625 L 488.371094 232.738281 L 488.371094 223.105469 L 489.71875 222.957031 L 489.71875 232.691406 L 489.726563 232.804688 L 489.738281 232.902344 L 489.761719 232.988281 L 489.796875 233.066406 L 489.839844 233.128906 L 489.894531 233.183594 L 489.957031 233.222656 L 490.027344 233.253906 L 490.109375 233.269531 L 490.199219 233.277344 L 490.238281 233.277344 L 490.28125 233.273438 L 490.320313 233.269531 L 490.449219 233.246094 L 490.496094 233.234375 L 490.539063 233.21875 L 490.585938 233.203125 L 490.636719 233.1875 L 490.933594 234.132813 L 490.839844 234.179688 L 490.742188 234.222656 L 490.644531 234.261719 L 490.542969 234.296875 L 490.445313 234.324219 L 490.34375 234.347656 L 490.242188 234.363281 L 490.136719 234.375 L 490.035156 234.382813 Z M 489.929688 234.386719 "/>
<path style=" stroke:none;fill-rule:evenodd;fill:rgb(0%,0%,0%);fill-opacity:1;" d="M 452.65625 241.152344 L 452.488281 242.292969 L 449.953125 242.292969 L 449.953125 251.472656 L 448.558594 251.472656 L 448.558594 242.292969 L 445.949219 242.292969 L 445.949219 241.152344 Z M 452.65625 241.152344 "/>
<path style=" stroke:none;fill-rule:evenodd;fill:rgb(0%,0%,0%);fill-opacity:1;" d="M 457.183594 243.402344 L 457.261719 243.402344 L 457.410156 243.410156 L 457.480469 243.417969 L 457.546875 243.425781 L 457.617188 243.433594 L 457.679688 243.445313 L 457.742188 243.460938 L 457.859375 243.492188 L 457.636719 244.796875 L 457.460938 244.75 L 457.398438 244.738281 L 457.339844 244.730469 L 457.214844 244.714844 L 457.148438 244.710938 L 457.085938 244.707031 L 457.019531 244.707031 L 456.890625 244.710938 L 456.765625 244.726563 L 456.644531 244.753906 L 456.53125 244.789063 L 456.421875 244.839844 L 456.316406 244.894531 L 456.214844 244.964844 L 456.117188 245.042969 L 456.027344 245.132813 L 455.941406 245.230469 L 455.859375 245.34375 L 455.785156 245.464844 L 455.710938 245.597656 L 455.640625 245.742188 L 455.578125 245.894531 L 455.511719 246.0625 L 455.453125 246.238281 L 455.398438 246.425781 L 455.34375 246.625 L 455.296875 246.835938 L 455.296875 251.472656 L 453.945313 251.472656 L 453.945313 243.582031 L 455.113281 243.582031 L 455.21875 245.140625 L 455.34375 244.8125 L 455.484375 244.515625 L 455.644531 244.253906 L 455.816406 244.027344 L 456.003906 243.835938 L 456.207031 243.679688 L 456.429688 243.558594 L 456.664063 243.472656 L 456.917969 243.417969 Z M 457.183594 243.402344 "/>
<path style=" stroke:none;fill-rule:evenodd;fill:rgb(0%,0%,0%);fill-opacity:1;" d="M 464.714844 247.285156 L 464.714844 247.414063 L 464.710938 247.484375 L 464.710938 247.550781 L 464.703125 247.691406 L 464.691406 247.914063 L 464.683594 247.992188 L 460.09375 247.992188 L 460.113281 248.261719 L 460.136719 248.511719 L 460.171875 248.75 L 460.210938 248.972656 L 460.265625 249.179688 L 460.324219 249.371094 L 460.390625 249.550781 L 460.46875 249.710938 L 460.554688 249.855469 L 460.648438 249.988281 L 460.753906 250.101563 L 460.863281 250.203125 L 460.980469 250.292969 L 461.105469 250.371094 L 461.234375 250.4375 L 461.375 250.492188 L 461.519531 250.53125 L 461.671875 250.5625 L 461.832031 250.582031 L 462 250.585938 L 462.105469 250.585938 L 462.210938 250.582031 L 462.414063 250.558594 L 462.511719 250.546875 L 462.699219 250.507813 L 462.789063 250.480469 L 462.875 250.453125 L 462.960938 250.421875 L 463.046875 250.386719 L 463.136719 250.347656 L 463.222656 250.304688 L 463.3125 250.257813 L 463.492188 250.148438 L 463.582031 250.089844 L 463.675781 250.023438 L 463.765625 249.953125 L 463.859375 249.882813 L 464.460938 250.675781 L 464.234375 250.863281 L 464.003906 251.035156 L 463.765625 251.183594 L 463.523438 251.308594 L 463.273438 251.417969 L 463.019531 251.507813 L 462.757813 251.578125 L 462.492188 251.628906 L 462.21875 251.65625 L 461.941406 251.667969 L 461.636719 251.65625 L 461.351563 251.625 L 461.074219 251.570313 L 460.816406 251.496094 L 460.566406 251.402344 L 460.335938 251.285156 L 460.113281 251.144531 L 459.910156 250.984375 L 459.71875 250.804688 L 459.539063 250.601563 L 459.378906 250.378906 L 459.238281 250.136719 L 459.113281 249.875 L 459.003906 249.601563 L 458.910156 249.308594 L 458.835938 248.996094 L 458.777344 248.671875 L 458.734375 248.328125 L 458.707031 247.964844 L 458.699219 247.585938 L 458.707031 247.207031 L 458.734375 246.84375 L 458.773438 246.5 L 458.828125 246.167969 L 458.902344 245.855469 L 458.992188 245.554688 L 459.097656 245.273438 L 459.21875 245.007813 L 459.355469 244.761719 L 459.511719 244.527344 L 459.679688 244.308594 L 459.859375 244.117188 L 460.054688 243.945313 L 460.257813 243.796875 L 460.476563 243.671875 L 460.707031 243.570313 L 460.953125 243.488281 L 461.210938 243.433594 L 461.476563 243.398438 L 461.761719 243.386719 L 462.039063 243.398438 L 462.304688 243.425781 L 462.554688 243.480469 L 462.792969 243.550781 L 463.019531 243.640625 L 463.234375 243.753906 L 463.433594 243.886719 L 463.617188 244.039063 L 463.789063 244.214844 L 463.949219 244.40625 L 464.09375 244.617188 L 464.226563 244.84375 L 464.339844 245.089844 L 464.441406 245.351563 L 464.523438 245.628906 L 464.59375 245.925781 L 464.644531 246.238281 L 464.683594 246.570313 L 464.707031 246.921875 Z M 463.410156 246.882813 L 463.394531 246.410156 L 463.34375 245.992188 L 463.261719 245.621094 L 463.148438 245.296875 L 463 245.027344 L 462.820313 244.804688 L 462.609375 244.628906 L 462.363281 244.503906 L 462.085938 244.429688 L 461.773438 244.40625 L 461.628906 244.414063 L 461.488281 244.433594 L 461.351563 244.464844 L 461.226563 244.507813 L 461.105469 244.5625 L 460.988281 244.632813 L 460.878906 244.714844 L 460.777344 244.808594 L 460.679688 244.917969 L 460.589844 245.035156 L 460.507813 245.167969 L 460.429688 245.3125 L 460.363281 245.476563 L 460.300781 245.652344 L 460.25 245.847656 L 460.203125 246.054688 L 460.164063 246.28125 L 460.132813 246.519531 L 460.109375 246.777344 L 460.09375 247.046875 L 463.410156 247.046875 Z M 463.410156 246.882813 "/>
<path style=" stroke:none;fill-rule:evenodd;fill:rgb(0%,0%,0%);fill-opacity:1;" d="M 471.511719 249.671875 L 471.511719 249.765625 L 471.515625 249.855469 L 471.523438 249.9375 L 471.53125 250.015625 L 471.542969 250.09375 L 471.558594 250.160156 L 471.578125 250.226563 L 471.597656 250.285156 L 471.621094 250.339844 L 471.644531 250.390625 L 471.671875 250.4375 L 471.703125 250.476563 L 471.738281 250.515625 L 471.777344 250.554688 L 471.816406 250.589844 L 471.859375 250.625 L 471.90625 250.65625 L 472.007813 250.710938 L 472.066406 250.738281 L 471.78125 251.652344 L 471.664063 251.632813 L 471.554688 251.609375 L 471.453125 251.582031 L 471.351563 251.550781 L 471.257813 251.515625 L 471.167969 251.480469 L 471.085938 251.4375 L 471.007813 251.394531 L 470.933594 251.34375 L 470.863281 251.292969 L 470.800781 251.234375 L 470.742188 251.171875 L 470.683594 251.105469 L 470.632813 251.03125 L 470.582031 250.949219 L 470.539063 250.863281 L 470.5 250.773438 L 470.460938 250.675781 L 470.429688 250.574219 L 470.398438 250.46875 L 470.242188 250.695313 L 470.070313 250.898438 L 469.886719 251.078125 L 469.691406 251.234375 L 469.480469 251.367188 L 469.261719 251.476563 L 469.027344 251.558594 L 468.78125 251.617188 L 468.523438 251.65625 L 468.253906 251.667969 L 468.050781 251.660156 L 467.851563 251.640625 L 467.664063 251.609375 L 467.484375 251.5625 L 467.3125 251.503906 L 467.152344 251.433594 L 467 251.351563 L 466.851563 251.253906 L 466.71875 251.144531 L 466.589844 251.023438 L 466.472656 250.886719 L 466.367188 250.742188 L 466.277344 250.585938 L 466.195313 250.425781 L 466.128906 250.253906 L 466.074219 250.074219 L 466.03125 249.882813 L 466 249.6875 L 465.980469 249.480469 L 465.976563 249.265625 L 465.984375 249.019531 L 466.007813 248.785156 L 466.050781 248.566406 L 466.105469 248.355469 L 466.179688 248.15625 L 466.273438 247.972656 L 466.378906 247.796875 L 466.503906 247.636719 L 466.644531 247.484375 L 466.800781 247.347656 L 466.972656 247.222656 L 467.160156 247.109375 L 467.359375 247.011719 L 467.574219 246.925781 L 467.800781 246.851563 L 468.042969 246.792969 L 468.300781 246.746094 L 468.570313 246.714844 L 468.855469 246.695313 L 469.15625 246.6875 L 470.175781 246.6875 L 470.175781 246.011719 L 470.171875 245.851563 L 470.160156 245.699219 L 470.144531 245.558594 L 470.121094 245.425781 L 470.089844 245.304688 L 470.050781 245.1875 L 470.007813 245.085938 L 469.953125 244.988281 L 469.894531 244.902344 L 469.828125 244.828125 L 469.757813 244.753906 L 469.679688 244.691406 L 469.59375 244.636719 L 469.496094 244.585938 L 469.390625 244.546875 L 469.277344 244.511719 L 469.15625 244.484375 L 469.023438 244.46875 L 468.882813 244.457031 L 468.734375 244.453125 L 468.566406 244.457031 L 468.394531 244.46875 L 468.214844 244.488281 L 468.03125 244.519531 L 467.84375 244.558594 L 467.648438 244.601563 L 467.449219 244.65625 L 467.242188 244.71875 L 467.03125 244.792969 L 466.816406 244.871094 L 466.484375 243.925781 L 466.746094 243.824219 L 467.007813 243.730469 L 467.261719 243.652344 L 467.511719 243.582031 L 467.761719 243.523438 L 468.003906 243.472656 L 468.246094 243.433594 L 468.480469 243.410156 L 468.714844 243.390625 L 468.945313 243.386719 L 469.433594 243.414063 L 469.867188 243.488281 L 470.253906 243.617188 L 470.585938 243.796875 L 470.867188 244.027344 L 471.101563 244.308594 L 471.277344 244.644531 L 471.40625 245.027344 L 471.484375 245.464844 L 471.511719 245.953125 Z M 468.570313 250.648438 L 468.773438 250.632813 L 468.96875 250.597656 L 469.15625 250.535156 L 469.332031 250.449219 L 469.496094 250.339844 L 469.652344 250.203125 L 469.796875 250.042969 L 469.933594 249.859375 L 470.058594 249.652344 L 470.175781 249.417969 L 470.175781 247.558594 L 469.304688 247.558594 L 468.933594 247.574219 L 468.601563 247.621094 L 468.3125 247.703125 L 468.058594 247.820313 L 467.84375 247.964844 L 467.667969 248.144531 L 467.53125 248.359375 L 467.433594 248.601563 L 467.375 248.882813 L 467.355469 249.191406 L 467.359375 249.328125 L 467.367188 249.460938 L 467.382813 249.585938 L 467.40625 249.703125 L 467.433594 249.8125 L 467.46875 249.917969 L 467.507813 250.015625 L 467.558594 250.109375 L 467.609375 250.195313 L 467.671875 250.273438 L 467.734375 250.34375 L 467.808594 250.40625 L 467.882813 250.464844 L 467.964844 250.511719 L 468.050781 250.554688 L 468.144531 250.585938 L 468.242188 250.613281 L 468.347656 250.632813 L 468.457031 250.644531 Z M 468.570313 250.648438 "/>
<path style=" stroke:none;fill-rule:evenodd;fill:rgb(0%,0%,0%);fill-opacity:1;" d="M 477.675781 251.125 L 477.523438 251.230469 L 477.367188 251.320313 L 477.210938 251.402344 L 477.046875 251.472656 L 476.882813 251.53125 L 476.714844 251.582031 L 476.542969 251.617188 L 476.371094 251.644531 L 476.191406 251.660156 L 476.011719 251.667969 L 475.824219 251.660156 L 475.644531 251.644531 L 475.472656 251.617188 L 475.3125 251.578125 L 475.160156 251.527344 L 475.015625 251.46875 L 474.878906 251.394531 L 474.753906 251.3125 L 474.632813 251.21875 L 474.523438 251.113281 L 474.429688 250.996094 L 474.339844 250.871094 L 474.265625 250.738281 L 474.199219 250.597656 L 474.140625 250.445313 L 474.097656 250.285156 L 474.0625 250.113281 L 474.035156 249.9375 L 474.019531 249.75 L 474.015625 249.550781 L 474.015625 244.601563 L 472.890625 244.601563 L 472.890625 243.582031 L 474.015625 243.582031 L 474.015625 241.765625 L 475.363281 241.601563 L 475.363281 243.582031 L 477.105469 243.582031 L 476.953125 244.601563 L 475.363281 244.601563 L 475.363281 249.535156 L 475.375 249.730469 L 475.398438 249.902344 L 475.441406 250.058594 L 475.5 250.191406 L 475.578125 250.300781 L 475.671875 250.394531 L 475.785156 250.464844 L 475.914063 250.515625 L 476.058594 250.546875 L 476.21875 250.558594 L 476.269531 250.554688 L 476.320313 250.554688 L 476.367188 250.550781 L 476.417969 250.542969 L 476.464844 250.539063 L 476.511719 250.53125 L 476.597656 250.507813 L 476.644531 250.496094 L 476.683594 250.480469 L 476.777344 250.449219 L 476.871094 250.410156 L 477.023438 250.339844 L 477.125 250.285156 L 477.179688 250.257813 Z M 477.675781 251.125 "/>
<path style=" stroke:none;fill-rule:evenodd;fill:rgb(0%,0%,0%);fill-opacity:1;" d="M 486.136719 243.386719 L 486.300781 243.394531 L 486.464844 243.414063 L 486.617188 243.445313 L 486.765625 243.488281 L 486.902344 243.546875 L 487.035156 243.617188 L 487.164063 243.703125 L 487.28125 243.800781 L 487.394531 243.910156 L 487.5 244.03125 L 487.597656 244.164063 L 487.683594 244.300781 L 487.761719 244.449219 L 487.828125 244.605469 L 487.882813 244.769531 L 487.929688 244.945313 L 487.964844 245.128906 L 487.988281 245.316406 L 488.003906 245.519531 L 488.011719 245.726563 L 488.011719 251.472656 L 486.675781 251.472656 L 486.675781 245.875 L 486.664063 245.601563 L 486.636719 245.359375 L 486.589844 245.140625 L 486.527344 244.957031 L 486.441406 244.796875 L 486.339844 244.667969 L 486.21875 244.566406 L 486.078125 244.496094 L 485.921875 244.453125 L 485.746094 244.4375 L 485.566406 244.449219 L 485.390625 244.492188 L 485.21875 244.5625 L 485.050781 244.65625 L 484.882813 244.78125 L 484.71875 244.933594 L 484.558594 245.113281 L 484.402344 245.320313 L 484.246094 245.554688 L 484.09375 245.816406 L 484.09375 251.472656 L 482.761719 251.472656 L 482.761719 245.875 L 482.75 245.601563 L 482.722656 245.359375 L 482.675781 245.140625 L 482.609375 244.957031 L 482.527344 244.796875 L 482.425781 244.667969 L 482.304688 244.566406 L 482.164063 244.496094 L 482.007813 244.453125 L 481.828125 244.4375 L 481.648438 244.449219 L 481.472656 244.492188 L 481.296875 244.5625 L 481.125 244.65625 L 480.960938 244.78125 L 480.796875 244.933594 L 480.636719 245.113281 L 480.480469 245.320313 L 480.328125 245.554688 L 480.179688 245.816406 L 480.179688 251.472656 L 478.84375 251.472656 L 478.84375 243.582031 L 480.015625 243.582031 L 480.121094 244.738281 L 480.296875 244.480469 L 480.484375 244.25 L 480.675781 244.046875 L 480.875 243.871094 L 481.078125 243.722656 L 481.292969 243.601563 L 481.515625 243.507813 L 481.742188 243.441406 L 481.976563 243.398438 L 482.21875 243.386719 L 482.347656 243.390625 L 482.46875 243.402344 L 482.589844 243.421875 L 482.703125 243.445313 L 482.816406 243.480469 L 482.925781 243.523438 L 483.027344 243.570313 L 483.128906 243.625 L 483.222656 243.691406 L 483.316406 243.761719 L 483.402344 243.839844 L 483.484375 243.925781 L 483.5625 244.015625 L 483.632813 244.113281 L 483.703125 244.214844 L 483.761719 244.324219 L 483.820313 244.441406 L 483.871094 244.5625 L 483.917969 244.691406 L 483.960938 244.828125 L 484.148438 244.554688 L 484.339844 244.308594 L 484.539063 244.09375 L 484.746094 243.90625 L 484.960938 243.746094 L 485.183594 243.617188 L 485.410156 243.515625 L 485.644531 243.445313 L 485.886719 243.402344 Z M 486.136719 243.386719 "/>
<path style=" stroke:none;fill-rule:evenodd;fill:rgb(0%,0%,0%);fill-opacity:1;" d="M 495.914063 247.285156 L 495.914063 247.484375 L 495.910156 247.550781 L 495.902344 247.691406 L 495.890625 247.914063 L 495.886719 247.992188 L 491.296875 247.992188 L 491.3125 248.261719 L 491.335938 248.511719 L 491.371094 248.75 L 491.414063 248.972656 L 491.464844 249.179688 L 491.523438 249.371094 L 491.59375 249.550781 L 491.667969 249.710938 L 491.753906 249.855469 L 491.851563 249.988281 L 491.953125 250.101563 L 492.0625 250.203125 L 492.179688 250.292969 L 492.304688 250.371094 L 492.433594 250.4375 L 492.574219 250.492188 L 492.71875 250.53125 L 492.871094 250.5625 L 493.03125 250.582031 L 493.199219 250.585938 L 493.308594 250.585938 L 493.410156 250.582031 L 493.613281 250.558594 L 493.710938 250.546875 L 493.898438 250.507813 L 493.988281 250.480469 L 494.074219 250.453125 L 494.160156 250.421875 L 494.246094 250.386719 L 494.335938 250.347656 L 494.421875 250.304688 L 494.511719 250.257813 L 494.691406 250.148438 L 494.785156 250.089844 L 494.875 250.023438 L 494.96875 249.953125 L 495.058594 249.882813 L 495.660156 250.675781 L 495.433594 250.863281 L 495.203125 251.035156 L 494.96875 251.183594 L 494.722656 251.308594 L 494.476563 251.417969 L 494.21875 251.507813 L 493.960938 251.578125 L 493.691406 251.628906 L 493.417969 251.65625 L 493.140625 251.667969 L 492.839844 251.65625 L 492.550781 251.625 L 492.273438 251.570313 L 492.015625 251.496094 L 491.765625 251.402344 L 491.535156 251.285156 L 491.316406 251.144531 L 491.109375 250.984375 L 490.917969 250.804688 L 490.738281 250.601563 L 490.582031 250.378906 L 490.4375 250.136719 L 490.3125 249.875 L 490.203125 249.601563 L 490.109375 249.308594 L 490.035156 248.996094 L 489.976563 248.671875 L 489.933594 248.328125 L 489.910156 247.964844 L 489.898438 247.585938 L 489.90625 247.207031 L 489.933594 246.84375 L 489.972656 246.5 L 490.03125 246.167969 L 490.101563 245.855469 L 490.191406 245.554688 L 490.296875 245.273438 L 490.417969 245.007813 L 490.554688 244.761719 L 490.710938 244.527344 L 490.878906 244.308594 L 491.058594 244.117188 L 491.253906 243.945313 L 491.457031 243.796875 L 491.675781 243.671875 L 491.910156 243.570313 L 492.152344 243.488281 L 492.410156 243.433594 L 492.679688 243.398438 L 492.960938 243.386719 L 493.238281 243.398438 L 493.503906 243.425781 L 493.753906 243.480469 L 493.996094 243.550781 L 494.21875 243.640625 L 494.433594 243.753906 L 494.632813 243.886719 L 494.816406 244.039063 L 494.992188 244.214844 L 495.148438 244.40625 L 495.296875 244.617188 L 495.425781 244.84375 L 495.539063 245.089844 L 495.640625 245.351563 L 495.722656 245.628906 L 495.792969 245.925781 L 495.847656 246.238281 L 495.882813 246.570313 L 495.90625 246.921875 Z M 494.609375 246.882813 L 494.59375 246.410156 L 494.542969 245.992188 L 494.464844 245.621094 L 494.347656 245.296875 L 494.203125 245.027344 L 494.019531 244.804688 L 493.808594 244.628906 L 493.5625 244.503906 L 493.285156 244.429688 L 492.976563 244.40625 L 492.828125 244.414063 L 492.6875 244.433594 L 492.554688 244.464844 L 492.425781 244.507813 L 492.304688 244.5625 L 492.1875 244.632813 L 492.078125 244.714844 L 491.976563 244.808594 L 491.878906 244.917969 L 491.789063 245.035156 L 491.707031 245.167969 L 491.632813 245.3125 L 491.5625 245.476563 L 491.503906 245.652344 L 491.449219 245.847656 L 491.402344 246.054688 L 491.363281 246.28125 L 491.335938 246.519531 L 491.3125 246.777344 L 491.296875 247.046875 L 494.609375 247.046875 Z M 494.609375 246.882813 "/>
<path style=" stroke:none;fill-rule:evenodd;fill:rgb(0%,0%,0%);fill-opacity:1;" d="M 501.316406 243.386719 L 501.5 243.394531 L 501.675781 243.410156 L 501.84375 243.445313 L 502.003906 243.488281 L 502.15625 243.542969 L 502.296875 243.613281 L 502.433594 243.695313 L 502.558594 243.789063 L 502.675781 243.898438 L 502.785156 244.015625 L 502.886719 244.144531 L 502.980469 244.28125 L 503.058594 244.429688 L 503.128906 244.585938 L 503.191406 244.75 L 503.238281 244.925781 L 503.277344 245.113281 L 503.304688 245.308594 L 503.320313 245.511719 L 503.324219 245.726563 L 503.324219 251.472656 L 501.976563 251.472656 L 501.976563 245.890625 L 501.972656 245.742188 L 501.964844 245.601563 L 501.953125 245.472656 L 501.933594 245.347656 L 501.910156 245.234375 L 501.882813 245.128906 L 501.851563 245.035156 L 501.8125 244.945313 L 501.769531 244.867188 L 501.71875 244.796875 L 501.667969 244.730469 L 501.605469 244.671875 L 501.542969 244.621094 L 501.472656 244.574219 L 501.398438 244.539063 L 501.316406 244.507813 L 501.230469 244.484375 L 501.140625 244.464844 L 501.042969 244.457031 L 500.941406 244.453125 L 500.742188 244.464844 L 500.550781 244.507813 L 500.363281 244.578125 L 500.175781 244.675781 L 499.996094 244.804688 L 499.816406 244.960938 L 499.640625 245.144531 L 499.472656 245.355469 L 499.304688 245.59375 L 499.140625 245.863281 L 499.140625 251.472656 L 497.789063 251.472656 L 497.789063 243.582031 L 498.960938 243.582031 L 499.066406 244.75 L 499.253906 244.492188 L 499.449219 244.261719 L 499.652344 244.054688 L 499.863281 243.878906 L 500.085938 243.726563 L 500.3125 243.605469 L 500.550781 243.507813 L 500.796875 243.441406 L 501.050781 243.402344 Z M 501.316406 243.386719 "/>
<path style=" stroke:none;fill-rule:evenodd;fill:rgb(0%,0%,0%);fill-opacity:1;" d="M 509.429688 251.125 L 509.277344 251.230469 L 509.125 251.320313 L 508.964844 251.402344 L 508.804688 251.472656 L 508.640625 251.53125 L 508.46875 251.582031 L 508.300781 251.617188 L 508.125 251.644531 L 507.945313 251.660156 L 507.765625 251.667969 L 507.578125 251.660156 L 507.398438 251.644531 L 507.226563 251.617188 L 507.066406 251.578125 L 506.914063 251.527344 L 506.769531 251.46875 L 506.632813 251.394531 L 506.507813 251.3125 L 506.390625 251.21875 L 506.28125 251.113281 L 506.183594 250.996094 L 506.097656 250.871094 L 506.019531 250.738281 L 505.953125 250.597656 L 505.898438 250.445313 L 505.851563 250.285156 L 505.816406 250.113281 L 505.789063 249.9375 L 505.773438 249.75 L 505.769531 249.550781 L 505.769531 244.601563 L 504.644531 244.601563 L 504.644531 243.582031 L 505.769531 243.582031 L 505.769531 241.765625 L 507.121094 241.601563 L 507.121094 243.582031 L 508.859375 243.582031 L 508.710938 244.601563 L 507.121094 244.601563 L 507.121094 249.535156 L 507.128906 249.730469 L 507.152344 249.902344 L 507.195313 250.058594 L 507.257813 250.191406 L 507.332031 250.300781 L 507.429688 250.394531 L 507.539063 250.464844 L 507.667969 250.515625 L 507.8125 250.546875 L 507.976563 250.558594 L 508.027344 250.554688 L 508.074219 250.554688 L 508.125 250.550781 L 508.171875 250.542969 L 508.21875 250.539063 L 508.265625 250.53125 L 508.308594 250.519531 L 508.355469 250.507813 L 508.398438 250.496094 L 508.484375 250.464844 L 508.53125 250.449219 L 508.578125 250.429688 L 508.628906 250.410156 L 508.675781 250.386719 L 508.777344 250.339844 L 508.828125 250.3125 L 508.882813 250.285156 L 508.933594 250.257813 Z M 509.429688 251.125 "/>
</g>
</svg>
