<?xml version="1.0" encoding="UTF-8" standalone="no"?>
<svg
   xmlns:dc="http://purl.org/dc/elements/1.1/"
   xmlns:cc="http://creativecommons.org/ns#"
   xmlns:rdf="http://www.w3.org/1999/02/22-rdf-syntax-ns#"
   xmlns:svg="http://www.w3.org/2000/svg"
   xmlns="http://www.w3.org/2000/svg"
   xmlns:sodipodi="http://sodipodi.sourceforge.net/DTD/sodipodi-0.dtd"
   xmlns:inkscape="http://www.inkscape.org/namespaces/inkscape"
   version="1.1"
   id="Capa_1"
   x="0px"
   y="0px"
   viewBox="0 0 201.189 201.189"
   style="enable-background:new 0 0 201.189 201.189;"
   xml:space="preserve"
   sodipodi:docname="down-arrow-svgrepo-com.svg"
   inkscape:version="1.0.1 (3bc2e813f5, 2020-09-07)"><metadata
   id="metadata921"><rdf:RDF><cc:Work
       rdf:about=""><dc:format>image/svg+xml</dc:format><dc:type
         rdf:resource="http://purl.org/dc/dcmitype/StillImage" /></cc:Work></rdf:RDF></metadata><defs
   id="defs919" /><sodipodi:namedview
   pagecolor="#ffffff"
   bordercolor="#666666"
   borderopacity="1"
   objecttolerance="10"
   gridtolerance="10"
   guidetolerance="10"
   inkscape:pageopacity="0"
   inkscape:pageshadow="2"
   inkscape:window-width="1500"
   inkscape:window-height="930"
   id="namedview917"
   showgrid="false"
   inkscape:zoom="3.5936358"
   inkscape:cx="100.5945"
   inkscape:cy="100.5945"
   inkscape:window-x="-7"
   inkscape:window-y="-7"
   inkscape:window-maximized="1"
   inkscape:current-layer="Capa_1" />
<g
   id="g884"
   style="fill:#333f48;fill-opacity:1">
	<g
   id="g882"
   style="fill:#333f48;fill-opacity:1">
		<g
   id="g880"
   style="fill:#333f48;fill-opacity:1">
			<path
   style="fill:#333f48;fill-opacity:1"
   d="m 102.246,201.189 c -4.373,0 -7.38,-3.393 -7.709,-3.786 l -60.3,-72.869 c -1.596,-1.482 -5.712,-5.948 -4.155,-9.853 0.92,-2.319 3.332,-3.5 7.158,-3.5 H 68.326 V 8.296 C 68.172,7.326 68.05,5.107 69.593,3.11 71.182,1.049 73.901,0 77.67,0 h 47.781 c 3.382,0 5.336,1.281 6.378,2.355 1.958,2.015 1.99,4.456 1.976,4.921 v 101.743 h 28.491 c 1.757,0 7.115,0 8.75,3.962 1.707,4.137 -2.434,8.704 -3.74,10.003 -1.829,2.473 -51.221,67.995 -58.407,75.192 -2.487,2.487 -4.989,3.013 -6.653,3.013 z M 35.683,117.064 c 0.437,0.927 1.589,2.434 2.759,3.55 l 60.515,73.087 c 0.39,0.451 1.832,1.721 3.289,1.721 0.848,0 1.686,-0.433 2.577,-1.317 6.907,-6.918 57.634,-74.211 58.153,-74.898 1.478,-1.525 2.656,-3.35 2.706,-4.069 -0.147,0.018 -0.981,-0.365 -3.386,-0.365 h -34.25 V 7.19 C 128.003,6.242 127.13,5.766 125.451,5.766 H 77.67 c -2.065,0 -3.16,0.433 -3.5,0.845 -0.243,0.297 -0.161,0.766 -0.161,0.766 l 0.075,0.655 V 116.94 H 37.24 c -0.727,-0.001 -1.224,0.063 -1.557,0.124 z"
   id="path878" />
		</g>
	</g>
</g>
<g
   id="g886">
</g>
<g
   id="g888">
</g>
<g
   id="g890">
</g>
<g
   id="g892">
</g>
<g
   id="g894">
</g>
<g
   id="g896">
</g>
<g
   id="g898">
</g>
<g
   id="g900">
</g>
<g
   id="g902">
</g>
<g
   id="g904">
</g>
<g
   id="g906">
</g>
<g
   id="g908">
</g>
<g
   id="g910">
</g>
<g
   id="g912">
</g>
<g
   id="g914">
</g>
</svg>
