<?xml version="1.0" encoding="UTF-8"?>
<svg xmlns="http://www.w3.org/2000/svg" xmlns:xlink="http://www.w3.org/1999/xlink" width="504pt" height="360pt" viewBox="0 0 504 360" version="1.1">
<g id="surface24">
<rect x="0" y="0" width="504" height="360" style="fill:rgb(100%,100%,100%);fill-opacity:1;stroke:none;"/>
<path style="fill-rule:nonzero;fill:rgb(5.098039%,3.137255%,52.941176%);fill-opacity:1;stroke-width:3.200935;stroke-linecap:round;stroke-linejoin:round;stroke:rgb(100%,100%,100%);stroke-opacity:1;stroke-miterlimit:10;" d="M 220.214844 171.480469 L 220.214844 56.972656 L 216.328125 57.039063 L 212.449219 57.238281 L 208.578125 57.566406 L 204.71875 58.027344 L 200.878906 58.617188 L 197.058594 59.339844 L 193.269531 60.1875 L 189.507813 61.167969 L 185.78125 62.273438 L 182.097656 63.503906 L 178.453125 64.859375 L 174.859375 66.339844 L 171.320313 67.9375 L 167.835938 69.65625 L 164.410156 71.492188 L 161.050781 73.445313 L 157.757813 75.507813 L 154.535156 77.683594 L 151.390625 79.964844 L 148.324219 82.351563 L 145.34375 84.84375 L 142.445313 87.433594 L 139.640625 90.121094 L 136.925781 92.902344 L 134.308594 95.773438 L 131.789063 98.730469 L 129.371094 101.773438 L 127.058594 104.894531 L 124.851563 108.09375 L 122.753906 111.367188 L 120.773438 114.707031 L 118.902344 118.117188 L 117.152344 121.582031 L 115.515625 125.109375 L 114.003906 128.6875 L 112.613281 132.316406 L 111.347656 135.992188 L 110.203125 139.707031 L 109.191406 143.457031 L 108.300781 147.238281 L 107.542969 151.050781 L 106.917969 154.886719 L 106.417969 158.738281 L 106.050781 162.609375 L 105.816406 166.488281 L 105.710938 170.371094 L 105.742188 174.257813 L 105.902344 178.140625 L 106.191406 182.015625 L 106.617188 185.878906 L 107.167969 189.722656 L 107.855469 193.546875 L 108.667969 197.347656 L 109.609375 201.117188 L 110.679688 204.855469 L 111.875 208.550781 L 113.195313 212.207031 L 114.636719 215.8125 L 116.203125 219.371094 L 117.886719 222.871094 L 119.691406 226.316406 L 121.609375 229.695313 L 123.640625 233.007813 L 125.785156 236.246094 L 128.035156 239.414063 L 130.394531 242.503906 L 132.855469 245.511719 L 135.417969 248.429688 L 138.078125 251.265625 L 140.832031 254.003906 L 143.675781 256.652344 L 146.609375 259.199219 L 149.628906 261.644531 L 152.730469 263.988281 L 155.90625 266.226563 L 159.160156 268.351563 L 162.480469 270.371094 L 165.871094 272.269531 L 169.320313 274.058594 L 172.832031 275.726563 L 176.394531 277.273438 L 180.007813 278.699219 L 183.671875 280 L 187.375 281.179688 L 191.113281 282.230469 L 194.890625 283.152344 L 198.691406 283.949219 L 202.519531 284.613281 L 206.371094 285.148438 L 210.234375 285.554688 L 214.109375 285.828125 L 217.996094 285.96875 L 221.878906 285.976563 L 225.765625 285.855469 L 229.640625 285.601563 L 233.507813 285.214844 L 237.359375 284.699219 L 241.191406 284.050781 L 245 283.273438 L 248.777344 282.371094 L 252.523438 281.335938 L 256.234375 280.175781 L 259.898438 278.890625 L 263.523438 277.484375 L 267.09375 275.953125 L 270.613281 274.300781 L 274.070313 272.535156 L 277.46875 270.648438 L 280.800781 268.648438 L 284.0625 266.535156 L 287.25 264.316406 L 290.363281 261.988281 L 293.394531 259.554688 L 296.339844 257.019531 L 299.199219 254.390625 L 301.964844 251.660156 L 304.640625 248.839844 L 307.214844 245.933594 L 309.691406 242.9375 L 312.0625 239.859375 L 314.332031 236.703125 L 316.492188 233.472656 L 318.539063 230.171875 L 320.472656 226.800781 L 322.292969 223.367188 L 323.996094 219.875 L 325.578125 216.324219 L 327.039063 212.722656 L 328.375 209.074219 L 329.589844 205.382813 L 330.675781 201.652344 L 331.636719 197.886719 L 332.46875 194.09375 L 333.171875 190.269531 L 333.742188 186.425781 L 334.183594 182.566406 L 334.496094 178.695313 L 334.675781 174.8125 L 334.722656 170.925781 L 334.636719 167.042969 L 334.421875 163.160156 L 334.070313 159.292969 L 333.59375 155.433594 L 332.984375 151.597656 L 329.09375 152.28125 L 325.207031 152.96875 L 321.316406 153.652344 L 317.429688 154.339844 L 313.539063 155.027344 L 309.652344 155.710938 L 305.761719 156.398438 L 301.875 157.082031 L 297.984375 157.769531 L 294.097656 158.453125 L 290.210938 159.140625 L 286.320313 159.824219 L 282.433594 160.511719 L 278.542969 161.195313 L 274.65625 161.882813 L 270.765625 162.566406 L 266.878906 163.253906 L 262.988281 163.9375 L 259.101563 164.625 L 255.210938 165.308594 L 251.324219 165.996094 L 247.433594 166.683594 L 243.546875 167.367188 L 239.65625 168.054688 L 235.769531 168.738281 L 231.878906 169.425781 L 227.992188 170.109375 L 224.105469 170.796875 Z M 220.214844 171.480469 "/>
<path style="fill-rule:nonzero;fill:rgb(33.72549%,0.392157%,64.313725%);fill-opacity:1;stroke-width:3.200935;stroke-linecap:round;stroke-linejoin:round;stroke:rgb(100%,100%,100%);stroke-opacity:1;stroke-miterlimit:10;" d="M 220.214844 171.480469 L 224.105469 170.796875 L 227.992188 170.109375 L 231.878906 169.425781 L 235.769531 168.738281 L 239.65625 168.054688 L 243.546875 167.367188 L 247.433594 166.683594 L 251.324219 165.996094 L 255.210938 165.308594 L 259.101563 164.625 L 262.988281 163.9375 L 266.878906 163.253906 L 270.765625 162.566406 L 274.65625 161.882813 L 278.542969 161.195313 L 282.433594 160.511719 L 286.320313 159.824219 L 290.210938 159.140625 L 294.097656 158.453125 L 297.984375 157.769531 L 301.875 157.082031 L 305.761719 156.398438 L 309.652344 155.710938 L 313.539063 155.027344 L 317.429688 154.339844 L 321.316406 153.652344 L 325.207031 152.96875 L 329.09375 152.28125 L 332.984375 151.597656 L 332.21875 147.671875 L 331.320313 143.78125 L 330.285156 139.917969 L 329.117188 136.097656 L 327.816406 132.316406 L 326.386719 128.585938 L 324.824219 124.90625 L 323.132813 121.285156 L 321.320313 117.722656 L 319.382813 114.226563 L 317.324219 110.800781 L 315.144531 107.449219 L 312.855469 104.175781 L 310.449219 100.984375 L 307.933594 97.878906 L 305.3125 94.859375 L 302.585938 91.9375 L 299.757813 89.109375 L 296.835938 86.386719 L 293.820313 83.761719 L 290.714844 81.246094 L 287.519531 78.84375 L 284.246094 76.550781 L 280.894531 74.375 L 277.46875 72.316406 L 273.972656 70.375 L 270.410156 68.5625 L 266.789063 66.875 L 263.109375 65.3125 L 259.378906 63.878906 L 258.027344 67.589844 L 256.679688 71.300781 L 253.976563 78.722656 L 252.625 82.429688 L 251.277344 86.140625 L 248.574219 93.5625 L 247.226563 97.273438 L 244.523438 104.695313 L 243.171875 108.402344 L 241.824219 112.113281 L 237.769531 123.246094 L 236.421875 126.957031 L 233.71875 134.378906 L 232.371094 138.085938 L 228.316406 149.21875 L 226.96875 152.929688 L 224.265625 160.351563 L 222.914063 164.058594 L 221.566406 167.769531 Z M 220.214844 171.480469 "/>
<path style="fill-rule:nonzero;fill:rgb(56.470588%,5.098039%,64.313725%);fill-opacity:1;stroke-width:3.200935;stroke-linecap:round;stroke-linejoin:round;stroke:rgb(100%,100%,100%);stroke-opacity:1;stroke-miterlimit:10;" d="M 220.214844 171.480469 L 221.566406 167.769531 L 222.914063 164.058594 L 224.265625 160.351563 L 226.96875 152.929688 L 228.316406 149.21875 L 232.371094 138.085938 L 233.71875 134.378906 L 236.421875 126.957031 L 237.769531 123.246094 L 241.824219 112.113281 L 243.171875 108.402344 L 244.523438 104.695313 L 247.226563 97.273438 L 248.574219 93.5625 L 251.277344 86.140625 L 252.625 82.429688 L 253.976563 78.722656 L 256.679688 71.300781 L 258.027344 67.589844 L 259.378906 63.878906 L 255.601563 62.578125 L 251.777344 61.410156 L 247.917969 60.375 L 244.023438 59.476563 L 240.097656 58.714844 L 236.152344 58.085938 L 232.183594 57.601563 L 228.203125 57.253906 L 224.210938 57.042969 L 220.214844 56.972656 Z M 220.214844 171.480469 "/>
<path style="fill:none;stroke-width:3.200935;stroke-linecap:round;stroke-linejoin:round;stroke:rgb(100%,100%,100%);stroke-opacity:1;stroke-miterlimit:10;" d="M 220.214844 171.480469 L 220.214844 56.972656 Z M 220.214844 171.480469 "/>
<path style="fill:none;stroke-width:3.200935;stroke-linecap:round;stroke-linejoin:round;stroke:rgb(100%,100%,100%);stroke-opacity:1;stroke-miterlimit:10;" d="M 220.214844 171.480469 L 220.214844 56.972656 Z M 220.214844 171.480469 "/>
<path style="fill:none;stroke-width:3.200935;stroke-linecap:round;stroke-linejoin:round;stroke:rgb(100%,100%,100%);stroke-opacity:1;stroke-miterlimit:10;" d="M 220.214844 171.480469 L 220.214844 56.972656 Z M 220.214844 171.480469 "/>
<path style="fill:none;stroke-width:3.200935;stroke-linecap:round;stroke-linejoin:round;stroke:rgb(100%,100%,100%);stroke-opacity:1;stroke-miterlimit:10;" d="M 220.214844 171.480469 L 220.214844 56.972656 Z M 220.214844 171.480469 "/>
<path style="fill:none;stroke-width:3.200935;stroke-linecap:round;stroke-linejoin:round;stroke:rgb(100%,100%,100%);stroke-opacity:1;stroke-miterlimit:10;" d="M 220.214844 171.480469 L 220.214844 56.972656 Z M 220.214844 171.480469 "/>
<path style="fill:none;stroke-width:3.200935;stroke-linecap:round;stroke-linejoin:round;stroke:rgb(100%,100%,100%);stroke-opacity:1;stroke-miterlimit:10;" d="M 220.214844 171.480469 L 220.214844 56.972656 Z M 220.214844 171.480469 "/>
<path style="fill:none;stroke-width:3.200935;stroke-linecap:round;stroke-linejoin:round;stroke:rgb(100%,100%,100%);stroke-opacity:1;stroke-miterlimit:10;" d="M 220.214844 171.480469 L 220.214844 56.972656 Z M 220.214844 171.480469 "/>
<path style="fill-rule:nonzero;fill:rgb(100%,100%,100%);fill-opacity:1;stroke-width:1.115477;stroke-linecap:round;stroke-linejoin:round;stroke:rgb(100%,100%,100%);stroke-opacity:1;stroke-miterlimit:10;" d="M 374.808594 274.0625 L 435.457031 274.0625 L 435.457031 68.902344 L 374.808594 68.902344 Z M 374.808594 274.0625 "/>
<path style=" stroke:none;fill-rule:evenodd;fill:rgb(0%,0%,0%);fill-opacity:1;" d="M 381.289063 81.296875 L 381.292969 81.058594 L 381.300781 80.824219 L 381.320313 80.59375 L 381.339844 80.367188 L 381.371094 80.148438 L 381.40625 79.933594 L 381.449219 79.71875 L 381.496094 79.515625 L 381.550781 79.3125 L 381.613281 79.113281 L 381.679688 78.921875 L 381.757813 78.738281 L 381.839844 78.558594 L 381.925781 78.382813 L 382.019531 78.214844 L 382.121094 78.050781 L 382.226563 77.894531 L 382.339844 77.742188 L 382.460938 77.597656 L 382.585938 77.460938 L 382.71875 77.324219 L 382.859375 77.199219 L 383.003906 77.074219 L 383.15625 76.960938 L 383.316406 76.851563 L 383.480469 76.75 L 383.648438 76.652344 L 383.824219 76.566406 L 384.007813 76.480469 L 384.199219 76.40625 L 384.390625 76.335938 L 384.59375 76.269531 L 384.800781 76.214844 L 385.015625 76.167969 L 385.234375 76.125 L 385.460938 76.089844 L 385.691406 76.066406 L 385.929688 76.046875 L 386.171875 76.035156 L 386.425781 76.03125 L 386.613281 76.035156 L 386.796875 76.039063 L 386.972656 76.046875 L 387.148438 76.058594 L 387.316406 76.074219 L 387.480469 76.09375 L 387.640625 76.113281 L 387.796875 76.140625 L 387.949219 76.167969 L 388.09375 76.199219 L 388.234375 76.234375 L 388.375 76.273438 L 388.507813 76.3125 L 388.765625 76.40625 L 388.886719 76.453125 L 389.121094 76.5625 L 389.230469 76.621094 L 389.339844 76.683594 L 389.441406 76.746094 L 389.542969 76.816406 L 389.640625 76.886719 L 389.734375 76.957031 L 389.824219 77.03125 L 389.914063 77.113281 L 390 77.191406 L 390.15625 77.363281 L 390.234375 77.453125 L 390.304688 77.542969 L 390.375 77.636719 L 390.441406 77.730469 L 390.507813 77.828125 L 390.632813 78.03125 L 390.75 78.242188 L 390.804688 78.351563 L 390.855469 78.464844 L 389.523438 78.859375 L 389.484375 78.785156 L 389.441406 78.710938 L 389.402344 78.636719 L 389.355469 78.566406 L 389.3125 78.496094 L 389.265625 78.429688 L 389.164063 78.296875 L 389.0625 78.171875 L 389.007813 78.109375 L 388.949219 78.046875 L 388.890625 77.988281 L 388.832031 77.933594 L 388.769531 77.878906 L 388.703125 77.828125 L 388.5625 77.726563 L 388.492188 77.679688 L 388.417969 77.636719 L 388.339844 77.59375 L 388.257813 77.550781 L 388.175781 77.511719 L 388.003906 77.441406 L 387.914063 77.410156 L 387.820313 77.378906 L 387.726563 77.351563 L 387.53125 77.296875 L 387.429688 77.273438 L 387.21875 77.234375 L 387.109375 77.21875 L 386.996094 77.207031 L 386.761719 77.183594 L 386.640625 77.179688 L 386.515625 77.175781 L 386.203125 77.175781 L 386.023438 77.1875 L 385.847656 77.199219 L 385.675781 77.222656 L 385.511719 77.246094 L 385.347656 77.28125 L 385.191406 77.316406 L 384.894531 77.410156 L 384.753906 77.46875 L 384.617188 77.527344 L 384.488281 77.59375 L 384.363281 77.664063 L 384.242188 77.742188 L 384.125 77.824219 L 384.011719 77.910156 L 383.90625 78 L 383.800781 78.09375 L 383.703125 78.195313 L 383.613281 78.300781 L 383.523438 78.414063 L 383.4375 78.527344 L 383.359375 78.648438 L 383.285156 78.769531 L 383.214844 78.898438 L 383.148438 79.03125 L 383.085938 79.167969 L 383.03125 79.308594 L 382.976563 79.457031 L 382.929688 79.605469 L 382.886719 79.761719 L 382.851563 79.917969 L 382.816406 80.078125 L 382.789063 80.242188 L 382.765625 80.410156 L 382.746094 80.582031 L 382.730469 80.753906 L 382.71875 80.933594 L 382.710938 81.113281 L 382.710938 81.296875 L 382.71875 81.664063 L 382.730469 81.84375 L 382.769531 82.1875 L 382.796875 82.359375 L 382.828125 82.523438 L 382.867188 82.6875 L 382.90625 82.847656 L 382.953125 83.003906 L 383.003906 83.15625 L 383.058594 83.304688 L 383.117188 83.445313 L 383.183594 83.585938 L 383.253906 83.722656 L 383.328125 83.851563 L 383.40625 83.980469 L 383.488281 84.101563 L 383.578125 84.222656 L 383.671875 84.335938 L 383.769531 84.445313 L 383.871094 84.550781 L 383.976563 84.648438 L 384.085938 84.742188 L 384.203125 84.832031 L 384.324219 84.917969 L 384.449219 85 L 384.578125 85.074219 L 384.710938 85.144531 L 384.847656 85.207031 L 384.992188 85.265625 L 385.140625 85.320313 L 385.296875 85.367188 L 385.453125 85.40625 L 385.613281 85.441406 L 385.78125 85.46875 L 385.953125 85.488281 L 386.125 85.503906 L 386.304688 85.511719 L 386.488281 85.515625 L 386.609375 85.515625 L 386.730469 85.511719 L 386.847656 85.507813 L 387.074219 85.492188 L 387.183594 85.480469 L 387.402344 85.449219 L 387.507813 85.433594 L 387.710938 85.394531 L 387.8125 85.371094 L 387.910156 85.347656 L 388.003906 85.324219 L 388.097656 85.296875 L 388.277344 85.242188 L 388.367188 85.210938 L 388.449219 85.183594 L 388.535156 85.148438 L 388.617188 85.117188 L 388.851563 85.011719 L 388.925781 84.972656 L 388.996094 84.9375 L 389.066406 84.898438 L 389.136719 84.863281 L 389.203125 84.824219 L 389.265625 84.785156 L 389.328125 84.742188 L 389.386719 84.703125 L 389.445313 84.660156 L 389.5 84.621094 L 389.554688 84.578125 L 389.605469 84.539063 L 389.65625 84.496094 L 389.703125 84.457031 L 389.75 84.414063 L 389.792969 84.375 L 389.792969 82.511719 L 386.710938 82.511719 L 386.710938 81.339844 L 391.082031 81.339844 L 391.082031 84.902344 L 391.011719 84.972656 L 390.941406 85.039063 L 390.785156 85.179688 L 390.707031 85.246094 L 390.625 85.3125 L 390.453125 85.445313 L 390.363281 85.511719 L 390.175781 85.636719 L 390.078125 85.699219 L 389.882813 85.816406 L 389.566406 85.980469 L 389.457031 86.03125 L 389.230469 86.132813 L 389.113281 86.179688 L 388.75 86.308594 L 388.625 86.347656 L 388.496094 86.386719 L 388.367188 86.417969 L 388.234375 86.453125 L 388.097656 86.484375 L 387.824219 86.539063 L 387.683594 86.5625 L 387.394531 86.601563 L 387.25 86.617188 L 386.953125 86.640625 L 386.800781 86.644531 L 386.488281 86.652344 L 386.234375 86.648438 L 385.980469 86.636719 L 385.738281 86.617188 L 385.5 86.589844 L 385.269531 86.554688 L 385.042969 86.507813 L 384.828125 86.457031 L 384.613281 86.398438 L 384.410156 86.332031 L 384.210938 86.257813 L 384.019531 86.171875 L 383.835938 86.082031 L 383.65625 85.988281 L 383.484375 85.882813 L 383.320313 85.777344 L 383.160156 85.660156 L 383.007813 85.542969 L 382.859375 85.414063 L 382.71875 85.28125 L 382.585938 85.144531 L 382.460938 84.996094 L 382.339844 84.84375 L 382.226563 84.6875 L 382.121094 84.527344 L 382.019531 84.359375 L 381.925781 84.1875 L 381.839844 84.007813 L 381.757813 83.824219 L 381.679688 83.636719 L 381.613281 83.445313 L 381.550781 83.246094 L 381.496094 83.042969 L 381.449219 82.839844 L 381.40625 82.628906 L 381.371094 82.417969 L 381.339844 82.199219 L 381.320313 81.980469 L 381.300781 81.757813 L 381.292969 81.527344 Z M 381.289063 81.296875 "/>
<path style=" stroke:none;fill-rule:evenodd;fill:rgb(0%,0%,0%);fill-opacity:1;" d="M 393.242188 86.503906 L 393.242188 80.125 L 393.238281 80.074219 L 393.238281 79.972656 L 393.234375 79.921875 L 393.234375 79.613281 L 393.230469 79.5625 L 393.230469 79.464844 L 393.226563 79.414063 L 393.226563 79.320313 L 393.222656 79.273438 L 393.222656 79.179688 L 393.21875 79.136719 L 393.21875 79.089844 L 393.214844 79.046875 L 393.214844 78.960938 L 393.210938 78.917969 L 393.210938 78.835938 L 393.207031 78.796875 L 393.207031 78.761719 L 393.203125 78.722656 L 393.203125 78.648438 L 393.199219 78.613281 L 393.199219 78.582031 L 394.445313 78.582031 L 394.445313 78.648438 L 394.449219 78.6875 L 394.449219 78.722656 L 394.453125 78.761719 L 394.453125 78.839844 L 394.457031 78.882813 L 394.457031 78.96875 L 394.46875 79.097656 L 394.46875 79.140625 L 394.472656 79.183594 L 394.472656 79.230469 L 394.476563 79.273438 L 394.476563 79.316406 L 394.480469 79.363281 L 394.480469 79.40625 L 394.484375 79.453125 L 394.484375 79.5 L 394.488281 79.542969 L 394.488281 79.585938 L 394.492188 79.632813 L 394.492188 79.71875 L 394.496094 79.761719 L 394.496094 79.925781 L 394.5 79.964844 L 394.5 80.074219 L 394.503906 80.105469 L 394.503906 80.199219 L 394.53125 80.199219 L 394.558594 80.109375 L 394.589844 80.023438 L 394.617188 79.9375 L 394.644531 79.855469 L 394.675781 79.777344 L 394.703125 79.699219 L 394.765625 79.550781 L 394.792969 79.484375 L 394.824219 79.414063 L 394.859375 79.347656 L 394.890625 79.285156 L 394.925781 79.222656 L 394.960938 79.164063 L 395 79.109375 L 395.035156 79.054688 L 395.074219 79.003906 L 395.117188 78.957031 L 395.15625 78.910156 L 395.285156 78.78125 L 395.332031 78.746094 L 395.382813 78.710938 L 395.429688 78.675781 L 395.480469 78.644531 L 395.589844 78.589844 L 395.644531 78.566406 L 395.703125 78.542969 L 395.761719 78.523438 L 395.824219 78.503906 L 395.957031 78.472656 L 396.027344 78.460938 L 396.175781 78.445313 L 396.253906 78.4375 L 396.332031 78.433594 L 396.476563 78.433594 L 396.507813 78.4375 L 396.539063 78.4375 L 396.664063 78.453125 L 396.691406 78.457031 L 396.722656 78.464844 L 396.804688 78.476563 L 396.875 78.488281 L 396.894531 78.492188 L 396.914063 78.5 L 396.933594 78.503906 L 396.949219 78.507813 L 396.949219 79.714844 L 396.921875 79.707031 L 396.894531 79.703125 L 396.867188 79.695313 L 396.835938 79.691406 L 396.804688 79.683594 L 396.710938 79.671875 L 396.570313 79.65625 L 396.492188 79.648438 L 396.453125 79.648438 L 396.414063 79.644531 L 396.289063 79.644531 L 396.246094 79.640625 L 396.15625 79.644531 L 395.984375 79.660156 L 395.902344 79.675781 L 395.824219 79.695313 L 395.75 79.714844 L 395.675781 79.742188 L 395.605469 79.773438 L 395.535156 79.808594 L 395.46875 79.847656 L 395.40625 79.890625 L 395.289063 79.984375 L 395.234375 80.039063 L 395.183594 80.09375 L 395.132813 80.152344 L 395.082031 80.214844 L 395.035156 80.277344 L 394.949219 80.417969 L 394.910156 80.492188 L 394.875 80.566406 L 394.839844 80.648438 L 394.777344 80.8125 L 394.722656 80.992188 L 394.699219 81.085938 L 394.675781 81.183594 L 394.65625 81.28125 L 394.636719 81.382813 L 394.621094 81.484375 L 394.609375 81.589844 L 394.59375 81.695313 L 394.578125 81.914063 L 394.570313 82.027344 L 394.566406 82.140625 L 394.5625 82.257813 L 394.5625 86.503906 Z M 393.242188 86.503906 "/>
<path style=" stroke:none;fill-rule:evenodd;fill:rgb(0%,0%,0%);fill-opacity:1;" d="M 400.230469 86.652344 L 399.996094 86.644531 L 399.777344 86.625 L 399.566406 86.59375 L 399.371094 86.550781 L 399.183594 86.496094 L 399.011719 86.425781 L 398.847656 86.34375 L 398.699219 86.25 L 398.5625 86.140625 L 398.4375 86.023438 L 398.320313 85.890625 L 398.21875 85.75 L 398.128906 85.601563 L 398.050781 85.441406 L 397.984375 85.273438 L 397.929688 85.097656 L 397.890625 84.910156 L 397.859375 84.714844 L 397.839844 84.507813 L 397.835938 84.292969 L 397.839844 84.140625 L 397.847656 83.992188 L 397.863281 83.847656 L 397.882813 83.710938 L 397.910156 83.582031 L 397.941406 83.457031 L 397.980469 83.335938 L 398.023438 83.222656 L 398.074219 83.113281 L 398.128906 83.011719 L 398.253906 82.816406 L 398.324219 82.726563 L 398.398438 82.640625 L 398.472656 82.5625 L 398.550781 82.484375 L 398.632813 82.410156 L 398.722656 82.34375 L 398.8125 82.28125 L 398.90625 82.21875 L 399.003906 82.164063 L 399.101563 82.113281 L 399.3125 82.019531 L 399.53125 81.941406 L 399.644531 81.90625 L 399.761719 81.875 L 399.882813 81.847656 L 400.003906 81.824219 L 400.125 81.804688 L 400.25 81.785156 L 400.625 81.738281 L 400.75 81.726563 L 401 81.710938 L 401.128906 81.703125 L 401.253906 81.699219 L 403.035156 81.671875 L 403.035156 81.140625 L 403.03125 81.046875 L 403.027344 80.957031 L 403.019531 80.871094 L 403.007813 80.785156 L 403 80.703125 L 402.96875 80.546875 L 402.953125 80.472656 L 402.933594 80.402344 L 402.910156 80.335938 L 402.863281 80.210938 L 402.804688 80.09375 L 402.769531 80.039063 L 402.699219 79.9375 L 402.660156 79.890625 L 402.574219 79.804688 L 402.527344 79.765625 L 402.480469 79.730469 L 402.429688 79.695313 L 402.378906 79.664063 L 402.324219 79.636719 L 402.207031 79.582031 L 402.148438 79.558594 L 402.082031 79.539063 L 402.019531 79.519531 L 401.953125 79.503906 L 401.8125 79.472656 L 401.738281 79.464844 L 401.664063 79.453125 L 401.585938 79.445313 L 401.421875 79.4375 L 401.261719 79.4375 L 401.1875 79.441406 L 401.113281 79.441406 L 401.042969 79.445313 L 400.972656 79.453125 L 400.90625 79.457031 L 400.839844 79.464844 L 400.773438 79.476563 L 400.710938 79.484375 L 400.585938 79.507813 L 400.527344 79.519531 L 400.46875 79.535156 L 400.414063 79.550781 L 400.359375 79.570313 L 400.308594 79.589844 L 400.257813 79.613281 L 400.207031 79.640625 L 400.160156 79.664063 L 400.113281 79.695313 L 400.070313 79.722656 L 399.984375 79.785156 L 399.945313 79.824219 L 399.90625 79.859375 L 399.871094 79.898438 L 399.839844 79.941406 L 399.804688 79.988281 L 399.777344 80.03125 L 399.746094 80.082031 L 399.71875 80.132813 L 399.695313 80.183594 L 399.671875 80.238281 L 399.632813 80.355469 L 399.613281 80.417969 L 399.597656 80.484375 L 399.5625 80.695313 L 398.1875 80.574219 L 398.203125 80.480469 L 398.222656 80.386719 L 398.242188 80.296875 L 398.265625 80.210938 L 398.320313 80.039063 L 398.355469 79.957031 L 398.386719 79.875 L 398.425781 79.792969 L 398.464844 79.714844 L 398.507813 79.636719 L 398.601563 79.488281 L 398.710938 79.347656 L 398.835938 79.214844 L 398.902344 79.152344 L 398.96875 79.09375 L 399.042969 79.035156 L 399.121094 78.980469 L 399.203125 78.925781 L 399.289063 78.875 L 399.46875 78.78125 L 399.566406 78.738281 L 399.769531 78.660156 L 399.878906 78.628906 L 399.988281 78.59375 L 400.105469 78.5625 L 400.226563 78.535156 L 400.351563 78.511719 L 400.617188 78.472656 L 400.757813 78.460938 L 400.902344 78.449219 L 401.050781 78.441406 L 401.207031 78.433594 L 401.367188 78.433594 L 401.65625 78.441406 L 401.933594 78.460938 L 402.195313 78.496094 L 402.441406 78.542969 L 402.675781 78.605469 L 402.890625 78.683594 L 403.09375 78.769531 L 403.28125 78.875 L 403.457031 78.992188 L 403.613281 79.121094 L 403.757813 79.265625 L 403.886719 79.417969 L 404 79.585938 L 404.097656 79.765625 L 404.179688 79.957031 L 404.246094 80.160156 L 404.300781 80.378906 L 404.339844 80.605469 L 404.359375 80.847656 L 404.367188 81.101563 L 404.367188 84.511719 L 404.371094 84.628906 L 404.375 84.734375 L 404.382813 84.839844 L 404.394531 84.9375 L 404.40625 85.027344 L 404.421875 85.113281 L 404.46875 85.269531 L 404.492188 85.335938 L 404.523438 85.398438 L 404.554688 85.453125 L 404.59375 85.503906 L 404.640625 85.546875 L 404.691406 85.585938 L 404.746094 85.617188 L 404.808594 85.644531 L 404.875 85.664063 L 404.945313 85.679688 L 405.023438 85.6875 L 405.109375 85.691406 L 405.195313 85.691406 L 405.21875 85.6875 L 405.238281 85.6875 L 405.261719 85.683594 L 405.285156 85.683594 L 405.304688 85.679688 L 405.328125 85.675781 L 405.351563 85.675781 L 405.371094 85.671875 L 405.394531 85.667969 L 405.414063 85.664063 L 405.4375 85.660156 L 405.476563 85.652344 L 405.5 85.648438 L 405.539063 85.640625 L 405.539063 86.460938 L 405.492188 86.472656 L 405.441406 86.484375 L 405.390625 86.492188 L 405.339844 86.503906 L 405.292969 86.511719 L 405.140625 86.535156 L 405.09375 86.542969 L 405.042969 86.550781 L 404.992188 86.554688 L 404.945313 86.558594 L 404.792969 86.570313 L 404.738281 86.574219 L 404.6875 86.574219 L 404.632813 86.578125 L 404.449219 86.578125 L 404.375 86.574219 L 404.308594 86.570313 L 404.238281 86.5625 L 404.175781 86.554688 L 404.109375 86.542969 L 404.050781 86.53125 L 403.988281 86.515625 L 403.878906 86.484375 L 403.824219 86.460938 L 403.777344 86.4375 L 403.726563 86.414063 L 403.683594 86.386719 L 403.636719 86.355469 L 403.59375 86.324219 L 403.554688 86.292969 L 403.515625 86.257813 L 403.480469 86.222656 L 403.445313 86.183594 L 403.382813 86.097656 L 403.351563 86.050781 L 403.296875 85.957031 L 403.273438 85.90625 L 403.226563 85.796875 L 403.207031 85.742188 L 403.1875 85.683594 L 403.171875 85.625 L 403.15625 85.5625 L 403.140625 85.496094 L 403.128906 85.429688 L 403.117188 85.359375 L 403.109375 85.289063 L 403.097656 85.21875 L 403.089844 85.144531 L 403.085938 85.066406 L 403.078125 84.988281 L 403.035156 84.988281 L 402.992188 85.066406 L 402.949219 85.136719 L 402.902344 85.210938 L 402.859375 85.28125 L 402.8125 85.351563 L 402.765625 85.417969 L 402.714844 85.488281 L 402.667969 85.550781 L 402.617188 85.617188 L 402.566406 85.675781 L 402.515625 85.738281 L 402.464844 85.796875 L 402.410156 85.855469 L 402.351563 85.910156 L 402.296875 85.964844 L 402.234375 86.015625 L 402.175781 86.066406 L 402.113281 86.113281 L 402.046875 86.160156 L 401.914063 86.246094 L 401.84375 86.285156 L 401.769531 86.324219 L 401.621094 86.394531 L 401.542969 86.425781 L 401.460938 86.457031 L 401.296875 86.511719 L 401.125 86.558594 L 401.035156 86.578125 L 400.945313 86.59375 L 400.851563 86.609375 L 400.65625 86.632813 L 400.550781 86.640625 L 400.449219 86.648438 L 400.339844 86.652344 Z M 400.53125 85.664063 L 400.65625 85.660156 L 400.777344 85.652344 L 400.894531 85.640625 L 401.007813 85.625 L 401.121094 85.605469 L 401.226563 85.582031 L 401.332031 85.550781 L 401.433594 85.519531 L 401.535156 85.480469 L 401.628906 85.4375 L 401.722656 85.386719 L 401.8125 85.335938 L 401.898438 85.285156 L 401.984375 85.226563 L 402.0625 85.171875 L 402.140625 85.109375 L 402.214844 85.046875 L 402.347656 84.914063 L 402.414063 84.84375 L 402.53125 84.695313 L 402.640625 84.546875 L 402.6875 84.46875 L 402.734375 84.386719 L 402.773438 84.308594 L 402.8125 84.226563 L 402.847656 84.144531 L 402.882813 84.058594 L 402.910156 83.972656 L 402.9375 83.890625 L 402.960938 83.808594 L 402.980469 83.726563 L 403.011719 83.5625 L 403.023438 83.480469 L 403.027344 83.402344 L 403.035156 83.324219 L 403.035156 82.59375 L 401.59375 82.625 L 401.496094 82.625 L 401.402344 82.628906 L 401.304688 82.632813 L 401.210938 82.636719 L 401.121094 82.644531 L 401.027344 82.652344 L 400.9375 82.664063 L 400.847656 82.671875 L 400.667969 82.695313 L 400.585938 82.710938 L 400.5 82.726563 L 400.417969 82.742188 L 400.339844 82.761719 L 400.261719 82.785156 L 400.113281 82.839844 L 400.042969 82.871094 L 399.976563 82.902344 L 399.90625 82.9375 L 399.78125 83.015625 L 399.664063 83.109375 L 399.609375 83.15625 L 399.558594 83.210938 L 399.511719 83.265625 L 399.464844 83.324219 L 399.378906 83.449219 L 399.34375 83.519531 L 399.3125 83.589844 L 399.257813 83.746094 L 399.238281 83.832031 L 399.21875 83.921875 L 399.207031 84.011719 L 399.199219 84.109375 L 399.191406 84.210938 L 399.191406 84.316406 L 399.195313 84.441406 L 399.203125 84.5625 L 399.222656 84.675781 L 399.246094 84.785156 L 399.277344 84.886719 L 399.3125 84.984375 L 399.359375 85.074219 L 399.410156 85.160156 L 399.46875 85.238281 L 399.535156 85.3125 L 399.609375 85.378906 L 399.6875 85.4375 L 399.773438 85.492188 L 399.863281 85.535156 L 399.960938 85.574219 L 400.0625 85.605469 L 400.171875 85.632813 L 400.285156 85.648438 L 400.40625 85.660156 Z M 400.53125 85.664063 "/>
<path style=" stroke:none;fill-rule:evenodd;fill:rgb(0%,0%,0%);fill-opacity:1;" d="M 411.554688 85.230469 L 411.476563 85.378906 L 411.398438 85.519531 L 411.3125 85.648438 L 411.222656 85.769531 L 411.125 85.882813 L 411.027344 85.988281 L 410.921875 86.085938 L 410.8125 86.171875 L 410.699219 86.25 L 410.578125 86.320313 L 410.457031 86.382813 L 410.328125 86.441406 L 410.191406 86.488281 L 410.050781 86.53125 L 409.90625 86.570313 L 409.753906 86.597656 L 409.59375 86.621094 L 409.429688 86.636719 L 409.261719 86.648438 L 409.085938 86.652344 L 408.792969 86.640625 L 408.515625 86.609375 L 408.253906 86.5625 L 408.011719 86.488281 L 407.78125 86.398438 L 407.566406 86.289063 L 407.371094 86.15625 L 407.1875 86.003906 L 407.023438 85.832031 L 406.875 85.640625 L 406.738281 85.429688 L 406.621094 85.195313 L 406.515625 84.941406 L 406.421875 84.664063 L 406.347656 84.371094 L 406.28125 84.054688 L 406.234375 83.714844 L 406.199219 83.359375 L 406.175781 82.980469 L 406.171875 82.578125 L 406.199219 81.792969 L 406.285156 81.085938 L 406.433594 80.464844 L 406.636719 79.925781 L 406.898438 79.46875 L 407.21875 79.097656 L 407.597656 78.808594 L 408.035156 78.601563 L 408.53125 78.476563 L 409.085938 78.433594 L 409.261719 78.4375 L 409.433594 78.445313 L 409.597656 78.464844 L 409.757813 78.488281 L 409.910156 78.515625 L 410.058594 78.550781 L 410.199219 78.59375 L 410.335938 78.644531 L 410.464844 78.699219 L 410.585938 78.761719 L 410.703125 78.832031 L 410.816406 78.910156 L 410.925781 78.996094 L 411.03125 79.089844 L 411.128906 79.191406 L 411.222656 79.296875 L 411.3125 79.414063 L 411.398438 79.539063 L 411.476563 79.671875 L 411.554688 79.8125 L 411.566406 79.8125 L 411.566406 79.667969 L 411.5625 79.640625 L 411.5625 79.550781 L 411.558594 79.519531 L 411.558594 79.355469 L 411.554688 79.320313 L 411.554688 75.636719 L 412.871094 75.636719 L 412.871094 85.421875 L 412.875 85.472656 L 412.875 85.574219 L 412.878906 85.625 L 412.878906 85.722656 L 412.882813 85.769531 L 412.882813 85.816406 L 412.886719 85.859375 L 412.886719 85.949219 L 412.890625 85.988281 L 412.890625 86.070313 L 412.894531 86.109375 L 412.894531 86.148438 L 412.898438 86.183594 L 412.898438 86.253906 L 412.902344 86.285156 L 412.902344 86.34375 L 412.90625 86.371094 L 412.90625 86.394531 L 412.910156 86.417969 L 412.910156 86.457031 L 412.914063 86.476563 L 412.914063 86.503906 L 411.65625 86.503906 L 411.648438 86.472656 L 411.648438 86.457031 L 411.640625 86.417969 L 411.636719 86.394531 L 411.636719 86.375 L 411.632813 86.351563 L 411.628906 86.324219 L 411.625 86.300781 L 411.625 86.242188 L 411.621094 86.214844 L 411.621094 86.183594 L 411.617188 86.152344 L 411.617188 86.121094 L 411.613281 86.085938 L 411.609375 86.054688 L 411.609375 86.019531 L 411.601563 85.949219 L 411.601563 85.878906 L 411.597656 85.84375 L 411.597656 85.769531 L 411.59375 85.730469 L 411.59375 85.695313 L 411.589844 85.65625 L 411.589844 85.578125 L 411.585938 85.539063 L 411.585938 85.421875 L 411.582031 85.382813 L 411.582031 85.230469 Z M 407.554688 82.535156 L 407.554688 82.695313 L 407.558594 82.855469 L 407.5625 83.007813 L 407.578125 83.296875 L 407.589844 83.433594 L 407.605469 83.570313 L 407.621094 83.699219 L 407.636719 83.820313 L 407.65625 83.941406 L 407.679688 84.058594 L 407.703125 84.167969 L 407.757813 84.378906 L 407.789063 84.476563 L 407.824219 84.570313 L 407.863281 84.660156 L 407.941406 84.832031 L 407.988281 84.910156 L 408.03125 84.980469 L 408.082031 85.050781 L 408.132813 85.113281 L 408.1875 85.175781 L 408.246094 85.234375 L 408.304688 85.285156 L 408.367188 85.335938 L 408.429688 85.378906 L 408.496094 85.421875 L 408.636719 85.492188 L 408.710938 85.519531 L 408.789063 85.546875 L 408.871094 85.570313 L 408.957031 85.589844 L 409.042969 85.605469 L 409.132813 85.617188 L 409.226563 85.625 L 409.324219 85.632813 L 409.523438 85.632813 L 409.625 85.625 L 409.722656 85.617188 L 409.816406 85.605469 L 409.910156 85.589844 L 410 85.574219 L 410.089844 85.550781 L 410.175781 85.527344 L 410.257813 85.496094 L 410.335938 85.464844 L 410.417969 85.429688 L 410.492188 85.390625 L 410.566406 85.34375 L 410.636719 85.296875 L 410.707031 85.246094 L 410.832031 85.128906 L 410.894531 85.0625 L 410.949219 84.996094 L 411.003906 84.921875 L 411.058594 84.84375 L 411.105469 84.761719 L 411.15625 84.675781 L 411.199219 84.582031 L 411.242188 84.484375 L 411.28125 84.382813 L 411.320313 84.277344 L 411.351563 84.167969 L 411.386719 84.054688 L 411.414063 83.933594 L 411.441406 83.808594 L 411.464844 83.679688 L 411.484375 83.546875 L 411.503906 83.40625 L 411.519531 83.257813 L 411.53125 83.105469 L 411.539063 82.949219 L 411.546875 82.789063 L 411.550781 82.621094 L 411.554688 82.449219 L 411.550781 82.28125 L 411.546875 82.121094 L 411.539063 81.964844 L 411.53125 81.816406 L 411.519531 81.671875 L 411.503906 81.53125 L 411.484375 81.398438 L 411.464844 81.269531 L 411.441406 81.144531 L 411.386719 80.910156 L 411.351563 80.800781 L 411.320313 80.695313 L 411.28125 80.59375 L 411.242188 80.496094 L 411.15625 80.316406 L 411.105469 80.234375 L 411.058594 80.15625 L 411.003906 80.082031 L 410.949219 80.011719 L 410.890625 79.945313 L 410.832031 79.886719 L 410.765625 79.828125 L 410.703125 79.773438 L 410.5625 79.679688 L 410.492188 79.640625 L 410.414063 79.601563 L 410.257813 79.539063 L 410.175781 79.511719 L 410.09375 79.488281 L 410.007813 79.464844 L 409.828125 79.433594 L 409.734375 79.421875 L 409.636719 79.414063 L 409.539063 79.410156 L 409.4375 79.40625 L 409.339844 79.410156 L 409.25 79.414063 L 409.160156 79.421875 L 409.070313 79.433594 L 408.984375 79.449219 L 408.902344 79.46875 L 408.746094 79.515625 L 408.671875 79.542969 L 408.53125 79.613281 L 408.464844 79.652344 L 408.402344 79.695313 L 408.339844 79.742188 L 408.222656 79.851563 L 408.113281 79.976563 L 408.0625 80.046875 L 408.015625 80.117188 L 407.96875 80.195313 L 407.925781 80.277344 L 407.886719 80.363281 L 407.847656 80.453125 L 407.8125 80.546875 L 407.777344 80.648438 L 407.746094 80.753906 L 407.714844 80.863281 L 407.6875 80.976563 L 407.664063 81.09375 L 407.644531 81.214844 L 407.625 81.339844 L 407.609375 81.472656 L 407.59375 81.609375 L 407.582031 81.75 L 407.570313 81.898438 L 407.5625 82.046875 L 407.554688 82.367188 Z M 407.554688 82.535156 "/>
<path style=" stroke:none;fill-rule:evenodd;fill:rgb(0%,0%,0%);fill-opacity:1;" d="M 415.902344 82.820313 L 415.90625 82.945313 L 415.914063 83.1875 L 415.925781 83.304688 L 415.933594 83.417969 L 415.949219 83.535156 L 415.964844 83.644531 L 415.984375 83.757813 L 416.003906 83.863281 L 416.027344 83.972656 L 416.054688 84.074219 L 416.085938 84.171875 L 416.121094 84.269531 L 416.191406 84.457031 L 416.234375 84.546875 L 416.277344 84.628906 L 416.324219 84.714844 L 416.371094 84.792969 L 416.425781 84.871094 L 416.480469 84.945313 L 416.539063 85.015625 L 416.601563 85.082031 L 416.664063 85.144531 L 416.730469 85.207031 L 416.800781 85.261719 L 416.875 85.316406 L 416.953125 85.367188 L 417.03125 85.414063 L 417.113281 85.457031 L 417.199219 85.496094 L 417.285156 85.53125 L 417.378906 85.5625 L 417.472656 85.589844 L 417.570313 85.613281 L 417.78125 85.644531 L 417.886719 85.65625 L 418 85.660156 L 418.117188 85.664063 L 418.285156 85.660156 L 418.445313 85.648438 L 418.597656 85.632813 L 418.746094 85.609375 L 418.886719 85.578125 L 419.019531 85.539063 L 419.148438 85.496094 L 419.265625 85.441406 L 419.378906 85.382813 L 419.484375 85.320313 L 419.585938 85.246094 L 419.679688 85.171875 L 419.765625 85.09375 L 419.847656 85.015625 L 419.921875 84.929688 L 419.988281 84.839844 L 420.046875 84.746094 L 420.101563 84.652344 L 420.148438 84.550781 L 420.1875 84.445313 L 421.347656 84.777344 L 421.292969 84.910156 L 421.230469 85.042969 L 421.160156 85.175781 L 421.082031 85.308594 L 420.996094 85.441406 L 420.949219 85.507813 L 420.898438 85.574219 L 420.847656 85.636719 L 420.792969 85.699219 L 420.675781 85.816406 L 420.613281 85.875 L 420.542969 85.933594 L 420.402344 86.042969 L 420.324219 86.09375 L 420.160156 86.195313 L 420.070313 86.242188 L 419.980469 86.285156 L 419.785156 86.371094 L 419.679688 86.410156 L 419.574219 86.445313 L 419.464844 86.484375 L 419.351563 86.515625 L 419.109375 86.570313 L 418.980469 86.589844 L 418.847656 86.609375 L 418.710938 86.625 L 418.570313 86.636719 L 418.421875 86.644531 L 418.273438 86.648438 L 418.117188 86.652344 L 417.773438 86.640625 L 417.445313 86.609375 L 417.136719 86.558594 L 416.84375 86.484375 L 416.566406 86.390625 L 416.308594 86.273438 L 416.0625 86.136719 L 415.835938 85.980469 L 415.628906 85.804688 L 415.433594 85.605469 L 415.261719 85.382813 L 415.105469 85.144531 L 414.96875 84.882813 L 414.847656 84.605469 L 414.75 84.300781 L 414.667969 83.980469 L 414.601563 83.640625 L 414.554688 83.277344 L 414.527344 82.894531 L 414.519531 82.492188 L 414.523438 82.273438 L 414.53125 82.058594 L 414.542969 81.855469 L 414.5625 81.65625 L 414.589844 81.464844 L 414.621094 81.28125 L 414.65625 81.101563 L 414.699219 80.929688 L 414.746094 80.765625 L 414.796875 80.609375 L 414.855469 80.457031 L 414.917969 80.308594 L 414.984375 80.167969 L 415.054688 80.035156 L 415.128906 79.90625 L 415.207031 79.78125 L 415.289063 79.664063 L 415.375 79.554688 L 415.464844 79.449219 L 415.558594 79.347656 L 415.65625 79.253906 L 415.757813 79.167969 L 415.863281 79.082031 L 416.082031 78.933594 L 416.199219 78.867188 L 416.316406 78.804688 L 416.4375 78.75 L 416.558594 78.699219 L 416.6875 78.652344 L 416.816406 78.613281 L 416.949219 78.574219 L 417.082031 78.542969 L 417.21875 78.511719 L 417.355469 78.488281 L 417.492188 78.46875 L 417.632813 78.453125 L 417.773438 78.441406 L 417.917969 78.4375 L 418.066406 78.433594 L 418.261719 78.4375 L 418.449219 78.445313 L 418.632813 78.464844 L 418.808594 78.484375 L 418.976563 78.515625 L 419.140625 78.550781 L 419.296875 78.59375 L 419.449219 78.640625 L 419.589844 78.695313 L 419.726563 78.757813 L 419.859375 78.824219 L 419.984375 78.894531 L 420.105469 78.972656 L 420.222656 79.054688 L 420.332031 79.140625 L 420.4375 79.234375 L 420.539063 79.328125 L 420.632813 79.429688 L 420.804688 79.648438 L 420.882813 79.765625 L 420.957031 79.882813 L 421.027344 80.007813 L 421.09375 80.132813 L 421.210938 80.398438 L 421.257813 80.539063 L 421.304688 80.683594 L 421.347656 80.832031 L 421.382813 80.984375 L 421.414063 81.136719 L 421.445313 81.296875 L 421.472656 81.457031 L 421.496094 81.617188 L 421.515625 81.78125 L 421.53125 81.949219 L 421.542969 82.121094 L 421.550781 82.292969 L 421.558594 82.644531 L 421.558594 82.820313 Z M 420.195313 81.808594 L 420.167969 81.566406 L 420.136719 81.335938 L 420.09375 81.121094 L 420.042969 80.917969 L 419.980469 80.726563 L 419.914063 80.550781 L 419.835938 80.390625 L 419.753906 80.242188 L 419.660156 80.109375 L 419.558594 79.988281 L 419.449219 79.875 L 419.328125 79.777344 L 419.199219 79.691406 L 419.0625 79.617188 L 418.917969 79.550781 L 418.761719 79.5 L 418.59375 79.460938 L 418.417969 79.429688 L 418.234375 79.414063 L 418.042969 79.40625 L 417.910156 79.414063 L 417.839844 79.417969 L 417.773438 79.425781 L 417.703125 79.433594 L 417.632813 79.449219 L 417.5625 79.460938 L 417.492188 79.476563 L 417.417969 79.496094 L 417.347656 79.519531 L 417.277344 79.539063 L 417.136719 79.59375 L 417.066406 79.625 L 416.933594 79.703125 L 416.871094 79.742188 L 416.804688 79.789063 L 416.679688 79.890625 L 416.5625 80.007813 L 416.503906 80.070313 L 416.449219 80.140625 L 416.398438 80.210938 L 416.34375 80.289063 L 416.296875 80.367188 L 416.203125 80.539063 L 416.160156 80.632813 L 416.121094 80.726563 L 416.082031 80.824219 L 416.050781 80.929688 L 416.019531 81.042969 L 415.992188 81.15625 L 415.972656 81.277344 L 415.953125 81.402344 L 415.9375 81.535156 L 415.925781 81.667969 L 415.917969 81.808594 Z M 420.195313 81.808594 "/>
<path style=" stroke:none;fill-rule:evenodd;fill:rgb(0%,0%,0%);fill-opacity:1;" d="M 429.183594 84.316406 L 429.175781 84.535156 L 429.164063 84.640625 L 429.148438 84.742188 L 429.128906 84.84375 L 429.105469 84.941406 L 429.074219 85.039063 L 429.042969 85.132813 L 428.964844 85.3125 L 428.917969 85.394531 L 428.871094 85.480469 L 428.761719 85.636719 L 428.703125 85.710938 L 428.570313 85.851563 L 428.496094 85.917969 L 428.421875 85.980469 L 428.339844 86.042969 L 428.257813 86.101563 L 428.167969 86.15625 L 428.078125 86.207031 L 427.980469 86.257813 L 427.882813 86.304688 L 427.78125 86.347656 L 427.671875 86.390625 L 427.5625 86.429688 L 427.449219 86.464844 L 427.328125 86.496094 L 427.210938 86.527344 L 427.085938 86.554688 L 426.957031 86.578125 L 426.828125 86.597656 L 426.554688 86.628906 L 426.414063 86.636719 L 426.269531 86.644531 L 426.121094 86.648438 L 425.96875 86.652344 L 425.832031 86.652344 L 425.699219 86.648438 L 425.566406 86.640625 L 425.4375 86.632813 L 425.3125 86.625 L 425.1875 86.613281 L 425.066406 86.597656 L 424.949219 86.582031 L 424.722656 86.542969 L 424.613281 86.519531 L 424.507813 86.496094 L 424.40625 86.46875 L 424.304688 86.4375 L 424.207031 86.40625 L 424.109375 86.371094 L 423.929688 86.292969 L 423.839844 86.25 L 423.753906 86.203125 L 423.671875 86.15625 L 423.59375 86.105469 L 423.515625 86.050781 L 423.441406 85.992188 L 423.371094 85.933594 L 423.300781 85.871094 L 423.234375 85.804688 L 423.109375 85.664063 L 423.050781 85.589844 L 423 85.511719 L 422.945313 85.425781 L 422.851563 85.253906 L 422.8125 85.160156 L 422.769531 85.0625 L 422.734375 84.964844 L 422.699219 84.859375 L 422.671875 84.753906 L 422.640625 84.644531 L 423.808594 84.417969 L 423.84375 84.542969 L 423.886719 84.660156 L 423.941406 84.769531 L 424 84.875 L 424.066406 84.972656 L 424.136719 85.0625 L 424.21875 85.144531 L 424.304688 85.222656 L 424.402344 85.292969 L 424.503906 85.355469 L 424.613281 85.410156 L 424.730469 85.460938 L 424.855469 85.503906 L 424.988281 85.542969 L 425.132813 85.574219 L 425.28125 85.601563 L 425.441406 85.621094 L 425.609375 85.636719 L 425.785156 85.644531 L 425.96875 85.648438 L 426.050781 85.648438 L 426.132813 85.644531 L 426.214844 85.644531 L 426.296875 85.640625 L 426.375 85.632813 L 426.449219 85.628906 L 426.527344 85.621094 L 426.601563 85.609375 L 426.671875 85.601563 L 426.742188 85.589844 L 426.816406 85.578125 L 427.015625 85.53125 L 427.078125 85.511719 L 427.136719 85.492188 L 427.253906 85.445313 L 427.308594 85.417969 L 427.410156 85.363281 L 427.457031 85.328125 L 427.503906 85.296875 L 427.546875 85.261719 L 427.625 85.183594 L 427.660156 85.144531 L 427.695313 85.101563 L 427.726563 85.058594 L 427.753906 85.011719 L 427.808594 84.910156 L 427.847656 84.800781 L 427.863281 84.742188 L 427.878906 84.679688 L 427.894531 84.554688 L 427.898438 84.488281 L 427.902344 84.417969 L 427.898438 84.347656 L 427.894531 84.28125 L 427.886719 84.214844 L 427.875 84.152344 L 427.859375 84.09375 L 427.839844 84.035156 L 427.820313 83.980469 L 427.765625 83.878906 L 427.734375 83.832031 L 427.699219 83.785156 L 427.621094 83.699219 L 427.578125 83.65625 L 427.484375 83.578125 L 427.433594 83.542969 L 427.378906 83.507813 L 427.324219 83.476563 L 427.265625 83.445313 L 427.203125 83.414063 L 427.136719 83.382813 L 427.003906 83.328125 L 426.855469 83.273438 L 426.699219 83.226563 L 426.617188 83.203125 L 426.359375 83.132813 L 426.269531 83.109375 L 426.175781 83.082031 L 426.085938 83.058594 L 425.988281 83.03125 L 425.894531 83.003906 L 425.796875 82.976563 L 425.695313 82.953125 L 425.59375 82.921875 L 425.5 82.898438 L 425.402344 82.871094 L 425.308594 82.847656 L 425.121094 82.792969 L 425.023438 82.765625 L 424.929688 82.734375 L 424.835938 82.707031 L 424.554688 82.613281 L 424.375 82.542969 L 424.289063 82.507813 L 424.203125 82.46875 L 424.117188 82.425781 L 424.035156 82.382813 L 423.957031 82.339844 L 423.875 82.292969 L 423.726563 82.191406 L 423.65625 82.136719 L 423.523438 82.019531 L 423.460938 81.957031 L 423.402344 81.894531 L 423.34375 81.828125 L 423.289063 81.757813 L 423.238281 81.6875 L 423.191406 81.613281 L 423.105469 81.457031 L 423.070313 81.371094 L 423.042969 81.285156 L 423.015625 81.191406 L 422.996094 81.097656 L 422.976563 80.996094 L 422.964844 80.894531 L 422.957031 80.675781 L 422.964844 80.464844 L 422.988281 80.261719 L 423.027344 80.070313 L 423.082031 79.890625 L 423.148438 79.722656 L 423.234375 79.5625 L 423.335938 79.414063 L 423.449219 79.273438 L 423.582031 79.144531 L 423.726563 79.027344 L 423.886719 78.917969 L 424.066406 78.820313 L 424.253906 78.734375 L 424.460938 78.660156 L 424.679688 78.597656 L 424.910156 78.546875 L 425.15625 78.507813 L 425.417969 78.480469 L 425.691406 78.460938 L 425.980469 78.457031 L 426.238281 78.460938 L 426.484375 78.472656 L 426.71875 78.496094 L 426.945313 78.53125 L 427.15625 78.570313 L 427.359375 78.621094 L 427.550781 78.683594 L 427.734375 78.75 L 427.902344 78.828125 L 428.0625 78.917969 L 428.210938 79.015625 L 428.351563 79.125 L 428.476563 79.246094 L 428.59375 79.375 L 428.695313 79.519531 L 428.789063 79.671875 L 428.871094 79.835938 L 428.9375 80.011719 L 428.996094 80.199219 L 429.042969 80.398438 L 427.855469 80.542969 L 427.84375 80.484375 L 427.828125 80.425781 L 427.808594 80.367188 L 427.785156 80.3125 L 427.765625 80.261719 L 427.738281 80.210938 L 427.710938 80.164063 L 427.679688 80.117188 L 427.617188 80.03125 L 427.578125 79.988281 L 427.542969 79.949219 L 427.503906 79.910156 L 427.464844 79.875 L 427.421875 79.839844 L 427.378906 79.808594 L 427.332031 79.777344 L 427.289063 79.746094 L 427.238281 79.71875 L 427.191406 79.695313 L 427.140625 79.667969 L 427.089844 79.644531 L 427.035156 79.621094 L 426.925781 79.582031 L 426.867188 79.566406 L 426.808594 79.546875 L 426.75 79.535156 L 426.625 79.511719 L 426.566406 79.5 L 426.503906 79.488281 L 426.441406 79.480469 L 426.375 79.472656 L 426.3125 79.464844 L 426.246094 79.460938 L 426.183594 79.457031 L 426.117188 79.453125 L 425.808594 79.453125 L 425.644531 79.460938 L 425.488281 79.476563 L 425.34375 79.496094 L 425.207031 79.519531 L 425.078125 79.550781 L 424.960938 79.585938 L 424.851563 79.625 L 424.753906 79.671875 L 424.664063 79.722656 L 424.582031 79.78125 L 424.511719 79.84375 L 424.445313 79.910156 L 424.390625 79.984375 L 424.34375 80.0625 L 424.308594 80.148438 L 424.277344 80.238281 L 424.257813 80.335938 L 424.242188 80.4375 L 424.238281 80.542969 L 424.246094 80.667969 L 424.261719 80.785156 L 424.277344 80.839844 L 424.292969 80.890625 L 424.3125 80.941406 L 424.335938 80.988281 L 424.363281 81.035156 L 424.394531 81.078125 L 424.425781 81.117188 L 424.460938 81.15625 L 424.539063 81.234375 L 424.582031 81.269531 L 424.628906 81.304688 L 424.675781 81.335938 L 424.777344 81.398438 L 424.832031 81.429688 L 424.949219 81.484375 L 425.011719 81.511719 L 425.078125 81.535156 L 425.144531 81.5625 L 425.285156 81.609375 L 425.433594 81.65625 L 425.511719 81.679688 L 425.675781 81.71875 L 425.757813 81.742188 L 425.84375 81.761719 L 426.015625 81.808594 L 426.105469 81.828125 L 426.199219 81.851563 L 426.289063 81.875 L 426.386719 81.898438 L 426.511719 81.929688 L 426.574219 81.949219 L 426.640625 81.964844 L 426.703125 81.984375 L 426.769531 82 L 426.832031 82.019531 L 426.898438 82.035156 L 427.03125 82.074219 L 427.09375 82.09375 L 427.160156 82.109375 L 427.226563 82.128906 L 427.289063 82.152344 L 427.355469 82.171875 L 427.542969 82.242188 L 427.605469 82.269531 L 427.667969 82.292969 L 427.730469 82.320313 L 427.789063 82.34375 L 427.851563 82.375 L 427.96875 82.429688 L 428.085938 82.492188 L 428.140625 82.527344 L 428.199219 82.558594 L 428.308594 82.628906 L 428.359375 82.664063 L 428.414063 82.703125 L 428.464844 82.742188 L 428.511719 82.78125 L 428.652344 82.910156 L 428.695313 82.957031 L 428.734375 83.003906 L 428.777344 83.054688 L 428.816406 83.105469 L 428.851563 83.15625 L 428.886719 83.210938 L 428.917969 83.265625 L 428.980469 83.382813 L 429.007813 83.441406 L 429.035156 83.503906 L 429.058594 83.566406 L 429.082031 83.632813 L 429.101563 83.703125 L 429.121094 83.769531 L 429.152344 83.917969 L 429.164063 83.992188 L 429.179688 84.148438 L 429.179688 84.230469 Z M 429.183594 84.316406 "/>
<path style="fill-rule:evenodd;fill:rgb(5.098039%,3.137255%,52.941176%);fill-opacity:1;stroke-width:3.200935;stroke-linecap:square;stroke-linejoin:miter;stroke:rgb(100%,100%,100%);stroke-opacity:1;stroke-miterlimit:10;" d="M 382.660156 110.6875 L 395.6875 110.6875 L 395.6875 97.660156 L 382.660156 97.660156 Z M 382.660156 110.6875 "/>
<path style="fill-rule:evenodd;fill:rgb(33.72549%,0.392157%,64.313725%);fill-opacity:1;stroke-width:3.200935;stroke-linecap:square;stroke-linejoin:miter;stroke:rgb(100%,100%,100%);stroke-opacity:1;stroke-miterlimit:10;" d="M 382.660156 127.96875 L 395.6875 127.96875 L 395.6875 114.941406 L 382.660156 114.941406 Z M 382.660156 127.96875 "/>
<path style="fill-rule:evenodd;fill:rgb(56.470588%,5.098039%,64.313725%);fill-opacity:1;stroke-width:3.200935;stroke-linecap:square;stroke-linejoin:miter;stroke:rgb(100%,100%,100%);stroke-opacity:1;stroke-miterlimit:10;" d="M 382.660156 145.246094 L 395.6875 145.246094 L 395.6875 132.21875 L 382.660156 132.21875 Z M 382.660156 145.246094 "/>
<path style="fill-rule:evenodd;fill:rgb(74.901961%,22.352941%,51.764706%);fill-opacity:1;stroke-width:3.200935;stroke-linecap:square;stroke-linejoin:miter;stroke:rgb(100%,100%,100%);stroke-opacity:1;stroke-miterlimit:10;" d="M 382.660156 162.527344 L 395.6875 162.527344 L 395.6875 149.5 L 382.660156 149.5 Z M 382.660156 162.527344 "/>
<path style="fill-rule:evenodd;fill:rgb(56.470588%,5.098039%,64.313725%);fill-opacity:1;stroke-width:3.200935;stroke-linecap:square;stroke-linejoin:miter;stroke:rgb(100%,100%,100%);stroke-opacity:1;stroke-miterlimit:10;" d="M 382.660156 179.808594 L 395.6875 179.808594 L 395.6875 166.78125 L 382.660156 166.78125 Z M 382.660156 179.808594 "/>
<path style="fill-rule:evenodd;fill:rgb(88.235294%,39.215686%,38.431373%);fill-opacity:1;stroke-width:3.200935;stroke-linecap:square;stroke-linejoin:miter;stroke:rgb(100%,100%,100%);stroke-opacity:1;stroke-miterlimit:10;" d="M 382.660156 197.085938 L 395.6875 197.085938 L 395.6875 184.058594 L 382.660156 184.058594 Z M 382.660156 197.085938 "/>
<path style="fill-rule:evenodd;fill:rgb(97.254902%,58.039216%,25.490196%);fill-opacity:1;stroke-width:3.200935;stroke-linecap:square;stroke-linejoin:miter;stroke:rgb(100%,100%,100%);stroke-opacity:1;stroke-miterlimit:10;" d="M 382.660156 214.367188 L 395.6875 214.367188 L 395.6875 201.339844 L 382.660156 201.339844 Z M 382.660156 214.367188 "/>
<path style="fill-rule:evenodd;fill:rgb(96.078431%,77.254902%,25.882353%);fill-opacity:1;stroke-width:3.200935;stroke-linecap:square;stroke-linejoin:miter;stroke:rgb(100%,100%,100%);stroke-opacity:1;stroke-miterlimit:10;" d="M 382.660156 231.648438 L 395.6875 231.648438 L 395.6875 218.621094 L 382.660156 218.621094 Z M 382.660156 231.648438 "/>
<path style="fill-rule:evenodd;fill:rgb(98.823529%,80.784314%,14.509804%);fill-opacity:1;stroke-width:3.200935;stroke-linecap:square;stroke-linejoin:miter;stroke:rgb(100%,100%,100%);stroke-opacity:1;stroke-miterlimit:10;" d="M 382.660156 248.925781 L 395.6875 248.925781 L 395.6875 235.898438 L 382.660156 235.898438 Z M 382.660156 248.925781 "/>
<path style="fill-rule:evenodd;fill:rgb(96.078431%,86.27451%,49.803922%);fill-opacity:1;stroke-width:3.200935;stroke-linecap:square;stroke-linejoin:miter;stroke:rgb(100%,100%,100%);stroke-opacity:1;stroke-miterlimit:10;" d="M 382.660156 266.207031 L 395.6875 266.207031 L 395.6875 253.179688 L 382.660156 253.179688 Z M 382.660156 266.207031 "/>
<path style=" stroke:none;fill-rule:evenodd;fill:rgb(0%,0%,0%);fill-opacity:1;" d="M 412.125 108.300781 L 411.183594 105.886719 L 407.421875 105.886719 L 406.472656 108.300781 L 405.3125 108.300781 L 408.679688 100.046875 L 409.953125 100.046875 L 413.269531 108.300781 Z M 409.789063 102.289063 L 409.730469 102.148438 L 409.714844 102.101563 L 409.675781 102.007813 L 409.660156 101.957031 L 409.640625 101.910156 L 409.625 101.863281 L 409.605469 101.816406 L 409.542969 101.628906 L 409.511719 101.542969 L 409.5 101.5 L 409.484375 101.460938 L 409.460938 101.382813 L 409.445313 101.34375 L 409.433594 101.304688 L 409.398438 101.199219 L 409.386719 101.167969 L 409.378906 101.136719 L 409.367188 101.109375 L 409.359375 101.078125 L 409.347656 101.054688 L 409.339844 101.027344 L 409.332031 101.003906 L 409.328125 100.980469 L 409.320313 100.960938 L 409.3125 100.929688 L 409.300781 100.894531 L 409.300781 100.890625 L 409.296875 100.894531 L 409.296875 100.90625 L 409.292969 100.917969 L 409.285156 100.929688 L 409.277344 100.960938 L 409.269531 100.980469 L 409.261719 101.003906 L 409.257813 101.027344 L 409.25 101.054688 L 409.238281 101.082031 L 409.230469 101.109375 L 409.222656 101.140625 L 409.199219 101.203125 L 409.164063 101.308594 L 409.152344 101.347656 L 409.136719 101.386719 L 409.125 101.425781 L 409.109375 101.46875 L 409.097656 101.511719 L 409.050781 101.640625 L 409.019531 101.734375 L 409.003906 101.777344 L 408.984375 101.828125 L 408.953125 101.921875 L 408.933594 101.96875 L 408.917969 102.019531 L 408.902344 102.066406 L 408.882813 102.113281 L 408.851563 102.207031 L 408.832031 102.253906 L 408.816406 102.300781 L 407.761719 105.015625 L 410.847656 105.015625 Z M 409.789063 102.289063 "/>
<path style=" stroke:none;fill-rule:evenodd;fill:rgb(0%,0%,0%);fill-opacity:1;" d="M 412.125 125.582031 L 411.183594 123.167969 L 407.421875 123.167969 L 406.472656 125.582031 L 405.3125 125.582031 L 408.679688 117.324219 L 409.953125 117.324219 L 413.269531 125.582031 Z M 409.789063 119.570313 L 409.730469 119.429688 L 409.714844 119.382813 L 409.695313 119.332031 L 409.675781 119.285156 L 409.660156 119.238281 L 409.640625 119.191406 L 409.625 119.144531 L 409.605469 119.09375 L 409.574219 119 L 409.558594 118.957031 L 409.542969 118.910156 L 409.511719 118.824219 L 409.5 118.78125 L 409.484375 118.742188 L 409.472656 118.699219 L 409.460938 118.660156 L 409.445313 118.621094 L 409.433594 118.585938 L 409.421875 118.546875 L 409.410156 118.511719 L 409.386719 118.449219 L 409.378906 118.417969 L 409.367188 118.386719 L 409.359375 118.359375 L 409.347656 118.332031 L 409.332031 118.285156 L 409.328125 118.261719 L 409.320313 118.242188 L 409.308594 118.195313 L 409.304688 118.183594 L 409.300781 118.175781 L 409.300781 118.167969 L 409.296875 118.175781 L 409.296875 118.183594 L 409.292969 118.195313 L 409.285156 118.210938 L 409.277344 118.242188 L 409.269531 118.261719 L 409.261719 118.285156 L 409.257813 118.308594 L 409.25 118.332031 L 409.238281 118.359375 L 409.222656 118.421875 L 409.199219 118.484375 L 409.164063 118.589844 L 409.152344 118.628906 L 409.136719 118.667969 L 409.125 118.707031 L 409.109375 118.75 L 409.097656 118.789063 L 409.066406 118.875 L 409.050781 118.921875 L 409.035156 118.964844 L 409.003906 119.058594 L 408.984375 119.105469 L 408.96875 119.15625 L 408.953125 119.203125 L 408.933594 119.25 L 408.902344 119.34375 L 408.882813 119.394531 L 408.851563 119.488281 L 408.832031 119.535156 L 408.816406 119.582031 L 407.761719 122.292969 L 410.847656 122.292969 Z M 409.789063 119.570313 "/>
<path style=" stroke:none;fill-rule:evenodd;fill:rgb(0%,0%,0%);fill-opacity:1;" d="M 413.824219 122.863281 L 413.824219 121.925781 L 416.753906 121.925781 L 416.753906 122.863281 Z M 413.824219 122.863281 "/>
<path style=" stroke:none;fill-rule:evenodd;fill:rgb(0%,0%,0%);fill-opacity:1;" d="M 412.660156 140.535156 L 412.65625 140.660156 L 412.648438 140.777344 L 412.636719 140.894531 L 412.617188 141.007813 L 412.597656 141.117188 L 412.570313 141.222656 L 412.539063 141.324219 L 412.5 141.421875 L 412.460938 141.515625 L 412.414063 141.609375 L 412.363281 141.695313 L 412.308594 141.777344 L 412.25 141.855469 L 412.1875 141.933594 L 412.125 142.007813 L 412.054688 142.078125 L 411.984375 142.144531 L 411.910156 142.210938 L 411.832031 142.269531 L 411.75 142.328125 L 411.664063 142.382813 L 411.578125 142.433594 L 411.488281 142.480469 L 411.300781 142.566406 L 411.203125 142.605469 L 411 142.675781 L 410.890625 142.707031 L 410.785156 142.734375 L 410.671875 142.757813 L 410.5625 142.777344 L 410.449219 142.796875 L 410.332031 142.816406 L 410.21875 142.828125 L 409.984375 142.851563 L 409.863281 142.855469 L 409.746094 142.859375 L 409.625 142.863281 L 406.273438 142.863281 L 406.273438 134.605469 L 409.40625 134.605469 L 409.539063 134.609375 L 409.796875 134.625 L 409.921875 134.636719 L 410.042969 134.648438 L 410.160156 134.664063 L 410.273438 134.679688 L 410.386719 134.699219 L 410.496094 134.722656 L 410.601563 134.746094 L 410.707031 134.773438 L 410.804688 134.800781 L 410.902344 134.832031 L 410.996094 134.867188 L 411.085938 134.90625 L 411.171875 134.945313 L 411.253906 134.988281 L 411.332031 135.03125 L 411.410156 135.082031 L 411.484375 135.128906 L 411.554688 135.183594 L 411.617188 135.238281 L 411.679688 135.296875 L 411.738281 135.359375 L 411.796875 135.425781 L 411.847656 135.492188 L 411.894531 135.558594 L 411.980469 135.707031 L 412.050781 135.863281 L 412.082031 135.945313 L 412.105469 136.03125 L 412.128906 136.121094 L 412.144531 136.210938 L 412.160156 136.308594 L 412.171875 136.40625 L 412.175781 136.503906 L 412.179688 136.609375 L 412.175781 136.679688 L 412.175781 136.746094 L 412.152344 136.945313 L 412.140625 137.007813 L 412.128906 137.074219 L 412.097656 137.199219 L 412.078125 137.261719 L 412.058594 137.320313 L 411.988281 137.496094 L 411.957031 137.550781 L 411.929688 137.605469 L 411.859375 137.714844 L 411.824219 137.765625 L 411.785156 137.816406 L 411.746094 137.863281 L 411.703125 137.914063 L 411.613281 138.003906 L 411.566406 138.046875 L 411.515625 138.089844 L 411.464844 138.128906 L 411.410156 138.167969 L 411.292969 138.246094 L 411.234375 138.277344 L 411.171875 138.3125 L 411.109375 138.34375 L 410.976563 138.398438 L 410.90625 138.421875 L 410.835938 138.449219 L 410.761719 138.46875 L 410.683594 138.488281 L 410.609375 138.507813 L 410.707031 138.519531 L 410.800781 138.535156 L 410.988281 138.574219 L 411.078125 138.59375 L 411.164063 138.617188 L 411.328125 138.671875 L 411.410156 138.703125 L 411.488281 138.738281 L 411.5625 138.769531 L 411.636719 138.808594 L 411.707031 138.847656 L 411.773438 138.886719 L 411.839844 138.929688 L 411.902344 138.972656 L 411.964844 139.019531 L 412.023438 139.070313 L 412.078125 139.117188 L 412.132813 139.171875 L 412.179688 139.222656 L 412.230469 139.277344 L 412.316406 139.394531 L 412.359375 139.457031 L 412.394531 139.519531 L 412.433594 139.582031 L 412.496094 139.714844 L 412.550781 139.855469 L 412.570313 139.925781 L 412.59375 139.996094 L 412.625 140.144531 L 412.636719 140.222656 L 412.644531 140.296875 L 412.652344 140.375 L 412.65625 140.453125 Z M 411.054688 136.746094 L 411.046875 136.613281 L 411.035156 136.492188 L 411.011719 136.378906 L 410.980469 136.269531 L 410.9375 136.171875 L 410.886719 136.078125 L 410.828125 135.996094 L 410.761719 135.917969 L 410.683594 135.851563 L 410.597656 135.789063 L 410.5 135.734375 L 410.398438 135.6875 L 410.285156 135.644531 L 410.164063 135.605469 L 410.035156 135.574219 L 409.898438 135.546875 L 409.753906 135.527344 L 409.601563 135.511719 L 409.441406 135.503906 L 407.390625 135.503906 L 407.390625 138.117188 L 409.273438 138.117188 L 409.367188 138.113281 L 409.460938 138.113281 L 409.554688 138.105469 L 409.640625 138.101563 L 409.726563 138.09375 L 409.808594 138.082031 L 409.886719 138.070313 L 410.035156 138.039063 L 410.105469 138.023438 L 410.171875 138 L 410.234375 137.980469 L 410.296875 137.953125 L 410.355469 137.929688 L 410.464844 137.875 L 410.566406 137.8125 L 410.609375 137.78125 L 410.65625 137.746094 L 410.695313 137.710938 L 410.734375 137.671875 L 410.769531 137.632813 L 410.804688 137.589844 L 410.867188 137.503906 L 410.890625 137.457031 L 410.917969 137.410156 L 410.9375 137.363281 L 410.960938 137.3125 L 410.992188 137.210938 L 411.007813 137.15625 L 411.019531 137.101563 L 411.03125 137.042969 L 411.039063 136.988281 L 411.042969 136.929688 L 411.050781 136.867188 L 411.050781 136.808594 Z M 411.527344 140.449219 L 411.527344 140.371094 L 411.523438 140.296875 L 411.515625 140.222656 L 411.503906 140.152344 L 411.492188 140.085938 L 411.476563 140.019531 L 411.457031 139.957031 L 411.433594 139.894531 L 411.410156 139.835938 L 411.382813 139.78125 L 411.320313 139.671875 L 411.285156 139.625 L 411.246094 139.574219 L 411.207031 139.527344 L 411.121094 139.441406 L 411.074219 139.402344 L 411.023438 139.363281 L 410.972656 139.328125 L 410.914063 139.292969 L 410.859375 139.261719 L 410.800781 139.230469 L 410.738281 139.203125 L 410.671875 139.175781 L 410.609375 139.152344 L 410.46875 139.105469 L 410.394531 139.085938 L 410.246094 139.054688 L 410.167969 139.039063 L 410.085938 139.027344 L 410.003906 139.019531 L 409.921875 139.007813 L 409.835938 139 L 409.75 138.996094 L 409.570313 138.988281 L 407.390625 138.988281 L 407.390625 141.964844 L 409.648438 141.964844 L 409.734375 141.960938 L 409.816406 141.957031 L 409.894531 141.953125 L 409.976563 141.949219 L 410.050781 141.941406 L 410.128906 141.929688 L 410.203125 141.921875 L 410.277344 141.90625 L 410.351563 141.894531 L 410.492188 141.863281 L 410.558594 141.84375 L 410.625 141.820313 L 410.6875 141.796875 L 410.746094 141.773438 L 410.808594 141.746094 L 410.917969 141.683594 L 410.972656 141.648438 L 411.023438 141.613281 L 411.070313 141.574219 L 411.164063 141.488281 L 411.207031 141.445313 L 411.246094 141.394531 L 411.316406 141.292969 L 411.351563 141.238281 L 411.382813 141.179688 L 411.410156 141.121094 L 411.433594 141.058594 L 411.457031 140.992188 L 411.476563 140.921875 L 411.492188 140.851563 L 411.503906 140.777344 L 411.515625 140.699219 L 411.523438 140.617188 L 411.527344 140.535156 Z M 411.527344 140.449219 "/>
<path style=" stroke:none;fill-rule:evenodd;fill:rgb(0%,0%,0%);fill-opacity:1;" d="M 417.222656 139.300781 L 417.222656 141.808594 L 416.363281 141.808594 L 416.363281 139.300781 L 413.878906 139.300781 L 413.878906 138.445313 L 416.363281 138.445313 L 416.363281 135.9375 L 417.222656 135.9375 L 417.222656 138.445313 L 419.707031 138.445313 L 419.707031 139.300781 Z M 417.222656 139.300781 "/>
<path style=" stroke:none;fill-rule:evenodd;fill:rgb(0%,0%,0%);fill-opacity:1;" d="M 412.660156 157.816406 L 412.65625 157.9375 L 412.648438 158.058594 L 412.636719 158.175781 L 412.617188 158.289063 L 412.597656 158.398438 L 412.570313 158.503906 L 412.539063 158.605469 L 412.5 158.703125 L 412.460938 158.796875 L 412.414063 158.886719 L 412.363281 158.972656 L 412.308594 159.058594 L 412.25 159.136719 L 412.1875 159.214844 L 412.125 159.289063 L 412.054688 159.359375 L 411.984375 159.425781 L 411.910156 159.488281 L 411.832031 159.550781 L 411.75 159.609375 L 411.578125 159.710938 L 411.488281 159.761719 L 411.300781 159.847656 L 411.203125 159.886719 L 411 159.957031 L 410.890625 159.984375 L 410.785156 160.011719 L 410.671875 160.035156 L 410.5625 160.058594 L 410.449219 160.078125 L 410.332031 160.09375 L 410.21875 160.109375 L 410.101563 160.121094 L 409.984375 160.128906 L 409.863281 160.136719 L 409.746094 160.140625 L 406.273438 160.140625 L 406.273438 151.886719 L 409.40625 151.886719 L 409.539063 151.890625 L 409.667969 151.894531 L 409.796875 151.90625 L 409.921875 151.914063 L 410.042969 151.929688 L 410.160156 151.941406 L 410.386719 151.980469 L 410.496094 152.003906 L 410.601563 152.027344 L 410.707031 152.054688 L 410.804688 152.082031 L 410.902344 152.113281 L 410.996094 152.148438 L 411.085938 152.183594 L 411.171875 152.226563 L 411.253906 152.265625 L 411.410156 152.359375 L 411.484375 152.410156 L 411.554688 152.464844 L 411.617188 152.519531 L 411.679688 152.578125 L 411.796875 152.703125 L 411.847656 152.769531 L 411.894531 152.839844 L 411.980469 152.988281 L 412.015625 153.0625 L 412.050781 153.144531 L 412.082031 153.226563 L 412.128906 153.398438 L 412.160156 153.585938 L 412.171875 153.683594 L 412.175781 153.785156 L 412.179688 153.890625 L 412.175781 153.957031 L 412.175781 154.027344 L 412.152344 154.226563 L 412.128906 154.351563 L 412.113281 154.417969 L 412.097656 154.480469 L 412.078125 154.539063 L 412.058594 154.601563 L 412.011719 154.71875 L 411.988281 154.773438 L 411.957031 154.832031 L 411.929688 154.886719 L 411.894531 154.941406 L 411.859375 154.992188 L 411.824219 155.046875 L 411.785156 155.097656 L 411.746094 155.144531 L 411.660156 155.238281 L 411.613281 155.28125 L 411.566406 155.328125 L 411.515625 155.367188 L 411.464844 155.410156 L 411.410156 155.449219 L 411.351563 155.488281 L 411.234375 155.558594 L 411.109375 155.621094 L 411.042969 155.652344 L 410.976563 155.679688 L 410.835938 155.726563 L 410.761719 155.75 L 410.683594 155.769531 L 410.609375 155.789063 L 410.707031 155.800781 L 410.894531 155.832031 L 410.988281 155.851563 L 411.078125 155.875 L 411.164063 155.898438 L 411.328125 155.953125 L 411.410156 155.984375 L 411.488281 156.015625 L 411.5625 156.050781 L 411.636719 156.089844 L 411.707031 156.125 L 411.839844 156.210938 L 411.902344 156.253906 L 411.964844 156.300781 L 412.023438 156.347656 L 412.132813 156.449219 L 412.179688 156.503906 L 412.230469 156.558594 L 412.359375 156.734375 L 412.394531 156.796875 L 412.433594 156.863281 L 412.496094 156.996094 L 412.550781 157.136719 L 412.570313 157.207031 L 412.59375 157.277344 L 412.625 157.425781 L 412.636719 157.5 L 412.652344 157.65625 L 412.65625 157.734375 Z M 411.054688 154.023438 L 411.046875 153.894531 L 411.035156 153.773438 L 411.011719 153.65625 L 410.980469 153.550781 L 410.9375 153.453125 L 410.886719 153.359375 L 410.828125 153.277344 L 410.761719 153.199219 L 410.683594 153.128906 L 410.597656 153.070313 L 410.5 153.015625 L 410.398438 152.964844 L 410.285156 152.921875 L 410.164063 152.886719 L 410.035156 152.855469 L 409.898438 152.828125 L 409.753906 152.808594 L 409.601563 152.792969 L 409.441406 152.785156 L 409.273438 152.78125 L 407.390625 152.78125 L 407.390625 155.394531 L 409.367188 155.394531 L 409.554688 155.386719 L 409.726563 155.371094 L 409.808594 155.363281 L 409.886719 155.347656 L 409.960938 155.335938 L 410.035156 155.320313 L 410.105469 155.300781 L 410.171875 155.28125 L 410.296875 155.234375 L 410.355469 155.210938 L 410.464844 155.15625 L 410.566406 155.09375 L 410.609375 155.0625 L 410.65625 155.027344 L 410.734375 154.949219 L 410.804688 154.871094 L 410.835938 154.828125 L 410.867188 154.78125 L 410.890625 154.738281 L 410.917969 154.691406 L 410.9375 154.640625 L 410.960938 154.59375 L 410.976563 154.542969 L 410.992188 154.488281 L 411.007813 154.4375 L 411.019531 154.378906 L 411.03125 154.324219 L 411.039063 154.265625 L 411.042969 154.207031 L 411.050781 154.148438 L 411.050781 154.085938 Z M 411.527344 157.726563 L 411.527344 157.648438 L 411.523438 157.574219 L 411.515625 157.503906 L 411.492188 157.363281 L 411.476563 157.296875 L 411.457031 157.234375 L 411.410156 157.117188 L 411.382813 157.058594 L 411.351563 157.003906 L 411.320313 156.953125 L 411.285156 156.902344 L 411.207031 156.808594 L 411.121094 156.722656 L 411.074219 156.683594 L 411.023438 156.644531 L 410.972656 156.609375 L 410.914063 156.574219 L 410.859375 156.542969 L 410.800781 156.511719 L 410.738281 156.484375 L 410.671875 156.457031 L 410.609375 156.429688 L 410.539063 156.40625 L 410.46875 156.386719 L 410.394531 156.367188 L 410.246094 156.335938 L 410.167969 156.320313 L 410.003906 156.296875 L 409.921875 156.289063 L 409.835938 156.28125 L 409.75 156.277344 L 409.570313 156.269531 L 407.390625 156.269531 L 407.390625 159.246094 L 409.648438 159.246094 L 409.734375 159.242188 L 409.816406 159.238281 L 409.894531 159.234375 L 409.976563 159.226563 L 410.050781 159.21875 L 410.128906 159.210938 L 410.351563 159.175781 L 410.421875 159.160156 L 410.492188 159.140625 L 410.625 159.101563 L 410.6875 159.078125 L 410.746094 159.050781 L 410.808594 159.023438 L 410.863281 158.996094 L 410.917969 158.960938 L 410.972656 158.929688 L 411.023438 158.890625 L 411.070313 158.855469 L 411.164063 158.769531 L 411.207031 158.722656 L 411.246094 158.675781 L 411.316406 158.574219 L 411.351563 158.515625 L 411.382813 158.460938 L 411.410156 158.398438 L 411.433594 158.335938 L 411.457031 158.269531 L 411.476563 158.203125 L 411.492188 158.128906 L 411.503906 158.054688 L 411.515625 157.976563 L 411.523438 157.898438 L 411.527344 157.8125 Z M 411.527344 157.726563 "/>
<path style=" stroke:none;fill-rule:evenodd;fill:rgb(0%,0%,0%);fill-opacity:1;" d="M 412.660156 175.09375 L 412.65625 175.21875 L 412.648438 175.339844 L 412.636719 175.457031 L 412.597656 175.675781 L 412.570313 175.78125 L 412.539063 175.882813 L 412.460938 176.078125 L 412.414063 176.167969 L 412.363281 176.253906 L 412.308594 176.335938 L 412.25 176.417969 L 412.125 176.566406 L 411.984375 176.707031 L 411.910156 176.769531 L 411.832031 176.832031 L 411.75 176.886719 L 411.664063 176.941406 L 411.578125 176.992188 L 411.488281 177.039063 L 411.394531 177.085938 L 411.300781 177.128906 L 411.203125 177.167969 L 411.101563 177.203125 L 411 177.234375 L 410.890625 177.265625 L 410.785156 177.292969 L 410.671875 177.316406 L 410.5625 177.339844 L 410.449219 177.359375 L 410.332031 177.375 L 410.21875 177.390625 L 410.101563 177.402344 L 409.984375 177.410156 L 409.863281 177.417969 L 409.746094 177.421875 L 406.273438 177.421875 L 406.273438 169.164063 L 409.273438 169.164063 L 409.539063 169.171875 L 409.667969 169.175781 L 409.796875 169.183594 L 409.921875 169.195313 L 410.042969 169.207031 L 410.160156 169.222656 L 410.386719 169.261719 L 410.496094 169.28125 L 410.601563 169.304688 L 410.707031 169.332031 L 410.902344 169.394531 L 410.996094 169.429688 L 411.085938 169.464844 L 411.171875 169.503906 L 411.253906 169.546875 L 411.410156 169.640625 L 411.484375 169.691406 L 411.554688 169.742188 L 411.679688 169.859375 L 411.796875 169.984375 L 411.847656 170.050781 L 411.894531 170.121094 L 411.9375 170.191406 L 411.980469 170.265625 L 412.050781 170.421875 L 412.082031 170.507813 L 412.105469 170.589844 L 412.128906 170.679688 L 412.160156 170.867188 L 412.171875 170.964844 L 412.179688 171.167969 L 412.175781 171.238281 L 412.175781 171.304688 L 412.167969 171.375 L 412.160156 171.441406 L 412.152344 171.503906 L 412.140625 171.570313 L 412.128906 171.632813 L 412.097656 171.757813 L 412.078125 171.820313 L 412.058594 171.878906 L 412.035156 171.941406 L 412.011719 171.996094 L 411.988281 172.054688 L 411.957031 172.113281 L 411.929688 172.167969 L 411.894531 172.21875 L 411.859375 172.273438 L 411.824219 172.324219 L 411.746094 172.425781 L 411.660156 172.519531 L 411.566406 172.605469 L 411.464844 172.691406 L 411.410156 172.730469 L 411.351563 172.765625 L 411.292969 172.804688 L 411.234375 172.839844 L 411.109375 172.902344 L 410.976563 172.957031 L 410.90625 172.984375 L 410.835938 173.007813 L 410.761719 173.03125 L 410.683594 173.050781 L 410.609375 173.066406 L 410.707031 173.082031 L 410.894531 173.113281 L 410.988281 173.132813 L 411.078125 173.15625 L 411.164063 173.179688 L 411.246094 173.203125 L 411.328125 173.234375 L 411.410156 173.261719 L 411.488281 173.296875 L 411.636719 173.367188 L 411.707031 173.40625 L 411.773438 173.449219 L 411.839844 173.488281 L 411.964844 173.582031 L 412.023438 173.628906 L 412.132813 173.730469 L 412.179688 173.785156 L 412.230469 173.839844 L 412.273438 173.894531 L 412.316406 173.957031 L 412.359375 174.015625 L 412.394531 174.078125 L 412.433594 174.140625 L 412.464844 174.207031 L 412.496094 174.277344 L 412.523438 174.34375 L 412.550781 174.414063 L 412.570313 174.484375 L 412.59375 174.558594 L 412.625 174.707031 L 412.636719 174.78125 L 412.652344 174.9375 Z M 411.054688 171.304688 L 411.046875 171.175781 L 411.035156 171.050781 L 411.011719 170.9375 L 410.980469 170.832031 L 410.9375 170.730469 L 410.886719 170.640625 L 410.828125 170.554688 L 410.761719 170.480469 L 410.683594 170.410156 L 410.597656 170.347656 L 410.5 170.292969 L 410.398438 170.246094 L 410.285156 170.203125 L 410.164063 170.164063 L 410.035156 170.132813 L 409.898438 170.109375 L 409.753906 170.089844 L 409.601563 170.074219 L 409.441406 170.066406 L 409.273438 170.0625 L 407.390625 170.0625 L 407.390625 172.675781 L 409.367188 172.675781 L 409.554688 172.667969 L 409.726563 172.652344 L 409.808594 172.640625 L 409.886719 172.628906 L 409.960938 172.617188 L 410.035156 172.597656 L 410.105469 172.582031 L 410.171875 172.5625 L 410.296875 172.515625 L 410.355469 172.488281 L 410.410156 172.464844 L 410.464844 172.433594 L 410.515625 172.40625 L 410.566406 172.375 L 410.609375 172.339844 L 410.65625 172.304688 L 410.695313 172.269531 L 410.734375 172.230469 L 410.769531 172.191406 L 410.804688 172.148438 L 410.867188 172.0625 L 410.890625 172.015625 L 410.917969 171.96875 L 410.9375 171.921875 L 410.960938 171.871094 L 410.992188 171.769531 L 411.007813 171.714844 L 411.03125 171.605469 L 411.039063 171.546875 L 411.042969 171.488281 L 411.050781 171.429688 L 411.050781 171.367188 Z M 411.527344 175.007813 L 411.527344 174.929688 L 411.523438 174.855469 L 411.515625 174.78125 L 411.503906 174.710938 L 411.492188 174.644531 L 411.476563 174.578125 L 411.457031 174.515625 L 411.433594 174.453125 L 411.410156 174.394531 L 411.382813 174.339844 L 411.351563 174.285156 L 411.320313 174.234375 L 411.285156 174.183594 L 411.207031 174.089844 L 411.164063 174.042969 L 411.121094 174.003906 L 411.074219 173.960938 L 411.023438 173.925781 L 410.972656 173.886719 L 410.914063 173.855469 L 410.859375 173.820313 L 410.800781 173.792969 L 410.738281 173.761719 L 410.671875 173.734375 L 410.609375 173.710938 L 410.539063 173.6875 L 410.46875 173.667969 L 410.320313 173.628906 L 410.246094 173.613281 L 410.167969 173.601563 L 410.003906 173.578125 L 409.921875 173.570313 L 409.75 173.554688 L 409.660156 173.550781 L 409.570313 173.550781 L 409.476563 173.546875 L 407.390625 173.546875 L 407.390625 176.523438 L 409.734375 176.523438 L 409.816406 176.519531 L 409.894531 176.515625 L 409.976563 176.507813 L 410.050781 176.5 L 410.128906 176.492188 L 410.277344 176.46875 L 410.351563 176.453125 L 410.421875 176.441406 L 410.492188 176.421875 L 410.625 176.382813 L 410.6875 176.359375 L 410.746094 176.332031 L 410.808594 176.304688 L 410.917969 176.242188 L 410.972656 176.207031 L 411.023438 176.171875 L 411.117188 176.09375 L 411.164063 176.050781 L 411.207031 176.003906 L 411.246094 175.957031 L 411.28125 175.90625 L 411.351563 175.796875 L 411.382813 175.738281 L 411.410156 175.679688 L 411.433594 175.617188 L 411.457031 175.550781 L 411.476563 175.480469 L 411.492188 175.410156 L 411.503906 175.335938 L 411.515625 175.257813 L 411.523438 175.175781 L 411.527344 175.09375 Z M 411.527344 175.007813 "/>
<path style=" stroke:none;fill-rule:evenodd;fill:rgb(0%,0%,0%);fill-opacity:1;" d="M 413.824219 174.703125 L 413.824219 173.765625 L 416.753906 173.765625 L 416.753906 174.703125 Z M 413.824219 174.703125 "/>
<path style=" stroke:none;fill-rule:evenodd;fill:rgb(0%,0%,0%);fill-opacity:1;" d="M 409.929688 187.238281 L 409.789063 187.238281 L 409.652344 187.246094 L 409.519531 187.257813 L 409.390625 187.273438 L 409.140625 187.320313 L 409.019531 187.351563 L 408.902344 187.386719 L 408.789063 187.425781 L 408.679688 187.472656 L 408.574219 187.519531 L 408.371094 187.628906 L 408.183594 187.753906 L 408.09375 187.824219 L 408.007813 187.898438 L 407.925781 187.972656 L 407.847656 188.054688 L 407.699219 188.226563 L 407.632813 188.320313 L 407.570313 188.414063 L 407.507813 188.515625 L 407.453125 188.617188 L 407.398438 188.722656 L 407.347656 188.832031 L 407.304688 188.945313 L 407.261719 189.0625 L 407.183594 189.304688 L 407.152344 189.429688 L 407.125 189.558594 L 407.101563 189.691406 L 407.082031 189.824219 L 407.0625 189.960938 L 407.039063 190.242188 L 407.035156 190.386719 L 407.035156 190.683594 L 407.050781 190.972656 L 407.066406 191.109375 L 407.082031 191.25 L 407.105469 191.382813 L 407.160156 191.648438 L 407.195313 191.773438 L 407.234375 191.902344 L 407.273438 192.023438 L 407.320313 192.140625 L 407.371094 192.253906 L 407.425781 192.367188 L 407.480469 192.472656 L 407.539063 192.578125 L 407.601563 192.679688 L 407.667969 192.777344 L 407.738281 192.871094 L 407.8125 192.960938 L 407.890625 193.046875 L 407.972656 193.132813 L 408.054688 193.210938 L 408.144531 193.285156 L 408.234375 193.355469 L 408.328125 193.425781 L 408.425781 193.488281 L 408.527344 193.546875 L 408.632813 193.601563 L 408.738281 193.652344 L 408.851563 193.699219 L 408.964844 193.742188 L 409.082031 193.777344 L 409.199219 193.808594 L 409.324219 193.835938 L 409.449219 193.859375 L 409.574219 193.875 L 409.707031 193.890625 L 409.839844 193.894531 L 409.976563 193.898438 L 410.070313 193.898438 L 410.164063 193.894531 L 410.34375 193.878906 L 410.433594 193.867188 L 410.519531 193.855469 L 410.605469 193.839844 L 410.769531 193.800781 L 410.847656 193.777344 L 410.925781 193.75 L 411.003906 193.71875 L 411.152344 193.65625 L 411.226563 193.621094 L 411.296875 193.585938 L 411.367188 193.546875 L 411.433594 193.503906 L 411.5 193.464844 L 411.6875 193.324219 L 411.75 193.273438 L 411.808594 193.222656 L 411.925781 193.113281 L 411.980469 193.058594 L 412.035156 193 L 412.085938 192.941406 L 412.1875 192.816406 L 412.328125 192.617188 L 412.375 192.546875 L 412.460938 192.40625 L 412.503906 192.332031 L 412.582031 192.183594 L 413.496094 192.640625 L 413.402344 192.820313 L 413.300781 193 L 413.191406 193.171875 L 413.132813 193.253906 L 413.074219 193.339844 L 413.011719 193.421875 L 412.878906 193.578125 L 412.808594 193.65625 L 412.738281 193.730469 L 412.589844 193.871094 L 412.507813 193.941406 L 412.429688 194.007813 L 412.34375 194.070313 L 412.261719 194.132813 L 412.082031 194.25 L 411.992188 194.304688 L 411.898438 194.355469 L 411.800781 194.40625 L 411.703125 194.453125 L 411.601563 194.5 L 411.496094 194.542969 L 411.390625 194.582031 L 411.28125 194.621094 L 411.171875 194.65625 L 411.058594 194.6875 L 410.941406 194.714844 L 410.824219 194.738281 L 410.703125 194.757813 L 410.578125 194.777344 L 410.453125 194.792969 L 410.324219 194.804688 L 410.191406 194.8125 L 410.058594 194.816406 L 409.921875 194.820313 L 409.722656 194.816406 L 409.53125 194.804688 L 409.34375 194.789063 L 409.160156 194.769531 L 408.980469 194.738281 L 408.808594 194.703125 L 408.640625 194.664063 L 408.476563 194.617188 L 408.316406 194.5625 L 408.164063 194.503906 L 408.015625 194.433594 L 407.875 194.363281 L 407.734375 194.285156 L 407.601563 194.207031 L 407.472656 194.117188 L 407.351563 194.027344 L 407.230469 193.929688 L 407.117188 193.828125 L 407.007813 193.722656 L 406.90625 193.613281 L 406.804688 193.496094 L 406.714844 193.375 L 406.625 193.25 L 406.542969 193.117188 L 406.464844 192.984375 L 406.390625 192.847656 L 406.257813 192.558594 L 406.148438 192.253906 L 406.101563 192.09375 L 406.058594 191.933594 L 406.019531 191.769531 L 405.988281 191.601563 L 405.960938 191.429688 L 405.9375 191.257813 L 405.917969 191.082031 L 405.90625 190.902344 L 405.898438 190.71875 L 405.898438 190.34375 L 405.90625 190.15625 L 405.921875 189.972656 L 405.9375 189.792969 L 405.960938 189.617188 L 405.992188 189.441406 L 406.027344 189.273438 L 406.066406 189.109375 L 406.109375 188.945313 L 406.160156 188.789063 L 406.214844 188.636719 L 406.277344 188.488281 L 406.34375 188.34375 L 406.414063 188.203125 L 406.488281 188.070313 L 406.570313 187.9375 L 406.65625 187.8125 L 406.746094 187.691406 L 406.839844 187.578125 L 406.941406 187.464844 L 407.046875 187.359375 L 407.15625 187.253906 L 407.269531 187.15625 L 407.390625 187.066406 L 407.515625 186.980469 L 407.644531 186.898438 L 407.777344 186.820313 L 407.914063 186.75 L 408.058594 186.683594 L 408.207031 186.621094 L 408.359375 186.566406 L 408.515625 186.515625 L 408.675781 186.46875 L 408.839844 186.429688 L 409.007813 186.398438 L 409.179688 186.371094 L 409.359375 186.347656 L 409.539063 186.335938 L 409.726563 186.324219 L 409.917969 186.324219 L 410.175781 186.328125 L 410.425781 186.34375 L 410.667969 186.367188 L 410.902344 186.40625 L 411.125 186.453125 L 411.34375 186.507813 L 411.550781 186.574219 L 411.75 186.652344 L 411.9375 186.742188 L 412.121094 186.839844 L 412.292969 186.945313 L 412.453125 187.0625 L 412.609375 187.191406 L 412.753906 187.332031 L 412.886719 187.476563 L 413.011719 187.636719 L 413.128906 187.804688 L 413.234375 187.980469 L 413.332031 188.167969 L 413.421875 188.367188 L 412.359375 188.71875 L 412.335938 188.660156 L 412.308594 188.601563 L 412.28125 188.546875 L 412.253906 188.488281 L 412.191406 188.378906 L 412.121094 188.269531 L 412.082031 188.214844 L 412.042969 188.164063 L 412.003906 188.109375 L 411.960938 188.058594 L 411.867188 187.957031 L 411.820313 187.910156 L 411.769531 187.863281 L 411.714844 187.816406 L 411.605469 187.730469 L 411.546875 187.6875 L 411.421875 187.609375 L 411.355469 187.570313 L 411.289063 187.535156 L 411.148438 187.472656 L 411.074219 187.441406 L 411 187.414063 L 410.84375 187.359375 L 410.761719 187.335938 L 410.679688 187.316406 L 410.59375 187.296875 L 410.414063 187.265625 L 410.320313 187.257813 L 410.226563 187.246094 L 410.03125 187.238281 Z M 409.929688 187.238281 "/>
<path style=" stroke:none;fill-rule:evenodd;fill:rgb(0%,0%,0%);fill-opacity:1;" d="M 417.886719 191.140625 L 417.886719 193.648438 L 417.023438 193.648438 L 417.023438 191.140625 L 414.539063 191.140625 L 414.539063 190.285156 L 417.023438 190.285156 L 417.023438 187.777344 L 417.886719 187.777344 L 417.886719 190.285156 L 420.371094 190.285156 L 420.371094 191.140625 Z M 417.886719 191.140625 "/>
<path style=" stroke:none;fill-rule:evenodd;fill:rgb(0%,0%,0%);fill-opacity:1;" d="M 409.929688 204.515625 L 409.789063 204.519531 L 409.652344 204.527344 L 409.519531 204.539063 L 409.390625 204.554688 L 409.265625 204.574219 L 409.140625 204.601563 L 409.019531 204.632813 L 408.902344 204.667969 L 408.789063 204.707031 L 408.679688 204.75 L 408.574219 204.800781 L 408.472656 204.851563 L 408.371094 204.910156 L 408.277344 204.96875 L 408.183594 205.035156 L 408.09375 205.105469 L 408.007813 205.175781 L 407.925781 205.253906 L 407.847656 205.335938 L 407.773438 205.417969 L 407.699219 205.507813 L 407.632813 205.597656 L 407.507813 205.792969 L 407.398438 206.003906 L 407.347656 206.113281 L 407.304688 206.226563 L 407.261719 206.34375 L 407.222656 206.460938 L 407.183594 206.585938 L 407.152344 206.710938 L 407.125 206.839844 L 407.101563 206.972656 L 407.082031 207.105469 L 407.0625 207.242188 L 407.039063 207.523438 L 407.035156 207.667969 L 407.035156 207.964844 L 407.042969 208.109375 L 407.050781 208.25 L 407.066406 208.390625 L 407.082031 208.527344 L 407.105469 208.664063 L 407.132813 208.796875 L 407.160156 208.925781 L 407.195313 209.054688 L 407.234375 209.179688 L 407.273438 209.300781 L 407.320313 209.421875 L 407.371094 209.535156 L 407.480469 209.753906 L 407.539063 209.859375 L 407.601563 209.957031 L 407.667969 210.054688 L 407.738281 210.152344 L 407.8125 210.242188 L 407.890625 210.328125 L 408.054688 210.492188 L 408.144531 210.566406 L 408.234375 210.636719 L 408.328125 210.703125 L 408.425781 210.765625 L 408.527344 210.828125 L 408.632813 210.882813 L 408.738281 210.933594 L 408.851563 210.980469 L 408.964844 211.019531 L 409.082031 211.058594 L 409.199219 211.089844 L 409.324219 211.117188 L 409.449219 211.140625 L 409.574219 211.15625 L 409.707031 211.167969 L 409.839844 211.175781 L 409.976563 211.179688 L 410.070313 211.175781 L 410.164063 211.175781 L 410.34375 211.160156 L 410.433594 211.148438 L 410.605469 211.117188 L 410.6875 211.101563 L 410.769531 211.078125 L 410.847656 211.054688 L 411.003906 211 L 411.152344 210.9375 L 411.226563 210.902344 L 411.296875 210.863281 L 411.367188 210.828125 L 411.5 210.742188 L 411.5625 210.699219 L 411.6875 210.605469 L 411.75 210.554688 L 411.808594 210.503906 L 411.925781 210.394531 L 411.980469 210.339844 L 412.035156 210.28125 L 412.085938 210.21875 L 412.136719 210.160156 L 412.1875 210.09375 L 412.234375 210.03125 L 412.28125 209.964844 L 412.328125 209.894531 L 412.375 209.828125 L 412.417969 209.757813 L 412.460938 209.683594 L 412.503906 209.613281 L 412.542969 209.539063 L 412.582031 209.460938 L 413.496094 209.917969 L 413.449219 210.011719 L 413.402344 210.101563 L 413.351563 210.191406 L 413.300781 210.277344 L 413.246094 210.367188 L 413.191406 210.453125 L 413.074219 210.617188 L 413.011719 210.699219 L 412.945313 210.78125 L 412.878906 210.859375 L 412.808594 210.933594 L 412.738281 211.011719 L 412.589844 211.152344 L 412.507813 211.21875 L 412.429688 211.285156 L 412.34375 211.351563 L 412.261719 211.410156 L 412.171875 211.472656 L 412.082031 211.527344 L 411.992188 211.585938 L 411.898438 211.636719 L 411.800781 211.6875 L 411.703125 211.734375 L 411.601563 211.777344 L 411.390625 211.863281 L 411.171875 211.933594 L 411.058594 211.964844 L 410.824219 212.019531 L 410.703125 212.039063 L 410.578125 212.058594 L 410.453125 212.074219 L 410.324219 212.082031 L 410.191406 212.09375 L 410.058594 212.097656 L 409.921875 212.097656 L 409.722656 212.09375 L 409.53125 212.085938 L 409.34375 212.070313 L 409.160156 212.046875 L 408.980469 212.019531 L 408.808594 211.984375 L 408.640625 211.945313 L 408.476563 211.894531 L 408.316406 211.84375 L 408.164063 211.78125 L 408.015625 211.714844 L 407.875 211.644531 L 407.734375 211.566406 L 407.601563 211.484375 L 407.472656 211.398438 L 407.351563 211.308594 L 407.230469 211.210938 L 407.117188 211.109375 L 407.007813 211.003906 L 406.90625 210.890625 L 406.804688 210.773438 L 406.714844 210.652344 L 406.625 210.527344 L 406.542969 210.398438 L 406.464844 210.265625 L 406.390625 210.125 L 406.324219 209.984375 L 406.257813 209.839844 L 406.203125 209.6875 L 406.148438 209.53125 L 406.101563 209.375 L 406.058594 209.210938 L 406.019531 209.046875 L 405.988281 208.878906 L 405.960938 208.710938 L 405.9375 208.539063 L 405.917969 208.359375 L 405.90625 208.183594 L 405.898438 208 L 405.898438 207.625 L 405.90625 207.4375 L 405.9375 207.070313 L 405.960938 206.894531 L 405.992188 206.722656 L 406.027344 206.554688 L 406.066406 206.386719 L 406.109375 206.226563 L 406.160156 206.070313 L 406.214844 205.914063 L 406.277344 205.765625 L 406.34375 205.621094 L 406.414063 205.484375 L 406.488281 205.347656 L 406.570313 205.21875 L 406.65625 205.09375 L 406.746094 204.972656 L 406.839844 204.855469 L 406.941406 204.746094 L 407.046875 204.636719 L 407.15625 204.535156 L 407.269531 204.4375 L 407.390625 204.347656 L 407.515625 204.257813 L 407.644531 204.175781 L 407.777344 204.101563 L 407.914063 204.027344 L 408.058594 203.960938 L 408.207031 203.902344 L 408.359375 203.84375 L 408.515625 203.792969 L 408.675781 203.75 L 408.839844 203.710938 L 409.007813 203.675781 L 409.179688 203.652344 L 409.359375 203.628906 L 409.539063 203.613281 L 409.726563 203.605469 L 409.917969 203.601563 L 410.175781 203.609375 L 410.425781 203.625 L 410.667969 203.648438 L 410.902344 203.683594 L 411.125 203.730469 L 411.34375 203.789063 L 411.550781 203.855469 L 411.75 203.933594 L 411.9375 204.019531 L 412.121094 204.117188 L 412.292969 204.226563 L 412.453125 204.34375 L 412.609375 204.472656 L 412.753906 204.609375 L 412.886719 204.757813 L 413.011719 204.917969 L 413.128906 205.085938 L 413.234375 205.261719 L 413.332031 205.449219 L 413.421875 205.648438 L 412.359375 206 L 412.335938 205.941406 L 412.28125 205.824219 L 412.253906 205.769531 L 412.222656 205.714844 L 412.191406 205.65625 L 412.15625 205.601563 L 412.121094 205.550781 L 412.042969 205.441406 L 412.003906 205.390625 L 411.960938 205.335938 L 411.914063 205.285156 L 411.867188 205.238281 L 411.820313 205.1875 L 411.769531 205.140625 L 411.714844 205.097656 L 411.660156 205.050781 L 411.605469 205.007813 L 411.546875 204.96875 L 411.484375 204.925781 L 411.421875 204.890625 L 411.355469 204.851563 L 411.289063 204.816406 L 411.21875 204.785156 L 411.148438 204.75 L 411.074219 204.722656 L 411 204.691406 L 410.921875 204.664063 L 410.84375 204.640625 L 410.679688 204.59375 L 410.59375 204.578125 L 410.414063 204.546875 L 410.320313 204.535156 L 410.226563 204.527344 L 410.03125 204.519531 Z M 409.929688 204.515625 "/>
<path style=" stroke:none;fill-rule:evenodd;fill:rgb(0%,0%,0%);fill-opacity:1;" d="M 409.929688 221.796875 L 409.789063 221.800781 L 409.652344 221.804688 L 409.519531 221.816406 L 409.390625 221.835938 L 409.265625 221.855469 L 409.140625 221.882813 L 409.019531 221.910156 L 408.902344 221.945313 L 408.789063 221.988281 L 408.679688 222.03125 L 408.574219 222.078125 L 408.472656 222.132813 L 408.371094 222.191406 L 408.277344 222.25 L 408.183594 222.316406 L 408.09375 222.382813 L 408.007813 222.457031 L 407.925781 222.535156 L 407.847656 222.613281 L 407.773438 222.699219 L 407.699219 222.789063 L 407.632813 222.878906 L 407.507813 223.074219 L 407.453125 223.175781 L 407.398438 223.28125 L 407.347656 223.390625 L 407.304688 223.503906 L 407.261719 223.621094 L 407.183594 223.863281 L 407.152344 223.992188 L 407.125 224.121094 L 407.101563 224.25 L 407.0625 224.523438 L 407.050781 224.660156 L 407.039063 224.804688 L 407.035156 224.949219 L 407.035156 225.242188 L 407.050781 225.53125 L 407.066406 225.671875 L 407.082031 225.808594 L 407.105469 225.945313 L 407.132813 226.078125 L 407.160156 226.207031 L 407.195313 226.335938 L 407.234375 226.460938 L 407.273438 226.582031 L 407.320313 226.699219 L 407.371094 226.816406 L 407.480469 227.035156 L 407.539063 227.136719 L 407.601563 227.238281 L 407.667969 227.335938 L 407.738281 227.429688 L 407.8125 227.519531 L 407.890625 227.609375 L 407.972656 227.691406 L 408.054688 227.769531 L 408.234375 227.917969 L 408.328125 227.984375 L 408.425781 228.046875 L 408.527344 228.105469 L 408.632813 228.160156 L 408.738281 228.210938 L 408.851563 228.257813 L 408.964844 228.300781 L 409.082031 228.339844 L 409.199219 228.371094 L 409.324219 228.398438 L 409.574219 228.4375 L 409.707031 228.449219 L 409.839844 228.457031 L 410.070313 228.457031 L 410.164063 228.453125 L 410.253906 228.449219 L 410.34375 228.4375 L 410.433594 228.429688 L 410.605469 228.398438 L 410.769531 228.359375 L 410.847656 228.335938 L 411.003906 228.28125 L 411.078125 228.25 L 411.152344 228.214844 L 411.226563 228.183594 L 411.367188 228.105469 L 411.433594 228.066406 L 411.5 228.023438 L 411.5625 227.976563 L 411.625 227.933594 L 411.75 227.832031 L 411.867188 227.730469 L 411.925781 227.675781 L 412.035156 227.558594 L 412.085938 227.5 L 412.1875 227.375 L 412.328125 227.175781 L 412.375 227.105469 L 412.460938 226.964844 L 412.503906 226.890625 L 412.582031 226.742188 L 413.496094 227.199219 L 413.449219 227.289063 L 413.402344 227.382813 L 413.351563 227.472656 L 413.300781 227.558594 L 413.191406 227.730469 L 413.132813 227.816406 L 413.074219 227.898438 L 413.011719 227.980469 L 412.945313 228.058594 L 412.878906 228.140625 L 412.738281 228.289063 L 412.664063 228.363281 L 412.589844 228.433594 L 412.507813 228.5 L 412.429688 228.566406 L 412.34375 228.628906 L 412.261719 228.691406 L 412.082031 228.808594 L 411.992188 228.863281 L 411.898438 228.917969 L 411.800781 228.964844 L 411.703125 229.015625 L 411.601563 229.058594 L 411.496094 229.101563 L 411.390625 229.140625 L 411.28125 229.179688 L 411.171875 229.214844 L 411.058594 229.246094 L 410.941406 229.273438 L 410.824219 229.296875 L 410.703125 229.320313 L 410.453125 229.351563 L 410.324219 229.363281 L 410.058594 229.378906 L 409.921875 229.378906 L 409.722656 229.375 L 409.53125 229.367188 L 409.34375 229.351563 L 409.160156 229.328125 L 408.980469 229.300781 L 408.808594 229.265625 L 408.640625 229.222656 L 408.476563 229.175781 L 408.316406 229.121094 L 408.164063 229.0625 L 408.015625 228.996094 L 407.734375 228.847656 L 407.601563 228.765625 L 407.472656 228.679688 L 407.230469 228.492188 L 407.117188 228.390625 L 407.007813 228.28125 L 406.90625 228.171875 L 406.804688 228.054688 L 406.714844 227.933594 L 406.625 227.808594 L 406.542969 227.679688 L 406.464844 227.542969 L 406.390625 227.40625 L 406.324219 227.265625 L 406.257813 227.117188 L 406.203125 226.96875 L 406.148438 226.8125 L 406.101563 226.652344 L 406.058594 226.492188 L 406.019531 226.328125 L 405.988281 226.160156 L 405.960938 225.992188 L 405.9375 225.816406 L 405.917969 225.640625 L 405.90625 225.460938 L 405.898438 225.28125 L 405.898438 224.902344 L 405.90625 224.714844 L 405.921875 224.53125 L 405.9375 224.351563 L 405.960938 224.175781 L 405.992188 224.003906 L 406.027344 223.832031 L 406.066406 223.667969 L 406.109375 223.507813 L 406.160156 223.347656 L 406.214844 223.195313 L 406.277344 223.046875 L 406.34375 222.902344 L 406.414063 222.761719 L 406.488281 222.628906 L 406.570313 222.5 L 406.65625 222.375 L 406.746094 222.253906 L 406.839844 222.136719 L 406.941406 222.023438 L 407.046875 221.917969 L 407.15625 221.816406 L 407.269531 221.71875 L 407.390625 221.625 L 407.515625 221.539063 L 407.644531 221.457031 L 407.777344 221.378906 L 407.914063 221.308594 L 408.058594 221.242188 L 408.207031 221.179688 L 408.359375 221.125 L 408.515625 221.074219 L 408.675781 221.027344 L 408.839844 220.988281 L 409.007813 220.957031 L 409.179688 220.929688 L 409.359375 220.910156 L 409.539063 220.894531 L 409.726563 220.886719 L 409.917969 220.882813 L 410.175781 220.886719 L 410.425781 220.902344 L 410.667969 220.929688 L 410.902344 220.964844 L 411.125 221.011719 L 411.34375 221.066406 L 411.550781 221.136719 L 411.75 221.210938 L 411.9375 221.300781 L 412.121094 221.398438 L 412.292969 221.507813 L 412.453125 221.625 L 412.609375 221.753906 L 412.753906 221.890625 L 412.886719 222.039063 L 413.011719 222.195313 L 413.128906 222.363281 L 413.234375 222.542969 L 413.332031 222.730469 L 413.421875 222.925781 L 412.359375 223.277344 L 412.335938 223.222656 L 412.28125 223.105469 L 412.253906 223.050781 L 412.222656 222.992188 L 412.191406 222.9375 L 412.121094 222.828125 L 412.082031 222.777344 L 412.003906 222.667969 L 411.960938 222.617188 L 411.867188 222.515625 L 411.820313 222.46875 L 411.769531 222.421875 L 411.714844 222.375 L 411.605469 222.289063 L 411.546875 222.246094 L 411.421875 222.167969 L 411.289063 222.097656 L 411.21875 222.0625 L 411.148438 222.03125 L 411.074219 222 L 411 221.972656 L 410.84375 221.917969 L 410.761719 221.894531 L 410.679688 221.875 L 410.59375 221.855469 L 410.503906 221.839844 L 410.414063 221.828125 L 410.320313 221.816406 L 410.226563 221.808594 L 410.128906 221.800781 L 410.03125 221.796875 Z M 409.929688 221.796875 "/>
<path style=" stroke:none;fill-rule:evenodd;fill:rgb(0%,0%,0%);fill-opacity:1;" d="M 414.488281 226.542969 L 414.488281 225.605469 L 417.417969 225.605469 L 417.417969 226.542969 Z M 414.488281 226.542969 "/>
<path style=" stroke:none;fill-rule:evenodd;fill:rgb(0%,0%,0%);fill-opacity:1;" d="M 413.378906 242.328125 L 413.375 242.53125 L 413.367188 242.730469 L 413.351563 242.925781 L 413.328125 243.113281 L 413.300781 243.300781 L 413.265625 243.480469 L 413.226563 243.65625 L 413.179688 243.824219 L 413.128906 243.992188 L 413.070313 244.152344 L 413.003906 244.304688 L 412.933594 244.453125 L 412.863281 244.597656 L 412.785156 244.738281 L 412.613281 245.003906 L 412.523438 245.125 L 412.425781 245.246094 L 412.324219 245.359375 L 412.21875 245.46875 L 412.109375 245.570313 L 411.996094 245.671875 L 411.878906 245.761719 L 411.757813 245.851563 L 411.628906 245.933594 L 411.5 246.011719 L 411.367188 246.085938 L 411.230469 246.152344 L 411.085938 246.214844 L 410.941406 246.273438 L 410.792969 246.324219 L 410.644531 246.367188 L 410.492188 246.410156 L 410.335938 246.445313 L 410.179688 246.472656 L 410.019531 246.5 L 409.859375 246.515625 L 409.695313 246.53125 L 409.527344 246.539063 L 409.359375 246.542969 L 406.273438 246.542969 L 406.273438 238.285156 L 409.003906 238.285156 L 409.191406 238.289063 L 409.378906 238.296875 L 409.5625 238.308594 L 409.742188 238.324219 L 409.917969 238.34375 L 410.09375 238.371094 L 410.265625 238.402344 L 410.433594 238.4375 L 410.597656 238.480469 L 410.761719 238.527344 L 410.917969 238.574219 L 411.074219 238.628906 L 411.371094 238.753906 L 411.511719 238.824219 L 411.648438 238.902344 L 411.78125 238.984375 L 411.90625 239.070313 L 412.03125 239.160156 L 412.148438 239.257813 L 412.261719 239.359375 L 412.371094 239.464844 L 412.472656 239.578125 L 412.570313 239.695313 L 412.664063 239.816406 L 412.753906 239.945313 L 412.835938 240.078125 L 412.910156 240.21875 L 412.984375 240.363281 L 413.050781 240.511719 L 413.113281 240.667969 L 413.167969 240.828125 L 413.21875 240.996094 L 413.261719 241.167969 L 413.296875 241.347656 L 413.328125 241.53125 L 413.351563 241.722656 L 413.367188 241.917969 L 413.375 242.121094 Z M 412.253906 242.328125 L 412.25 242.164063 L 412.246094 242.003906 L 412.234375 241.847656 L 412.195313 241.550781 L 412.167969 241.410156 L 412.136719 241.277344 L 412.101563 241.144531 L 412.058594 241.019531 L 412.015625 240.898438 L 411.964844 240.78125 L 411.910156 240.667969 L 411.851563 240.558594 L 411.726563 240.355469 L 411.65625 240.261719 L 411.582031 240.167969 L 411.503906 240.082031 L 411.425781 240 L 411.339844 239.921875 L 411.25 239.847656 L 411.160156 239.777344 L 411.066406 239.710938 L 410.964844 239.648438 L 410.863281 239.589844 L 410.757813 239.539063 L 410.648438 239.488281 L 410.539063 239.441406 L 410.304688 239.363281 L 410.179688 239.328125 L 410.058594 239.296875 L 409.929688 239.269531 L 409.800781 239.246094 L 409.671875 239.226563 L 409.535156 239.210938 L 409.402344 239.199219 L 409.261719 239.1875 L 409.121094 239.183594 L 407.390625 239.183594 L 407.390625 245.644531 L 409.359375 245.644531 L 409.488281 245.636719 L 409.613281 245.625 L 409.855469 245.59375 L 409.976563 245.570313 L 410.09375 245.542969 L 410.207031 245.511719 L 410.433594 245.433594 L 410.542969 245.390625 L 410.753906 245.289063 L 410.851563 245.234375 L 410.949219 245.171875 L 411.046875 245.105469 L 411.136719 245.039063 L 411.226563 244.964844 L 411.308594 244.886719 L 411.394531 244.808594 L 411.472656 244.722656 L 411.546875 244.632813 L 411.621094 244.539063 L 411.6875 244.441406 L 411.753906 244.339844 L 411.816406 244.234375 L 411.871094 244.125 L 411.925781 244.011719 L 412.027344 243.769531 L 412.070313 243.644531 L 412.109375 243.511719 L 412.140625 243.378906 L 412.171875 243.242188 L 412.21875 242.953125 L 412.234375 242.804688 L 412.246094 242.648438 L 412.25 242.492188 Z M 412.253906 242.328125 "/>
<path style=" stroke:none;fill-rule:evenodd;fill:rgb(0%,0%,0%);fill-opacity:1;" d="M 407.390625 256.480469 L 407.390625 259.550781 L 411.996094 259.550781 L 411.996094 260.476563 L 407.390625 260.476563 L 407.390625 263.820313 L 406.273438 263.820313 L 406.273438 255.566406 L 412.136719 255.566406 L 412.136719 256.480469 Z M 407.390625 256.480469 "/>
</g>
</svg>
