<?xml version="1.0" encoding="UTF-8" standalone="no"?>
<svg
   xmlns:dc="http://purl.org/dc/elements/1.1/"
   xmlns:cc="http://creativecommons.org/ns#"
   xmlns:rdf="http://www.w3.org/1999/02/22-rdf-syntax-ns#"
   xmlns:svg="http://www.w3.org/2000/svg"
   xmlns="http://www.w3.org/2000/svg"
   xmlns:sodipodi="http://sodipodi.sourceforge.net/DTD/sodipodi-0.dtd"
   xmlns:inkscape="http://www.inkscape.org/namespaces/inkscape"
   version="1.1"
   style="font-family:open sans;font-size:12px;"
   width="1040"
   height="410"
   id="svg1509"
   sodipodi:docname="chart.svg"
   inkscape:version="1.0.1 (3bc2e813f5, 2020-09-07)"
   inkscape:export-filename="C:\Users\mc72574\Dropbox\Hugo\Sites\sta235\exampleSite\content\Classes\Week4\1_RCT\images\nicholas_cage.png"
   inkscape:export-xdpi="96"
   inkscape:export-ydpi="96">
  <metadata
     id="metadata1513">
    <rdf:RDF>
      <cc:Work
         rdf:about="">
        <dc:format>image/svg+xml</dc:format>
        <dc:type
           rdf:resource="http://purl.org/dc/dcmitype/StillImage" />
      </cc:Work>
    </rdf:RDF>
  </metadata>
  <sodipodi:namedview
     pagecolor="#ffffff"
     bordercolor="#666666"
     borderopacity="1"
     objecttolerance="10"
     gridtolerance="10"
     guidetolerance="10"
     inkscape:pageopacity="0"
     inkscape:pageshadow="2"
     inkscape:window-width="1500"
     inkscape:window-height="930"
     id="namedview1511"
     showgrid="false"
     inkscape:zoom="1.5004828"
     inkscape:cx="577.18719"
     inkscape:cy="205"
     inkscape:window-x="-7"
     inkscape:window-y="-7"
     inkscape:window-maximized="1"
     inkscape:current-layer="svg1509" />
  <desc
     id="desc1174">Created with Highcharts 4.1.5</desc>
  <defs
     id="defs1179">
    <clipPath
       id="highcharts-63">
      <rect
         x="0"
         y="0"
         width="843"
         height="210"
         id="rect1176" />
    </clipPath>
  </defs>
  <rect
     x="0"
     y="0"
     width="1040"
     height="410"
     strokeWidth="0"
     fill="#ffffff"
     class=" highcharts-background"
     id="rect1181" />
  <g
     class="highcharts-grid"
     id="g1183" />
  <g
     class="highcharts-grid"
     id="g1185" />
  <g
     class="highcharts-grid"
     id="g1195">
    <path
       fill="none"
       d="M 115 338.5 L 958 338.5"
       stroke="#D8D8D8"
       stroke-width="1"
       opacity="1"
       id="path1187" />
    <path
       fill="none"
       d="M 115 268.5 L 958 268.5"
       stroke="#D8D8D8"
       stroke-width="1"
       opacity="1"
       id="path1189" />
    <path
       fill="none"
       d="M 115 198.5 L 958 198.5"
       stroke="#D8D8D8"
       stroke-width="1"
       opacity="1"
       id="path1191" />
    <path
       fill="none"
       d="M 115 127.5 L 958 127.5"
       stroke="#D8D8D8"
       stroke-width="1"
       opacity="1"
       id="path1193" />
  </g>
  <g
     class="highcharts-grid"
     id="g1205">
    <path
       fill="none"
       d="M 115 338.5 L 958 338.5"
       stroke="#D8D8D8"
       stroke-width="1"
       opacity="1"
       id="path1197" />
    <path
       fill="none"
       d="M 115 268.5 L 958 268.5"
       stroke="#D8D8D8"
       stroke-width="1"
       opacity="1"
       id="path1199" />
    <path
       fill="none"
       d="M 115 198.5 L 958 198.5"
       stroke="#D8D8D8"
       stroke-width="1"
       opacity="1"
       id="path1201" />
    <path
       fill="none"
       d="M 115 127.5 L 958 127.5"
       stroke="#D8D8D8"
       stroke-width="1"
       opacity="1"
       id="path1203" />
  </g>
  <g
     class="highcharts-axis"
     id="g1233">
    <path
       fill="none"
       d="M 191.5 338 L 191.5 348"
       stroke="#C0D0E0"
       stroke-width="1"
       opacity="1"
       id="path1207" />
    <path
       fill="none"
       d="M 267.5 338 L 267.5 348"
       stroke="#C0D0E0"
       stroke-width="1"
       opacity="1"
       id="path1209" />
    <path
       fill="none"
       d="M 344.5 338 L 344.5 348"
       stroke="#C0D0E0"
       stroke-width="1"
       opacity="1"
       id="path1211" />
    <path
       fill="none"
       d="M 421.5 338 L 421.5 348"
       stroke="#C0D0E0"
       stroke-width="1"
       opacity="1"
       id="path1213" />
    <path
       fill="none"
       d="M 497.5 338 L 497.5 348"
       stroke="#C0D0E0"
       stroke-width="1"
       opacity="1"
       id="path1215" />
    <path
       fill="none"
       d="M 574.5 338 L 574.5 348"
       stroke="#C0D0E0"
       stroke-width="1"
       opacity="1"
       id="path1217" />
    <path
       fill="none"
       d="M 650.5 338 L 650.5 348"
       stroke="#C0D0E0"
       stroke-width="1"
       opacity="1"
       id="path1219" />
    <path
       fill="none"
       d="M 727.5 338 L 727.5 348"
       stroke="#C0D0E0"
       stroke-width="1"
       opacity="1"
       id="path1221" />
    <path
       fill="none"
       d="M 804.5 338 L 804.5 348"
       stroke="#C0D0E0"
       stroke-width="1"
       opacity="1"
       id="path1223" />
    <path
       fill="none"
       d="M 880.5 338 L 880.5 348"
       stroke="#C0D0E0"
       stroke-width="1"
       opacity="1"
       id="path1225" />
    <path
       fill="none"
       d="M 957.5 338 L 957.5 348"
       stroke="#C0D0E0"
       stroke-width="1"
       opacity="1"
       id="path1227" />
    <path
       fill="none"
       d="M 114.5 338 L 114.5 348"
       stroke="#C0D0E0"
       stroke-width="1"
       opacity="1"
       id="path1229" />
    <path
       fill="none"
       d="M 115 338.5 L 958 338.5"
       stroke="#C0D0E0"
       stroke-width="1"
       visibility="visible"
       id="path1231" />
  </g>
  <g
     class="highcharts-axis"
     id="g1261">
    <path
       fill="none"
       d="M 191.5 128 L 191.5 118"
       stroke="#C0D0E0"
       stroke-width="1"
       opacity="1"
       id="path1235" />
    <path
       fill="none"
       d="M 267.5 128 L 267.5 118"
       stroke="#C0D0E0"
       stroke-width="1"
       opacity="1"
       id="path1237" />
    <path
       fill="none"
       d="M 344.5 128 L 344.5 118"
       stroke="#C0D0E0"
       stroke-width="1"
       opacity="1"
       id="path1239" />
    <path
       fill="none"
       d="M 421.5 128 L 421.5 118"
       stroke="#C0D0E0"
       stroke-width="1"
       opacity="1"
       id="path1241" />
    <path
       fill="none"
       d="M 497.5 128 L 497.5 118"
       stroke="#C0D0E0"
       stroke-width="1"
       opacity="1"
       id="path1243" />
    <path
       fill="none"
       d="M 574.5 128 L 574.5 118"
       stroke="#C0D0E0"
       stroke-width="1"
       opacity="1"
       id="path1245" />
    <path
       fill="none"
       d="M 650.5 128 L 650.5 118"
       stroke="#C0D0E0"
       stroke-width="1"
       opacity="1"
       id="path1247" />
    <path
       fill="none"
       d="M 727.5 128 L 727.5 118"
       stroke="#C0D0E0"
       stroke-width="1"
       opacity="1"
       id="path1249" />
    <path
       fill="none"
       d="M 804.5 128 L 804.5 118"
       stroke="#C0D0E0"
       stroke-width="1"
       opacity="1"
       id="path1251" />
    <path
       fill="none"
       d="M 880.5 128 L 880.5 118"
       stroke="#C0D0E0"
       stroke-width="1"
       opacity="1"
       id="path1253" />
    <path
       fill="none"
       d="M 957.5 128 L 957.5 118"
       stroke="#C0D0E0"
       stroke-width="1"
       opacity="1"
       id="path1255" />
    <path
       fill="none"
       d="M 114.5 128 L 114.5 118"
       stroke="#C0D0E0"
       stroke-width="1"
       opacity="1"
       id="path1257" />
    <path
       fill="none"
       d="M 115 127.5 L 958 127.5"
       stroke="#C0D0E0"
       stroke-width="1"
       visibility="visible"
       id="path1259" />
  </g>
  <g
     class="highcharts-axis"
     id="g1267">
    <text
       x="1015.5938"
       text-anchor="middle"
       transform="rotate(90,1015.5937,233)"
       class=" highcharts-yaxis-title"
       style="color:#000000;fill:#000000"
       visibility="visible"
       y="233"
       id="text1265"><tspan
         id="tspan1263"
         style="font-style:normal;font-variant:normal;font-weight:normal;font-stretch:normal;font-family:'Fira Sans Condensed';-inkscape-font-specification:'Fira Sans Condensed, '">Nicholas Cage</tspan></text>
  </g>
  <g
     class="highcharts-axis"
     id="g1273"
     style="fill:#bf398b;fill-opacity:1">
    <text
       x="23.578125"
       text-anchor="middle"
       transform="translate(0,0) rotate(270 23.578125 233)"
       class=" highcharts-yaxis-title"
       style="color:#ba0f27;fill:#bf398b;fill-opacity:1"
       visibility="visible"
       y="233"
       id="text1271"><tspan
         id="tspan1269"
         style="fill:#bf398b;fill-opacity:1">Swimming pool drownings</tspan></text>
  </g>
  <g
     class="highcharts-series-group"
     id="g1331">
    <g
       class="highcharts-series"
       visibility="visible"
       transform="translate(115,128)"
       clip-path="url(#highcharts-63)"
       id="g1277">
      <path
         fill="none"
         d="m 38.318182,140 c 0,0 45.981818,0 76.636368,0 30.65454,0 45.98181,0 76.63636,0 30.65454,0 45.98182,-35 76.63636,-35 30.65455,0 45.98182,70 76.63637,70 30.65454,0 45.98181,0 76.63636,0 30.65455,0 45.98182,-21 76.63636,-35 30.65455,-14 45.98182,-21 76.63637,-35 30.65454,-14 45.98182,-35 76.63636,-35 30.65455,0 45.98182,105 76.63636,105 C 758.7,175 804.68182,70 804.68182,70"
         stroke="#000000"
         stroke-width="2"
         stroke-linejoin="round"
         stroke-linecap="round"
         id="path1275" />
    </g>
    <g
       class="highcharts-markers"
       visibility="visible"
       transform="translate(115,128)"
       clip-path="none"
       id="g1301">
      <path
         fill="#000000"
         d="m 804,66 c 5.328,0 5.328,8 0,8 -5.328,0 -5.328,-8 0,-8 z"
         id="path1279" />
      <path
         fill="#000000"
         d="m 728,171 c 5.328,0 5.328,8 0,8 -5.328,0 -5.328,-8 0,-8 z"
         id="path1281" />
      <path
         fill="#000000"
         d="m 651,66 c 5.328,0 5.328,8 0,8 -5.328,0 -5.328,-8 0,-8 z"
         id="path1283" />
      <path
         fill="#000000"
         d="m 574,101 c 5.328,0 5.328,8 0,8 -5.328,0 -5.328,-8 0,-8 z"
         id="path1285" />
      <path
         fill="#000000"
         d="m 498,136 c 5.328,0 5.328,8 0,8 -5.328,0 -5.328,-8 0,-8 z"
         id="path1287" />
      <path
         fill="#000000"
         d="m 421,171 c 5.328,0 5.328,8 0,8 -5.328,0 -5.328,-8 0,-8 z"
         id="path1289" />
      <path
         fill="#000000"
         d="m 344,171 c 5.328,0 5.328,8 0,8 -5.328,0 -5.328,-8 0,-8 z"
         id="path1291" />
      <path
         fill="#000000"
         d="m 268,101 c 5.328,0 5.328,8 0,8 -5.328,0 -5.328,-8 0,-8 z"
         id="path1293" />
      <path
         fill="#000000"
         d="m 191,136 c 5.328,0 5.328,8 0,8 -5.328,0 -5.328,-8 0,-8 z"
         id="path1295" />
      <path
         fill="#000000"
         d="m 114,136 c 5.328,0 5.328,8 0,8 -5.328,0 -5.328,-8 0,-8 z"
         id="path1297" />
      <path
         fill="#000000"
         d="m 38,136 c 5.328,0 5.328,8 0,8 -5.328,0 -5.328,-8 0,-8 z"
         id="path1299" />
    </g>
    <g
       class="highcharts-series"
       visibility="visible"
       transform="translate(115,128)"
       clip-path="url(#highcharts-63)"
       id="g1305">
      <path
         fill="none"
         d="m 38.318182,108.5 c 0,0 45.981818,24.5 76.636368,24.5 30.65454,0 45.98181,0 76.63636,0 30.65454,0 45.98182,2.1 76.63636,14 30.65455,11.9 45.98182,45.5 76.63637,45.5 30.65454,0 45.98181,-31.5 76.63636,-35 30.65455,-3.5 45.98182,-1.4 76.63636,-3.5 30.65455,-2.1 45.98182,0 76.63637,-7 30.65454,-7 45.98182,-87.5 76.63636,-87.5 30.65455,0 45.98182,101.5 76.63636,101.5 30.65455,0 76.63637,-28 76.63637,-28"
         stroke="#ba0f27"
         stroke-width="2"
         stroke-linejoin="round"
         stroke-linecap="round"
         id="path1303"
         style="fill-opacity:1;stroke:#bf398b;stroke-opacity:1" />
    </g>
    <g
       class="highcharts-markers"
       visibility="visible"
       transform="translate(115,128)"
       clip-path="none"
       id="g1329"
       style="fill:#bf398b;fill-opacity:1">
      <path
         fill="#ba0f27"
         d="m 804,129 4,4 -4,4 -4,-4 z"
         id="path1307"
         style="fill:#bf398b;fill-opacity:1" />
      <path
         fill="#ba0f27"
         d="m 728,157 4,4 -4,4 -4,-4 z"
         id="path1309"
         style="fill:#bf398b;fill-opacity:1" />
      <path
         fill="#ba0f27"
         d="m 651,55.5 4,4 -4,4 -4,-4 z"
         id="path1311"
         style="fill:#bf398b;fill-opacity:1" />
      <path
         fill="#ba0f27"
         d="m 574,143 4,4 -4,4 -4,-4 z"
         id="path1313"
         style="fill:#bf398b;fill-opacity:1" />
      <path
         fill="#ba0f27"
         d="m 498,150 4,4 -4,4 -4,-4 z"
         id="path1315"
         style="fill:#bf398b;fill-opacity:1" />
      <path
         fill="#ba0f27"
         d="m 421,153.5 4,4 -4,4 -4,-4 z"
         id="path1317"
         style="fill:#bf398b;fill-opacity:1" />
      <path
         fill="#ba0f27"
         d="m 344,188.5 4,4 -4,4 -4,-4 z"
         id="path1319"
         style="fill:#bf398b;fill-opacity:1" />
      <path
         fill="#ba0f27"
         d="m 268,143 4,4 -4,4 -4,-4 z"
         id="path1321"
         style="fill:#bf398b;fill-opacity:1" />
      <path
         fill="#ba0f27"
         d="m 191,129 4,4 -4,4 -4,-4 z"
         id="path1323"
         style="fill:#bf398b;fill-opacity:1" />
      <path
         fill="#ba0f27"
         d="m 114,129 4,4 -4,4 -4,-4 z"
         id="path1325"
         style="fill:#bf398b;fill-opacity:1" />
      <path
         fill="#ba0f27"
         d="m 38,104.5 4,4 -4,4 -4,-4 z"
         id="path1327"
         style="fill:#bf398b;fill-opacity:1" />
    </g>
  </g>
  <text
     x="520"
     text-anchor="middle"
     class="highcharts-title"
     style="color:#777777;font-size:18px;fill:#777777"
     y="24"
     id="text1339"
     inkscape:label="text1339"><tspan
       style="font-style:normal;font-variant:normal;font-weight:bold;font-stretch:normal;font-size:24px;font-family:'Fira Sans';-inkscape-font-specification:'Fira Sans Bold';fill:#ba0f27"
       id="tspan1333"><tspan
   style="fill:#bf3984;fill-opacity:1"
   id="tspan1515">Number of people who drowned by falling into a poo</tspan>l</tspan><tspan
       style="font-style:normal;font-variant:normal;font-weight:bold;font-stretch:normal;font-family:'Fira Sans';-inkscape-font-specification:'Fira Sans Bold'"
       x="520"
       dy="21"
       id="tspan1335">correlates with</tspan><tspan
       style="font-style:normal;font-variant:normal;font-weight:bold;font-stretch:normal;font-size:24px;font-family:'Fira Sans';-inkscape-font-specification:'Fira Sans Bold';fill:#001f1b;fill-opacity:1"
       x="520"
       dy="29"
       id="tspan1337">Films Nicolas Cage appeared in</tspan></text>
  <g
     class="highcharts-legend"
     transform="translate(375,370)"
     id="g1365">
    <g
       id="g1363">
      <g
         id="g1361">
        <g
           class="highcharts-legend-item"
           transform="translate(8,3)"
           id="g1349">
          <path
             fill="none"
             d="M 0,11 H 16"
             stroke="#000000"
             stroke-width="2"
             id="path1341" />
          <path
             fill="#000000"
             d="m 8,7 c 5.328,0 5.328,8 0,8 C 2.672,15 2.672,7 8,7 Z"
             id="path1343" />
          <text
             x="21"
             style="color:#333333;font-weight:bold;font-size:12px;fill:#333333"
             text-anchor="start"
             y="15"
             id="text1347"><tspan
               id="tspan1345"
               style="font-style:normal;font-variant:normal;font-weight:bold;font-stretch:normal;font-family:'Fira Sans Condensed';-inkscape-font-specification:'Fira Sans Condensed,  Bold'">Nicholas Cage</tspan></text>
        </g>
        <g
           class="highcharts-legend-item"
           transform="translate(123.67188,3)"
           id="g1359">
          <path
             fill="none"
             d="M 0,11 H 16"
             stroke="#ba0f27"
             stroke-width="2"
             id="path1351"
             style="stroke:#bf398b;stroke-opacity:1" />
          <path
             fill="#ba0f27"
             d="m 8,7 4,4 -4,4 -4,-4 z"
             id="path1353"
             style="stroke:#bf398b;stroke-opacity:1" />
          <text
             x="21"
             y="15"
             style="color:#333333;font-weight:bold;font-size:12px;fill:#333333"
             text-anchor="start"
             id="text1357"><tspan
               id="tspan1355"
               style="font-style:normal;font-variant:normal;font-weight:bold;font-stretch:normal;font-family:'Fira Sans Condensed';-inkscape-font-specification:'Fira Sans Condensed,  Bold'">Swimming pool drownings</tspan></text>
        </g>
      </g>
    </g>
  </g>
  <g
     class="highcharts-axis-labels highcharts-xaxis-labels"
     id="g1411">
    <text
       x="153.3181818181818"
       style="color:#000000;cursor:default;font-size:11px;fill:#000000;width:76.63636363636364;text-overflow:ellipsis;"
       text-anchor="middle"
       transform="translate(0,0)"
       y="357"
       opacity="1"
       id="text1369"><tspan
         id="tspan1367">1999</tspan></text>
    <text
       x="229.95454545454544"
       style="color:#000000;cursor:default;font-size:11px;fill:#000000;width:76.63636363636364;text-overflow:ellipsis;"
       text-anchor="middle"
       transform="translate(0,0)"
       y="357"
       opacity="1"
       id="text1373"><tspan
         id="tspan1371">2000</tspan></text>
    <text
       x="306.59090909090907"
       style="color:#000000;cursor:default;font-size:11px;fill:#000000;width:76.63636363636364;text-overflow:ellipsis;"
       text-anchor="middle"
       transform="translate(0,0)"
       y="357"
       opacity="1"
       id="text1377"><tspan
         id="tspan1375">2001</tspan></text>
    <text
       x="383.22727272727275"
       style="color:#000000;cursor:default;font-size:11px;fill:#000000;width:76.63636363636364;text-overflow:ellipsis;"
       text-anchor="middle"
       transform="translate(0,0)"
       y="357"
       opacity="1"
       id="text1381"><tspan
         id="tspan1379">2002</tspan></text>
    <text
       x="459.8636363636364"
       style="color:#000000;cursor:default;font-size:11px;fill:#000000;width:76.63636363636364;text-overflow:ellipsis;"
       text-anchor="middle"
       transform="translate(0,0)"
       y="357"
       opacity="1"
       id="text1385"><tspan
         id="tspan1383">2003</tspan></text>
    <text
       x="536.4999999999999"
       style="color:#000000;cursor:default;font-size:11px;fill:#000000;width:76.63636363636364;text-overflow:ellipsis;"
       text-anchor="middle"
       transform="translate(0,0)"
       y="357"
       opacity="1"
       id="text1389"><tspan
         id="tspan1387">2004</tspan></text>
    <text
       x="613.1363636363636"
       style="color:#000000;cursor:default;font-size:11px;fill:#000000;width:76.63636363636364;text-overflow:ellipsis;"
       text-anchor="middle"
       transform="translate(0,0)"
       y="357"
       opacity="1"
       id="text1393"><tspan
         id="tspan1391">2005</tspan></text>
    <text
       x="689.7727272727273"
       style="color:#000000;cursor:default;font-size:11px;fill:#000000;width:76.63636363636364;text-overflow:ellipsis;"
       text-anchor="middle"
       transform="translate(0,0)"
       y="357"
       opacity="1"
       id="text1397"><tspan
         id="tspan1395">2006</tspan></text>
    <text
       x="766.409090909091"
       style="color:#000000;cursor:default;font-size:11px;fill:#000000;width:76.63636363636364;text-overflow:ellipsis;"
       text-anchor="middle"
       transform="translate(0,0)"
       y="357"
       opacity="1"
       id="text1401"><tspan
         id="tspan1399">2007</tspan></text>
    <text
       x="843.0454545454546"
       style="color:#000000;cursor:default;font-size:11px;fill:#000000;width:76.63636363636364;text-overflow:ellipsis;"
       text-anchor="middle"
       transform="translate(0,0)"
       y="357"
       opacity="1"
       id="text1405"><tspan
         id="tspan1403">2008</tspan></text>
    <text
       x="919.6818181818182"
       style="color:#000000;cursor:default;font-size:11px;fill:#000000;width:76.63636363636364;text-overflow:ellipsis;"
       text-anchor="middle"
       transform="translate(0,0)"
       y="357"
       opacity="1"
       id="text1409"><tspan
         id="tspan1407">2009</tspan></text>
  </g>
  <g
     class="highcharts-axis-labels highcharts-xaxis-labels"
     id="g1457"
     style="fill:#bf398b;fill-opacity:0.99000001">
    <text
       x="153.31818"
       style="color:#ba0f27;font-size:11px;fill:#bf398b;fill-opacity:0.99000001"
       text-anchor="middle"
       y="113"
       opacity="1"
       id="text1415"><tspan
         id="tspan1413"
         style="fill:#bf398b;fill-opacity:0.99000001">1999</tspan></text>
    <text
       x="229.95454"
       style="color:#ba0f27;font-size:11px;fill:#bf398b;fill-opacity:0.99000001"
       text-anchor="middle"
       y="113"
       opacity="1"
       id="text1419"><tspan
         id="tspan1417"
         style="fill:#bf398b;fill-opacity:0.99000001">2000</tspan></text>
    <text
       x="306.59091"
       style="color:#ba0f27;font-size:11px;fill:#bf398b;fill-opacity:0.99000001"
       text-anchor="middle"
       y="113"
       opacity="1"
       id="text1423"><tspan
         id="tspan1421"
         style="fill:#bf398b;fill-opacity:0.99000001">2001</tspan></text>
    <text
       x="383.22726"
       style="color:#ba0f27;font-size:11px;fill:#bf398b;fill-opacity:0.99000001"
       text-anchor="middle"
       y="113"
       opacity="1"
       id="text1427"><tspan
         id="tspan1425"
         style="fill:#bf398b;fill-opacity:0.99000001">2002</tspan></text>
    <text
       x="459.86365"
       style="color:#ba0f27;font-size:11px;fill:#bf398b;fill-opacity:0.99000001"
       text-anchor="middle"
       y="113"
       opacity="1"
       id="text1431"><tspan
         id="tspan1429"
         style="fill:#bf398b;fill-opacity:0.99000001">2003</tspan></text>
    <text
       x="536.5"
       style="color:#ba0f27;font-size:11px;fill:#bf398b;fill-opacity:0.99000001"
       text-anchor="middle"
       y="113"
       opacity="1"
       id="text1435"><tspan
         id="tspan1433"
         style="fill:#bf398b;fill-opacity:0.99000001">2004</tspan></text>
    <text
       x="613.13635"
       style="color:#ba0f27;font-size:11px;fill:#bf398b;fill-opacity:0.99000001"
       text-anchor="middle"
       y="113"
       opacity="1"
       id="text1439"><tspan
         id="tspan1437"
         style="fill:#bf398b;fill-opacity:0.99000001">2005</tspan></text>
    <text
       x="689.77271"
       style="color:#ba0f27;font-size:11px;fill:#bf398b;fill-opacity:0.99000001"
       text-anchor="middle"
       y="113"
       opacity="1"
       id="text1443"><tspan
         id="tspan1441"
         style="fill:#bf398b;fill-opacity:0.99000001">2006</tspan></text>
    <text
       x="766.40912"
       style="color:#ba0f27;font-size:11px;fill:#bf398b;fill-opacity:0.99000001"
       text-anchor="middle"
       y="113"
       opacity="1"
       id="text1447"><tspan
         id="tspan1445"
         style="fill:#bf398b;fill-opacity:0.99000001">2007</tspan></text>
    <text
       x="843.04547"
       style="color:#ba0f27;font-size:11px;fill:#bf398b;fill-opacity:0.99000001"
       text-anchor="middle"
       y="113"
       opacity="1"
       id="text1451"><tspan
         id="tspan1449"
         style="fill:#bf398b;fill-opacity:0.99000001">2008</tspan></text>
    <text
       x="919.68182"
       style="color:#ba0f27;font-size:11px;fill:#bf398b;fill-opacity:0.99000001"
       text-anchor="middle"
       y="113"
       opacity="1"
       id="text1455"><tspan
         id="tspan1453"
         style="fill:#bf398b;fill-opacity:0.99000001">2009</tspan></text>
  </g>
  <g
     class="highcharts-axis-labels highcharts-yaxis-labels"
     id="g1475">
    <text
       x="973"
       style="color:#000000;font-size:11px;fill:#000000"
       text-anchor="start"
       y="343"
       opacity="1"
       id="text1461"><tspan
         id="tspan1459"
         style="font-style:normal;font-variant:normal;font-weight:normal;font-stretch:normal;font-family:'Fira Sans Condensed';-inkscape-font-specification:'Fira Sans Condensed, '">0 films</tspan></text>
    <text
       x="973"
       style="color:#000000;font-size:11px;fill:#000000"
       text-anchor="start"
       y="273"
       opacity="1"
       id="text1465"><tspan
         id="tspan1463"
         style="font-style:normal;font-variant:normal;font-weight:normal;font-stretch:normal;font-family:'Fira Sans Condensed';-inkscape-font-specification:'Fira Sans Condensed, '">2 films</tspan></text>
    <text
       x="973"
       style="color:#000000;font-size:11px;fill:#000000"
       text-anchor="start"
       y="203"
       opacity="1"
       id="text1469"><tspan
         id="tspan1467"
         style="font-style:normal;font-variant:normal;font-weight:normal;font-stretch:normal;font-family:'Fira Sans Condensed';-inkscape-font-specification:'Fira Sans Condensed, '">4 films</tspan></text>
    <text
       x="973"
       style="color:#000000;font-size:11px;fill:#000000"
       text-anchor="start"
       y="133"
       opacity="1"
       id="text1473"><tspan
         id="tspan1471"
         style="font-style:normal;font-variant:normal;font-weight:normal;font-stretch:normal;font-family:'Fira Sans Condensed';-inkscape-font-specification:'Fira Sans Condensed, '">6 films</tspan></text>
  </g>
  <g
     class="highcharts-axis-labels highcharts-yaxis-labels"
     id="g1493"
     style="fill:#bf398b;fill-opacity:1">
    <text
       x="100"
       style="color:#ba0f27;font-size:11px;fill:#bf398b;fill-opacity:1"
       text-anchor="end"
       y="343"
       opacity="1"
       id="text1479"><tspan
         id="tspan1477"
         style="font-style:normal;font-variant:normal;font-weight:normal;font-stretch:normal;font-family:'Fira Sans Condensed';-inkscape-font-specification:'Fira Sans Condensed, ';fill:#bf398b;fill-opacity:1">80 drownings</tspan></text>
    <text
       x="100"
       style="color:#ba0f27;font-size:11px;fill:#bf398b;fill-opacity:1"
       text-anchor="end"
       y="273"
       opacity="1"
       id="text1483">1<tspan
   style="font-style:normal;font-variant:normal;font-weight:normal;font-stretch:normal;font-family:'Fira Sans Condensed';-inkscape-font-specification:'Fira Sans Condensed, ';fill:#bf398b;fill-opacity:1"
   id="tspan1525">00 drownings</tspan></text>
    <text
       x="100"
       style="color:#ba0f27;font-size:11px;fill:#bf398b;fill-opacity:1"
       text-anchor="end"
       y="203"
       opacity="1"
       id="text1487"><tspan
         id="tspan1485"
         style="font-style:normal;font-variant:normal;font-weight:normal;font-stretch:normal;font-family:'Fira Sans Condensed';-inkscape-font-specification:'Fira Sans Condensed, ';fill:#bf398b;fill-opacity:1">120 drownings</tspan></text>
    <text
       x="100"
       style="color:#ba0f27;font-size:11px;fill:#bf398b;fill-opacity:1"
       text-anchor="end"
       y="133"
       opacity="1"
       id="text1491"><tspan
         id="tspan1489"
         style="font-style:normal;font-variant:normal;font-weight:normal;font-stretch:normal;font-family:'Fira Sans Condensed';-inkscape-font-specification:'Fira Sans Condensed, ';fill:#bf398b;fill-opacity:1">140 drownings</tspan></text>
  </g>
  <g
     class="highcharts-tooltip"
     style="cursor:default;padding:0;white-space:nowrap;"
     transform="translate(0,-9999)"
     id="g1505">
    <path
       fill="none"
       d="M 3 0 L 13 0 C 16 0 16 0 16 3 L 16 13 C 16 16 16 16 13 16 L 3 16 C 0 16 0 16 0 13 L 0 3 C 0 0 0 0 3 0"
       stroke="black"
       stroke-opacity="0.049999999999999996"
       stroke-width="5"
       transform="translate(1, 1)"
       id="path1495" />
    <path
       fill="none"
       d="M 3 0 L 13 0 C 16 0 16 0 16 3 L 16 13 C 16 16 16 16 13 16 L 3 16 C 0 16 0 16 0 13 L 0 3 C 0 0 0 0 3 0"
       stroke="black"
       stroke-opacity="0.09999999999999999"
       stroke-width="3"
       transform="translate(1, 1)"
       id="path1497" />
    <path
       fill="none"
       d="M 3 0 L 13 0 C 16 0 16 0 16 3 L 16 13 C 16 16 16 16 13 16 L 3 16 C 0 16 0 16 0 13 L 0 3 C 0 0 0 0 3 0"
       stroke="black"
       stroke-opacity="0.15"
       stroke-width="1"
       transform="translate(1, 1)"
       id="path1499" />
    <path
       fill="rgb(249, 249, 249)"
       fill-opacity=" .85"
       d="M 3 0 L 13 0 C 16 0 16 0 16 3 L 16 13 C 16 16 16 16 13 16 L 3 16 C 0 16 0 16 0 13 L 0 3 C 0 0 0 0 3 0"
       id="path1501" />
    <text
       x="8"
       style="font-size:12px;color:#333333;fill:#333333;"
       transform="translate(0,20)"
       id="text1503" />
  </g>
  <text
     x="1030"
     text-anchor="end"
     style="cursor:pointer;color:#909090;font-size:9px;fill:#909090;"
     y="405"
     id="text1507">tylervigen.com</text>
</svg>
