<?xml version="1.0" encoding="UTF-8"?>
<svg xmlns="http://www.w3.org/2000/svg" xmlns:xlink="http://www.w3.org/1999/xlink" width="540pt" height="396pt" viewBox="0 0 540 396" version="1.1">
<g id="surface94">
<rect x="0" y="0" width="540" height="396" style="fill:rgb(100%,100%,100%);fill-opacity:1;stroke:none;"/>
<path style="fill-rule:nonzero;fill:rgb(98.823529%,80.784314%,14.509804%);fill-opacity:1;stroke-width:3.200935;stroke-linecap:round;stroke-linejoin:round;stroke:rgb(100%,100%,100%);stroke-opacity:1;stroke-miterlimit:10;" d="M 239.554688 189.480469 L 239.554688 60.574219 L 235.175781 60.648438 L 230.800781 60.871094 L 226.4375 61.242188 L 222.085938 61.761719 L 217.757813 62.429688 L 213.453125 63.242188 L 209.175781 64.203125 L 204.9375 65.308594 L 200.738281 66.554688 L 196.585938 67.945313 L 192.480469 69.476563 L 188.429688 71.144531 L 184.4375 72.953125 L 180.511719 74.890625 L 176.652344 76.964844 L 172.863281 79.167969 L 169.152344 81.496094 L 165.527344 83.949219 L 161.984375 86.527344 L 158.527344 89.222656 L 155.167969 92.035156 L 151.90625 94.957031 L 148.746094 97.988281 L 145.6875 101.128906 L 142.742188 104.367188 L 139.90625 107.707031 L 137.183594 111.140625 L 134.582031 114.664063 L 132.101563 118.273438 L 129.742188 121.96875 L 127.511719 125.738281 L 125.410156 129.582031 L 123.441406 133.496094 L 121.605469 137.472656 L 119.90625 141.511719 L 118.34375 145.601563 L 116.925781 149.746094 L 115.644531 153.9375 L 114.507813 158.167969 L 113.515625 162.433594 L 112.671875 166.734375 L 111.972656 171.058594 L 111.417969 175.402344 L 111.015625 179.765625 L 110.757813 184.136719 L 110.652344 188.519531 L 110.695313 192.898438 L 110.882813 197.273438 L 111.222656 201.644531 L 111.710938 205.996094 L 112.34375 210.332031 L 113.128906 214.640625 L 114.054688 218.921875 L 115.128906 223.171875 L 116.34375 227.378906 L 117.703125 231.542969 L 119.203125 235.660156 L 120.839844 239.722656 L 122.617188 243.726563 L 124.527344 247.667969 L 126.570313 251.542969 L 128.746094 255.347656 L 131.046875 259.074219 L 133.476563 262.722656 L 136.023438 266.28125 L 138.695313 269.757813 L 141.480469 273.136719 L 144.378906 276.421875 L 147.386719 279.605469 L 150.503906 282.683594 L 153.722656 285.65625 L 157.039063 288.519531 L 160.453125 291.265625 L 163.957031 293.894531 L 167.546875 296.402344 L 171.222656 298.789063 L 174.976563 301.046875 L 178.804688 303.175781 L 182.703125 305.175781 L 186.667969 307.039063 L 190.691406 308.769531 L 194.773438 310.359375 L 198.90625 311.8125 L 203.085938 313.121094 L 207.308594 314.289063 L 211.566406 315.3125 L 215.859375 316.191406 L 220.179688 316.925781 L 224.519531 317.507813 L 228.878906 317.945313 L 233.25 318.234375 L 237.628906 318.375 L 242.011719 318.367188 L 246.386719 318.207031 L 250.757813 317.902344 L 255.113281 317.445313 L 259.453125 316.84375 L 263.769531 316.09375 L 268.058594 315.199219 L 272.3125 314.15625 L 276.53125 312.972656 L 280.707031 311.644531 L 284.832031 310.175781 L 288.90625 308.566406 L 292.925781 306.820313 L 296.882813 304.941406 L 300.773438 302.925781 L 304.59375 300.78125 L 308.335938 298.507813 L 312 296.105469 L 315.582031 293.582031 L 319.074219 290.941406 L 322.476563 288.179688 L 325.78125 285.304688 L 328.988281 282.320313 L 332.089844 279.226563 L 335.085938 276.03125 L 337.972656 272.734375 L 340.746094 269.34375 L 343.402344 265.859375 L 345.9375 262.285156 L 348.347656 258.628906 L 350.636719 254.894531 L 352.792969 251.082031 L 354.820313 247.199219 L 356.714844 243.246094 L 358.476563 239.234375 L 360.097656 235.167969 L 361.578125 231.042969 L 362.921875 226.875 L 364.121094 222.660156 L 365.175781 218.410156 L 366.085938 214.125 L 366.851563 209.808594 L 367.46875 205.472656 L 367.9375 201.117188 L 368.257813 196.75 L 368.429688 192.371094 L 368.457031 187.988281 L 368.328125 183.609375 L 368.054688 179.238281 L 367.632813 174.878906 L 367.0625 170.535156 L 366.347656 166.214844 L 365.484375 161.917969 L 364.472656 157.65625 L 363.320313 153.429688 L 362.023438 149.246094 L 360.585938 145.105469 L 359.007813 141.019531 L 357.292969 136.988281 L 355.441406 133.019531 L 353.457031 129.113281 L 351.339844 125.277344 L 349.09375 121.519531 L 345.316406 123.863281 L 341.539063 126.203125 L 292.433594 156.671875 L 288.660156 159.015625 L 265.996094 173.078125 L 262.21875 175.417969 Z M 239.554688 189.480469 "/>
<path style="fill-rule:nonzero;fill:rgb(97.254902%,58.039216%,25.490196%);fill-opacity:1;stroke-width:3.200935;stroke-linecap:round;stroke-linejoin:round;stroke:rgb(100%,100%,100%);stroke-opacity:1;stroke-miterlimit:10;" d="M 239.554688 189.480469 L 262.21875 175.417969 L 265.996094 173.078125 L 288.660156 159.015625 L 292.433594 156.671875 L 341.539063 126.203125 L 345.316406 123.863281 L 349.09375 121.519531 L 346.707031 117.816406 L 344.195313 114.195313 L 341.5625 110.664063 L 338.808594 107.226563 L 335.941406 103.882813 L 332.960938 100.636719 L 329.871094 97.5 L 326.671875 94.46875 L 323.375 91.546875 L 319.980469 88.738281 L 316.492188 86.050781 L 312.914063 83.480469 L 309.25 81.035156 L 305.503906 78.71875 L 301.679688 76.53125 L 297.785156 74.472656 L 293.820313 72.550781 L 289.792969 70.765625 L 285.707031 69.117188 L 281.570313 67.613281 L 277.378906 66.246094 L 273.148438 65.027344 L 268.875 63.953125 L 264.570313 63.023438 L 260.234375 62.242188 L 255.875 61.609375 L 254.1875 74.839844 L 253.625 79.246094 L 251.9375 92.476563 L 251.371094 96.886719 L 250.808594 101.292969 L 248.558594 118.933594 L 247.996094 123.339844 L 245.746094 140.980469 L 245.183594 145.386719 L 243.496094 158.617188 L 242.933594 163.023438 L 241.808594 171.84375 L 241.242188 176.253906 L 240.679688 180.664063 L 240.117188 185.070313 Z M 239.554688 189.480469 "/>
<path style="fill-rule:nonzero;fill:rgb(88.235294%,39.215686%,38.431373%);fill-opacity:1;stroke-width:3.200935;stroke-linecap:round;stroke-linejoin:round;stroke:rgb(100%,100%,100%);stroke-opacity:1;stroke-miterlimit:10;" d="M 239.554688 189.480469 L 240.117188 185.070313 L 240.679688 180.664063 L 241.242188 176.253906 L 241.808594 171.84375 L 242.933594 163.023438 L 243.496094 158.617188 L 245.183594 145.386719 L 245.746094 140.980469 L 247.996094 123.339844 L 248.558594 118.933594 L 250.808594 101.292969 L 251.371094 96.886719 L 251.9375 92.476563 L 253.625 79.246094 L 254.1875 74.839844 L 255.875 61.609375 L 250.453125 61.035156 L 245.007813 60.6875 L 239.554688 60.574219 Z M 239.554688 189.480469 "/>
<path style="fill-rule:nonzero;fill:rgb(100%,100%,100%);fill-opacity:1;stroke-width:1.115477;stroke-linecap:round;stroke-linejoin:round;stroke:rgb(100%,100%,100%);stroke-opacity:1;stroke-miterlimit:10;" d="M 412.148438 229.511719 L 470.113281 229.511719 L 470.113281 149.449219 L 412.148438 149.449219 Z M 412.148438 229.511719 "/>
<path style="fill-rule:nonzero;fill:rgb(98.823529%,80.784314%,14.509804%);fill-opacity:1;stroke-width:3.200935;stroke-linecap:square;stroke-linejoin:miter;stroke:rgb(100%,100%,100%);stroke-opacity:1;stroke-miterlimit:10;" d="M 420.003906 187.097656 L 433.03125 187.097656 L 433.03125 174.070313 L 420.003906 174.070313 Z M 420.003906 187.097656 "/>
<path style="fill-rule:nonzero;fill:rgb(97.254902%,58.039216%,25.490196%);fill-opacity:1;stroke-width:3.200935;stroke-linecap:square;stroke-linejoin:miter;stroke:rgb(100%,100%,100%);stroke-opacity:1;stroke-miterlimit:10;" d="M 420.003906 204.378906 L 433.03125 204.378906 L 433.03125 191.351563 L 420.003906 191.351563 Z M 420.003906 204.378906 "/>
<path style="fill-rule:nonzero;fill:rgb(88.235294%,39.215686%,38.431373%);fill-opacity:1;stroke-width:3.200935;stroke-linecap:square;stroke-linejoin:miter;stroke:rgb(100%,100%,100%);stroke-opacity:1;stroke-miterlimit:10;" d="M 420.003906 221.65625 L 433.03125 221.65625 L 433.03125 208.628906 L 420.003906 208.628906 Z M 420.003906 221.65625 "/>
<path style=" stroke:none;fill-rule:evenodd;fill:rgb(0%,0%,0%);fill-opacity:1;" d="M 446.355469 184.023438 L 445.152344 184.023438 L 442.703125 178.113281 L 442.726563 178.378906 L 442.746094 178.640625 L 442.765625 178.898438 L 442.78125 179.160156 L 442.792969 179.417969 L 442.804688 179.671875 L 442.8125 179.929688 L 442.820313 180.179688 L 442.824219 180.433594 L 442.824219 184.023438 L 441.984375 184.023438 L 441.984375 177.144531 L 443.175781 177.144531 L 445.632813 183.0625 L 445.625 182.992188 L 445.617188 182.914063 L 445.609375 182.832031 L 445.601563 182.742188 L 445.589844 182.648438 L 445.582031 182.550781 L 445.574219 182.445313 L 445.5625 182.335938 L 445.554688 182.222656 L 445.542969 182.105469 L 445.535156 181.980469 L 445.53125 181.859375 L 445.523438 181.738281 L 445.503906 181.132813 L 445.503906 177.144531 L 446.355469 177.144531 Z M 446.355469 184.023438 "/>
<path style=" stroke:none;fill-rule:evenodd;fill:rgb(0%,0%,0%);fill-opacity:1;" d="M 449.84375 178.632813 L 450.042969 178.640625 L 450.230469 178.664063 L 450.410156 178.699219 L 450.578125 178.746094 L 450.742188 178.8125 L 450.894531 178.890625 L 451.039063 178.980469 L 451.171875 179.089844 L 451.296875 179.210938 L 451.414063 179.34375 L 451.519531 179.492188 L 451.617188 179.652344 L 451.699219 179.824219 L 451.773438 180.011719 L 451.832031 180.210938 L 451.882813 180.417969 L 451.921875 180.640625 L 451.953125 180.875 L 451.96875 181.125 L 451.972656 181.382813 L 451.96875 181.632813 L 451.949219 181.875 L 451.921875 182.105469 L 451.882813 182.324219 L 451.832031 182.53125 L 451.769531 182.730469 L 451.695313 182.917969 L 451.609375 183.09375 L 451.511719 183.257813 L 451.402344 183.414063 L 451.285156 183.554688 L 451.160156 183.679688 L 451.023438 183.792969 L 450.878906 183.886719 L 450.726563 183.96875 L 450.566406 184.035156 L 450.394531 184.085938 L 450.214844 184.125 L 450.03125 184.148438 L 449.832031 184.152344 L 449.636719 184.148438 L 449.449219 184.125 L 449.265625 184.089844 L 449.097656 184.039063 L 448.933594 183.972656 L 448.78125 183.890625 L 448.636719 183.796875 L 448.5 183.6875 L 448.371094 183.5625 L 448.253906 183.425781 L 448.148438 183.273438 L 448.050781 183.109375 L 447.96875 182.933594 L 447.894531 182.75 L 447.832031 182.550781 L 447.785156 182.34375 L 447.746094 182.121094 L 447.714844 181.890625 L 447.699219 181.648438 L 447.695313 181.394531 L 447.699219 181.136719 L 447.714844 180.894531 L 447.746094 180.660156 L 447.785156 180.441406 L 447.835938 180.230469 L 447.898438 180.035156 L 447.972656 179.847656 L 448.058594 179.675781 L 448.15625 179.515625 L 448.265625 179.363281 L 448.382813 179.226563 L 448.507813 179.101563 L 448.644531 178.992188 L 448.789063 178.898438 L 448.945313 178.816406 L 449.105469 178.75 L 449.277344 178.699219 L 449.457031 178.664063 L 449.644531 178.640625 Z M 449.84375 179.355469 L 449.730469 179.359375 L 449.617188 179.375 L 449.515625 179.398438 L 449.417969 179.433594 L 449.324219 179.480469 L 449.238281 179.535156 L 449.15625 179.597656 L 449.078125 179.675781 L 449.007813 179.757813 L 448.945313 179.855469 L 448.886719 179.957031 L 448.832031 180.074219 L 448.785156 180.199219 L 448.746094 180.335938 L 448.710938 180.484375 L 448.683594 180.644531 L 448.660156 180.8125 L 448.644531 180.996094 L 448.636719 181.191406 L 448.632813 181.394531 L 448.644531 181.785156 L 448.683594 182.132813 L 448.742188 182.441406 L 448.824219 182.707031 L 448.933594 182.929688 L 449.066406 183.117188 L 449.222656 183.257813 L 449.402344 183.363281 L 449.605469 183.421875 L 449.832031 183.445313 L 450.0625 183.421875 L 450.265625 183.363281 L 450.445313 183.257813 L 450.601563 183.113281 L 450.734375 182.929688 L 450.84375 182.703125 L 450.925781 182.433594 L 450.984375 182.125 L 451.023438 181.777344 L 451.035156 181.382813 L 451.03125 181.179688 L 451.023438 180.988281 L 451.007813 180.804688 L 450.984375 180.632813 L 450.957031 180.472656 L 450.925781 180.324219 L 450.886719 180.1875 L 450.84375 180.0625 L 450.789063 179.949219 L 450.734375 179.84375 L 450.671875 179.75 L 450.601563 179.667969 L 450.527344 179.59375 L 450.449219 179.53125 L 450.363281 179.476563 L 450.269531 179.433594 L 450.171875 179.398438 L 450.066406 179.375 L 449.960938 179.359375 Z M 449.84375 179.355469 "/>
<path style=" stroke:none;fill-rule:evenodd;fill:rgb(0%,0%,0%);fill-opacity:1;" d="M 446.074219 194.425781 L 444.09375 198.652344 L 444.09375 201.304688 L 443.152344 201.304688 L 443.152344 198.664063 L 441.175781 194.425781 L 442.175781 194.425781 L 443.644531 197.863281 L 445.105469 194.425781 Z M 446.074219 194.425781 "/>
<path style=" stroke:none;fill-rule:evenodd;fill:rgb(0%,0%,0%);fill-opacity:1;" d="M 450.613281 198.515625 L 450.613281 198.644531 L 450.609375 198.691406 L 450.609375 198.738281 L 450.605469 198.785156 L 450.605469 198.832031 L 450.59375 198.984375 L 447.535156 198.984375 L 447.542969 199.164063 L 447.5625 199.332031 L 447.585938 199.488281 L 447.613281 199.636719 L 447.644531 199.777344 L 447.6875 199.90625 L 447.730469 200.023438 L 447.785156 200.128906 L 447.839844 200.226563 L 447.902344 200.3125 L 447.972656 200.390625 L 448.046875 200.457031 L 448.125 200.519531 L 448.207031 200.570313 L 448.292969 200.613281 L 448.386719 200.648438 L 448.484375 200.679688 L 448.585938 200.699219 L 448.691406 200.710938 L 448.804688 200.714844 L 448.875 200.714844 L 448.945313 200.710938 L 449.144531 200.6875 L 449.207031 200.675781 L 449.269531 200.660156 L 449.328125 200.644531 L 449.445313 200.605469 L 449.503906 200.582031 L 449.621094 200.527344 L 449.679688 200.492188 L 449.738281 200.460938 L 449.800781 200.421875 L 449.859375 200.382813 L 449.921875 200.339844 L 449.980469 200.292969 L 450.042969 200.242188 L 450.445313 200.773438 L 450.292969 200.898438 L 450.140625 201.011719 L 449.980469 201.109375 L 449.820313 201.195313 L 449.652344 201.269531 L 449.484375 201.328125 L 449.308594 201.375 L 449.132813 201.40625 L 448.949219 201.425781 L 448.765625 201.433594 L 448.5625 201.425781 L 448.371094 201.40625 L 448.1875 201.371094 L 448.011719 201.320313 L 447.847656 201.257813 L 447.695313 201.179688 L 447.546875 201.085938 L 447.410156 200.980469 L 447.28125 200.859375 L 447.164063 200.722656 L 447.058594 200.574219 L 446.960938 200.414063 L 446.878906 200.242188 L 446.804688 200.058594 L 446.742188 199.863281 L 446.695313 199.65625 L 446.652344 199.4375 L 446.625 199.207031 L 446.609375 198.964844 L 446.605469 198.714844 L 446.609375 198.460938 L 446.625 198.21875 L 446.652344 197.988281 L 446.691406 197.769531 L 446.738281 197.558594 L 446.796875 197.359375 L 446.867188 197.171875 L 446.949219 196.996094 L 447.042969 196.828125 L 447.144531 196.675781 L 447.257813 196.53125 L 447.375 196.402344 L 447.503906 196.285156 L 447.644531 196.1875 L 447.789063 196.105469 L 447.941406 196.035156 L 448.105469 195.984375 L 448.277344 195.945313 L 448.457031 195.921875 L 448.644531 195.914063 L 448.828125 195.921875 L 449.007813 195.941406 L 449.175781 195.976563 L 449.332031 196.023438 L 449.484375 196.085938 L 449.625 196.160156 L 449.757813 196.246094 L 449.882813 196.347656 L 449.996094 196.464844 L 450.105469 196.59375 L 450.199219 196.734375 L 450.289063 196.886719 L 450.363281 197.046875 L 450.429688 197.222656 L 450.488281 197.410156 L 450.53125 197.605469 L 450.566406 197.816406 L 450.59375 198.039063 L 450.609375 198.269531 Z M 449.742188 198.242188 L 449.734375 197.929688 L 449.699219 197.648438 L 449.644531 197.402344 L 449.570313 197.1875 L 449.472656 197.007813 L 449.351563 196.859375 L 449.210938 196.742188 L 449.046875 196.660156 L 448.859375 196.609375 L 448.652344 196.59375 L 448.554688 196.597656 L 448.460938 196.609375 L 448.371094 196.632813 L 448.289063 196.660156 L 448.207031 196.699219 L 448.128906 196.746094 L 448.058594 196.800781 L 447.988281 196.863281 L 447.925781 196.933594 L 447.863281 197.015625 L 447.808594 197.101563 L 447.757813 197.199219 L 447.710938 197.308594 L 447.671875 197.425781 L 447.636719 197.554688 L 447.605469 197.691406 L 447.582031 197.84375 L 447.558594 198.003906 L 447.542969 198.171875 L 447.535156 198.355469 L 449.742188 198.355469 Z M 449.742188 198.242188 "/>
<path style=" stroke:none;fill-rule:evenodd;fill:rgb(0%,0%,0%);fill-opacity:1;" d="M 453.222656 195.914063 L 453.402344 195.921875 L 453.578125 195.9375 L 453.75 195.96875 L 453.917969 196.011719 L 454.082031 196.0625 L 454.242188 196.128906 L 454.398438 196.207031 L 454.550781 196.296875 L 454.699219 196.398438 L 454.84375 196.515625 L 454.464844 197.042969 L 454.398438 197 L 454.335938 196.960938 L 454.277344 196.921875 L 454.152344 196.851563 L 454.035156 196.789063 L 453.976563 196.761719 L 453.921875 196.738281 L 453.863281 196.714844 L 453.808594 196.691406 L 453.75 196.675781 L 453.691406 196.65625 L 453.636719 196.644531 L 453.578125 196.632813 L 453.515625 196.621094 L 453.457031 196.613281 L 453.398438 196.609375 L 453.335938 196.605469 L 453.195313 196.605469 L 453.117188 196.613281 L 453.042969 196.621094 L 452.972656 196.636719 L 452.90625 196.652344 L 452.84375 196.675781 L 452.78125 196.703125 L 452.726563 196.730469 L 452.671875 196.765625 L 452.625 196.804688 L 452.582031 196.84375 L 452.542969 196.886719 L 452.507813 196.929688 L 452.476563 196.980469 L 452.453125 197.03125 L 452.429688 197.085938 L 452.414063 197.144531 L 452.402344 197.203125 L 452.394531 197.265625 L 452.394531 197.398438 L 452.402344 197.460938 L 452.414063 197.519531 L 452.429688 197.574219 L 452.449219 197.628906 L 452.472656 197.679688 L 452.5 197.726563 L 452.535156 197.773438 L 452.570313 197.816406 L 452.613281 197.855469 L 452.664063 197.890625 L 452.722656 197.929688 L 452.789063 197.96875 L 452.863281 198.007813 L 452.945313 198.046875 L 453.035156 198.085938 L 453.132813 198.125 L 453.238281 198.164063 L 453.351563 198.203125 L 453.472656 198.242188 L 453.628906 198.296875 L 453.773438 198.347656 L 453.910156 198.402344 L 454.035156 198.460938 L 454.15625 198.523438 L 454.265625 198.582031 L 454.371094 198.648438 L 454.460938 198.714844 L 454.546875 198.78125 L 454.625 198.855469 L 454.691406 198.929688 L 454.753906 199.007813 L 454.808594 199.09375 L 454.855469 199.183594 L 454.894531 199.28125 L 454.925781 199.382813 L 454.953125 199.492188 L 454.96875 199.601563 L 454.980469 199.722656 L 454.984375 199.84375 L 454.976563 199.988281 L 454.960938 200.128906 L 454.933594 200.261719 L 454.898438 200.386719 L 454.847656 200.507813 L 454.789063 200.621094 L 454.71875 200.726563 L 454.636719 200.828125 L 454.546875 200.925781 L 454.445313 201.015625 L 454.332031 201.09375 L 454.21875 201.164063 L 454.09375 201.226563 L 453.96875 201.28125 L 453.835938 201.328125 L 453.699219 201.367188 L 453.554688 201.394531 L 453.40625 201.417969 L 453.253906 201.429688 L 453.09375 201.433594 L 452.882813 201.425781 L 452.679688 201.40625 L 452.480469 201.371094 L 452.289063 201.320313 L 452.105469 201.257813 L 451.929688 201.179688 L 451.757813 201.085938 L 451.59375 200.980469 L 451.433594 200.859375 L 451.285156 200.722656 L 451.742188 200.222656 L 451.871094 200.320313 L 452 200.40625 L 452.128906 200.484375 L 452.257813 200.550781 L 452.390625 200.605469 L 452.523438 200.652344 L 452.660156 200.6875 L 452.796875 200.714844 L 452.933594 200.730469 L 453.074219 200.734375 L 453.160156 200.730469 L 453.242188 200.726563 L 453.324219 200.714844 L 453.398438 200.699219 L 453.472656 200.679688 L 453.539063 200.65625 L 453.605469 200.625 L 453.667969 200.59375 L 453.785156 200.515625 L 453.835938 200.46875 L 453.882813 200.417969 L 453.921875 200.367188 L 453.957031 200.3125 L 453.988281 200.25 L 454.011719 200.1875 L 454.03125 200.121094 L 454.042969 200.054688 L 454.050781 199.980469 L 454.054688 199.902344 L 454.054688 199.847656 L 454.050781 199.796875 L 454.042969 199.746094 L 454.039063 199.699219 L 454.027344 199.652344 L 454.019531 199.609375 L 454.003906 199.566406 L 453.972656 199.488281 L 453.953125 199.453125 L 453.933594 199.421875 L 453.910156 199.386719 L 453.886719 199.355469 L 453.824219 199.292969 L 453.789063 199.265625 L 453.75 199.234375 L 453.664063 199.179688 L 453.5625 199.125 L 453.507813 199.097656 L 453.449219 199.070313 L 453.386719 199.039063 L 453.316406 199.011719 L 453.242188 198.984375 L 453.164063 198.953125 L 453.082031 198.921875 L 452.996094 198.894531 L 452.902344 198.863281 L 452.757813 198.8125 L 452.621094 198.761719 L 452.492188 198.703125 L 452.371094 198.648438 L 452.257813 198.589844 L 452.15625 198.527344 L 452.058594 198.464844 L 451.972656 198.398438 L 451.894531 198.332031 L 451.824219 198.265625 L 451.761719 198.191406 L 451.707031 198.117188 L 451.65625 198.035156 L 451.613281 197.953125 L 451.578125 197.867188 L 451.546875 197.777344 L 451.523438 197.679688 L 451.507813 197.582031 L 451.496094 197.480469 L 451.492188 197.375 L 451.496094 197.289063 L 451.503906 197.210938 L 451.515625 197.128906 L 451.527344 197.050781 L 451.574219 196.902344 L 451.601563 196.832031 L 451.632813 196.757813 L 451.671875 196.691406 L 451.757813 196.558594 L 451.808594 196.496094 L 451.859375 196.4375 L 451.976563 196.328125 L 452.039063 196.277344 L 452.105469 196.230469 L 452.246094 196.144531 L 452.402344 196.066406 L 452.484375 196.035156 L 452.570313 196.007813 L 452.742188 195.960938 L 452.929688 195.929688 L 453.023438 195.921875 L 453.125 195.914063 Z M 453.222656 195.914063 "/>
<path style=" stroke:none;fill-rule:evenodd;fill:rgb(0%,0%,0%);fill-opacity:1;" d="M 444.273438 211.574219 L 444.515625 211.582031 L 444.746094 211.609375 L 444.964844 211.65625 L 445.171875 211.71875 L 445.371094 211.800781 L 445.558594 211.902344 L 445.734375 212.019531 L 445.902344 212.15625 L 446.058594 212.3125 L 446.203125 212.484375 L 446.339844 212.671875 L 446.460938 212.878906 L 446.566406 213.101563 L 446.660156 213.339844 L 446.738281 213.597656 L 446.800781 213.875 L 446.851563 214.164063 L 446.886719 214.472656 L 446.90625 214.800781 L 446.914063 215.144531 L 446.90625 215.480469 L 446.886719 215.804688 L 446.851563 216.109375 L 446.800781 216.398438 L 446.738281 216.671875 L 446.660156 216.929688 L 446.570313 217.167969 L 446.464844 217.394531 L 446.347656 217.601563 L 446.214844 217.792969 L 446.070313 217.96875 L 445.914063 218.125 L 445.746094 218.261719 L 445.566406 218.382813 L 445.378906 218.484375 L 445.179688 218.566406 L 444.96875 218.632813 L 444.75 218.675781 L 444.515625 218.703125 L 444.273438 218.714844 L 444.03125 218.703125 L 443.800781 218.679688 L 443.582031 218.632813 L 443.375 218.570313 L 443.175781 218.488281 L 442.984375 218.390625 L 442.808594 218.273438 L 442.640625 218.136719 L 442.480469 217.984375 L 442.332031 217.8125 L 442.199219 217.625 L 442.082031 217.417969 L 441.976563 217.191406 L 441.886719 216.953125 L 441.808594 216.695313 L 441.746094 216.417969 L 441.695313 216.128906 L 441.660156 215.820313 L 441.640625 215.496094 L 441.632813 215.152344 L 441.636719 214.925781 L 441.648438 214.707031 L 441.664063 214.496094 L 441.683594 214.289063 L 441.714844 214.089844 L 441.75 213.898438 L 441.789063 213.714844 L 441.839844 213.539063 L 441.894531 213.367188 L 441.953125 213.203125 L 442.023438 213.046875 L 442.097656 212.894531 L 442.175781 212.753906 L 442.257813 212.621094 L 442.347656 212.492188 L 442.445313 212.375 L 442.542969 212.265625 L 442.648438 212.164063 L 442.757813 212.070313 L 442.875 211.984375 L 442.996094 211.90625 L 443.121094 211.835938 L 443.25 211.773438 L 443.386719 211.722656 L 443.523438 211.675781 L 443.664063 211.640625 L 443.8125 211.609375 L 443.960938 211.589844 L 444.117188 211.578125 Z M 444.273438 212.3125 L 443.957031 212.34375 L 443.675781 212.425781 L 443.425781 212.570313 L 443.210938 212.769531 L 443.027344 213.023438 L 442.878906 213.335938 L 442.761719 213.707031 L 442.679688 214.132813 L 442.628906 214.613281 L 442.613281 215.152344 L 442.628906 215.6875 L 442.679688 216.164063 L 442.761719 216.585938 L 442.878906 216.953125 L 443.027344 217.261719 L 443.210938 217.515625 L 443.425781 217.710938 L 443.675781 217.851563 L 443.957031 217.9375 L 444.273438 217.964844 L 444.433594 217.957031 L 444.585938 217.9375 L 444.730469 217.902344 L 444.867188 217.855469 L 444.992188 217.796875 L 445.113281 217.722656 L 445.226563 217.636719 L 445.328125 217.535156 L 445.425781 217.421875 L 445.515625 217.292969 L 445.59375 217.152344 L 445.664063 216.992188 L 445.726563 216.820313 L 445.78125 216.628906 L 445.828125 216.421875 L 445.867188 216.199219 L 445.894531 215.960938 L 445.917969 215.703125 L 445.929688 215.433594 L 445.933594 215.144531 L 445.929688 214.859375 L 445.917969 214.585938 L 445.894531 214.332031 L 445.863281 214.09375 L 445.828125 213.871094 L 445.777344 213.664063 L 445.722656 213.472656 L 445.660156 213.296875 L 445.585938 213.136719 L 445.503906 212.992188 L 445.414063 212.863281 L 445.320313 212.75 L 445.214844 212.648438 L 445.105469 212.558594 L 444.988281 212.484375 L 444.859375 212.421875 L 444.726563 212.375 L 444.582031 212.339844 L 444.433594 212.320313 Z M 444.273438 212.3125 "/>
<path style=" stroke:none;fill-rule:evenodd;fill:rgb(0%,0%,0%);fill-opacity:1;" d="M 450.714844 218.355469 L 450.613281 218.421875 L 450.507813 218.484375 L 450.402344 218.539063 L 450.296875 218.585938 L 450.1875 218.625 L 450.074219 218.65625 L 449.960938 218.683594 L 449.84375 218.699219 L 449.726563 218.710938 L 449.605469 218.714844 L 449.480469 218.710938 L 449.359375 218.699219 L 449.246094 218.679688 L 449.136719 218.65625 L 449.035156 218.621094 L 448.941406 218.582031 L 448.851563 218.53125 L 448.765625 218.476563 L 448.6875 218.414063 L 448.613281 218.34375 L 448.550781 218.265625 L 448.492188 218.183594 L 448.441406 218.09375 L 448.394531 218 L 448.359375 217.898438 L 448.328125 217.792969 L 448.304688 217.679688 L 448.289063 217.558594 L 448.277344 217.433594 L 448.273438 217.304688 L 448.273438 214.003906 L 447.523438 214.003906 L 447.523438 213.324219 L 448.273438 213.324219 L 448.273438 212.113281 L 449.175781 212.003906 L 449.175781 213.324219 L 450.332031 213.324219 L 450.234375 214.003906 L 449.175781 214.003906 L 449.175781 217.292969 L 449.179688 217.421875 L 449.195313 217.539063 L 449.226563 217.640625 L 449.265625 217.730469 L 449.316406 217.804688 L 449.378906 217.867188 L 449.453125 217.914063 L 449.539063 217.945313 L 449.636719 217.96875 L 449.742188 217.972656 L 449.8125 217.972656 L 449.9375 217.957031 L 449.96875 217.949219 L 449.996094 217.941406 L 450.027344 217.933594 L 450.054688 217.925781 L 450.085938 217.914063 L 450.113281 217.902344 L 450.148438 217.890625 L 450.179688 217.875 L 450.210938 217.863281 L 450.246094 217.847656 L 450.277344 217.828125 L 450.3125 217.8125 L 450.382813 217.773438 Z M 450.714844 218.355469 "/>
<path style=" stroke:none;fill-rule:evenodd;fill:rgb(0%,0%,0%);fill-opacity:1;" d="M 453.84375 213.195313 L 453.96875 213.199219 L 454.085938 213.210938 L 454.195313 213.230469 L 454.304688 213.261719 L 454.402344 213.300781 L 454.5 213.34375 L 454.589844 213.398438 L 454.671875 213.460938 L 454.75 213.535156 L 454.824219 213.613281 L 454.890625 213.699219 L 454.953125 213.792969 L 455.007813 213.894531 L 455.054688 214 L 455.09375 214.109375 L 455.125 214.226563 L 455.152344 214.347656 L 455.167969 214.476563 L 455.179688 214.613281 L 455.183594 214.753906 L 455.183594 218.585938 L 454.285156 218.585938 L 454.285156 214.863281 L 454.28125 214.765625 L 454.277344 214.671875 L 454.269531 214.585938 L 454.253906 214.503906 L 454.238281 214.425781 L 454.21875 214.355469 L 454.195313 214.292969 L 454.167969 214.234375 L 454.136719 214.179688 L 454.105469 214.132813 L 454.066406 214.089844 L 454.027344 214.050781 L 453.988281 214.015625 L 453.941406 213.988281 L 453.890625 213.960938 L 453.839844 213.941406 L 453.78125 213.925781 L 453.722656 213.914063 L 453.660156 213.90625 L 453.59375 213.902344 L 453.464844 213.914063 L 453.335938 213.941406 L 453.207031 213.988281 L 453.085938 214.054688 L 452.964844 214.140625 L 452.84375 214.242188 L 452.730469 214.363281 L 452.613281 214.503906 L 452.503906 214.664063 L 452.394531 214.84375 L 452.394531 218.585938 L 451.492188 218.585938 L 451.492188 211.203125 L 452.394531 211.105469 L 452.394531 214.074219 L 452.453125 213.988281 L 452.511719 213.910156 L 452.636719 213.761719 L 452.699219 213.695313 L 452.761719 213.632813 L 452.828125 213.574219 L 452.894531 213.519531 L 452.964844 213.46875 L 453.035156 213.425781 L 453.105469 213.378906 L 453.179688 213.339844 L 453.253906 213.308594 L 453.332031 213.277344 L 453.410156 213.25 L 453.492188 213.230469 L 453.578125 213.214844 L 453.664063 213.203125 L 453.753906 213.195313 Z M 453.84375 213.195313 "/>
<path style=" stroke:none;fill-rule:evenodd;fill:rgb(0%,0%,0%);fill-opacity:1;" d="M 460.453125 215.792969 L 460.453125 215.925781 L 460.449219 215.96875 L 460.449219 216.015625 L 460.445313 216.0625 L 460.445313 216.113281 L 460.441406 216.160156 L 460.4375 216.210938 L 460.433594 216.265625 L 457.375 216.265625 L 457.386719 216.441406 L 457.402344 216.613281 L 457.425781 216.769531 L 457.453125 216.917969 L 457.488281 217.054688 L 457.527344 217.183594 L 457.570313 217.300781 L 457.625 217.410156 L 457.679688 217.507813 L 457.742188 217.59375 L 457.8125 217.671875 L 457.886719 217.738281 L 457.964844 217.796875 L 458.046875 217.851563 L 458.132813 217.894531 L 458.226563 217.929688 L 458.324219 217.957031 L 458.425781 217.976563 L 458.53125 217.988281 L 458.644531 217.992188 L 458.714844 217.992188 L 458.785156 217.988281 L 458.851563 217.984375 L 458.917969 217.976563 L 458.984375 217.964844 L 459.109375 217.941406 L 459.167969 217.921875 L 459.226563 217.90625 L 459.402344 217.835938 L 459.519531 217.773438 L 459.578125 217.738281 L 459.640625 217.703125 L 459.699219 217.660156 L 459.761719 217.617188 L 459.820313 217.574219 L 459.882813 217.523438 L 460.285156 218.054688 L 460.132813 218.179688 L 459.980469 218.292969 L 459.820313 218.390625 L 459.660156 218.476563 L 459.492188 218.550781 L 459.324219 218.609375 L 459.148438 218.65625 L 458.972656 218.6875 L 458.789063 218.707031 L 458.605469 218.714844 L 458.402344 218.707031 L 458.210938 218.6875 L 458.027344 218.648438 L 457.851563 218.601563 L 457.6875 218.535156 L 457.535156 218.457031 L 457.386719 218.367188 L 457.25 218.257813 L 457.121094 218.140625 L 457.003906 218.003906 L 456.898438 217.855469 L 456.800781 217.691406 L 456.71875 217.519531 L 456.644531 217.335938 L 456.582031 217.140625 L 456.535156 216.933594 L 456.496094 216.714844 L 456.464844 216.488281 L 456.449219 216.246094 L 456.445313 215.992188 L 456.449219 215.742188 L 456.464844 215.5 L 456.492188 215.269531 L 456.53125 215.046875 L 456.578125 214.839844 L 456.636719 214.640625 L 456.707031 214.453125 L 456.789063 214.277344 L 456.882813 214.109375 L 456.984375 213.953125 L 457.097656 213.808594 L 457.214844 213.679688 L 457.34375 213.566406 L 457.484375 213.46875 L 457.628906 213.382813 L 457.78125 213.316406 L 457.945313 213.261719 L 458.117188 213.222656 L 458.296875 213.203125 L 458.484375 213.195313 L 458.667969 213.199219 L 458.847656 213.222656 L 459.015625 213.253906 L 459.171875 213.304688 L 459.324219 213.363281 L 459.464844 213.4375 L 459.597656 213.527344 L 459.722656 213.628906 L 459.835938 213.746094 L 459.945313 213.875 L 460.039063 214.015625 L 460.128906 214.164063 L 460.203125 214.328125 L 460.269531 214.503906 L 460.328125 214.6875 L 460.371094 214.886719 L 460.40625 215.097656 L 460.433594 215.316406 L 460.449219 215.550781 Z M 459.582031 215.523438 L 459.574219 215.210938 L 459.539063 214.929688 L 459.484375 214.683594 L 459.410156 214.46875 L 459.3125 214.285156 L 459.191406 214.136719 L 459.050781 214.023438 L 458.886719 213.941406 L 458.699219 213.890625 L 458.492188 213.875 L 458.394531 213.878906 L 458.300781 213.890625 L 458.210938 213.910156 L 458.128906 213.941406 L 458.046875 213.980469 L 457.96875 214.023438 L 457.898438 214.078125 L 457.828125 214.144531 L 457.765625 214.214844 L 457.703125 214.292969 L 457.648438 214.382813 L 457.597656 214.480469 L 457.550781 214.585938 L 457.511719 214.707031 L 457.476563 214.835938 L 457.445313 214.972656 L 457.421875 215.121094 L 457.398438 215.28125 L 457.382813 215.453125 L 457.375 215.632813 L 459.582031 215.632813 Z M 459.582031 215.523438 "/>
<path style=" stroke:none;fill-rule:evenodd;fill:rgb(0%,0%,0%);fill-opacity:1;" d="M 463.863281 213.203125 L 463.914063 213.203125 L 463.964844 213.207031 L 464.011719 213.210938 L 464.0625 213.214844 L 464.105469 213.21875 L 464.152344 213.226563 L 464.195313 213.234375 L 464.234375 213.242188 L 464.3125 213.265625 L 464.164063 214.132813 L 464.125 214.121094 L 464.085938 214.113281 L 464.046875 214.101563 L 464.007813 214.09375 L 463.964844 214.089844 L 463.925781 214.082031 L 463.882813 214.078125 L 463.839844 214.078125 L 463.796875 214.074219 L 463.753906 214.074219 L 463.667969 214.078125 L 463.585938 214.089844 L 463.503906 214.105469 L 463.425781 214.128906 L 463.355469 214.160156 L 463.285156 214.199219 L 463.214844 214.246094 L 463.152344 214.296875 L 463.089844 214.359375 L 463.035156 214.425781 L 462.980469 214.496094 L 462.929688 214.578125 L 462.882813 214.667969 L 462.835938 214.761719 L 462.792969 214.867188 L 462.75 214.976563 L 462.710938 215.09375 L 462.671875 215.222656 L 462.636719 215.355469 L 462.605469 215.492188 L 462.605469 218.585938 L 461.703125 218.585938 L 461.703125 213.324219 L 462.484375 213.324219 L 462.554688 214.363281 L 462.636719 214.144531 L 462.730469 213.945313 L 462.835938 213.773438 L 462.949219 213.621094 L 463.078125 213.492188 L 463.210938 213.390625 L 463.359375 213.308594 L 463.515625 213.25 L 463.683594 213.214844 Z M 463.863281 213.203125 "/>
</g>
</svg>
