<svg id="Capa_1" enable-background="new 0 0 512 512" height="512" viewBox="0 0 512 512" width="512" xmlns="http://www.w3.org/2000/svg"><g><path d="m95.978 71.638v160.396c0 9.643 7.817 17.46 17.46 17.46h285.943c9.643 0 17.46-7.817 17.46-17.46v-160.396c0-35.422-28.715-64.137-64.137-64.137-10.901 0-21.47 3.749-29.934 10.617l-3.518 2.855c-1.068.866-2.58.922-3.709.137l-7.338-5.103c-7.962-5.538-17.428-8.506-27.126-8.506h-120.964c-35.422-.001-64.137 28.715-64.137 64.137z" fill="#365e7d"/><path d="m352.704 7.5c-5.418 0-10.754.928-15.79 2.703 26.433 7.922 45.701 32.423 45.701 61.434v160.396c0 9.643-7.817 17.46-17.46 17.46h34.227c9.643 0 17.46-7.817 17.46-17.46v-160.395c-.001-35.422-28.716-64.138-64.138-64.138z" fill="#2b4d66"/><path d="m302.18 345.031h-18.801-53.939-18.801c-37.413 0-67.742 30.329-67.742 67.742v83.1c0 4.765 3.863 8.628 8.628 8.628h209.77c4.765 0 8.628-3.863 8.628-8.628v-83.1c-.001-37.413-30.33-67.742-67.743-67.742z" fill="#78d0b1"/><path d="m302.18 345.031h-33.008c37.413 0 67.742 30.329 67.742 67.742v83.1c0 4.765-3.863 8.628-8.628 8.628h33.008c4.765 0 8.627-3.863 8.627-8.628v-83.1c.001-37.413-30.328-67.742-67.741-67.742z" fill="#66b49d"/><path d="m275.29 295.08-36.221-2.131c-9.248 0-9.654 43.328-9.654 43.328v26.524c0 14.895 12.075 26.97 26.97 26.97 14.895 0 26.97-12.075 26.97-26.97v-26.524s1.183-41.197-8.065-41.197z" fill="#eaac9d"/><path d="m256.41 345.031c-71.877 0-130.145-58.268-130.145-130.144v-78.716c0-1.89 1.537-3.415 3.427-3.419 60.234-.111 113.469-8.738 160.955-39.423 1.419-.917 3.315-.624 4.331.725 21.444 28.468 50.691 36.346 88.165 38.514 1.911.111 3.411 1.68 3.411 3.595v78.724c0 71.876-58.268 130.144-130.144 130.144z" fill="#ffcbbe"/><path d="m383.143 132.568c-11.027-.638-21.336-1.778-30.949-3.783v86.102c0 66.052-49.209 120.606-112.965 129.014 5.622.742 11.355 1.13 17.18 1.13 71.877 0 130.144-58.268 130.144-130.144v-78.724c.001-1.914-1.499-3.484-3.41-3.595z" fill="#eaac9d"/><path d="m256.41 316.794c-14.122 0-25.57-11.448-25.57-25.57v-29.048c0-14.122 11.448-25.57 25.57-25.57 14.122 0 25.57 11.448 25.57 25.57v29.048c-.001 14.122-11.449 25.57-25.57 25.57z" fill="#da4a54"/><path d="m352.704 0c-12.581 0-24.89 4.366-34.661 12.294l-.941.765-4.615-3.21c-9.265-6.444-20.125-9.849-31.409-9.849h-120.963c-39.501 0-71.637 32.137-71.637 71.638v160.396c0 13.763 11.197 24.96 24.96 24.96h11.923c11.595 36.002 37.636 65.581 71.27 81.865-34.815 6.585-61.234 37.213-61.234 73.913v83.101c0 8.893 7.235 16.127 16.127 16.127h139.646c4.143 0 7.5-3.357 7.5-7.5s-3.357-7.5-7.5-7.5h-139.645c-.622 0-1.127-.506-1.127-1.127v-83.101c0-33.217 27.024-60.241 60.242-60.241h11.276v10.271c0 19.007 15.463 34.47 34.47 34.47s34.47-15.463 34.47-34.47v-10.271h11.325c33.218 0 60.242 27.024 60.242 60.241v83.101c0 .621-.506 1.127-1.128 1.127h-40.138c-4.143 0-7.5 3.357-7.5 7.5s3.357 7.5 7.5 7.5h40.138c8.893 0 16.128-7.234 16.128-16.127v-83.101c0-36.7-26.419-67.328-61.234-73.913 33.634-16.284 59.675-45.863 71.27-81.865h11.923c13.763 0 24.96-11.197 24.96-24.96v-4.241c0-4.143-3.357-7.5-7.5-7.5s-7.5 3.357-7.5 7.5v4.241c0 5.492-4.468 9.96-9.96 9.96h-8.014c1.758-8.767 2.687-17.831 2.687-27.107v-78.724c0-5.875-4.603-10.743-10.478-11.082-35.043-2.027-62.501-8.847-82.605-35.536-3.355-4.458-9.68-5.563-14.395-2.515-40.715 26.31-89.105 38.098-156.9 38.222-6.016.013-10.911 4.911-10.911 10.919v41.631c0 4.143 3.358 7.5 7.5 7.5s7.5-3.357 7.5-7.5v-37.572c66.976-.58 115.948-12.538 157.68-38.525 23.845 29.283 55.954 35.97 87.609 38.121v75.061c0 67.626-55.019 122.645-122.645 122.645s-122.645-55.019-122.645-122.645v-7.098c0-4.143-3.358-7.5-7.5-7.5s-7.5 3.357-7.5 7.5v7.098c0 9.277.928 18.34 2.687 27.107h-8.013c-5.492 0-9.96-4.468-9.96-9.96v-160.396c0-31.23 25.407-56.638 56.637-56.638h120.963c8.206 0 16.105 2.477 22.844 7.163l7.338 5.104c3.845 2.675 9.074 2.483 12.718-.471l3.518-2.854c7.105-5.766 16.057-8.942 25.207-8.942 31.229 0 56.637 25.407 56.637 56.638v126.168c0 4.143 3.357 7.5 7.5 7.5s7.5-3.357 7.5-7.5v-126.168c0-39.501-32.136-71.638-71.637-71.638zm-76.849 351.151v11.65c0 10.735-8.734 19.47-19.47 19.47s-19.47-8.734-19.47-19.47v-11.657c6.371.907 12.877 1.387 19.494 1.387 6.601 0 13.091-.477 19.446-1.38z"/><path d="m208.65 204.955v-5.289c0-4.143-3.358-7.5-7.5-7.5s-7.5 3.357-7.5 7.5v5.289c0 4.143 3.358 7.5 7.5 7.5s7.5-3.357 7.5-7.5z"/><path d="m319.169 204.955v-5.289c0-4.143-3.357-7.5-7.5-7.5s-7.5 3.357-7.5 7.5v5.289c0 4.143 3.357 7.5 7.5 7.5s7.5-3.357 7.5-7.5z"/><path d="m289.48 291.224v-29.047c0-18.235-14.835-33.07-33.07-33.07s-33.07 14.835-33.07 33.07v29.047c0 18.235 14.835 33.07 33.07 33.07s33.07-14.835 33.07-33.07zm-51.14 0v-29.047c0-9.964 8.106-18.07 18.07-18.07s18.07 8.106 18.07 18.07v29.047c0 9.964-8.106 18.07-18.07 18.07s-18.07-8.106-18.07-18.07z"/><path d="m511.553 44.717c-.735-14.154-12.418-25.465-26.598-25.75-.186-.004-.371-.006-.557-.006-13.53 0-25.057 9.973-26.933 23.411-.173 1.244-.261 2.516-.261 3.781 0 4.143 3.357 7.5 7.5 7.5s7.5-3.357 7.5-7.5c0-.575.04-1.151.117-1.711.851-6.099 6.105-10.602 12.331-10.479 6.354.128 11.59 5.193 11.919 11.531.176 3.387-1.009 6.601-3.334 9.05-2.328 2.452-5.468 3.802-8.841 3.802-4.143 0-7.5 3.357-7.5 7.5v20.592c0 4.143 3.357 7.5 7.5 7.5s7.5-3.357 7.5-7.5v-14.157c4.618-1.333 8.864-3.877 12.218-7.408 5.188-5.463 7.83-12.621 7.439-20.156z"/><path d="m484.398 104.073c-4.143 0-7.5 3.357-7.5 7.5v5.159c0 4.143 3.357 7.5 7.5 7.5s7.5-3.357 7.5-7.5v-5.159c0-4.142-3.358-7.5-7.5-7.5z"/><path d="m462.59 149.323c-.147-.003-.293-.005-.439-.005-10.766 0-19.938 7.937-21.43 18.629-.138.987-.208 1.999-.208 3.007 0 4.143 3.357 7.5 7.5 7.5s7.5-3.357 7.5-7.5c0-.317.021-.632.063-.935.457-3.272 3.272-5.701 6.576-5.701.046 0 .091.001.136.001 3.4.069 6.31 2.882 6.485 6.271.096 1.846-.549 3.597-1.814 4.93-1.268 1.334-2.976 2.069-4.812 2.069-4.143 0-7.5 3.357-7.5 7.5v14.78c0 4.143 3.357 7.5 7.5 7.5s7.5-3.357 7.5-7.5v-8.632c3.079-1.141 5.896-2.975 8.189-5.39 4.126-4.346 6.228-10.04 5.917-16.035-.583-11.26-9.879-20.261-21.163-20.489z"/><path d="m462.148 210.413c-4.143 0-7.5 3.357-7.5 7.5v3.704c0 4.143 3.357 7.5 7.5 7.5s7.5-3.357 7.5-7.5v-3.704c0-4.142-3.358-7.5-7.5-7.5z"/><g><path d="m20.102 56.755c0-4.143 3.358-7.5 7.5-7.5s7.5 3.357 7.5 7.5v20.592c0 4.143-3.358 7.5-7.5 7.5-3.374 0-6.514 1.35-8.841 3.802-2.326 2.449-3.51 5.663-3.334 9.05.329 6.338 5.565 11.403 11.92 11.531.083.001.167.002.25.002 6.07 0 11.24-4.466 12.08-10.479.079-.563.118-1.14.118-1.713 0-4.143 3.358-7.5 7.5-7.5s7.5 3.357 7.5 7.5c0 1.263-.088 2.535-.262 3.783-1.901 13.621-13.713 23.712-27.488 23.403-14.18-.285-25.864-11.596-26.598-25.75-.391-7.536 2.25-14.694 7.436-20.156 3.354-3.532 7.601-6.076 12.219-7.409z"/><path d="m35.102 26.46v5.159c0 4.143-3.358 7.5-7.5 7.5s-7.5-3.357-7.5-7.5v-5.159c0-4.143 3.358-7.5 7.5-7.5s7.5 3.357 7.5 7.5z"/></g><g><path d="m49.408 229.113c-11.283-.228-20.578-9.229-21.162-20.49-.311-5.994 1.79-11.688 5.916-16.035 2.293-2.415 5.11-4.249 8.189-5.39v-8.632c0-4.143 3.358-7.5 7.5-7.5s7.5 3.357 7.5 7.5v14.78c0 4.143-3.358 7.5-7.5 7.5-1.835 0-3.544.735-4.812 2.069-1.266 1.334-1.91 3.084-1.814 4.93.176 3.39 3.085 6.202 6.484 6.271.045 0 .09.001.136.001 3.305 0 6.121-2.429 6.577-5.699.043-.307.064-.622.064-.937 0-4.143 3.358-7.5 7.5-7.5s7.5 3.357 7.5 7.5c0 1.005-.07 2.017-.208 3.009-1.513 10.836-10.933 18.847-21.87 18.623z"/><path d="m49.851 168.023c-4.142 0-7.5-3.357-7.5-7.5v-3.704c0-4.143 3.358-7.5 7.5-7.5s7.5 3.357 7.5 7.5v3.704c0 4.142-3.358 7.5-7.5 7.5z"/></g></g></svg>