<?xml version="1.0" encoding="UTF-8"?>
<svg xmlns="http://www.w3.org/2000/svg" xmlns:xlink="http://www.w3.org/1999/xlink" width="720pt" height="432pt" viewBox="0 0 720 432" version="1.1">
<defs>
<clipPath id="clip1">
  <path d="M 136 28.347656 L 141 28.347656 L 141 354.957031 L 136 354.957031 Z M 136 28.347656 "/>
</clipPath>
</defs>
<g id="surface74">
<rect x="0" y="0" width="720" height="432" style="fill:rgb(100%,100%,100%);fill-opacity:1;stroke:none;"/>
<path style="fill:none;stroke-width:4.267913;stroke-linecap:butt;stroke-linejoin:round;stroke:rgb(74.901961%,22.352941%,51.764706%);stroke-opacity:1;stroke-miterlimit:10;" d="M 108.878906 340.109375 L 138.496094 340.109375 L 142.933594 339.308594 L 148.035156 337.496094 L 153.898438 335.183594 L 160.640625 332.261719 L 168.390625 328.589844 L 177.304688 324.007813 L 187.550781 318.335938 L 199.332031 311.378906 L 212.878906 302.917969 L 228.453125 292.757813 L 246.363281 280.667969 L 266.949219 266.496094 L 290.625 250.054688 L 317.839844 231.316406 L 349.132813 210.179688 L 385.113281 186.800781 L 426.484375 161.214844 L 474.046875 133.78125 L 528.734375 104.660156 L 591.609375 74.390625 L 663.902344 43.191406 "/>
<g clip-path="url(#clip1)" clip-rule="nonzero">
<path style="fill:none;stroke-width:3.200935;stroke-linecap:butt;stroke-linejoin:round;stroke:rgb(66.27451%,66.27451%,66.27451%);stroke-opacity:1;stroke-dasharray:12.80374,12.80374;stroke-miterlimit:10;" d="M 138.496094 354.957031 L 138.496094 28.347656 "/>
</g>
<path style="fill:none;stroke-width:1.115477;stroke-linecap:butt;stroke-linejoin:round;stroke:rgb(66.27451%,66.27451%,66.27451%);stroke-opacity:1;stroke-miterlimit:10;" d="M 81.125 354.957031 L 81.125 28.347656 "/>
<path style=" stroke:none;fill-rule:nonzero;fill:rgb(30.196078%,30.196078%,30.196078%);fill-opacity:1;" d="M 56.828125 285.628906 L 57.003906 285.628906 L 57.171875 285.640625 L 57.335938 285.660156 L 57.496094 285.683594 L 57.652344 285.714844 L 57.804688 285.753906 L 57.953125 285.796875 L 58.097656 285.851563 L 58.234375 285.910156 L 58.367188 285.976563 L 58.5 286.050781 L 58.625 286.128906 L 58.742188 286.210938 L 58.855469 286.300781 L 58.960938 286.394531 L 59.058594 286.492188 L 59.152344 286.597656 L 59.238281 286.707031 L 59.316406 286.824219 L 59.390625 286.941406 L 59.457031 287.066406 L 59.515625 287.191406 L 59.570313 287.320313 L 59.613281 287.453125 L 59.652344 287.585938 L 59.683594 287.726563 L 59.707031 287.867188 L 59.726563 288.015625 L 59.738281 288.164063 L 59.738281 288.316406 L 59.734375 288.492188 L 59.722656 288.671875 L 59.703125 288.847656 L 59.671875 289.023438 L 59.636719 289.199219 L 59.589844 289.371094 L 59.535156 289.542969 L 59.472656 289.714844 L 59.398438 289.882813 L 59.320313 290.050781 L 59.234375 290.222656 L 59.136719 290.394531 L 59.03125 290.570313 L 58.914063 290.75 L 58.789063 290.933594 L 58.652344 291.121094 L 58.503906 291.308594 L 58.347656 291.503906 L 58.179688 291.699219 L 58.003906 291.898438 L 57.8125 292.101563 L 57.609375 292.316406 L 57.390625 292.542969 L 57.15625 292.78125 L 56.90625 293.027344 L 56.640625 293.285156 L 56.359375 293.550781 L 56.0625 293.832031 L 55.753906 294.121094 L 55.429688 294.417969 L 59.964844 294.417969 L 59.824219 295.425781 L 54.085938 295.425781 L 54.085938 294.476563 L 54.453125 294.121094 L 54.800781 293.785156 L 55.128906 293.460938 L 55.4375 293.15625 L 55.730469 292.867188 L 56 292.589844 L 56.25 292.332031 L 56.480469 292.085938 L 56.691406 291.859375 L 56.882813 291.648438 L 57.0625 291.445313 L 57.230469 291.25 L 57.386719 291.058594 L 57.53125 290.875 L 57.664063 290.699219 L 57.785156 290.527344 L 57.894531 290.359375 L 57.996094 290.199219 L 58.082031 290.046875 L 58.15625 289.898438 L 58.222656 289.75 L 58.285156 289.601563 L 58.335938 289.453125 L 58.382813 289.300781 L 58.421875 289.148438 L 58.453125 288.992188 L 58.476563 288.835938 L 58.492188 288.679688 L 58.503906 288.519531 L 58.507813 288.355469 L 58.503906 288.199219 L 58.488281 288.046875 L 58.464844 287.902344 L 58.433594 287.765625 L 58.390625 287.632813 L 58.339844 287.507813 L 58.28125 287.390625 L 58.210938 287.28125 L 58.132813 287.179688 L 58.046875 287.082031 L 57.949219 286.996094 L 57.847656 286.917969 L 57.738281 286.847656 L 57.621094 286.789063 L 57.496094 286.738281 L 57.367188 286.695313 L 57.226563 286.664063 L 57.082031 286.640625 L 56.929688 286.625 L 56.773438 286.621094 L 56.636719 286.625 L 56.507813 286.628906 L 56.378906 286.644531 L 56.257813 286.660156 L 56.140625 286.679688 L 56.03125 286.707031 L 55.921875 286.738281 L 55.816406 286.773438 L 55.71875 286.8125 L 55.625 286.859375 L 55.535156 286.90625 L 55.445313 286.960938 L 55.351563 287.023438 L 55.261719 287.09375 L 55.167969 287.167969 L 55.078125 287.25 L 54.984375 287.335938 L 54.890625 287.433594 L 54.796875 287.535156 L 54.699219 287.644531 L 53.886719 287.011719 L 54.003906 286.875 L 54.121094 286.742188 L 54.242188 286.617188 L 54.367188 286.503906 L 54.492188 286.394531 L 54.621094 286.292969 L 54.753906 286.199219 L 54.886719 286.113281 L 55.023438 286.035156 L 55.160156 285.964844 L 55.308594 285.898438 L 55.457031 285.84375 L 55.613281 285.792969 L 55.769531 285.75 L 55.933594 285.710938 L 56.105469 285.679688 L 56.277344 285.65625 L 56.457031 285.640625 L 56.640625 285.628906 Z M 56.828125 285.628906 "/>
<path style=" stroke:none;fill-rule:nonzero;fill:rgb(30.196078%,30.196078%,30.196078%);fill-opacity:1;" d="M 64.414063 294.347656 L 64.417969 294.246094 L 64.429688 294.148438 L 64.449219 294.054688 L 64.472656 293.960938 L 64.503906 293.875 L 64.542969 293.789063 L 64.585938 293.707031 L 64.640625 293.628906 L 64.699219 293.554688 L 64.765625 293.480469 L 64.839844 293.414063 L 64.917969 293.351563 L 65 293.296875 L 65.082031 293.25 L 65.167969 293.207031 L 65.257813 293.175781 L 65.351563 293.148438 L 65.445313 293.132813 L 65.546875 293.121094 L 65.648438 293.117188 L 65.753906 293.121094 L 65.855469 293.132813 L 65.949219 293.148438 L 66.042969 293.175781 L 66.132813 293.207031 L 66.222656 293.25 L 66.304688 293.296875 L 66.382813 293.351563 L 66.457031 293.414063 L 66.53125 293.480469 L 66.597656 293.554688 L 66.65625 293.628906 L 66.707031 293.707031 L 66.753906 293.789063 L 66.792969 293.875 L 66.824219 293.960938 L 66.847656 294.054688 L 66.867188 294.148438 L 66.875 294.246094 L 66.878906 294.347656 L 66.875 294.453125 L 66.867188 294.554688 L 66.847656 294.652344 L 66.824219 294.746094 L 66.792969 294.835938 L 66.753906 294.921875 L 66.707031 295.003906 L 66.65625 295.085938 L 66.597656 295.160156 L 66.53125 295.230469 L 66.457031 295.296875 L 66.382813 295.355469 L 66.304688 295.410156 L 66.222656 295.457031 L 66.132813 295.492188 L 66.042969 295.523438 L 65.949219 295.550781 L 65.855469 295.566406 L 65.753906 295.578125 L 65.648438 295.582031 L 65.546875 295.578125 L 65.445313 295.566406 L 65.351563 295.550781 L 65.257813 295.523438 L 65.167969 295.492188 L 65.082031 295.457031 L 65 295.410156 L 64.917969 295.355469 L 64.839844 295.296875 L 64.765625 295.230469 L 64.699219 295.15625 L 64.640625 295.078125 L 64.585938 295 L 64.542969 294.914063 L 64.503906 294.828125 L 64.472656 294.738281 L 64.449219 294.644531 L 64.429688 294.550781 L 64.417969 294.453125 Z M 64.414063 294.347656 "/>
<path style=" stroke:none;fill-rule:nonzero;fill:rgb(30.196078%,30.196078%,30.196078%);fill-opacity:1;" d="M 73.628906 285.628906 L 73.800781 285.628906 L 73.972656 285.640625 L 74.136719 285.660156 L 74.296875 285.683594 L 74.453125 285.714844 L 74.605469 285.753906 L 74.753906 285.796875 L 74.894531 285.851563 L 75.035156 285.910156 L 75.167969 285.976563 L 75.300781 286.050781 L 75.425781 286.128906 L 75.542969 286.210938 L 75.652344 286.300781 L 75.757813 286.394531 L 75.859375 286.492188 L 75.949219 286.597656 L 76.039063 286.707031 L 76.117188 286.824219 L 76.191406 286.941406 L 76.257813 287.066406 L 76.316406 287.191406 L 76.367188 287.320313 L 76.414063 287.453125 L 76.453125 287.585938 L 76.484375 287.726563 L 76.507813 287.867188 L 76.527344 288.015625 L 76.535156 288.164063 L 76.539063 288.316406 L 76.535156 288.492188 L 76.523438 288.671875 L 76.503906 288.847656 L 76.472656 289.023438 L 76.433594 289.199219 L 76.390625 289.371094 L 76.335938 289.542969 L 76.269531 289.714844 L 76.199219 289.882813 L 76.121094 290.050781 L 76.035156 290.222656 L 75.9375 290.394531 L 75.832031 290.570313 L 75.714844 290.75 L 75.589844 290.933594 L 75.453125 291.121094 L 75.304688 291.308594 L 75.148438 291.503906 L 74.980469 291.699219 L 74.804688 291.898438 L 74.613281 292.101563 L 74.410156 292.316406 L 74.191406 292.542969 L 73.953125 292.78125 L 73.703125 293.027344 L 73.441406 293.285156 L 73.160156 293.550781 L 72.863281 293.832031 L 72.554688 294.121094 L 72.226563 294.417969 L 76.765625 294.417969 L 76.625 295.425781 L 70.882813 295.425781 L 70.882813 294.476563 L 71.253906 294.121094 L 71.601563 293.785156 L 71.929688 293.460938 L 72.238281 293.15625 L 72.527344 292.867188 L 72.800781 292.589844 L 73.050781 292.332031 L 73.28125 292.085938 L 73.492188 291.859375 L 73.683594 291.648438 L 73.863281 291.445313 L 74.03125 291.25 L 74.1875 291.058594 L 74.332031 290.875 L 74.464844 290.699219 L 74.585938 290.527344 L 74.695313 290.359375 L 74.796875 290.199219 L 74.882813 290.046875 L 74.957031 289.898438 L 75.023438 289.75 L 75.085938 289.601563 L 75.136719 289.453125 L 75.183594 289.300781 L 75.21875 289.148438 L 75.253906 288.992188 L 75.277344 288.835938 L 75.292969 288.679688 L 75.304688 288.519531 L 75.308594 288.355469 L 75.304688 288.199219 L 75.289063 288.046875 L 75.265625 287.902344 L 75.234375 287.765625 L 75.191406 287.632813 L 75.140625 287.507813 L 75.082031 287.390625 L 75.011719 287.28125 L 74.933594 287.179688 L 74.847656 287.082031 L 74.75 286.996094 L 74.648438 286.917969 L 74.539063 286.847656 L 74.421875 286.789063 L 74.296875 286.738281 L 74.164063 286.695313 L 74.027344 286.664063 L 73.882813 286.640625 L 73.730469 286.625 L 73.570313 286.621094 L 73.304688 286.628906 L 73.179688 286.644531 L 73.058594 286.660156 L 72.941406 286.679688 L 72.828125 286.707031 L 72.722656 286.738281 L 72.617188 286.773438 L 72.519531 286.8125 L 72.425781 286.859375 L 72.335938 286.90625 L 72.242188 286.960938 L 72.152344 287.023438 L 72.0625 287.09375 L 71.96875 287.167969 L 71.875 287.25 L 71.78125 287.335938 L 71.6875 287.433594 L 71.59375 287.535156 L 71.5 287.644531 L 70.6875 287.011719 L 70.804688 286.875 L 70.921875 286.742188 L 71.042969 286.617188 L 71.167969 286.503906 L 71.292969 286.394531 L 71.421875 286.292969 L 71.554688 286.199219 L 71.6875 286.113281 L 71.824219 286.035156 L 71.960938 285.964844 L 72.105469 285.898438 L 72.257813 285.84375 L 72.410156 285.792969 L 72.570313 285.75 L 72.734375 285.710938 L 72.90625 285.679688 L 73.078125 285.65625 L 73.257813 285.640625 L 73.441406 285.628906 Z M 73.628906 285.628906 "/>
<path style=" stroke:none;fill-rule:nonzero;fill:rgb(30.196078%,30.196078%,30.196078%);fill-opacity:1;" d="M 56.828125 187.847656 L 57.003906 187.851563 L 57.171875 187.859375 L 57.335938 187.878906 L 57.496094 187.902344 L 57.652344 187.933594 L 57.804688 187.972656 L 57.953125 188.019531 L 58.097656 188.070313 L 58.234375 188.128906 L 58.367188 188.195313 L 58.5 188.269531 L 58.625 188.347656 L 58.742188 188.429688 L 58.855469 188.519531 L 58.960938 188.613281 L 59.058594 188.710938 L 59.152344 188.816406 L 59.238281 188.925781 L 59.316406 189.042969 L 59.390625 189.164063 L 59.457031 189.285156 L 59.515625 189.410156 L 59.570313 189.539063 L 59.613281 189.671875 L 59.652344 189.808594 L 59.683594 189.945313 L 59.707031 190.089844 L 59.726563 190.234375 L 59.738281 190.382813 L 59.738281 190.535156 L 59.734375 190.714844 L 59.722656 190.890625 L 59.703125 191.066406 L 59.671875 191.242188 L 59.636719 191.417969 L 59.589844 191.589844 L 59.535156 191.761719 L 59.472656 191.933594 L 59.398438 192.101563 L 59.320313 192.269531 L 59.234375 192.441406 L 59.136719 192.613281 L 59.03125 192.789063 L 58.914063 192.96875 L 58.789063 193.152344 L 58.652344 193.339844 L 58.503906 193.527344 L 58.347656 193.722656 L 58.179688 193.917969 L 58.003906 194.117188 L 57.8125 194.324219 L 57.609375 194.539063 L 57.390625 194.761719 L 57.15625 195 L 56.90625 195.246094 L 56.640625 195.503906 L 56.359375 195.769531 L 56.0625 196.050781 L 55.753906 196.339844 L 55.429688 196.640625 L 59.964844 196.640625 L 59.824219 197.648438 L 54.085938 197.648438 L 54.085938 196.695313 L 54.453125 196.339844 L 54.800781 196.003906 L 55.128906 195.683594 L 55.4375 195.375 L 55.730469 195.085938 L 56 194.808594 L 56.25 194.550781 L 56.480469 194.308594 L 56.691406 194.078125 L 56.882813 193.867188 L 57.0625 193.664063 L 57.230469 193.46875 L 57.386719 193.28125 L 57.53125 193.097656 L 57.664063 192.917969 L 57.785156 192.746094 L 57.894531 192.578125 L 57.996094 192.417969 L 58.082031 192.265625 L 58.15625 192.117188 L 58.222656 191.96875 L 58.285156 191.820313 L 58.335938 191.671875 L 58.382813 191.519531 L 58.421875 191.367188 L 58.453125 191.214844 L 58.476563 191.054688 L 58.492188 190.898438 L 58.503906 190.738281 L 58.507813 190.578125 L 58.503906 190.417969 L 58.488281 190.265625 L 58.464844 190.121094 L 58.433594 189.984375 L 58.390625 189.851563 L 58.339844 189.726563 L 58.28125 189.613281 L 58.210938 189.5 L 58.132813 189.398438 L 58.046875 189.304688 L 57.949219 189.214844 L 57.847656 189.136719 L 57.738281 189.066406 L 57.621094 189.007813 L 57.496094 188.957031 L 57.367188 188.914063 L 57.226563 188.882813 L 57.082031 188.859375 L 56.929688 188.84375 L 56.773438 188.839844 L 56.636719 188.84375 L 56.507813 188.851563 L 56.378906 188.863281 L 56.257813 188.878906 L 56.140625 188.898438 L 56.03125 188.925781 L 55.921875 188.957031 L 55.816406 188.992188 L 55.71875 189.035156 L 55.625 189.078125 L 55.535156 189.125 L 55.445313 189.183594 L 55.351563 189.242188 L 55.261719 189.3125 L 55.167969 189.386719 L 55.078125 189.46875 L 54.984375 189.558594 L 54.890625 189.652344 L 54.796875 189.753906 L 54.699219 189.863281 L 53.886719 189.234375 L 54.003906 189.09375 L 54.121094 188.960938 L 54.242188 188.839844 L 54.367188 188.722656 L 54.492188 188.613281 L 54.621094 188.511719 L 54.753906 188.417969 L 54.886719 188.332031 L 55.023438 188.253906 L 55.160156 188.183594 L 55.308594 188.117188 L 55.457031 188.0625 L 55.613281 188.011719 L 55.769531 187.96875 L 55.933594 187.929688 L 56.105469 187.902344 L 56.277344 187.878906 L 56.457031 187.859375 L 56.640625 187.851563 Z M 56.828125 187.847656 "/>
<path style=" stroke:none;fill-rule:nonzero;fill:rgb(30.196078%,30.196078%,30.196078%);fill-opacity:1;" d="M 64.414063 196.570313 L 64.417969 196.46875 L 64.429688 196.367188 L 64.449219 196.273438 L 64.472656 196.179688 L 64.503906 196.09375 L 64.542969 196.007813 L 64.585938 195.925781 L 64.640625 195.847656 L 64.699219 195.773438 L 64.765625 195.699219 L 64.839844 195.632813 L 64.917969 195.570313 L 65 195.515625 L 65.082031 195.46875 L 65.167969 195.429688 L 65.257813 195.394531 L 65.351563 195.371094 L 65.445313 195.351563 L 65.546875 195.339844 L 65.648438 195.335938 L 65.753906 195.339844 L 65.855469 195.351563 L 65.949219 195.371094 L 66.042969 195.394531 L 66.132813 195.429688 L 66.222656 195.46875 L 66.304688 195.515625 L 66.382813 195.570313 L 66.457031 195.632813 L 66.53125 195.699219 L 66.597656 195.773438 L 66.65625 195.847656 L 66.707031 195.925781 L 66.753906 196.007813 L 66.792969 196.09375 L 66.824219 196.179688 L 66.847656 196.273438 L 66.867188 196.367188 L 66.875 196.46875 L 66.878906 196.570313 L 66.875 196.671875 L 66.867188 196.773438 L 66.847656 196.871094 L 66.824219 196.964844 L 66.792969 197.054688 L 66.753906 197.140625 L 66.707031 197.222656 L 66.65625 197.304688 L 66.597656 197.378906 L 66.53125 197.449219 L 66.457031 197.515625 L 66.382813 197.578125 L 66.304688 197.628906 L 66.222656 197.675781 L 66.132813 197.714844 L 66.042969 197.746094 L 65.949219 197.769531 L 65.855469 197.785156 L 65.753906 197.796875 L 65.648438 197.800781 L 65.546875 197.796875 L 65.445313 197.785156 L 65.351563 197.769531 L 65.257813 197.746094 L 65.167969 197.714844 L 65.082031 197.675781 L 65 197.628906 L 64.917969 197.578125 L 64.839844 197.515625 L 64.765625 197.449219 L 64.699219 197.375 L 64.640625 197.300781 L 64.585938 197.21875 L 64.542969 197.136719 L 64.503906 197.046875 L 64.472656 196.957031 L 64.449219 196.867188 L 64.429688 196.769531 L 64.417969 196.671875 Z M 64.414063 196.570313 "/>
<path style=" stroke:none;fill-rule:nonzero;fill:rgb(30.196078%,30.196078%,30.196078%);fill-opacity:1;" d="M 77.253906 195.308594 L 76.007813 195.308594 L 76.007813 197.648438 L 74.875 197.648438 L 74.875 195.308594 L 70.871094 195.308594 L 70.871094 194.441406 L 73.699219 187.847656 L 74.679688 188.265625 L 72.117188 194.355469 L 74.886719 194.355469 L 74.984375 191.625 L 76.007813 191.625 L 76.007813 194.355469 L 77.253906 194.355469 Z M 77.253906 195.308594 "/>
<path style=" stroke:none;fill-rule:nonzero;fill:rgb(30.196078%,30.196078%,30.196078%);fill-opacity:1;" d="M 56.828125 90.066406 L 57.003906 90.070313 L 57.171875 90.082031 L 57.335938 90.097656 L 57.496094 90.121094 L 57.652344 90.152344 L 57.804688 90.191406 L 57.953125 90.238281 L 58.097656 90.289063 L 58.234375 90.351563 L 58.367188 90.417969 L 58.5 90.488281 L 58.625 90.566406 L 58.742188 90.648438 L 58.855469 90.738281 L 58.960938 90.832031 L 59.058594 90.933594 L 59.152344 91.035156 L 59.238281 91.148438 L 59.316406 91.261719 L 59.390625 91.382813 L 59.457031 91.503906 L 59.515625 91.628906 L 59.570313 91.757813 L 59.613281 91.890625 L 59.652344 92.027344 L 59.683594 92.164063 L 59.707031 92.308594 L 59.726563 92.453125 L 59.738281 92.601563 L 59.738281 92.753906 L 59.734375 92.933594 L 59.722656 93.109375 L 59.703125 93.285156 L 59.671875 93.460938 L 59.636719 93.636719 L 59.589844 93.808594 L 59.535156 93.980469 L 59.472656 94.152344 L 59.398438 94.320313 L 59.320313 94.492188 L 59.234375 94.660156 L 59.136719 94.832031 L 59.03125 95.007813 L 58.914063 95.1875 L 58.789063 95.371094 L 58.652344 95.558594 L 58.503906 95.75 L 58.347656 95.941406 L 58.179688 96.136719 L 58.003906 96.339844 L 57.8125 96.542969 L 57.609375 96.757813 L 57.390625 96.984375 L 57.15625 97.21875 L 56.90625 97.464844 L 56.640625 97.722656 L 56.359375 97.992188 L 56.0625 98.269531 L 55.753906 98.558594 L 55.429688 98.859375 L 59.964844 98.859375 L 59.824219 99.867188 L 54.085938 99.867188 L 54.085938 98.914063 L 54.453125 98.5625 L 54.800781 98.222656 L 55.128906 97.902344 L 55.4375 97.59375 L 55.730469 97.304688 L 56 97.03125 L 56.25 96.769531 L 56.480469 96.527344 L 56.691406 96.296875 L 56.882813 96.085938 L 57.0625 95.886719 L 57.230469 95.6875 L 57.386719 95.5 L 57.53125 95.316406 L 57.664063 95.136719 L 57.785156 94.964844 L 57.894531 94.800781 L 57.996094 94.640625 L 58.082031 94.484375 L 58.15625 94.335938 L 58.222656 94.191406 L 58.285156 94.042969 L 58.335938 93.890625 L 58.382813 93.742188 L 58.421875 93.585938 L 58.453125 93.433594 L 58.476563 93.277344 L 58.492188 93.117188 L 58.503906 92.957031 L 58.507813 92.796875 L 58.503906 92.636719 L 58.488281 92.484375 L 58.464844 92.339844 L 58.433594 92.203125 L 58.390625 92.070313 L 58.339844 91.949219 L 58.28125 91.832031 L 58.210938 91.722656 L 58.132813 91.617188 L 58.046875 91.523438 L 57.949219 91.433594 L 57.847656 91.355469 L 57.738281 91.285156 L 57.621094 91.226563 L 57.496094 91.175781 L 57.367188 91.132813 L 57.226563 91.101563 L 57.082031 91.078125 L 56.929688 91.066406 L 56.773438 91.058594 L 56.636719 91.0625 L 56.507813 91.070313 L 56.378906 91.082031 L 56.257813 91.097656 L 56.140625 91.121094 L 56.03125 91.144531 L 55.921875 91.175781 L 55.816406 91.210938 L 55.71875 91.253906 L 55.625 91.296875 L 55.535156 91.347656 L 55.445313 91.402344 L 55.351563 91.464844 L 55.261719 91.53125 L 55.167969 91.605469 L 55.078125 91.6875 L 54.984375 91.777344 L 54.890625 91.871094 L 54.796875 91.972656 L 54.699219 92.082031 L 53.886719 91.453125 L 54.003906 91.3125 L 54.121094 91.183594 L 54.242188 91.058594 L 54.367188 90.941406 L 54.492188 90.832031 L 54.621094 90.730469 L 54.753906 90.636719 L 54.886719 90.550781 L 55.023438 90.472656 L 55.160156 90.402344 L 55.308594 90.339844 L 55.457031 90.28125 L 55.613281 90.230469 L 55.769531 90.1875 L 55.933594 90.148438 L 56.105469 90.121094 L 56.277344 90.097656 L 56.457031 90.078125 L 56.640625 90.070313 Z M 56.828125 90.066406 "/>
<path style=" stroke:none;fill-rule:nonzero;fill:rgb(30.196078%,30.196078%,30.196078%);fill-opacity:1;" d="M 64.414063 98.789063 L 64.417969 98.6875 L 64.429688 98.585938 L 64.449219 98.492188 L 64.472656 98.402344 L 64.503906 98.3125 L 64.542969 98.226563 L 64.585938 98.144531 L 64.640625 98.066406 L 64.699219 97.992188 L 64.765625 97.921875 L 64.839844 97.851563 L 64.917969 97.789063 L 65 97.734375 L 65.082031 97.6875 L 65.167969 97.648438 L 65.257813 97.613281 L 65.351563 97.589844 L 65.445313 97.570313 L 65.546875 97.558594 L 65.648438 97.554688 L 65.753906 97.558594 L 65.855469 97.570313 L 65.949219 97.589844 L 66.042969 97.613281 L 66.132813 97.648438 L 66.222656 97.6875 L 66.304688 97.734375 L 66.382813 97.789063 L 66.457031 97.851563 L 66.53125 97.921875 L 66.597656 97.992188 L 66.65625 98.066406 L 66.707031 98.144531 L 66.753906 98.226563 L 66.792969 98.3125 L 66.824219 98.402344 L 66.847656 98.492188 L 66.867188 98.585938 L 66.875 98.6875 L 66.878906 98.789063 L 66.875 98.894531 L 66.867188 98.992188 L 66.847656 99.089844 L 66.824219 99.183594 L 66.792969 99.273438 L 66.753906 99.359375 L 66.707031 99.445313 L 66.65625 99.523438 L 66.597656 99.597656 L 66.53125 99.671875 L 66.457031 99.738281 L 66.382813 99.796875 L 66.304688 99.847656 L 66.222656 99.894531 L 66.132813 99.933594 L 66.042969 99.964844 L 65.949219 99.988281 L 65.855469 100.007813 L 65.753906 100.015625 L 65.648438 100.019531 L 65.546875 100.015625 L 65.445313 100.007813 L 65.351563 99.988281 L 65.257813 99.964844 L 65.167969 99.933594 L 65.082031 99.894531 L 65 99.847656 L 64.917969 99.796875 L 64.839844 99.738281 L 64.765625 99.671875 L 64.699219 99.597656 L 64.640625 99.519531 L 64.585938 99.4375 L 64.542969 99.355469 L 64.503906 99.269531 L 64.472656 99.179688 L 64.449219 99.085938 L 64.429688 98.988281 L 64.417969 98.890625 Z M 64.414063 98.789063 "/>
<path style=" stroke:none;fill-rule:nonzero;fill:rgb(30.196078%,30.196078%,30.196078%);fill-opacity:1;" d="M 74.480469 93.59375 L 74.632813 93.597656 L 74.777344 93.609375 L 74.921875 93.625 L 75.0625 93.648438 L 75.203125 93.679688 L 75.339844 93.714844 L 75.472656 93.757813 L 75.601563 93.808594 L 75.730469 93.867188 L 75.855469 93.929688 L 75.976563 94 L 76.09375 94.078125 L 76.207031 94.164063 L 76.316406 94.253906 L 76.417969 94.355469 L 76.515625 94.460938 L 76.605469 94.570313 L 76.691406 94.691406 L 76.773438 94.820313 L 76.847656 94.953125 L 76.917969 95.089844 L 76.980469 95.234375 L 77.035156 95.382813 L 77.082031 95.542969 L 77.121094 95.703125 L 77.152344 95.875 L 77.179688 96.050781 L 77.199219 96.234375 L 77.207031 96.421875 L 77.210938 96.617188 L 77.207031 96.824219 L 77.195313 97.023438 L 77.175781 97.21875 L 77.148438 97.40625 L 77.109375 97.589844 L 77.066406 97.769531 L 77.011719 97.945313 L 76.953125 98.113281 L 76.882813 98.277344 L 76.804688 98.4375 L 76.722656 98.589844 L 76.632813 98.730469 L 76.539063 98.867188 L 76.4375 98.996094 L 76.328125 99.117188 L 76.21875 99.230469 L 76.101563 99.339844 L 75.976563 99.4375 L 75.847656 99.53125 L 75.714844 99.613281 L 75.574219 99.691406 L 75.433594 99.761719 L 75.289063 99.820313 L 75.136719 99.875 L 74.984375 99.917969 L 74.832031 99.957031 L 74.671875 99.984375 L 74.507813 100.003906 L 74.34375 100.015625 L 74.175781 100.019531 L 73.847656 100.007813 L 73.539063 99.972656 L 73.246094 99.910156 L 72.976563 99.824219 L 72.722656 99.714844 L 72.484375 99.582031 L 72.269531 99.421875 L 72.070313 99.242188 L 71.886719 99.035156 L 71.722656 98.800781 L 71.582031 98.546875 L 71.453125 98.273438 L 71.339844 97.976563 L 71.238281 97.660156 L 71.15625 97.320313 L 71.089844 96.960938 L 71.035156 96.582031 L 71 96.179688 L 70.976563 95.757813 L 70.96875 95.316406 L 70.972656 95 L 70.984375 94.695313 L 71.003906 94.398438 L 71.035156 94.105469 L 71.074219 93.824219 L 71.121094 93.550781 L 71.171875 93.289063 L 71.238281 93.03125 L 71.308594 92.785156 L 71.386719 92.542969 L 71.476563 92.3125 L 71.574219 92.089844 L 71.679688 91.878906 L 71.792969 91.679688 L 71.914063 91.492188 L 72.039063 91.3125 L 72.175781 91.144531 L 72.316406 90.988281 L 72.464844 90.84375 L 72.621094 90.710938 L 72.785156 90.589844 L 72.957031 90.476563 L 73.136719 90.382813 L 73.320313 90.296875 L 73.507813 90.226563 L 73.707031 90.167969 L 73.90625 90.125 L 74.117188 90.09375 L 74.332031 90.074219 L 74.550781 90.066406 L 74.761719 90.070313 L 74.964844 90.089844 L 75.164063 90.117188 L 75.363281 90.15625 L 75.554688 90.210938 L 75.746094 90.273438 L 75.933594 90.347656 L 76.117188 90.433594 L 76.292969 90.53125 L 76.46875 90.640625 L 76.007813 91.425781 L 75.871094 91.347656 L 75.730469 91.277344 L 75.585938 91.21875 L 75.445313 91.164063 L 75.296875 91.121094 L 75.148438 91.082031 L 75 91.054688 L 74.847656 91.035156 L 74.695313 91.023438 L 74.539063 91.019531 L 74.320313 91.027344 L 74.113281 91.058594 L 73.917969 91.113281 L 73.730469 91.183594 L 73.550781 91.277344 L 73.382813 91.390625 L 73.222656 91.527344 L 73.074219 91.679688 L 72.933594 91.859375 L 72.800781 92.054688 L 72.683594 92.269531 L 72.578125 92.5 L 72.484375 92.742188 L 72.402344 93.003906 L 72.332031 93.28125 L 72.273438 93.570313 L 72.226563 93.875 L 72.191406 94.195313 L 72.167969 94.53125 L 72.15625 94.882813 L 72.25 94.75 L 72.34375 94.628906 L 72.4375 94.511719 L 72.535156 94.402344 L 72.636719 94.300781 L 72.742188 94.207031 L 72.847656 94.121094 L 72.957031 94.039063 L 73.066406 93.96875 L 73.179688 93.902344 L 73.296875 93.84375 L 73.414063 93.792969 L 73.539063 93.746094 L 73.664063 93.707031 L 73.792969 93.671875 L 73.925781 93.644531 L 74.058594 93.621094 L 74.195313 93.605469 L 74.339844 93.597656 Z M 74.175781 99.066406 L 74.347656 99.0625 L 74.515625 99.042969 L 74.671875 99.011719 L 74.820313 98.96875 L 74.960938 98.910156 L 75.09375 98.839844 L 75.214844 98.757813 L 75.328125 98.664063 L 75.433594 98.558594 L 75.53125 98.4375 L 75.621094 98.304688 L 75.703125 98.160156 L 75.773438 98.007813 L 75.835938 97.84375 L 75.890625 97.671875 L 75.933594 97.488281 L 75.964844 97.296875 L 75.988281 97.09375 L 76.003906 96.882813 L 76.007813 96.660156 L 75.992188 96.257813 L 75.941406 95.898438 L 75.855469 95.582031 L 75.734375 95.308594 L 75.582031 95.074219 L 75.394531 94.882813 L 75.171875 94.738281 L 74.914063 94.632813 L 74.625 94.566406 L 74.300781 94.546875 L 74.167969 94.550781 L 74.035156 94.5625 L 73.90625 94.582031 L 73.78125 94.605469 L 73.660156 94.640625 L 73.539063 94.683594 L 73.421875 94.730469 L 73.304688 94.789063 L 73.191406 94.851563 L 73.082031 94.925781 L 72.976563 95 L 72.875 95.082031 L 72.777344 95.167969 L 72.679688 95.257813 L 72.589844 95.355469 L 72.5 95.457031 L 72.414063 95.5625 L 72.328125 95.675781 L 72.171875 95.917969 L 72.183594 96.238281 L 72.199219 96.539063 L 72.230469 96.820313 L 72.265625 97.085938 L 72.3125 97.335938 L 72.367188 97.566406 L 72.429688 97.78125 L 72.503906 97.976563 L 72.585938 98.152344 L 72.675781 98.3125 L 72.777344 98.457031 L 72.886719 98.585938 L 73.011719 98.699219 L 73.144531 98.796875 L 73.289063 98.878906 L 73.445313 98.949219 L 73.609375 99 L 73.785156 99.039063 L 73.976563 99.0625 Z M 74.175781 99.066406 "/>
<path style="fill:none;stroke-width:1.115477;stroke-linecap:butt;stroke-linejoin:round;stroke:rgb(66.27451%,66.27451%,66.27451%);stroke-opacity:1;stroke-miterlimit:10;" d="M 81.125 354.957031 L 691.652344 354.957031 "/>
<path style=" stroke:none;fill-rule:nonzero;fill:rgb(30.196078%,30.196078%,30.196078%);fill-opacity:1;" d="M 108.878906 357.667969 L 109.179688 357.679688 L 109.464844 357.71875 L 109.734375 357.78125 L 109.992188 357.871094 L 110.230469 357.988281 L 110.457031 358.128906 L 110.671875 358.296875 L 110.867188 358.492188 L 111.046875 358.710938 L 111.214844 358.953125 L 111.371094 359.21875 L 111.507813 359.507813 L 111.628906 359.820313 L 111.734375 360.15625 L 111.824219 360.511719 L 111.898438 360.890625 L 111.953125 361.292969 L 111.996094 361.71875 L 112.019531 362.164063 L 112.027344 362.636719 L 112.019531 363.109375 L 111.996094 363.558594 L 111.953125 363.988281 L 111.898438 364.390625 L 111.824219 364.773438 L 111.734375 365.132813 L 111.628906 365.472656 L 111.507813 365.785156 L 111.371094 366.078125 L 111.214844 366.347656 L 111.046875 366.589844 L 110.867188 366.804688 L 110.671875 366.996094 L 110.457031 367.160156 L 110.230469 367.300781 L 109.992188 367.417969 L 109.734375 367.503906 L 109.464844 367.570313 L 109.179688 367.605469 L 108.878906 367.621094 L 108.578125 367.605469 L 108.289063 367.570313 L 108.019531 367.503906 L 107.761719 367.417969 L 107.519531 367.300781 L 107.292969 367.160156 L 107.078125 366.996094 L 106.878906 366.804688 L 106.695313 366.589844 L 106.527344 366.347656 L 106.375 366.078125 L 106.238281 365.785156 L 106.117188 365.472656 L 106.015625 365.132813 L 105.925781 364.773438 L 105.855469 364.390625 L 105.800781 363.988281 L 105.757813 363.558594 L 105.734375 363.109375 L 105.726563 362.636719 L 105.734375 362.164063 L 105.757813 361.71875 L 105.800781 361.292969 L 105.855469 360.890625 L 105.925781 360.511719 L 106.015625 360.15625 L 106.117188 359.820313 L 106.238281 359.507813 L 106.375 359.21875 L 106.527344 358.953125 L 106.695313 358.710938 L 106.878906 358.492188 L 107.078125 358.296875 L 107.292969 358.128906 L 107.519531 357.988281 L 107.761719 357.871094 L 108.019531 357.78125 L 108.289063 357.71875 L 108.578125 357.679688 Z M 108.878906 358.617188 L 108.511719 358.660156 L 108.1875 358.777344 L 107.898438 358.980469 L 107.648438 359.261719 L 107.4375 359.621094 L 107.265625 360.066406 L 107.132813 360.585938 L 107.035156 361.191406 L 106.980469 361.871094 L 106.960938 362.636719 L 106.980469 363.402344 L 107.035156 364.085938 L 107.132813 364.691406 L 107.265625 365.214844 L 107.4375 365.660156 L 107.648438 366.023438 L 107.898438 366.304688 L 108.1875 366.507813 L 108.511719 366.628906 L 108.878906 366.667969 L 109.242188 366.628906 L 109.566406 366.507813 L 109.855469 366.304688 L 110.105469 366.023438 L 110.316406 365.660156 L 110.488281 365.214844 L 110.621094 364.691406 L 110.71875 364.085938 L 110.777344 363.402344 L 110.796875 362.636719 L 110.777344 361.871094 L 110.71875 361.191406 L 110.621094 360.585938 L 110.488281 360.066406 L 110.316406 359.621094 L 110.105469 359.261719 L 109.855469 358.980469 L 109.566406 358.777344 L 109.242188 358.660156 Z M 108.878906 361.726563 L 108.953125 361.730469 L 109.027344 361.738281 L 109.101563 361.75 L 109.171875 361.769531 L 109.238281 361.792969 L 109.300781 361.820313 L 109.363281 361.855469 L 109.425781 361.894531 L 109.480469 361.941406 L 109.535156 361.992188 L 109.585938 362.046875 L 109.632813 362.101563 L 109.671875 362.160156 L 109.707031 362.222656 L 109.734375 362.285156 L 109.757813 362.351563 L 109.777344 362.417969 L 109.789063 362.488281 L 109.800781 362.5625 L 109.800781 362.714844 L 109.789063 362.789063 L 109.777344 362.859375 L 109.757813 362.929688 L 109.734375 362.996094 L 109.707031 363.0625 L 109.671875 363.125 L 109.632813 363.183594 L 109.585938 363.238281 L 109.535156 363.292969 L 109.480469 363.34375 L 109.425781 363.390625 L 109.363281 363.429688 L 109.300781 363.464844 L 109.238281 363.492188 L 109.171875 363.515625 L 109.101563 363.535156 L 109.027344 363.550781 L 108.953125 363.558594 L 108.800781 363.558594 L 108.726563 363.550781 L 108.652344 363.535156 L 108.585938 363.515625 L 108.515625 363.492188 L 108.453125 363.464844 L 108.390625 363.429688 L 108.332031 363.390625 L 108.273438 363.34375 L 108.21875 363.292969 L 108.171875 363.238281 L 108.128906 363.183594 L 108.089844 363.125 L 108.058594 363.0625 L 108.03125 362.996094 L 108.007813 362.929688 L 107.988281 362.859375 L 107.976563 362.789063 L 107.96875 362.714844 L 107.96875 362.5625 L 107.976563 362.488281 L 107.988281 362.417969 L 108.007813 362.351563 L 108.03125 362.285156 L 108.058594 362.222656 L 108.089844 362.160156 L 108.128906 362.101563 L 108.171875 362.046875 L 108.21875 361.992188 L 108.273438 361.941406 L 108.332031 361.894531 L 108.390625 361.855469 L 108.453125 361.820313 L 108.515625 361.792969 L 108.585938 361.769531 L 108.652344 361.75 L 108.726563 361.738281 L 108.800781 361.730469 Z M 108.878906 361.726563 "/>
<path style=" stroke:none;fill-rule:nonzero;fill:rgb(30.196078%,30.196078%,30.196078%);fill-opacity:1;" d="M 223.433594 366.515625 L 223.433594 367.464844 L 217.875 367.464844 L 217.875 366.515625 L 220.242188 366.515625 L 220.242188 359.109375 L 218.042969 360.4375 L 217.523438 359.613281 L 220.394531 357.820313 L 221.429688 357.820313 L 221.429688 366.515625 Z M 223.433594 366.515625 "/>
<path style=" stroke:none;fill-rule:nonzero;fill:rgb(30.196078%,30.196078%,30.196078%);fill-opacity:1;" d="M 331.476563 357.667969 L 331.652344 357.667969 L 331.820313 357.679688 L 331.988281 357.699219 L 332.148438 357.722656 L 332.304688 357.753906 L 332.457031 357.792969 L 332.601563 357.835938 L 332.746094 357.890625 L 332.882813 357.949219 L 333.019531 358.015625 L 333.148438 358.089844 L 333.273438 358.167969 L 333.390625 358.25 L 333.503906 358.339844 L 333.609375 358.433594 L 333.707031 358.53125 L 333.800781 358.636719 L 333.886719 358.746094 L 333.96875 358.863281 L 334.039063 358.980469 L 334.105469 359.105469 L 334.167969 359.230469 L 334.21875 359.359375 L 334.265625 359.492188 L 334.304688 359.625 L 334.335938 359.765625 L 334.359375 359.90625 L 334.375 360.054688 L 334.386719 360.203125 L 334.390625 360.355469 L 334.386719 360.53125 L 334.375 360.710938 L 334.351563 360.886719 L 334.324219 361.0625 L 334.285156 361.234375 L 334.238281 361.410156 L 334.183594 361.582031 L 334.121094 361.75 L 334.050781 361.921875 L 333.96875 362.089844 L 333.882813 362.257813 L 333.789063 362.433594 L 333.679688 362.609375 L 333.566406 362.789063 L 333.4375 362.972656 L 333.300781 363.160156 L 333.15625 363.347656 L 333 363.542969 L 332.832031 363.738281 L 332.65625 363.9375 L 332.464844 364.140625 L 332.261719 364.355469 L 332.039063 364.582031 L 331.804688 364.820313 L 331.554688 365.066406 L 331.289063 365.324219 L 331.011719 365.589844 L 330.714844 365.867188 L 330.402344 366.15625 L 330.078125 366.457031 L 334.613281 366.457031 L 334.472656 367.464844 L 328.734375 367.464844 L 328.734375 366.515625 L 329.101563 366.160156 L 329.449219 365.824219 L 329.78125 365.5 L 330.089844 365.195313 L 330.378906 364.902344 L 330.648438 364.628906 L 330.898438 364.371094 L 331.132813 364.125 L 331.34375 363.898438 L 331.535156 363.6875 L 331.714844 363.484375 L 331.882813 363.289063 L 332.035156 363.097656 L 332.183594 362.914063 L 332.316406 362.738281 L 332.4375 362.566406 L 332.546875 362.398438 L 332.644531 362.238281 L 332.734375 362.085938 L 332.808594 361.9375 L 332.875 361.789063 L 332.933594 361.640625 L 332.988281 361.492188 L 333.03125 361.339844 L 333.070313 361.1875 L 333.101563 361.03125 L 333.125 360.875 L 333.144531 360.71875 L 333.15625 360.558594 L 333.160156 360.394531 L 333.152344 360.238281 L 333.140625 360.085938 L 333.117188 359.941406 L 333.085938 359.800781 L 333.042969 359.671875 L 332.992188 359.546875 L 332.933594 359.429688 L 332.863281 359.320313 L 332.785156 359.21875 L 332.695313 359.121094 L 332.601563 359.035156 L 332.496094 358.957031 L 332.386719 358.886719 L 332.269531 358.828125 L 332.148438 358.777344 L 332.015625 358.734375 L 331.878906 358.703125 L 331.734375 358.679688 L 331.582031 358.664063 L 331.421875 358.660156 L 331.15625 358.667969 L 331.03125 358.679688 L 330.910156 358.699219 L 330.792969 358.71875 L 330.679688 358.746094 L 330.570313 358.777344 L 330.46875 358.8125 L 330.367188 358.851563 L 330.273438 358.898438 L 330.183594 358.945313 L 330.09375 359 L 330.003906 359.0625 L 329.910156 359.132813 L 329.820313 359.207031 L 329.726563 359.289063 L 329.632813 359.375 L 329.539063 359.472656 L 329.445313 359.574219 L 329.351563 359.683594 L 328.539063 359.050781 L 328.65625 358.914063 L 328.773438 358.78125 L 328.894531 358.65625 L 329.019531 358.542969 L 329.144531 358.433594 L 329.273438 358.332031 L 329.402344 358.238281 L 329.539063 358.152344 L 329.671875 358.074219 L 329.8125 358.003906 L 329.957031 357.9375 L 330.109375 357.882813 L 330.261719 357.832031 L 330.421875 357.785156 L 330.585938 357.75 L 330.753906 357.71875 L 330.929688 357.695313 L 331.105469 357.679688 L 331.289063 357.667969 Z M 331.476563 357.667969 "/>
<path style=" stroke:none;fill-rule:nonzero;fill:rgb(30.196078%,30.196078%,30.196078%);fill-opacity:1;" d="M 442.996094 357.667969 L 443.171875 357.667969 L 443.339844 357.679688 L 443.507813 357.695313 L 443.667969 357.71875 L 443.824219 357.75 L 443.980469 357.785156 L 444.128906 357.832031 L 444.273438 357.882813 L 444.414063 357.9375 L 444.550781 358.003906 L 444.679688 358.070313 L 444.804688 358.140625 L 444.925781 358.214844 L 445.039063 358.296875 L 445.144531 358.382813 L 445.246094 358.472656 L 445.339844 358.570313 L 445.429688 358.667969 L 445.511719 358.773438 L 445.585938 358.882813 L 445.65625 358.996094 L 445.714844 359.105469 L 445.769531 359.222656 L 445.820313 359.339844 L 445.859375 359.457031 L 445.890625 359.578125 L 445.917969 359.703125 L 445.933594 359.828125 L 445.945313 359.957031 L 445.949219 360.089844 L 445.945313 360.253906 L 445.929688 360.414063 L 445.902344 360.574219 L 445.863281 360.726563 L 445.8125 360.875 L 445.753906 361.019531 L 445.683594 361.160156 L 445.601563 361.296875 L 445.507813 361.429688 L 445.402344 361.558594 L 445.292969 361.675781 L 445.175781 361.785156 L 445.054688 361.886719 L 444.929688 361.976563 L 444.796875 362.058594 L 444.664063 362.132813 L 444.523438 362.195313 L 444.378906 362.246094 L 444.226563 362.292969 L 444.074219 362.328125 L 444.253906 362.347656 L 444.425781 362.378906 L 444.59375 362.417969 L 444.757813 362.472656 L 444.914063 362.535156 L 445.066406 362.609375 L 445.210938 362.695313 L 445.351563 362.789063 L 445.484375 362.894531 L 445.613281 363.015625 L 445.734375 363.140625 L 445.84375 363.277344 L 445.941406 363.425781 L 446.027344 363.578125 L 446.097656 363.742188 L 446.15625 363.914063 L 446.199219 364.097656 L 446.230469 364.285156 L 446.25 364.484375 L 446.257813 364.695313 L 446.253906 364.859375 L 446.242188 365.019531 L 446.21875 365.175781 L 446.191406 365.332031 L 446.152344 365.480469 L 446.105469 365.628906 L 446.050781 365.773438 L 445.988281 365.917969 L 445.917969 366.054688 L 445.835938 366.191406 L 445.75 366.324219 L 445.65625 366.449219 L 445.554688 366.570313 L 445.445313 366.683594 L 445.332031 366.789063 L 445.207031 366.894531 L 445.078125 366.988281 L 444.941406 367.078125 L 444.796875 367.164063 L 444.648438 367.242188 L 444.496094 367.3125 L 444.335938 367.378906 L 444.175781 367.433594 L 444.007813 367.484375 L 443.835938 367.527344 L 443.660156 367.558594 L 443.480469 367.585938 L 443.292969 367.605469 L 443.105469 367.617188 L 442.910156 367.621094 L 442.742188 367.617188 L 442.574219 367.605469 L 442.40625 367.589844 L 442.238281 367.570313 L 442.070313 367.539063 L 441.90625 367.503906 L 441.742188 367.460938 L 441.582031 367.414063 L 441.417969 367.359375 L 441.257813 367.296875 L 441.105469 367.230469 L 440.957031 367.15625 L 440.8125 367.078125 L 440.675781 366.992188 L 440.542969 366.898438 L 440.414063 366.800781 L 440.292969 366.695313 L 440.175781 366.585938 L 440.0625 366.46875 L 439.957031 366.347656 L 440.742188 365.703125 L 440.820313 365.792969 L 440.90625 365.878906 L 440.992188 365.960938 L 441.082031 366.039063 L 441.175781 366.113281 L 441.371094 366.246094 L 441.476563 366.308594 L 441.582031 366.363281 L 441.695313 366.417969 L 441.808594 366.460938 L 442.042969 366.539063 L 442.160156 366.570313 L 442.277344 366.59375 L 442.398438 366.617188 L 442.519531 366.632813 L 442.640625 366.644531 L 442.761719 366.652344 L 442.882813 366.652344 L 443.082031 366.648438 L 443.269531 366.632813 L 443.449219 366.609375 L 443.617188 366.570313 L 443.78125 366.523438 L 443.933594 366.46875 L 444.074219 366.398438 L 444.210938 366.324219 L 444.335938 366.234375 L 444.453125 366.136719 L 444.5625 366.027344 L 444.660156 365.90625 L 444.746094 365.78125 L 444.820313 365.648438 L 444.882813 365.507813 L 444.933594 365.363281 L 444.972656 365.207031 L 445.003906 365.042969 L 445.019531 364.871094 L 445.027344 364.695313 L 445.003906 364.34375 L 444.945313 364.035156 L 444.84375 363.757813 L 444.707031 363.519531 L 444.523438 363.320313 L 444.304688 363.152344 L 444.042969 363.023438 L 443.746094 362.933594 L 443.402344 362.878906 L 443.023438 362.859375 L 442.226563 362.859375 L 442.367188 361.921875 L 442.941406 361.921875 L 443.089844 361.917969 L 443.234375 361.90625 L 443.375 361.882813 L 443.507813 361.855469 L 443.640625 361.816406 L 443.765625 361.769531 L 443.886719 361.714844 L 444.007813 361.652344 L 444.117188 361.582031 L 444.226563 361.503906 L 444.328125 361.410156 L 444.417969 361.3125 L 444.5 361.207031 L 444.566406 361.09375 L 444.625 360.96875 L 444.675781 360.839844 L 444.710938 360.703125 L 444.738281 360.558594 L 444.753906 360.402344 L 444.757813 360.242188 L 444.753906 360.089844 L 444.738281 359.949219 L 444.714844 359.8125 L 444.675781 359.683594 L 444.628906 359.558594 L 444.574219 359.445313 L 444.507813 359.335938 L 444.429688 359.234375 L 444.339844 359.140625 L 444.242188 359.050781 L 444.136719 358.96875 L 444.027344 358.894531 L 443.914063 358.832031 L 443.792969 358.773438 L 443.664063 358.726563 L 443.53125 358.6875 L 443.390625 358.65625 L 443.246094 358.636719 L 443.097656 358.621094 L 442.941406 358.617188 L 442.820313 358.621094 L 442.703125 358.625 L 442.589844 358.636719 L 442.476563 358.652344 L 442.371094 358.671875 L 442.261719 358.695313 L 442.160156 358.722656 L 442.058594 358.753906 L 441.957031 358.789063 L 441.863281 358.828125 L 441.769531 358.871094 L 441.675781 358.921875 L 441.582031 358.976563 L 441.484375 359.035156 L 441.390625 359.101563 L 441.292969 359.171875 L 441.195313 359.246094 L 441.09375 359.324219 L 440.996094 359.410156 L 440.894531 359.5 L 440.25 358.785156 L 440.492188 358.574219 L 440.738281 358.382813 L 440.992188 358.214844 L 441.253906 358.070313 L 441.527344 357.945313 L 441.804688 357.84375 L 442.089844 357.765625 L 442.382813 357.710938 L 442.6875 357.675781 Z M 442.996094 357.667969 "/>
<path style=" stroke:none;fill-rule:nonzero;fill:rgb(30.196078%,30.196078%,30.196078%);fill-opacity:1;" d="M 558.140625 365.128906 L 556.894531 365.128906 L 556.894531 367.464844 L 555.757813 367.464844 L 555.757813 365.128906 L 551.753906 365.128906 L 551.753906 364.261719 L 554.582031 357.667969 L 555.5625 358.085938 L 553 364.175781 L 555.773438 364.175781 L 555.871094 361.445313 L 556.894531 361.445313 L 556.894531 364.175781 L 558.140625 364.175781 Z M 558.140625 365.128906 "/>
<path style=" stroke:none;fill-rule:nonzero;fill:rgb(30.196078%,30.196078%,30.196078%);fill-opacity:1;" d="M 668.914063 358.773438 L 665.105469 358.773438 L 665.105469 361.808594 L 665.269531 361.722656 L 665.347656 361.679688 L 665.429688 361.644531 L 665.507813 361.609375 L 665.589844 361.578125 L 665.667969 361.550781 L 665.746094 361.527344 L 665.824219 361.507813 L 665.90625 361.488281 L 665.984375 361.46875 L 666.070313 361.453125 L 666.152344 361.4375 L 666.234375 361.425781 L 666.320313 361.414063 L 666.492188 361.398438 L 666.582031 361.394531 L 666.667969 361.390625 L 666.757813 361.390625 L 666.996094 361.398438 L 667.21875 361.421875 L 667.4375 361.460938 L 667.644531 361.519531 L 667.839844 361.589844 L 668.027344 361.675781 L 668.203125 361.78125 L 668.371094 361.902344 L 668.527344 362.035156 L 668.675781 362.1875 L 668.816406 362.355469 L 668.9375 362.53125 L 669.046875 362.722656 L 669.140625 362.925781 L 669.222656 363.144531 L 669.289063 363.371094 L 669.339844 363.613281 L 669.375 363.867188 L 669.398438 364.132813 L 669.40625 364.414063 L 669.402344 364.601563 L 669.386719 364.785156 L 669.367188 364.964844 L 669.339844 365.140625 L 669.304688 365.308594 L 669.257813 365.476563 L 669.207031 365.636719 L 669.144531 365.792969 L 669.074219 365.945313 L 669 366.09375 L 668.917969 366.238281 L 668.828125 366.371094 L 668.730469 366.5 L 668.628906 366.625 L 668.519531 366.742188 L 668.402344 366.851563 L 668.277344 366.957031 L 668.148438 367.054688 L 668.007813 367.144531 L 667.863281 367.226563 L 667.714844 367.300781 L 667.558594 367.371094 L 667.398438 367.429688 L 667.234375 367.480469 L 667.0625 367.523438 L 666.886719 367.558594 L 666.710938 367.585938 L 666.523438 367.605469 L 666.335938 367.617188 L 666.140625 367.621094 L 665.824219 367.609375 L 665.515625 367.574219 L 665.214844 367.515625 L 664.921875 367.4375 L 664.636719 367.332031 L 664.363281 367.207031 L 664.09375 367.058594 L 663.835938 366.886719 L 663.585938 366.691406 L 663.34375 366.472656 L 664.070313 365.757813 L 664.25 365.929688 L 664.4375 366.082031 L 664.628906 366.214844 L 664.824219 366.332031 L 665.03125 366.429688 L 665.238281 366.511719 L 665.457031 366.574219 L 665.679688 366.617188 L 665.90625 366.644531 L 666.140625 366.652344 L 666.332031 366.648438 L 666.511719 366.628906 L 666.683594 366.601563 L 666.847656 366.558594 L 667 366.507813 L 667.144531 366.441406 L 667.28125 366.367188 L 667.410156 366.277344 L 667.53125 366.179688 L 667.640625 366.066406 L 667.742188 365.941406 L 667.832031 365.808594 L 667.910156 365.667969 L 667.980469 365.511719 L 668.039063 365.347656 L 668.085938 365.175781 L 668.125 364.988281 L 668.152344 364.792969 L 668.167969 364.589844 L 668.171875 364.371094 L 668.167969 364.160156 L 668.152344 363.960938 L 668.128906 363.773438 L 668.097656 363.597656 L 668.054688 363.433594 L 668 363.285156 L 667.9375 363.144531 L 667.867188 363.019531 L 667.785156 362.90625 L 667.695313 362.804688 L 667.597656 362.710938 L 667.492188 362.628906 L 667.382813 362.554688 L 667.265625 362.492188 L 667.140625 362.4375 L 667.007813 362.390625 L 666.871094 362.359375 L 666.730469 362.332031 L 666.578125 362.320313 L 666.421875 362.3125 L 666.347656 362.316406 L 666.273438 362.316406 L 666.132813 362.324219 L 666.0625 362.332031 L 665.996094 362.339844 L 665.925781 362.347656 L 665.738281 362.382813 L 665.671875 362.398438 L 665.605469 362.417969 L 665.535156 362.4375 L 665.457031 362.457031 L 665.378906 362.480469 L 665.296875 362.507813 L 665.210938 362.535156 L 665.117188 362.566406 L 665.023438 362.601563 L 664.925781 362.636719 L 663.972656 362.636719 L 663.972656 357.820313 L 669.082031 357.820313 Z M 668.914063 358.773438 "/>
<path style=" stroke:none;fill-rule:nonzero;fill:rgb(0%,0%,0%);fill-opacity:1;" d="M 685.011719 372.183594 L 685.25 372.234375 L 685.484375 372.292969 L 685.703125 372.355469 L 685.914063 372.421875 L 686.117188 372.492188 L 686.3125 372.570313 L 686.496094 372.648438 L 686.671875 372.734375 L 686.835938 372.824219 L 686.992188 372.921875 L 687.140625 373.019531 L 687.28125 373.128906 L 687.417969 373.246094 L 687.550781 373.371094 L 687.675781 373.503906 L 687.796875 373.644531 L 687.910156 373.792969 L 688.015625 373.953125 L 688.117188 374.117188 L 688.214844 374.289063 L 688.308594 374.46875 L 688.394531 374.664063 L 688.480469 374.871094 L 688.5625 375.089844 L 688.636719 375.320313 L 688.710938 375.5625 L 688.78125 375.8125 L 688.847656 376.078125 L 688.914063 376.355469 L 688.972656 376.644531 L 689.078125 377.171875 L 689.183594 377.675781 L 689.289063 378.160156 L 689.390625 378.621094 L 689.488281 379.0625 L 689.585938 379.480469 L 689.683594 379.878906 L 689.777344 380.257813 L 689.871094 380.613281 L 689.960938 380.949219 L 690.050781 381.261719 L 690.140625 381.5625 L 690.230469 381.847656 L 690.320313 382.125 L 690.40625 382.382813 L 690.496094 382.632813 L 690.582031 382.863281 L 690.671875 383.085938 L 690.757813 383.292969 L 690.84375 383.484375 L 691.023438 383.859375 L 691.117188 384.042969 L 691.21875 384.230469 L 691.320313 384.414063 L 691.425781 384.597656 L 691.535156 384.777344 L 691.648438 384.960938 L 691.765625 385.140625 L 691.886719 385.324219 L 690.375 385.898438 L 690.253906 385.699219 L 690.136719 385.503906 L 690.023438 385.308594 L 689.914063 385.113281 L 689.808594 384.917969 L 689.707031 384.722656 L 689.605469 384.53125 L 689.511719 384.335938 L 689.417969 384.144531 L 689.332031 383.953125 L 689.25 383.757813 L 689.167969 383.550781 L 689.085938 383.328125 L 689.003906 383.097656 L 688.921875 382.855469 L 688.839844 382.601563 L 688.761719 382.335938 L 688.679688 382.058594 L 688.601563 381.769531 L 688.523438 381.46875 L 688.441406 381.152344 L 688.363281 380.816406 L 688.285156 380.460938 L 688.203125 380.089844 L 688.125 379.699219 L 688.046875 379.289063 L 687.96875 378.863281 L 687.886719 378.417969 L 687.808594 377.953125 L 687.730469 377.472656 L 685.550781 385.898438 L 684.003906 385.519531 L 686.738281 376.214844 L 687.371094 376.214844 L 687.308594 375.957031 L 687.246094 375.710938 L 687.175781 375.480469 L 687.097656 375.265625 L 687.019531 375.0625 L 686.933594 374.875 L 686.84375 374.703125 L 686.746094 374.542969 L 686.648438 374.398438 L 686.542969 374.269531 L 686.425781 374.148438 L 686.300781 374.035156 L 686.15625 373.925781 L 686.003906 373.828125 L 685.835938 373.734375 L 685.652344 373.652344 L 685.460938 373.574219 L 685.25 373.503906 L 685.03125 373.441406 L 684.796875 373.386719 Z M 685.011719 372.183594 "/>
<path style=" stroke:none;fill-rule:nonzero;fill:rgb(0%,0%,0%);fill-opacity:1;" d="M 46.398438 60.710938 L 41.125 63.375 L 41.125 65.121094 L 46.398438 65.121094 L 46.398438 66.792969 L 34.015625 66.792969 L 34.015625 63.894531 L 34.050781 63.054688 L 34.15625 62.300781 L 34.328125 61.636719 L 34.574219 61.0625 L 34.890625 60.574219 L 35.273438 60.175781 L 35.726563 59.867188 L 36.25 59.644531 L 36.84375 59.511719 L 37.507813 59.46875 L 37.75 59.472656 L 37.980469 59.492188 L 38.207031 59.523438 L 38.425781 59.5625 L 38.636719 59.617188 L 38.839844 59.683594 L 39.035156 59.757813 L 39.222656 59.847656 L 39.40625 59.949219 L 39.578125 60.0625 L 39.742188 60.1875 L 39.898438 60.324219 L 40.042969 60.46875 L 40.183594 60.625 L 40.3125 60.796875 L 40.429688 60.976563 L 40.542969 61.167969 L 40.644531 61.371094 L 40.734375 61.582031 L 40.820313 61.808594 L 46.398438 58.855469 Z M 39.847656 63.769531 L 39.84375 63.519531 L 39.824219 63.277344 L 39.796875 63.054688 L 39.757813 62.839844 L 39.707031 62.640625 L 39.648438 62.453125 L 39.574219 62.28125 L 39.492188 62.125 L 39.394531 61.976563 L 39.289063 61.84375 L 39.167969 61.726563 L 39.035156 61.617188 L 38.886719 61.523438 L 38.726563 61.441406 L 38.554688 61.371094 L 38.371094 61.316406 L 38.175781 61.269531 L 37.964844 61.238281 L 37.742188 61.222656 L 37.507813 61.214844 L 37.285156 61.222656 L 37.078125 61.242188 L 36.878906 61.273438 L 36.695313 61.316406 L 36.523438 61.375 L 36.359375 61.449219 L 36.210938 61.53125 L 36.074219 61.628906 L 35.949219 61.738281 L 35.832031 61.863281 L 35.730469 61.996094 L 35.640625 62.148438 L 35.558594 62.3125 L 35.488281 62.496094 L 35.429688 62.695313 L 35.378906 62.910156 L 35.34375 63.140625 L 35.316406 63.390625 L 35.300781 63.652344 L 35.292969 63.933594 L 35.292969 65.121094 L 39.847656 65.121094 Z M 39.847656 63.769531 "/>
<path style=" stroke:none;fill-rule:nonzero;fill:rgb(0%,0%,0%);fill-opacity:1;" d="M 46.398438 46.707031 L 46.398438 48.308594 L 40.800781 48.6875 L 40.074219 48.734375 L 39.390625 48.777344 L 38.753906 48.816406 L 38.167969 48.851563 L 37.625 48.878906 L 37.128906 48.90625 L 36.679688 48.925781 L 36.28125 48.941406 L 35.925781 48.949219 L 35.617188 48.957031 L 44.996094 51.332031 L 44.996094 52.898438 L 35.617188 55.382813 L 36.328125 55.382813 L 36.746094 55.394531 L 37.203125 55.40625 L 37.707031 55.421875 L 38.25 55.445313 L 38.832031 55.472656 L 39.460938 55.503906 L 40.128906 55.539063 L 40.835938 55.582031 L 46.398438 55.941406 L 46.398438 57.523438 L 34.015625 56.570313 L 34.015625 54.390625 L 43.179688 52.089844 L 34.015625 49.875 L 34.015625 47.660156 Z M 46.398438 46.707031 "/>
<path style=" stroke:none;fill-rule:nonzero;fill:rgb(0%,0%,0%);fill-opacity:1;" d="M 33.78125 41.253906 L 33.785156 41.035156 L 33.796875 40.824219 L 33.8125 40.621094 L 33.839844 40.421875 L 33.871094 40.226563 L 33.910156 40.039063 L 33.957031 39.855469 L 34.011719 39.679688 L 34.074219 39.507813 L 34.140625 39.34375 L 34.21875 39.179688 L 34.300781 39.015625 L 34.390625 38.855469 L 34.488281 38.699219 L 34.589844 38.542969 L 34.703125 38.390625 L 34.820313 38.238281 L 34.949219 38.089844 L 35.082031 37.941406 L 35.222656 37.796875 L 36.175781 38.640625 L 36.070313 38.765625 L 35.972656 38.886719 L 35.878906 39.007813 L 35.789063 39.132813 L 35.707031 39.253906 L 35.632813 39.375 L 35.5625 39.5 L 35.496094 39.621094 L 35.4375 39.742188 L 35.382813 39.867188 L 35.332031 39.988281 L 35.285156 40.109375 L 35.246094 40.234375 L 35.210938 40.359375 L 35.179688 40.488281 L 35.15625 40.617188 L 35.136719 40.75 L 35.125 40.886719 L 35.117188 41.023438 L 35.113281 41.164063 L 35.117188 41.339844 L 35.132813 41.507813 L 35.160156 41.671875 L 35.195313 41.828125 L 35.238281 41.976563 L 35.296875 42.121094 L 35.359375 42.253906 L 35.4375 42.382813 L 35.523438 42.503906 L 35.617188 42.621094 L 35.71875 42.722656 L 35.824219 42.816406 L 35.9375 42.894531 L 36.058594 42.964844 L 36.183594 43.027344 L 36.316406 43.074219 L 36.457031 43.113281 L 36.601563 43.140625 L 36.753906 43.15625 L 36.914063 43.160156 L 37.019531 43.160156 L 37.125 43.152344 L 37.226563 43.140625 L 37.324219 43.125 L 37.417969 43.105469 L 37.511719 43.082031 L 37.597656 43.054688 L 37.6875 43.023438 L 37.851563 42.945313 L 37.925781 42.898438 L 38 42.847656 L 38.070313 42.789063 L 38.144531 42.722656 L 38.214844 42.652344 L 38.285156 42.574219 L 38.351563 42.492188 L 38.421875 42.402344 L 38.488281 42.308594 L 38.550781 42.207031 L 38.613281 42.097656 L 38.675781 41.980469 L 38.738281 41.855469 L 38.800781 41.71875 L 38.863281 41.578125 L 38.925781 41.425781 L 38.988281 41.265625 L 39.054688 41.09375 L 39.117188 40.917969 L 39.183594 40.730469 L 39.261719 40.515625 L 39.34375 40.308594 L 39.425781 40.105469 L 39.507813 39.914063 L 39.589844 39.730469 L 39.675781 39.554688 L 39.761719 39.386719 L 39.851563 39.226563 L 39.9375 39.074219 L 40.027344 38.929688 L 40.121094 38.792969 L 40.21875 38.664063 L 40.320313 38.539063 L 40.429688 38.421875 L 40.539063 38.308594 L 40.660156 38.203125 L 40.78125 38.105469 L 40.910156 38.015625 L 41.042969 37.929688 L 41.179688 37.851563 L 41.324219 37.777344 L 41.476563 37.714844 L 41.632813 37.65625 L 41.800781 37.609375 L 41.972656 37.566406 L 42.152344 37.53125 L 42.339844 37.507813 L 42.535156 37.488281 L 42.734375 37.476563 L 42.945313 37.472656 L 43.152344 37.476563 L 43.359375 37.492188 L 43.5625 37.515625 L 43.757813 37.550781 L 43.953125 37.59375 L 44.140625 37.648438 L 44.324219 37.710938 L 44.503906 37.785156 L 44.679688 37.867188 L 44.851563 37.957031 L 45.015625 38.058594 L 45.167969 38.171875 L 45.316406 38.289063 L 45.460938 38.417969 L 45.59375 38.550781 L 45.722656 38.695313 L 45.84375 38.851563 L 45.957031 39.011719 L 46.066406 39.183594 L 46.164063 39.363281 L 46.253906 39.546875 L 46.335938 39.734375 L 46.40625 39.929688 L 46.464844 40.132813 L 46.515625 40.34375 L 46.558594 40.558594 L 46.589844 40.78125 L 46.613281 41.011719 L 46.628906 41.246094 L 46.632813 41.488281 L 46.617188 41.929688 L 46.570313 42.359375 L 46.488281 42.777344 L 46.375 43.179688 L 46.230469 43.570313 L 46.050781 43.945313 L 45.839844 44.308594 L 45.597656 44.660156 L 45.320313 44.996094 L 45.015625 45.320313 L 44.058594 44.4375 L 44.175781 44.304688 L 44.285156 44.171875 L 44.390625 44.039063 L 44.492188 43.902344 L 44.585938 43.769531 L 44.675781 43.632813 L 44.757813 43.496094 L 44.835938 43.363281 L 44.910156 43.226563 L 44.976563 43.089844 L 45.035156 42.945313 L 45.089844 42.800781 L 45.132813 42.652344 L 45.171875 42.503906 L 45.207031 42.351563 L 45.234375 42.195313 L 45.257813 42.035156 L 45.273438 41.875 L 45.28125 41.707031 L 45.285156 41.539063 L 45.277344 41.332031 L 45.261719 41.132813 L 45.230469 40.941406 L 45.1875 40.761719 L 45.136719 40.585938 L 45.070313 40.421875 L 44.992188 40.265625 L 44.902344 40.117188 L 44.800781 39.980469 L 44.691406 39.847656 L 44.5625 39.726563 L 44.425781 39.613281 L 44.28125 39.519531 L 44.128906 39.433594 L 43.964844 39.363281 L 43.792969 39.304688 L 43.613281 39.257813 L 43.421875 39.226563 L 43.222656 39.207031 L 43.015625 39.199219 L 42.835938 39.207031 L 42.664063 39.222656 L 42.5 39.246094 L 42.34375 39.285156 L 42.191406 39.332031 L 42.050781 39.386719 L 41.914063 39.457031 L 41.789063 39.535156 L 41.667969 39.625 L 41.558594 39.722656 L 41.449219 39.832031 L 41.34375 39.957031 L 41.238281 40.101563 L 41.136719 40.265625 L 41.035156 40.441406 L 40.9375 40.636719 L 40.835938 40.851563 L 40.738281 41.082031 L 40.644531 41.328125 L 40.550781 41.59375 L 40.425781 41.933594 L 40.296875 42.253906 L 40.164063 42.554688 L 40.027344 42.835938 L 39.886719 43.097656 L 39.742188 43.339844 L 39.597656 43.5625 L 39.445313 43.765625 L 39.289063 43.949219 L 39.128906 44.113281 L 38.960938 44.257813 L 38.785156 44.386719 L 38.597656 44.5 L 38.402344 44.597656 L 38.195313 44.679688 L 37.980469 44.75 L 37.753906 44.800781 L 37.519531 44.839844 L 37.277344 44.863281 L 37.023438 44.871094 L 36.839844 44.867188 L 36.660156 44.851563 L 36.488281 44.828125 L 36.316406 44.796875 L 36.148438 44.757813 L 35.984375 44.707031 L 35.824219 44.648438 L 35.667969 44.582031 L 35.515625 44.507813 L 35.367188 44.421875 L 35.21875 44.324219 L 35.078125 44.21875 L 34.941406 44.105469 L 34.816406 43.988281 L 34.695313 43.863281 L 34.582031 43.730469 L 34.476563 43.589844 L 34.375 43.441406 L 34.28125 43.285156 L 34.195313 43.125 L 34.117188 42.957031 L 34.046875 42.785156 L 33.984375 42.609375 L 33.929688 42.425781 L 33.886719 42.242188 L 33.847656 42.054688 L 33.820313 41.859375 L 33.796875 41.660156 L 33.785156 41.460938 Z M 33.78125 41.253906 "/>
<path style=" stroke:none;fill-rule:nonzero;fill:rgb(0%,0%,0%);fill-opacity:1;" d="M 34.015625 29.101563 L 35.3125 29.300781 L 35.3125 33.585938 L 39.398438 33.585938 L 39.398438 29.859375 L 40.695313 29.859375 L 40.695313 33.585938 L 45.085938 33.585938 L 45.085938 29.046875 L 46.398438 29.046875 L 46.398438 35.257813 L 34.015625 35.257813 Z M 34.015625 29.101563 "/>
<path style="fill-rule:nonzero;fill:rgb(100%,100%,100%);fill-opacity:1;stroke-width:1.115477;stroke-linecap:round;stroke-linejoin:round;stroke:rgb(66.27451%,66.27451%,66.27451%);stroke-opacity:1;stroke-miterlimit:10;" d="M 586.316406 348.167969 L 674.886719 348.167969 L 674.886719 296.421875 L 586.316406 296.421875 Z M 586.316406 348.167969 "/>
<path style="fill:none;stroke-width:4.267913;stroke-linecap:butt;stroke-linejoin:round;stroke:rgb(74.901961%,22.352941%,51.764706%);stroke-opacity:1;stroke-miterlimit:10;" d="M 593.773438 316.519531 L 607.597656 316.519531 "/>
<path style="fill:none;stroke-width:3.200935;stroke-linecap:butt;stroke-linejoin:round;stroke:rgb(74.901961%,22.352941%,51.764706%);stroke-opacity:1;stroke-dasharray:12.80374,12.80374;stroke-miterlimit:10;" d="M 600.683594 325.160156 L 600.683594 307.878906 "/>
<path style="fill:none;stroke-width:4.267913;stroke-linecap:butt;stroke-linejoin:round;stroke:rgb(66.27451%,66.27451%,66.27451%);stroke-opacity:1;stroke-miterlimit:10;" d="M 593.773438 333.800781 L 607.597656 333.800781 "/>
<path style="fill:none;stroke-width:3.200935;stroke-linecap:butt;stroke-linejoin:round;stroke:rgb(66.27451%,66.27451%,66.27451%);stroke-opacity:1;stroke-dasharray:12.80374,12.80374;stroke-miterlimit:10;" d="M 600.683594 342.4375 L 600.683594 325.160156 "/>
<path style=" stroke:none;fill-rule:nonzero;fill:rgb(0%,0%,0%);fill-opacity:1;" d="M 619.746094 311.164063 L 619.90625 311.167969 L 620.0625 311.175781 L 620.214844 311.1875 L 620.363281 311.203125 L 620.503906 311.226563 L 620.644531 311.257813 L 620.777344 311.289063 L 620.910156 311.328125 L 621.035156 311.371094 L 621.15625 311.417969 L 621.277344 311.46875 L 621.398438 311.527344 L 621.515625 311.589844 L 621.636719 311.65625 L 621.753906 311.730469 L 621.871094 311.808594 L 621.988281 311.894531 L 622.109375 311.984375 L 622.226563 312.082031 L 622.34375 312.183594 L 621.621094 313.023438 L 621.535156 312.949219 L 621.363281 312.816406 L 621.273438 312.753906 L 621.101563 312.644531 L 621.011719 312.59375 L 620.839844 312.507813 L 620.753906 312.46875 L 620.667969 312.433594 L 620.582031 312.40625 L 620.492188 312.378906 L 620.402344 312.355469 L 620.214844 312.316406 L 620.121094 312.304688 L 620.023438 312.296875 L 619.921875 312.289063 L 619.824219 312.289063 L 619.59375 312.300781 L 619.375 312.328125 L 619.164063 312.378906 L 618.964844 312.449219 L 618.773438 312.539063 L 618.589844 312.652344 L 618.417969 312.78125 L 618.257813 312.933594 L 618.105469 313.101563 L 617.960938 313.292969 L 617.832031 313.503906 L 617.714844 313.738281 L 617.609375 314 L 617.519531 314.28125 L 617.445313 314.589844 L 617.382813 314.925781 L 617.335938 315.28125 L 617.300781 315.664063 L 617.28125 316.074219 L 617.273438 316.503906 L 617.28125 316.925781 L 617.300781 317.324219 L 617.335938 317.699219 L 617.382813 318.050781 L 617.445313 318.382813 L 617.519531 318.691406 L 617.609375 318.976563 L 617.714844 319.238281 L 617.832031 319.480469 L 617.960938 319.699219 L 618.105469 319.894531 L 618.257813 320.066406 L 618.417969 320.21875 L 618.589844 320.351563 L 618.773438 320.464844 L 618.964844 320.554688 L 619.164063 320.628906 L 619.375 320.679688 L 619.59375 320.707031 L 619.824219 320.71875 L 619.9375 320.71875 L 620.050781 320.710938 L 620.160156 320.699219 L 620.265625 320.683594 L 620.367188 320.667969 L 620.464844 320.644531 L 620.5625 320.617188 L 620.652344 320.585938 L 620.742188 320.550781 L 620.914063 320.464844 L 621 320.417969 L 621.085938 320.367188 L 621.265625 320.25 L 621.359375 320.1875 L 621.453125 320.121094 L 621.546875 320.046875 L 621.644531 319.972656 L 621.742188 319.894531 L 622.449219 320.71875 L 622.21875 320.9375 L 621.980469 321.136719 L 621.730469 321.308594 L 621.476563 321.457031 L 621.210938 321.585938 L 620.9375 321.6875 L 620.652344 321.769531 L 620.359375 321.828125 L 620.058594 321.863281 L 619.746094 321.875 L 619.519531 321.867188 L 619.296875 321.851563 L 619.078125 321.820313 L 618.863281 321.777344 L 618.65625 321.722656 L 618.453125 321.65625 L 618.253906 321.582031 L 618.0625 321.488281 L 617.875 321.386719 L 617.691406 321.273438 L 617.519531 321.148438 L 617.355469 321.011719 L 617.195313 320.859375 L 617.042969 320.699219 L 616.902344 320.523438 L 616.765625 320.339844 L 616.636719 320.140625 L 616.515625 319.929688 L 616.402344 319.707031 L 616.296875 319.472656 L 616.203125 319.226563 L 616.121094 318.964844 L 616.046875 318.695313 L 615.980469 318.414063 L 615.925781 318.125 L 615.882813 317.820313 L 615.847656 317.507813 L 615.824219 317.183594 L 615.808594 316.851563 L 615.800781 316.503906 L 615.808594 316.160156 L 615.824219 315.828125 L 615.847656 315.507813 L 615.882813 315.199219 L 615.929688 314.898438 L 615.984375 314.609375 L 616.050781 314.332031 L 616.128906 314.066406 L 616.214844 313.808594 L 616.3125 313.5625 L 616.421875 313.332031 L 616.535156 313.109375 L 616.660156 312.898438 L 616.789063 312.699219 L 616.925781 312.515625 L 617.070313 312.339844 L 617.222656 312.179688 L 617.382813 312.027344 L 617.550781 311.890625 L 617.722656 311.765625 L 617.90625 311.648438 L 618.089844 311.546875 L 618.28125 311.457031 L 618.480469 311.378906 L 618.679688 311.3125 L 618.882813 311.261719 L 619.09375 311.21875 L 619.304688 311.1875 L 619.523438 311.171875 Z M 619.746094 311.164063 "/>
<path style=" stroke:none;fill-rule:nonzero;fill:rgb(0%,0%,0%);fill-opacity:1;" d="M 630.1875 311.359375 L 627.335938 321.679688 L 625.671875 321.679688 L 622.777344 311.359375 L 624.21875 311.359375 L 626.527344 320.328125 L 628.808594 311.359375 Z M 630.1875 311.359375 "/>
<path style=" stroke:none;fill-rule:nonzero;fill:rgb(0%,0%,0%);fill-opacity:1;" d="M 631.132813 317.539063 L 631.132813 316.429688 L 635.015625 316.429688 L 635.015625 317.539063 Z M 631.132813 317.539063 "/>
<path style=" stroke:none;fill-rule:nonzero;fill:rgb(0%,0%,0%);fill-opacity:1;" d="M 642.1875 321.679688 L 639.96875 317.285156 L 638.511719 317.285156 L 638.511719 321.679688 L 637.117188 321.679688 L 637.117188 311.359375 L 639.53125 311.359375 L 640.234375 311.386719 L 640.859375 311.476563 L 641.414063 311.621094 L 641.894531 311.824219 L 642.300781 312.085938 L 642.632813 312.40625 L 642.890625 312.785156 L 643.074219 313.222656 L 643.1875 313.714844 L 643.222656 314.269531 L 643.21875 314.46875 L 643.203125 314.664063 L 643.179688 314.851563 L 643.144531 315.035156 L 643.097656 315.210938 L 643.042969 315.378906 L 642.980469 315.542969 L 642.90625 315.699219 L 642.820313 315.851563 L 642.726563 315.992188 L 642.625 316.132813 L 642.511719 316.261719 L 642.390625 316.382813 L 642.257813 316.5 L 642.117188 316.605469 L 641.964844 316.707031 L 641.808594 316.796875 L 641.636719 316.882813 L 641.460938 316.960938 L 641.273438 317.027344 L 643.734375 321.679688 Z M 639.636719 316.21875 L 639.847656 316.214844 L 640.046875 316.199219 L 640.234375 316.175781 L 640.414063 316.144531 L 640.578125 316.101563 L 640.734375 316.050781 L 640.878906 315.992188 L 641.011719 315.921875 L 641.132813 315.84375 L 641.242188 315.753906 L 641.34375 315.652344 L 641.429688 315.542969 L 641.511719 315.417969 L 641.578125 315.285156 L 641.636719 315.144531 L 641.683594 314.988281 L 641.71875 314.824219 L 641.746094 314.648438 L 641.761719 314.464844 L 641.765625 314.269531 L 641.761719 314.085938 L 641.746094 313.910156 L 641.71875 313.746094 L 641.679688 313.59375 L 641.632813 313.449219 L 641.574219 313.3125 L 641.503906 313.1875 L 641.421875 313.074219 L 641.332031 312.96875 L 641.226563 312.875 L 641.117188 312.789063 L 640.992188 312.710938 L 640.851563 312.644531 L 640.699219 312.585938 L 640.535156 312.535156 L 640.355469 312.496094 L 640.160156 312.464844 L 639.957031 312.441406 L 639.734375 312.429688 L 639.503906 312.425781 L 638.511719 312.425781 L 638.511719 316.21875 Z M 639.636719 316.21875 "/>
<path style=" stroke:none;fill-rule:nonzero;fill:rgb(0%,0%,0%);fill-opacity:1;" d="M 653.859375 321.679688 L 652.523438 321.679688 L 652.207031 317.015625 L 652.167969 316.40625 L 652.132813 315.839844 L 652.097656 315.308594 L 652.070313 314.816406 L 652.046875 314.367188 L 652.027344 313.953125 L 652.007813 313.582031 L 651.996094 313.246094 L 651.988281 312.949219 L 651.984375 312.695313 L 650.003906 320.507813 L 648.699219 320.507813 L 646.628906 312.695313 L 646.628906 312.972656 L 646.625 313.285156 L 646.617188 313.632813 L 646.609375 314.015625 L 646.59375 314.433594 L 646.574219 314.886719 L 646.554688 315.375 L 646.527344 315.894531 L 646.496094 316.453125 L 646.460938 317.042969 L 646.164063 321.679688 L 644.84375 321.679688 L 645.636719 311.359375 L 647.453125 311.359375 L 649.371094 318.992188 L 651.21875 311.359375 L 653.0625 311.359375 Z M 653.859375 321.679688 "/>
<path style=" stroke:none;fill-rule:nonzero;fill:rgb(0%,0%,0%);fill-opacity:1;" d="M 658.402344 311.164063 L 658.582031 311.167969 L 658.757813 311.175781 L 658.929688 311.191406 L 659.097656 311.210938 L 659.257813 311.238281 L 659.414063 311.273438 L 659.566406 311.3125 L 659.714844 311.355469 L 659.855469 311.40625 L 659.992188 311.464844 L 660.128906 311.527344 L 660.265625 311.597656 L 660.398438 311.671875 L 660.53125 311.753906 L 660.660156 311.839844 L 660.789063 311.933594 L 660.914063 312.03125 L 661.039063 312.136719 L 661.160156 312.246094 L 661.28125 312.363281 L 660.578125 313.160156 L 660.476563 313.070313 L 660.375 312.988281 L 660.273438 312.910156 L 660.167969 312.835938 L 660.066406 312.769531 L 659.964844 312.707031 L 659.863281 312.648438 L 659.761719 312.59375 L 659.660156 312.542969 L 659.457031 312.457031 L 659.355469 312.417969 L 659.253906 312.382813 L 659.148438 312.355469 L 658.929688 312.308594 L 658.820313 312.292969 L 658.707031 312.28125 L 658.59375 312.277344 L 658.476563 312.273438 L 658.332031 312.277344 L 658.1875 312.289063 L 658.054688 312.3125 L 657.921875 312.339844 L 657.796875 312.378906 L 657.679688 312.425781 L 657.566406 312.480469 L 657.460938 312.542969 L 657.359375 312.613281 L 657.261719 312.695313 L 657.175781 312.777344 L 657.101563 312.867188 L 657.03125 312.960938 L 656.972656 313.0625 L 656.925781 313.167969 L 656.882813 313.277344 L 656.851563 313.394531 L 656.832031 313.515625 L 656.816406 313.640625 L 656.8125 313.773438 L 656.8125 313.863281 L 656.828125 314.035156 L 656.839844 314.113281 L 656.859375 314.195313 L 656.878906 314.269531 L 656.902344 314.34375 L 656.929688 314.417969 L 656.957031 314.488281 L 656.992188 314.554688 L 657.03125 314.617188 L 657.074219 314.679688 L 657.125 314.738281 L 657.175781 314.800781 L 657.234375 314.859375 L 657.300781 314.914063 L 657.371094 314.972656 L 657.445313 315.03125 L 657.523438 315.085938 L 657.609375 315.140625 L 657.699219 315.191406 L 657.796875 315.242188 L 657.902344 315.292969 L 658.011719 315.34375 L 658.132813 315.398438 L 658.257813 315.449219 L 658.394531 315.503906 L 658.535156 315.558594 L 658.683594 315.609375 L 658.835938 315.664063 L 659.015625 315.730469 L 659.191406 315.796875 L 659.355469 315.867188 L 659.515625 315.933594 L 659.671875 316.003906 L 659.816406 316.078125 L 659.957031 316.148438 L 660.089844 316.222656 L 660.21875 316.292969 L 660.335938 316.367188 L 660.453125 316.445313 L 660.5625 316.527344 L 660.664063 316.613281 L 660.761719 316.703125 L 660.855469 316.796875 L 660.941406 316.894531 L 661.023438 316.996094 L 661.101563 317.105469 L 661.171875 317.214844 L 661.238281 317.328125 L 661.296875 317.449219 L 661.351563 317.574219 L 661.398438 317.707031 L 661.4375 317.84375 L 661.472656 317.988281 L 661.503906 318.140625 L 661.523438 318.296875 L 661.539063 318.457031 L 661.550781 318.625 L 661.550781 318.800781 L 661.546875 318.972656 L 661.535156 319.144531 L 661.515625 319.3125 L 661.488281 319.476563 L 661.453125 319.640625 L 661.40625 319.796875 L 661.355469 319.949219 L 661.292969 320.101563 L 661.222656 320.246094 L 661.148438 320.390625 L 661.0625 320.523438 L 660.972656 320.652344 L 660.871094 320.777344 L 660.765625 320.894531 L 660.652344 321.007813 L 660.53125 321.113281 L 660.402344 321.214844 L 660.269531 321.3125 L 660.128906 321.398438 L 659.976563 321.484375 L 659.824219 321.558594 L 659.667969 321.625 L 659.503906 321.683594 L 659.335938 321.734375 L 659.160156 321.777344 L 658.980469 321.8125 L 658.796875 321.839844 L 658.605469 321.859375 L 658.410156 321.871094 L 658.207031 321.875 L 657.839844 321.859375 L 657.480469 321.820313 L 657.132813 321.753906 L 656.796875 321.65625 L 656.472656 321.535156 L 656.15625 321.386719 L 655.855469 321.210938 L 655.5625 321.011719 L 655.28125 320.78125 L 655.011719 320.523438 L 655.746094 319.730469 L 655.859375 319.824219 L 655.96875 319.917969 L 656.082031 320.007813 L 656.195313 320.089844 L 656.304688 320.167969 L 656.417969 320.242188 L 656.53125 320.3125 L 656.644531 320.378906 L 656.757813 320.4375 L 656.871094 320.492188 L 656.992188 320.542969 L 657.113281 320.585938 L 657.234375 320.625 L 657.359375 320.65625 L 657.488281 320.683594 L 657.617188 320.707031 L 657.75 320.726563 L 657.886719 320.738281 L 658.023438 320.746094 L 658.164063 320.75 L 658.335938 320.746094 L 658.503906 320.730469 L 658.660156 320.703125 L 658.8125 320.671875 L 658.957031 320.625 L 659.09375 320.570313 L 659.226563 320.507813 L 659.347656 320.433594 L 659.464844 320.347656 L 659.574219 320.253906 L 659.675781 320.148438 L 659.765625 320.035156 L 659.847656 319.914063 L 659.917969 319.785156 L 659.976563 319.648438 L 660.027344 319.507813 L 660.0625 319.355469 L 660.089844 319.199219 L 660.105469 319.03125 L 660.113281 318.859375 L 660.109375 318.710938 L 660.09375 318.566406 L 660.074219 318.429688 L 660.042969 318.296875 L 660.003906 318.171875 L 659.957031 318.054688 L 659.898438 317.941406 L 659.835938 317.835938 L 659.761719 317.738281 L 659.675781 317.644531 L 659.585938 317.554688 L 659.480469 317.464844 L 659.359375 317.378906 L 659.226563 317.292969 L 659.078125 317.210938 L 658.914063 317.125 L 658.738281 317.042969 L 658.542969 316.960938 L 658.339844 316.882813 L 658.117188 316.804688 L 657.835938 316.699219 L 657.566406 316.59375 L 657.316406 316.484375 L 657.082031 316.371094 L 656.863281 316.253906 L 656.664063 316.132813 L 656.476563 316.007813 L 656.308594 315.882813 L 656.15625 315.753906 L 656.015625 315.617188 L 655.898438 315.480469 L 655.789063 315.332031 L 655.695313 315.175781 L 655.613281 315.015625 L 655.546875 314.84375 L 655.488281 314.664063 L 655.445313 314.476563 L 655.414063 314.28125 L 655.394531 314.074219 L 655.386719 313.863281 L 655.390625 313.710938 L 655.402344 313.5625 L 655.421875 313.417969 L 655.449219 313.277344 L 655.480469 313.136719 L 655.523438 313 L 655.570313 312.867188 L 655.628906 312.734375 L 655.691406 312.609375 L 655.761719 312.484375 L 655.84375 312.359375 L 655.929688 312.242188 L 656.023438 312.132813 L 656.121094 312.027344 L 656.226563 311.925781 L 656.339844 311.832031 L 656.457031 311.742188 L 656.578125 311.660156 L 656.707031 311.582031 L 656.84375 311.507813 L 656.980469 311.445313 L 657.125 311.386719 L 657.273438 311.332031 L 657.421875 311.289063 L 657.578125 311.25 L 657.734375 311.21875 L 657.898438 311.195313 L 658.0625 311.179688 L 658.230469 311.167969 Z M 658.402344 311.164063 "/>
<path style=" stroke:none;fill-rule:nonzero;fill:rgb(0%,0%,0%);fill-opacity:1;" d="M 668.527344 311.359375 L 668.363281 312.4375 L 664.792969 312.4375 L 664.792969 315.84375 L 667.898438 315.84375 L 667.898438 316.925781 L 664.792969 316.925781 L 664.792969 320.585938 L 668.574219 320.585938 L 668.574219 321.679688 L 663.398438 321.679688 L 663.398438 311.359375 Z M 668.527344 311.359375 "/>
<path style=" stroke:none;fill-rule:nonzero;fill:rgb(0%,0%,0%);fill-opacity:1;" d="M 624.890625 338.960938 L 623.558594 338.960938 L 623.242188 334.292969 L 623.203125 333.6875 L 623.167969 333.117188 L 623.132813 332.589844 L 623.105469 332.097656 L 623.082031 331.648438 L 623.0625 331.234375 L 623.042969 330.859375 L 623.03125 330.527344 L 623.023438 330.230469 L 623.015625 329.972656 L 621.039063 337.789063 L 619.734375 337.789063 L 617.664063 329.972656 L 617.664063 330.253906 L 617.660156 330.566406 L 617.652344 330.914063 L 617.644531 331.296875 L 617.628906 331.714844 L 617.609375 332.167969 L 617.589844 332.652344 L 617.5625 333.175781 L 617.53125 333.734375 L 617.496094 334.324219 L 617.199219 338.960938 L 615.878906 338.960938 L 616.671875 328.640625 L 618.488281 328.640625 L 620.40625 336.273438 L 622.253906 328.640625 L 624.097656 328.640625 Z M 624.890625 338.960938 "/>
<path style=" stroke:none;fill-rule:nonzero;fill:rgb(0%,0%,0%);fill-opacity:1;" d="M 628.28125 331.070313 L 628.28125 338.960938 L 626.933594 338.960938 L 626.933594 331.070313 Z M 627.609375 327.347656 L 627.683594 327.351563 L 627.757813 327.359375 L 627.828125 327.371094 L 627.894531 327.390625 L 627.960938 327.414063 L 628.023438 327.441406 L 628.078125 327.472656 L 628.136719 327.511719 L 628.1875 327.554688 L 628.238281 327.605469 L 628.285156 327.65625 L 628.328125 327.710938 L 628.367188 327.769531 L 628.402344 327.828125 L 628.429688 327.890625 L 628.453125 327.953125 L 628.46875 328.019531 L 628.480469 328.089844 L 628.488281 328.160156 L 628.492188 328.234375 L 628.488281 328.308594 L 628.484375 328.378906 L 628.472656 328.449219 L 628.453125 328.515625 L 628.433594 328.578125 L 628.40625 328.640625 L 628.375 328.699219 L 628.339844 328.757813 L 628.296875 328.8125 L 628.253906 328.863281 L 628.203125 328.910156 L 628.09375 328.988281 L 628.035156 329.019531 L 627.972656 329.042969 L 627.90625 329.066406 L 627.835938 329.082031 L 627.761719 329.09375 L 627.6875 329.101563 L 627.609375 329.105469 L 627.53125 329.101563 L 627.457031 329.09375 L 627.386719 329.082031 L 627.316406 329.066406 L 627.25 329.042969 L 627.1875 329.019531 L 627.128906 328.988281 L 627.070313 328.949219 L 627.015625 328.910156 L 626.960938 328.863281 L 626.917969 328.8125 L 626.875 328.757813 L 626.839844 328.699219 L 626.808594 328.640625 L 626.78125 328.578125 L 626.761719 328.515625 L 626.746094 328.449219 L 626.730469 328.378906 L 626.726563 328.308594 L 626.722656 328.234375 L 626.726563 328.160156 L 626.730469 328.089844 L 626.746094 328.019531 L 626.761719 327.953125 L 626.78125 327.890625 L 626.808594 327.828125 L 626.839844 327.769531 L 626.875 327.710938 L 626.917969 327.65625 L 626.960938 327.605469 L 627.015625 327.554688 L 627.070313 327.511719 L 627.128906 327.472656 L 627.1875 327.441406 L 627.25 327.414063 L 627.316406 327.390625 L 627.386719 327.371094 L 627.457031 327.359375 L 627.53125 327.351563 Z M 627.609375 327.347656 "/>
<path style=" stroke:none;fill-rule:nonzero;fill:rgb(0%,0%,0%);fill-opacity:1;" d="M 634.238281 330.875 L 634.421875 330.878906 L 634.597656 330.898438 L 634.765625 330.929688 L 634.925781 330.976563 L 635.078125 331.03125 L 635.21875 331.101563 L 635.355469 331.183594 L 635.480469 331.277344 L 635.597656 331.382813 L 635.707031 331.503906 L 635.808594 331.632813 L 635.902344 331.769531 L 635.984375 331.917969 L 636.054688 332.074219 L 636.113281 332.238281 L 636.160156 332.414063 L 636.199219 332.601563 L 636.226563 332.796875 L 636.242188 333 L 636.246094 333.214844 L 636.246094 338.960938 L 634.898438 338.960938 L 634.898438 333.378906 L 634.894531 333.230469 L 634.886719 333.089844 L 634.875 332.960938 L 634.855469 332.835938 L 634.832031 332.722656 L 634.804688 332.617188 L 634.773438 332.519531 L 634.734375 332.433594 L 634.691406 332.355469 L 634.640625 332.285156 L 634.589844 332.21875 L 634.53125 332.160156 L 634.464844 332.109375 L 634.394531 332.0625 L 634.320313 332.023438 L 634.238281 331.996094 L 634.152344 331.96875 L 634.0625 331.953125 L 633.964844 331.941406 L 633.863281 331.9375 L 633.667969 331.953125 L 633.472656 331.996094 L 633.285156 332.066406 L 633.097656 332.164063 L 632.917969 332.292969 L 632.738281 332.445313 L 632.566406 332.628906 L 632.394531 332.839844 L 632.226563 333.082031 L 632.0625 333.347656 L 632.0625 338.960938 L 630.710938 338.960938 L 630.710938 331.070313 L 631.882813 331.070313 L 631.988281 332.238281 L 632.175781 331.980469 L 632.371094 331.746094 L 632.574219 331.542969 L 632.785156 331.367188 L 633.007813 331.214844 L 633.238281 331.09375 L 633.472656 330.996094 L 633.71875 330.929688 L 633.976563 330.886719 Z M 634.238281 330.875 "/>
<path style=" stroke:none;fill-rule:nonzero;fill:rgb(0%,0%,0%);fill-opacity:1;" d="M 642.066406 327.710938 L 642.269531 327.753906 L 642.460938 327.800781 L 642.644531 327.851563 L 642.820313 327.910156 L 642.988281 327.96875 L 643.152344 328.03125 L 643.304688 328.097656 L 643.449219 328.171875 L 643.585938 328.246094 L 643.71875 328.324219 L 643.839844 328.410156 L 643.960938 328.5 L 644.074219 328.597656 L 644.183594 328.699219 L 644.289063 328.8125 L 644.386719 328.929688 L 644.480469 329.054688 L 644.570313 329.183594 L 644.65625 329.320313 L 644.738281 329.464844 L 644.8125 329.617188 L 644.886719 329.777344 L 644.957031 329.949219 L 645.027344 330.132813 L 645.089844 330.324219 L 645.152344 330.523438 L 645.210938 330.734375 L 645.265625 330.957031 L 645.316406 331.1875 L 645.367188 331.429688 L 645.457031 331.867188 L 645.542969 332.289063 L 645.628906 332.691406 L 645.714844 333.074219 L 645.796875 333.441406 L 645.878906 333.792969 L 645.960938 334.125 L 646.039063 334.4375 L 646.117188 334.734375 L 646.191406 335.015625 L 646.265625 335.277344 L 646.34375 335.527344 L 646.417969 335.765625 L 646.488281 335.992188 L 646.5625 336.210938 L 646.636719 336.417969 L 646.710938 336.609375 L 646.78125 336.796875 L 646.855469 336.96875 L 646.925781 337.128906 L 647 337.285156 L 647.078125 337.441406 L 647.15625 337.59375 L 647.238281 337.75 L 647.324219 337.902344 L 647.503906 338.207031 L 647.597656 338.359375 L 647.695313 338.507813 L 647.796875 338.660156 L 646.539063 339.140625 L 646.4375 338.972656 L 646.339844 338.808594 L 646.246094 338.648438 L 646.152344 338.484375 L 646.066406 338.320313 L 645.980469 338.160156 L 645.816406 337.839844 L 645.667969 337.519531 L 645.597656 337.355469 L 645.53125 337.183594 L 645.460938 337 L 645.394531 336.804688 L 645.328125 336.605469 L 645.257813 336.390625 L 645.191406 336.171875 L 645.125 335.941406 L 645.058594 335.699219 L 644.992188 335.449219 L 644.925781 335.183594 L 644.859375 334.902344 L 644.792969 334.609375 L 644.730469 334.296875 L 644.664063 333.972656 L 644.597656 333.632813 L 644.53125 333.277344 L 644.464844 332.90625 L 644.398438 332.519531 L 644.332031 332.117188 L 642.515625 339.140625 L 641.226563 338.824219 L 643.507813 331.070313 L 644.03125 331.070313 L 643.984375 330.851563 L 643.929688 330.648438 L 643.871094 330.457031 L 643.808594 330.277344 L 643.738281 330.109375 L 643.667969 329.953125 L 643.59375 329.808594 L 643.515625 329.675781 L 643.429688 329.558594 L 643.34375 329.449219 L 643.246094 329.347656 L 643.140625 329.25 L 643.023438 329.164063 L 642.894531 329.078125 L 642.753906 329.003906 L 642.601563 328.933594 L 642.441406 328.867188 L 642.265625 328.8125 L 642.082031 328.757813 L 641.886719 328.714844 Z M 642.066406 327.710938 "/>
</g>
</svg>
