<?xml version="1.0" encoding="UTF-8"?>
<svg xmlns="http://www.w3.org/2000/svg" xmlns:xlink="http://www.w3.org/1999/xlink" width="720pt" height="432pt" viewBox="0 0 720 432" version="1.1">
<defs>
<clipPath id="clip1">
  <path d="M 136 28.347656 L 141 28.347656 L 141 354.957031 L 136 354.957031 Z M 136 28.347656 "/>
</clipPath>
</defs>
<g id="surface74">
<rect x="0" y="0" width="720" height="432" style="fill:rgb(100%,100%,100%);fill-opacity:1;stroke:none;"/>
<path style="fill:none;stroke-width:4.267913;stroke-linecap:butt;stroke-linejoin:round;stroke:rgb(74.901961%,22.352941%,51.764706%);stroke-opacity:1;stroke-miterlimit:10;" d="M 108.878906 340.109375 L 138.496094 340.109375 L 142.933594 339.308594 L 148.035156 337.496094 L 153.898438 335.183594 L 160.640625 332.261719 L 168.390625 328.589844 L 177.304688 324.007813 L 187.550781 318.335938 L 199.332031 311.378906 L 212.878906 302.917969 L 228.453125 292.757813 L 246.363281 280.667969 L 266.949219 266.496094 L 290.625 250.054688 L 317.839844 231.316406 L 349.132813 210.179688 L 385.113281 186.800781 L 426.484375 161.214844 L 474.046875 133.78125 L 528.734375 104.660156 L 591.609375 74.390625 L 663.902344 43.191406 "/>
<g clip-path="url(#clip1)" clip-rule="nonzero">
<path style="fill:none;stroke-width:3.200935;stroke-linecap:butt;stroke-linejoin:round;stroke:rgb(66.27451%,66.27451%,66.27451%);stroke-opacity:1;stroke-dasharray:12.80374,12.80374;stroke-miterlimit:10;" d="M 138.496094 354.957031 L 138.496094 28.347656 "/>
</g>
<path style="fill:none;stroke-width:1.115477;stroke-linecap:butt;stroke-linejoin:round;stroke:rgb(66.27451%,66.27451%,66.27451%);stroke-opacity:1;stroke-miterlimit:10;" d="M 81.125 354.957031 L 81.125 28.347656 "/>
</g>
</svg>
