<?xml version="1.0" encoding="UTF-8"?>
<svg xmlns="http://www.w3.org/2000/svg" xmlns:xlink="http://www.w3.org/1999/xlink" width="540pt" height="396pt" viewBox="0 0 540 396" version="1.1">
<g id="surface94">
<rect x="0" y="0" width="540" height="396" style="fill:rgb(100%,100%,100%);fill-opacity:1;stroke:none;"/>
<path style="fill-rule:nonzero;fill:rgb(98.823529%,80.784314%,14.509804%);fill-opacity:1;stroke-width:3.200935;stroke-linecap:round;stroke-linejoin:round;stroke:rgb(100%,100%,100%);stroke-opacity:1;stroke-miterlimit:10;" d="M 244.085938 189.480469 L 244.085938 60.574219 L 239.710938 60.648438 L 235.34375 60.871094 L 230.984375 61.242188 L 226.640625 61.757813 L 222.316406 62.425781 L 218.019531 63.238281 L 213.75 64.195313 L 209.515625 65.296875 L 205.324219 66.539063 L 201.171875 67.925781 L 197.074219 69.453125 L 193.027344 71.117188 L 189.042969 72.917969 L 185.117188 74.851563 L 181.261719 76.917969 L 177.480469 79.113281 L 173.773438 81.4375 L 170.148438 83.886719 L 166.605469 86.457031 L 163.15625 89.144531 L 159.796875 91.949219 L 156.539063 94.863281 L 153.378906 97.890625 L 150.320313 101.019531 L 147.375 104.25 L 144.539063 107.582031 L 141.816406 111.007813 L 139.210938 114.523438 L 136.730469 118.125 L 134.371094 121.808594 L 132.136719 125.570313 L 130.035156 129.40625 L 128.058594 133.308594 L 126.222656 137.277344 L 124.519531 141.308594 L 122.953125 145.390625 L 121.527344 149.527344 L 120.242188 153.710938 L 119.097656 157.933594 L 118.101563 162.191406 L 117.246094 166.480469 L 116.539063 170.796875 L 115.980469 175.136719 L 115.566406 179.492188 L 115.300781 183.859375 L 115.183594 188.230469 L 115.214844 192.605469 L 115.394531 196.976563 L 115.726563 201.339844 L 116.199219 205.6875 L 116.824219 210.015625 L 117.59375 214.324219 L 118.511719 218.601563 L 119.570313 222.84375 L 120.773438 227.050781 L 122.121094 231.214844 L 123.605469 235.328125 L 125.230469 239.390625 L 126.992188 243.394531 L 128.890625 247.335938 L 130.917969 251.210938 L 133.078125 255.015625 L 135.367188 258.742188 L 137.777344 262.390625 L 140.3125 265.957031 L 142.96875 269.433594 L 145.738281 272.820313 L 148.625 276.109375 L 151.617188 279.296875 L 154.71875 282.382813 L 157.921875 285.363281 L 161.226563 288.230469 L 164.625 290.984375 L 168.113281 293.621094 L 171.691406 296.140625 L 175.351563 298.535156 L 179.089844 300.804688 L 182.90625 302.945313 L 186.792969 304.957031 L 190.742188 306.835938 L 194.753906 308.578125 L 198.824219 310.183594 L 202.945313 311.648438 L 207.113281 312.972656 L 211.328125 314.15625 L 215.574219 315.195313 L 219.855469 316.089844 L 224.167969 316.839844 L 228.5 317.445313 L 232.851563 317.898438 L 237.214844 318.207031 L 241.585938 318.363281 L 245.960938 318.375 L 250.332031 318.238281 L 254.699219 317.953125 L 259.050781 317.515625 L 263.386719 316.9375 L 267.699219 316.207031 L 271.988281 315.332031 L 276.242188 314.3125 L 280.457031 313.152344 L 284.632813 311.847656 L 288.761719 310.398438 L 292.839844 308.8125 L 296.859375 307.089844 L 300.820313 305.234375 L 304.714844 303.242188 L 308.539063 301.117188 L 306.316406 297.269531 L 304.09375 293.417969 L 301.871094 289.570313 L 299.648438 285.71875 L 297.425781 281.871094 L 295.203125 278.019531 L 292.980469 274.171875 L 290.757813 270.320313 L 288.535156 266.472656 L 286.3125 262.621094 L 284.09375 258.773438 L 281.871094 254.925781 L 279.648438 251.074219 L 277.425781 247.226563 L 275.203125 243.375 L 272.980469 239.527344 L 270.757813 235.675781 L 268.535156 231.828125 L 266.3125 227.976563 L 264.089844 224.128906 L 261.867188 220.277344 L 259.644531 216.429688 L 257.421875 212.578125 L 255.199219 208.730469 L 252.976563 204.878906 L 250.753906 201.03125 L 248.53125 197.179688 L 246.308594 193.332031 Z M 244.085938 189.480469 "/>
<path style="fill-rule:nonzero;fill:rgb(97.254902%,58.039216%,25.490196%);fill-opacity:1;stroke-width:3.200935;stroke-linecap:round;stroke-linejoin:round;stroke:rgb(100%,100%,100%);stroke-opacity:1;stroke-miterlimit:10;" d="M 244.085938 189.480469 L 246.308594 193.332031 L 248.53125 197.179688 L 250.753906 201.03125 L 252.976563 204.878906 L 255.199219 208.730469 L 257.421875 212.578125 L 259.644531 216.429688 L 261.867188 220.277344 L 264.089844 224.128906 L 266.3125 227.976563 L 268.535156 231.828125 L 270.757813 235.675781 L 272.980469 239.527344 L 275.203125 243.375 L 277.425781 247.226563 L 279.648438 251.074219 L 281.871094 254.925781 L 284.09375 258.773438 L 286.3125 262.621094 L 288.535156 266.472656 L 290.757813 270.320313 L 292.980469 274.171875 L 295.203125 278.019531 L 297.425781 281.871094 L 299.648438 285.71875 L 301.871094 289.570313 L 304.09375 293.417969 L 306.316406 297.269531 L 308.539063 301.117188 L 312.296875 298.863281 L 315.976563 296.480469 L 319.570313 293.976563 L 323.082031 291.347656 L 326.496094 288.605469 L 329.820313 285.746094 L 333.042969 282.777344 L 336.164063 279.699219 L 339.175781 276.515625 L 342.078125 273.234375 L 344.871094 269.855469 L 347.542969 266.382813 L 350.097656 262.820313 L 352.53125 259.175781 L 354.835938 255.449219 L 357.015625 251.644531 L 359.0625 247.769531 L 360.976563 243.828125 L 362.757813 239.824219 L 364.398438 235.757813 L 365.902344 231.644531 L 367.265625 227.476563 L 368.488281 223.269531 L 369.5625 219.019531 L 370.496094 214.738281 L 371.28125 210.425781 L 371.917969 206.089844 L 372.410156 201.734375 L 372.753906 197.367188 L 372.945313 192.988281 L 372.992188 188.605469 L 372.886719 184.222656 L 372.632813 179.847656 L 372.230469 175.484375 L 371.683594 171.136719 L 370.984375 166.808594 L 370.140625 162.507813 L 369.152344 158.238281 L 368.015625 154.003906 L 366.738281 149.8125 L 365.320313 145.667969 L 363.761719 141.570313 L 362.0625 137.53125 L 360.226563 133.550781 L 358.257813 129.632813 L 356.160156 125.789063 L 353.929688 122.015625 L 351.574219 118.320313 L 349.089844 114.707031 L 346.488281 111.179688 L 343.769531 107.746094 L 340.933594 104.402344 L 337.984375 101.160156 L 334.925781 98.019531 L 331.765625 94.984375 L 328.503906 92.058594 L 325.140625 89.246094 L 321.6875 86.546875 L 318.144531 83.96875 L 314.515625 81.511719 L 310.804688 79.183594 L 307.015625 76.976563 L 303.15625 74.902344 L 299.226563 72.960938 L 295.234375 71.15625 L 291.179688 69.484375 L 287.074219 67.953125 L 282.917969 66.5625 L 278.71875 65.3125 L 274.476563 64.207031 L 270.199219 63.246094 L 265.894531 62.433594 L 261.5625 61.765625 L 257.210938 61.242188 L 252.84375 60.871094 L 248.46875 60.648438 L 244.085938 60.574219 Z M 244.085938 189.480469 "/>
<path style="fill-rule:nonzero;fill:rgb(100%,100%,100%);fill-opacity:1;stroke-width:1.115477;stroke-linecap:round;stroke-linejoin:round;stroke:rgb(100%,100%,100%);stroke-opacity:1;stroke-miterlimit:10;" d="M 416.679688 220.871094 L 465.585938 220.871094 L 465.585938 158.089844 L 416.679688 158.089844 Z M 416.679688 220.871094 "/>
<path style="fill-rule:nonzero;fill:rgb(98.823529%,80.784314%,14.509804%);fill-opacity:1;stroke-width:3.200935;stroke-linecap:square;stroke-linejoin:miter;stroke:rgb(100%,100%,100%);stroke-opacity:1;stroke-miterlimit:10;" d="M 424.53125 195.738281 L 437.558594 195.738281 L 437.558594 182.710938 L 424.53125 182.710938 Z M 424.53125 195.738281 "/>
<path style="fill-rule:nonzero;fill:rgb(97.254902%,58.039216%,25.490196%);fill-opacity:1;stroke-width:3.200935;stroke-linecap:square;stroke-linejoin:miter;stroke:rgb(100%,100%,100%);stroke-opacity:1;stroke-miterlimit:10;" d="M 424.53125 213.019531 L 437.558594 213.019531 L 437.558594 199.992188 L 424.53125 199.992188 Z M 424.53125 213.019531 "/>
<path style=" stroke:none;fill-rule:evenodd;fill:rgb(0%,0%,0%);fill-opacity:1;" d="M 450.882813 192.664063 L 449.683594 192.664063 L 447.234375 186.753906 L 447.257813 187.015625 L 447.296875 187.539063 L 447.3125 187.800781 L 447.324219 188.054688 L 447.335938 188.3125 L 447.34375 188.566406 L 447.351563 189.074219 L 447.355469 189.324219 L 447.355469 192.664063 L 446.515625 192.664063 L 446.515625 185.785156 L 447.703125 185.785156 L 450.164063 191.703125 L 450.15625 191.632813 L 450.148438 191.554688 L 450.140625 191.46875 L 450.128906 191.382813 L 450.121094 191.289063 L 450.113281 191.191406 L 450.101563 191.085938 L 450.09375 190.976563 L 450.082031 190.863281 L 450.058594 190.5 L 450.054688 190.378906 L 450.046875 190.257813 L 450.039063 190.015625 L 450.039063 189.894531 L 450.035156 189.773438 L 450.035156 185.785156 L 450.882813 185.785156 Z M 450.882813 192.664063 "/>
<path style=" stroke:none;fill-rule:evenodd;fill:rgb(0%,0%,0%);fill-opacity:1;" d="M 454.375 187.273438 L 454.570313 187.28125 L 454.761719 187.300781 L 454.9375 187.339844 L 455.109375 187.386719 L 455.269531 187.453125 L 455.425781 187.53125 L 455.566406 187.621094 L 455.703125 187.726563 L 455.828125 187.847656 L 455.945313 187.984375 L 456.050781 188.132813 L 456.144531 188.292969 L 456.230469 188.464844 L 456.300781 188.652344 L 456.363281 188.847656 L 456.414063 189.058594 L 456.453125 189.28125 L 456.480469 189.515625 L 456.5 189.765625 L 456.503906 190.023438 L 456.5 190.273438 L 456.480469 190.515625 L 456.453125 190.746094 L 456.414063 190.964844 L 456.363281 191.171875 L 456.296875 191.371094 L 456.222656 191.554688 L 456.140625 191.734375 L 456.042969 191.898438 L 455.933594 192.054688 L 455.816406 192.195313 L 455.6875 192.320313 L 455.554688 192.429688 L 455.410156 192.527344 L 455.257813 192.609375 L 455.09375 192.675781 L 454.925781 192.726563 L 454.746094 192.765625 L 454.558594 192.785156 L 454.363281 192.792969 L 454.167969 192.785156 L 453.976563 192.765625 L 453.796875 192.726563 L 453.625 192.675781 L 453.464844 192.613281 L 453.308594 192.53125 L 453.164063 192.4375 L 453.03125 192.328125 L 452.902344 192.203125 L 452.785156 192.0625 L 452.675781 191.914063 L 452.582031 191.75 L 452.5 191.574219 L 452.425781 191.390625 L 452.363281 191.191406 L 452.3125 190.984375 L 452.273438 190.761719 L 452.246094 190.53125 L 452.230469 190.289063 L 452.222656 190.035156 L 452.230469 189.777344 L 452.246094 189.535156 L 452.273438 189.300781 L 452.316406 189.082031 L 452.367188 188.871094 L 452.429688 188.675781 L 452.503906 188.488281 L 452.589844 188.316406 L 452.6875 188.152344 L 452.792969 188.003906 L 452.914063 187.867188 L 453.039063 187.742188 L 453.175781 187.632813 L 453.320313 187.535156 L 453.472656 187.457031 L 453.636719 187.390625 L 453.808594 187.339844 L 453.988281 187.304688 L 454.175781 187.28125 Z M 454.375 187.992188 L 454.257813 188 L 454.148438 188.015625 L 454.046875 188.039063 L 453.945313 188.074219 L 453.855469 188.117188 L 453.765625 188.175781 L 453.683594 188.238281 L 453.609375 188.3125 L 453.539063 188.398438 L 453.472656 188.492188 L 453.414063 188.597656 L 453.363281 188.710938 L 453.316406 188.839844 L 453.277344 188.976563 L 453.242188 189.125 L 453.214844 189.285156 L 453.191406 189.453125 L 453.175781 189.636719 L 453.167969 189.828125 L 453.164063 190.035156 L 453.175781 190.421875 L 453.210938 190.773438 L 453.273438 191.078125 L 453.355469 191.347656 L 453.464844 191.570313 L 453.597656 191.757813 L 453.75 191.898438 L 453.933594 192.003906 L 454.136719 192.0625 L 454.363281 192.085938 L 454.59375 192.0625 L 454.796875 192 L 454.976563 191.898438 L 455.132813 191.753906 L 455.265625 191.570313 L 455.371094 191.34375 L 455.457031 191.074219 L 455.515625 190.765625 L 455.550781 190.414063 L 455.5625 190.023438 L 455.5625 189.820313 L 455.550781 189.625 L 455.535156 189.445313 L 455.515625 189.273438 L 455.488281 189.113281 L 455.457031 188.964844 L 455.417969 188.828125 L 455.371094 188.703125 L 455.320313 188.585938 L 455.265625 188.484375 L 455.199219 188.390625 L 455.132813 188.308594 L 455.058594 188.234375 L 454.976563 188.171875 L 454.890625 188.117188 L 454.800781 188.074219 L 454.703125 188.039063 L 454.597656 188.011719 L 454.488281 188 Z M 454.375 187.992188 "/>
<path style=" stroke:none;fill-rule:evenodd;fill:rgb(0%,0%,0%);fill-opacity:1;" d="M 450.605469 203.0625 L 448.625 207.292969 L 448.625 209.945313 L 447.683594 209.945313 L 447.683594 207.304688 L 445.703125 203.0625 L 446.703125 203.0625 L 448.175781 206.503906 L 449.632813 203.0625 Z M 450.605469 203.0625 "/>
<path style=" stroke:none;fill-rule:evenodd;fill:rgb(0%,0%,0%);fill-opacity:1;" d="M 455.144531 207.152344 L 455.144531 207.238281 L 455.140625 207.285156 L 455.140625 207.375 L 455.136719 207.425781 L 455.132813 207.472656 L 455.132813 207.523438 L 455.125 207.625 L 452.0625 207.625 L 452.074219 207.804688 L 452.089844 207.972656 L 452.113281 208.128906 L 452.140625 208.277344 L 452.175781 208.417969 L 452.214844 208.542969 L 452.261719 208.664063 L 452.3125 208.769531 L 452.371094 208.867188 L 452.433594 208.953125 L 452.503906 209.03125 L 452.574219 209.097656 L 452.652344 209.15625 L 452.734375 209.210938 L 452.824219 209.253906 L 452.917969 209.289063 L 453.011719 209.316406 L 453.117188 209.339844 L 453.222656 209.351563 L 453.332031 209.355469 L 453.40625 209.351563 L 453.476563 209.351563 L 453.675781 209.328125 L 453.738281 209.3125 L 453.796875 209.300781 L 453.859375 209.285156 L 453.917969 209.265625 L 453.972656 209.242188 L 454.089844 209.195313 L 454.148438 209.164063 L 454.210938 209.132813 L 454.328125 209.0625 L 454.390625 209.019531 L 454.449219 208.976563 L 454.511719 208.933594 L 454.574219 208.882813 L 454.972656 209.414063 L 454.824219 209.539063 L 454.667969 209.652344 L 454.511719 209.75 L 454.351563 209.835938 L 454.183594 209.910156 L 454.015625 209.96875 L 453.839844 210.015625 L 453.660156 210.046875 L 453.480469 210.066406 L 453.292969 210.074219 L 453.09375 210.066406 L 452.898438 210.046875 L 452.71875 210.011719 L 452.542969 209.960938 L 452.378906 209.898438 L 452.222656 209.820313 L 452.078125 209.726563 L 451.941406 209.621094 L 451.8125 209.5 L 451.695313 209.363281 L 451.585938 209.214844 L 451.492188 209.054688 L 451.410156 208.878906 L 451.335938 208.695313 L 451.273438 208.5 L 451.222656 208.292969 L 451.183594 208.078125 L 451.15625 207.847656 L 451.140625 207.605469 L 451.132813 207.355469 L 451.140625 207.101563 L 451.15625 206.859375 L 451.183594 206.628906 L 451.21875 206.410156 L 451.269531 206.199219 L 451.328125 206 L 451.398438 205.8125 L 451.480469 205.636719 L 451.570313 205.46875 L 451.675781 205.3125 L 451.785156 205.167969 L 451.90625 205.039063 L 452.035156 204.925781 L 452.171875 204.828125 L 452.320313 204.742188 L 452.472656 204.675781 L 452.636719 204.621094 L 452.808594 204.585938 L 452.984375 204.5625 L 453.175781 204.554688 L 453.359375 204.5625 L 453.535156 204.582031 L 453.703125 204.617188 L 453.863281 204.664063 L 454.015625 204.722656 L 454.15625 204.800781 L 454.289063 204.886719 L 454.414063 204.988281 L 454.527344 205.105469 L 454.632813 205.234375 L 454.730469 205.375 L 454.816406 205.523438 L 454.894531 205.6875 L 454.960938 205.863281 L 455.015625 206.050781 L 455.0625 206.246094 L 455.097656 206.457031 L 455.125 206.675781 L 455.140625 206.910156 Z M 454.273438 206.882813 L 454.261719 206.570313 L 454.230469 206.289063 L 454.175781 206.042969 L 454.097656 205.828125 L 454 205.648438 L 453.882813 205.5 L 453.738281 205.382813 L 453.578125 205.300781 L 453.390625 205.25 L 453.183594 205.234375 L 453.085938 205.238281 L 452.992188 205.25 L 452.902344 205.273438 L 452.816406 205.300781 L 452.738281 205.339844 L 452.660156 205.386719 L 452.585938 205.441406 L 452.519531 205.503906 L 452.453125 205.574219 L 452.394531 205.652344 L 452.339844 205.742188 L 452.289063 205.839844 L 452.242188 205.945313 L 452.203125 206.066406 L 452.167969 206.195313 L 452.136719 206.332031 L 452.109375 206.484375 L 452.089844 206.644531 L 452.074219 206.8125 L 452.0625 206.992188 L 454.273438 206.992188 Z M 454.273438 206.882813 "/>
<path style=" stroke:none;fill-rule:evenodd;fill:rgb(0%,0%,0%);fill-opacity:1;" d="M 457.753906 204.554688 L 457.933594 204.558594 L 458.109375 204.578125 L 458.28125 204.609375 L 458.449219 204.648438 L 458.613281 204.703125 L 458.773438 204.769531 L 458.929688 204.847656 L 459.082031 204.9375 L 459.230469 205.039063 L 459.375 205.152344 L 458.992188 205.683594 L 458.929688 205.640625 L 458.804688 205.5625 L 458.746094 205.527344 L 458.683594 205.492188 L 458.566406 205.429688 L 458.507813 205.402344 L 458.449219 205.378906 L 458.394531 205.355469 L 458.335938 205.332031 L 458.28125 205.3125 L 458.222656 205.296875 L 458.046875 205.261719 L 457.988281 205.253906 L 457.925781 205.25 L 457.867188 205.246094 L 457.804688 205.242188 L 457.722656 205.246094 L 457.574219 205.261719 L 457.503906 205.277344 L 457.4375 205.292969 L 457.375 205.316406 L 457.3125 205.34375 L 457.257813 205.371094 L 457.203125 205.40625 L 457.152344 205.445313 L 457.109375 205.484375 L 457.070313 205.527344 L 457.035156 205.570313 L 456.980469 205.671875 L 456.960938 205.726563 L 456.945313 205.785156 L 456.933594 205.84375 L 456.925781 205.90625 L 456.925781 206.039063 L 456.933594 206.101563 L 456.945313 206.160156 L 456.960938 206.214844 L 456.980469 206.269531 L 457.003906 206.320313 L 457.03125 206.367188 L 457.066406 206.414063 L 457.101563 206.453125 L 457.144531 206.492188 L 457.195313 206.53125 L 457.25 206.570313 L 457.316406 206.609375 L 457.390625 206.648438 L 457.472656 206.6875 L 457.5625 206.726563 L 457.660156 206.765625 L 457.769531 206.804688 L 457.882813 206.84375 L 458.003906 206.882813 L 458.15625 206.933594 L 458.300781 206.988281 L 458.4375 207.042969 L 458.566406 207.101563 L 458.6875 207.160156 L 458.796875 207.222656 L 458.898438 207.289063 L 458.992188 207.355469 L 459.078125 207.421875 L 459.152344 207.492188 L 459.222656 207.570313 L 459.285156 207.648438 L 459.335938 207.734375 L 459.382813 207.824219 L 459.425781 207.921875 L 459.457031 208.023438 L 459.480469 208.128906 L 459.5 208.242188 L 459.511719 208.359375 L 459.515625 208.484375 L 459.507813 208.628906 L 459.492188 208.769531 L 459.464844 208.898438 L 459.425781 209.027344 L 459.378906 209.148438 L 459.320313 209.261719 L 459.25 209.367188 L 459.167969 209.46875 L 459.078125 209.566406 L 458.972656 209.652344 L 458.863281 209.734375 L 458.746094 209.804688 L 458.625 209.867188 L 458.5 209.921875 L 458.367188 209.96875 L 458.230469 210.007813 L 458.085938 210.035156 L 457.9375 210.058594 L 457.78125 210.070313 L 457.625 210.074219 L 457.414063 210.066406 L 457.210938 210.046875 L 457.011719 210.011719 L 456.820313 209.960938 L 456.636719 209.898438 L 456.457031 209.820313 L 456.289063 209.726563 L 456.125 209.621094 L 455.964844 209.5 L 455.8125 209.363281 L 456.273438 208.863281 L 456.402344 208.960938 L 456.527344 209.046875 L 456.65625 209.125 L 456.789063 209.191406 L 456.921875 209.246094 L 457.054688 209.292969 L 457.191406 209.328125 L 457.328125 209.355469 L 457.464844 209.367188 L 457.605469 209.375 L 457.691406 209.371094 L 457.773438 209.367188 L 457.851563 209.355469 L 457.929688 209.339844 L 458 209.320313 L 458.070313 209.292969 L 458.136719 209.265625 L 458.199219 209.234375 L 458.257813 209.195313 L 458.3125 209.152344 L 458.363281 209.109375 L 458.410156 209.058594 L 458.453125 209.007813 L 458.488281 208.949219 L 458.515625 208.890625 L 458.539063 208.828125 L 458.558594 208.761719 L 458.574219 208.691406 L 458.582031 208.621094 L 458.582031 208.488281 L 458.574219 208.386719 L 458.566406 208.335938 L 458.558594 208.292969 L 458.546875 208.246094 L 458.535156 208.207031 L 458.503906 208.128906 L 458.464844 208.058594 L 458.441406 208.027344 L 458.386719 207.964844 L 458.355469 207.933594 L 458.316406 207.90625 L 458.28125 207.875 L 458.238281 207.847656 L 458.144531 207.792969 L 458.09375 207.765625 L 458.039063 207.738281 L 457.980469 207.710938 L 457.914063 207.679688 L 457.847656 207.652344 L 457.773438 207.621094 L 457.695313 207.59375 L 457.613281 207.5625 L 457.527344 207.535156 L 457.433594 207.503906 L 457.289063 207.453125 L 457.152344 207.398438 L 457.023438 207.34375 L 456.902344 207.289063 L 456.789063 207.230469 L 456.683594 207.167969 L 456.589844 207.105469 L 456.503906 207.039063 L 456.425781 206.972656 L 456.355469 206.902344 L 456.292969 206.832031 L 456.234375 206.757813 L 456.1875 206.675781 L 456.144531 206.59375 L 456.105469 206.507813 L 456.078125 206.414063 L 456.054688 206.320313 L 456.035156 206.222656 L 456.027344 206.121094 L 456.023438 206.015625 L 456.027344 205.929688 L 456.03125 205.851563 L 456.042969 205.769531 L 456.058594 205.691406 L 456.078125 205.617188 L 456.101563 205.542969 L 456.132813 205.46875 L 456.164063 205.398438 L 456.242188 205.265625 L 456.289063 205.199219 L 456.339844 205.136719 L 456.390625 205.078125 L 456.445313 205.023438 L 456.507813 204.96875 L 456.570313 204.917969 L 456.703125 204.824219 L 456.777344 204.785156 L 456.855469 204.742188 L 456.933594 204.707031 L 457.015625 204.675781 L 457.097656 204.648438 L 457.183594 204.621094 L 457.273438 204.601563 L 457.363281 204.585938 L 457.457031 204.570313 L 457.652344 204.554688 Z M 457.753906 204.554688 "/>
</g>
</svg>
