<?xml version="1.0" encoding="UTF-8"?>
<svg xmlns="http://www.w3.org/2000/svg" xmlns:xlink="http://www.w3.org/1999/xlink" width="540pt" height="360pt" viewBox="0 0 540 360" version="1.1">
<g id="surface24">
<rect x="0" y="0" width="540" height="360" style="fill:rgb(100%,100%,100%);fill-opacity:1;stroke:none;"/>
<path style="fill-rule:nonzero;fill:rgb(100%,100%,100%);fill-opacity:1;stroke-width:3.200935;stroke-linecap:butt;stroke-linejoin:miter;stroke:rgb(74.901961%,22.352941%,51.764706%);stroke-opacity:1;stroke-miterlimit:10;" d="M 100.695313 271.382813 L 110.480469 271.382813 L 110.480469 270.035156 L 100.695313 270.035156 Z M 100.695313 271.382813 "/>
<path style="fill:none;stroke-width:3.200935;stroke-linecap:butt;stroke-linejoin:miter;stroke:rgb(74.901961%,22.352941%,51.764706%);stroke-opacity:1;stroke-miterlimit:10;" d="M 110.480469 271.382813 L 120.265625 271.382813 Z M 110.480469 271.382813 "/>
<path style="fill:none;stroke-width:3.200935;stroke-linecap:butt;stroke-linejoin:miter;stroke:rgb(74.901961%,22.352941%,51.764706%);stroke-opacity:1;stroke-miterlimit:10;" d="M 120.265625 271.382813 L 130.050781 271.382813 Z M 120.265625 271.382813 "/>
<path style="fill-rule:nonzero;fill:rgb(100%,100%,100%);fill-opacity:1;stroke-width:3.200935;stroke-linecap:butt;stroke-linejoin:miter;stroke:rgb(74.901961%,22.352941%,51.764706%);stroke-opacity:1;stroke-miterlimit:10;" d="M 130.050781 271.382813 L 139.835938 271.382813 L 139.835938 270.035156 L 130.050781 270.035156 Z M 130.050781 271.382813 "/>
<path style="fill-rule:nonzero;fill:rgb(100%,100%,100%);fill-opacity:1;stroke-width:3.200935;stroke-linecap:butt;stroke-linejoin:miter;stroke:rgb(74.901961%,22.352941%,51.764706%);stroke-opacity:1;stroke-miterlimit:10;" d="M 139.835938 271.382813 L 149.621094 271.382813 L 149.621094 270.035156 L 139.835938 270.035156 Z M 139.835938 271.382813 "/>
<path style="fill-rule:nonzero;fill:rgb(100%,100%,100%);fill-opacity:1;stroke-width:3.200935;stroke-linecap:butt;stroke-linejoin:miter;stroke:rgb(74.901961%,22.352941%,51.764706%);stroke-opacity:1;stroke-miterlimit:10;" d="M 149.621094 271.382813 L 159.40625 271.382813 L 159.40625 267.34375 L 149.621094 267.34375 Z M 149.621094 271.382813 "/>
<path style="fill-rule:nonzero;fill:rgb(100%,100%,100%);fill-opacity:1;stroke-width:3.200935;stroke-linecap:butt;stroke-linejoin:miter;stroke:rgb(74.901961%,22.352941%,51.764706%);stroke-opacity:1;stroke-miterlimit:10;" d="M 159.402344 271.382813 L 169.1875 271.382813 L 169.1875 268.691406 L 159.402344 268.691406 Z M 159.402344 271.382813 "/>
<path style="fill-rule:nonzero;fill:rgb(100%,100%,100%);fill-opacity:1;stroke-width:3.200935;stroke-linecap:butt;stroke-linejoin:miter;stroke:rgb(74.901961%,22.352941%,51.764706%);stroke-opacity:1;stroke-miterlimit:10;" d="M 169.1875 271.382813 L 178.972656 271.382813 L 178.972656 259.269531 L 169.1875 259.269531 Z M 169.1875 271.382813 "/>
<path style="fill-rule:nonzero;fill:rgb(100%,100%,100%);fill-opacity:1;stroke-width:3.200935;stroke-linecap:butt;stroke-linejoin:miter;stroke:rgb(74.901961%,22.352941%,51.764706%);stroke-opacity:1;stroke-miterlimit:10;" d="M 178.972656 271.382813 L 188.757813 271.382813 L 188.757813 263.308594 L 178.972656 263.308594 Z M 178.972656 271.382813 "/>
<path style="fill-rule:nonzero;fill:rgb(100%,100%,100%);fill-opacity:1;stroke-width:3.200935;stroke-linecap:butt;stroke-linejoin:miter;stroke:rgb(74.901961%,22.352941%,51.764706%);stroke-opacity:1;stroke-miterlimit:10;" d="M 188.757813 271.382813 L 198.542969 271.382813 L 198.542969 259.269531 L 188.757813 259.269531 Z M 188.757813 271.382813 "/>
<path style="fill-rule:nonzero;fill:rgb(100%,100%,100%);fill-opacity:1;stroke-width:3.200935;stroke-linecap:butt;stroke-linejoin:miter;stroke:rgb(74.901961%,22.352941%,51.764706%);stroke-opacity:1;stroke-miterlimit:10;" d="M 198.542969 271.382813 L 208.328125 271.382813 L 208.328125 245.8125 L 198.542969 245.8125 Z M 198.542969 271.382813 "/>
<path style="fill-rule:nonzero;fill:rgb(100%,100%,100%);fill-opacity:1;stroke-width:3.200935;stroke-linecap:butt;stroke-linejoin:miter;stroke:rgb(74.901961%,22.352941%,51.764706%);stroke-opacity:1;stroke-miterlimit:10;" d="M 208.328125 271.382813 L 218.113281 271.382813 L 218.113281 226.972656 L 208.328125 226.972656 Z M 208.328125 271.382813 "/>
<path style="fill-rule:nonzero;fill:rgb(100%,100%,100%);fill-opacity:1;stroke-width:3.200935;stroke-linecap:butt;stroke-linejoin:miter;stroke:rgb(74.901961%,22.352941%,51.764706%);stroke-opacity:1;stroke-miterlimit:10;" d="M 218.113281 271.382813 L 227.898438 271.382813 L 227.898438 222.9375 L 218.113281 222.9375 Z M 218.113281 271.382813 "/>
<path style="fill-rule:nonzero;fill:rgb(100%,100%,100%);fill-opacity:1;stroke-width:3.200935;stroke-linecap:butt;stroke-linejoin:miter;stroke:rgb(74.901961%,22.352941%,51.764706%);stroke-opacity:1;stroke-miterlimit:10;" d="M 227.898438 271.382813 L 237.683594 271.382813 L 237.683594 191.984375 L 227.898438 191.984375 Z M 227.898438 271.382813 "/>
<path style="fill-rule:nonzero;fill:rgb(100%,100%,100%);fill-opacity:1;stroke-width:3.200935;stroke-linecap:butt;stroke-linejoin:miter;stroke:rgb(74.901961%,22.352941%,51.764706%);stroke-opacity:1;stroke-miterlimit:10;" d="M 237.679688 271.382813 L 247.464844 271.382813 L 247.464844 144.886719 L 237.679688 144.886719 Z M 237.679688 271.382813 "/>
<path style="fill-rule:nonzero;fill:rgb(100%,100%,100%);fill-opacity:1;stroke-width:3.200935;stroke-linecap:butt;stroke-linejoin:miter;stroke:rgb(74.901961%,22.352941%,51.764706%);stroke-opacity:1;stroke-miterlimit:10;" d="M 247.464844 271.382813 L 257.25 271.382813 L 257.25 177.183594 L 247.464844 177.183594 Z M 247.464844 271.382813 "/>
<path style="fill-rule:nonzero;fill:rgb(100%,100%,100%);fill-opacity:1;stroke-width:3.200935;stroke-linecap:butt;stroke-linejoin:miter;stroke:rgb(74.901961%,22.352941%,51.764706%);stroke-opacity:1;stroke-miterlimit:10;" d="M 257.25 271.382813 L 267.035156 271.382813 L 267.035156 120.664063 L 257.25 120.664063 Z M 257.25 271.382813 "/>
<path style="fill-rule:nonzero;fill:rgb(100%,100%,100%);fill-opacity:1;stroke-width:3.200935;stroke-linecap:butt;stroke-linejoin:miter;stroke:rgb(74.901961%,22.352941%,51.764706%);stroke-opacity:1;stroke-miterlimit:10;" d="M 267.035156 271.382813 L 276.820313 271.382813 L 276.820313 88.367188 L 267.035156 88.367188 Z M 267.035156 271.382813 "/>
<path style="fill-rule:nonzero;fill:rgb(100%,100%,100%);fill-opacity:1;stroke-width:3.200935;stroke-linecap:butt;stroke-linejoin:miter;stroke:rgb(74.901961%,22.352941%,51.764706%);stroke-opacity:1;stroke-miterlimit:10;" d="M 276.820313 271.382813 L 286.605469 271.382813 L 286.605469 119.316406 L 276.820313 119.316406 Z M 276.820313 271.382813 "/>
<path style="fill-rule:nonzero;fill:rgb(100%,100%,100%);fill-opacity:1;stroke-width:3.200935;stroke-linecap:butt;stroke-linejoin:miter;stroke:rgb(74.901961%,22.352941%,51.764706%);stroke-opacity:1;stroke-miterlimit:10;" d="M 286.605469 271.382813 L 296.390625 271.382813 L 296.390625 92.402344 L 286.605469 92.402344 Z M 286.605469 271.382813 "/>
<path style="fill-rule:nonzero;fill:rgb(100%,100%,100%);fill-opacity:1;stroke-width:3.200935;stroke-linecap:butt;stroke-linejoin:miter;stroke:rgb(74.901961%,22.352941%,51.764706%);stroke-opacity:1;stroke-miterlimit:10;" d="M 296.390625 271.382813 L 306.175781 271.382813 L 306.175781 39.917969 L 296.390625 39.917969 Z M 296.390625 271.382813 "/>
<path style="fill-rule:nonzero;fill:rgb(100%,100%,100%);fill-opacity:1;stroke-width:3.200935;stroke-linecap:butt;stroke-linejoin:miter;stroke:rgb(74.901961%,22.352941%,51.764706%);stroke-opacity:1;stroke-miterlimit:10;" d="M 306.175781 271.382813 L 315.960938 271.382813 L 315.960938 95.09375 L 306.175781 95.09375 Z M 306.175781 271.382813 "/>
<path style="fill-rule:nonzero;fill:rgb(100%,100%,100%);fill-opacity:1;stroke-width:3.200935;stroke-linecap:butt;stroke-linejoin:miter;stroke:rgb(74.901961%,22.352941%,51.764706%);stroke-opacity:1;stroke-miterlimit:10;" d="M 315.960938 271.382813 L 325.746094 271.382813 L 325.746094 97.785156 L 315.960938 97.785156 Z M 315.960938 271.382813 "/>
<path style="fill-rule:nonzero;fill:rgb(100%,100%,100%);fill-opacity:1;stroke-width:3.200935;stroke-linecap:butt;stroke-linejoin:miter;stroke:rgb(74.901961%,22.352941%,51.764706%);stroke-opacity:1;stroke-miterlimit:10;" d="M 325.742188 271.382813 L 335.527344 271.382813 L 335.527344 140.847656 L 325.742188 140.847656 Z M 325.742188 271.382813 "/>
<path style="fill-rule:nonzero;fill:rgb(100%,100%,100%);fill-opacity:1;stroke-width:3.200935;stroke-linecap:butt;stroke-linejoin:miter;stroke:rgb(74.901961%,22.352941%,51.764706%);stroke-opacity:1;stroke-miterlimit:10;" d="M 335.527344 271.382813 L 345.3125 271.382813 L 345.3125 99.132813 L 335.527344 99.132813 Z M 335.527344 271.382813 "/>
<path style="fill-rule:nonzero;fill:rgb(100%,100%,100%);fill-opacity:1;stroke-width:3.200935;stroke-linecap:butt;stroke-linejoin:miter;stroke:rgb(74.901961%,22.352941%,51.764706%);stroke-opacity:1;stroke-miterlimit:10;" d="M 345.3125 271.382813 L 355.097656 271.382813 L 355.097656 74.910156 L 345.3125 74.910156 Z M 345.3125 271.382813 "/>
<path style="fill-rule:nonzero;fill:rgb(100%,100%,100%);fill-opacity:1;stroke-width:3.200935;stroke-linecap:butt;stroke-linejoin:miter;stroke:rgb(74.901961%,22.352941%,51.764706%);stroke-opacity:1;stroke-miterlimit:10;" d="M 355.097656 271.382813 L 364.882813 271.382813 L 364.882813 144.886719 L 355.097656 144.886719 Z M 355.097656 271.382813 "/>
<path style="fill-rule:nonzero;fill:rgb(100%,100%,100%);fill-opacity:1;stroke-width:3.200935;stroke-linecap:butt;stroke-linejoin:miter;stroke:rgb(74.901961%,22.352941%,51.764706%);stroke-opacity:1;stroke-miterlimit:10;" d="M 364.882813 271.382813 L 374.667969 271.382813 L 374.667969 158.34375 L 364.882813 158.34375 Z M 364.882813 271.382813 "/>
<path style="fill-rule:nonzero;fill:rgb(100%,100%,100%);fill-opacity:1;stroke-width:3.200935;stroke-linecap:butt;stroke-linejoin:miter;stroke:rgb(74.901961%,22.352941%,51.764706%);stroke-opacity:1;stroke-miterlimit:10;" d="M 374.667969 271.382813 L 384.453125 271.382813 L 384.453125 185.257813 L 374.667969 185.257813 Z M 374.667969 271.382813 "/>
<path style="fill-rule:nonzero;fill:rgb(100%,100%,100%);fill-opacity:1;stroke-width:3.200935;stroke-linecap:butt;stroke-linejoin:miter;stroke:rgb(74.901961%,22.352941%,51.764706%);stroke-opacity:1;stroke-miterlimit:10;" d="M 384.453125 271.382813 L 394.238281 271.382813 L 394.238281 210.824219 L 384.453125 210.824219 Z M 384.453125 271.382813 "/>
<path style="fill-rule:nonzero;fill:rgb(100%,100%,100%);fill-opacity:1;stroke-width:3.200935;stroke-linecap:butt;stroke-linejoin:miter;stroke:rgb(74.901961%,22.352941%,51.764706%);stroke-opacity:1;stroke-miterlimit:10;" d="M 394.238281 271.382813 L 404.023438 271.382813 L 404.023438 213.515625 L 394.238281 213.515625 Z M 394.238281 271.382813 "/>
<path style="fill-rule:nonzero;fill:rgb(100%,100%,100%);fill-opacity:1;stroke-width:3.200935;stroke-linecap:butt;stroke-linejoin:miter;stroke:rgb(74.901961%,22.352941%,51.764706%);stroke-opacity:1;stroke-miterlimit:10;" d="M 404.023438 271.382813 L 413.808594 271.382813 L 413.808594 236.394531 L 404.023438 236.394531 Z M 404.023438 271.382813 "/>
<path style="fill-rule:nonzero;fill:rgb(100%,100%,100%);fill-opacity:1;stroke-width:3.200935;stroke-linecap:butt;stroke-linejoin:miter;stroke:rgb(74.901961%,22.352941%,51.764706%);stroke-opacity:1;stroke-miterlimit:10;" d="M 413.804688 271.382813 L 423.589844 271.382813 L 423.589844 228.320313 L 413.804688 228.320313 Z M 413.804688 271.382813 "/>
<path style="fill-rule:nonzero;fill:rgb(100%,100%,100%);fill-opacity:1;stroke-width:3.200935;stroke-linecap:butt;stroke-linejoin:miter;stroke:rgb(74.901961%,22.352941%,51.764706%);stroke-opacity:1;stroke-miterlimit:10;" d="M 423.589844 271.382813 L 433.375 271.382813 L 433.375 255.234375 L 423.589844 255.234375 Z M 423.589844 271.382813 "/>
<path style="fill-rule:nonzero;fill:rgb(100%,100%,100%);fill-opacity:1;stroke-width:3.200935;stroke-linecap:butt;stroke-linejoin:miter;stroke:rgb(74.901961%,22.352941%,51.764706%);stroke-opacity:1;stroke-miterlimit:10;" d="M 433.375 271.382813 L 443.160156 271.382813 L 443.160156 256.578125 L 433.375 256.578125 Z M 433.375 271.382813 "/>
<path style="fill-rule:nonzero;fill:rgb(100%,100%,100%);fill-opacity:1;stroke-width:3.200935;stroke-linecap:butt;stroke-linejoin:miter;stroke:rgb(74.901961%,22.352941%,51.764706%);stroke-opacity:1;stroke-miterlimit:10;" d="M 443.160156 271.382813 L 452.945313 271.382813 L 452.945313 256.578125 L 443.160156 256.578125 Z M 443.160156 271.382813 "/>
<path style="fill-rule:nonzero;fill:rgb(100%,100%,100%);fill-opacity:1;stroke-width:3.200935;stroke-linecap:butt;stroke-linejoin:miter;stroke:rgb(74.901961%,22.352941%,51.764706%);stroke-opacity:1;stroke-miterlimit:10;" d="M 452.945313 271.382813 L 462.730469 271.382813 L 462.730469 257.925781 L 452.945313 257.925781 Z M 452.945313 271.382813 "/>
<path style="fill-rule:nonzero;fill:rgb(100%,100%,100%);fill-opacity:1;stroke-width:3.200935;stroke-linecap:butt;stroke-linejoin:miter;stroke:rgb(74.901961%,22.352941%,51.764706%);stroke-opacity:1;stroke-miterlimit:10;" d="M 462.730469 271.382813 L 472.515625 271.382813 L 472.515625 261.960938 L 462.730469 261.960938 Z M 462.730469 271.382813 "/>
<path style="fill-rule:nonzero;fill:rgb(100%,100%,100%);fill-opacity:1;stroke-width:3.200935;stroke-linecap:butt;stroke-linejoin:miter;stroke:rgb(74.901961%,22.352941%,51.764706%);stroke-opacity:1;stroke-miterlimit:10;" d="M 472.515625 271.382813 L 482.300781 271.382813 L 482.300781 266 L 472.515625 266 Z M 472.515625 271.382813 "/>
<path style="fill-rule:nonzero;fill:rgb(100%,100%,100%);fill-opacity:1;stroke-width:3.200935;stroke-linecap:butt;stroke-linejoin:miter;stroke:rgb(74.901961%,22.352941%,51.764706%);stroke-opacity:1;stroke-miterlimit:10;" d="M 482.300781 271.382813 L 492.085938 271.382813 L 492.085938 264.652344 L 482.300781 264.652344 Z M 482.300781 271.382813 "/>
<path style="fill:none;stroke-width:1.115477;stroke-linecap:butt;stroke-linejoin:round;stroke:rgb(66.27451%,66.27451%,66.27451%);stroke-opacity:1;stroke-miterlimit:10;" d="M 81.125 282.957031 L 81.125 28.347656 "/>
<path style=" stroke:none;fill-rule:nonzero;fill:rgb(30.196078%,30.196078%,30.196078%);fill-opacity:1;" d="M 74.0625 266.40625 L 74.363281 266.417969 L 74.648438 266.457031 L 74.917969 266.523438 L 75.175781 266.613281 L 75.417969 266.726563 L 75.644531 266.871094 L 75.855469 267.035156 L 76.050781 267.230469 L 76.234375 267.449219 L 76.398438 267.695313 L 76.554688 267.960938 L 76.691406 268.25 L 76.8125 268.558594 L 76.917969 268.894531 L 77.007813 269.25 L 77.082031 269.628906 L 77.140625 270.03125 L 77.179688 270.457031 L 77.203125 270.90625 L 77.210938 271.375 L 77.203125 271.847656 L 77.179688 272.300781 L 77.140625 272.726563 L 77.082031 273.132813 L 77.007813 273.515625 L 76.917969 273.875 L 76.8125 274.210938 L 76.691406 274.523438 L 76.554688 274.816406 L 76.398438 275.085938 L 76.234375 275.328125 L 76.050781 275.542969 L 75.855469 275.734375 L 75.644531 275.902344 L 75.417969 276.042969 L 75.175781 276.15625 L 74.917969 276.246094 L 74.648438 276.308594 L 74.363281 276.347656 L 74.0625 276.359375 L 73.761719 276.347656 L 73.476563 276.308594 L 73.203125 276.246094 L 72.945313 276.15625 L 72.703125 276.042969 L 72.476563 275.902344 L 72.261719 275.734375 L 72.0625 275.542969 L 71.878906 275.328125 L 71.710938 275.085938 L 71.558594 274.816406 L 71.421875 274.523438 L 71.304688 274.210938 L 71.199219 273.875 L 71.113281 273.515625 L 71.039063 273.132813 L 70.984375 272.726563 L 70.945313 272.300781 L 70.921875 271.847656 L 70.910156 271.375 L 70.921875 270.90625 L 70.945313 270.457031 L 70.984375 270.03125 L 71.039063 269.628906 L 71.113281 269.25 L 71.199219 268.894531 L 71.304688 268.558594 L 71.421875 268.25 L 71.558594 267.960938 L 71.710938 267.695313 L 71.878906 267.449219 L 72.0625 267.230469 L 72.261719 267.035156 L 72.476563 266.871094 L 72.703125 266.726563 L 72.945313 266.613281 L 73.203125 266.523438 L 73.476563 266.457031 L 73.761719 266.417969 Z M 74.0625 267.359375 L 73.699219 267.398438 L 73.371094 267.519531 L 73.082031 267.71875 L 72.835938 268 L 72.625 268.363281 L 72.449219 268.804688 L 72.316406 269.328125 L 72.222656 269.929688 L 72.164063 270.613281 L 72.144531 271.375 L 72.164063 272.140625 L 72.222656 272.828125 L 72.316406 273.433594 L 72.449219 273.957031 L 72.625 274.398438 L 72.835938 274.761719 L 73.082031 275.042969 L 73.371094 275.246094 L 73.699219 275.367188 L 74.0625 275.40625 L 74.425781 275.367188 L 74.753906 275.246094 L 75.039063 275.042969 L 75.289063 274.761719 L 75.5 274.398438 L 75.671875 273.957031 L 75.808594 273.433594 L 75.902344 272.828125 L 75.960938 272.140625 L 75.980469 271.375 L 75.960938 270.613281 L 75.902344 269.929688 L 75.808594 269.328125 L 75.671875 268.804688 L 75.5 268.363281 L 75.289063 268 L 75.039063 267.71875 L 74.753906 267.519531 L 74.425781 267.398438 Z M 74.0625 270.464844 L 74.140625 270.46875 L 74.214844 270.476563 L 74.285156 270.488281 L 74.355469 270.507813 L 74.421875 270.53125 L 74.488281 270.5625 L 74.550781 270.597656 L 74.609375 270.636719 L 74.664063 270.679688 L 74.71875 270.730469 L 74.769531 270.785156 L 74.816406 270.84375 L 74.855469 270.902344 L 74.890625 270.960938 L 74.917969 271.027344 L 74.945313 271.089844 L 74.976563 271.230469 L 74.984375 271.300781 L 74.984375 271.453125 L 74.976563 271.527344 L 74.945313 271.667969 L 74.890625 271.800781 L 74.855469 271.863281 L 74.816406 271.921875 L 74.769531 271.980469 L 74.71875 272.035156 L 74.664063 272.085938 L 74.609375 272.128906 L 74.550781 272.167969 L 74.488281 272.203125 L 74.421875 272.234375 L 74.355469 272.257813 L 74.285156 272.277344 L 74.214844 272.289063 L 74.140625 272.296875 L 74.0625 272.300781 L 73.984375 272.296875 L 73.910156 272.289063 L 73.839844 272.277344 L 73.769531 272.257813 L 73.703125 272.234375 L 73.636719 272.203125 L 73.574219 272.167969 L 73.515625 272.128906 L 73.457031 272.085938 L 73.402344 272.035156 L 73.355469 271.980469 L 73.3125 271.921875 L 73.277344 271.863281 L 73.242188 271.800781 L 73.214844 271.734375 L 73.191406 271.667969 L 73.160156 271.527344 L 73.15625 271.453125 L 73.152344 271.375 L 73.15625 271.300781 L 73.160156 271.230469 L 73.191406 271.089844 L 73.214844 271.027344 L 73.242188 270.960938 L 73.3125 270.84375 L 73.355469 270.785156 L 73.402344 270.730469 L 73.457031 270.679688 L 73.515625 270.636719 L 73.574219 270.597656 L 73.636719 270.5625 L 73.703125 270.53125 L 73.769531 270.507813 L 73.839844 270.488281 L 73.910156 270.476563 L 73.984375 270.46875 Z M 74.0625 270.464844 "/>
<path style=" stroke:none;fill-rule:nonzero;fill:rgb(30.196078%,30.196078%,30.196078%);fill-opacity:1;" d="M 68.113281 200.226563 L 64.304688 200.226563 L 64.304688 203.265625 L 64.386719 203.21875 L 64.464844 203.175781 L 64.546875 203.136719 L 64.625 203.097656 L 64.707031 203.0625 L 64.785156 203.035156 L 64.867188 203.007813 L 64.945313 202.980469 L 65.101563 202.941406 L 65.183594 202.921875 L 65.347656 202.890625 L 65.519531 202.867188 L 65.691406 202.851563 L 65.777344 202.847656 L 65.867188 202.84375 L 65.957031 202.84375 L 66.191406 202.851563 L 66.417969 202.875 L 66.632813 202.914063 L 66.839844 202.972656 L 67.039063 203.042969 L 67.222656 203.132813 L 67.402344 203.234375 L 67.570313 203.355469 L 67.726563 203.492188 L 67.875 203.640625 L 68.011719 203.808594 L 68.136719 203.984375 L 68.246094 204.175781 L 68.339844 204.382813 L 68.421875 204.597656 L 68.484375 204.828125 L 68.535156 205.066406 L 68.574219 205.320313 L 68.59375 205.589844 L 68.601563 205.867188 L 68.597656 206.054688 L 68.585938 206.238281 L 68.566406 206.417969 L 68.535156 206.59375 L 68.5 206.765625 L 68.457031 206.929688 L 68.402344 207.089844 L 68.34375 207.246094 L 68.273438 207.398438 L 68.195313 207.546875 L 68.113281 207.691406 L 68.023438 207.828125 L 67.929688 207.957031 L 67.828125 208.078125 L 67.714844 208.195313 L 67.597656 208.304688 L 67.476563 208.410156 L 67.34375 208.507813 L 67.207031 208.597656 L 67.0625 208.683594 L 66.910156 208.757813 L 66.753906 208.824219 L 66.59375 208.882813 L 66.429688 208.933594 L 66.261719 208.976563 L 66.085938 209.011719 L 65.90625 209.039063 L 65.722656 209.058594 L 65.535156 209.070313 L 65.339844 209.074219 L 65.023438 209.0625 L 64.710938 209.027344 L 64.410156 208.96875 L 64.121094 208.890625 L 63.835938 208.785156 L 63.558594 208.660156 L 63.292969 208.511719 L 63.03125 208.339844 L 62.78125 208.144531 L 62.539063 207.925781 L 63.269531 207.210938 L 63.449219 207.382813 L 63.632813 207.535156 L 63.824219 207.667969 L 64.023438 207.785156 L 64.226563 207.882813 L 64.4375 207.964844 L 64.652344 208.027344 L 64.875 208.070313 L 65.105469 208.097656 L 65.339844 208.109375 L 65.527344 208.101563 L 65.710938 208.085938 L 65.878906 208.054688 L 66.042969 208.015625 L 66.199219 207.960938 L 66.34375 207.894531 L 66.480469 207.820313 L 66.609375 207.730469 L 66.726563 207.632813 L 66.839844 207.519531 L 66.9375 207.398438 L 67.03125 207.265625 L 67.109375 207.121094 L 67.179688 206.964844 L 67.238281 206.800781 L 67.285156 206.628906 L 67.320313 206.441406 L 67.347656 206.246094 L 67.363281 206.042969 L 67.371094 205.824219 L 67.367188 205.613281 L 67.351563 205.414063 L 67.328125 205.226563 L 67.292969 205.050781 L 67.25 204.886719 L 67.199219 204.738281 L 67.136719 204.597656 L 67.066406 204.472656 L 66.984375 204.359375 L 66.894531 204.257813 L 66.796875 204.164063 L 66.691406 204.082031 L 66.578125 204.007813 L 66.460938 203.945313 L 66.335938 203.890625 L 66.207031 203.847656 L 66.070313 203.8125 L 65.925781 203.789063 L 65.777344 203.773438 L 65.621094 203.769531 L 65.472656 203.769531 L 65.398438 203.773438 L 65.328125 203.777344 L 65.257813 203.785156 L 65.125 203.800781 L 65.058594 203.8125 L 64.933594 203.835938 L 64.871094 203.851563 L 64.804688 203.871094 L 64.65625 203.910156 L 64.578125 203.9375 L 64.492188 203.960938 L 64.40625 203.992188 L 64.316406 204.023438 L 64.222656 204.054688 L 64.121094 204.089844 L 63.171875 204.089844 L 63.171875 199.273438 L 68.28125 199.273438 Z M 68.113281 200.226563 "/>
<path style=" stroke:none;fill-rule:nonzero;fill:rgb(30.196078%,30.196078%,30.196078%);fill-opacity:1;" d="M 74.0625 199.121094 L 74.363281 199.132813 L 74.648438 199.171875 L 74.917969 199.234375 L 75.175781 199.324219 L 75.417969 199.441406 L 75.644531 199.582031 L 75.855469 199.75 L 76.050781 199.945313 L 76.234375 200.164063 L 76.398438 200.40625 L 76.554688 200.675781 L 76.691406 200.960938 L 76.8125 201.273438 L 76.917969 201.609375 L 77.007813 201.964844 L 77.082031 202.34375 L 77.140625 202.746094 L 77.179688 203.171875 L 77.203125 203.621094 L 77.210938 204.089844 L 77.203125 204.5625 L 77.179688 205.011719 L 77.140625 205.441406 L 77.082031 205.847656 L 77.007813 206.226563 L 76.917969 206.589844 L 76.8125 206.925781 L 76.691406 207.238281 L 76.554688 207.53125 L 76.398438 207.800781 L 76.234375 208.042969 L 76.050781 208.257813 L 75.855469 208.449219 L 75.644531 208.617188 L 75.417969 208.753906 L 75.175781 208.871094 L 74.917969 208.960938 L 74.648438 209.023438 L 74.363281 209.0625 L 74.0625 209.074219 L 73.761719 209.0625 L 73.476563 209.023438 L 73.203125 208.960938 L 72.945313 208.871094 L 72.703125 208.753906 L 72.476563 208.617188 L 72.261719 208.449219 L 72.0625 208.257813 L 71.878906 208.042969 L 71.710938 207.800781 L 71.558594 207.53125 L 71.421875 207.238281 L 71.304688 206.925781 L 71.199219 206.589844 L 71.113281 206.226563 L 71.039063 205.847656 L 70.984375 205.441406 L 70.945313 205.011719 L 70.921875 204.5625 L 70.910156 204.089844 L 70.921875 203.621094 L 70.945313 203.171875 L 70.984375 202.746094 L 71.039063 202.34375 L 71.113281 201.964844 L 71.199219 201.609375 L 71.304688 201.273438 L 71.421875 200.960938 L 71.558594 200.675781 L 71.710938 200.40625 L 71.878906 200.164063 L 72.0625 199.945313 L 72.261719 199.75 L 72.476563 199.582031 L 72.703125 199.441406 L 72.945313 199.324219 L 73.203125 199.234375 L 73.476563 199.171875 L 73.761719 199.132813 Z M 74.0625 200.070313 L 73.699219 200.113281 L 73.371094 200.234375 L 73.082031 200.433594 L 72.835938 200.714844 L 72.625 201.078125 L 72.449219 201.519531 L 72.316406 202.039063 L 72.222656 202.644531 L 72.164063 203.328125 L 72.144531 204.089844 L 72.164063 204.855469 L 72.222656 205.542969 L 72.316406 206.144531 L 72.449219 206.671875 L 72.625 207.113281 L 72.835938 207.476563 L 73.082031 207.757813 L 73.371094 207.960938 L 73.699219 208.082031 L 74.0625 208.121094 L 74.425781 208.082031 L 74.753906 207.960938 L 75.039063 207.757813 L 75.289063 207.476563 L 75.5 207.113281 L 75.671875 206.671875 L 75.808594 206.144531 L 75.902344 205.542969 L 75.960938 204.855469 L 75.980469 204.089844 L 75.960938 203.328125 L 75.902344 202.644531 L 75.808594 202.039063 L 75.671875 201.519531 L 75.5 201.078125 L 75.289063 200.714844 L 75.039063 200.433594 L 74.753906 200.234375 L 74.425781 200.113281 Z M 74.0625 203.179688 L 74.140625 203.183594 L 74.214844 203.191406 L 74.285156 203.203125 L 74.355469 203.222656 L 74.421875 203.246094 L 74.488281 203.277344 L 74.550781 203.308594 L 74.609375 203.351563 L 74.664063 203.394531 L 74.71875 203.445313 L 74.769531 203.5 L 74.816406 203.558594 L 74.855469 203.617188 L 74.890625 203.675781 L 74.917969 203.738281 L 74.945313 203.804688 L 74.960938 203.875 L 74.976563 203.941406 L 74.984375 204.015625 L 74.984375 204.167969 L 74.976563 204.242188 L 74.945313 204.382813 L 74.890625 204.515625 L 74.855469 204.578125 L 74.816406 204.636719 L 74.769531 204.695313 L 74.71875 204.746094 L 74.664063 204.796875 L 74.609375 204.84375 L 74.550781 204.882813 L 74.488281 204.917969 L 74.421875 204.949219 L 74.355469 204.972656 L 74.214844 205.003906 L 74.140625 205.011719 L 74.0625 205.015625 L 73.984375 205.011719 L 73.910156 205.003906 L 73.769531 204.972656 L 73.703125 204.949219 L 73.636719 204.917969 L 73.574219 204.882813 L 73.515625 204.84375 L 73.457031 204.796875 L 73.402344 204.746094 L 73.355469 204.695313 L 73.3125 204.636719 L 73.277344 204.578125 L 73.242188 204.515625 L 73.214844 204.449219 L 73.191406 204.382813 L 73.160156 204.242188 L 73.15625 204.167969 L 73.152344 204.089844 L 73.160156 203.941406 L 73.175781 203.875 L 73.191406 203.804688 L 73.214844 203.738281 L 73.242188 203.675781 L 73.3125 203.558594 L 73.355469 203.5 L 73.402344 203.445313 L 73.457031 203.394531 L 73.574219 203.308594 L 73.636719 203.277344 L 73.703125 203.246094 L 73.769531 203.222656 L 73.839844 203.203125 L 73.910156 203.191406 L 73.984375 203.183594 Z M 74.0625 203.179688 "/>
<path style=" stroke:none;fill-rule:nonzero;fill:rgb(30.196078%,30.196078%,30.196078%);fill-opacity:1;" d="M 60.300781 140.683594 L 60.300781 141.632813 L 54.742188 141.632813 L 54.742188 140.683594 L 57.109375 140.683594 L 57.109375 133.277344 L 54.910156 134.605469 L 54.390625 133.78125 L 57.261719 131.988281 L 58.296875 131.988281 L 58.296875 140.683594 Z M 60.300781 140.683594 "/>
<path style=" stroke:none;fill-rule:nonzero;fill:rgb(30.196078%,30.196078%,30.196078%);fill-opacity:1;" d="M 65.660156 131.835938 L 65.960938 131.847656 L 66.25 131.886719 L 66.519531 131.949219 L 66.773438 132.039063 L 67.015625 132.15625 L 67.242188 132.296875 L 67.453125 132.464844 L 67.652344 132.660156 L 67.832031 132.878906 L 68 133.121094 L 68.152344 133.386719 L 68.292969 133.675781 L 68.414063 133.988281 L 68.519531 134.324219 L 68.609375 134.679688 L 68.683594 135.058594 L 68.738281 135.460938 L 68.78125 135.886719 L 68.804688 136.332031 L 68.8125 136.804688 L 68.804688 137.277344 L 68.78125 137.726563 L 68.738281 138.15625 L 68.683594 138.558594 L 68.609375 138.941406 L 68.519531 139.300781 L 68.414063 139.640625 L 68.292969 139.953125 L 68.152344 140.246094 L 68 140.515625 L 67.832031 140.757813 L 67.652344 140.972656 L 67.453125 141.164063 L 67.242188 141.328125 L 67.015625 141.46875 L 66.773438 141.585938 L 66.519531 141.671875 L 66.25 141.738281 L 65.960938 141.773438 L 65.660156 141.789063 L 65.359375 141.773438 L 65.074219 141.738281 L 64.804688 141.671875 L 64.546875 141.585938 L 64.304688 141.46875 L 64.074219 141.328125 L 63.863281 141.164063 L 63.664063 140.972656 L 63.480469 140.757813 L 63.308594 140.515625 L 63.160156 140.246094 L 63.023438 139.953125 L 62.902344 139.640625 L 62.800781 139.300781 L 62.710938 138.941406 L 62.640625 138.558594 L 62.582031 138.15625 L 62.542969 137.726563 L 62.519531 137.277344 L 62.511719 136.804688 L 62.519531 136.332031 L 62.542969 135.886719 L 62.582031 135.460938 L 62.640625 135.058594 L 62.710938 134.679688 L 62.800781 134.324219 L 62.902344 133.988281 L 63.023438 133.675781 L 63.160156 133.386719 L 63.308594 133.121094 L 63.480469 132.878906 L 63.664063 132.660156 L 63.863281 132.464844 L 64.074219 132.296875 L 64.304688 132.15625 L 64.546875 132.039063 L 64.804688 131.949219 L 65.074219 131.886719 L 65.359375 131.847656 Z M 65.660156 132.785156 L 65.296875 132.828125 L 64.972656 132.945313 L 64.683594 133.148438 L 64.433594 133.429688 L 64.222656 133.789063 L 64.050781 134.234375 L 63.917969 134.753906 L 63.820313 135.359375 L 63.761719 136.039063 L 63.742188 136.804688 L 63.761719 137.570313 L 63.820313 138.253906 L 63.917969 138.859375 L 64.050781 139.382813 L 64.222656 139.828125 L 64.433594 140.191406 L 64.683594 140.472656 L 64.972656 140.675781 L 65.296875 140.796875 L 65.660156 140.835938 L 66.027344 140.796875 L 66.351563 140.675781 L 66.640625 140.472656 L 66.890625 140.191406 L 67.101563 139.828125 L 67.273438 139.382813 L 67.40625 138.859375 L 67.503906 138.253906 L 67.5625 137.570313 L 67.578125 136.804688 L 67.5625 136.039063 L 67.503906 135.359375 L 67.40625 134.753906 L 67.273438 134.234375 L 67.101563 133.789063 L 66.890625 133.429688 L 66.640625 133.148438 L 66.351563 132.945313 L 66.027344 132.828125 Z M 65.660156 135.894531 L 65.738281 135.898438 L 65.8125 135.90625 L 65.886719 135.917969 L 65.957031 135.9375 L 66.023438 135.960938 L 66.085938 135.988281 L 66.148438 136.023438 L 66.207031 136.0625 L 66.265625 136.109375 L 66.320313 136.160156 L 66.371094 136.214844 L 66.414063 136.269531 L 66.457031 136.328125 L 66.492188 136.390625 L 66.519531 136.453125 L 66.542969 136.519531 L 66.5625 136.585938 L 66.574219 136.65625 L 66.582031 136.730469 L 66.585938 136.804688 L 66.582031 136.882813 L 66.574219 136.957031 L 66.5625 137.027344 L 66.542969 137.097656 L 66.519531 137.164063 L 66.492188 137.230469 L 66.457031 137.292969 L 66.414063 137.351563 L 66.371094 137.40625 L 66.320313 137.460938 L 66.265625 137.511719 L 66.207031 137.558594 L 66.148438 137.597656 L 66.085938 137.632813 L 66.023438 137.660156 L 65.957031 137.6875 L 65.886719 137.703125 L 65.8125 137.71875 L 65.738281 137.726563 L 65.585938 137.726563 L 65.511719 137.71875 L 65.4375 137.703125 L 65.367188 137.6875 L 65.300781 137.660156 L 65.238281 137.632813 L 65.175781 137.597656 L 65.117188 137.558594 L 65.058594 137.511719 L 65.003906 137.460938 L 64.957031 137.40625 L 64.914063 137.351563 L 64.875 137.292969 L 64.84375 137.230469 L 64.816406 137.164063 L 64.792969 137.097656 L 64.773438 137.027344 L 64.761719 136.957031 L 64.753906 136.882813 L 64.753906 136.730469 L 64.761719 136.65625 L 64.773438 136.585938 L 64.792969 136.519531 L 64.816406 136.453125 L 64.84375 136.390625 L 64.875 136.328125 L 64.914063 136.269531 L 64.957031 136.214844 L 65.003906 136.160156 L 65.058594 136.109375 L 65.117188 136.0625 L 65.175781 136.023438 L 65.238281 135.988281 L 65.300781 135.960938 L 65.367188 135.9375 L 65.4375 135.917969 L 65.511719 135.90625 L 65.585938 135.898438 Z M 65.660156 135.894531 "/>
<path style=" stroke:none;fill-rule:nonzero;fill:rgb(30.196078%,30.196078%,30.196078%);fill-opacity:1;" d="M 74.0625 131.835938 L 74.363281 131.847656 L 74.648438 131.886719 L 74.917969 131.949219 L 75.175781 132.039063 L 75.417969 132.15625 L 75.644531 132.296875 L 75.855469 132.464844 L 76.050781 132.660156 L 76.234375 132.878906 L 76.398438 133.121094 L 76.554688 133.386719 L 76.691406 133.675781 L 76.8125 133.988281 L 76.917969 134.324219 L 77.007813 134.679688 L 77.082031 135.058594 L 77.140625 135.460938 L 77.179688 135.886719 L 77.203125 136.332031 L 77.210938 136.804688 L 77.203125 137.277344 L 77.179688 137.726563 L 77.140625 138.15625 L 77.082031 138.558594 L 77.007813 138.941406 L 76.917969 139.300781 L 76.8125 139.640625 L 76.691406 139.953125 L 76.554688 140.246094 L 76.398438 140.515625 L 76.234375 140.757813 L 76.050781 140.972656 L 75.855469 141.164063 L 75.644531 141.328125 L 75.417969 141.46875 L 75.175781 141.585938 L 74.917969 141.671875 L 74.648438 141.738281 L 74.363281 141.773438 L 74.0625 141.789063 L 73.761719 141.773438 L 73.476563 141.738281 L 73.203125 141.671875 L 72.945313 141.585938 L 72.703125 141.46875 L 72.476563 141.328125 L 72.261719 141.164063 L 72.0625 140.972656 L 71.878906 140.757813 L 71.710938 140.515625 L 71.558594 140.246094 L 71.421875 139.953125 L 71.304688 139.640625 L 71.199219 139.300781 L 71.113281 138.941406 L 71.039063 138.558594 L 70.984375 138.15625 L 70.945313 137.726563 L 70.921875 137.277344 L 70.910156 136.804688 L 70.921875 136.332031 L 70.945313 135.886719 L 70.984375 135.460938 L 71.039063 135.058594 L 71.113281 134.679688 L 71.199219 134.324219 L 71.304688 133.988281 L 71.421875 133.675781 L 71.558594 133.386719 L 71.710938 133.121094 L 71.878906 132.878906 L 72.0625 132.660156 L 72.261719 132.464844 L 72.476563 132.296875 L 72.703125 132.15625 L 72.945313 132.039063 L 73.203125 131.949219 L 73.476563 131.886719 L 73.761719 131.847656 Z M 74.0625 132.785156 L 73.699219 132.828125 L 73.371094 132.945313 L 73.082031 133.148438 L 72.835938 133.429688 L 72.625 133.789063 L 72.449219 134.234375 L 72.316406 134.753906 L 72.222656 135.359375 L 72.164063 136.039063 L 72.144531 136.804688 L 72.164063 137.570313 L 72.222656 138.253906 L 72.316406 138.859375 L 72.449219 139.382813 L 72.625 139.828125 L 72.835938 140.191406 L 73.082031 140.472656 L 73.371094 140.675781 L 73.699219 140.796875 L 74.0625 140.835938 L 74.425781 140.796875 L 74.753906 140.675781 L 75.039063 140.472656 L 75.289063 140.191406 L 75.5 139.828125 L 75.671875 139.382813 L 75.808594 138.859375 L 75.902344 138.253906 L 75.960938 137.570313 L 75.980469 136.804688 L 75.960938 136.039063 L 75.902344 135.359375 L 75.808594 134.753906 L 75.671875 134.234375 L 75.5 133.789063 L 75.289063 133.429688 L 75.039063 133.148438 L 74.753906 132.945313 L 74.425781 132.828125 Z M 74.0625 135.894531 L 74.140625 135.898438 L 74.214844 135.90625 L 74.285156 135.917969 L 74.355469 135.9375 L 74.421875 135.960938 L 74.488281 135.988281 L 74.550781 136.023438 L 74.609375 136.0625 L 74.664063 136.109375 L 74.71875 136.160156 L 74.769531 136.214844 L 74.816406 136.269531 L 74.855469 136.328125 L 74.890625 136.390625 L 74.917969 136.453125 L 74.945313 136.519531 L 74.960938 136.585938 L 74.976563 136.65625 L 74.984375 136.730469 L 74.984375 136.882813 L 74.976563 136.957031 L 74.945313 137.097656 L 74.890625 137.230469 L 74.855469 137.292969 L 74.816406 137.351563 L 74.769531 137.40625 L 74.71875 137.460938 L 74.664063 137.511719 L 74.609375 137.558594 L 74.550781 137.597656 L 74.488281 137.632813 L 74.355469 137.6875 L 74.214844 137.71875 L 74.140625 137.726563 L 73.984375 137.726563 L 73.910156 137.71875 L 73.769531 137.6875 L 73.636719 137.632813 L 73.574219 137.597656 L 73.515625 137.558594 L 73.457031 137.511719 L 73.402344 137.460938 L 73.355469 137.40625 L 73.3125 137.351563 L 73.277344 137.292969 L 73.242188 137.230469 L 73.214844 137.164063 L 73.191406 137.097656 L 73.160156 136.957031 L 73.15625 136.882813 L 73.152344 136.804688 L 73.160156 136.65625 L 73.175781 136.585938 L 73.191406 136.519531 L 73.214844 136.453125 L 73.242188 136.390625 L 73.277344 136.328125 L 73.3125 136.269531 L 73.355469 136.214844 L 73.402344 136.160156 L 73.457031 136.109375 L 73.515625 136.0625 L 73.574219 136.023438 L 73.636719 135.988281 L 73.703125 135.960938 L 73.769531 135.9375 L 73.839844 135.917969 L 73.910156 135.90625 L 73.984375 135.898438 Z M 74.0625 135.894531 "/>
<path style=" stroke:none;fill-rule:nonzero;fill:rgb(30.196078%,30.196078%,30.196078%);fill-opacity:1;" d="M 60.300781 73.394531 L 60.300781 74.347656 L 54.742188 74.347656 L 54.742188 73.394531 L 57.109375 73.394531 L 57.109375 65.992188 L 54.910156 67.320313 L 54.390625 66.496094 L 57.261719 64.703125 L 58.296875 64.703125 L 58.296875 73.394531 Z M 60.300781 73.394531 "/>
<path style=" stroke:none;fill-rule:nonzero;fill:rgb(30.196078%,30.196078%,30.196078%);fill-opacity:1;" d="M 68.113281 65.65625 L 64.304688 65.65625 L 64.304688 68.691406 L 64.386719 68.644531 L 64.464844 68.601563 L 64.546875 68.5625 L 64.625 68.527344 L 64.707031 68.492188 L 64.785156 68.460938 L 64.867188 68.433594 L 64.945313 68.410156 L 65.101563 68.371094 L 65.183594 68.351563 L 65.347656 68.320313 L 65.519531 68.296875 L 65.691406 68.28125 L 65.777344 68.277344 L 65.867188 68.273438 L 65.957031 68.273438 L 66.191406 68.28125 L 66.417969 68.304688 L 66.632813 68.34375 L 66.839844 68.398438 L 67.039063 68.472656 L 67.222656 68.558594 L 67.402344 68.664063 L 67.570313 68.78125 L 67.726563 68.917969 L 67.875 69.070313 L 68.011719 69.234375 L 68.136719 69.414063 L 68.246094 69.605469 L 68.339844 69.808594 L 68.421875 70.027344 L 68.484375 70.253906 L 68.535156 70.496094 L 68.574219 70.75 L 68.59375 71.015625 L 68.601563 71.296875 L 68.597656 71.484375 L 68.585938 71.667969 L 68.566406 71.847656 L 68.535156 72.023438 L 68.5 72.191406 L 68.457031 72.359375 L 68.402344 72.519531 L 68.34375 72.675781 L 68.273438 72.828125 L 68.195313 72.976563 L 68.113281 73.117188 L 68.023438 73.253906 L 67.929688 73.382813 L 67.828125 73.507813 L 67.714844 73.625 L 67.597656 73.734375 L 67.476563 73.835938 L 67.34375 73.933594 L 67.207031 74.027344 L 67.0625 74.109375 L 66.910156 74.183594 L 66.753906 74.25 L 66.59375 74.308594 L 66.429688 74.359375 L 66.261719 74.40625 L 66.085938 74.441406 L 65.90625 74.46875 L 65.722656 74.488281 L 65.535156 74.5 L 65.339844 74.503906 L 65.023438 74.492188 L 64.710938 74.457031 L 64.410156 74.398438 L 64.121094 74.320313 L 63.835938 74.214844 L 63.558594 74.089844 L 63.292969 73.941406 L 63.03125 73.769531 L 62.78125 73.574219 L 62.539063 73.355469 L 63.269531 72.640625 L 63.449219 72.8125 L 63.632813 72.964844 L 63.824219 73.097656 L 64.023438 73.214844 L 64.226563 73.3125 L 64.4375 73.394531 L 64.652344 73.457031 L 64.875 73.5 L 65.105469 73.527344 L 65.339844 73.535156 L 65.527344 73.53125 L 65.710938 73.511719 L 65.878906 73.484375 L 66.042969 73.441406 L 66.199219 73.390625 L 66.34375 73.324219 L 66.480469 73.25 L 66.609375 73.160156 L 66.726563 73.058594 L 66.839844 72.949219 L 66.9375 72.824219 L 67.03125 72.691406 L 67.109375 72.550781 L 67.179688 72.394531 L 67.238281 72.230469 L 67.285156 72.054688 L 67.320313 71.871094 L 67.347656 71.675781 L 67.363281 71.46875 L 67.371094 71.253906 L 67.367188 71.042969 L 67.351563 70.84375 L 67.328125 70.65625 L 67.292969 70.480469 L 67.25 70.316406 L 67.199219 70.164063 L 67.136719 70.027344 L 67.066406 69.902344 L 66.984375 69.789063 L 66.894531 69.6875 L 66.796875 69.59375 L 66.691406 69.511719 L 66.578125 69.4375 L 66.460938 69.371094 L 66.335938 69.320313 L 66.207031 69.273438 L 66.070313 69.242188 L 65.925781 69.214844 L 65.777344 69.203125 L 65.621094 69.195313 L 65.546875 69.195313 L 65.398438 69.203125 L 65.328125 69.207031 L 65.257813 69.214844 L 65.125 69.230469 L 65.058594 69.242188 L 64.933594 69.265625 L 64.871094 69.28125 L 64.804688 69.296875 L 64.730469 69.320313 L 64.65625 69.339844 L 64.578125 69.363281 L 64.40625 69.417969 L 64.316406 69.449219 L 64.222656 69.484375 L 64.121094 69.519531 L 63.171875 69.519531 L 63.171875 64.703125 L 68.28125 64.703125 Z M 68.113281 65.65625 "/>
<path style=" stroke:none;fill-rule:nonzero;fill:rgb(30.196078%,30.196078%,30.196078%);fill-opacity:1;" d="M 74.0625 64.546875 L 74.363281 64.5625 L 74.648438 64.601563 L 74.917969 64.664063 L 75.175781 64.753906 L 75.417969 64.871094 L 75.644531 65.011719 L 75.855469 65.179688 L 76.050781 65.371094 L 76.234375 65.589844 L 76.398438 65.835938 L 76.554688 66.101563 L 76.691406 66.390625 L 76.8125 66.703125 L 76.917969 67.035156 L 77.007813 67.394531 L 77.082031 67.773438 L 77.140625 68.175781 L 77.179688 68.601563 L 77.203125 69.046875 L 77.210938 69.519531 L 77.203125 69.992188 L 77.179688 70.441406 L 77.140625 70.871094 L 77.082031 71.273438 L 77.007813 71.65625 L 76.917969 72.015625 L 76.8125 72.351563 L 76.691406 72.667969 L 76.554688 72.960938 L 76.398438 73.226563 L 76.234375 73.46875 L 76.050781 73.6875 L 75.855469 73.878906 L 75.644531 74.042969 L 75.417969 74.183594 L 75.175781 74.296875 L 74.917969 74.386719 L 74.648438 74.453125 L 74.363281 74.488281 L 74.0625 74.503906 L 73.761719 74.488281 L 73.476563 74.453125 L 73.203125 74.386719 L 72.945313 74.296875 L 72.703125 74.183594 L 72.476563 74.042969 L 72.261719 73.878906 L 72.0625 73.6875 L 71.878906 73.46875 L 71.710938 73.226563 L 71.558594 72.960938 L 71.421875 72.667969 L 71.304688 72.351563 L 71.199219 72.015625 L 71.113281 71.65625 L 71.039063 71.273438 L 70.984375 70.871094 L 70.945313 70.441406 L 70.921875 69.992188 L 70.910156 69.519531 L 70.921875 69.046875 L 70.945313 68.601563 L 70.984375 68.175781 L 71.039063 67.773438 L 71.113281 67.394531 L 71.199219 67.035156 L 71.304688 66.703125 L 71.421875 66.390625 L 71.558594 66.101563 L 71.710938 65.835938 L 71.878906 65.589844 L 72.0625 65.371094 L 72.261719 65.179688 L 72.476563 65.011719 L 72.703125 64.871094 L 72.945313 64.753906 L 73.203125 64.664063 L 73.476563 64.601563 L 73.761719 64.5625 Z M 74.0625 65.5 L 73.699219 65.539063 L 73.371094 65.660156 L 73.082031 65.863281 L 72.835938 66.144531 L 72.625 66.503906 L 72.449219 66.945313 L 72.316406 67.46875 L 72.222656 68.070313 L 72.164063 68.753906 L 72.144531 69.519531 L 72.164063 70.285156 L 72.222656 70.96875 L 72.316406 71.574219 L 72.449219 72.097656 L 72.625 72.542969 L 72.835938 72.90625 L 73.082031 73.1875 L 73.371094 73.390625 L 73.699219 73.511719 L 74.0625 73.550781 L 74.425781 73.511719 L 74.753906 73.390625 L 75.039063 73.1875 L 75.289063 72.90625 L 75.5 72.542969 L 75.671875 72.097656 L 75.808594 71.574219 L 75.902344 70.96875 L 75.960938 70.285156 L 75.980469 69.519531 L 75.960938 68.753906 L 75.902344 68.070313 L 75.808594 67.46875 L 75.671875 66.945313 L 75.5 66.503906 L 75.289063 66.144531 L 75.039063 65.863281 L 74.753906 65.660156 L 74.425781 65.539063 Z M 74.0625 68.609375 L 74.140625 68.609375 L 74.214844 68.617188 L 74.285156 68.632813 L 74.355469 68.652344 L 74.421875 68.675781 L 74.488281 68.703125 L 74.550781 68.738281 L 74.609375 68.777344 L 74.664063 68.824219 L 74.71875 68.875 L 74.769531 68.929688 L 74.816406 68.984375 L 74.855469 69.042969 L 74.890625 69.105469 L 74.917969 69.167969 L 74.945313 69.234375 L 74.960938 69.300781 L 74.976563 69.371094 L 74.984375 69.445313 L 74.984375 69.59375 L 74.976563 69.671875 L 74.945313 69.8125 L 74.890625 69.945313 L 74.855469 70.003906 L 74.816406 70.066406 L 74.769531 70.121094 L 74.71875 70.175781 L 74.664063 70.226563 L 74.609375 70.273438 L 74.550781 70.3125 L 74.488281 70.347656 L 74.421875 70.375 L 74.355469 70.398438 L 74.285156 70.417969 L 74.214844 70.433594 L 74.140625 70.441406 L 73.984375 70.441406 L 73.910156 70.433594 L 73.839844 70.417969 L 73.769531 70.398438 L 73.703125 70.375 L 73.636719 70.347656 L 73.574219 70.3125 L 73.515625 70.273438 L 73.457031 70.226563 L 73.402344 70.175781 L 73.355469 70.121094 L 73.3125 70.066406 L 73.277344 70.003906 L 73.242188 69.945313 L 73.214844 69.878906 L 73.191406 69.8125 L 73.160156 69.671875 L 73.15625 69.59375 L 73.152344 69.519531 L 73.160156 69.371094 L 73.175781 69.300781 L 73.191406 69.234375 L 73.214844 69.167969 L 73.242188 69.105469 L 73.277344 69.042969 L 73.3125 68.984375 L 73.355469 68.929688 L 73.402344 68.875 L 73.457031 68.824219 L 73.515625 68.777344 L 73.574219 68.738281 L 73.636719 68.703125 L 73.703125 68.675781 L 73.769531 68.652344 L 73.839844 68.632813 L 73.910156 68.617188 L 73.984375 68.609375 Z M 74.0625 68.609375 "/>
<path style="fill:none;stroke-width:1.115477;stroke-linecap:butt;stroke-linejoin:round;stroke:rgb(66.27451%,66.27451%,66.27451%);stroke-opacity:1;stroke-miterlimit:10;" d="M 81.125 282.957031 L 511.652344 282.957031 "/>
<path style=" stroke:none;fill-rule:nonzero;fill:rgb(30.196078%,30.196078%,30.196078%);fill-opacity:1;" d="M 144.777344 294.515625 L 144.777344 295.464844 L 139.21875 295.464844 L 139.21875 294.515625 L 141.582031 294.515625 L 141.582031 287.109375 L 139.386719 288.4375 L 138.867188 287.613281 L 141.738281 285.820313 L 142.773438 285.820313 L 142.773438 294.515625 Z M 144.777344 294.515625 "/>
<path style=" stroke:none;fill-rule:nonzero;fill:rgb(30.196078%,30.196078%,30.196078%);fill-opacity:1;" d="M 236.160156 285.667969 L 236.335938 285.667969 L 236.503906 285.679688 L 236.671875 285.699219 L 236.832031 285.722656 L 236.988281 285.753906 L 237.140625 285.792969 L 237.285156 285.835938 L 237.429688 285.890625 L 237.566406 285.949219 L 237.703125 286.015625 L 237.832031 286.089844 L 237.957031 286.167969 L 238.074219 286.25 L 238.1875 286.339844 L 238.292969 286.433594 L 238.390625 286.53125 L 238.484375 286.636719 L 238.570313 286.746094 L 238.648438 286.863281 L 238.722656 286.980469 L 238.789063 287.105469 L 238.847656 287.230469 L 238.902344 287.359375 L 238.949219 287.492188 L 238.984375 287.625 L 239.015625 287.765625 L 239.042969 287.90625 L 239.058594 288.054688 L 239.070313 288.203125 L 239.074219 288.355469 L 239.070313 288.53125 L 239.054688 288.710938 L 239.035156 288.886719 L 239.007813 289.0625 L 238.96875 289.234375 L 238.921875 289.410156 L 238.867188 289.582031 L 238.804688 289.75 L 238.734375 289.921875 L 238.652344 290.089844 L 238.566406 290.257813 L 238.472656 290.433594 L 238.363281 290.609375 L 238.246094 290.789063 L 238.121094 290.972656 L 237.984375 291.160156 L 237.839844 291.347656 L 237.679688 291.542969 L 237.515625 291.738281 L 237.335938 291.9375 L 237.148438 292.140625 L 236.941406 292.355469 L 236.722656 292.582031 L 236.488281 292.820313 L 236.238281 293.066406 L 235.972656 293.324219 L 235.691406 293.589844 L 235.398438 293.867188 L 235.085938 294.15625 L 234.761719 294.457031 L 239.296875 294.457031 L 239.15625 295.464844 L 233.417969 295.464844 L 233.417969 294.515625 L 233.785156 294.160156 L 234.132813 293.824219 L 234.464844 293.5 L 234.773438 293.195313 L 235.0625 292.902344 L 235.332031 292.628906 L 235.582031 292.371094 L 235.8125 292.125 L 236.027344 291.898438 L 236.21875 291.6875 L 236.394531 291.484375 L 236.5625 291.289063 L 236.71875 291.097656 L 236.863281 290.914063 L 236.996094 290.738281 L 237.121094 290.566406 L 237.230469 290.398438 L 237.328125 290.238281 L 237.414063 290.085938 L 237.492188 289.9375 L 237.558594 289.789063 L 237.617188 289.640625 L 237.667969 289.492188 L 237.714844 289.339844 L 237.753906 289.1875 L 237.785156 289.03125 L 237.808594 288.875 L 237.828125 288.71875 L 237.835938 288.558594 L 237.839844 288.394531 L 237.835938 288.238281 L 237.824219 288.085938 L 237.800781 287.941406 L 237.765625 287.800781 L 237.726563 287.671875 L 237.675781 287.546875 L 237.613281 287.429688 L 237.546875 287.320313 L 237.46875 287.21875 L 237.378906 287.121094 L 237.285156 287.035156 L 237.179688 286.957031 L 237.070313 286.886719 L 236.953125 286.828125 L 236.828125 286.777344 L 236.699219 286.734375 L 236.5625 286.703125 L 236.417969 286.679688 L 236.265625 286.664063 L 236.105469 286.660156 L 235.96875 286.664063 L 235.839844 286.667969 L 235.714844 286.679688 L 235.59375 286.699219 L 235.476563 286.71875 L 235.363281 286.746094 L 235.253906 286.777344 L 235.152344 286.8125 L 235.050781 286.851563 L 234.957031 286.898438 L 234.867188 286.945313 L 234.777344 287 L 234.6875 287.0625 L 234.59375 287.132813 L 234.503906 287.207031 L 234.410156 287.289063 L 234.316406 287.375 L 234.222656 287.472656 L 234.128906 287.574219 L 234.035156 287.683594 L 233.222656 287.050781 L 233.335938 286.914063 L 233.457031 286.78125 L 233.578125 286.65625 L 233.699219 286.542969 L 233.828125 286.433594 L 233.957031 286.332031 L 234.085938 286.238281 L 234.21875 286.152344 L 234.355469 286.074219 L 234.496094 286.003906 L 234.640625 285.9375 L 234.789063 285.882813 L 234.945313 285.832031 L 235.105469 285.785156 L 235.269531 285.75 L 235.4375 285.71875 L 235.613281 285.695313 L 235.789063 285.679688 L 235.972656 285.667969 Z M 236.160156 285.667969 "/>
<path style=" stroke:none;fill-rule:nonzero;fill:rgb(30.196078%,30.196078%,30.196078%);fill-opacity:1;" d="M 331.019531 285.667969 L 331.195313 285.667969 L 331.363281 285.679688 L 331.53125 285.695313 L 331.691406 285.71875 L 331.847656 285.75 L 332 285.785156 L 332.152344 285.832031 L 332.296875 285.882813 L 332.4375 285.9375 L 332.574219 286.003906 L 332.703125 286.070313 L 332.828125 286.140625 L 332.949219 286.214844 L 333.0625 286.296875 L 333.167969 286.382813 L 333.269531 286.472656 L 333.363281 286.570313 L 333.449219 286.667969 L 333.53125 286.773438 L 333.609375 286.882813 L 333.679688 286.996094 L 333.738281 287.105469 L 333.792969 287.222656 L 333.84375 287.339844 L 333.882813 287.457031 L 333.914063 287.578125 L 333.941406 287.703125 L 333.957031 287.828125 L 333.96875 287.957031 L 333.972656 288.089844 L 333.96875 288.253906 L 333.953125 288.414063 L 333.925781 288.574219 L 333.886719 288.726563 L 333.835938 288.875 L 333.777344 289.019531 L 333.707031 289.160156 L 333.625 289.296875 L 333.53125 289.429688 L 333.425781 289.558594 L 333.316406 289.675781 L 333.199219 289.785156 L 333.078125 289.886719 L 332.953125 289.976563 L 332.820313 290.058594 L 332.6875 290.132813 L 332.546875 290.195313 L 332.402344 290.246094 L 332.25 290.292969 L 332.097656 290.328125 L 332.277344 290.347656 L 332.449219 290.378906 L 332.617188 290.417969 L 332.78125 290.472656 L 332.9375 290.535156 L 333.089844 290.609375 L 333.234375 290.695313 L 333.375 290.789063 L 333.507813 290.894531 L 333.636719 291.015625 L 333.757813 291.140625 L 333.867188 291.277344 L 333.964844 291.425781 L 334.050781 291.578125 L 334.121094 291.742188 L 334.179688 291.914063 L 334.222656 292.097656 L 334.253906 292.285156 L 334.273438 292.484375 L 334.28125 292.695313 L 334.277344 292.859375 L 334.265625 293.019531 L 334.242188 293.175781 L 334.214844 293.332031 L 334.175781 293.480469 L 334.128906 293.628906 L 334.074219 293.773438 L 334.011719 293.917969 L 333.941406 294.054688 L 333.859375 294.191406 L 333.773438 294.324219 L 333.679688 294.449219 L 333.578125 294.570313 L 333.46875 294.683594 L 333.355469 294.789063 L 333.230469 294.894531 L 333.101563 294.988281 L 332.964844 295.078125 L 332.820313 295.164063 L 332.671875 295.242188 L 332.519531 295.3125 L 332.359375 295.378906 L 332.199219 295.433594 L 332.03125 295.484375 L 331.859375 295.527344 L 331.683594 295.558594 L 331.503906 295.585938 L 331.316406 295.605469 L 331.128906 295.617188 L 330.933594 295.621094 L 330.765625 295.617188 L 330.597656 295.605469 L 330.425781 295.589844 L 330.261719 295.570313 L 330.09375 295.539063 L 329.929688 295.503906 L 329.765625 295.460938 L 329.605469 295.414063 L 329.441406 295.359375 L 329.28125 295.296875 L 329.128906 295.230469 L 328.980469 295.15625 L 328.835938 295.078125 L 328.699219 294.992188 L 328.566406 294.898438 L 328.4375 294.800781 L 328.316406 294.695313 L 328.199219 294.585938 L 328.085938 294.46875 L 327.980469 294.347656 L 328.765625 293.703125 L 328.84375 293.792969 L 328.929688 293.878906 L 329.015625 293.960938 L 329.105469 294.039063 L 329.199219 294.113281 L 329.394531 294.246094 L 329.5 294.308594 L 329.605469 294.363281 L 329.71875 294.417969 L 329.832031 294.460938 L 330.066406 294.539063 L 330.183594 294.570313 L 330.300781 294.59375 L 330.421875 294.617188 L 330.542969 294.632813 L 330.664063 294.644531 L 330.785156 294.652344 L 330.90625 294.652344 L 331.105469 294.648438 L 331.292969 294.632813 L 331.472656 294.609375 L 331.640625 294.570313 L 331.804688 294.523438 L 331.957031 294.46875 L 332.097656 294.398438 L 332.234375 294.324219 L 332.359375 294.234375 L 332.476563 294.136719 L 332.585938 294.027344 L 332.683594 293.90625 L 332.769531 293.78125 L 332.84375 293.648438 L 332.90625 293.507813 L 332.957031 293.363281 L 332.996094 293.207031 L 333.027344 293.042969 L 333.042969 292.871094 L 333.050781 292.695313 L 333.027344 292.34375 L 332.96875 292.035156 L 332.867188 291.757813 L 332.730469 291.519531 L 332.546875 291.320313 L 332.328125 291.152344 L 332.066406 291.023438 L 331.769531 290.933594 L 331.425781 290.878906 L 331.046875 290.859375 L 330.25 290.859375 L 330.390625 289.921875 L 330.964844 289.921875 L 331.113281 289.917969 L 331.257813 289.90625 L 331.398438 289.882813 L 331.53125 289.855469 L 331.664063 289.816406 L 331.789063 289.769531 L 331.910156 289.714844 L 332.03125 289.652344 L 332.140625 289.582031 L 332.25 289.503906 L 332.351563 289.410156 L 332.441406 289.3125 L 332.523438 289.207031 L 332.589844 289.09375 L 332.648438 288.96875 L 332.699219 288.839844 L 332.734375 288.703125 L 332.761719 288.558594 L 332.777344 288.402344 L 332.78125 288.242188 L 332.777344 288.089844 L 332.761719 287.949219 L 332.738281 287.8125 L 332.699219 287.683594 L 332.652344 287.558594 L 332.597656 287.445313 L 332.527344 287.335938 L 332.453125 287.234375 L 332.363281 287.140625 L 332.265625 287.050781 L 332.160156 286.96875 L 332.050781 286.894531 L 331.9375 286.832031 L 331.816406 286.773438 L 331.6875 286.726563 L 331.554688 286.6875 L 331.414063 286.65625 L 331.269531 286.636719 L 331.121094 286.621094 L 330.964844 286.617188 L 330.84375 286.621094 L 330.726563 286.625 L 330.613281 286.636719 L 330.5 286.652344 L 330.390625 286.671875 L 330.285156 286.695313 L 330.183594 286.722656 L 330.082031 286.753906 L 329.980469 286.789063 L 329.886719 286.828125 L 329.792969 286.871094 L 329.699219 286.921875 L 329.605469 286.976563 L 329.507813 287.035156 L 329.414063 287.101563 L 329.316406 287.171875 L 329.21875 287.246094 L 329.117188 287.324219 L 329.019531 287.410156 L 328.917969 287.5 L 328.273438 286.785156 L 328.515625 286.574219 L 328.761719 286.382813 L 329.015625 286.214844 L 329.277344 286.070313 L 329.550781 285.945313 L 329.828125 285.84375 L 330.113281 285.765625 L 330.40625 285.710938 L 330.710938 285.675781 Z M 331.019531 285.667969 "/>
<path style=" stroke:none;fill-rule:nonzero;fill:rgb(30.196078%,30.196078%,30.196078%);fill-opacity:1;" d="M 429.503906 293.128906 L 428.257813 293.128906 L 428.257813 295.464844 L 427.121094 295.464844 L 427.121094 293.128906 L 423.117188 293.128906 L 423.117188 292.261719 L 425.945313 285.667969 L 426.925781 286.085938 L 424.363281 292.175781 L 427.136719 292.175781 L 427.234375 289.445313 L 428.257813 289.445313 L 428.257813 292.175781 L 429.503906 292.175781 Z M 429.503906 293.128906 "/>
<path style=" stroke:none;fill-rule:nonzero;fill:rgb(0%,0%,0%);fill-opacity:1;" d="M 444.765625 313.917969 L 444.597656 313.910156 L 444.433594 313.894531 L 444.28125 313.871094 L 444.132813 313.832031 L 443.992188 313.785156 L 443.859375 313.726563 L 443.730469 313.660156 L 443.613281 313.582031 L 443.5 313.492188 L 443.398438 313.394531 L 443.300781 313.285156 L 443.214844 313.167969 L 443.140625 313.042969 L 443.074219 312.910156 L 443.019531 312.769531 L 442.972656 312.617188 L 442.9375 312.460938 L 442.914063 312.292969 L 442.898438 312.121094 L 442.894531 311.9375 L 442.894531 300.378906 L 444.511719 300.199219 L 444.511719 311.882813 L 444.519531 312.015625 L 444.535156 312.136719 L 444.566406 312.242188 L 444.605469 312.332031 L 444.65625 312.410156 L 444.722656 312.472656 L 444.796875 312.519531 L 444.882813 312.554688 L 444.980469 312.578125 L 445.089844 312.585938 L 445.183594 312.578125 L 445.234375 312.574219 L 445.335938 312.558594 L 445.390625 312.546875 L 445.5 312.515625 L 445.554688 312.496094 L 445.613281 312.476563 L 445.972656 313.609375 L 445.855469 313.667969 L 445.738281 313.71875 L 445.621094 313.765625 L 445.503906 313.804688 L 445.382813 313.839844 L 445.261719 313.867188 L 445.140625 313.890625 L 444.890625 313.914063 Z M 444.765625 313.917969 "/>
<path style=" stroke:none;fill-rule:nonzero;fill:rgb(0%,0%,0%);fill-opacity:1;" d="M 451.03125 303.980469 L 451.386719 303.992188 L 451.722656 304.03125 L 452.046875 304.09375 L 452.355469 304.183594 L 452.644531 304.300781 L 452.917969 304.441406 L 453.179688 304.605469 L 453.421875 304.796875 L 453.644531 305.015625 L 453.855469 305.257813 L 454.046875 305.523438 L 454.21875 305.8125 L 454.371094 306.125 L 454.5 306.460938 L 454.613281 306.816406 L 454.703125 307.195313 L 454.773438 307.59375 L 454.824219 308.015625 L 454.851563 308.460938 L 454.863281 308.929688 L 454.851563 309.382813 L 454.824219 309.8125 L 454.769531 310.226563 L 454.699219 310.621094 L 454.605469 310.996094 L 454.496094 311.351563 L 454.359375 311.6875 L 454.207031 312.007813 L 454.03125 312.304688 L 453.835938 312.585938 L 453.625 312.835938 L 453.394531 313.0625 L 453.152344 313.261719 L 452.894531 313.4375 L 452.617188 313.582031 L 452.328125 313.703125 L 452.023438 313.796875 L 451.699219 313.863281 L 451.363281 313.902344 L 451.011719 313.917969 L 450.65625 313.902344 L 450.316406 313.863281 L 449.992188 313.796875 L 449.683594 313.707031 L 449.390625 313.585938 L 449.113281 313.441406 L 448.855469 313.273438 L 448.609375 313.074219 L 448.378906 312.851563 L 448.167969 312.601563 L 447.976563 312.328125 L 447.804688 312.035156 L 447.652344 311.722656 L 447.523438 311.386719 L 447.410156 311.03125 L 447.320313 310.65625 L 447.25 310.261719 L 447.199219 309.84375 L 447.167969 309.40625 L 447.160156 308.949219 L 447.167969 308.488281 L 447.199219 308.046875 L 447.25 307.628906 L 447.324219 307.230469 L 447.417969 306.855469 L 447.527344 306.5 L 447.664063 306.167969 L 447.816406 305.855469 L 447.992188 305.5625 L 448.183594 305.292969 L 448.398438 305.042969 L 448.628906 304.820313 L 448.871094 304.625 L 449.132813 304.453125 L 449.410156 304.308594 L 449.703125 304.191406 L 450.011719 304.097656 L 450.335938 304.03125 L 450.675781 303.992188 Z M 451.03125 305.277344 L 450.820313 305.285156 L 450.625 305.3125 L 450.4375 305.355469 L 450.261719 305.421875 L 450.09375 305.5 L 449.9375 305.601563 L 449.789063 305.71875 L 449.652344 305.851563 L 449.527344 306.003906 L 449.410156 306.175781 L 449.304688 306.363281 L 449.207031 306.570313 L 449.125 306.796875 L 449.050781 307.042969 L 448.992188 307.308594 L 448.941406 307.597656 L 448.902344 307.90625 L 448.875 308.234375 L 448.855469 308.582031 L 448.851563 308.949219 L 448.875 309.648438 L 448.9375 310.277344 L 449.046875 310.832031 L 449.195313 311.308594 L 449.390625 311.714844 L 449.628906 312.046875 L 449.910156 312.304688 L 450.234375 312.492188 L 450.601563 312.601563 L 451.011719 312.636719 L 451.421875 312.601563 L 451.789063 312.488281 L 452.113281 312.304688 L 452.394531 312.046875 L 452.632813 311.710938 L 452.824219 311.304688 L 452.976563 310.820313 L 453.085938 310.265625 L 453.148438 309.636719 L 453.171875 308.929688 L 453.167969 308.5625 L 453.148438 308.214844 L 453.121094 307.886719 L 453.085938 307.578125 L 453.035156 307.292969 L 452.976563 307.023438 L 452.90625 306.777344 L 452.824219 306.550781 L 452.734375 306.34375 L 452.632813 306.160156 L 452.519531 305.992188 L 452.394531 305.839844 L 452.261719 305.707031 L 452.117188 305.59375 L 451.960938 305.496094 L 451.796875 305.417969 L 451.621094 305.355469 L 451.433594 305.3125 L 451.238281 305.285156 Z M 451.03125 305.277344 "/>
<path style=" stroke:none;fill-rule:nonzero;fill:rgb(0%,0%,0%);fill-opacity:1;" d="M 464.152344 304.554688 L 463.988281 304.613281 L 463.808594 304.667969 L 463.609375 304.710938 L 463.398438 304.753906 L 463.167969 304.785156 L 462.917969 304.8125 L 462.652344 304.835938 L 462.371094 304.851563 L 462.074219 304.859375 L 461.757813 304.863281 L 462.042969 305.023438 L 462.300781 305.203125 L 462.527344 305.402344 L 462.726563 305.621094 L 462.890625 305.859375 L 463.027344 306.121094 L 463.132813 306.398438 L 463.210938 306.695313 L 463.253906 307.011719 L 463.269531 307.347656 L 463.261719 307.625 L 463.234375 307.894531 L 463.1875 308.152344 L 463.125 308.398438 L 463.042969 308.632813 L 462.945313 308.859375 L 462.828125 309.074219 L 462.695313 309.277344 L 462.539063 309.46875 L 462.371094 309.648438 L 462.1875 309.816406 L 461.992188 309.960938 L 461.78125 310.089844 L 461.558594 310.203125 L 461.324219 310.296875 L 461.078125 310.375 L 460.816406 310.4375 L 460.542969 310.480469 L 460.257813 310.503906 L 459.957031 310.515625 L 459.730469 310.507813 L 459.621094 310.5 L 459.410156 310.46875 L 459.304688 310.449219 L 459.203125 310.425781 L 459.105469 310.398438 L 459.007813 310.367188 L 458.914063 310.335938 L 458.816406 310.410156 L 458.730469 310.484375 L 458.65625 310.566406 L 458.589844 310.652344 L 458.535156 310.742188 L 458.488281 310.835938 L 458.453125 310.933594 L 458.429688 311.035156 L 458.414063 311.144531 L 458.410156 311.253906 L 458.421875 311.414063 L 458.457031 311.558594 L 458.515625 311.683594 L 458.601563 311.792969 L 458.707031 311.886719 L 458.835938 311.964844 L 458.992188 312.023438 L 459.167969 312.066406 L 459.371094 312.089844 L 459.597656 312.097656 L 460.839844 312.097656 L 461.113281 312.105469 L 461.378906 312.128906 L 461.628906 312.164063 L 461.871094 312.214844 L 462.097656 312.277344 L 462.316406 312.359375 L 462.523438 312.449219 L 462.71875 312.558594 L 462.898438 312.679688 L 463.070313 312.816406 L 463.230469 312.960938 L 463.371094 313.113281 L 463.492188 313.273438 L 463.601563 313.441406 L 463.691406 313.621094 L 463.765625 313.804688 L 463.824219 313.996094 L 463.867188 314.195313 L 463.890625 314.402344 L 463.898438 314.617188 L 463.890625 314.878906 L 463.859375 315.128906 L 463.808594 315.367188 L 463.734375 315.589844 L 463.644531 315.804688 L 463.53125 316.007813 L 463.398438 316.199219 L 463.242188 316.382813 L 463.070313 316.550781 L 462.875 316.707031 L 462.660156 316.851563 L 462.425781 316.984375 L 462.171875 317.101563 L 461.898438 317.203125 L 461.609375 317.285156 L 461.300781 317.355469 L 460.96875 317.410156 L 460.621094 317.449219 L 460.253906 317.472656 L 459.867188 317.480469 L 459.46875 317.472656 L 459.09375 317.453125 L 458.742188 317.417969 L 458.417969 317.367188 L 458.113281 317.304688 L 457.832031 317.226563 L 457.578125 317.136719 L 457.34375 317.03125 L 457.136719 316.910156 L 456.953125 316.777344 L 456.789063 316.628906 L 456.648438 316.46875 L 456.519531 316.289063 L 456.410156 316.097656 L 456.316406 315.890625 L 456.242188 315.671875 L 456.183594 315.433594 L 456.140625 315.183594 L 456.113281 314.917969 L 456.105469 314.636719 L 457.5625 314.636719 L 457.566406 314.753906 L 457.570313 314.863281 L 457.582031 314.96875 L 457.59375 315.070313 L 457.613281 315.167969 L 457.636719 315.257813 L 457.660156 315.34375 L 457.691406 315.425781 L 457.722656 315.5 L 457.761719 315.574219 L 457.808594 315.640625 L 457.859375 315.707031 L 457.914063 315.769531 L 457.976563 315.828125 L 458.046875 315.882813 L 458.117188 315.933594 L 458.195313 315.980469 L 458.28125 316.023438 L 458.367188 316.058594 L 458.464844 316.09375 L 458.570313 316.128906 L 458.683594 316.160156 L 458.804688 316.1875 L 458.933594 316.210938 L 459.070313 316.230469 L 459.21875 316.246094 L 459.371094 316.257813 L 459.535156 316.265625 L 459.707031 316.273438 L 459.886719 316.273438 L 460.132813 316.269531 L 460.367188 316.257813 L 460.585938 316.238281 L 460.792969 316.210938 L 460.984375 316.175781 L 461.160156 316.132813 L 461.320313 316.082031 L 461.46875 316.019531 L 461.601563 315.953125 L 461.722656 315.878906 L 461.828125 315.796875 L 461.921875 315.707031 L 462.007813 315.609375 L 462.078125 315.507813 L 462.140625 315.398438 L 462.191406 315.28125 L 462.230469 315.15625 L 462.257813 315.027344 L 462.273438 314.886719 L 462.28125 314.746094 L 462.273438 314.609375 L 462.261719 314.484375 L 462.238281 314.363281 L 462.203125 314.25 L 462.164063 314.140625 L 462.109375 314.039063 L 462.050781 313.945313 L 461.980469 313.855469 L 461.902344 313.777344 L 461.8125 313.699219 L 461.71875 313.632813 L 461.617188 313.570313 L 461.507813 313.515625 L 461.386719 313.46875 L 461.261719 313.429688 L 461.128906 313.398438 L 460.988281 313.371094 L 460.839844 313.355469 L 460.679688 313.34375 L 460.515625 313.339844 L 459.453125 313.339844 L 459.210938 313.335938 L 458.980469 313.320313 L 458.765625 313.296875 L 458.5625 313.265625 L 458.367188 313.222656 L 458.191406 313.171875 L 458.023438 313.109375 L 457.871094 313.039063 L 457.726563 312.960938 L 457.597656 312.871094 L 457.484375 312.773438 L 457.378906 312.664063 L 457.289063 312.554688 L 457.207031 312.433594 L 457.140625 312.308594 L 457.085938 312.179688 L 457.042969 312.042969 L 457.011719 311.898438 L 456.992188 311.75 L 456.988281 311.59375 L 456.996094 311.414063 L 457.027344 311.234375 L 457.078125 311.0625 L 457.144531 310.890625 L 457.234375 310.726563 L 457.34375 310.5625 L 457.472656 310.40625 L 457.621094 310.253906 L 457.789063 310.101563 L 457.976563 309.957031 L 457.832031 309.867188 L 457.691406 309.773438 L 457.558594 309.675781 L 457.433594 309.574219 L 457.316406 309.46875 L 457.207031 309.359375 L 457.105469 309.246094 L 457.011719 309.125 L 456.921875 309.003906 L 456.84375 308.875 L 456.773438 308.742188 L 456.714844 308.597656 L 456.660156 308.453125 L 456.613281 308.300781 L 456.574219 308.144531 L 456.542969 307.980469 L 456.515625 307.8125 L 456.496094 307.636719 L 456.488281 307.457031 L 456.484375 307.273438 L 456.492188 306.984375 L 456.519531 306.707031 L 456.566406 306.441406 L 456.632813 306.1875 L 456.71875 305.941406 L 456.820313 305.710938 L 456.941406 305.488281 L 457.082031 305.28125 L 457.242188 305.085938 L 457.417969 304.898438 L 457.613281 304.726563 L 457.816406 304.574219 L 458.035156 304.4375 L 458.261719 304.324219 L 458.503906 304.222656 L 458.757813 304.140625 L 459.019531 304.078125 L 459.296875 304.035156 L 459.585938 304.007813 L 459.886719 304 L 460.164063 303.996094 L 460.429688 303.992188 L 460.679688 303.980469 L 460.917969 303.964844 L 461.144531 303.949219 L 461.359375 303.925781 L 461.558594 303.902344 L 461.746094 303.871094 L 461.921875 303.839844 L 462.082031 303.800781 L 462.242188 303.757813 L 462.398438 303.710938 L 462.558594 303.660156 L 462.722656 303.605469 L 462.882813 303.546875 L 463.042969 303.484375 L 463.207031 303.417969 L 463.535156 303.269531 L 463.703125 303.1875 Z M 459.902344 305.132813 L 459.730469 305.136719 L 459.566406 305.15625 L 459.410156 305.183594 L 459.265625 305.222656 L 459.125 305.273438 L 458.996094 305.332031 L 458.871094 305.40625 L 458.757813 305.488281 L 458.652344 305.585938 L 458.554688 305.691406 L 458.46875 305.804688 L 458.390625 305.925781 L 458.324219 306.058594 L 458.265625 306.203125 L 458.214844 306.355469 L 458.175781 306.519531 L 458.144531 306.691406 L 458.121094 306.875 L 458.109375 307.070313 L 458.105469 307.273438 L 458.109375 307.472656 L 458.121094 307.660156 L 458.144531 307.839844 L 458.179688 308.011719 L 458.21875 308.175781 L 458.273438 308.328125 L 458.332031 308.472656 L 458.402344 308.609375 L 458.484375 308.738281 L 458.570313 308.859375 L 458.671875 308.964844 L 458.78125 309.058594 L 458.894531 309.144531 L 459.019531 309.214844 L 459.148438 309.277344 L 459.285156 309.328125 L 459.429688 309.367188 L 459.578125 309.394531 L 459.738281 309.410156 L 459.902344 309.417969 L 460.242188 309.394531 L 460.546875 309.328125 L 460.8125 309.222656 L 461.042969 309.070313 L 461.238281 308.875 L 461.402344 308.640625 L 461.523438 308.359375 L 461.613281 308.035156 L 461.667969 307.667969 L 461.683594 307.257813 L 461.679688 307.050781 L 461.667969 306.859375 L 461.644531 306.675781 L 461.613281 306.5 L 461.574219 306.339844 L 461.523438 306.183594 L 461.464844 306.042969 L 461.398438 305.910156 L 461.320313 305.785156 L 461.234375 305.671875 L 461.140625 305.570313 L 461.039063 305.476563 L 460.925781 305.398438 L 460.804688 305.328125 L 460.675781 305.265625 L 460.539063 305.21875 L 460.394531 305.179688 L 460.238281 305.152344 L 460.074219 305.136719 Z M 459.902344 305.132813 "/>
<path style=" stroke:none;fill-rule:nonzero;fill:rgb(0%,0%,0%);fill-opacity:1;" d="M 468.886719 299.175781 L 468.71875 299.445313 L 468.5625 299.710938 L 468.410156 299.972656 L 468.261719 300.226563 L 468.125 300.476563 L 467.992188 300.71875 L 467.867188 300.957031 L 467.75 301.191406 L 467.640625 301.417969 L 467.535156 301.640625 L 467.4375 301.863281 L 467.34375 302.089844 L 467.253906 302.328125 L 467.167969 302.566406 L 467.085938 302.816406 L 467.007813 303.066406 L 466.9375 303.328125 L 466.867188 303.59375 L 466.804688 303.863281 L 466.742188 304.140625 L 466.691406 304.425781 L 466.644531 304.714844 L 466.605469 305.015625 L 466.570313 305.324219 L 466.542969 305.644531 L 466.515625 305.972656 L 466.496094 306.3125 L 466.484375 306.660156 L 466.476563 307.015625 L 466.472656 307.382813 L 466.476563 307.75 L 466.484375 308.105469 L 466.496094 308.453125 L 466.515625 308.789063 L 466.542969 309.121094 L 466.570313 309.4375 L 466.605469 309.75 L 466.644531 310.050781 L 466.691406 310.339844 L 466.742188 310.621094 L 466.804688 310.898438 L 466.867188 311.164063 L 466.9375 311.429688 L 467.007813 311.6875 L 467.085938 311.941406 L 467.167969 312.1875 L 467.253906 312.429688 L 467.34375 312.667969 L 467.4375 312.898438 L 467.535156 313.125 L 467.640625 313.347656 L 467.75 313.574219 L 467.867188 313.808594 L 467.992188 314.046875 L 468.125 314.289063 L 468.261719 314.539063 L 468.410156 314.792969 L 468.5625 315.054688 L 468.71875 315.320313 L 468.886719 315.589844 L 467.839844 316.273438 L 467.648438 315.980469 L 467.460938 315.691406 L 467.28125 315.410156 L 467.109375 315.132813 L 466.945313 314.867188 L 466.789063 314.605469 L 466.640625 314.351563 L 466.5 314.101563 L 466.367188 313.863281 L 466.238281 313.628906 L 466.121094 313.390625 L 466.003906 313.144531 L 465.890625 312.890625 L 465.785156 312.632813 L 465.679688 312.363281 L 465.582031 312.089844 L 465.488281 311.804688 L 465.398438 311.515625 L 465.3125 311.214844 L 465.230469 310.910156 L 465.15625 310.597656 L 465.089844 310.273438 L 465.03125 309.941406 L 464.976563 309.601563 L 464.933594 309.253906 L 464.898438 308.898438 L 464.871094 308.53125 L 464.851563 308.15625 L 464.839844 307.773438 L 464.835938 307.382813 L 464.839844 306.992188 L 464.851563 306.609375 L 464.871094 306.234375 L 464.898438 305.867188 L 464.933594 305.511719 L 464.976563 305.160156 L 465.03125 304.820313 L 465.089844 304.492188 L 465.15625 304.167969 L 465.230469 303.855469 L 465.3125 303.546875 L 465.398438 303.25 L 465.488281 302.960938 L 465.582031 302.679688 L 465.679688 302.40625 L 465.785156 302.140625 L 465.890625 301.882813 L 466.003906 301.632813 L 466.121094 301.390625 L 466.238281 301.15625 L 466.367188 300.917969 L 466.5 300.671875 L 466.640625 300.421875 L 466.789063 300.167969 L 466.945313 299.902344 L 467.109375 299.632813 L 467.28125 299.359375 L 467.460938 299.074219 L 467.648438 298.785156 L 467.839844 298.492188 Z M 468.886719 299.175781 "/>
<path style=" stroke:none;fill-rule:nonzero;fill:rgb(0%,0%,0%);fill-opacity:1;" d="M 473.855469 301.296875 L 474.289063 301.308594 L 474.703125 301.335938 L 475.097656 301.382813 L 475.46875 301.449219 L 475.820313 301.535156 L 476.148438 301.640625 L 476.457031 301.765625 L 476.746094 301.910156 L 477.011719 302.070313 L 477.253906 302.253906 L 477.476563 302.453125 L 477.675781 302.671875 L 477.851563 302.910156 L 478.003906 303.167969 L 478.132813 303.445313 L 478.238281 303.742188 L 478.320313 304.054688 L 478.378906 304.390625 L 478.414063 304.742188 L 478.425781 305.113281 L 478.414063 305.507813 L 478.378906 305.878906 L 478.316406 306.230469 L 478.234375 306.5625 L 478.125 306.875 L 477.992188 307.164063 L 477.835938 307.433594 L 477.652344 307.683594 L 477.449219 307.910156 L 477.21875 308.121094 L 476.972656 308.304688 L 476.707031 308.46875 L 476.421875 308.617188 L 476.121094 308.742188 L 475.796875 308.847656 L 475.457031 308.9375 L 475.097656 309.003906 L 474.71875 309.054688 L 474.324219 309.082031 L 473.90625 309.09375 L 472.71875 309.09375 L 472.71875 313.683594 L 471.046875 313.683594 L 471.046875 301.296875 Z M 473.855469 307.796875 L 474.128906 307.789063 L 474.394531 307.773438 L 474.640625 307.742188 L 474.875 307.703125 L 475.09375 307.648438 L 475.300781 307.582031 L 475.492188 307.503906 L 475.667969 307.417969 L 475.828125 307.316406 L 475.976563 307.203125 L 476.109375 307.074219 L 476.230469 306.929688 L 476.335938 306.765625 L 476.425781 306.585938 L 476.503906 306.386719 L 476.566406 306.171875 L 476.617188 305.9375 L 476.652344 305.6875 L 476.671875 305.417969 L 476.679688 305.132813 L 476.671875 304.871094 L 476.652344 304.621094 L 476.617188 304.390625 L 476.566406 304.171875 L 476.503906 303.972656 L 476.425781 303.785156 L 476.335938 303.613281 L 476.230469 303.457031 L 476.109375 303.316406 L 475.976563 303.1875 L 475.832031 303.070313 L 475.675781 302.96875 L 475.5 302.875 L 475.3125 302.796875 L 475.109375 302.730469 L 474.890625 302.675781 L 474.660156 302.632813 L 474.410156 302.601563 L 474.148438 302.582031 L 473.871094 302.578125 L 472.71875 302.578125 L 472.71875 307.796875 Z M 473.855469 307.796875 "/>
<path style=" stroke:none;fill-rule:nonzero;fill:rgb(0%,0%,0%);fill-opacity:1;" d="M 484.277344 304 L 484.367188 304 L 484.546875 304.007813 L 484.710938 304.023438 L 484.792969 304.039063 L 484.867188 304.050781 L 484.945313 304.066406 L 485.085938 304.105469 L 484.816406 305.671875 L 484.675781 305.632813 L 484.535156 305.601563 L 484.460938 305.589844 L 484.386719 305.582031 L 484.308594 305.574219 L 484.234375 305.570313 L 484.078125 305.5625 L 483.921875 305.570313 L 483.773438 305.589844 L 483.628906 305.621094 L 483.488281 305.664063 L 483.359375 305.722656 L 483.230469 305.792969 L 483.109375 305.871094 L 482.996094 305.96875 L 482.886719 306.074219 L 482.78125 306.195313 L 482.6875 306.328125 L 482.59375 306.472656 L 482.507813 306.632813 L 482.425781 306.804688 L 482.34375 306.992188 L 482.269531 307.191406 L 482.199219 307.402344 L 482.128906 307.628906 L 482.066406 307.867188 L 482.007813 308.121094 L 482.007813 313.683594 L 480.386719 313.683594 L 480.386719 304.214844 L 481.792969 304.214844 L 481.917969 306.085938 L 482.066406 305.691406 L 482.238281 305.335938 L 482.425781 305.019531 L 482.632813 304.75 L 482.859375 304.519531 L 483.101563 304.332031 L 483.367188 304.1875 L 483.652344 304.082031 L 483.953125 304.019531 Z M 484.277344 304 "/>
<path style=" stroke:none;fill-rule:nonzero;fill:rgb(0%,0%,0%);fill-opacity:1;" d="M 488.289063 304.214844 L 488.289063 313.683594 L 486.667969 313.683594 L 486.667969 304.214844 Z M 487.480469 299.75 L 487.570313 299.753906 L 487.660156 299.761719 L 487.746094 299.777344 L 487.824219 299.800781 L 487.902344 299.828125 L 487.976563 299.859375 L 488.046875 299.898438 L 488.113281 299.945313 L 488.175781 300 L 488.234375 300.054688 L 488.292969 300.117188 L 488.347656 300.183594 L 488.390625 300.253906 L 488.429688 300.324219 L 488.464844 300.398438 L 488.492188 300.476563 L 488.515625 300.554688 L 488.53125 300.636719 L 488.539063 300.722656 L 488.542969 300.8125 L 488.539063 300.902344 L 488.53125 300.988281 L 488.515625 301.070313 L 488.496094 301.148438 L 488.46875 301.226563 L 488.4375 301.300781 L 488.402344 301.371094 L 488.355469 301.441406 L 488.308594 301.503906 L 488.253906 301.566406 L 488.195313 301.621094 L 488.128906 301.671875 L 488.0625 301.714844 L 487.992188 301.753906 L 487.917969 301.785156 L 487.753906 301.832031 L 487.667969 301.84375 L 487.574219 301.851563 L 487.480469 301.855469 L 487.386719 301.851563 L 487.296875 301.84375 L 487.214844 301.832031 L 487.050781 301.785156 L 486.976563 301.753906 L 486.902344 301.714844 L 486.835938 301.671875 L 486.769531 301.621094 L 486.707031 301.566406 L 486.652344 301.503906 L 486.601563 301.441406 L 486.558594 301.371094 L 486.519531 301.300781 L 486.488281 301.226563 L 486.464844 301.148438 L 486.445313 301.070313 L 486.429688 300.988281 L 486.421875 300.902344 L 486.417969 300.8125 L 486.421875 300.722656 L 486.429688 300.636719 L 486.445313 300.554688 L 486.464844 300.476563 L 486.488281 300.398438 L 486.519531 300.324219 L 486.558594 300.253906 L 486.601563 300.183594 L 486.652344 300.117188 L 486.707031 300.054688 L 486.769531 300 L 486.835938 299.945313 L 486.902344 299.898438 L 486.976563 299.859375 L 487.050781 299.828125 L 487.132813 299.800781 L 487.214844 299.777344 L 487.296875 299.761719 L 487.386719 299.753906 Z M 487.480469 299.75 "/>
<path style=" stroke:none;fill-rule:nonzero;fill:rgb(0%,0%,0%);fill-opacity:1;" d="M 494.5 303.980469 L 494.648438 303.984375 L 494.796875 303.992188 L 494.941406 304.003906 L 495.085938 304.019531 L 495.222656 304.042969 L 495.363281 304.070313 L 495.628906 304.140625 L 495.757813 304.183594 L 495.886719 304.230469 L 496.011719 304.285156 L 496.136719 304.34375 L 496.257813 304.40625 L 496.382813 304.476563 L 496.503906 304.550781 L 496.621094 304.632813 L 496.742188 304.71875 L 496.859375 304.808594 L 496.976563 304.90625 L 497.089844 305.007813 L 496.371094 305.976563 L 496.285156 305.910156 L 496.199219 305.847656 L 496.113281 305.789063 L 495.941406 305.679688 L 495.851563 305.632813 L 495.765625 305.585938 L 495.59375 305.507813 L 495.507813 305.472656 L 495.421875 305.441406 L 495.332031 305.410156 L 495.242188 305.382813 L 495.152344 305.359375 L 495.058594 305.339844 L 494.964844 305.324219 L 494.867188 305.308594 L 494.769531 305.300781 L 494.671875 305.296875 L 494.570313 305.292969 L 494.363281 305.304688 L 494.164063 305.332031 L 493.976563 305.375 L 493.796875 305.4375 L 493.625 305.519531 L 493.464844 305.617188 L 493.3125 305.734375 L 493.171875 305.871094 L 493.039063 306.023438 L 492.914063 306.195313 L 492.804688 306.382813 L 492.707031 306.59375 L 492.621094 306.824219 L 492.546875 307.074219 L 492.484375 307.347656 L 492.433594 307.636719 L 492.390625 307.949219 L 492.363281 308.28125 L 492.34375 308.628906 L 492.339844 309.003906 L 492.363281 309.679688 L 492.429688 310.285156 L 492.539063 310.820313 L 492.695313 311.285156 L 492.898438 311.675781 L 493.144531 311.996094 L 493.433594 312.246094 L 493.769531 312.421875 L 494.148438 312.53125 L 494.570313 312.566406 L 494.671875 312.566406 L 494.867188 312.550781 L 495.054688 312.527344 L 495.234375 312.488281 L 495.40625 312.433594 L 495.488281 312.40625 L 495.574219 312.367188 L 495.65625 312.324219 L 495.742188 312.28125 L 495.828125 312.234375 L 495.917969 312.183594 L 496.003906 312.128906 L 496.09375 312.074219 L 496.1875 312.011719 L 496.277344 311.949219 L 496.371094 311.882813 L 497.128906 312.871094 L 496.894531 313.070313 L 496.65625 313.25 L 496.410156 313.40625 L 496.15625 313.539063 L 495.898438 313.65625 L 495.636719 313.75 L 495.363281 313.824219 L 495.089844 313.875 L 494.804688 313.90625 L 494.515625 313.917969 L 494.160156 313.902344 L 493.820313 313.867188 L 493.496094 313.804688 L 493.1875 313.714844 L 492.894531 313.601563 L 492.613281 313.460938 L 492.351563 313.300781 L 492.105469 313.109375 L 491.871094 312.894531 L 491.65625 312.65625 L 491.460938 312.394531 L 491.285156 312.109375 L 491.132813 311.800781 L 491 311.46875 L 490.886719 311.117188 L 490.792969 310.742188 L 490.722656 310.34375 L 490.671875 309.925781 L 490.640625 309.484375 L 490.628906 309.019531 L 490.632813 308.714844 L 490.648438 308.417969 L 490.671875 308.128906 L 490.703125 307.847656 L 490.746094 307.574219 L 490.796875 307.3125 L 490.859375 307.054688 L 490.929688 306.808594 L 491.007813 306.570313 L 491.097656 306.339844 L 491.199219 306.117188 L 491.308594 305.90625 L 491.421875 305.703125 L 491.546875 305.515625 L 491.679688 305.335938 L 491.816406 305.164063 L 491.964844 305.007813 L 492.117188 304.859375 L 492.277344 304.71875 L 492.449219 304.59375 L 492.625 304.476563 L 492.8125 304.371094 L 493.003906 304.28125 L 493.199219 304.199219 L 493.402344 304.132813 L 493.609375 304.078125 L 493.824219 304.035156 L 494.042969 304.003906 L 494.269531 303.988281 Z M 494.5 303.980469 "/>
<path style=" stroke:none;fill-rule:nonzero;fill:rgb(0%,0%,0%);fill-opacity:1;" d="M 505.550781 308.660156 L 505.550781 308.816406 L 505.546875 308.894531 L 505.546875 308.976563 L 505.542969 309.0625 L 505.539063 309.144531 L 505.535156 309.234375 L 505.527344 309.324219 L 505.523438 309.414063 L 505.515625 309.507813 L 500.007813 309.507813 L 500.027344 309.828125 L 500.058594 310.132813 L 500.097656 310.417969 L 500.148438 310.683594 L 500.210938 310.933594 L 500.28125 311.164063 L 500.363281 311.375 L 500.457031 311.570313 L 500.558594 311.742188 L 500.671875 311.898438 L 500.796875 312.039063 L 500.929688 312.160156 L 501.070313 312.265625 L 501.21875 312.359375 L 501.375 312.441406 L 501.542969 312.503906 L 501.71875 312.554688 L 501.902344 312.589844 L 502.09375 312.613281 L 502.292969 312.621094 L 502.421875 312.617188 L 502.546875 312.613281 L 502.789063 312.589844 L 502.90625 312.570313 L 503.019531 312.550781 L 503.128906 312.523438 L 503.238281 312.492188 L 503.34375 312.460938 L 503.445313 312.421875 L 503.550781 312.378906 L 503.65625 312.332031 L 503.761719 312.28125 L 503.867188 312.222656 L 503.976563 312.160156 L 504.085938 312.09375 L 504.195313 312.023438 L 504.304688 311.945313 L 504.414063 311.863281 L 504.527344 311.773438 L 505.246094 312.726563 L 504.976563 312.953125 L 504.699219 313.15625 L 504.414063 313.335938 L 504.121094 313.488281 L 503.824219 313.621094 L 503.515625 313.726563 L 503.203125 313.808594 L 502.882813 313.867188 L 502.554688 313.90625 L 502.222656 313.917969 L 501.859375 313.902344 L 501.511719 313.863281 L 501.183594 313.800781 L 500.871094 313.710938 L 500.574219 313.597656 L 500.292969 313.457031 L 500.03125 313.289063 L 499.785156 313.097656 L 499.554688 312.882813 L 499.339844 312.636719 L 499.148438 312.367188 L 498.980469 312.078125 L 498.828125 311.769531 L 498.695313 311.4375 L 498.585938 311.085938 L 498.496094 310.714844 L 498.425781 310.320313 L 498.375 309.90625 L 498.34375 309.472656 L 498.332031 309.019531 L 498.34375 308.566406 L 498.371094 308.128906 L 498.421875 307.714844 L 498.488281 307.316406 L 498.578125 306.941406 L 498.683594 306.582031 L 498.808594 306.246094 L 498.957031 305.925781 L 499.121094 305.628906 L 499.304688 305.347656 L 499.507813 305.089844 L 499.722656 304.855469 L 499.957031 304.652344 L 500.203125 304.472656 L 500.464844 304.324219 L 500.742188 304.199219 L 501.035156 304.101563 L 501.34375 304.035156 L 501.667969 303.992188 L 502.003906 303.980469 L 502.339844 303.992188 L 502.65625 304.027344 L 502.960938 304.089844 L 503.246094 304.175781 L 503.515625 304.285156 L 503.773438 304.421875 L 504.011719 304.578125 L 504.234375 304.765625 L 504.441406 304.972656 L 504.632813 305.203125 L 504.808594 305.457031 L 504.964844 305.726563 L 505.101563 306.023438 L 505.222656 306.335938 L 505.320313 306.671875 L 505.40625 307.027344 L 505.46875 307.402344 L 505.515625 307.800781 L 505.542969 308.222656 Z M 503.984375 308.175781 L 503.964844 307.609375 L 503.90625 307.105469 L 503.808594 306.660156 L 503.671875 306.273438 L 503.496094 305.945313 L 503.277344 305.679688 L 503.023438 305.472656 L 502.730469 305.324219 L 502.394531 305.234375 L 502.023438 305.203125 L 501.847656 305.210938 L 501.679688 305.234375 L 501.515625 305.273438 L 501.363281 305.324219 L 501.21875 305.394531 L 501.078125 305.476563 L 500.949219 305.574219 L 500.824219 305.6875 L 500.710938 305.816406 L 500.601563 305.960938 L 500.5 306.117188 L 500.410156 306.292969 L 500.328125 306.488281 L 500.257813 306.699219 L 500.191406 306.933594 L 500.136719 307.183594 L 500.089844 307.453125 L 500.054688 307.738281 L 500.027344 308.046875 L 500.007813 308.371094 L 503.984375 308.371094 Z M 503.984375 308.175781 "/>
<path style=" stroke:none;fill-rule:nonzero;fill:rgb(0%,0%,0%);fill-opacity:1;" d="M 508.015625 298.492188 L 508.214844 298.792969 L 508.402344 299.085938 L 508.585938 299.375 L 508.757813 299.652344 L 508.921875 299.925781 L 509.078125 300.191406 L 509.226563 300.445313 L 509.367188 300.695313 L 509.496094 300.9375 L 509.621094 301.171875 L 509.738281 301.40625 L 509.855469 301.648438 L 509.96875 301.898438 L 510.074219 302.15625 L 510.175781 302.421875 L 510.277344 302.699219 L 510.371094 302.980469 L 510.460938 303.269531 L 510.546875 303.566406 L 510.628906 303.871094 L 510.703125 304.183594 L 510.769531 304.503906 L 510.828125 304.832031 L 510.882813 305.167969 L 510.925781 305.515625 L 510.960938 305.871094 L 510.988281 306.234375 L 511.007813 306.609375 L 511.019531 306.992188 L 511.023438 307.382813 L 511.019531 307.773438 L 511.007813 308.15625 L 510.988281 308.53125 L 510.960938 308.898438 L 510.925781 309.253906 L 510.882813 309.601563 L 510.828125 309.941406 L 510.769531 310.273438 L 510.703125 310.597656 L 510.628906 310.910156 L 510.546875 311.210938 L 510.460938 311.507813 L 510.371094 311.792969 L 510.277344 312.074219 L 510.175781 312.347656 L 510.074219 312.609375 L 509.96875 312.867188 L 509.855469 313.117188 L 509.738281 313.359375 L 509.621094 313.59375 L 509.496094 313.828125 L 509.367188 314.066406 L 509.226563 314.316406 L 509.078125 314.574219 L 508.921875 314.839844 L 508.757813 315.109375 L 508.585938 315.390625 L 508.402344 315.675781 L 508.214844 315.972656 L 508.015625 316.273438 L 506.972656 315.589844 L 507.140625 315.320313 L 507.296875 315.054688 L 507.449219 314.792969 L 507.59375 314.539063 L 507.730469 314.289063 L 507.859375 314.046875 L 507.980469 313.808594 L 508.097656 313.574219 L 508.203125 313.347656 L 508.304688 313.125 L 508.402344 312.898438 L 508.5 312.667969 L 508.589844 312.429688 L 508.675781 312.1875 L 508.753906 311.941406 L 508.832031 311.6875 L 508.90625 311.429688 L 509.039063 310.898438 L 509.097656 310.621094 L 509.152344 310.335938 L 509.203125 310.042969 L 509.246094 309.742188 L 509.28125 309.429688 L 509.3125 309.109375 L 509.339844 308.78125 L 509.359375 308.445313 L 509.375 308.097656 L 509.382813 307.746094 L 509.386719 307.382813 L 509.382813 307.019531 L 509.375 306.664063 L 509.359375 306.320313 L 509.339844 305.984375 L 509.3125 305.660156 L 509.28125 305.339844 L 509.246094 305.03125 L 509.203125 304.734375 L 509.152344 304.441406 L 509.097656 304.160156 L 509.039063 303.882813 L 508.972656 303.609375 L 508.90625 303.34375 L 508.832031 303.085938 L 508.753906 302.832031 L 508.675781 302.585938 L 508.589844 302.34375 L 508.5 302.109375 L 508.402344 301.882813 L 508.304688 301.660156 L 508.203125 301.433594 L 508.097656 301.203125 L 507.980469 300.964844 L 507.859375 300.726563 L 507.730469 300.480469 L 507.59375 300.226563 L 507.449219 299.972656 L 507.296875 299.710938 L 507.140625 299.445313 L 506.972656 299.175781 Z M 508.015625 298.492188 "/>
<path style=" stroke:none;fill-rule:nonzero;fill:rgb(0%,0%,0%);fill-opacity:1;" d="M 33.78125 66.109375 L 33.785156 65.917969 L 33.792969 65.730469 L 33.808594 65.550781 L 33.832031 65.375 L 33.859375 65.203125 L 33.890625 65.035156 L 33.976563 64.714844 L 34.085938 64.417969 L 34.148438 64.273438 L 34.214844 64.132813 L 34.371094 63.84375 L 34.460938 63.703125 L 34.554688 63.5625 L 34.660156 63.417969 L 34.765625 63.277344 L 34.882813 63.136719 L 35.003906 62.996094 L 36.015625 63.859375 L 35.925781 63.964844 L 35.84375 64.070313 L 35.765625 64.171875 L 35.691406 64.277344 L 35.621094 64.382813 L 35.558594 64.488281 L 35.5 64.589844 L 35.445313 64.695313 L 35.394531 64.800781 L 35.347656 64.90625 L 35.269531 65.109375 L 35.238281 65.214844 L 35.210938 65.324219 L 35.1875 65.433594 L 35.167969 65.546875 L 35.152344 65.664063 L 35.140625 65.78125 L 35.132813 65.898438 L 35.132813 66.019531 L 35.144531 66.296875 L 35.179688 66.558594 L 35.242188 66.8125 L 35.324219 67.050781 L 35.433594 67.28125 L 35.566406 67.496094 L 35.722656 67.703125 L 35.902344 67.898438 L 36.109375 68.082031 L 36.335938 68.253906 L 36.589844 68.410156 L 36.871094 68.550781 L 37.183594 68.675781 L 37.523438 68.78125 L 37.894531 68.875 L 38.292969 68.949219 L 38.722656 69.007813 L 39.183594 69.046875 L 39.671875 69.070313 L 40.191406 69.082031 L 40.695313 69.070313 L 41.171875 69.046875 L 41.625 69.007813 L 42.046875 68.949219 L 42.445313 68.875 L 42.8125 68.78125 L 43.15625 68.675781 L 43.472656 68.550781 L 43.761719 68.410156 L 44.023438 68.253906 L 44.257813 68.082031 L 44.464844 67.898438 L 44.648438 67.703125 L 44.808594 67.496094 L 44.941406 67.28125 L 45.050781 67.050781 L 45.136719 66.8125 L 45.199219 66.558594 L 45.234375 66.296875 L 45.246094 66.019531 L 45.246094 65.882813 L 45.238281 65.746094 L 45.226563 65.617188 L 45.207031 65.492188 L 45.183594 65.367188 L 45.15625 65.25 L 45.125 65.132813 L 45.085938 65.023438 L 45.042969 64.917969 L 44.996094 64.816406 L 44.941406 64.710938 L 44.886719 64.609375 L 44.824219 64.503906 L 44.757813 64.398438 L 44.683594 64.289063 L 44.609375 64.175781 L 44.527344 64.066406 L 44.441406 63.949219 L 44.351563 63.835938 L 44.257813 63.714844 L 45.246094 62.871094 L 45.511719 63.144531 L 45.746094 63.433594 L 45.953125 63.730469 L 46.136719 64.035156 L 46.289063 64.355469 L 46.410156 64.683594 L 46.507813 65.023438 L 46.578125 65.375 L 46.621094 65.738281 L 46.632813 66.109375 L 46.625 66.382813 L 46.605469 66.652344 L 46.570313 66.914063 L 46.519531 67.171875 L 46.453125 67.421875 L 46.375 67.664063 L 46.28125 67.902344 L 46.171875 68.132813 L 46.050781 68.355469 L 45.914063 68.578125 L 45.761719 68.785156 L 45.597656 68.984375 L 45.417969 69.171875 L 45.222656 69.355469 L 45.015625 69.527344 L 44.789063 69.6875 L 44.554688 69.84375 L 44.300781 69.988281 L 44.035156 70.125 L 43.753906 70.25 L 43.457031 70.363281 L 43.144531 70.464844 L 42.820313 70.554688 L 42.484375 70.628906 L 42.132813 70.695313 L 41.769531 70.75 L 41.394531 70.789063 L 41.007813 70.820313 L 40.605469 70.839844 L 40.191406 70.84375 L 39.777344 70.839844 L 39.378906 70.820313 L 38.996094 70.789063 L 38.621094 70.746094 L 38.265625 70.691406 L 37.917969 70.625 L 37.585938 70.542969 L 37.261719 70.453125 L 36.957031 70.347656 L 36.660156 70.234375 L 36.382813 70.101563 L 36.113281 69.964844 L 35.863281 69.816406 L 35.625 69.660156 L 35.402344 69.496094 L 35.191406 69.320313 L 35 69.140625 L 34.820313 68.949219 L 34.652344 68.75 L 34.5 68.539063 L 34.363281 68.320313 L 34.242188 68.097656 L 34.132813 67.867188 L 34.039063 67.632813 L 33.960938 67.394531 L 33.898438 67.148438 L 33.847656 66.894531 L 33.8125 66.640625 L 33.789063 66.378906 Z M 33.78125 66.109375 "/>
<path style=" stroke:none;fill-rule:nonzero;fill:rgb(0%,0%,0%);fill-opacity:1;" d="M 36.699219 57.847656 L 36.710938 57.492188 L 36.75 57.152344 L 36.8125 56.832031 L 36.902344 56.523438 L 37.015625 56.234375 L 37.15625 55.957031 L 37.324219 55.699219 L 37.515625 55.457031 L 37.734375 55.230469 L 37.976563 55.023438 L 38.242188 54.832031 L 38.53125 54.660156 L 38.84375 54.507813 L 39.175781 54.378906 L 39.53125 54.265625 L 39.910156 54.175781 L 40.3125 54.105469 L 40.734375 54.054688 L 41.179688 54.023438 L 41.648438 54.015625 L 42.097656 54.023438 L 42.53125 54.054688 L 42.945313 54.105469 L 43.339844 54.179688 L 43.714844 54.269531 L 44.070313 54.382813 L 44.40625 54.515625 L 44.722656 54.671875 L 45.023438 54.84375 L 45.300781 55.039063 L 45.554688 55.253906 L 45.78125 55.480469 L 45.980469 55.726563 L 46.152344 55.984375 L 46.300781 56.261719 L 46.421875 56.550781 L 46.515625 56.855469 L 46.582031 57.175781 L 46.621094 57.515625 L 46.632813 57.867188 L 46.621094 58.222656 L 46.582031 58.5625 L 46.515625 58.886719 L 46.421875 59.195313 L 46.304688 59.488281 L 46.160156 59.761719 L 45.988281 60.023438 L 45.792969 60.269531 L 45.570313 60.496094 L 45.320313 60.710938 L 45.046875 60.902344 L 44.753906 61.074219 L 44.4375 61.222656 L 44.105469 61.355469 L 43.75 61.464844 L 43.375 61.558594 L 42.976563 61.628906 L 42.5625 61.679688 L 42.125 61.707031 L 41.664063 61.71875 L 41.203125 61.707031 L 40.765625 61.675781 L 40.347656 61.625 L 39.949219 61.554688 L 39.574219 61.460938 L 39.21875 61.347656 L 38.886719 61.214844 L 38.574219 61.0625 L 38.28125 60.886719 L 38.011719 60.691406 L 37.761719 60.480469 L 37.539063 60.25 L 37.339844 60.003906 L 37.171875 59.746094 L 37.027344 59.46875 L 36.90625 59.175781 L 36.816406 58.867188 L 36.75 58.542969 L 36.710938 58.203125 Z M 37.992188 57.847656 L 38.003906 58.054688 L 38.03125 58.253906 L 38.074219 58.441406 L 38.136719 58.617188 L 38.21875 58.785156 L 38.316406 58.941406 L 38.433594 59.089844 L 38.570313 59.226563 L 38.722656 59.351563 L 38.894531 59.46875 L 39.082031 59.574219 L 39.285156 59.667969 L 39.511719 59.753906 L 39.761719 59.824219 L 40.027344 59.886719 L 40.316406 59.9375 L 40.621094 59.976563 L 40.949219 60.003906 L 41.296875 60.019531 L 41.664063 60.027344 L 42.367188 60.003906 L 42.996094 59.941406 L 43.546875 59.832031 L 44.027344 59.679688 L 44.433594 59.488281 L 44.765625 59.25 L 45.023438 58.96875 L 45.207031 58.644531 L 45.320313 58.277344 L 45.355469 57.867188 L 45.320313 57.457031 L 45.207031 57.089844 L 45.023438 56.765625 L 44.761719 56.484375 L 44.429688 56.246094 L 44.019531 56.050781 L 43.539063 55.902344 L 42.984375 55.792969 L 42.351563 55.726563 L 41.648438 55.707031 L 41.28125 55.710938 L 40.933594 55.726563 L 40.605469 55.753906 L 40.296875 55.792969 L 40.007813 55.839844 L 39.742188 55.902344 L 39.496094 55.972656 L 39.269531 56.050781 L 39.0625 56.144531 L 38.875 56.246094 L 38.707031 56.359375 L 38.558594 56.484375 L 38.425781 56.617188 L 38.3125 56.761719 L 38.214844 56.917969 L 38.136719 57.082031 L 38.074219 57.257813 L 38.027344 57.445313 L 38.003906 57.640625 Z M 37.992188 57.847656 "/>
<path style=" stroke:none;fill-rule:nonzero;fill:rgb(0%,0%,0%);fill-opacity:1;" d="M 46.398438 45.175781 L 46.398438 46.582031 L 44.976563 46.671875 L 45.292969 46.875 L 45.574219 47.09375 L 45.824219 47.324219 L 46.039063 47.570313 L 46.21875 47.828125 L 46.367188 48.097656 L 46.484375 48.382813 L 46.566406 48.679688 L 46.617188 48.992188 L 46.632813 49.316406 L 46.625 49.539063 L 46.605469 49.75 L 46.566406 49.953125 L 46.515625 50.144531 L 46.449219 50.328125 L 46.367188 50.503906 L 46.273438 50.664063 L 46.160156 50.820313 L 46.035156 50.964844 L 45.894531 51.097656 L 45.742188 51.222656 L 45.578125 51.332031 L 45.40625 51.429688 L 45.222656 51.511719 L 45.027344 51.585938 L 44.820313 51.644531 L 44.605469 51.6875 L 44.382813 51.71875 L 44.144531 51.738281 L 43.898438 51.746094 L 36.933594 51.746094 L 36.933594 50.125 L 43.914063 50.125 L 44.066406 50.113281 L 44.210938 50.097656 L 44.347656 50.078125 L 44.472656 50.050781 L 44.59375 50.015625 L 44.703125 49.976563 L 44.800781 49.929688 L 44.894531 49.878906 L 44.976563 49.820313 L 45.050781 49.753906 L 45.113281 49.679688 L 45.171875 49.597656 L 45.21875 49.511719 L 45.261719 49.421875 L 45.296875 49.320313 L 45.320313 49.21875 L 45.339844 49.105469 L 45.351563 48.988281 L 45.355469 48.867188 L 45.339844 48.628906 L 45.292969 48.398438 L 45.214844 48.171875 L 45.101563 47.957031 L 44.960938 47.746094 L 44.785156 47.542969 L 44.578125 47.34375 L 44.34375 47.15625 L 44.074219 46.972656 L 43.773438 46.796875 L 36.933594 46.796875 L 36.933594 45.175781 Z M 46.398438 45.175781 "/>
<path style=" stroke:none;fill-rule:nonzero;fill:rgb(0%,0%,0%);fill-opacity:1;" d="M 36.699219 38.03125 L 36.707031 37.808594 L 36.726563 37.597656 L 36.765625 37.394531 L 36.820313 37.203125 L 36.886719 37.023438 L 36.96875 36.851563 L 37.066406 36.691406 L 37.179688 36.539063 L 37.308594 36.398438 L 37.453125 36.265625 L 37.605469 36.144531 L 37.773438 36.03125 L 37.949219 35.9375 L 38.136719 35.851563 L 38.335938 35.78125 L 38.546875 35.722656 L 38.769531 35.675781 L 39.003906 35.644531 L 39.25 35.625 L 39.503906 35.617188 L 46.398438 35.617188 L 46.398438 37.238281 L 39.703125 37.238281 L 39.523438 37.242188 L 39.359375 37.25 L 39.199219 37.265625 L 39.054688 37.289063 L 38.917969 37.316406 L 38.789063 37.347656 L 38.675781 37.386719 L 38.570313 37.433594 L 38.472656 37.484375 L 38.390625 37.542969 L 38.3125 37.609375 L 38.242188 37.679688 L 38.179688 37.757813 L 38.125 37.839844 L 38.078125 37.929688 L 38.042969 38.027344 L 38.011719 38.132813 L 37.992188 38.242188 L 37.980469 38.359375 L 37.976563 38.480469 L 37.992188 38.714844 L 38.042969 38.945313 L 38.128906 39.171875 L 38.246094 39.394531 L 38.398438 39.613281 L 38.585938 39.828125 L 38.804688 40.039063 L 39.058594 40.242188 L 39.347656 40.445313 L 39.667969 40.640625 L 46.398438 40.640625 L 46.398438 42.261719 L 36.933594 42.261719 L 36.933594 40.855469 L 38.335938 40.730469 L 38.023438 40.503906 L 37.746094 40.269531 L 37.5 40.027344 L 37.289063 39.769531 L 37.105469 39.507813 L 36.960938 39.230469 L 36.84375 38.945313 L 36.761719 38.652344 L 36.714844 38.347656 Z M 36.699219 38.03125 "/>
<path style=" stroke:none;fill-rule:nonzero;fill:rgb(0%,0%,0%);fill-opacity:1;" d="M 45.984375 28.292969 L 46.109375 28.472656 L 46.21875 28.660156 L 46.316406 28.851563 L 46.402344 29.042969 L 46.472656 29.242188 L 46.53125 29.445313 L 46.574219 29.648438 L 46.609375 29.859375 L 46.628906 30.074219 L 46.632813 30.289063 L 46.628906 30.515625 L 46.605469 30.730469 L 46.574219 30.933594 L 46.527344 31.128906 L 46.46875 31.3125 L 46.394531 31.484375 L 46.308594 31.648438 L 46.207031 31.800781 L 46.09375 31.941406 L 45.96875 32.074219 L 45.828125 32.1875 L 45.679688 32.292969 L 45.519531 32.382813 L 45.347656 32.464844 L 45.167969 32.53125 L 44.972656 32.585938 L 44.769531 32.628906 L 44.554688 32.660156 L 44.332031 32.679688 L 44.097656 32.683594 L 38.15625 32.683594 L 38.15625 34.035156 L 36.933594 34.035156 L 36.933594 32.683594 L 34.753906 32.683594 L 34.554688 31.066406 L 36.933594 31.066406 L 36.933594 28.976563 L 38.15625 29.15625 L 38.15625 31.066406 L 44.078125 31.066406 L 44.308594 31.054688 L 44.519531 31.023438 L 44.703125 30.972656 L 44.859375 30.898438 L 44.996094 30.808594 L 45.105469 30.695313 L 45.191406 30.5625 L 45.253906 30.40625 L 45.289063 30.234375 L 45.300781 30.039063 L 45.300781 29.976563 L 45.289063 29.800781 L 45.277344 29.746094 L 45.269531 29.691406 L 45.246094 29.582031 L 45.230469 29.53125 L 45.210938 29.480469 L 45.171875 29.371094 L 45.125 29.253906 L 45.070313 29.136719 L 45.042969 29.074219 L 45.011719 29.015625 L 44.976563 28.949219 L 44.941406 28.886719 Z M 45.984375 28.292969 "/>
</g>
</svg>
