<?xml version="1.0" encoding="UTF-8"?>
<svg xmlns="http://www.w3.org/2000/svg" xmlns:xlink="http://www.w3.org/1999/xlink" width="324pt" height="360pt" viewBox="0 0 324 360" version="1.1">
<g id="surface154">
<rect x="0" y="0" width="324" height="360" style="fill:rgb(100%,100%,100%);fill-opacity:1;stroke:none;"/>
<path style="fill-rule:nonzero;fill:rgb(88.235294%,39.215686%,38.431373%);fill-opacity:0.6;stroke-width:0.708661;stroke-linecap:round;stroke-linejoin:round;stroke:rgb(88.235294%,39.215686%,38.431373%);stroke-opacity:1;stroke-miterlimit:10;" d="M 76.839844 50.855469 L 86.921875 50.855469 L 86.921875 40.773438 L 76.839844 40.773438 Z M 76.839844 50.855469 "/>
<path style="fill-rule:nonzero;fill:rgb(88.235294%,39.215686%,38.431373%);fill-opacity:0.6;stroke-width:0.708661;stroke-linecap:round;stroke-linejoin:round;stroke:rgb(88.235294%,39.215686%,38.431373%);stroke-opacity:1;stroke-miterlimit:10;" d="M 214.320313 112.269531 L 224.402344 112.269531 L 224.402344 102.1875 L 214.320313 102.1875 Z M 214.320313 112.269531 "/>
<path style="fill-rule:nonzero;fill:rgb(88.235294%,39.215686%,38.431373%);fill-opacity:0.6;stroke-width:0.708661;stroke-linecap:round;stroke-linejoin:round;stroke:rgb(88.235294%,39.215686%,38.431373%);stroke-opacity:1;stroke-miterlimit:10;" d="M 199.019531 121.371094 L 209.101563 121.371094 L 209.101563 111.289063 L 199.019531 111.289063 Z M 199.019531 121.371094 "/>
<path style="fill-rule:nonzero;fill:rgb(88.235294%,39.215686%,38.431373%);fill-opacity:0.6;stroke-width:0.708661;stroke-linecap:round;stroke-linejoin:round;stroke:rgb(88.235294%,39.215686%,38.431373%);stroke-opacity:1;stroke-miterlimit:10;" d="M 228.992188 141.132813 L 239.074219 141.132813 L 239.074219 131.050781 L 228.992188 131.050781 Z M 228.992188 141.132813 "/>
<path style="fill-rule:nonzero;fill:rgb(88.235294%,39.215686%,38.431373%);fill-opacity:0.6;stroke-width:0.708661;stroke-linecap:round;stroke-linejoin:round;stroke:rgb(88.235294%,39.215686%,38.431373%);stroke-opacity:1;stroke-miterlimit:10;" d="M 207.195313 108.761719 L 214.855469 122.03125 L 199.53125 122.03125 Z M 207.195313 108.761719 "/>
<path style="fill-rule:nonzero;fill:rgb(88.235294%,39.215686%,38.431373%);fill-opacity:0.6;stroke-width:0.708661;stroke-linecap:round;stroke-linejoin:round;stroke:rgb(88.235294%,39.215686%,38.431373%);stroke-opacity:1;stroke-miterlimit:10;" d="M 184.515625 91.824219 L 194.597656 91.824219 L 194.597656 81.742188 L 184.515625 81.742188 Z M 184.515625 91.824219 "/>
<path style="fill-rule:nonzero;fill:rgb(88.235294%,39.215686%,38.431373%);fill-opacity:0.6;stroke-width:0.708661;stroke-linecap:round;stroke-linejoin:round;stroke:rgb(88.235294%,39.215686%,38.431373%);stroke-opacity:1;stroke-miterlimit:10;" d="M 198.089844 136.472656 L 205.75 149.742188 L 190.425781 149.742188 Z M 198.089844 136.472656 "/>
<path style="fill-rule:nonzero;fill:rgb(88.235294%,39.215686%,38.431373%);fill-opacity:0.6;stroke-width:0.708661;stroke-linecap:round;stroke-linejoin:round;stroke:rgb(88.235294%,39.215686%,38.431373%);stroke-opacity:1;stroke-miterlimit:10;" d="M 264.058594 230.890625 L 274.140625 230.890625 L 274.140625 220.808594 L 264.058594 220.808594 Z M 264.058594 230.890625 "/>
<path style="fill:none;stroke-width:1.115477;stroke-linecap:butt;stroke-linejoin:round;stroke:rgb(66.27451%,66.27451%,66.27451%);stroke-opacity:1;stroke-miterlimit:10;" d="M 55.925781 247.195313 L 55.925781 14.171875 "/>
<path style="fill:none;stroke-width:1.115477;stroke-linecap:butt;stroke-linejoin:round;stroke:rgb(66.27451%,66.27451%,66.27451%);stroke-opacity:1;stroke-miterlimit:10;" d="M 55.925781 247.195313 L 295.652344 247.195313 "/>
<path style=" stroke:none;fill-rule:evenodd;fill:rgb(0%,0%,0%);fill-opacity:1;" d="M 284.097656 258.613281 L 287.464844 265.308594 L 285.664063 265.308594 L 283.089844 259.746094 L 280.550781 265.308594 L 278.824219 265.308594 L 282.097656 258.683594 L 279.113281 252.921875 L 280.910156 252.921875 L 283.125 257.621094 L 285.359375 252.921875 L 287.085938 252.921875 Z M 284.097656 258.613281 "/>
<path style=" stroke:none;fill-rule:evenodd;fill:rgb(0%,0%,0%);fill-opacity:1;" d="M 291.226563 253.066406 L 291.421875 253.070313 L 291.613281 253.082031 L 291.796875 253.105469 L 291.976563 253.132813 L 292.152344 253.171875 L 292.324219 253.214844 L 292.488281 253.269531 L 292.648438 253.332031 L 292.804688 253.402344 L 292.953125 253.480469 L 293.097656 253.5625 L 293.234375 253.652344 L 293.367188 253.746094 L 293.488281 253.847656 L 293.605469 253.953125 L 293.714844 254.066406 L 293.820313 254.1875 L 293.914063 254.3125 L 294.003906 254.441406 L 294.085938 254.578125 L 294.164063 254.71875 L 294.230469 254.859375 L 294.289063 255.003906 L 294.339844 255.148438 L 294.382813 255.300781 L 294.421875 255.453125 L 294.449219 255.609375 L 294.46875 255.765625 L 294.480469 255.925781 L 294.484375 256.089844 L 294.476563 256.316406 L 294.460938 256.535156 L 294.429688 256.742188 L 294.386719 256.945313 L 294.335938 257.136719 L 294.269531 257.316406 L 294.191406 257.492188 L 294.101563 257.65625 L 294.003906 257.816406 L 293.890625 257.964844 L 293.765625 258.097656 L 293.632813 258.226563 L 293.488281 258.34375 L 293.332031 258.453125 L 293.167969 258.554688 L 292.996094 258.644531 L 292.8125 258.726563 L 292.617188 258.796875 L 292.410156 258.863281 L 292.199219 258.917969 L 292.429688 258.945313 L 292.652344 258.988281 L 292.867188 259.039063 L 293.074219 259.109375 L 293.269531 259.1875 L 293.453125 259.28125 L 293.632813 259.386719 L 293.796875 259.503906 L 293.957031 259.636719 L 294.105469 259.78125 L 294.242188 259.9375 L 294.363281 260.109375 L 294.472656 260.289063 L 294.566406 260.480469 L 294.644531 260.6875 L 294.710938 260.902344 L 294.761719 261.128906 L 294.796875 261.371094 L 294.816406 261.625 L 294.824219 261.886719 L 294.820313 262.089844 L 294.808594 262.289063 L 294.785156 262.484375 L 294.75 262.675781 L 294.707031 262.863281 L 294.65625 263.046875 L 294.597656 263.226563 L 294.527344 263.402344 L 294.445313 263.574219 L 294.359375 263.742188 L 294.261719 263.902344 L 294.160156 264.058594 L 294.050781 264.207031 L 293.929688 264.347656 L 293.804688 264.484375 L 293.667969 264.613281 L 293.523438 264.734375 L 293.371094 264.847656 L 293.210938 264.953125 L 293.042969 265.054688 L 292.871094 265.148438 L 292.695313 265.230469 L 292.511719 265.304688 L 292.320313 265.367188 L 292.125 265.417969 L 291.925781 265.464844 L 291.71875 265.496094 L 291.503906 265.523438 L 291.289063 265.535156 L 291.0625 265.542969 L 290.855469 265.539063 L 290.65625 265.527344 L 290.457031 265.503906 L 290.261719 265.476563 L 290.074219 265.441406 L 289.886719 265.398438 L 289.707031 265.347656 L 289.53125 265.289063 L 289.359375 265.21875 L 289.191406 265.144531 L 289.03125 265.058594 L 288.871094 264.964844 L 288.71875 264.859375 L 288.5625 264.746094 L 288.414063 264.628906 L 288.265625 264.5 L 288.121094 264.363281 L 287.976563 264.21875 L 287.835938 264.066406 L 287.699219 263.902344 L 288.667969 263.074219 L 288.78125 263.195313 L 288.890625 263.308594 L 289.003906 263.414063 L 289.113281 263.511719 L 289.222656 263.605469 L 289.332031 263.691406 L 289.441406 263.773438 L 289.550781 263.847656 L 289.660156 263.914063 L 289.765625 263.976563 L 289.878906 264.027344 L 289.996094 264.074219 L 290.113281 264.113281 L 290.234375 264.148438 L 290.355469 264.179688 L 290.484375 264.203125 L 290.609375 264.222656 L 290.742188 264.234375 L 290.875 264.242188 L 291.007813 264.246094 L 291.203125 264.238281 L 291.390625 264.21875 L 291.566406 264.1875 L 291.734375 264.144531 L 291.894531 264.085938 L 292.046875 264.019531 L 292.191406 263.9375 L 292.328125 263.84375 L 292.457031 263.734375 L 292.574219 263.617188 L 292.6875 263.480469 L 292.789063 263.335938 L 292.878906 263.183594 L 292.957031 263.023438 L 293.019531 262.851563 L 293.074219 262.667969 L 293.117188 262.480469 L 293.144531 262.277344 L 293.164063 262.070313 L 293.167969 261.851563 L 293.164063 261.621094 L 293.144531 261.402344 L 293.117188 261.199219 L 293.074219 261.007813 L 293.019531 260.828125 L 292.957031 260.664063 L 292.878906 260.515625 L 292.789063 260.375 L 292.6875 260.253906 L 292.574219 260.140625 L 292.457031 260.039063 L 292.324219 259.945313 L 292.183594 259.867188 L 292.03125 259.796875 L 291.867188 259.738281 L 291.695313 259.6875 L 291.511719 259.648438 L 291.320313 259.621094 L 291.117188 259.605469 L 290.902344 259.601563 L 290.144531 259.601563 L 290.34375 258.394531 L 290.847656 258.394531 L 291.023438 258.390625 L 291.195313 258.371094 L 291.359375 258.34375 L 291.515625 258.304688 L 291.667969 258.253906 L 291.8125 258.195313 L 291.949219 258.121094 L 292.082031 258.039063 L 292.207031 257.945313 L 292.324219 257.835938 L 292.4375 257.722656 L 292.539063 257.59375 L 292.625 257.457031 L 292.703125 257.3125 L 292.769531 257.15625 L 292.824219 256.992188 L 292.863281 256.816406 L 292.894531 256.632813 L 292.910156 256.4375 L 292.917969 256.234375 L 292.914063 256.058594 L 292.898438 255.890625 L 292.871094 255.730469 L 292.835938 255.578125 L 292.792969 255.433594 L 292.734375 255.296875 L 292.671875 255.167969 L 292.59375 255.046875 L 292.507813 254.9375 L 292.414063 254.832031 L 292.3125 254.734375 L 292.203125 254.648438 L 292.089844 254.574219 L 291.964844 254.507813 L 291.832031 254.453125 L 291.695313 254.40625 L 291.546875 254.371094 L 291.394531 254.347656 L 291.234375 254.332031 L 291.0625 254.328125 L 290.9375 254.328125 L 290.816406 254.335938 L 290.574219 254.367188 L 290.457031 254.390625 L 290.339844 254.417969 L 290.226563 254.449219 L 290.113281 254.488281 L 290.003906 254.53125 L 289.894531 254.578125 L 289.789063 254.632813 L 289.683594 254.691406 L 289.578125 254.757813 L 289.472656 254.828125 L 289.367188 254.902344 L 289.261719 254.984375 L 289.152344 255.074219 L 289.046875 255.167969 L 288.9375 255.265625 L 288.832031 255.371094 L 287.984375 254.507813 L 288.269531 254.234375 L 288.5625 253.988281 L 288.867188 253.773438 L 289.179688 253.585938 L 289.496094 253.425781 L 289.824219 253.296875 L 290.164063 253.195313 L 290.507813 253.125 L 290.863281 253.082031 Z M 291.226563 253.066406 "/>
<path style=" stroke:none;fill-rule:evenodd;fill:rgb(0%,0%,0%);fill-opacity:1;" d="M 33.78125 75.03125 L 33.796875 74.597656 L 33.847656 74.183594 L 33.929688 73.789063 L 34.042969 73.414063 L 34.191406 73.054688 L 34.371094 72.71875 L 34.585938 72.398438 L 34.828125 72.097656 L 35.109375 71.820313 L 35.417969 71.558594 L 35.757813 71.3125 L 36.128906 71.097656 L 36.53125 70.90625 L 36.964844 70.738281 L 37.425781 70.597656 L 37.921875 70.484375 L 38.445313 70.394531 L 39.003906 70.332031 L 39.589844 70.292969 L 40.207031 70.277344 L 40.816406 70.292969 L 41.394531 70.328125 L 41.945313 70.394531 L 42.464844 70.480469 L 42.957031 70.59375 L 43.417969 70.734375 L 43.851563 70.898438 L 44.257813 71.085938 L 44.632813 71.300781 L 44.976563 71.539063 L 45.292969 71.800781 L 45.574219 72.082031 L 45.824219 72.382813 L 46.039063 72.703125 L 46.21875 73.042969 L 46.367188 73.402344 L 46.484375 73.78125 L 46.566406 74.175781 L 46.617188 74.59375 L 46.632813 75.03125 L 46.617188 75.464844 L 46.570313 75.878906 L 46.488281 76.273438 L 46.375 76.652344 L 46.230469 77.011719 L 46.050781 77.351563 L 45.839844 77.671875 L 45.597656 77.972656 L 45.320313 78.257813 L 45.015625 78.523438 L 44.671875 78.761719 L 44.296875 78.976563 L 43.894531 79.164063 L 43.460938 79.328125 L 42.996094 79.46875 L 42.503906 79.582031 L 41.980469 79.667969 L 41.425781 79.734375 L 40.839844 79.769531 L 40.226563 79.785156 L 39.816406 79.777344 L 39.421875 79.761719 L 39.039063 79.730469 L 38.671875 79.691406 L 38.3125 79.640625 L 37.96875 79.574219 L 37.636719 79.5 L 37.316406 79.414063 L 37.011719 79.316406 L 36.714844 79.207031 L 36.429688 79.082031 L 36.160156 78.949219 L 35.90625 78.808594 L 35.664063 78.65625 L 35.4375 78.496094 L 35.226563 78.324219 L 35.027344 78.144531 L 34.84375 77.957031 L 34.675781 77.757813 L 34.519531 77.550781 L 34.378906 77.332031 L 34.253906 77.105469 L 34.144531 76.871094 L 34.046875 76.628906 L 33.964844 76.382813 L 33.898438 76.125 L 33.847656 75.863281 L 33.8125 75.59375 L 33.789063 75.316406 Z M 35.113281 75.03125 L 35.164063 75.597656 L 35.316406 76.105469 L 35.574219 76.554688 L 35.933594 76.945313 L 36.390625 77.273438 L 36.953125 77.542969 L 37.617188 77.75 L 38.386719 77.898438 L 39.253906 77.988281 L 40.226563 78.019531 L 41.1875 77.988281 L 42.046875 77.898438 L 42.804688 77.75 L 43.460938 77.542969 L 44.019531 77.273438 L 44.472656 76.945313 L 44.828125 76.554688 L 45.082031 76.105469 L 45.234375 75.597656 L 45.285156 75.03125 L 45.273438 74.742188 L 45.234375 74.46875 L 45.175781 74.210938 L 45.089844 73.964844 L 44.980469 73.734375 L 44.847656 73.519531 L 44.691406 73.316406 L 44.511719 73.128906 L 44.308594 72.957031 L 44.078125 72.800781 L 43.820313 72.65625 L 43.535156 72.527344 L 43.222656 72.414063 L 42.878906 72.316406 L 42.507813 72.230469 L 42.105469 72.164063 L 41.675781 72.109375 L 41.214844 72.074219 L 40.726563 72.050781 L 40.207031 72.042969 L 39.691406 72.050781 L 39.207031 72.074219 L 38.75 72.113281 L 38.320313 72.167969 L 37.917969 72.238281 L 37.542969 72.320313 L 37.199219 72.421875 L 36.882813 72.539063 L 36.597656 72.671875 L 36.335938 72.816406 L 36.105469 72.976563 L 35.898438 73.148438 L 35.714844 73.335938 L 35.554688 73.535156 L 35.417969 73.75 L 35.308594 73.976563 L 35.222656 74.21875 L 35.164063 74.476563 L 35.125 74.746094 Z M 35.113281 75.03125 "/>
<path style=" stroke:none;fill-rule:evenodd;fill:rgb(0%,0%,0%);fill-opacity:1;" d="M 46.398438 61.421875 L 46.398438 62.828125 L 44.976563 62.917969 L 45.292969 63.121094 L 45.574219 63.339844 L 45.824219 63.570313 L 46.039063 63.816406 L 46.21875 64.074219 L 46.367188 64.34375 L 46.484375 64.628906 L 46.566406 64.925781 L 46.617188 65.238281 L 46.632813 65.5625 L 46.625 65.785156 L 46.605469 65.996094 L 46.566406 66.199219 L 46.515625 66.394531 L 46.449219 66.574219 L 46.367188 66.75 L 46.273438 66.914063 L 46.160156 67.066406 L 46.035156 67.210938 L 45.894531 67.34375 L 45.742188 67.46875 L 45.578125 67.578125 L 45.40625 67.675781 L 45.222656 67.761719 L 45.027344 67.832031 L 44.820313 67.890625 L 44.605469 67.933594 L 44.382813 67.96875 L 44.144531 67.988281 L 43.898438 67.992188 L 36.933594 67.992188 L 36.933594 66.375 L 43.753906 66.375 L 43.914063 66.371094 L 44.066406 66.359375 L 44.210938 66.34375 L 44.347656 66.324219 L 44.472656 66.296875 L 44.59375 66.261719 L 44.703125 66.222656 L 44.800781 66.175781 L 44.894531 66.125 L 44.976563 66.066406 L 45.050781 66 L 45.113281 65.925781 L 45.171875 65.84375 L 45.21875 65.757813 L 45.261719 65.667969 L 45.296875 65.566406 L 45.320313 65.464844 L 45.339844 65.351563 L 45.351563 65.234375 L 45.355469 65.113281 L 45.339844 64.875 L 45.292969 64.644531 L 45.214844 64.421875 L 45.101563 64.203125 L 44.960938 63.992188 L 44.785156 63.789063 L 44.578125 63.59375 L 44.34375 63.402344 L 44.074219 63.21875 L 43.773438 63.042969 L 36.933594 63.042969 L 36.933594 61.421875 Z M 46.398438 61.421875 "/>
<path style=" stroke:none;fill-rule:evenodd;fill:rgb(0%,0%,0%);fill-opacity:1;" d="M 45.984375 54.023438 L 46.109375 54.207031 L 46.21875 54.394531 L 46.316406 54.582031 L 46.402344 54.777344 L 46.472656 54.976563 L 46.53125 55.175781 L 46.574219 55.382813 L 46.609375 55.59375 L 46.628906 55.804688 L 46.632813 56.023438 L 46.628906 56.25 L 46.605469 56.464844 L 46.574219 56.667969 L 46.527344 56.859375 L 46.46875 57.042969 L 46.394531 57.21875 L 46.308594 57.378906 L 46.207031 57.53125 L 46.09375 57.675781 L 45.96875 57.804688 L 45.828125 57.921875 L 45.679688 58.027344 L 45.519531 58.117188 L 45.347656 58.195313 L 45.167969 58.265625 L 44.972656 58.320313 L 44.769531 58.363281 L 44.554688 58.394531 L 44.332031 58.410156 L 44.097656 58.417969 L 38.15625 58.417969 L 38.15625 59.765625 L 36.933594 59.765625 L 36.933594 58.417969 L 34.753906 58.417969 L 34.554688 56.796875 L 36.933594 56.796875 L 36.933594 54.710938 L 38.15625 54.890625 L 38.15625 56.796875 L 44.078125 56.796875 L 44.308594 56.785156 L 44.519531 56.757813 L 44.703125 56.703125 L 44.859375 56.632813 L 44.996094 56.539063 L 45.105469 56.429688 L 45.191406 56.292969 L 45.253906 56.140625 L 45.289063 55.964844 L 45.300781 55.769531 L 45.300781 55.710938 L 45.289063 55.535156 L 45.277344 55.480469 L 45.269531 55.421875 L 45.257813 55.371094 L 45.246094 55.316406 L 45.230469 55.265625 L 45.210938 55.214844 L 45.191406 55.160156 L 45.171875 55.101563 L 45.148438 55.046875 L 45.125 54.988281 L 45.070313 54.871094 L 45.042969 54.808594 L 45.011719 54.746094 L 44.941406 54.621094 Z M 45.984375 54.023438 "/>
<path style=" stroke:none;fill-rule:evenodd;fill:rgb(0%,0%,0%);fill-opacity:1;" d="M 36.699219 49.328125 L 36.699219 49.175781 L 36.707031 49.03125 L 36.71875 48.886719 L 36.738281 48.742188 L 36.761719 48.601563 L 36.789063 48.464844 L 36.820313 48.332031 L 36.859375 48.199219 L 36.902344 48.070313 L 36.949219 47.941406 L 37.003906 47.816406 L 37.0625 47.691406 L 37.125 47.566406 L 37.195313 47.445313 L 37.269531 47.324219 L 37.347656 47.203125 L 37.433594 47.085938 L 37.621094 46.851563 L 37.722656 46.734375 L 38.695313 47.457031 L 38.628906 47.542969 L 38.566406 47.628906 L 38.449219 47.800781 L 38.398438 47.886719 L 38.304688 48.058594 L 38.265625 48.144531 L 38.226563 48.234375 L 38.15625 48.40625 L 38.125 48.496094 L 38.078125 48.675781 L 38.039063 48.863281 L 38.027344 48.960938 L 38.019531 49.054688 L 38.011719 49.15625 L 38.011719 49.253906 L 38.019531 49.464844 L 38.046875 49.660156 L 38.09375 49.851563 L 38.15625 50.03125 L 38.238281 50.199219 L 38.335938 50.359375 L 38.453125 50.511719 L 38.585938 50.65625 L 38.742188 50.789063 L 38.910156 50.910156 L 39.101563 51.019531 L 39.3125 51.117188 L 39.542969 51.203125 L 39.792969 51.28125 L 40.0625 51.34375 L 40.355469 51.394531 L 40.664063 51.433594 L 40.996094 51.464844 L 41.347656 51.480469 L 41.71875 51.488281 L 42.398438 51.464844 L 43.003906 51.398438 L 43.539063 51.285156 L 44 51.128906 L 44.394531 50.929688 L 44.714844 50.683594 L 44.964844 50.394531 L 45.140625 50.058594 L 45.25 49.679688 L 45.285156 49.253906 L 45.277344 49.058594 L 45.269531 48.960938 L 45.257813 48.867188 L 45.242188 48.773438 L 45.226563 48.683594 L 45.203125 48.59375 L 45.179688 48.507813 L 45.152344 48.421875 L 45.121094 48.335938 L 45.085938 48.253906 L 45 48.082031 L 44.953125 47.996094 L 44.902344 47.910156 L 44.847656 47.820313 L 44.730469 47.640625 L 44.667969 47.546875 L 44.601563 47.457031 L 45.589844 46.699219 L 45.789063 46.933594 L 45.964844 47.171875 L 46.121094 47.417969 L 46.257813 47.667969 L 46.371094 47.925781 L 46.464844 48.191406 L 46.539063 48.460938 L 46.59375 48.738281 L 46.625 49.019531 L 46.632813 49.308594 L 46.621094 49.664063 L 46.582031 50.003906 L 46.519531 50.332031 L 46.433594 50.640625 L 46.320313 50.933594 L 46.179688 51.210938 L 46.015625 51.476563 L 45.828125 51.722656 L 45.613281 51.953125 L 45.375 52.171875 L 45.109375 52.367188 L 44.824219 52.539063 L 44.515625 52.695313 L 44.1875 52.828125 L 43.835938 52.941406 L 43.460938 53.03125 L 43.0625 53.105469 L 42.644531 53.15625 L 42.203125 53.1875 L 41.738281 53.195313 L 41.433594 53.191406 L 41.136719 53.179688 L 40.847656 53.15625 L 40.566406 53.121094 L 40.292969 53.082031 L 40.027344 53.027344 L 39.773438 52.96875 L 39.527344 52.898438 L 39.285156 52.816406 L 39.054688 52.730469 L 38.835938 52.628906 L 38.621094 52.519531 L 38.421875 52.402344 L 38.230469 52.28125 L 38.050781 52.148438 L 37.882813 52.011719 L 37.722656 51.863281 L 37.574219 51.710938 L 37.4375 51.546875 L 37.308594 51.378906 L 37.195313 51.199219 L 37.089844 51.015625 L 36.996094 50.824219 L 36.917969 50.628906 L 36.851563 50.425781 L 36.796875 50.21875 L 36.753906 50.003906 L 36.722656 49.785156 L 36.703125 49.558594 Z M 36.699219 49.328125 "/>
<path style=" stroke:none;fill-rule:evenodd;fill:rgb(0%,0%,0%);fill-opacity:1;" d="M 36.699219 41.625 L 36.710938 41.269531 L 36.75 40.929688 L 36.8125 40.605469 L 36.902344 40.296875 L 37.015625 40.007813 L 37.15625 39.734375 L 37.324219 39.476563 L 37.515625 39.234375 L 37.734375 39.007813 L 37.976563 38.796875 L 38.242188 38.605469 L 38.53125 38.433594 L 38.84375 38.28125 L 39.175781 38.152344 L 39.53125 38.042969 L 39.910156 37.949219 L 40.3125 37.878906 L 40.734375 37.828125 L 41.179688 37.800781 L 41.648438 37.789063 L 42.097656 37.800781 L 42.53125 37.832031 L 42.945313 37.882813 L 43.339844 37.953125 L 43.714844 38.046875 L 44.070313 38.160156 L 44.40625 38.292969 L 44.722656 38.445313 L 45.023438 38.621094 L 45.300781 38.816406 L 45.554688 39.027344 L 45.78125 39.257813 L 45.980469 39.5 L 46.152344 39.761719 L 46.300781 40.035156 L 46.421875 40.324219 L 46.515625 40.632813 L 46.582031 40.953125 L 46.621094 41.289063 L 46.632813 41.640625 L 46.621094 41.996094 L 46.582031 42.335938 L 46.515625 42.660156 L 46.421875 42.96875 L 46.304688 43.261719 L 46.160156 43.539063 L 45.988281 43.796875 L 45.792969 44.042969 L 45.570313 44.273438 L 45.320313 44.484375 L 45.046875 44.675781 L 44.753906 44.847656 L 44.4375 45 L 44.105469 45.128906 L 43.75 45.242188 L 43.375 45.332031 L 42.976563 45.402344 L 42.5625 45.453125 L 42.125 45.484375 L 41.664063 45.492188 L 41.203125 45.484375 L 40.765625 45.453125 L 40.347656 45.402344 L 39.949219 45.328125 L 39.574219 45.238281 L 39.21875 45.125 L 38.886719 44.992188 L 38.574219 44.835938 L 38.28125 44.664063 L 38.011719 44.46875 L 37.761719 44.253906 L 37.539063 44.023438 L 37.339844 43.78125 L 37.171875 43.519531 L 37.027344 43.242188 L 36.90625 42.949219 L 36.816406 42.644531 L 36.75 42.320313 L 36.710938 41.980469 Z M 37.992188 41.625 L 38.003906 41.832031 L 38.03125 42.027344 L 38.074219 42.214844 L 38.136719 42.390625 L 38.21875 42.558594 L 38.316406 42.714844 L 38.433594 42.863281 L 38.570313 43 L 38.722656 43.125 L 38.894531 43.242188 L 39.082031 43.347656 L 39.285156 43.445313 L 39.511719 43.527344 L 39.761719 43.601563 L 40.027344 43.660156 L 40.316406 43.710938 L 40.621094 43.75 L 40.949219 43.777344 L 41.296875 43.796875 L 41.664063 43.800781 L 42.367188 43.78125 L 42.996094 43.714844 L 43.546875 43.605469 L 44.027344 43.457031 L 44.433594 43.261719 L 44.765625 43.023438 L 45.023438 42.742188 L 45.207031 42.417969 L 45.320313 42.050781 L 45.355469 41.640625 L 45.320313 41.230469 L 45.207031 40.863281 L 45.023438 40.539063 L 44.761719 40.257813 L 44.429688 40.019531 L 44.019531 39.828125 L 43.539063 39.675781 L 42.984375 39.566406 L 42.351563 39.503906 L 41.648438 39.480469 L 41.28125 39.488281 L 40.933594 39.503906 L 40.605469 39.53125 L 40.296875 39.566406 L 40.007813 39.617188 L 39.742188 39.675781 L 39.496094 39.746094 L 39.269531 39.828125 L 39.0625 39.917969 L 38.875 40.019531 L 38.707031 40.132813 L 38.558594 40.257813 L 38.425781 40.390625 L 38.3125 40.535156 L 38.214844 40.691406 L 38.136719 40.855469 L 38.074219 41.03125 L 38.027344 41.21875 L 38.003906 41.417969 Z M 37.992188 41.625 "/>
<path style=" stroke:none;fill-rule:evenodd;fill:rgb(0%,0%,0%);fill-opacity:1;" d="M 36.699219 26.703125 L 36.707031 26.5 L 36.730469 26.308594 L 36.765625 26.121094 L 36.820313 25.945313 L 36.890625 25.777344 L 36.976563 25.617188 L 37.078125 25.46875 L 37.191406 25.324219 L 37.324219 25.191406 L 37.472656 25.0625 L 37.628906 24.945313 L 37.796875 24.84375 L 37.972656 24.75 L 38.160156 24.671875 L 38.359375 24.605469 L 38.566406 24.550781 L 38.785156 24.507813 L 39.015625 24.476563 L 39.253906 24.457031 L 39.503906 24.453125 L 46.398438 24.453125 L 46.398438 26.054688 L 39.6875 26.054688 L 39.359375 26.0625 L 39.0625 26.097656 L 38.804688 26.152344 L 38.578125 26.230469 L 38.390625 26.332031 L 38.234375 26.453125 L 38.113281 26.601563 L 38.027344 26.765625 L 37.976563 26.957031 L 37.957031 27.167969 L 37.972656 27.382813 L 38.023438 27.59375 L 38.105469 27.800781 L 38.222656 28.003906 L 38.371094 28.203125 L 38.554688 28.402344 L 38.769531 28.59375 L 39.019531 28.78125 L 39.300781 28.96875 L 39.613281 29.148438 L 46.398438 29.148438 L 46.398438 30.75 L 39.6875 30.75 L 39.359375 30.761719 L 39.0625 30.796875 L 38.804688 30.851563 L 38.578125 30.929688 L 38.390625 31.03125 L 38.234375 31.152344 L 38.113281 31.296875 L 38.027344 31.464844 L 37.976563 31.65625 L 37.957031 31.867188 L 37.972656 32.085938 L 38.023438 32.296875 L 38.105469 32.507813 L 38.222656 32.710938 L 38.371094 32.910156 L 38.554688 33.105469 L 38.769531 33.296875 L 39.019531 33.484375 L 39.300781 33.667969 L 39.613281 33.847656 L 46.398438 33.847656 L 46.398438 35.449219 L 36.933594 35.449219 L 36.933594 34.046875 L 38.316406 33.917969 L 38.011719 33.707031 L 37.734375 33.484375 L 37.492188 33.253906 L 37.28125 33.015625 L 37.101563 32.765625 L 36.957031 32.511719 L 36.84375 32.246094 L 36.761719 31.972656 L 36.714844 31.691406 L 36.699219 31.398438 L 36.703125 31.246094 L 36.714844 31.097656 L 36.738281 30.957031 L 36.769531 30.816406 L 36.808594 30.683594 L 36.859375 30.554688 L 36.917969 30.429688 L 36.984375 30.3125 L 37.0625 30.195313 L 37.148438 30.085938 L 37.242188 29.980469 L 37.34375 29.882813 L 37.453125 29.789063 L 37.566406 29.703125 L 37.691406 29.621094 L 37.824219 29.546875 L 37.964844 29.480469 L 38.109375 29.417969 L 38.265625 29.359375 L 38.425781 29.3125 L 38.097656 29.085938 L 37.804688 28.855469 L 37.542969 28.613281 L 37.320313 28.367188 L 37.128906 28.109375 L 36.972656 27.84375 L 36.851563 27.570313 L 36.765625 27.289063 L 36.714844 27 Z M 36.699219 26.703125 "/>
<path style=" stroke:none;fill-rule:evenodd;fill:rgb(0%,0%,0%);fill-opacity:1;" d="M 41.378906 14.964844 L 41.53125 14.964844 L 41.695313 14.972656 L 41.777344 14.972656 L 41.863281 14.976563 L 41.949219 14.984375 L 42.039063 14.988281 L 42.132813 14.996094 L 42.222656 15 L 42.222656 20.507813 L 42.546875 20.488281 L 42.847656 20.460938 L 43.132813 20.417969 L 43.402344 20.367188 L 43.648438 20.308594 L 43.878906 20.234375 L 44.09375 20.152344 L 44.285156 20.058594 L 44.460938 19.957031 L 44.617188 19.84375 L 44.753906 19.71875 L 44.875 19.589844 L 44.984375 19.449219 L 45.078125 19.300781 L 45.15625 19.140625 L 45.222656 18.976563 L 45.273438 18.800781 L 45.308594 18.617188 L 45.332031 18.425781 L 45.335938 18.222656 L 45.335938 18.09375 L 45.328125 17.96875 L 45.320313 17.847656 L 45.304688 17.726563 L 45.289063 17.609375 L 45.265625 17.496094 L 45.242188 17.386719 L 45.210938 17.277344 L 45.175781 17.171875 L 45.140625 17.070313 L 45.097656 16.964844 L 45.050781 16.859375 L 45 16.753906 L 44.941406 16.648438 L 44.878906 16.539063 L 44.8125 16.433594 L 44.738281 16.324219 L 44.660156 16.214844 L 44.578125 16.101563 L 44.492188 15.992188 L 45.445313 15.269531 L 45.671875 15.542969 L 45.875 15.820313 L 46.050781 16.101563 L 46.207031 16.394531 L 46.335938 16.691406 L 46.445313 17 L 46.527344 17.3125 L 46.585938 17.632813 L 46.621094 17.960938 L 46.632813 18.296875 L 46.621094 18.65625 L 46.582031 19.003906 L 46.519531 19.332031 L 46.429688 19.644531 L 46.3125 19.941406 L 46.171875 20.222656 L 46.007813 20.484375 L 45.816406 20.730469 L 45.597656 20.960938 L 45.355469 21.175781 L 45.085938 21.367188 L 44.796875 21.539063 L 44.484375 21.6875 L 44.15625 21.820313 L 43.804688 21.929688 L 43.429688 22.023438 L 43.039063 22.09375 L 42.625 22.144531 L 42.191406 22.171875 L 41.738281 22.183594 L 41.28125 22.171875 L 40.847656 22.144531 L 40.433594 22.097656 L 40.035156 22.027344 L 39.660156 21.941406 L 39.300781 21.832031 L 38.964844 21.707031 L 38.644531 21.5625 L 38.34375 21.394531 L 38.066406 21.210938 L 37.804688 21.007813 L 37.574219 20.792969 L 37.367188 20.558594 L 37.191406 20.3125 L 37.039063 20.050781 L 36.917969 19.773438 L 36.820313 19.480469 L 36.753906 19.171875 L 36.710938 18.847656 L 36.699219 18.511719 L 36.710938 18.175781 L 36.746094 17.859375 L 36.808594 17.554688 L 36.894531 17.269531 L 37.003906 17 L 37.136719 16.746094 L 37.296875 16.503906 L 37.480469 16.28125 L 37.6875 16.074219 L 37.921875 15.882813 L 38.171875 15.707031 L 38.445313 15.554688 L 38.738281 15.414063 L 39.054688 15.296875 L 39.390625 15.195313 L 39.746094 15.113281 L 40.121094 15.046875 L 40.519531 15 L 40.9375 14.972656 Z M 40.890625 16.53125 L 40.328125 16.550781 L 39.824219 16.609375 L 39.378906 16.707031 L 38.992188 16.84375 L 38.664063 17.023438 L 38.398438 17.238281 L 38.1875 17.492188 L 38.039063 17.785156 L 37.953125 18.121094 L 37.921875 18.492188 L 37.929688 18.667969 L 37.953125 18.839844 L 37.988281 19 L 38.042969 19.152344 L 38.109375 19.296875 L 38.195313 19.4375 L 38.292969 19.566406 L 38.40625 19.691406 L 38.535156 19.808594 L 38.679688 19.914063 L 38.835938 20.015625 L 39.011719 20.105469 L 39.203125 20.1875 L 39.417969 20.261719 L 39.648438 20.324219 L 39.898438 20.378906 L 40.167969 20.425781 L 40.457031 20.460938 L 40.765625 20.492188 L 41.089844 20.507813 L 41.089844 16.53125 Z M 40.890625 16.53125 "/>
<path style="fill-rule:evenodd;fill:rgb(100%,100%,100%);fill-opacity:1;stroke-width:1.115477;stroke-linecap:round;stroke-linejoin:round;stroke:rgb(66.27451%,66.27451%,66.27451%);stroke-opacity:1;stroke-miterlimit:10;" d="M 133.992188 331.652344 L 217.585938 331.652344 L 217.585938 280.5625 L 133.992188 280.5625 Z M 133.992188 331.652344 "/>
<path style=" stroke:none;fill-rule:evenodd;fill:rgb(0%,0%,0%);fill-opacity:1;" d="M 146.714844 287.980469 L 146.714844 289.164063 L 141.753906 297.722656 L 146.699219 297.722656 L 146.539063 298.988281 L 140.121094 298.988281 L 140.121094 297.804688 L 145.113281 289.210938 L 140.617188 289.210938 L 140.617188 287.980469 Z M 146.714844 287.980469 "/>
<path style="fill-rule:evenodd;fill:rgb(88.235294%,39.215686%,38.431373%);fill-opacity:0.6;stroke-width:0.708661;stroke-linecap:round;stroke-linejoin:round;stroke:rgb(88.235294%,39.215686%,38.431373%);stroke-opacity:1;stroke-miterlimit:10;" d="M 148.363281 308.4375 L 156.023438 321.707031 L 140.699219 321.707031 Z M 148.363281 308.4375 "/>
<path style="fill-rule:evenodd;fill:rgb(88.235294%,39.215686%,38.431373%);fill-opacity:0.6;stroke-width:0.708661;stroke-linecap:round;stroke-linejoin:round;stroke:rgb(88.235294%,39.215686%,38.431373%);stroke-opacity:1;stroke-miterlimit:10;" d="M 184.355469 322.328125 L 194.4375 322.328125 L 194.4375 312.246094 L 184.355469 312.246094 Z M 184.355469 322.328125 "/>
<path style=" stroke:none;fill-rule:evenodd;fill:rgb(0%,0%,0%);fill-opacity:1;" d="M 168.886719 312.246094 L 169.183594 312.257813 L 169.464844 312.296875 L 169.730469 312.363281 L 169.980469 312.453125 L 170.21875 312.570313 L 170.441406 312.714844 L 170.648438 312.882813 L 170.839844 313.082031 L 171.019531 313.300781 L 171.183594 313.550781 L 171.332031 313.824219 L 171.464844 314.121094 L 171.582031 314.449219 L 171.679688 314.796875 L 171.765625 315.171875 L 171.835938 315.574219 L 171.890625 316 L 171.929688 316.453125 L 171.953125 316.933594 L 171.960938 317.433594 L 171.953125 317.945313 L 171.929688 318.425781 L 171.890625 318.882813 L 171.835938 319.3125 L 171.765625 319.71875 L 171.679688 320.097656 L 171.582031 320.449219 L 171.464844 320.777344 L 171.332031 321.074219 L 171.183594 321.351563 L 171.019531 321.59375 L 170.839844 321.8125 L 170.648438 322.007813 L 170.441406 322.175781 L 170.21875 322.316406 L 169.980469 322.433594 L 169.730469 322.523438 L 169.464844 322.589844 L 169.183594 322.628906 L 168.886719 322.640625 L 168.589844 322.628906 L 168.304688 322.585938 L 168.035156 322.523438 L 167.785156 322.429688 L 167.542969 322.3125 L 167.320313 322.171875 L 167.113281 322 L 166.917969 321.804688 L 166.742188 321.582031 L 166.578125 321.335938 L 166.429688 321.0625 L 166.296875 320.761719 L 166.179688 320.4375 L 166.078125 320.085938 L 165.992188 319.707031 L 165.921875 319.304688 L 165.867188 318.875 L 165.828125 318.421875 L 165.804688 317.941406 L 165.796875 317.433594 L 165.828125 316.449219 L 165.921875 315.566406 L 166.074219 314.789063 L 166.292969 314.113281 L 166.570313 313.542969 L 166.910156 313.074219 L 167.3125 312.710938 L 167.773438 312.453125 L 168.300781 312.296875 Z M 168.886719 313.296875 L 168.71875 313.304688 L 168.558594 313.332031 L 168.40625 313.382813 L 168.261719 313.449219 L 168.128906 313.535156 L 168.003906 313.640625 L 167.890625 313.765625 L 167.785156 313.910156 L 167.6875 314.074219 L 167.597656 314.253906 L 167.519531 314.457031 L 167.453125 314.683594 L 167.390625 314.9375 L 167.339844 315.21875 L 167.292969 315.523438 L 167.257813 315.851563 L 167.230469 316.210938 L 167.207031 316.59375 L 167.195313 317 L 167.191406 317.433594 L 167.195313 317.871094 L 167.207031 318.28125 L 167.230469 318.667969 L 167.257813 319.027344 L 167.292969 319.359375 L 167.339844 319.664063 L 167.390625 319.945313 L 167.453125 320.199219 L 167.519531 320.429688 L 167.597656 320.628906 L 167.6875 320.808594 L 167.785156 320.96875 L 167.890625 321.113281 L 168.003906 321.234375 L 168.128906 321.339844 L 168.261719 321.421875 L 168.40625 321.488281 L 168.558594 321.539063 L 168.71875 321.566406 L 168.886719 321.574219 L 169.054688 321.566406 L 169.210938 321.539063 L 169.359375 321.488281 L 169.5 321.421875 L 169.628906 321.339844 L 169.75 321.234375 L 169.863281 321.113281 L 169.96875 320.96875 L 170.0625 320.808594 L 170.148438 320.628906 L 170.226563 320.429688 L 170.296875 320.199219 L 170.363281 319.945313 L 170.417969 319.664063 L 170.460938 319.359375 L 170.5 319.027344 L 170.53125 318.667969 L 170.550781 318.28125 L 170.5625 317.871094 L 170.566406 317.433594 L 170.5625 317 L 170.550781 316.585938 L 170.53125 316.203125 L 170.503906 315.84375 L 170.464844 315.511719 L 170.421875 315.203125 L 170.367188 314.925781 L 170.308594 314.671875 L 170.238281 314.441406 L 170.164063 314.238281 L 170.078125 314.058594 L 169.980469 313.898438 L 169.878906 313.757813 L 169.765625 313.636719 L 169.640625 313.53125 L 169.507813 313.445313 L 169.367188 313.378906 L 169.214844 313.332031 L 169.058594 313.304688 Z M 168.886719 313.296875 "/>
<path style=" stroke:none;fill-rule:evenodd;fill:rgb(0%,0%,0%);fill-opacity:1;" d="M 210.417969 312.410156 L 210.417969 322.445313 L 209.082031 322.445313 L 209.082031 313.820313 L 206.996094 315.230469 L 206.382813 314.328125 L 209.234375 312.410156 Z M 210.417969 312.410156 "/>
</g>
</svg>
