<?xml version="1.0" encoding="UTF-8"?>
<svg xmlns="http://www.w3.org/2000/svg" xmlns:xlink="http://www.w3.org/1999/xlink" width="324pt" height="360pt" viewBox="0 0 324 360" version="1.1">
<g id="surface104">
<rect x="0" y="0" width="324" height="360" style="fill:rgb(100%,100%,100%);fill-opacity:1;stroke:none;"/>
<path style="fill-rule:nonzero;fill:rgb(74.901961%,22.352941%,51.764706%);fill-opacity:0.4;stroke-width:0.708661;stroke-linecap:round;stroke-linejoin:round;stroke:rgb(74.901961%,22.352941%,51.764706%);stroke-opacity:1;stroke-miterlimit:10;" d="M 66.285156 43.183594 L 76.367188 43.183594 L 76.367188 33.101563 L 66.285156 33.101563 Z M 66.285156 43.183594 "/>
<path style="fill-rule:nonzero;fill:rgb(33.72549%,0.392157%,64.313725%);fill-opacity:0.4;stroke-width:0.708661;stroke-linecap:round;stroke-linejoin:round;stroke:rgb(33.72549%,0.392157%,64.313725%);stroke-opacity:1;stroke-miterlimit:10;" d="M 201.605469 151.566406 C 201.605469 154.707031 199.058594 157.253906 195.917969 157.253906 C 192.773438 157.253906 190.226563 154.707031 190.226563 151.566406 C 190.226563 148.425781 192.773438 145.878906 195.917969 145.878906 C 199.058594 145.878906 201.605469 148.425781 201.605469 151.566406 "/>
<path style="fill-rule:nonzero;fill:rgb(33.72549%,0.392157%,64.313725%);fill-opacity:0.4;stroke-width:0.708661;stroke-linecap:round;stroke-linejoin:round;stroke:rgb(33.72549%,0.392157%,64.313725%);stroke-opacity:1;stroke-miterlimit:10;" d="M 88.371094 148.382813 L 98.453125 148.382813 L 98.453125 138.300781 L 88.371094 138.300781 Z M 88.371094 148.382813 "/>
<path style="fill-rule:nonzero;fill:rgb(33.72549%,0.392157%,64.313725%);fill-opacity:0.4;stroke-width:0.708661;stroke-linecap:round;stroke-linejoin:round;stroke:rgb(33.72549%,0.392157%,64.313725%);stroke-opacity:1;stroke-miterlimit:10;" d="M 251.464844 136.730469 L 261.546875 136.730469 L 261.546875 126.648438 L 251.464844 126.648438 Z M 251.464844 136.730469 "/>
<path style="fill-rule:nonzero;fill:rgb(74.901961%,22.352941%,51.764706%);fill-opacity:0.4;stroke-width:0.708661;stroke-linecap:round;stroke-linejoin:round;stroke:rgb(74.901961%,22.352941%,51.764706%);stroke-opacity:1;stroke-miterlimit:10;" d="M 218.429688 131.152344 C 218.429688 134.292969 215.882813 136.839844 212.738281 136.839844 C 209.597656 136.839844 207.050781 134.292969 207.050781 131.152344 C 207.050781 128.007813 209.597656 125.460938 212.738281 125.460938 C 215.882813 125.460938 218.429688 128.007813 218.429688 131.152344 "/>
<path style="fill-rule:nonzero;fill:rgb(98.823529%,80.784314%,14.509804%);fill-opacity:0.4;stroke-width:0.708661;stroke-linecap:round;stroke-linejoin:round;stroke:rgb(98.823529%,80.784314%,14.509804%);stroke-opacity:1;stroke-miterlimit:10;" d="M 77.660156 130.140625 C 77.660156 133.285156 75.113281 135.832031 71.96875 135.832031 C 68.828125 135.832031 66.28125 133.285156 66.28125 130.140625 C 66.28125 127 68.828125 124.453125 71.96875 124.453125 C 75.113281 124.453125 77.660156 127 77.660156 130.140625 "/>
<path style="fill-rule:nonzero;fill:rgb(98.823529%,80.784314%,14.509804%);fill-opacity:0.4;stroke-width:0.708661;stroke-linecap:round;stroke-linejoin:round;stroke:rgb(98.823529%,80.784314%,14.509804%);stroke-opacity:1;stroke-miterlimit:10;" d="M 119.546875 104.851563 L 129.628906 104.851563 L 129.628906 94.769531 L 119.546875 94.769531 Z M 119.546875 104.851563 "/>
<path style="fill-rule:nonzero;fill:rgb(98.823529%,80.784314%,14.509804%);fill-opacity:0.4;stroke-width:0.708661;stroke-linecap:round;stroke-linejoin:round;stroke:rgb(98.823529%,80.784314%,14.509804%);stroke-opacity:1;stroke-miterlimit:10;" d="M 258.617188 89.4375 L 268.699219 89.4375 L 268.699219 79.355469 L 258.617188 79.355469 Z M 258.617188 89.4375 "/>
<path style="fill-rule:nonzero;fill:rgb(33.72549%,0.392157%,64.313725%);fill-opacity:0.4;stroke-width:0.708661;stroke-linecap:round;stroke-linejoin:round;stroke:rgb(33.72549%,0.392157%,64.313725%);stroke-opacity:1;stroke-miterlimit:10;" d="M 112.730469 141.453125 L 122.8125 141.453125 L 122.8125 131.371094 L 112.730469 131.371094 Z M 112.730469 141.453125 "/>
<path style="fill-rule:nonzero;fill:rgb(33.72549%,0.392157%,64.313725%);fill-opacity:0.4;stroke-width:0.708661;stroke-linecap:round;stroke-linejoin:round;stroke:rgb(33.72549%,0.392157%,64.313725%);stroke-opacity:1;stroke-miterlimit:10;" d="M 236.03125 139.863281 C 236.03125 143.003906 233.484375 145.550781 230.339844 145.550781 C 227.199219 145.550781 224.652344 143.003906 224.652344 139.863281 C 224.652344 136.71875 227.199219 134.171875 230.339844 134.171875 C 233.484375 134.171875 236.03125 136.71875 236.03125 139.863281 "/>
<path style="fill-rule:nonzero;fill:rgb(74.901961%,22.352941%,51.764706%);fill-opacity:0.4;stroke-width:0.708661;stroke-linecap:round;stroke-linejoin:round;stroke:rgb(74.901961%,22.352941%,51.764706%);stroke-opacity:1;stroke-miterlimit:10;" d="M 219.238281 110.882813 L 229.320313 110.882813 L 229.320313 100.800781 L 219.238281 100.800781 Z M 219.238281 110.882813 "/>
<path style="fill-rule:nonzero;fill:rgb(74.901961%,22.352941%,51.764706%);fill-opacity:0.4;stroke-width:0.708661;stroke-linecap:round;stroke-linejoin:round;stroke:rgb(74.901961%,22.352941%,51.764706%);stroke-opacity:1;stroke-miterlimit:10;" d="M 202.214844 120.914063 L 212.296875 120.914063 L 212.296875 110.832031 L 202.214844 110.832031 Z M 202.214844 120.914063 "/>
<path style="fill-rule:nonzero;fill:rgb(98.823529%,80.784314%,14.509804%);fill-opacity:0.4;stroke-width:0.708661;stroke-linecap:round;stroke-linejoin:round;stroke:rgb(98.823529%,80.784314%,14.509804%);stroke-opacity:1;stroke-miterlimit:10;" d="M 181.203125 88.140625 L 191.285156 88.140625 L 191.285156 78.058594 L 181.203125 78.058594 Z M 181.203125 88.140625 "/>
<path style="fill-rule:nonzero;fill:rgb(33.72549%,0.392157%,64.313725%);fill-opacity:0.4;stroke-width:0.708661;stroke-linecap:round;stroke-linejoin:round;stroke:rgb(33.72549%,0.392157%,64.313725%);stroke-opacity:1;stroke-miterlimit:10;" d="M 110.824219 125.839844 L 120.90625 125.839844 L 120.90625 115.757813 L 110.824219 115.757813 Z M 110.824219 125.839844 "/>
<path style="fill-rule:nonzero;fill:rgb(74.901961%,22.352941%,51.764706%);fill-opacity:0.4;stroke-width:0.708661;stroke-linecap:round;stroke-linejoin:round;stroke:rgb(74.901961%,22.352941%,51.764706%);stroke-opacity:1;stroke-miterlimit:10;" d="M 121.878906 164.804688 C 121.878906 167.949219 119.332031 170.496094 116.1875 170.496094 C 113.046875 170.496094 110.5 167.949219 110.5 164.804688 C 110.5 161.664063 113.046875 159.117188 116.1875 159.117188 C 119.332031 159.117188 121.878906 161.664063 121.878906 164.804688 "/>
<path style="fill-rule:nonzero;fill:rgb(98.823529%,80.784314%,14.509804%);fill-opacity:0.4;stroke-width:0.708661;stroke-linecap:round;stroke-linejoin:round;stroke:rgb(98.823529%,80.784314%,14.509804%);stroke-opacity:1;stroke-miterlimit:10;" d="M 204.238281 111.371094 L 214.320313 111.371094 L 214.320313 101.289063 L 204.238281 101.289063 Z M 204.238281 111.371094 "/>
<path style="fill-rule:nonzero;fill:rgb(74.901961%,22.352941%,51.764706%);fill-opacity:0.4;stroke-width:0.708661;stroke-linecap:round;stroke-linejoin:round;stroke:rgb(74.901961%,22.352941%,51.764706%);stroke-opacity:1;stroke-miterlimit:10;" d="M 235.558594 142.703125 L 245.640625 142.703125 L 245.640625 132.621094 L 235.558594 132.621094 Z M 235.558594 142.703125 "/>
<path style="fill-rule:nonzero;fill:rgb(98.823529%,80.784314%,14.509804%);fill-opacity:0.4;stroke-width:0.708661;stroke-linecap:round;stroke-linejoin:round;stroke:rgb(98.823529%,80.784314%,14.509804%);stroke-opacity:1;stroke-miterlimit:10;" d="M 168.808594 95.5 C 168.808594 98.644531 166.261719 101.191406 163.121094 101.191406 C 159.976563 101.191406 157.429688 98.644531 157.429688 95.5 C 157.429688 92.359375 159.976563 89.8125 163.121094 89.8125 C 166.261719 89.8125 168.808594 92.359375 168.808594 95.5 "/>
<path style="fill-rule:nonzero;fill:rgb(98.823529%,80.784314%,14.509804%);fill-opacity:0.4;stroke-width:0.708661;stroke-linecap:round;stroke-linejoin:round;stroke:rgb(98.823529%,80.784314%,14.509804%);stroke-opacity:1;stroke-miterlimit:10;" d="M 238.132813 68.164063 C 238.132813 71.308594 235.585938 73.855469 232.445313 73.855469 C 229.300781 73.855469 226.753906 71.308594 226.753906 68.164063 C 226.753906 65.023438 229.300781 62.476563 232.445313 62.476563 C 235.585938 62.476563 238.132813 65.023438 238.132813 68.164063 "/>
<path style="fill-rule:nonzero;fill:rgb(98.823529%,80.784314%,14.509804%);fill-opacity:0.4;stroke-width:0.708661;stroke-linecap:round;stroke-linejoin:round;stroke:rgb(98.823529%,80.784314%,14.509804%);stroke-opacity:1;stroke-miterlimit:10;" d="M 154.179688 77.265625 C 154.179688 80.40625 151.632813 82.953125 148.492188 82.953125 C 145.351563 82.953125 142.800781 80.40625 142.800781 77.265625 C 142.800781 74.121094 145.351563 71.574219 148.492188 71.574219 C 151.632813 71.574219 154.179688 74.121094 154.179688 77.265625 "/>
<path style="fill-rule:nonzero;fill:rgb(74.901961%,22.352941%,51.764706%);fill-opacity:0.4;stroke-width:0.708661;stroke-linecap:round;stroke-linejoin:round;stroke:rgb(74.901961%,22.352941%,51.764706%);stroke-opacity:1;stroke-miterlimit:10;" d="M 205.34375 129.515625 C 205.34375 132.65625 202.796875 135.203125 199.652344 135.203125 C 196.511719 135.203125 193.964844 132.65625 193.964844 129.515625 C 193.964844 126.375 196.511719 123.828125 199.652344 123.828125 C 202.796875 123.828125 205.34375 126.375 205.34375 129.515625 "/>
<path style="fill-rule:nonzero;fill:rgb(98.823529%,80.784314%,14.509804%);fill-opacity:0.4;stroke-width:0.708661;stroke-linecap:round;stroke-linejoin:round;stroke:rgb(98.823529%,80.784314%,14.509804%);stroke-opacity:1;stroke-miterlimit:10;" d="M 187.0625 125.746094 L 197.144531 125.746094 L 197.144531 115.664063 L 187.0625 115.664063 Z M 187.0625 125.746094 "/>
<path style="fill-rule:nonzero;fill:rgb(74.901961%,22.352941%,51.764706%);fill-opacity:0.4;stroke-width:0.708661;stroke-linecap:round;stroke-linejoin:round;stroke:rgb(74.901961%,22.352941%,51.764706%);stroke-opacity:1;stroke-miterlimit:10;" d="M 205.699219 122.328125 L 215.78125 122.328125 L 215.78125 112.246094 L 205.699219 112.246094 Z M 205.699219 122.328125 "/>
<path style="fill-rule:nonzero;fill:rgb(74.901961%,22.352941%,51.764706%);fill-opacity:0.4;stroke-width:0.708661;stroke-linecap:round;stroke-linejoin:round;stroke:rgb(74.901961%,22.352941%,51.764706%);stroke-opacity:1;stroke-miterlimit:10;" d="M 208.984375 140.390625 C 208.984375 143.53125 206.4375 146.078125 203.296875 146.078125 C 200.15625 146.078125 197.609375 143.53125 197.609375 140.390625 C 197.609375 137.246094 200.15625 134.699219 203.296875 134.699219 C 206.4375 134.699219 208.984375 137.246094 208.984375 140.390625 "/>
<path style="fill-rule:nonzero;fill:rgb(33.72549%,0.392157%,64.313725%);fill-opacity:0.4;stroke-width:0.708661;stroke-linecap:round;stroke-linejoin:round;stroke:rgb(33.72549%,0.392157%,64.313725%);stroke-opacity:1;stroke-miterlimit:10;" d="M 147.089844 234.046875 L 157.171875 234.046875 L 157.171875 223.964844 L 147.089844 223.964844 Z M 147.089844 234.046875 "/>
<path style="fill-rule:nonzero;fill:rgb(98.823529%,80.784314%,14.509804%);fill-opacity:0.4;stroke-width:0.708661;stroke-linecap:round;stroke-linejoin:round;stroke:rgb(98.823529%,80.784314%,14.509804%);stroke-opacity:1;stroke-miterlimit:10;" d="M 106.535156 88.886719 C 106.535156 92.027344 103.988281 94.574219 100.847656 94.574219 C 97.703125 94.574219 95.15625 92.027344 95.15625 88.886719 C 95.15625 85.742188 97.703125 83.195313 100.847656 83.195313 C 103.988281 83.195313 106.535156 85.742188 106.535156 88.886719 "/>
<path style="fill-rule:nonzero;fill:rgb(98.823529%,80.784314%,14.509804%);fill-opacity:0.4;stroke-width:0.708661;stroke-linecap:round;stroke-linejoin:round;stroke:rgb(98.823529%,80.784314%,14.509804%);stroke-opacity:1;stroke-miterlimit:10;" d="M 241.324219 141.148438 C 241.324219 144.292969 238.777344 146.839844 235.632813 146.839844 C 232.492188 146.839844 229.945313 144.292969 229.945313 141.148438 C 229.945313 138.007813 232.492188 135.460938 235.632813 135.460938 C 238.777344 135.460938 241.324219 138.007813 241.324219 141.148438 "/>
<path style="fill-rule:nonzero;fill:rgb(98.823529%,80.784314%,14.509804%);fill-opacity:0.4;stroke-width:0.708661;stroke-linecap:round;stroke-linejoin:round;stroke:rgb(98.823529%,80.784314%,14.509804%);stroke-opacity:1;stroke-miterlimit:10;" d="M 161.167969 46.800781 L 171.25 46.800781 L 171.25 36.71875 L 161.167969 36.71875 Z M 161.167969 46.800781 "/>
<path style="fill-rule:nonzero;fill:rgb(98.823529%,80.784314%,14.509804%);fill-opacity:0.4;stroke-width:0.708661;stroke-linecap:round;stroke-linejoin:round;stroke:rgb(98.823529%,80.784314%,14.509804%);stroke-opacity:1;stroke-miterlimit:10;" d="M 279.714844 29.808594 L 289.796875 29.808594 L 289.796875 19.726563 L 279.714844 19.726563 Z M 279.714844 29.808594 "/>
<path style="fill-rule:nonzero;fill:rgb(33.72549%,0.392157%,64.313725%);fill-opacity:0.4;stroke-width:0.708661;stroke-linecap:round;stroke-linejoin:round;stroke:rgb(33.72549%,0.392157%,64.313725%);stroke-opacity:1;stroke-miterlimit:10;" d="M 149.375 203.441406 C 149.375 206.582031 146.828125 209.128906 143.6875 209.128906 C 140.546875 209.128906 138 206.582031 138 203.441406 C 138 200.296875 140.546875 197.75 143.6875 197.75 C 146.828125 197.75 149.375 200.296875 149.375 203.441406 "/>
<path style="fill-rule:nonzero;fill:rgb(74.901961%,22.352941%,51.764706%);fill-opacity:0.4;stroke-width:0.708661;stroke-linecap:round;stroke-linejoin:round;stroke:rgb(74.901961%,22.352941%,51.764706%);stroke-opacity:1;stroke-miterlimit:10;" d="M 186.078125 88.34375 L 196.160156 88.34375 L 196.160156 78.261719 L 186.078125 78.261719 Z M 186.078125 88.34375 "/>
<path style="fill-rule:nonzero;fill:rgb(74.901961%,22.352941%,51.764706%);fill-opacity:0.4;stroke-width:0.708661;stroke-linecap:round;stroke-linejoin:round;stroke:rgb(74.901961%,22.352941%,51.764706%);stroke-opacity:1;stroke-miterlimit:10;" d="M 230.042969 132.800781 C 230.042969 135.945313 227.496094 138.492188 224.355469 138.492188 C 221.210938 138.492188 218.664063 135.945313 218.664063 132.800781 C 218.664063 129.660156 221.210938 127.113281 224.355469 127.113281 C 227.496094 127.113281 230.042969 129.660156 230.042969 132.800781 "/>
<path style="fill-rule:nonzero;fill:rgb(33.72549%,0.392157%,64.313725%);fill-opacity:0.4;stroke-width:0.708661;stroke-linecap:round;stroke-linejoin:round;stroke:rgb(33.72549%,0.392157%,64.313725%);stroke-opacity:1;stroke-miterlimit:10;" d="M 274.382813 169.589844 L 284.464844 169.589844 L 284.464844 159.507813 L 274.382813 159.507813 Z M 274.382813 169.589844 "/>
<path style="fill-rule:nonzero;fill:rgb(98.823529%,80.784314%,14.509804%);fill-opacity:0.4;stroke-width:0.708661;stroke-linecap:round;stroke-linejoin:round;stroke:rgb(98.823529%,80.784314%,14.509804%);stroke-opacity:1;stroke-miterlimit:10;" d="M 227.019531 95.546875 L 237.101563 95.546875 L 237.101563 85.464844 L 227.019531 85.464844 Z M 227.019531 95.546875 "/>
<path style="fill-rule:nonzero;fill:rgb(33.72549%,0.392157%,64.313725%);fill-opacity:0.4;stroke-width:0.708661;stroke-linecap:round;stroke-linejoin:round;stroke:rgb(33.72549%,0.392157%,64.313725%);stroke-opacity:1;stroke-miterlimit:10;" d="M 241.289063 117.285156 L 251.371094 117.285156 L 251.371094 107.203125 L 241.289063 107.203125 Z M 241.289063 117.285156 "/>
<path style="fill-rule:nonzero;fill:rgb(33.72549%,0.392157%,64.313725%);fill-opacity:0.4;stroke-width:0.708661;stroke-linecap:round;stroke-linejoin:round;stroke:rgb(33.72549%,0.392157%,64.313725%);stroke-opacity:1;stroke-miterlimit:10;" d="M 187.90625 130.082031 L 197.988281 130.082031 L 197.988281 120 L 187.90625 120 Z M 187.90625 130.082031 "/>
<path style="fill-rule:nonzero;fill:rgb(33.72549%,0.392157%,64.313725%);fill-opacity:0.4;stroke-width:0.708661;stroke-linecap:round;stroke-linejoin:round;stroke:rgb(33.72549%,0.392157%,64.313725%);stroke-opacity:1;stroke-miterlimit:10;" d="M 158.769531 138.660156 L 168.851563 138.660156 L 168.851563 128.578125 L 158.769531 128.578125 Z M 158.769531 138.660156 "/>
<path style="fill-rule:nonzero;fill:rgb(33.72549%,0.392157%,64.313725%);fill-opacity:0.4;stroke-width:0.708661;stroke-linecap:round;stroke-linejoin:round;stroke:rgb(33.72549%,0.392157%,64.313725%);stroke-opacity:1;stroke-miterlimit:10;" d="M 211.976563 193.457031 L 222.058594 193.457031 L 222.058594 183.375 L 211.976563 183.375 Z M 211.976563 193.457031 "/>
<path style="fill-rule:nonzero;fill:rgb(74.901961%,22.352941%,51.764706%);fill-opacity:0.4;stroke-width:0.708661;stroke-linecap:round;stroke-linejoin:round;stroke:rgb(74.901961%,22.352941%,51.764706%);stroke-opacity:1;stroke-miterlimit:10;" d="M 148.324219 143.367188 C 148.324219 146.507813 145.777344 149.054688 142.636719 149.054688 C 139.496094 149.054688 136.949219 146.507813 136.949219 143.367188 C 136.949219 140.222656 139.496094 137.675781 142.636719 137.675781 C 145.777344 137.675781 148.324219 140.222656 148.324219 143.367188 "/>
<path style="fill-rule:nonzero;fill:rgb(98.823529%,80.784314%,14.509804%);fill-opacity:0.4;stroke-width:0.708661;stroke-linecap:round;stroke-linejoin:round;stroke:rgb(98.823529%,80.784314%,14.509804%);stroke-opacity:1;stroke-miterlimit:10;" d="M 201.921875 113.992188 C 201.921875 117.136719 199.375 119.683594 196.234375 119.683594 C 193.089844 119.683594 190.542969 117.136719 190.542969 113.992188 C 190.542969 110.851563 193.089844 108.304688 196.234375 108.304688 C 199.375 108.304688 201.921875 110.851563 201.921875 113.992188 "/>
<path style="fill-rule:nonzero;fill:rgb(33.72549%,0.392157%,64.313725%);fill-opacity:0.4;stroke-width:0.708661;stroke-linecap:round;stroke-linejoin:round;stroke:rgb(33.72549%,0.392157%,64.313725%);stroke-opacity:1;stroke-miterlimit:10;" d="M 221.246094 140.226563 C 221.246094 143.367188 218.699219 145.914063 215.554688 145.914063 C 212.414063 145.914063 209.867188 143.367188 209.867188 140.226563 C 209.867188 137.082031 212.414063 134.535156 215.554688 134.535156 C 218.699219 134.535156 221.246094 137.082031 221.246094 140.226563 "/>
<path style="fill-rule:nonzero;fill:rgb(74.901961%,22.352941%,51.764706%);fill-opacity:0.4;stroke-width:0.708661;stroke-linecap:round;stroke-linejoin:round;stroke:rgb(74.901961%,22.352941%,51.764706%);stroke-opacity:1;stroke-miterlimit:10;" d="M 72.511719 97.566406 C 72.511719 100.710938 69.964844 103.257813 66.824219 103.257813 C 63.679688 103.257813 61.132813 100.710938 61.132813 97.566406 C 61.132813 94.425781 63.679688 91.878906 66.824219 91.878906 C 69.964844 91.878906 72.511719 94.425781 72.511719 97.566406 "/>
<path style="fill-rule:nonzero;fill:rgb(33.72549%,0.392157%,64.313725%);fill-opacity:0.4;stroke-width:0.708661;stroke-linecap:round;stroke-linejoin:round;stroke:rgb(33.72549%,0.392157%,64.313725%);stroke-opacity:1;stroke-miterlimit:10;" d="M 161.457031 158.648438 L 171.539063 158.648438 L 171.539063 148.566406 L 161.457031 148.566406 Z M 161.457031 158.648438 "/>
<path style="fill-rule:nonzero;fill:rgb(74.901961%,22.352941%,51.764706%);fill-opacity:0.4;stroke-width:0.708661;stroke-linecap:round;stroke-linejoin:round;stroke:rgb(74.901961%,22.352941%,51.764706%);stroke-opacity:1;stroke-miterlimit:10;" d="M 282.015625 36.371094 C 282.015625 39.511719 279.46875 42.058594 276.328125 42.058594 C 273.183594 42.058594 270.636719 39.511719 270.636719 36.371094 C 270.636719 33.226563 273.183594 30.679688 276.328125 30.679688 C 279.46875 30.679688 282.015625 33.226563 282.015625 36.371094 "/>
<path style="fill-rule:nonzero;fill:rgb(74.901961%,22.352941%,51.764706%);fill-opacity:0.4;stroke-width:0.708661;stroke-linecap:round;stroke-linejoin:round;stroke:rgb(74.901961%,22.352941%,51.764706%);stroke-opacity:1;stroke-miterlimit:10;" d="M 195.570313 152.875 L 205.652344 152.875 L 205.652344 142.792969 L 195.570313 142.792969 Z M 195.570313 152.875 "/>
<path style="fill-rule:nonzero;fill:rgb(98.823529%,80.784314%,14.509804%);fill-opacity:0.4;stroke-width:0.708661;stroke-linecap:round;stroke-linejoin:round;stroke:rgb(98.823529%,80.784314%,14.509804%);stroke-opacity:1;stroke-miterlimit:10;" d="M 81.882813 33.757813 L 91.964844 33.757813 L 91.964844 23.675781 L 81.882813 23.675781 Z M 81.882813 33.757813 "/>
<path style="fill-rule:nonzero;fill:rgb(33.72549%,0.392157%,64.313725%);fill-opacity:0.4;stroke-width:0.708661;stroke-linecap:round;stroke-linejoin:round;stroke:rgb(33.72549%,0.392157%,64.313725%);stroke-opacity:1;stroke-miterlimit:10;" d="M 138.46875 140.480469 L 148.550781 140.480469 L 148.550781 130.398438 L 138.46875 130.398438 Z M 138.46875 140.480469 "/>
<path style="fill-rule:nonzero;fill:rgb(74.901961%,22.352941%,51.764706%);fill-opacity:0.4;stroke-width:0.708661;stroke-linecap:round;stroke-linejoin:round;stroke:rgb(74.901961%,22.352941%,51.764706%);stroke-opacity:1;stroke-miterlimit:10;" d="M 161.359375 184.152344 C 161.359375 187.292969 158.8125 189.84375 155.667969 189.84375 C 152.527344 189.84375 149.980469 187.292969 149.980469 184.152344 C 149.980469 181.011719 152.527344 178.464844 155.667969 178.464844 C 158.8125 178.464844 161.359375 181.011719 161.359375 184.152344 "/>
<path style="fill-rule:nonzero;fill:rgb(98.823529%,80.784314%,14.509804%);fill-opacity:0.4;stroke-width:0.708661;stroke-linecap:round;stroke-linejoin:round;stroke:rgb(98.823529%,80.784314%,14.509804%);stroke-opacity:1;stroke-miterlimit:10;" d="M 200.132813 79.605469 C 200.132813 82.746094 197.585938 85.296875 194.445313 85.296875 C 191.304688 85.296875 188.753906 82.746094 188.753906 79.605469 C 188.753906 76.464844 191.304688 73.917969 194.445313 73.917969 C 197.585938 73.917969 200.132813 76.464844 200.132813 79.605469 "/>
<path style="fill-rule:nonzero;fill:rgb(98.823529%,80.784314%,14.509804%);fill-opacity:0.4;stroke-width:0.708661;stroke-linecap:round;stroke-linejoin:round;stroke:rgb(98.823529%,80.784314%,14.509804%);stroke-opacity:1;stroke-miterlimit:10;" d="M 138.914063 120.683594 L 148.996094 120.683594 L 148.996094 110.601563 L 138.914063 110.601563 Z M 138.914063 120.683594 "/>
<path style="fill-rule:nonzero;fill:rgb(98.823529%,80.784314%,14.509804%);fill-opacity:0.4;stroke-width:0.708661;stroke-linecap:round;stroke-linejoin:round;stroke:rgb(98.823529%,80.784314%,14.509804%);stroke-opacity:1;stroke-miterlimit:10;" d="M 202.746094 137.023438 L 212.828125 137.023438 L 212.828125 126.941406 L 202.746094 126.941406 Z M 202.746094 137.023438 "/>
<path style="fill-rule:nonzero;fill:rgb(98.823529%,80.784314%,14.509804%);fill-opacity:0.4;stroke-width:0.708661;stroke-linecap:round;stroke-linejoin:round;stroke:rgb(98.823529%,80.784314%,14.509804%);stroke-opacity:1;stroke-miterlimit:10;" d="M 226.84375 67.902344 C 226.84375 71.042969 224.296875 73.589844 221.152344 73.589844 C 218.011719 73.589844 215.464844 71.042969 215.464844 67.902344 C 215.464844 64.757813 218.011719 62.210938 221.152344 62.210938 C 224.296875 62.210938 226.84375 64.757813 226.84375 67.902344 "/>
<path style="fill-rule:nonzero;fill:rgb(98.823529%,80.784314%,14.509804%);fill-opacity:0.4;stroke-width:0.708661;stroke-linecap:round;stroke-linejoin:round;stroke:rgb(98.823529%,80.784314%,14.509804%);stroke-opacity:1;stroke-miterlimit:10;" d="M 216.121094 103.535156 C 216.121094 106.675781 213.574219 109.222656 210.433594 109.222656 C 207.292969 109.222656 204.742188 106.675781 204.742188 103.535156 C 204.742188 100.390625 207.292969 97.84375 210.433594 97.84375 C 213.574219 97.84375 216.121094 100.390625 216.121094 103.535156 "/>
<path style="fill-rule:nonzero;fill:rgb(74.901961%,22.352941%,51.764706%);fill-opacity:0.4;stroke-width:0.708661;stroke-linecap:round;stroke-linejoin:round;stroke:rgb(74.901961%,22.352941%,51.764706%);stroke-opacity:1;stroke-miterlimit:10;" d="M 214.371094 73.609375 C 214.371094 76.75 211.824219 79.296875 208.683594 79.296875 C 205.542969 79.296875 202.996094 76.75 202.996094 73.609375 C 202.996094 70.464844 205.542969 67.917969 208.683594 67.917969 C 211.824219 67.917969 214.371094 70.464844 214.371094 73.609375 "/>
<path style="fill-rule:nonzero;fill:rgb(74.901961%,22.352941%,51.764706%);fill-opacity:0.4;stroke-width:0.708661;stroke-linecap:round;stroke-linejoin:round;stroke:rgb(74.901961%,22.352941%,51.764706%);stroke-opacity:1;stroke-miterlimit:10;" d="M 215.433594 160.207031 C 215.433594 163.351563 212.886719 165.898438 209.746094 165.898438 C 206.601563 165.898438 204.054688 163.351563 204.054688 160.207031 C 204.054688 157.066406 206.601563 154.519531 209.746094 154.519531 C 212.886719 154.519531 215.433594 157.066406 215.433594 160.207031 "/>
<path style="fill-rule:nonzero;fill:rgb(33.72549%,0.392157%,64.313725%);fill-opacity:0.4;stroke-width:0.708661;stroke-linecap:round;stroke-linejoin:round;stroke:rgb(33.72549%,0.392157%,64.313725%);stroke-opacity:1;stroke-miterlimit:10;" d="M 76.078125 174.652344 C 76.078125 177.792969 73.53125 180.339844 70.390625 180.339844 C 67.25 180.339844 64.703125 177.792969 64.703125 174.652344 C 64.703125 171.507813 67.25 168.960938 70.390625 168.960938 C 73.53125 168.960938 76.078125 171.507813 76.078125 174.652344 "/>
<path style="fill-rule:nonzero;fill:rgb(98.823529%,80.784314%,14.509804%);fill-opacity:0.4;stroke-width:0.708661;stroke-linecap:round;stroke-linejoin:round;stroke:rgb(98.823529%,80.784314%,14.509804%);stroke-opacity:1;stroke-miterlimit:10;" d="M 146.121094 147.089844 C 146.121094 150.234375 143.574219 152.78125 140.429688 152.78125 C 137.289063 152.78125 134.742188 150.234375 134.742188 147.089844 C 134.742188 143.949219 137.289063 141.402344 140.429688 141.402344 C 143.574219 141.402344 146.121094 143.949219 146.121094 147.089844 "/>
<path style="fill-rule:nonzero;fill:rgb(74.901961%,22.352941%,51.764706%);fill-opacity:0.4;stroke-width:0.708661;stroke-linecap:round;stroke-linejoin:round;stroke:rgb(74.901961%,22.352941%,51.764706%);stroke-opacity:1;stroke-miterlimit:10;" d="M 274.570313 241.644531 L 284.652344 241.644531 L 284.652344 231.5625 L 274.570313 231.5625 Z M 274.570313 241.644531 "/>
<path style="fill-rule:nonzero;fill:rgb(33.72549%,0.392157%,64.313725%);fill-opacity:0.4;stroke-width:0.708661;stroke-linecap:round;stroke-linejoin:round;stroke:rgb(33.72549%,0.392157%,64.313725%);stroke-opacity:1;stroke-miterlimit:10;" d="M 161.664063 115.464844 C 161.664063 118.605469 159.117188 121.152344 155.972656 121.152344 C 152.832031 121.152344 150.285156 118.605469 150.285156 115.464844 C 150.285156 112.324219 152.832031 109.777344 155.972656 109.777344 C 159.117188 109.777344 161.664063 112.324219 161.664063 115.464844 "/>
<path style="fill-rule:nonzero;fill:rgb(74.901961%,22.352941%,51.764706%);fill-opacity:0.4;stroke-width:0.708661;stroke-linecap:round;stroke-linejoin:round;stroke:rgb(74.901961%,22.352941%,51.764706%);stroke-opacity:1;stroke-miterlimit:10;" d="M 243.601563 85.398438 C 243.601563 88.539063 241.054688 91.085938 237.910156 91.085938 C 234.769531 91.085938 232.222656 88.539063 232.222656 85.398438 C 232.222656 82.257813 234.769531 79.707031 237.910156 79.707031 C 241.054688 79.707031 243.601563 82.257813 243.601563 85.398438 "/>
<path style="fill:none;stroke-width:1.115477;stroke-linecap:butt;stroke-linejoin:round;stroke:rgb(66.27451%,66.27451%,66.27451%);stroke-opacity:1;stroke-miterlimit:10;" d="M 55.925781 247.195313 L 55.925781 14.171875 "/>
<path style="fill:none;stroke-width:1.115477;stroke-linecap:butt;stroke-linejoin:round;stroke:rgb(66.27451%,66.27451%,66.27451%);stroke-opacity:1;stroke-miterlimit:10;" d="M 55.925781 247.195313 L 295.652344 247.195313 "/>
<path style=" stroke:none;fill-rule:evenodd;fill:rgb(0%,0%,0%);fill-opacity:1;" d="M 284.097656 258.613281 L 287.464844 265.308594 L 285.664063 265.308594 L 283.089844 259.746094 L 280.550781 265.308594 L 278.824219 265.308594 L 282.097656 258.683594 L 279.113281 252.921875 L 280.910156 252.921875 L 283.125 257.621094 L 285.359375 252.921875 L 287.085938 252.921875 Z M 284.097656 258.613281 "/>
<path style=" stroke:none;fill-rule:evenodd;fill:rgb(0%,0%,0%);fill-opacity:1;" d="M 291.226563 253.066406 L 291.421875 253.070313 L 291.613281 253.082031 L 291.796875 253.105469 L 291.976563 253.132813 L 292.152344 253.171875 L 292.324219 253.214844 L 292.488281 253.269531 L 292.648438 253.332031 L 292.804688 253.402344 L 292.953125 253.480469 L 293.097656 253.5625 L 293.234375 253.652344 L 293.367188 253.746094 L 293.488281 253.847656 L 293.605469 253.953125 L 293.714844 254.066406 L 293.820313 254.1875 L 293.914063 254.3125 L 294.003906 254.441406 L 294.085938 254.578125 L 294.164063 254.71875 L 294.230469 254.859375 L 294.289063 255.003906 L 294.339844 255.148438 L 294.382813 255.300781 L 294.421875 255.453125 L 294.449219 255.609375 L 294.46875 255.765625 L 294.480469 255.925781 L 294.484375 256.089844 L 294.476563 256.316406 L 294.460938 256.535156 L 294.429688 256.742188 L 294.386719 256.945313 L 294.335938 257.136719 L 294.269531 257.316406 L 294.191406 257.492188 L 294.101563 257.65625 L 294.003906 257.816406 L 293.890625 257.964844 L 293.765625 258.097656 L 293.632813 258.226563 L 293.488281 258.34375 L 293.332031 258.453125 L 293.167969 258.554688 L 292.996094 258.644531 L 292.8125 258.726563 L 292.617188 258.796875 L 292.410156 258.863281 L 292.199219 258.917969 L 292.429688 258.945313 L 292.652344 258.988281 L 292.867188 259.039063 L 293.074219 259.109375 L 293.269531 259.1875 L 293.453125 259.28125 L 293.632813 259.386719 L 293.796875 259.503906 L 293.957031 259.636719 L 294.105469 259.78125 L 294.242188 259.9375 L 294.363281 260.109375 L 294.472656 260.289063 L 294.566406 260.480469 L 294.644531 260.6875 L 294.710938 260.902344 L 294.761719 261.128906 L 294.796875 261.371094 L 294.816406 261.625 L 294.824219 261.886719 L 294.820313 262.089844 L 294.808594 262.289063 L 294.785156 262.484375 L 294.75 262.675781 L 294.707031 262.863281 L 294.65625 263.046875 L 294.597656 263.226563 L 294.527344 263.402344 L 294.445313 263.574219 L 294.359375 263.742188 L 294.261719 263.902344 L 294.160156 264.058594 L 294.050781 264.207031 L 293.929688 264.347656 L 293.804688 264.484375 L 293.667969 264.613281 L 293.523438 264.734375 L 293.371094 264.847656 L 293.210938 264.953125 L 293.042969 265.054688 L 292.871094 265.148438 L 292.695313 265.230469 L 292.511719 265.304688 L 292.320313 265.367188 L 292.125 265.417969 L 291.925781 265.464844 L 291.71875 265.496094 L 291.503906 265.523438 L 291.289063 265.535156 L 291.0625 265.542969 L 290.855469 265.539063 L 290.65625 265.527344 L 290.457031 265.503906 L 290.261719 265.476563 L 290.074219 265.441406 L 289.886719 265.398438 L 289.707031 265.347656 L 289.53125 265.289063 L 289.359375 265.21875 L 289.191406 265.144531 L 289.03125 265.058594 L 288.871094 264.964844 L 288.71875 264.859375 L 288.5625 264.746094 L 288.414063 264.628906 L 288.265625 264.5 L 288.121094 264.363281 L 287.976563 264.21875 L 287.835938 264.066406 L 287.699219 263.902344 L 288.667969 263.074219 L 288.78125 263.195313 L 288.890625 263.308594 L 289.003906 263.414063 L 289.113281 263.511719 L 289.222656 263.605469 L 289.332031 263.691406 L 289.441406 263.773438 L 289.550781 263.847656 L 289.660156 263.914063 L 289.765625 263.976563 L 289.878906 264.027344 L 289.996094 264.074219 L 290.113281 264.113281 L 290.234375 264.148438 L 290.355469 264.179688 L 290.484375 264.203125 L 290.609375 264.222656 L 290.742188 264.234375 L 290.875 264.242188 L 291.007813 264.246094 L 291.203125 264.238281 L 291.390625 264.21875 L 291.566406 264.1875 L 291.734375 264.144531 L 291.894531 264.085938 L 292.046875 264.019531 L 292.191406 263.9375 L 292.328125 263.84375 L 292.457031 263.734375 L 292.574219 263.617188 L 292.6875 263.480469 L 292.789063 263.335938 L 292.878906 263.183594 L 292.957031 263.023438 L 293.019531 262.851563 L 293.074219 262.667969 L 293.117188 262.480469 L 293.144531 262.277344 L 293.164063 262.070313 L 293.167969 261.851563 L 293.164063 261.621094 L 293.144531 261.402344 L 293.117188 261.199219 L 293.074219 261.007813 L 293.019531 260.828125 L 292.957031 260.664063 L 292.878906 260.515625 L 292.789063 260.375 L 292.6875 260.253906 L 292.574219 260.140625 L 292.457031 260.039063 L 292.324219 259.945313 L 292.183594 259.867188 L 292.03125 259.796875 L 291.867188 259.738281 L 291.695313 259.6875 L 291.511719 259.648438 L 291.320313 259.621094 L 291.117188 259.605469 L 290.902344 259.601563 L 290.144531 259.601563 L 290.34375 258.394531 L 290.847656 258.394531 L 291.023438 258.390625 L 291.195313 258.371094 L 291.359375 258.34375 L 291.515625 258.304688 L 291.667969 258.253906 L 291.8125 258.195313 L 291.949219 258.121094 L 292.082031 258.039063 L 292.207031 257.945313 L 292.324219 257.835938 L 292.4375 257.722656 L 292.539063 257.59375 L 292.625 257.457031 L 292.703125 257.3125 L 292.769531 257.15625 L 292.824219 256.992188 L 292.863281 256.816406 L 292.894531 256.632813 L 292.910156 256.4375 L 292.917969 256.234375 L 292.914063 256.058594 L 292.898438 255.890625 L 292.871094 255.730469 L 292.835938 255.578125 L 292.792969 255.433594 L 292.734375 255.296875 L 292.671875 255.167969 L 292.59375 255.046875 L 292.507813 254.9375 L 292.414063 254.832031 L 292.3125 254.734375 L 292.203125 254.648438 L 292.089844 254.574219 L 291.964844 254.507813 L 291.832031 254.453125 L 291.695313 254.40625 L 291.546875 254.371094 L 291.394531 254.347656 L 291.234375 254.332031 L 291.0625 254.328125 L 290.9375 254.328125 L 290.816406 254.335938 L 290.574219 254.367188 L 290.457031 254.390625 L 290.339844 254.417969 L 290.226563 254.449219 L 290.113281 254.488281 L 290.003906 254.53125 L 289.894531 254.578125 L 289.789063 254.632813 L 289.683594 254.691406 L 289.578125 254.757813 L 289.472656 254.828125 L 289.367188 254.902344 L 289.261719 254.984375 L 289.152344 255.074219 L 289.046875 255.167969 L 288.9375 255.265625 L 288.832031 255.371094 L 287.984375 254.507813 L 288.269531 254.234375 L 288.5625 253.988281 L 288.867188 253.773438 L 289.179688 253.585938 L 289.496094 253.425781 L 289.824219 253.296875 L 290.164063 253.195313 L 290.507813 253.125 L 290.863281 253.082031 Z M 291.226563 253.066406 "/>
<path style=" stroke:none;fill-rule:evenodd;fill:rgb(0%,0%,0%);fill-opacity:1;" d="M 33.78125 75.03125 L 33.796875 74.597656 L 33.847656 74.183594 L 33.929688 73.789063 L 34.042969 73.414063 L 34.191406 73.054688 L 34.371094 72.71875 L 34.585938 72.398438 L 34.828125 72.097656 L 35.109375 71.820313 L 35.417969 71.558594 L 35.757813 71.3125 L 36.128906 71.097656 L 36.53125 70.90625 L 36.964844 70.738281 L 37.425781 70.597656 L 37.921875 70.484375 L 38.445313 70.394531 L 39.003906 70.332031 L 39.589844 70.292969 L 40.207031 70.277344 L 40.816406 70.292969 L 41.394531 70.328125 L 41.945313 70.394531 L 42.464844 70.480469 L 42.957031 70.59375 L 43.417969 70.734375 L 43.851563 70.898438 L 44.257813 71.085938 L 44.632813 71.300781 L 44.976563 71.539063 L 45.292969 71.800781 L 45.574219 72.082031 L 45.824219 72.382813 L 46.039063 72.703125 L 46.21875 73.042969 L 46.367188 73.402344 L 46.484375 73.78125 L 46.566406 74.175781 L 46.617188 74.59375 L 46.632813 75.03125 L 46.617188 75.464844 L 46.570313 75.878906 L 46.488281 76.273438 L 46.375 76.652344 L 46.230469 77.011719 L 46.050781 77.351563 L 45.839844 77.671875 L 45.597656 77.972656 L 45.320313 78.257813 L 45.015625 78.523438 L 44.671875 78.761719 L 44.296875 78.976563 L 43.894531 79.164063 L 43.460938 79.328125 L 42.996094 79.46875 L 42.503906 79.582031 L 41.980469 79.667969 L 41.425781 79.734375 L 40.839844 79.769531 L 40.226563 79.785156 L 39.816406 79.777344 L 39.421875 79.761719 L 39.039063 79.730469 L 38.671875 79.691406 L 38.3125 79.640625 L 37.96875 79.574219 L 37.636719 79.5 L 37.316406 79.414063 L 37.011719 79.316406 L 36.714844 79.207031 L 36.429688 79.082031 L 36.160156 78.949219 L 35.90625 78.808594 L 35.664063 78.65625 L 35.4375 78.496094 L 35.226563 78.324219 L 35.027344 78.144531 L 34.84375 77.957031 L 34.675781 77.757813 L 34.519531 77.550781 L 34.378906 77.332031 L 34.253906 77.105469 L 34.144531 76.871094 L 34.046875 76.628906 L 33.964844 76.382813 L 33.898438 76.125 L 33.847656 75.863281 L 33.8125 75.59375 L 33.789063 75.316406 Z M 35.113281 75.03125 L 35.164063 75.597656 L 35.316406 76.105469 L 35.574219 76.554688 L 35.933594 76.945313 L 36.390625 77.273438 L 36.953125 77.542969 L 37.617188 77.75 L 38.386719 77.898438 L 39.253906 77.988281 L 40.226563 78.019531 L 41.1875 77.988281 L 42.046875 77.898438 L 42.804688 77.75 L 43.460938 77.542969 L 44.019531 77.273438 L 44.472656 76.945313 L 44.828125 76.554688 L 45.082031 76.105469 L 45.234375 75.597656 L 45.285156 75.03125 L 45.273438 74.742188 L 45.234375 74.46875 L 45.175781 74.210938 L 45.089844 73.964844 L 44.980469 73.734375 L 44.847656 73.519531 L 44.691406 73.316406 L 44.511719 73.128906 L 44.308594 72.957031 L 44.078125 72.800781 L 43.820313 72.65625 L 43.535156 72.527344 L 43.222656 72.414063 L 42.878906 72.316406 L 42.507813 72.230469 L 42.105469 72.164063 L 41.675781 72.109375 L 41.214844 72.074219 L 40.726563 72.050781 L 40.207031 72.042969 L 39.691406 72.050781 L 39.207031 72.074219 L 38.75 72.113281 L 38.320313 72.167969 L 37.917969 72.238281 L 37.542969 72.320313 L 37.199219 72.421875 L 36.882813 72.539063 L 36.597656 72.671875 L 36.335938 72.816406 L 36.105469 72.976563 L 35.898438 73.148438 L 35.714844 73.335938 L 35.554688 73.535156 L 35.417969 73.75 L 35.308594 73.976563 L 35.222656 74.21875 L 35.164063 74.476563 L 35.125 74.746094 Z M 35.113281 75.03125 "/>
<path style=" stroke:none;fill-rule:evenodd;fill:rgb(0%,0%,0%);fill-opacity:1;" d="M 46.398438 61.421875 L 46.398438 62.828125 L 44.976563 62.917969 L 45.292969 63.121094 L 45.574219 63.339844 L 45.824219 63.570313 L 46.039063 63.816406 L 46.21875 64.074219 L 46.367188 64.34375 L 46.484375 64.628906 L 46.566406 64.925781 L 46.617188 65.238281 L 46.632813 65.5625 L 46.625 65.785156 L 46.605469 65.996094 L 46.566406 66.199219 L 46.515625 66.394531 L 46.449219 66.574219 L 46.367188 66.75 L 46.273438 66.914063 L 46.160156 67.066406 L 46.035156 67.210938 L 45.894531 67.34375 L 45.742188 67.46875 L 45.578125 67.578125 L 45.40625 67.675781 L 45.222656 67.761719 L 45.027344 67.832031 L 44.820313 67.890625 L 44.605469 67.933594 L 44.382813 67.96875 L 44.144531 67.988281 L 43.898438 67.992188 L 36.933594 67.992188 L 36.933594 66.375 L 43.753906 66.375 L 43.914063 66.371094 L 44.066406 66.359375 L 44.210938 66.34375 L 44.347656 66.324219 L 44.472656 66.296875 L 44.59375 66.261719 L 44.703125 66.222656 L 44.800781 66.175781 L 44.894531 66.125 L 44.976563 66.066406 L 45.050781 66 L 45.113281 65.925781 L 45.171875 65.84375 L 45.21875 65.757813 L 45.261719 65.667969 L 45.296875 65.566406 L 45.320313 65.464844 L 45.339844 65.351563 L 45.351563 65.234375 L 45.355469 65.113281 L 45.339844 64.875 L 45.292969 64.644531 L 45.214844 64.421875 L 45.101563 64.203125 L 44.960938 63.992188 L 44.785156 63.789063 L 44.578125 63.59375 L 44.34375 63.402344 L 44.074219 63.21875 L 43.773438 63.042969 L 36.933594 63.042969 L 36.933594 61.421875 Z M 46.398438 61.421875 "/>
<path style=" stroke:none;fill-rule:evenodd;fill:rgb(0%,0%,0%);fill-opacity:1;" d="M 45.984375 54.023438 L 46.109375 54.207031 L 46.21875 54.394531 L 46.316406 54.582031 L 46.402344 54.777344 L 46.472656 54.976563 L 46.53125 55.175781 L 46.574219 55.382813 L 46.609375 55.59375 L 46.628906 55.804688 L 46.632813 56.023438 L 46.628906 56.25 L 46.605469 56.464844 L 46.574219 56.667969 L 46.527344 56.859375 L 46.46875 57.042969 L 46.394531 57.21875 L 46.308594 57.378906 L 46.207031 57.53125 L 46.09375 57.675781 L 45.96875 57.804688 L 45.828125 57.921875 L 45.679688 58.027344 L 45.519531 58.117188 L 45.347656 58.195313 L 45.167969 58.265625 L 44.972656 58.320313 L 44.769531 58.363281 L 44.554688 58.394531 L 44.332031 58.410156 L 44.097656 58.417969 L 38.15625 58.417969 L 38.15625 59.765625 L 36.933594 59.765625 L 36.933594 58.417969 L 34.753906 58.417969 L 34.554688 56.796875 L 36.933594 56.796875 L 36.933594 54.710938 L 38.15625 54.890625 L 38.15625 56.796875 L 44.078125 56.796875 L 44.308594 56.785156 L 44.519531 56.757813 L 44.703125 56.703125 L 44.859375 56.632813 L 44.996094 56.539063 L 45.105469 56.429688 L 45.191406 56.292969 L 45.253906 56.140625 L 45.289063 55.964844 L 45.300781 55.769531 L 45.300781 55.710938 L 45.289063 55.535156 L 45.277344 55.480469 L 45.269531 55.421875 L 45.257813 55.371094 L 45.246094 55.316406 L 45.230469 55.265625 L 45.210938 55.214844 L 45.191406 55.160156 L 45.171875 55.101563 L 45.148438 55.046875 L 45.125 54.988281 L 45.070313 54.871094 L 45.042969 54.808594 L 45.011719 54.746094 L 44.941406 54.621094 Z M 45.984375 54.023438 "/>
<path style=" stroke:none;fill-rule:evenodd;fill:rgb(0%,0%,0%);fill-opacity:1;" d="M 36.699219 49.328125 L 36.699219 49.175781 L 36.707031 49.03125 L 36.71875 48.886719 L 36.738281 48.742188 L 36.761719 48.601563 L 36.789063 48.464844 L 36.820313 48.332031 L 36.859375 48.199219 L 36.902344 48.070313 L 36.949219 47.941406 L 37.003906 47.816406 L 37.0625 47.691406 L 37.125 47.566406 L 37.195313 47.445313 L 37.269531 47.324219 L 37.347656 47.203125 L 37.433594 47.085938 L 37.621094 46.851563 L 37.722656 46.734375 L 38.695313 47.457031 L 38.628906 47.542969 L 38.566406 47.628906 L 38.449219 47.800781 L 38.398438 47.886719 L 38.304688 48.058594 L 38.265625 48.144531 L 38.226563 48.234375 L 38.15625 48.40625 L 38.125 48.496094 L 38.078125 48.675781 L 38.039063 48.863281 L 38.027344 48.960938 L 38.019531 49.054688 L 38.011719 49.15625 L 38.011719 49.253906 L 38.019531 49.464844 L 38.046875 49.660156 L 38.09375 49.851563 L 38.15625 50.03125 L 38.238281 50.199219 L 38.335938 50.359375 L 38.453125 50.511719 L 38.585938 50.65625 L 38.742188 50.789063 L 38.910156 50.910156 L 39.101563 51.019531 L 39.3125 51.117188 L 39.542969 51.203125 L 39.792969 51.28125 L 40.0625 51.34375 L 40.355469 51.394531 L 40.664063 51.433594 L 40.996094 51.464844 L 41.347656 51.480469 L 41.71875 51.488281 L 42.398438 51.464844 L 43.003906 51.398438 L 43.539063 51.285156 L 44 51.128906 L 44.394531 50.929688 L 44.714844 50.683594 L 44.964844 50.394531 L 45.140625 50.058594 L 45.25 49.679688 L 45.285156 49.253906 L 45.277344 49.058594 L 45.269531 48.960938 L 45.257813 48.867188 L 45.242188 48.773438 L 45.226563 48.683594 L 45.203125 48.59375 L 45.179688 48.507813 L 45.152344 48.421875 L 45.121094 48.335938 L 45.085938 48.253906 L 45 48.082031 L 44.953125 47.996094 L 44.902344 47.910156 L 44.847656 47.820313 L 44.730469 47.640625 L 44.667969 47.546875 L 44.601563 47.457031 L 45.589844 46.699219 L 45.789063 46.933594 L 45.964844 47.171875 L 46.121094 47.417969 L 46.257813 47.667969 L 46.371094 47.925781 L 46.464844 48.191406 L 46.539063 48.460938 L 46.59375 48.738281 L 46.625 49.019531 L 46.632813 49.308594 L 46.621094 49.664063 L 46.582031 50.003906 L 46.519531 50.332031 L 46.433594 50.640625 L 46.320313 50.933594 L 46.179688 51.210938 L 46.015625 51.476563 L 45.828125 51.722656 L 45.613281 51.953125 L 45.375 52.171875 L 45.109375 52.367188 L 44.824219 52.539063 L 44.515625 52.695313 L 44.1875 52.828125 L 43.835938 52.941406 L 43.460938 53.03125 L 43.0625 53.105469 L 42.644531 53.15625 L 42.203125 53.1875 L 41.738281 53.195313 L 41.433594 53.191406 L 41.136719 53.179688 L 40.847656 53.15625 L 40.566406 53.121094 L 40.292969 53.082031 L 40.027344 53.027344 L 39.773438 52.96875 L 39.527344 52.898438 L 39.285156 52.816406 L 39.054688 52.730469 L 38.835938 52.628906 L 38.621094 52.519531 L 38.421875 52.402344 L 38.230469 52.28125 L 38.050781 52.148438 L 37.882813 52.011719 L 37.722656 51.863281 L 37.574219 51.710938 L 37.4375 51.546875 L 37.308594 51.378906 L 37.195313 51.199219 L 37.089844 51.015625 L 36.996094 50.824219 L 36.917969 50.628906 L 36.851563 50.425781 L 36.796875 50.21875 L 36.753906 50.003906 L 36.722656 49.785156 L 36.703125 49.558594 Z M 36.699219 49.328125 "/>
<path style=" stroke:none;fill-rule:evenodd;fill:rgb(0%,0%,0%);fill-opacity:1;" d="M 36.699219 41.625 L 36.710938 41.269531 L 36.75 40.929688 L 36.8125 40.605469 L 36.902344 40.296875 L 37.015625 40.007813 L 37.15625 39.734375 L 37.324219 39.476563 L 37.515625 39.234375 L 37.734375 39.007813 L 37.976563 38.796875 L 38.242188 38.605469 L 38.53125 38.433594 L 38.84375 38.28125 L 39.175781 38.152344 L 39.53125 38.042969 L 39.910156 37.949219 L 40.3125 37.878906 L 40.734375 37.828125 L 41.179688 37.800781 L 41.648438 37.789063 L 42.097656 37.800781 L 42.53125 37.832031 L 42.945313 37.882813 L 43.339844 37.953125 L 43.714844 38.046875 L 44.070313 38.160156 L 44.40625 38.292969 L 44.722656 38.445313 L 45.023438 38.621094 L 45.300781 38.816406 L 45.554688 39.027344 L 45.78125 39.257813 L 45.980469 39.5 L 46.152344 39.761719 L 46.300781 40.035156 L 46.421875 40.324219 L 46.515625 40.632813 L 46.582031 40.953125 L 46.621094 41.289063 L 46.632813 41.640625 L 46.621094 41.996094 L 46.582031 42.335938 L 46.515625 42.660156 L 46.421875 42.96875 L 46.304688 43.261719 L 46.160156 43.539063 L 45.988281 43.796875 L 45.792969 44.042969 L 45.570313 44.273438 L 45.320313 44.484375 L 45.046875 44.675781 L 44.753906 44.847656 L 44.4375 45 L 44.105469 45.128906 L 43.75 45.242188 L 43.375 45.332031 L 42.976563 45.402344 L 42.5625 45.453125 L 42.125 45.484375 L 41.664063 45.492188 L 41.203125 45.484375 L 40.765625 45.453125 L 40.347656 45.402344 L 39.949219 45.328125 L 39.574219 45.238281 L 39.21875 45.125 L 38.886719 44.992188 L 38.574219 44.835938 L 38.28125 44.664063 L 38.011719 44.46875 L 37.761719 44.253906 L 37.539063 44.023438 L 37.339844 43.78125 L 37.171875 43.519531 L 37.027344 43.242188 L 36.90625 42.949219 L 36.816406 42.644531 L 36.75 42.320313 L 36.710938 41.980469 Z M 37.992188 41.625 L 38.003906 41.832031 L 38.03125 42.027344 L 38.074219 42.214844 L 38.136719 42.390625 L 38.21875 42.558594 L 38.316406 42.714844 L 38.433594 42.863281 L 38.570313 43 L 38.722656 43.125 L 38.894531 43.242188 L 39.082031 43.347656 L 39.285156 43.445313 L 39.511719 43.527344 L 39.761719 43.601563 L 40.027344 43.660156 L 40.316406 43.710938 L 40.621094 43.75 L 40.949219 43.777344 L 41.296875 43.796875 L 41.664063 43.800781 L 42.367188 43.78125 L 42.996094 43.714844 L 43.546875 43.605469 L 44.027344 43.457031 L 44.433594 43.261719 L 44.765625 43.023438 L 45.023438 42.742188 L 45.207031 42.417969 L 45.320313 42.050781 L 45.355469 41.640625 L 45.320313 41.230469 L 45.207031 40.863281 L 45.023438 40.539063 L 44.761719 40.257813 L 44.429688 40.019531 L 44.019531 39.828125 L 43.539063 39.675781 L 42.984375 39.566406 L 42.351563 39.503906 L 41.648438 39.480469 L 41.28125 39.488281 L 40.933594 39.503906 L 40.605469 39.53125 L 40.296875 39.566406 L 40.007813 39.617188 L 39.742188 39.675781 L 39.496094 39.746094 L 39.269531 39.828125 L 39.0625 39.917969 L 38.875 40.019531 L 38.707031 40.132813 L 38.558594 40.257813 L 38.425781 40.390625 L 38.3125 40.535156 L 38.214844 40.691406 L 38.136719 40.855469 L 38.074219 41.03125 L 38.027344 41.21875 L 38.003906 41.417969 Z M 37.992188 41.625 "/>
<path style=" stroke:none;fill-rule:evenodd;fill:rgb(0%,0%,0%);fill-opacity:1;" d="M 36.699219 26.703125 L 36.707031 26.5 L 36.730469 26.308594 L 36.765625 26.121094 L 36.820313 25.945313 L 36.890625 25.777344 L 36.976563 25.617188 L 37.078125 25.46875 L 37.191406 25.324219 L 37.324219 25.191406 L 37.472656 25.0625 L 37.628906 24.945313 L 37.796875 24.84375 L 37.972656 24.75 L 38.160156 24.671875 L 38.359375 24.605469 L 38.566406 24.550781 L 38.785156 24.507813 L 39.015625 24.476563 L 39.253906 24.457031 L 39.503906 24.453125 L 46.398438 24.453125 L 46.398438 26.054688 L 39.6875 26.054688 L 39.359375 26.0625 L 39.0625 26.097656 L 38.804688 26.152344 L 38.578125 26.230469 L 38.390625 26.332031 L 38.234375 26.453125 L 38.113281 26.601563 L 38.027344 26.765625 L 37.976563 26.957031 L 37.957031 27.167969 L 37.972656 27.382813 L 38.023438 27.59375 L 38.105469 27.800781 L 38.222656 28.003906 L 38.371094 28.203125 L 38.554688 28.402344 L 38.769531 28.59375 L 39.019531 28.78125 L 39.300781 28.96875 L 39.613281 29.148438 L 46.398438 29.148438 L 46.398438 30.75 L 39.6875 30.75 L 39.359375 30.761719 L 39.0625 30.796875 L 38.804688 30.851563 L 38.578125 30.929688 L 38.390625 31.03125 L 38.234375 31.152344 L 38.113281 31.296875 L 38.027344 31.464844 L 37.976563 31.65625 L 37.957031 31.867188 L 37.972656 32.085938 L 38.023438 32.296875 L 38.105469 32.507813 L 38.222656 32.710938 L 38.371094 32.910156 L 38.554688 33.105469 L 38.769531 33.296875 L 39.019531 33.484375 L 39.300781 33.667969 L 39.613281 33.847656 L 46.398438 33.847656 L 46.398438 35.449219 L 36.933594 35.449219 L 36.933594 34.046875 L 38.316406 33.917969 L 38.011719 33.707031 L 37.734375 33.484375 L 37.492188 33.253906 L 37.28125 33.015625 L 37.101563 32.765625 L 36.957031 32.511719 L 36.84375 32.246094 L 36.761719 31.972656 L 36.714844 31.691406 L 36.699219 31.398438 L 36.703125 31.246094 L 36.714844 31.097656 L 36.738281 30.957031 L 36.769531 30.816406 L 36.808594 30.683594 L 36.859375 30.554688 L 36.917969 30.429688 L 36.984375 30.3125 L 37.0625 30.195313 L 37.148438 30.085938 L 37.242188 29.980469 L 37.34375 29.882813 L 37.453125 29.789063 L 37.566406 29.703125 L 37.691406 29.621094 L 37.824219 29.546875 L 37.964844 29.480469 L 38.109375 29.417969 L 38.265625 29.359375 L 38.425781 29.3125 L 38.097656 29.085938 L 37.804688 28.855469 L 37.542969 28.613281 L 37.320313 28.367188 L 37.128906 28.109375 L 36.972656 27.84375 L 36.851563 27.570313 L 36.765625 27.289063 L 36.714844 27 Z M 36.699219 26.703125 "/>
<path style=" stroke:none;fill-rule:evenodd;fill:rgb(0%,0%,0%);fill-opacity:1;" d="M 41.378906 14.964844 L 41.53125 14.964844 L 41.695313 14.972656 L 41.777344 14.972656 L 41.863281 14.976563 L 41.949219 14.984375 L 42.039063 14.988281 L 42.132813 14.996094 L 42.222656 15 L 42.222656 20.507813 L 42.546875 20.488281 L 42.847656 20.460938 L 43.132813 20.417969 L 43.402344 20.367188 L 43.648438 20.308594 L 43.878906 20.234375 L 44.09375 20.152344 L 44.285156 20.058594 L 44.460938 19.957031 L 44.617188 19.84375 L 44.753906 19.71875 L 44.875 19.589844 L 44.984375 19.449219 L 45.078125 19.300781 L 45.15625 19.140625 L 45.222656 18.976563 L 45.273438 18.800781 L 45.308594 18.617188 L 45.332031 18.425781 L 45.335938 18.222656 L 45.335938 18.09375 L 45.328125 17.96875 L 45.320313 17.847656 L 45.304688 17.726563 L 45.289063 17.609375 L 45.265625 17.496094 L 45.242188 17.386719 L 45.210938 17.277344 L 45.175781 17.171875 L 45.140625 17.070313 L 45.097656 16.964844 L 45.050781 16.859375 L 45 16.753906 L 44.941406 16.648438 L 44.878906 16.539063 L 44.8125 16.433594 L 44.738281 16.324219 L 44.660156 16.214844 L 44.578125 16.101563 L 44.492188 15.992188 L 45.445313 15.269531 L 45.671875 15.542969 L 45.875 15.820313 L 46.050781 16.101563 L 46.207031 16.394531 L 46.335938 16.691406 L 46.445313 17 L 46.527344 17.3125 L 46.585938 17.632813 L 46.621094 17.960938 L 46.632813 18.296875 L 46.621094 18.65625 L 46.582031 19.003906 L 46.519531 19.332031 L 46.429688 19.644531 L 46.3125 19.941406 L 46.171875 20.222656 L 46.007813 20.484375 L 45.816406 20.730469 L 45.597656 20.960938 L 45.355469 21.175781 L 45.085938 21.367188 L 44.796875 21.539063 L 44.484375 21.6875 L 44.15625 21.820313 L 43.804688 21.929688 L 43.429688 22.023438 L 43.039063 22.09375 L 42.625 22.144531 L 42.191406 22.171875 L 41.738281 22.183594 L 41.28125 22.171875 L 40.847656 22.144531 L 40.433594 22.097656 L 40.035156 22.027344 L 39.660156 21.941406 L 39.300781 21.832031 L 38.964844 21.707031 L 38.644531 21.5625 L 38.34375 21.394531 L 38.066406 21.210938 L 37.804688 21.007813 L 37.574219 20.792969 L 37.367188 20.558594 L 37.191406 20.3125 L 37.039063 20.050781 L 36.917969 19.773438 L 36.820313 19.480469 L 36.753906 19.171875 L 36.710938 18.847656 L 36.699219 18.511719 L 36.710938 18.175781 L 36.746094 17.859375 L 36.808594 17.554688 L 36.894531 17.269531 L 37.003906 17 L 37.136719 16.746094 L 37.296875 16.503906 L 37.480469 16.28125 L 37.6875 16.074219 L 37.921875 15.882813 L 38.171875 15.707031 L 38.445313 15.554688 L 38.738281 15.414063 L 39.054688 15.296875 L 39.390625 15.195313 L 39.746094 15.113281 L 40.121094 15.046875 L 40.519531 15 L 40.9375 14.972656 Z M 40.890625 16.53125 L 40.328125 16.550781 L 39.824219 16.609375 L 39.378906 16.707031 L 38.992188 16.84375 L 38.664063 17.023438 L 38.398438 17.238281 L 38.1875 17.492188 L 38.039063 17.785156 L 37.953125 18.121094 L 37.921875 18.492188 L 37.929688 18.667969 L 37.953125 18.839844 L 37.988281 19 L 38.042969 19.152344 L 38.109375 19.296875 L 38.195313 19.4375 L 38.292969 19.566406 L 38.40625 19.691406 L 38.535156 19.808594 L 38.679688 19.914063 L 38.835938 20.015625 L 39.011719 20.105469 L 39.203125 20.1875 L 39.417969 20.261719 L 39.648438 20.324219 L 39.898438 20.378906 L 40.167969 20.425781 L 40.457031 20.460938 L 40.765625 20.492188 L 41.089844 20.507813 L 41.089844 16.53125 Z M 40.890625 16.53125 "/>
<path style="fill-rule:evenodd;fill:rgb(100%,100%,100%);fill-opacity:1;stroke-width:1.115477;stroke-linecap:round;stroke-linejoin:round;stroke:rgb(66.27451%,66.27451%,66.27451%);stroke-opacity:1;stroke-miterlimit:10;" d="M 67.078125 331.652344 L 150.671875 331.652344 L 150.671875 280.5625 L 67.078125 280.5625 Z M 67.078125 331.652344 "/>
<path style=" stroke:none;fill-rule:evenodd;fill:rgb(0%,0%,0%);fill-opacity:1;" d="M 77.558594 293.035156 L 80.550781 298.988281 L 78.949219 298.988281 L 76.660156 294.042969 L 74.40625 298.988281 L 72.867188 298.988281 L 75.78125 293.097656 L 73.125 287.980469 L 74.726563 287.980469 L 76.691406 292.15625 L 78.675781 287.980469 L 80.214844 287.980469 Z M 77.558594 293.035156 "/>
<path style=" stroke:none;fill-rule:evenodd;fill:rgb(0%,0%,0%);fill-opacity:1;" d="M 85.316406 288.28125 L 85.316406 298.988281 L 83.894531 298.988281 L 83.894531 289.785156 L 81.667969 291.289063 L 81.011719 290.332031 L 84.054688 288.28125 Z M 85.316406 288.28125 "/>
<path style="fill:none;stroke-width:0.708661;stroke-linecap:round;stroke-linejoin:round;stroke:rgb(56.470588%,5.098039%,64.313725%);stroke-opacity:1;stroke-miterlimit:10;" d="M 87.132813 317.285156 C 87.132813 320.425781 84.585938 322.972656 81.445313 322.972656 C 78.304688 322.972656 75.753906 320.425781 75.753906 317.285156 C 75.753906 314.144531 78.304688 311.597656 81.445313 311.597656 C 84.585938 311.597656 87.132813 314.144531 87.132813 317.285156 "/>
<path style="fill:none;stroke-width:0.708661;stroke-linecap:round;stroke-linejoin:round;stroke:rgb(56.470588%,5.098039%,64.313725%);stroke-opacity:1;stroke-miterlimit:10;" d="M 117.4375 322.328125 L 127.519531 322.328125 L 127.519531 312.246094 L 117.4375 312.246094 Z M 117.4375 322.328125 "/>
<path style=" stroke:none;fill-rule:evenodd;fill:rgb(0%,0%,0%);fill-opacity:1;" d="M 101.96875 312.246094 L 102.265625 312.257813 L 102.546875 312.296875 L 102.8125 312.363281 L 103.0625 312.453125 L 103.300781 312.570313 L 103.523438 312.714844 L 103.730469 312.882813 L 103.921875 313.082031 L 104.101563 313.300781 L 104.265625 313.550781 L 104.414063 313.824219 L 104.546875 314.121094 L 104.664063 314.449219 L 104.765625 314.796875 L 104.851563 315.171875 L 104.921875 315.574219 L 104.976563 316 L 105.015625 316.453125 L 105.039063 316.933594 L 105.046875 317.433594 L 105.039063 317.945313 L 105.015625 318.425781 L 104.976563 318.882813 L 104.921875 319.3125 L 104.851563 319.71875 L 104.765625 320.097656 L 104.664063 320.449219 L 104.546875 320.777344 L 104.414063 321.074219 L 104.265625 321.351563 L 104.101563 321.59375 L 103.921875 321.8125 L 103.730469 322.007813 L 103.523438 322.175781 L 103.300781 322.316406 L 103.0625 322.433594 L 102.8125 322.523438 L 102.546875 322.589844 L 102.265625 322.628906 L 101.96875 322.640625 L 101.671875 322.628906 L 101.386719 322.585938 L 101.121094 322.523438 L 100.867188 322.429688 L 100.628906 322.3125 L 100.402344 322.171875 L 100.195313 322 L 100.003906 321.804688 L 99.824219 321.582031 L 99.660156 321.335938 L 99.511719 321.0625 L 99.378906 320.761719 L 99.261719 320.4375 L 99.160156 320.085938 L 99.074219 319.707031 L 99.003906 319.304688 L 98.949219 318.875 L 98.910156 318.421875 L 98.886719 317.941406 L 98.878906 317.433594 L 98.910156 316.449219 L 99.003906 315.566406 L 99.15625 314.789063 L 99.375 314.113281 L 99.652344 313.542969 L 99.992188 313.074219 L 100.394531 312.710938 L 100.859375 312.453125 L 101.382813 312.296875 Z M 101.96875 313.296875 L 101.800781 313.304688 L 101.640625 313.332031 L 101.488281 313.382813 L 101.347656 313.449219 L 101.210938 313.535156 L 101.089844 313.640625 L 100.972656 313.765625 L 100.867188 313.910156 L 100.769531 314.074219 L 100.679688 314.253906 L 100.601563 314.457031 L 100.535156 314.683594 L 100.472656 314.9375 L 100.421875 315.21875 L 100.375 315.523438 L 100.339844 315.851563 L 100.3125 316.210938 L 100.292969 316.59375 L 100.277344 317 L 100.273438 317.433594 L 100.277344 317.871094 L 100.292969 318.28125 L 100.3125 318.667969 L 100.339844 319.027344 L 100.375 319.359375 L 100.421875 319.664063 L 100.472656 319.945313 L 100.535156 320.199219 L 100.601563 320.429688 L 100.679688 320.628906 L 100.769531 320.808594 L 100.867188 320.96875 L 100.972656 321.113281 L 101.089844 321.234375 L 101.210938 321.339844 L 101.347656 321.421875 L 101.488281 321.488281 L 101.640625 321.539063 L 101.800781 321.566406 L 101.96875 321.574219 L 102.136719 321.566406 L 102.292969 321.539063 L 102.441406 321.488281 L 102.582031 321.421875 L 102.710938 321.339844 L 102.835938 321.234375 L 102.945313 321.113281 L 103.050781 320.96875 L 103.144531 320.808594 L 103.230469 320.628906 L 103.308594 320.429688 L 103.382813 320.199219 L 103.445313 319.945313 L 103.5 319.664063 L 103.546875 319.359375 L 103.582031 319.027344 L 103.613281 318.667969 L 103.632813 318.28125 L 103.644531 317.871094 L 103.648438 317.433594 L 103.644531 317 L 103.632813 316.585938 L 103.613281 316.203125 L 103.585938 315.84375 L 103.546875 315.511719 L 103.503906 315.203125 L 103.453125 314.925781 L 103.390625 314.671875 L 103.320313 314.441406 L 103.246094 314.238281 L 103.160156 314.058594 L 103.0625 313.898438 L 102.960938 313.757813 L 102.847656 313.636719 L 102.722656 313.53125 L 102.589844 313.445313 L 102.449219 313.378906 L 102.300781 313.332031 L 102.140625 313.304688 Z M 101.96875 313.296875 "/>
<path style=" stroke:none;fill-rule:evenodd;fill:rgb(0%,0%,0%);fill-opacity:1;" d="M 143.5 312.410156 L 143.5 322.445313 L 142.164063 322.445313 L 142.164063 313.820313 L 140.082031 315.230469 L 139.464844 314.328125 L 142.316406 312.410156 Z M 143.5 312.410156 "/>
<path style="fill-rule:evenodd;fill:rgb(100%,100%,100%);fill-opacity:1;stroke-width:1.115477;stroke-linecap:round;stroke-linejoin:round;stroke:rgb(66.27451%,66.27451%,66.27451%);stroke-opacity:1;stroke-miterlimit:10;" d="M 162.125 331.652344 L 284.503906 331.652344 L 284.503906 280.5625 L 162.125 280.5625 Z M 162.125 331.652344 "/>
<path style=" stroke:none;fill-rule:evenodd;fill:rgb(0%,0%,0%);fill-opacity:1;" d="M 172.605469 293.035156 L 175.597656 298.988281 L 174 298.988281 L 171.710938 294.042969 L 169.453125 298.988281 L 167.917969 298.988281 L 170.832031 293.097656 L 168.175781 287.980469 L 169.773438 287.980469 L 171.742188 292.15625 L 173.726563 287.980469 L 175.261719 287.980469 Z M 172.605469 293.035156 "/>
<path style=" stroke:none;fill-rule:evenodd;fill:rgb(0%,0%,0%);fill-opacity:1;" d="M 178.910156 288.105469 L 179.089844 288.109375 L 179.265625 288.121094 L 179.433594 288.140625 L 179.597656 288.167969 L 179.757813 288.203125 L 179.914063 288.246094 L 180.0625 288.296875 L 180.207031 288.351563 L 180.34375 288.417969 L 180.609375 288.566406 L 180.734375 288.648438 L 180.851563 288.738281 L 180.964844 288.832031 L 181.070313 288.929688 L 181.167969 289.035156 L 181.261719 289.148438 L 181.347656 289.265625 L 181.429688 289.386719 L 181.503906 289.515625 L 181.570313 289.644531 L 181.628906 289.777344 L 181.683594 289.914063 L 181.726563 290.054688 L 181.765625 290.199219 L 181.796875 290.347656 L 181.824219 290.496094 L 181.839844 290.652344 L 181.851563 290.808594 L 181.855469 290.972656 L 181.851563 291.164063 L 181.839844 291.359375 L 181.820313 291.546875 L 181.792969 291.738281 L 181.757813 291.921875 L 181.714844 292.109375 L 181.667969 292.289063 L 181.609375 292.472656 L 181.542969 292.648438 L 181.46875 292.828125 L 181.390625 293 L 181.304688 293.179688 L 181.207031 293.363281 L 181.101563 293.550781 L 180.988281 293.742188 L 180.863281 293.9375 L 180.726563 294.136719 L 180.585938 294.34375 L 180.433594 294.550781 L 180.269531 294.761719 L 180.09375 294.984375 L 179.902344 295.226563 L 179.691406 295.488281 L 179.460938 295.765625 L 179.214844 296.058594 L 178.949219 296.371094 L 178.667969 296.703125 L 178.367188 297.050781 L 178.046875 297.417969 L 177.710938 297.804688 L 182.09375 297.804688 L 181.917969 298.988281 L 176.125 298.988281 L 176.125 297.867188 L 176.488281 297.449219 L 176.828125 297.050781 L 177.148438 296.675781 L 177.449219 296.316406 L 177.730469 295.984375 L 177.992188 295.667969 L 178.230469 295.375 L 178.449219 295.101563 L 178.652344 294.851563 L 178.832031 294.617188 L 178.996094 294.402344 L 179.15625 294.191406 L 179.300781 293.984375 L 179.4375 293.785156 L 179.5625 293.59375 L 179.675781 293.410156 L 179.78125 293.230469 L 179.875 293.058594 L 179.957031 292.890625 L 180.03125 292.730469 L 180.09375 292.570313 L 180.152344 292.40625 L 180.203125 292.242188 L 180.246094 292.078125 L 180.28125 291.910156 L 180.3125 291.742188 L 180.335938 291.570313 L 180.351563 291.398438 L 180.363281 291.226563 L 180.367188 291.050781 L 180.363281 290.886719 L 180.347656 290.726563 L 180.328125 290.578125 L 180.296875 290.433594 L 180.257813 290.300781 L 180.210938 290.171875 L 180.15625 290.050781 L 180.089844 289.941406 L 180.015625 289.835938 L 179.933594 289.738281 L 179.847656 289.652344 L 179.753906 289.570313 L 179.65625 289.503906 L 179.554688 289.441406 L 179.441406 289.390625 L 179.324219 289.347656 L 179.203125 289.316406 L 179.074219 289.292969 L 178.9375 289.28125 L 178.796875 289.273438 L 178.679688 289.277344 L 178.5625 289.285156 L 178.449219 289.300781 L 178.335938 289.320313 L 178.230469 289.34375 L 178.125 289.371094 L 178.027344 289.40625 L 177.929688 289.449219 L 177.832031 289.496094 L 177.742188 289.546875 L 177.652344 289.605469 L 177.5625 289.667969 L 177.46875 289.738281 L 177.378906 289.816406 L 177.285156 289.898438 L 177.191406 289.988281 L 177.097656 290.085938 L 177.003906 290.1875 L 176.910156 290.296875 L 176.8125 290.410156 L 175.917969 289.722656 L 176.160156 289.414063 L 176.410156 289.140625 L 176.679688 288.898438 L 176.957031 288.6875 L 177.25 288.511719 L 177.554688 288.367188 L 177.875 288.253906 L 178.207031 288.171875 L 178.550781 288.125 Z M 178.910156 288.105469 "/>
<path style="fill-rule:evenodd;fill:rgb(33.72549%,0.392157%,64.313725%);fill-opacity:1;stroke-width:0.708661;stroke-linecap:round;stroke-linejoin:round;stroke:rgb(33.72549%,0.392157%,64.313725%);stroke-opacity:1;stroke-miterlimit:10;" d="M 182.183594 317.285156 C 182.183594 320.425781 179.636719 322.972656 176.496094 322.972656 C 173.351563 322.972656 170.804688 320.425781 170.804688 317.285156 C 170.804688 314.144531 173.351563 311.597656 176.496094 311.597656 C 179.636719 311.597656 182.183594 314.144531 182.183594 317.285156 "/>
<path style="fill-rule:evenodd;fill:rgb(74.901961%,22.352941%,51.764706%);fill-opacity:1;stroke-width:0.708661;stroke-linecap:round;stroke-linejoin:round;stroke:rgb(74.901961%,22.352941%,51.764706%);stroke-opacity:1;stroke-miterlimit:10;" d="M 221.253906 317.285156 C 221.253906 320.425781 218.707031 322.972656 215.566406 322.972656 C 212.421875 322.972656 209.875 320.425781 209.875 317.285156 C 209.875 314.144531 212.421875 311.597656 215.566406 311.597656 C 218.707031 311.597656 221.253906 314.144531 221.253906 317.285156 "/>
<path style="fill-rule:evenodd;fill:rgb(98.823529%,80.784314%,14.509804%);fill-opacity:1;stroke-width:0.708661;stroke-linecap:round;stroke-linejoin:round;stroke:rgb(98.823529%,80.784314%,14.509804%);stroke-opacity:1;stroke-miterlimit:10;" d="M 261.089844 317.285156 C 261.089844 320.425781 258.542969 322.972656 255.398438 322.972656 C 252.257813 322.972656 249.710938 320.425781 249.710938 317.285156 C 249.710938 314.144531 252.257813 311.597656 255.398438 311.597656 C 258.542969 311.597656 261.089844 314.144531 261.089844 317.285156 "/>
<path style=" stroke:none;fill-rule:evenodd;fill:rgb(0%,0%,0%);fill-opacity:1;" d="M 197.515625 312.410156 L 197.515625 322.445313 L 196.179688 322.445313 L 196.179688 313.820313 L 194.09375 315.230469 L 193.480469 314.328125 L 196.328125 312.410156 Z M 197.515625 312.410156 "/>
<path style=" stroke:none;fill-rule:evenodd;fill:rgb(0%,0%,0%);fill-opacity:1;" d="M 235.21875 312.246094 L 235.386719 312.25 L 235.550781 312.257813 L 235.710938 312.277344 L 235.867188 312.300781 L 236.015625 312.335938 L 236.160156 312.375 L 236.300781 312.421875 L 236.433594 312.476563 L 236.5625 312.535156 L 236.691406 312.605469 L 236.8125 312.675781 L 236.929688 312.753906 L 237.039063 312.835938 L 237.144531 312.925781 L 237.246094 313.015625 L 237.425781 313.21875 L 237.503906 313.328125 L 237.582031 313.445313 L 237.648438 313.566406 L 237.710938 313.6875 L 237.769531 313.8125 L 237.816406 313.941406 L 237.859375 314.070313 L 237.898438 314.207031 L 237.925781 314.34375 L 237.949219 314.484375 L 237.964844 314.628906 L 237.976563 314.777344 L 237.980469 314.929688 L 237.976563 315.113281 L 237.964844 315.292969 L 237.945313 315.472656 L 237.921875 315.648438 L 237.890625 315.824219 L 237.851563 315.996094 L 237.804688 316.167969 L 237.75 316.335938 L 237.6875 316.503906 L 237.621094 316.671875 L 237.546875 316.832031 L 237.464844 317 L 237.375 317.171875 L 237.273438 317.347656 L 237.164063 317.527344 L 237.050781 317.710938 L 236.921875 317.898438 L 236.789063 318.089844 L 236.644531 318.285156 L 236.496094 318.484375 L 236.332031 318.695313 L 236.148438 318.921875 L 235.949219 319.164063 L 235.734375 319.421875 L 235.503906 319.699219 L 235.257813 319.992188 L 234.992188 320.304688 L 234.710938 320.628906 L 234.410156 320.972656 L 234.09375 321.335938 L 238.203125 321.335938 L 238.039063 322.445313 L 232.609375 322.445313 L 232.609375 321.394531 L 232.949219 321.003906 L 233.269531 320.628906 L 233.570313 320.277344 L 233.851563 319.941406 L 234.113281 319.628906 L 234.359375 319.335938 L 234.582031 319.058594 L 234.789063 318.804688 L 234.976563 318.566406 L 235.144531 318.351563 L 235.300781 318.144531 L 235.449219 317.949219 L 235.585938 317.757813 L 235.714844 317.570313 L 235.832031 317.390625 L 235.9375 317.214844 L 236.035156 317.046875 L 236.125 316.886719 L 236.203125 316.730469 L 236.269531 316.578125 L 236.328125 316.429688 L 236.382813 316.277344 L 236.429688 316.125 L 236.472656 315.96875 L 236.507813 315.8125 L 236.535156 315.652344 L 236.554688 315.492188 L 236.570313 315.332031 L 236.582031 315.167969 L 236.585938 315.003906 L 236.582031 314.851563 L 236.570313 314.703125 L 236.546875 314.558594 L 236.519531 314.425781 L 236.484375 314.300781 L 236.4375 314.179688 L 236.386719 314.070313 L 236.324219 313.964844 L 236.257813 313.867188 L 236.179688 313.773438 L 236.097656 313.691406 L 236.011719 313.617188 L 235.921875 313.554688 L 235.820313 313.496094 L 235.71875 313.449219 L 235.609375 313.410156 L 235.492188 313.378906 L 235.375 313.359375 L 235.246094 313.34375 L 235.113281 313.339844 L 235.003906 313.34375 L 234.894531 313.351563 L 234.785156 313.363281 L 234.683594 313.378906 L 234.582031 313.402344 L 234.484375 313.433594 L 234.390625 313.464844 L 234.296875 313.503906 L 234.210938 313.546875 L 234.125 313.59375 L 234.039063 313.648438 L 233.957031 313.710938 L 233.871094 313.773438 L 233.785156 313.847656 L 233.695313 313.925781 L 233.609375 314.007813 L 233.523438 314.097656 L 233.433594 314.195313 L 233.34375 314.296875 L 233.253906 314.40625 L 232.414063 313.761719 L 232.640625 313.472656 L 232.878906 313.214844 L 233.128906 312.988281 L 233.390625 312.789063 L 233.664063 312.625 L 233.949219 312.488281 L 234.25 312.382813 L 234.558594 312.304688 L 234.882813 312.261719 Z M 235.21875 312.246094 "/>
<path style=" stroke:none;fill-rule:evenodd;fill:rgb(0%,0%,0%);fill-opacity:1;" d="M 275.085938 312.246094 L 275.246094 312.25 L 275.40625 312.257813 L 275.5625 312.277344 L 275.710938 312.300781 L 275.855469 312.332031 L 276 312.371094 L 276.136719 312.414063 L 276.269531 312.464844 L 276.398438 312.523438 L 276.523438 312.589844 L 276.644531 312.660156 L 276.757813 312.730469 L 276.867188 312.8125 L 276.972656 312.894531 L 277.070313 312.984375 L 277.160156 313.078125 L 277.246094 313.175781 L 277.328125 313.28125 L 277.402344 313.390625 L 277.46875 313.503906 L 277.53125 313.621094 L 277.589844 313.738281 L 277.636719 313.859375 L 277.679688 313.980469 L 277.71875 314.105469 L 277.746094 314.230469 L 277.769531 314.363281 L 277.785156 314.492188 L 277.796875 314.628906 L 277.800781 314.765625 L 277.796875 314.953125 L 277.78125 315.132813 L 277.753906 315.308594 L 277.71875 315.476563 L 277.675781 315.636719 L 277.621094 315.789063 L 277.558594 315.933594 L 277.484375 316.070313 L 277.398438 316.203125 L 277.304688 316.324219 L 277.203125 316.4375 L 277.089844 316.542969 L 276.96875 316.640625 L 276.839844 316.734375 L 276.703125 316.816406 L 276.558594 316.890625 L 276.40625 316.960938 L 276.242188 317.019531 L 276.074219 317.074219 L 275.894531 317.121094 L 276.089844 317.144531 L 276.273438 317.175781 L 276.453125 317.222656 L 276.625 317.277344 L 276.789063 317.34375 L 276.941406 317.421875 L 277.089844 317.511719 L 277.230469 317.609375 L 277.359375 317.71875 L 277.484375 317.839844 L 277.597656 317.972656 L 277.699219 318.113281 L 277.789063 318.261719 L 277.867188 318.421875 L 277.933594 318.59375 L 277.988281 318.773438 L 278.03125 318.964844 L 278.0625 319.164063 L 278.078125 319.375 L 278.085938 319.59375 L 278.082031 319.765625 L 278.070313 319.929688 L 278.050781 320.09375 L 278.023438 320.253906 L 277.988281 320.410156 L 277.945313 320.5625 L 277.894531 320.710938 L 277.835938 320.859375 L 277.769531 321 L 277.695313 321.140625 L 277.617188 321.273438 L 277.53125 321.40625 L 277.4375 321.527344 L 277.339844 321.644531 L 277.234375 321.757813 L 277.121094 321.867188 L 277 321.964844 L 276.875 322.0625 L 276.742188 322.152344 L 276.601563 322.234375 L 276.457031 322.3125 L 276.308594 322.378906 L 276.15625 322.441406 L 275.996094 322.496094 L 275.835938 322.539063 L 275.667969 322.574219 L 275.496094 322.605469 L 275.316406 322.625 L 275.136719 322.636719 L 274.949219 322.640625 L 274.777344 322.636719 L 274.609375 322.625 L 274.445313 322.609375 L 274.28125 322.585938 L 274.125 322.558594 L 273.96875 322.519531 L 273.820313 322.476563 L 273.671875 322.429688 L 273.53125 322.371094 L 273.390625 322.308594 L 273.257813 322.238281 L 273.125 322.160156 L 272.867188 321.980469 L 272.742188 321.878906 L 272.617188 321.773438 L 272.496094 321.65625 L 272.378906 321.539063 L 272.261719 321.410156 L 272.144531 321.273438 L 272.953125 320.585938 L 273.046875 320.683594 L 273.140625 320.777344 L 273.234375 320.867188 L 273.324219 320.949219 L 273.417969 321.027344 L 273.507813 321.101563 L 273.597656 321.167969 L 273.6875 321.226563 L 273.78125 321.285156 L 273.871094 321.335938 L 273.964844 321.378906 L 274.058594 321.417969 L 274.160156 321.449219 L 274.257813 321.480469 L 274.359375 321.503906 L 274.464844 321.523438 L 274.574219 321.539063 L 274.679688 321.550781 L 274.792969 321.558594 L 274.90625 321.558594 L 275.066406 321.554688 L 275.222656 321.539063 L 275.367188 321.511719 L 275.507813 321.476563 L 275.644531 321.429688 L 275.769531 321.371094 L 275.890625 321.304688 L 276.003906 321.222656 L 276.109375 321.136719 L 276.210938 321.035156 L 276.304688 320.921875 L 276.386719 320.804688 L 276.460938 320.675781 L 276.527344 320.539063 L 276.582031 320.398438 L 276.625 320.246094 L 276.660156 320.089844 L 276.683594 319.921875 L 276.699219 319.746094 L 276.703125 319.566406 L 276.699219 319.371094 L 276.683594 319.191406 L 276.660156 319.019531 L 276.625 318.863281 L 276.582031 318.714844 L 276.527344 318.578125 L 276.460938 318.449219 L 276.386719 318.335938 L 276.304688 318.234375 L 276.210938 318.140625 L 276.109375 318.054688 L 276 317.976563 L 275.882813 317.910156 L 275.757813 317.851563 L 275.621094 317.800781 L 275.476563 317.761719 L 275.324219 317.730469 L 275.164063 317.707031 L 274.992188 317.695313 L 274.816406 317.691406 L 274.183594 317.691406 L 274.351563 316.683594 L 274.769531 316.683594 L 274.917969 316.679688 L 275.058594 316.667969 L 275.195313 316.644531 L 275.328125 316.609375 L 275.453125 316.570313 L 275.574219 316.519531 L 275.6875 316.457031 L 275.796875 316.386719 L 275.902344 316.308594 L 276 316.21875 L 276.09375 316.121094 L 276.179688 316.019531 L 276.253906 315.90625 L 276.316406 315.785156 L 276.371094 315.652344 L 276.414063 315.515625 L 276.449219 315.371094 L 276.476563 315.21875 L 276.488281 315.054688 L 276.496094 314.886719 L 276.492188 314.738281 L 276.476563 314.597656 L 276.457031 314.464844 L 276.425781 314.335938 L 276.390625 314.21875 L 276.34375 314.105469 L 276.289063 313.996094 L 276.226563 313.894531 L 276.15625 313.800781 L 276.074219 313.714844 L 275.992188 313.636719 L 275.898438 313.5625 L 275.804688 313.5 L 275.699219 313.445313 L 275.589844 313.398438 L 275.476563 313.363281 L 275.355469 313.332031 L 275.226563 313.3125 L 275.089844 313.300781 L 274.949219 313.296875 L 274.84375 313.296875 L 274.640625 313.3125 L 274.542969 313.328125 L 274.445313 313.347656 L 274.347656 313.371094 L 274.25 313.398438 L 274.15625 313.429688 L 274.066406 313.464844 L 273.976563 313.503906 L 273.886719 313.550781 L 273.800781 313.597656 L 273.710938 313.652344 L 273.625 313.710938 L 273.535156 313.773438 L 273.449219 313.84375 L 273.359375 313.917969 L 273.269531 313.996094 L 273.179688 314.078125 L 273.089844 314.164063 L 272.386719 313.445313 L 272.621094 313.21875 L 272.867188 313.011719 L 273.121094 312.832031 L 273.378906 312.675781 L 273.644531 312.546875 L 273.917969 312.4375 L 274.199219 312.351563 L 274.488281 312.292969 L 274.78125 312.257813 Z M 275.085938 312.246094 "/>
</g>
</svg>
